<?xml version="1.0" encoding="UTF-8" standalone="no"?>
<!-- Created with Inkscape (http://www.inkscape.org/) -->

<svg
   xmlns:dc="http://purl.org/dc/elements/1.1/"
   xmlns:cc="http://creativecommons.org/ns#"
   xmlns:rdf="http://www.w3.org/1999/02/22-rdf-syntax-ns#"
   xmlns:svg="http://www.w3.org/2000/svg"
   xmlns="http://www.w3.org/2000/svg"
   xmlns:sodipodi="http://sodipodi.sourceforge.net/DTD/sodipodi-0.dtd"
   xmlns:inkscape="http://www.inkscape.org/namespaces/inkscape"
   width="70.861824mm"
   height="45.280544mm"
   viewBox="0 0 70.861824 45.280544"
   version="1.1"
   id="svg8"
   inkscape:version="0.92.4 5da689c313, 2019-01-14"
   sodipodi:docname="copyright.svg">
  <defs
     id="defs2" />
  <sodipodi:namedview
     id="base"
     pagecolor="#ffffff"
     bordercolor="#666666"
     borderopacity="1.0"
     inkscape:pageopacity="0.0"
     inkscape:pageshadow="2"
     inkscape:zoom="1.4"
     inkscape:cx="30.845686"
     inkscape:cy="58.524037"
     inkscape:document-units="mm"
     inkscape:current-layer="g1035"
     showgrid="false"
     fit-margin-top="0"
     fit-margin-left="0"
     fit-margin-right="0"
     fit-margin-bottom="0"
     inkscape:window-width="1920"
     inkscape:window-height="978"
     inkscape:window-x="0"
     inkscape:window-y="29"
     inkscape:window-maximized="1" />
  <metadata
     id="metadata5">
    <rdf:RDF>
      <cc:Work
         rdf:about="">
        <dc:format>image/svg+xml</dc:format>
        <dc:type
           rdf:resource="http://purl.org/dc/dcmitype/StillImage" />
        <dc:title></dc:title>
      </cc:Work>
    </rdf:RDF>
  </metadata>
  <g
     inkscape:label="Ebene 1"
     inkscape:groupmode="layer"
     id="layer1"
     transform="translate(2.4530241,-2.6883593)">
    <g
       id="g1035">
      <text
         id="text1016-5"
         y="48.595356"
         x="-12.130697"
         style="font-style:normal;font-variant:normal;font-weight:normal;font-stretch:normal;font-size:7.58360338px;line-height:1.25;font-family:sans-serif;-inkscape-font-specification:sans-serif;letter-spacing:0px;word-spacing:0px;fill:#000000;fill-opacity:1;stroke:none;stroke-width:0.26458332"
         xml:space="preserve"><tspan
           style="font-style:normal;font-variant:normal;font-weight:bold;font-stretch:normal;font-size:7.58360338px;font-family:sans-serif;-inkscape-font-specification:'sans-serif, Bold';font-variant-ligatures:normal;font-variant-caps:normal;font-variant-numeric:normal;font-feature-settings:normal;text-align:start;writing-mode:lr-tb;text-anchor:start;stroke-width:0.26458332"
           y="55.305069"
           x="-12.130697"
           id="tspan1014-9"
           sodipodi:role="line" /></text>
      <g
         id="g1089">
        <g
           id="g1012"
           transform="translate(23.448695,-11.717262)">
          <g
             transform="matrix(0.26458333,0,0,0.26458333,25.910185,15.331663)"
             id="g934">
	<circle
   style="fill:#ffffff"
   cx="36.944"
   cy="28.631001"
   r="29.105"
   id="circle928" />

	<g
   id="g932">
		<path
   inkscape:connector-curvature="0"
   d="m 37.443,-3.5 c 8.951,0 16.531,3.105 22.742,9.315 6.208,6.172 9.315,13.733 9.315,22.685 0,8.954 -3.049,16.457 -9.145,22.514 C 53.918,57.338 46.279,60.5 37.443,60.5 28.794,60.5 21.29,57.357 14.929,51.071 8.644,44.786 5.5,37.264 5.5,28.501 5.5,19.778 8.644,12.216 14.929,5.816 21.138,-0.395 28.643,-3.5 37.443,-3.5 Z m 0.114,5.772 c -7.276,0 -13.428,2.572 -18.457,7.715 -5.22,5.296 -7.829,11.467 -7.829,18.513 0,7.125 2.59,13.257 7.77,18.4 5.181,5.182 11.352,7.771 18.514,7.771 7.123,0 13.334,-2.609 18.629,-7.828 5.029,-4.876 7.543,-10.99 7.543,-18.343 0,-7.313 -2.553,-13.485 -7.656,-18.513 C 51.004,4.842 44.832,2.272 37.557,2.272 Z M 23.271,23.985 c 0.609,-3.924 2.189,-6.962 4.742,-9.114 2.552,-2.152 5.656,-3.228 9.314,-3.228 5.027,0 9.029,1.62 12,4.856 2.971,3.238 4.457,7.391 4.457,12.457 0,4.915 -1.543,9 -4.627,12.256 -3.088,3.256 -7.086,4.886 -12.002,4.886 -3.619,0 -6.743,-1.085 -9.371,-3.257 -2.629,-2.172 -4.209,-5.257 -4.743,-9.257 H 31.1 c 0.19,3.886 2.533,5.829 7.029,5.829 2.246,0 4.057,-0.972 5.428,-2.914 1.373,-1.942 2.059,-4.534 2.059,-7.771 0,-3.391 -0.629,-5.971 -1.885,-7.743 -1.258,-1.771 -3.066,-2.657 -5.43,-2.657 -4.268,0 -6.667,1.885 -7.2,5.656 h 2.343 l -6.342,6.343 -6.343,-6.343 z"
   id="path930" />

	</g>

</g>
          <g
             transform="matrix(0.26458333,0,0,0.26458333,-9.1603924,15.331663)"
             id="g953">
	<circle
   style="fill:#ffffff"
   cx="37.637001"
   cy="28.806"
   r="28.275999"
   id="circle947" />

	<g
   id="g951">
		<path
   inkscape:connector-curvature="0"
   d="m 37.443,-3.5 c 8.988,0 16.57,3.085 22.742,9.257 6.208,6.21 9.315,13.791 9.315,22.743 0,8.991 -3.049,16.476 -9.145,22.456 C 53.879,57.319 46.242,60.5 37.443,60.5 28.794,60.5 21.29,57.356 14.929,51.07 8.644,44.784 5.5,37.262 5.5,28.5 5.5,19.739 8.644,12.158 14.929,5.758 21.101,-0.415 28.604,-3.5 37.443,-3.5 Z m 0.114,5.772 c -7.276,0 -13.428,2.553 -18.457,7.657 -5.22,5.334 -7.829,11.525 -7.829,18.572 0,7.086 2.59,13.22 7.77,18.398 5.181,5.182 11.352,7.771 18.514,7.771 7.123,0 13.334,-2.607 18.629,-7.828 5.029,-4.838 7.543,-10.952 7.543,-18.343 0,-7.276 -2.553,-13.465 -7.656,-18.571 C 50.967,4.824 44.795,2.272 37.557,2.272 Z m 8.572,18.285 V 33.642 H 42.473 V 49.184 H 32.529 V 33.643 H 28.873 V 20.557 c 0,-0.572 0.2,-1.057 0.599,-1.457 0.401,-0.399 0.887,-0.6 1.457,-0.6 h 13.144 c 0.533,0 1.01,0.2 1.428,0.6 0.417,0.4 0.628,0.886 0.628,1.457 z M 33.042,12.329 c 0,-3.008 1.485,-4.514 4.458,-4.514 2.973,0 4.457,1.504 4.457,4.514 0,2.971 -1.486,4.457 -4.457,4.457 -2.971,0 -4.458,-1.486 -4.458,-4.457 z"
   id="path949" />

	</g>

</g>
          <g
             transform="matrix(0.26458333,0,0,0.26458333,8.3748968,15.331663)"
             id="g970">
	<circle
   style="fill:#ffffff"
   cx="36.924"
   cy="28.403"
   r="28.895"
   id="circle966" />

	<path
   inkscape:connector-curvature="0"
   d="M 60.205,5.779 C 54.012,-0.407 46.428,-3.5 37.459,-3.5 28.594,-3.5 21.092,-0.409 14.951,5.779 8.649,12.18 5.5,19.752 5.5,28.5 c 0,8.745 3.149,16.266 9.451,22.558 6.301,6.296 13.802,9.442 22.508,9.442 8.809,0 16.446,-3.175 22.907,-9.521 C 66.455,44.952 69.5,37.459 69.5,28.5 69.499,19.539 66.401,11.964 60.205,5.779 Z M 56.199,46.82 c -5.286,5.226 -11.508,7.837 -18.66,7.837 -7.156,0 -13.325,-2.587 -18.504,-7.761 -5.179,-5.174 -7.77,-11.306 -7.77,-18.397 0,-3 0.474,-5.837 1.41,-8.51 l 8.479,3.754 h -0.611 v 3.803 h 3.001 c 0,0.538 -0.054,1.073 -0.054,1.608 v 0.912 h -2.947 v 3.803 h 3.481 c 0.483,2.84 1.555,5.144 3,6.965 3,3.965 7.822,6.106 13.071,6.106 3.43,0 6.533,-1.017 8.357,-2.036 L 47.165,38.96 c -1.125,0.589 -3.641,1.391 -6.104,1.391 -2.68,0 -5.196,-0.802 -6.911,-2.731 -0.803,-0.91 -1.392,-2.144 -1.767,-3.75 h 11.646 l 16.549,7.325 c -1.145,2.03 -2.6,3.907 -4.379,5.625 z m -20.812,-16.755 -0.07,-0.054 0.12,0.054 z m 9.964,-2.52 h 0.479 v -3.803 h -9.07 l -3.685,-1.63 c 0.317,-0.713 0.693,-1.351 1.131,-1.85 1.661,-2.039 4.017,-2.895 6.589,-2.895 2.357,0 4.553,0.696 5.945,1.285 l 1.5,-6.108 c -1.93,-0.855 -4.768,-1.605 -8.035,-1.605 -5.035,0 -9.321,2.035 -12.375,5.463 -0.678,0.783 -1.266,1.662 -1.799,2.591 L 15.508,14.336 c 1.02,-1.529 2.219,-2.997 3.608,-4.398 5.021,-5.12 11.16,-7.681 18.424,-7.681 7.26,0 13.429,2.56 18.502,7.681 5.124,5.066 7.687,11.252 7.687,18.562 0,2.407 -0.272,4.678 -0.812,6.82 z"
   id="path968" />

</g>
          <g
             transform="matrix(0.26458333,0,0,0.26458333,-26.695549,15.331795)"
             id="g986">
	<circle
   style="fill:#ffffff"
   cx="37.785"
   cy="28.500999"
   r="28.836"
   id="circle982" />

	<path
   inkscape:connector-curvature="0"
   d="m 37.441,-3.5 c 8.951,0 16.572,3.125 22.857,9.372 3.008,3.009 5.295,6.448 6.857,10.314 1.561,3.867 2.344,7.971 2.344,12.314 0,4.381 -0.773,8.486 -2.314,12.313 -1.543,3.828 -3.82,7.21 -6.828,10.143 -3.123,3.085 -6.666,5.448 -10.629,7.086 -3.961,1.638 -8.057,2.457 -12.285,2.457 -4.228,0 -8.276,-0.808 -12.143,-2.429 C 21.434,56.452 17.967,54.109 14.9,51.043 11.833,47.977 9.5,44.519 7.9,40.671 6.3,36.823 5.5,32.767 5.5,28.5 5.5,24.271 6.309,20.205 7.928,16.3 9.547,12.395 11.9,8.9 14.985,5.814 21.08,-0.394 28.565,-3.5 37.441,-3.5 Z m 0.116,5.772 c -7.314,0 -13.467,2.553 -18.458,7.657 -2.515,2.553 -4.448,5.419 -5.8,8.6 -1.354,3.181 -2.029,6.505 -2.029,9.972 0,3.429 0.675,6.734 2.029,9.913 1.353,3.183 3.285,6.021 5.8,8.516 2.514,2.496 5.351,4.399 8.515,5.715 3.161,1.314 6.476,1.971 9.943,1.971 3.428,0 6.75,-0.665 9.973,-1.999 3.219,-1.335 6.121,-3.257 8.713,-5.771 4.99,-4.876 7.484,-10.99 7.484,-18.344 0,-3.543 -0.648,-6.895 -1.943,-10.057 C 60.491,15.283 58.604,12.465 56.13,9.987 50.984,4.844 44.795,2.272 37.557,2.272 Z m -0.401,20.915 -4.287,2.229 c -0.458,-0.951 -1.019,-1.619 -1.685,-2 -0.667,-0.38 -1.286,-0.571 -1.858,-0.571 -2.856,0 -4.286,1.885 -4.286,5.657 0,1.714 0.362,3.084 1.085,4.113 0.724,1.029 1.791,1.544 3.201,1.544 1.867,0 3.181,-0.915 3.944,-2.743 l 3.942,2 c -0.838,1.563 -2,2.791 -3.486,3.686 -1.484,0.896 -3.123,1.343 -4.914,1.343 -2.857,0 -5.163,-0.875 -6.915,-2.629 -1.752,-1.752 -2.628,-4.19 -2.628,-7.313 0,-3.048 0.886,-5.466 2.657,-7.257 1.771,-1.79 4.009,-2.686 6.715,-2.686 3.963,-0.002 6.8,1.541 8.515,4.627 z m 18.457,0 -4.229,2.229 c -0.457,-0.951 -1.02,-1.619 -1.686,-2 -0.668,-0.38 -1.307,-0.571 -1.914,-0.571 -2.857,0 -4.287,1.885 -4.287,5.657 0,1.714 0.363,3.084 1.086,4.113 0.723,1.029 1.789,1.544 3.201,1.544 1.865,0 3.18,-0.915 3.941,-2.743 l 4,2 c -0.875,1.563 -2.057,2.791 -3.541,3.686 -1.486,0.896 -3.105,1.343 -4.857,1.343 -2.896,0 -5.209,-0.875 -6.941,-2.629 -1.736,-1.752 -2.602,-4.19 -2.602,-7.313 0,-3.048 0.885,-5.466 2.658,-7.257 1.77,-1.79 4.008,-2.686 6.713,-2.686 3.962,-0.002 6.783,1.541 8.458,4.627 z"
   id="path984" />

</g>
        </g>
        <text
           xml:space="preserve"
           style="font-style:normal;font-variant:normal;font-weight:bold;font-stretch:normal;font-size:7.76111126px;line-height:1.25;font-family:sans-serif;-inkscape-font-specification:'sans-serif, Bold';font-variant-ligatures:normal;font-variant-caps:normal;font-variant-numeric:normal;font-feature-settings:normal;text-align:start;letter-spacing:0px;word-spacing:0px;writing-mode:lr-tb;text-anchor:start;fill:#000000;fill-opacity:1;stroke:none;stroke-width:0.26458332"
           x="-2.8395638"
           y="27.127996"
           id="text1016"><tspan
             sodipodi:role="line"
             id="tspan1014"
             x="-2.8395638"
             y="27.127996"
             style="font-style:normal;font-variant:normal;font-weight:bold;font-stretch:normal;font-size:7.76111126px;font-family:sans-serif;-inkscape-font-specification:'sans-serif, Bold';font-variant-ligatures:normal;font-variant-caps:normal;font-variant-numeric:normal;font-feature-settings:normal;text-align:start;writing-mode:lr-tb;text-anchor:start;stroke-width:0.26458332">CC-BY-NC-SA 4.0</tspan></text>
        <text
           transform="scale(0.9577345,1.0441307)"
           id="text1057"
           y="38.070465"
           x="34.740185"
           style="font-style:normal;font-variant:normal;font-weight:bold;font-stretch:normal;font-size:7.76111126px;line-height:1;font-family:sans-serif;-inkscape-font-specification:'sans-serif, Bold';font-variant-ligatures:normal;font-variant-caps:normal;font-variant-numeric:normal;font-feature-settings:normal;text-align:center;letter-spacing:0px;word-spacing:0px;writing-mode:lr-tb;text-anchor:middle;fill:#000000;fill-opacity:1;stroke:none;stroke-width:0.26458332"
           xml:space="preserve"><tspan
             style="font-style:normal;font-variant:normal;font-weight:bold;font-stretch:normal;font-size:7.76111126px;line-height:1;font-family:sans-serif;-inkscape-font-specification:'sans-serif, Bold';font-variant-ligatures:normal;font-variant-caps:normal;font-variant-numeric:normal;font-feature-settings:normal;text-align:center;writing-mode:lr-tb;text-anchor:middle;stroke-width:0.26458332"
             y="38.070465"
             x="34.740185"
             id="tspan1055"
             sodipodi:role="line">© 2019</tspan><tspan
             id="tspan1059"
             style="font-style:normal;font-variant:normal;font-weight:bold;font-stretch:normal;font-size:7.76111126px;line-height:1;font-family:sans-serif;-inkscape-font-specification:'sans-serif, Bold';font-variant-ligatures:normal;font-variant-caps:normal;font-variant-numeric:normal;font-feature-settings:normal;text-align:center;writing-mode:lr-tb;text-anchor:middle;stroke-width:0.26458332"
             y="45.831577"
             x="34.740185"
             sodipodi:role="line">Thomas Schmid</tspan></text>
      </g>
      <flowRoot
         xml:space="preserve"
         id="flowRoot1061"
         style="font-style:normal;font-variant:normal;font-weight:normal;font-stretch:normal;font-size:13.33333302px;line-height:1.25;font-family:sans-serif;-inkscape-font-specification:sans-serif;letter-spacing:0px;word-spacing:0px;fill:#000000;fill-opacity:1;stroke:none"
         transform="scale(0.26458333)"><flowRegion
           id="flowRegion1063"><rect
             id="rect1065"
             width="414.28571"
             height="308.57144"
             x="-77.85714"
             y="-63.908886" /></flowRegion><flowPara
           id="flowPara1067"></flowPara></flowRoot>    </g>
  </g>
</svg>
