G04 #@! TF.GenerationSoftware,KiCad,Pcbnew,(5.1.4)-1*
G04 #@! TF.CreationDate,2019-09-05T11:12:14+02:00*
G04 #@! TF.ProjectId,altimeter,616c7469-6d65-4746-9572-2e6b69636164,rev?*
G04 #@! TF.SameCoordinates,Original*
G04 #@! TF.FileFunction,Legend,Top*
G04 #@! TF.FilePolarity,Positive*
%FSLAX46Y46*%
G04 Gerber Fmt 4.6, Leading zero omitted, Abs format (unit mm)*
G04 Created by KiCad (PCBNEW (5.1.4)-1) date 2019-09-05 11:12:14*
%MOMM*%
%LPD*%
G04 APERTURE LIST*
%ADD10C,0.300000*%
%ADD11C,0.150000*%
%ADD12C,0.120000*%
%ADD13C,0.010000*%
%ADD14C,0.100000*%
%ADD15C,0.640800*%
%ADD16C,0.925800*%
%ADD17C,1.725000*%
%ADD18R,0.455800X1.040800*%
%ADD19R,0.425800X0.550800*%
%ADD20R,0.350800X0.700800*%
%ADD21O,2.050800X2.050800*%
%ADD22R,2.050800X2.050800*%
%ADD23O,1.750800X1.750800*%
%ADD24R,1.750800X1.750800*%
%ADD25C,1.250800*%
%ADD26O,1.850800X1.250800*%
%ADD27R,1.110800X0.700800*%
%ADD28R,0.650800X0.500800*%
%ADD29R,0.850800X0.950800*%
%ADD30C,2.050800*%
%ADD31C,0.850800*%
%ADD32C,6.450800*%
%ADD33R,1.250800X1.950800*%
%ADD34O,1.250800X1.950800*%
%ADD35R,1.550800X1.950800*%
%ADD36C,1.500800*%
%ADD37R,0.450800X1.400800*%
%ADD38R,1.050800X2.630800*%
%ADD39O,1.350800X0.850800*%
G04 APERTURE END LIST*
D10*
X174136857Y-119062571D02*
X174136857Y-120205428D01*
X173672571Y-114661142D02*
X174815428Y-114661142D01*
X174244000Y-115232571D02*
X174244000Y-114089714D01*
D11*
X146018499Y-104367272D02*
X145304213Y-104367272D01*
X145161356Y-104319653D01*
X145066118Y-104224415D01*
X145018499Y-104081558D01*
X145018499Y-103986320D01*
X145018499Y-105319653D02*
X145018499Y-104843462D01*
X146018499Y-104843462D01*
X145113737Y-106224415D02*
X145066118Y-106176796D01*
X145018499Y-106033939D01*
X145018499Y-105938700D01*
X145066118Y-105795843D01*
X145161356Y-105700605D01*
X145256594Y-105652986D01*
X145447070Y-105605367D01*
X145589927Y-105605367D01*
X145780403Y-105652986D01*
X145875641Y-105700605D01*
X145970880Y-105795843D01*
X146018499Y-105938700D01*
X146018499Y-106033939D01*
X145970880Y-106176796D01*
X145923260Y-106224415D01*
X146018499Y-106938700D02*
X145304213Y-106938700D01*
X145161356Y-106891081D01*
X145066118Y-106795843D01*
X145018499Y-106652986D01*
X145018499Y-106557748D01*
X145018499Y-107891081D02*
X145018499Y-107414891D01*
X146018499Y-107414891D01*
X145113737Y-108795843D02*
X145066118Y-108748224D01*
X145018499Y-108605367D01*
X145018499Y-108510129D01*
X145066118Y-108367272D01*
X145161356Y-108272034D01*
X145256594Y-108224415D01*
X145447070Y-108176796D01*
X145589927Y-108176796D01*
X145780403Y-108224415D01*
X145875641Y-108272034D01*
X145970880Y-108367272D01*
X146018499Y-108510129D01*
X146018499Y-108605367D01*
X145970880Y-108748224D01*
X145923260Y-108795843D01*
X146018499Y-109510129D02*
X145304213Y-109510129D01*
X145161356Y-109462510D01*
X145066118Y-109367272D01*
X145018499Y-109224415D01*
X145018499Y-109129177D01*
X145018499Y-110462510D02*
X145018499Y-109986320D01*
X146018499Y-109986320D01*
X145113737Y-111367272D02*
X145066118Y-111319653D01*
X145018499Y-111176796D01*
X145018499Y-111081558D01*
X145066118Y-110938700D01*
X145161356Y-110843462D01*
X145256594Y-110795843D01*
X145447070Y-110748224D01*
X145589927Y-110748224D01*
X145780403Y-110795843D01*
X145875641Y-110843462D01*
X145970880Y-110938700D01*
X146018499Y-111081558D01*
X146018499Y-111176796D01*
X145970880Y-111319653D01*
X145923260Y-111367272D01*
X146018499Y-112081558D02*
X145304213Y-112081558D01*
X145161356Y-112033939D01*
X145066118Y-111938700D01*
X145018499Y-111795843D01*
X145018499Y-111700605D01*
X145018499Y-113033939D02*
X145018499Y-112557748D01*
X146018499Y-112557748D01*
X145113737Y-113938700D02*
X145066118Y-113891081D01*
X145018499Y-113748224D01*
X145018499Y-113652986D01*
X145066118Y-113510129D01*
X145161356Y-113414891D01*
X145256594Y-113367272D01*
X145447070Y-113319653D01*
X145589927Y-113319653D01*
X145780403Y-113367272D01*
X145875641Y-113414891D01*
X145970880Y-113510129D01*
X146018499Y-113652986D01*
X146018499Y-113748224D01*
X145970880Y-113891081D01*
X145923260Y-113938700D01*
D12*
X162775000Y-107735000D02*
X162775000Y-105450000D01*
X161305000Y-107735000D02*
X162775000Y-107735000D01*
X161305000Y-105450000D02*
X161305000Y-107735000D01*
X151795000Y-97805000D02*
X152130000Y-97805000D01*
X154730000Y-97805000D02*
X155065000Y-97805000D01*
X154730000Y-101075000D02*
X155065000Y-101075000D01*
X155065000Y-101075000D02*
X155065000Y-97805000D01*
X151795000Y-101310000D02*
X151795000Y-97805000D01*
D13*
G36*
X158168400Y-110202500D02*
G01*
X157987425Y-110201354D01*
X157918163Y-110200056D01*
X157854427Y-110197295D01*
X157802301Y-110193445D01*
X157767870Y-110188877D01*
X157762463Y-110187588D01*
X157694866Y-110159219D01*
X157647932Y-110117815D01*
X157620423Y-110061506D01*
X157611103Y-109988417D01*
X157611336Y-109979328D01*
X157787400Y-109979328D01*
X157797981Y-110024725D01*
X157829353Y-110055963D01*
X157880953Y-110072643D01*
X157922462Y-110075500D01*
X157990600Y-110075500D01*
X157990600Y-109885000D01*
X157914400Y-109885000D01*
X157853755Y-109890653D01*
X157813894Y-109908717D01*
X157792587Y-109940846D01*
X157787400Y-109979328D01*
X157611336Y-109979328D01*
X157611841Y-109959695D01*
X157616096Y-109910161D01*
X157624004Y-109877060D01*
X157638580Y-109851432D01*
X157654441Y-109833061D01*
X157689702Y-109801144D01*
X157729115Y-109778828D01*
X157778855Y-109763864D01*
X157845097Y-109753999D01*
X157880176Y-109750766D01*
X157990600Y-109741807D01*
X157990600Y-109516700D01*
X158168400Y-109516700D01*
X158168400Y-110202500D01*
X158168400Y-110202500D01*
G37*
X158168400Y-110202500D02*
X157987425Y-110201354D01*
X157918163Y-110200056D01*
X157854427Y-110197295D01*
X157802301Y-110193445D01*
X157767870Y-110188877D01*
X157762463Y-110187588D01*
X157694866Y-110159219D01*
X157647932Y-110117815D01*
X157620423Y-110061506D01*
X157611103Y-109988417D01*
X157611336Y-109979328D01*
X157787400Y-109979328D01*
X157797981Y-110024725D01*
X157829353Y-110055963D01*
X157880953Y-110072643D01*
X157922462Y-110075500D01*
X157990600Y-110075500D01*
X157990600Y-109885000D01*
X157914400Y-109885000D01*
X157853755Y-109890653D01*
X157813894Y-109908717D01*
X157792587Y-109940846D01*
X157787400Y-109979328D01*
X157611336Y-109979328D01*
X157611841Y-109959695D01*
X157616096Y-109910161D01*
X157624004Y-109877060D01*
X157638580Y-109851432D01*
X157654441Y-109833061D01*
X157689702Y-109801144D01*
X157729115Y-109778828D01*
X157778855Y-109763864D01*
X157845097Y-109753999D01*
X157880176Y-109750766D01*
X157990600Y-109741807D01*
X157990600Y-109516700D01*
X158168400Y-109516700D01*
X158168400Y-110202500D01*
G36*
X158707057Y-109507062D02*
G01*
X158779922Y-109520350D01*
X158836376Y-109547717D01*
X158879678Y-109590733D01*
X158912764Y-109650223D01*
X158920850Y-109674251D01*
X158927146Y-109706328D01*
X158931991Y-109750184D01*
X158935729Y-109809547D01*
X158938700Y-109888144D01*
X158940391Y-109951675D01*
X158946342Y-110202500D01*
X158765300Y-110202500D01*
X158764542Y-110002475D01*
X158763096Y-109893877D01*
X158759124Y-109808096D01*
X158751811Y-109742606D01*
X158740338Y-109694880D01*
X158723888Y-109662393D01*
X158701642Y-109642619D01*
X158672784Y-109633032D01*
X158644281Y-109631000D01*
X158607690Y-109632731D01*
X158579328Y-109639816D01*
X158558159Y-109655091D01*
X158543150Y-109681392D01*
X158533265Y-109721555D01*
X158527468Y-109778415D01*
X158524725Y-109854809D01*
X158524001Y-109953573D01*
X158524000Y-109960569D01*
X158524000Y-110202500D01*
X158344774Y-110202500D01*
X158348662Y-109938975D01*
X158350715Y-109837282D01*
X158354123Y-109757492D01*
X158359792Y-109696107D01*
X158368630Y-109649635D01*
X158381545Y-109614579D01*
X158399444Y-109587445D01*
X158423233Y-109564739D01*
X158451008Y-109544819D01*
X158480438Y-109527883D01*
X158511617Y-109517064D01*
X158552263Y-109510541D01*
X158610096Y-109506495D01*
X158614523Y-109506280D01*
X158707057Y-109507062D01*
X158707057Y-109507062D01*
G37*
X158707057Y-109507062D02*
X158779922Y-109520350D01*
X158836376Y-109547717D01*
X158879678Y-109590733D01*
X158912764Y-109650223D01*
X158920850Y-109674251D01*
X158927146Y-109706328D01*
X158931991Y-109750184D01*
X158935729Y-109809547D01*
X158938700Y-109888144D01*
X158940391Y-109951675D01*
X158946342Y-110202500D01*
X158765300Y-110202500D01*
X158764542Y-110002475D01*
X158763096Y-109893877D01*
X158759124Y-109808096D01*
X158751811Y-109742606D01*
X158740338Y-109694880D01*
X158723888Y-109662393D01*
X158701642Y-109642619D01*
X158672784Y-109633032D01*
X158644281Y-109631000D01*
X158607690Y-109632731D01*
X158579328Y-109639816D01*
X158558159Y-109655091D01*
X158543150Y-109681392D01*
X158533265Y-109721555D01*
X158527468Y-109778415D01*
X158524725Y-109854809D01*
X158524001Y-109953573D01*
X158524000Y-109960569D01*
X158524000Y-110202500D01*
X158344774Y-110202500D01*
X158348662Y-109938975D01*
X158350715Y-109837282D01*
X158354123Y-109757492D01*
X158359792Y-109696107D01*
X158368630Y-109649635D01*
X158381545Y-109614579D01*
X158399444Y-109587445D01*
X158423233Y-109564739D01*
X158451008Y-109544819D01*
X158480438Y-109527883D01*
X158511617Y-109517064D01*
X158552263Y-109510541D01*
X158610096Y-109506495D01*
X158614523Y-109506280D01*
X158707057Y-109507062D01*
G36*
X157284462Y-108828336D02*
G01*
X157287852Y-108829547D01*
X157312132Y-108851797D01*
X157315242Y-108887039D01*
X157297159Y-108935650D01*
X157279400Y-108966295D01*
X157267298Y-108984161D01*
X157256158Y-108999768D01*
X157247486Y-109013269D01*
X157242790Y-109024814D01*
X157243580Y-109034554D01*
X157251362Y-109042642D01*
X157267646Y-109049229D01*
X157293938Y-109054466D01*
X157331749Y-109058504D01*
X157382584Y-109061496D01*
X157447954Y-109063593D01*
X157529365Y-109064945D01*
X157628326Y-109065706D01*
X157746345Y-109066025D01*
X157884930Y-109066055D01*
X158045590Y-109065948D01*
X158229832Y-109065853D01*
X158270579Y-109065850D01*
X159299859Y-109065850D01*
X159292156Y-109034100D01*
X159280281Y-109003328D01*
X159260149Y-108965642D01*
X159253476Y-108954997D01*
X159228510Y-108905321D01*
X159223939Y-108865273D01*
X159239791Y-108837111D01*
X159251888Y-108829665D01*
X159262256Y-108827467D01*
X159278810Y-108828598D01*
X159303661Y-108833739D01*
X159338918Y-108843571D01*
X159386693Y-108858776D01*
X159449096Y-108880035D01*
X159528238Y-108908029D01*
X159626229Y-108943439D01*
X159745179Y-108986947D01*
X159788463Y-109002855D01*
X159896924Y-109043017D01*
X159998486Y-109081125D01*
X160090552Y-109116168D01*
X160170524Y-109147136D01*
X160235804Y-109173017D01*
X160283795Y-109192799D01*
X160311900Y-109205472D01*
X160317874Y-109208986D01*
X160335668Y-109233279D01*
X160340099Y-109250000D01*
X160331152Y-109275053D01*
X160317874Y-109291013D01*
X160301503Y-109299456D01*
X160263852Y-109315552D01*
X160207519Y-109338288D01*
X160135102Y-109366654D01*
X160049198Y-109399638D01*
X159952405Y-109436229D01*
X159847320Y-109475415D01*
X159788463Y-109497144D01*
X159662286Y-109543414D01*
X159557750Y-109581368D01*
X159472747Y-109611684D01*
X159405163Y-109635046D01*
X159352891Y-109652133D01*
X159313818Y-109663628D01*
X159285834Y-109670211D01*
X159266829Y-109672564D01*
X159254692Y-109671367D01*
X159251888Y-109670334D01*
X159227749Y-109648027D01*
X159224843Y-109612576D01*
X159243187Y-109563693D01*
X159260600Y-109533704D01*
X159272701Y-109515838D01*
X159283841Y-109500231D01*
X159292513Y-109486730D01*
X159297209Y-109475185D01*
X159296419Y-109465445D01*
X159288637Y-109457357D01*
X159272353Y-109450770D01*
X159246061Y-109445533D01*
X159208250Y-109441495D01*
X159157415Y-109438503D01*
X159092045Y-109436406D01*
X159010634Y-109435054D01*
X158911673Y-109434293D01*
X158793654Y-109433974D01*
X158655069Y-109433944D01*
X158494409Y-109434051D01*
X158310167Y-109434146D01*
X158269420Y-109434150D01*
X157240140Y-109434150D01*
X157247843Y-109465900D01*
X157259718Y-109496671D01*
X157279850Y-109534357D01*
X157286523Y-109545002D01*
X157310752Y-109593498D01*
X157315988Y-109633741D01*
X157302049Y-109662258D01*
X157292934Y-109668653D01*
X157268782Y-109679093D01*
X157258009Y-109681335D01*
X157244251Y-109676969D01*
X157209202Y-109664687D01*
X157155386Y-109645404D01*
X157085328Y-109620035D01*
X157001552Y-109589497D01*
X156906582Y-109554706D01*
X156802942Y-109516577D01*
X156746000Y-109495565D01*
X156638163Y-109455471D01*
X156537226Y-109417445D01*
X156445801Y-109382506D01*
X156366498Y-109351674D01*
X156301929Y-109325971D01*
X156254706Y-109306417D01*
X156227440Y-109294031D01*
X156222125Y-109290861D01*
X156204312Y-109266649D01*
X156199900Y-109250000D01*
X156208902Y-109224990D01*
X156222125Y-109209315D01*
X156238492Y-109200931D01*
X156276130Y-109184869D01*
X156332442Y-109162142D01*
X156404831Y-109133763D01*
X156490701Y-109100742D01*
X156587455Y-109064093D01*
X156692496Y-109024827D01*
X156751277Y-109003066D01*
X156877217Y-108956744D01*
X156981532Y-108918750D01*
X157066344Y-108888397D01*
X157133774Y-108865000D01*
X157185944Y-108847873D01*
X157224977Y-108836329D01*
X157252993Y-108829682D01*
X157272114Y-108827247D01*
X157284462Y-108828336D01*
X157284462Y-108828336D01*
G37*
X157284462Y-108828336D02*
X157287852Y-108829547D01*
X157312132Y-108851797D01*
X157315242Y-108887039D01*
X157297159Y-108935650D01*
X157279400Y-108966295D01*
X157267298Y-108984161D01*
X157256158Y-108999768D01*
X157247486Y-109013269D01*
X157242790Y-109024814D01*
X157243580Y-109034554D01*
X157251362Y-109042642D01*
X157267646Y-109049229D01*
X157293938Y-109054466D01*
X157331749Y-109058504D01*
X157382584Y-109061496D01*
X157447954Y-109063593D01*
X157529365Y-109064945D01*
X157628326Y-109065706D01*
X157746345Y-109066025D01*
X157884930Y-109066055D01*
X158045590Y-109065948D01*
X158229832Y-109065853D01*
X158270579Y-109065850D01*
X159299859Y-109065850D01*
X159292156Y-109034100D01*
X159280281Y-109003328D01*
X159260149Y-108965642D01*
X159253476Y-108954997D01*
X159228510Y-108905321D01*
X159223939Y-108865273D01*
X159239791Y-108837111D01*
X159251888Y-108829665D01*
X159262256Y-108827467D01*
X159278810Y-108828598D01*
X159303661Y-108833739D01*
X159338918Y-108843571D01*
X159386693Y-108858776D01*
X159449096Y-108880035D01*
X159528238Y-108908029D01*
X159626229Y-108943439D01*
X159745179Y-108986947D01*
X159788463Y-109002855D01*
X159896924Y-109043017D01*
X159998486Y-109081125D01*
X160090552Y-109116168D01*
X160170524Y-109147136D01*
X160235804Y-109173017D01*
X160283795Y-109192799D01*
X160311900Y-109205472D01*
X160317874Y-109208986D01*
X160335668Y-109233279D01*
X160340099Y-109250000D01*
X160331152Y-109275053D01*
X160317874Y-109291013D01*
X160301503Y-109299456D01*
X160263852Y-109315552D01*
X160207519Y-109338288D01*
X160135102Y-109366654D01*
X160049198Y-109399638D01*
X159952405Y-109436229D01*
X159847320Y-109475415D01*
X159788463Y-109497144D01*
X159662286Y-109543414D01*
X159557750Y-109581368D01*
X159472747Y-109611684D01*
X159405163Y-109635046D01*
X159352891Y-109652133D01*
X159313818Y-109663628D01*
X159285834Y-109670211D01*
X159266829Y-109672564D01*
X159254692Y-109671367D01*
X159251888Y-109670334D01*
X159227749Y-109648027D01*
X159224843Y-109612576D01*
X159243187Y-109563693D01*
X159260600Y-109533704D01*
X159272701Y-109515838D01*
X159283841Y-109500231D01*
X159292513Y-109486730D01*
X159297209Y-109475185D01*
X159296419Y-109465445D01*
X159288637Y-109457357D01*
X159272353Y-109450770D01*
X159246061Y-109445533D01*
X159208250Y-109441495D01*
X159157415Y-109438503D01*
X159092045Y-109436406D01*
X159010634Y-109435054D01*
X158911673Y-109434293D01*
X158793654Y-109433974D01*
X158655069Y-109433944D01*
X158494409Y-109434051D01*
X158310167Y-109434146D01*
X158269420Y-109434150D01*
X157240140Y-109434150D01*
X157247843Y-109465900D01*
X157259718Y-109496671D01*
X157279850Y-109534357D01*
X157286523Y-109545002D01*
X157310752Y-109593498D01*
X157315988Y-109633741D01*
X157302049Y-109662258D01*
X157292934Y-109668653D01*
X157268782Y-109679093D01*
X157258009Y-109681335D01*
X157244251Y-109676969D01*
X157209202Y-109664687D01*
X157155386Y-109645404D01*
X157085328Y-109620035D01*
X157001552Y-109589497D01*
X156906582Y-109554706D01*
X156802942Y-109516577D01*
X156746000Y-109495565D01*
X156638163Y-109455471D01*
X156537226Y-109417445D01*
X156445801Y-109382506D01*
X156366498Y-109351674D01*
X156301929Y-109325971D01*
X156254706Y-109306417D01*
X156227440Y-109294031D01*
X156222125Y-109290861D01*
X156204312Y-109266649D01*
X156199900Y-109250000D01*
X156208902Y-109224990D01*
X156222125Y-109209315D01*
X156238492Y-109200931D01*
X156276130Y-109184869D01*
X156332442Y-109162142D01*
X156404831Y-109133763D01*
X156490701Y-109100742D01*
X156587455Y-109064093D01*
X156692496Y-109024827D01*
X156751277Y-109003066D01*
X156877217Y-108956744D01*
X156981532Y-108918750D01*
X157066344Y-108888397D01*
X157133774Y-108865000D01*
X157185944Y-108847873D01*
X157224977Y-108836329D01*
X157252993Y-108829682D01*
X157272114Y-108827247D01*
X157284462Y-108828336D01*
G36*
X157775457Y-108497525D02*
G01*
X157776903Y-108606122D01*
X157780875Y-108691903D01*
X157788188Y-108757393D01*
X157799661Y-108805119D01*
X157816111Y-108837606D01*
X157838357Y-108857380D01*
X157867215Y-108866967D01*
X157895718Y-108869000D01*
X157932309Y-108867268D01*
X157960671Y-108860183D01*
X157981840Y-108844908D01*
X157996849Y-108818607D01*
X158006734Y-108778444D01*
X158012531Y-108721584D01*
X158015274Y-108645190D01*
X158015998Y-108546426D01*
X158016000Y-108539430D01*
X158016000Y-108297500D01*
X158195225Y-108297500D01*
X158191337Y-108561025D01*
X158189286Y-108662699D01*
X158185882Y-108742475D01*
X158180213Y-108803851D01*
X158171368Y-108850325D01*
X158158435Y-108885394D01*
X158140503Y-108912557D01*
X158116660Y-108935312D01*
X158088544Y-108955476D01*
X158061185Y-108971617D01*
X158033387Y-108981998D01*
X157997993Y-108988170D01*
X157947847Y-108991684D01*
X157915904Y-108992899D01*
X157852667Y-108993895D01*
X157807510Y-108991422D01*
X157773251Y-108984646D01*
X157742950Y-108972850D01*
X157702690Y-108951168D01*
X157671000Y-108926500D01*
X157646781Y-108895589D01*
X157628933Y-108855180D01*
X157616357Y-108802017D01*
X157607954Y-108732843D01*
X157602623Y-108644403D01*
X157599608Y-108548325D01*
X157593657Y-108297500D01*
X157774700Y-108297500D01*
X157775457Y-108497525D01*
X157775457Y-108497525D01*
G37*
X157775457Y-108497525D02*
X157776903Y-108606122D01*
X157780875Y-108691903D01*
X157788188Y-108757393D01*
X157799661Y-108805119D01*
X157816111Y-108837606D01*
X157838357Y-108857380D01*
X157867215Y-108866967D01*
X157895718Y-108869000D01*
X157932309Y-108867268D01*
X157960671Y-108860183D01*
X157981840Y-108844908D01*
X157996849Y-108818607D01*
X158006734Y-108778444D01*
X158012531Y-108721584D01*
X158015274Y-108645190D01*
X158015998Y-108546426D01*
X158016000Y-108539430D01*
X158016000Y-108297500D01*
X158195225Y-108297500D01*
X158191337Y-108561025D01*
X158189286Y-108662699D01*
X158185882Y-108742475D01*
X158180213Y-108803851D01*
X158171368Y-108850325D01*
X158158435Y-108885394D01*
X158140503Y-108912557D01*
X158116660Y-108935312D01*
X158088544Y-108955476D01*
X158061185Y-108971617D01*
X158033387Y-108981998D01*
X157997993Y-108988170D01*
X157947847Y-108991684D01*
X157915904Y-108992899D01*
X157852667Y-108993895D01*
X157807510Y-108991422D01*
X157773251Y-108984646D01*
X157742950Y-108972850D01*
X157702690Y-108951168D01*
X157671000Y-108926500D01*
X157646781Y-108895589D01*
X157628933Y-108855180D01*
X157616357Y-108802017D01*
X157607954Y-108732843D01*
X157602623Y-108644403D01*
X157599608Y-108548325D01*
X157593657Y-108297500D01*
X157774700Y-108297500D01*
X157775457Y-108497525D01*
G36*
X158571625Y-108299559D02*
G01*
X158664742Y-108302770D01*
X158736546Y-108308713D01*
X158791076Y-108318616D01*
X158832375Y-108333705D01*
X158864482Y-108355209D01*
X158891440Y-108384356D01*
X158902908Y-108400204D01*
X158918771Y-108427114D01*
X158927074Y-108454650D01*
X158929443Y-108491527D01*
X158928092Y-108535016D01*
X158924446Y-108585334D01*
X158917723Y-108618703D01*
X158905208Y-108643575D01*
X158885733Y-108666755D01*
X158851303Y-108698112D01*
X158813144Y-108720067D01*
X158765086Y-108734861D01*
X158700959Y-108744735D01*
X158660525Y-108748562D01*
X158549400Y-108757704D01*
X158549400Y-108983300D01*
X158371600Y-108983300D01*
X158371600Y-108424500D01*
X158549400Y-108424500D01*
X158549400Y-108615000D01*
X158625600Y-108615000D01*
X158674395Y-108612742D01*
X158705912Y-108604666D01*
X158727200Y-108589600D01*
X158749008Y-108551592D01*
X158749916Y-108507629D01*
X158730266Y-108465675D01*
X158721427Y-108455672D01*
X158697205Y-108436560D01*
X158667992Y-108427166D01*
X158624080Y-108424510D01*
X158619827Y-108424500D01*
X158549400Y-108424500D01*
X158371600Y-108424500D01*
X158371600Y-108295269D01*
X158571625Y-108299559D01*
X158571625Y-108299559D01*
G37*
X158571625Y-108299559D02*
X158664742Y-108302770D01*
X158736546Y-108308713D01*
X158791076Y-108318616D01*
X158832375Y-108333705D01*
X158864482Y-108355209D01*
X158891440Y-108384356D01*
X158902908Y-108400204D01*
X158918771Y-108427114D01*
X158927074Y-108454650D01*
X158929443Y-108491527D01*
X158928092Y-108535016D01*
X158924446Y-108585334D01*
X158917723Y-108618703D01*
X158905208Y-108643575D01*
X158885733Y-108666755D01*
X158851303Y-108698112D01*
X158813144Y-108720067D01*
X158765086Y-108734861D01*
X158700959Y-108744735D01*
X158660525Y-108748562D01*
X158549400Y-108757704D01*
X158549400Y-108983300D01*
X158371600Y-108983300D01*
X158371600Y-108424500D01*
X158549400Y-108424500D01*
X158549400Y-108615000D01*
X158625600Y-108615000D01*
X158674395Y-108612742D01*
X158705912Y-108604666D01*
X158727200Y-108589600D01*
X158749008Y-108551592D01*
X158749916Y-108507629D01*
X158730266Y-108465675D01*
X158721427Y-108455672D01*
X158697205Y-108436560D01*
X158667992Y-108427166D01*
X158624080Y-108424510D01*
X158619827Y-108424500D01*
X158549400Y-108424500D01*
X158371600Y-108424500D01*
X158371600Y-108295269D01*
X158571625Y-108299559D01*
D12*
X172330000Y-102810000D02*
X172330000Y-104410000D01*
X174130000Y-104410000D02*
X174130000Y-102510000D01*
X152080000Y-99700000D02*
X152080000Y-101200000D01*
X151330000Y-100450000D02*
X152830000Y-100450000D01*
D13*
G36*
X164039706Y-109509242D02*
G01*
X164110650Y-109509385D01*
X164262051Y-109848967D01*
X164300706Y-109935617D01*
X164336052Y-110014754D01*
X164366755Y-110083399D01*
X164391482Y-110138573D01*
X164408897Y-110177297D01*
X164417667Y-110196591D01*
X164418376Y-110198075D01*
X164409595Y-110203093D01*
X164381806Y-110206544D01*
X164348009Y-110207600D01*
X164272720Y-110207600D01*
X164206626Y-110055200D01*
X163868910Y-110055200D01*
X163838643Y-110131400D01*
X163808377Y-110207600D01*
X163733030Y-110207600D01*
X163693952Y-110205885D01*
X163668315Y-110201427D01*
X163661916Y-110196262D01*
X163668006Y-110182180D01*
X163683150Y-110147925D01*
X163706010Y-110096499D01*
X163735248Y-110030905D01*
X163769528Y-109954146D01*
X163778652Y-109933746D01*
X163926500Y-109933746D01*
X163938254Y-109936896D01*
X163969739Y-109939339D01*
X164015288Y-109940719D01*
X164040800Y-109940900D01*
X164091138Y-109940472D01*
X164130164Y-109939326D01*
X164152211Y-109937668D01*
X164155100Y-109936740D01*
X164150166Y-109922086D01*
X164137168Y-109890474D01*
X164118808Y-109847952D01*
X164097787Y-109800567D01*
X164076809Y-109754366D01*
X164058575Y-109715396D01*
X164045788Y-109689705D01*
X164041728Y-109683041D01*
X164034276Y-109690719D01*
X164019727Y-109716327D01*
X164000639Y-109754302D01*
X163979569Y-109799080D01*
X163959074Y-109845098D01*
X163941712Y-109886793D01*
X163930039Y-109918600D01*
X163926500Y-109933746D01*
X163778652Y-109933746D01*
X163807511Y-109869226D01*
X163817456Y-109847012D01*
X163968763Y-109509100D01*
X164039706Y-109509242D01*
X164039706Y-109509242D01*
G37*
X164039706Y-109509242D02*
X164110650Y-109509385D01*
X164262051Y-109848967D01*
X164300706Y-109935617D01*
X164336052Y-110014754D01*
X164366755Y-110083399D01*
X164391482Y-110138573D01*
X164408897Y-110177297D01*
X164417667Y-110196591D01*
X164418376Y-110198075D01*
X164409595Y-110203093D01*
X164381806Y-110206544D01*
X164348009Y-110207600D01*
X164272720Y-110207600D01*
X164206626Y-110055200D01*
X163868910Y-110055200D01*
X163838643Y-110131400D01*
X163808377Y-110207600D01*
X163733030Y-110207600D01*
X163693952Y-110205885D01*
X163668315Y-110201427D01*
X163661916Y-110196262D01*
X163668006Y-110182180D01*
X163683150Y-110147925D01*
X163706010Y-110096499D01*
X163735248Y-110030905D01*
X163769528Y-109954146D01*
X163778652Y-109933746D01*
X163926500Y-109933746D01*
X163938254Y-109936896D01*
X163969739Y-109939339D01*
X164015288Y-109940719D01*
X164040800Y-109940900D01*
X164091138Y-109940472D01*
X164130164Y-109939326D01*
X164152211Y-109937668D01*
X164155100Y-109936740D01*
X164150166Y-109922086D01*
X164137168Y-109890474D01*
X164118808Y-109847952D01*
X164097787Y-109800567D01*
X164076809Y-109754366D01*
X164058575Y-109715396D01*
X164045788Y-109689705D01*
X164041728Y-109683041D01*
X164034276Y-109690719D01*
X164019727Y-109716327D01*
X164000639Y-109754302D01*
X163979569Y-109799080D01*
X163959074Y-109845098D01*
X163941712Y-109886793D01*
X163930039Y-109918600D01*
X163926500Y-109933746D01*
X163778652Y-109933746D01*
X163807511Y-109869226D01*
X163817456Y-109847012D01*
X163968763Y-109509100D01*
X164039706Y-109509242D01*
G36*
X164637700Y-110093300D02*
G01*
X164993300Y-110093300D01*
X164993300Y-110207600D01*
X164498000Y-110207600D01*
X164498000Y-109509100D01*
X164637700Y-109509100D01*
X164637700Y-110093300D01*
X164637700Y-110093300D01*
G37*
X164637700Y-110093300D02*
X164993300Y-110093300D01*
X164993300Y-110207600D01*
X164498000Y-110207600D01*
X164498000Y-109509100D01*
X164637700Y-109509100D01*
X164637700Y-110093300D01*
G36*
X165539400Y-109623400D02*
G01*
X165310800Y-109623400D01*
X165310800Y-110207600D01*
X165171100Y-110207600D01*
X165171100Y-109623400D01*
X164929800Y-109623400D01*
X164929800Y-109509100D01*
X165539400Y-109509100D01*
X165539400Y-109623400D01*
X165539400Y-109623400D01*
G37*
X165539400Y-109623400D02*
X165310800Y-109623400D01*
X165310800Y-110207600D01*
X165171100Y-110207600D01*
X165171100Y-109623400D01*
X164929800Y-109623400D01*
X164929800Y-109509100D01*
X165539400Y-109509100D01*
X165539400Y-109623400D01*
G36*
X165755300Y-110207600D02*
G01*
X165615600Y-110207600D01*
X165615600Y-109509100D01*
X165755300Y-109509100D01*
X165755300Y-110207600D01*
X165755300Y-110207600D01*
G37*
X165755300Y-110207600D02*
X165615600Y-110207600D01*
X165615600Y-109509100D01*
X165755300Y-109509100D01*
X165755300Y-110207600D01*
G36*
X166646187Y-109509100D02*
G01*
X166707800Y-109509100D01*
X166707800Y-110207600D01*
X166568714Y-110207600D01*
X166561750Y-109787462D01*
X166460150Y-109959119D01*
X166421325Y-110024177D01*
X166392538Y-110070401D01*
X166371188Y-110100990D01*
X166354673Y-110119140D01*
X166340393Y-110128051D01*
X166325745Y-110130920D01*
X166320266Y-110131087D01*
X166305074Y-110129840D01*
X166291113Y-110123729D01*
X166275807Y-110109609D01*
X166256578Y-110084335D01*
X166230850Y-110044761D01*
X166196047Y-109987741D01*
X166177469Y-109956775D01*
X166072955Y-109782150D01*
X166072877Y-109994875D01*
X166072800Y-110207600D01*
X165933100Y-110207600D01*
X165933100Y-109509100D01*
X166054265Y-109509100D01*
X166158694Y-109683725D01*
X166196890Y-109747542D01*
X166232881Y-109807577D01*
X166263577Y-109858684D01*
X166285889Y-109895716D01*
X166292963Y-109907392D01*
X166322803Y-109956434D01*
X166453689Y-109732767D01*
X166584575Y-109509099D01*
X166646187Y-109509100D01*
X166646187Y-109509100D01*
G37*
X166646187Y-109509100D02*
X166707800Y-109509100D01*
X166707800Y-110207600D01*
X166568714Y-110207600D01*
X166561750Y-109787462D01*
X166460150Y-109959119D01*
X166421325Y-110024177D01*
X166392538Y-110070401D01*
X166371188Y-110100990D01*
X166354673Y-110119140D01*
X166340393Y-110128051D01*
X166325745Y-110130920D01*
X166320266Y-110131087D01*
X166305074Y-110129840D01*
X166291113Y-110123729D01*
X166275807Y-110109609D01*
X166256578Y-110084335D01*
X166230850Y-110044761D01*
X166196047Y-109987741D01*
X166177469Y-109956775D01*
X166072955Y-109782150D01*
X166072877Y-109994875D01*
X166072800Y-110207600D01*
X165933100Y-110207600D01*
X165933100Y-109509100D01*
X166054265Y-109509100D01*
X166158694Y-109683725D01*
X166196890Y-109747542D01*
X166232881Y-109807577D01*
X166263577Y-109858684D01*
X166285889Y-109895716D01*
X166292963Y-109907392D01*
X166322803Y-109956434D01*
X166453689Y-109732767D01*
X166584575Y-109509099D01*
X166646187Y-109509100D01*
G36*
X167393600Y-109623400D02*
G01*
X167025300Y-109623400D01*
X167025300Y-109801200D01*
X167355500Y-109801200D01*
X167355500Y-109915500D01*
X167025300Y-109915500D01*
X167025300Y-110093300D01*
X167406300Y-110093300D01*
X167406300Y-110207600D01*
X166872900Y-110207600D01*
X166872900Y-109509100D01*
X167393600Y-109509100D01*
X167393600Y-109623400D01*
X167393600Y-109623400D01*
G37*
X167393600Y-109623400D02*
X167025300Y-109623400D01*
X167025300Y-109801200D01*
X167355500Y-109801200D01*
X167355500Y-109915500D01*
X167025300Y-109915500D01*
X167025300Y-110093300D01*
X167406300Y-110093300D01*
X167406300Y-110207600D01*
X166872900Y-110207600D01*
X166872900Y-109509100D01*
X167393600Y-109509100D01*
X167393600Y-109623400D01*
G36*
X168054000Y-109623400D02*
G01*
X167825400Y-109623400D01*
X167825400Y-110207600D01*
X167685700Y-110207600D01*
X167685700Y-109623400D01*
X167457100Y-109623400D01*
X167457100Y-109509100D01*
X168054000Y-109509100D01*
X168054000Y-109623400D01*
X168054000Y-109623400D01*
G37*
X168054000Y-109623400D02*
X167825400Y-109623400D01*
X167825400Y-110207600D01*
X167685700Y-110207600D01*
X167685700Y-109623400D01*
X167457100Y-109623400D01*
X167457100Y-109509100D01*
X168054000Y-109509100D01*
X168054000Y-109623400D01*
G36*
X168650900Y-109623400D02*
G01*
X168282600Y-109623400D01*
X168282600Y-109801200D01*
X168612800Y-109801200D01*
X168612800Y-109915500D01*
X168282600Y-109915500D01*
X168282600Y-110093300D01*
X168663600Y-110093300D01*
X168663600Y-110207600D01*
X168142900Y-110207600D01*
X168142900Y-109509100D01*
X168650900Y-109509100D01*
X168650900Y-109623400D01*
X168650900Y-109623400D01*
G37*
X168650900Y-109623400D02*
X168282600Y-109623400D01*
X168282600Y-109801200D01*
X168612800Y-109801200D01*
X168612800Y-109915500D01*
X168282600Y-109915500D01*
X168282600Y-110093300D01*
X168663600Y-110093300D01*
X168663600Y-110207600D01*
X168142900Y-110207600D01*
X168142900Y-109509100D01*
X168650900Y-109509100D01*
X168650900Y-109623400D01*
G36*
X169080768Y-109510675D02*
G01*
X169155365Y-109516017D01*
X169213236Y-109526051D01*
X169258638Y-109541701D01*
X169295828Y-109563892D01*
X169316279Y-109581016D01*
X169359875Y-109637568D01*
X169383083Y-109708071D01*
X169387500Y-109763947D01*
X169376986Y-109842095D01*
X169345372Y-109906171D01*
X169298100Y-109952501D01*
X169251096Y-109986551D01*
X169313891Y-110074850D01*
X169352886Y-110129699D01*
X169377907Y-110166930D01*
X169389241Y-110189942D01*
X169387177Y-110202135D01*
X169372001Y-110206910D01*
X169344002Y-110207666D01*
X169325119Y-110207600D01*
X169249144Y-110207600D01*
X169182640Y-110112350D01*
X169116137Y-110017100D01*
X168943000Y-110017100D01*
X168943000Y-110207600D01*
X168803300Y-110207600D01*
X168803300Y-109890100D01*
X168943000Y-109890100D01*
X169045230Y-109890100D01*
X169110644Y-109887365D01*
X169160461Y-109879660D01*
X169182458Y-109872002D01*
X169220731Y-109839253D01*
X169242432Y-109793805D01*
X169246074Y-109743394D01*
X169230172Y-109695753D01*
X169219225Y-109680593D01*
X169178351Y-109650490D01*
X169116873Y-109631716D01*
X169033664Y-109623955D01*
X169016025Y-109623702D01*
X168943000Y-109623400D01*
X168943000Y-109890100D01*
X168803300Y-109890100D01*
X168803300Y-109509100D01*
X168985187Y-109509100D01*
X169080768Y-109510675D01*
X169080768Y-109510675D01*
G37*
X169080768Y-109510675D02*
X169155365Y-109516017D01*
X169213236Y-109526051D01*
X169258638Y-109541701D01*
X169295828Y-109563892D01*
X169316279Y-109581016D01*
X169359875Y-109637568D01*
X169383083Y-109708071D01*
X169387500Y-109763947D01*
X169376986Y-109842095D01*
X169345372Y-109906171D01*
X169298100Y-109952501D01*
X169251096Y-109986551D01*
X169313891Y-110074850D01*
X169352886Y-110129699D01*
X169377907Y-110166930D01*
X169389241Y-110189942D01*
X169387177Y-110202135D01*
X169372001Y-110206910D01*
X169344002Y-110207666D01*
X169325119Y-110207600D01*
X169249144Y-110207600D01*
X169182640Y-110112350D01*
X169116137Y-110017100D01*
X168943000Y-110017100D01*
X168943000Y-110207600D01*
X168803300Y-110207600D01*
X168803300Y-109890100D01*
X168943000Y-109890100D01*
X169045230Y-109890100D01*
X169110644Y-109887365D01*
X169160461Y-109879660D01*
X169182458Y-109872002D01*
X169220731Y-109839253D01*
X169242432Y-109793805D01*
X169246074Y-109743394D01*
X169230172Y-109695753D01*
X169219225Y-109680593D01*
X169178351Y-109650490D01*
X169116873Y-109631716D01*
X169033664Y-109623955D01*
X169016025Y-109623702D01*
X168943000Y-109623400D01*
X168943000Y-109890100D01*
X168803300Y-109890100D01*
X168803300Y-109509100D01*
X168985187Y-109509100D01*
X169080768Y-109510675D01*
G36*
X163125788Y-108664211D02*
G01*
X163423386Y-109356700D01*
X163621700Y-109356700D01*
X163621700Y-107972400D01*
X163964600Y-107972400D01*
X163964600Y-109153500D01*
X164599600Y-109153500D01*
X164599600Y-109356700D01*
X164993300Y-109356700D01*
X164993300Y-108264500D01*
X164574200Y-108264500D01*
X164574200Y-107972400D01*
X165755300Y-107972400D01*
X165755300Y-108264500D01*
X165336200Y-108264500D01*
X165336200Y-109356700D01*
X166190784Y-109356700D01*
X166126844Y-109289093D01*
X166074520Y-109227640D01*
X166035141Y-109165071D01*
X166002970Y-109091496D01*
X165989229Y-109051900D01*
X165983360Y-109031572D01*
X165978501Y-109008019D01*
X165974523Y-108978598D01*
X165971301Y-108940667D01*
X165968706Y-108891584D01*
X165966611Y-108828707D01*
X165964889Y-108749394D01*
X165963412Y-108651002D01*
X165962053Y-108530890D01*
X165961523Y-108477225D01*
X165956689Y-107972400D01*
X166299982Y-107972400D01*
X166304605Y-108445475D01*
X166305962Y-108575414D01*
X166307495Y-108682632D01*
X166309566Y-108769807D01*
X166312538Y-108839617D01*
X166316772Y-108894741D01*
X166322632Y-108937857D01*
X166330480Y-108971643D01*
X166340677Y-108998777D01*
X166353587Y-109021937D01*
X166369572Y-109043802D01*
X166388644Y-109066642D01*
X166449991Y-109120844D01*
X166519867Y-109153784D01*
X166593936Y-109165962D01*
X166667862Y-109157877D01*
X166737308Y-109130030D01*
X166797938Y-109082921D01*
X166845416Y-109017048D01*
X166847098Y-109013800D01*
X166860250Y-108985179D01*
X166870989Y-108954064D01*
X166879550Y-108917660D01*
X166886166Y-108873175D01*
X166891073Y-108817817D01*
X166894505Y-108748793D01*
X166896695Y-108663309D01*
X166897878Y-108558574D01*
X166898289Y-108431794D01*
X166898300Y-108403574D01*
X166898300Y-107972400D01*
X167243028Y-107972400D01*
X167237880Y-108470875D01*
X167236397Y-108604254D01*
X167234756Y-108715061D01*
X167232657Y-108806123D01*
X167229800Y-108880268D01*
X167225886Y-108940324D01*
X167220615Y-108989118D01*
X167213687Y-109029477D01*
X167204803Y-109064229D01*
X167193663Y-109096202D01*
X167179967Y-109128223D01*
X167164813Y-109160234D01*
X167141306Y-109199931D01*
X167107406Y-109246818D01*
X167073470Y-109287309D01*
X167010051Y-109356700D01*
X167571400Y-109356700D01*
X167571400Y-108700069D01*
X167914300Y-108700069D01*
X168088925Y-108693084D01*
X168181399Y-108687855D01*
X168251087Y-108680330D01*
X168300525Y-108670192D01*
X168317281Y-108664518D01*
X168370098Y-108633275D01*
X168405051Y-108587827D01*
X168423568Y-108525613D01*
X168427529Y-108466906D01*
X168422650Y-108399853D01*
X168406214Y-108351086D01*
X168375518Y-108315087D01*
X168342805Y-108293833D01*
X168320113Y-108284620D01*
X168288724Y-108277782D01*
X168244368Y-108272826D01*
X168182777Y-108269263D01*
X168107975Y-108266811D01*
X167914300Y-108261785D01*
X167914300Y-108700069D01*
X167571400Y-108700069D01*
X167571400Y-107972400D01*
X167940235Y-107972400D01*
X168081917Y-107973190D01*
X168201037Y-107975922D01*
X168300393Y-107981134D01*
X168382784Y-107989367D01*
X168451009Y-108001161D01*
X168507866Y-108017054D01*
X168556156Y-108037588D01*
X168598676Y-108063301D01*
X168638225Y-108094733D01*
X168655151Y-108110271D01*
X168709371Y-108174290D01*
X168747019Y-108249036D01*
X168769046Y-108337629D01*
X168776398Y-108443193D01*
X168774826Y-108504122D01*
X168762175Y-108616543D01*
X168735977Y-108709556D01*
X168694771Y-108786091D01*
X168637096Y-108849079D01*
X168583250Y-108888509D01*
X168548028Y-108910626D01*
X168522626Y-108926624D01*
X168513476Y-108932440D01*
X168519193Y-108943132D01*
X168537502Y-108971409D01*
X168566292Y-109014144D01*
X168603451Y-109068212D01*
X168646867Y-109130485D01*
X168657721Y-109145931D01*
X168806039Y-109356700D01*
X169108100Y-109356700D01*
X169108100Y-107972400D01*
X169451000Y-107972400D01*
X169451000Y-109356700D01*
X169549425Y-109356634D01*
X169647850Y-109356569D01*
X169872227Y-108836000D01*
X170238720Y-108836000D01*
X170410010Y-108836000D01*
X170472650Y-108835641D01*
X170525016Y-108834658D01*
X170562478Y-108833191D01*
X170580408Y-108831377D01*
X170581300Y-108830852D01*
X170576486Y-108816754D01*
X170563455Y-108784347D01*
X170544324Y-108738528D01*
X170521209Y-108684192D01*
X170496226Y-108626233D01*
X170471492Y-108569547D01*
X170449123Y-108519029D01*
X170431235Y-108479574D01*
X170419946Y-108456077D01*
X170417442Y-108451849D01*
X170409281Y-108458779D01*
X170394026Y-108484904D01*
X170374022Y-108525840D01*
X170356244Y-108566149D01*
X170330102Y-108627532D01*
X170303489Y-108689361D01*
X170280489Y-108742169D01*
X170271290Y-108762975D01*
X170238720Y-108836000D01*
X169872227Y-108836000D01*
X170244750Y-107971727D01*
X170413657Y-107975238D01*
X170582565Y-107978750D01*
X171172965Y-109350350D01*
X171289871Y-109357984D01*
X170998444Y-108719167D01*
X170943185Y-108598013D01*
X170890483Y-108482423D01*
X170841396Y-108374719D01*
X170796980Y-108277221D01*
X170758293Y-108192251D01*
X170726392Y-108122129D01*
X170702333Y-108069177D01*
X170687173Y-108035715D01*
X170682973Y-108026374D01*
X170658928Y-107972400D01*
X170779681Y-107972400D01*
X171156740Y-108706435D01*
X171221785Y-108833194D01*
X171283278Y-108953291D01*
X171340253Y-109064820D01*
X171391742Y-109165878D01*
X171436779Y-109254559D01*
X171474398Y-109328958D01*
X171503630Y-109387170D01*
X171523510Y-109427289D01*
X171533070Y-109447410D01*
X171533800Y-109449385D01*
X171521647Y-109451740D01*
X171487375Y-109453862D01*
X171434266Y-109455664D01*
X171365601Y-109457062D01*
X171284661Y-109457969D01*
X171194727Y-109458299D01*
X170851748Y-109458299D01*
X170717064Y-109140357D01*
X170411652Y-109143753D01*
X170106241Y-109147150D01*
X170040765Y-109299550D01*
X169975290Y-109451950D01*
X168452126Y-109458496D01*
X168289529Y-109223448D01*
X168126932Y-108988399D01*
X168020616Y-108988400D01*
X167914300Y-108988400D01*
X167914300Y-109223382D01*
X167914299Y-109458365D01*
X165505855Y-109455157D01*
X163097411Y-109451950D01*
X163031935Y-109299550D01*
X162966458Y-109147150D01*
X162661047Y-109143753D01*
X162355635Y-109140357D01*
X162288293Y-109299328D01*
X162220951Y-109458300D01*
X161879925Y-109458300D01*
X161789838Y-109457986D01*
X161708676Y-109457104D01*
X161639721Y-109455736D01*
X161586253Y-109453967D01*
X161551554Y-109451883D01*
X161538905Y-109449566D01*
X161538900Y-109449516D01*
X161544556Y-109436995D01*
X161560880Y-109403800D01*
X161586905Y-109351835D01*
X161621664Y-109283005D01*
X161664189Y-109199212D01*
X161713514Y-109102363D01*
X161768672Y-108994360D01*
X161828695Y-108877108D01*
X161892616Y-108752512D01*
X161916220Y-108706566D01*
X162293541Y-107972400D01*
X162413802Y-107972400D01*
X162384124Y-108039075D01*
X162373122Y-108063476D01*
X162352677Y-108108509D01*
X162323912Y-108171707D01*
X162287951Y-108250603D01*
X162245921Y-108342732D01*
X162198945Y-108445629D01*
X162148147Y-108556827D01*
X162094654Y-108673860D01*
X162078586Y-108709000D01*
X162025389Y-108825492D01*
X161975316Y-108935451D01*
X161929383Y-109036629D01*
X161888603Y-109126778D01*
X161853989Y-109203651D01*
X161826555Y-109264998D01*
X161807316Y-109308572D01*
X161797286Y-109332125D01*
X161796119Y-109335287D01*
X161795181Y-109349504D01*
X161807200Y-109355231D01*
X161837884Y-109354751D01*
X161843737Y-109354337D01*
X161897963Y-109350350D01*
X162126847Y-108820125D01*
X162495099Y-108820125D01*
X162498208Y-108826775D01*
X162515759Y-108831404D01*
X162550681Y-108834292D01*
X162605906Y-108835719D01*
X162661009Y-108836000D01*
X162833336Y-108836000D01*
X162788323Y-108731225D01*
X162761478Y-108668519D01*
X162732389Y-108600227D01*
X162706856Y-108539972D01*
X162704264Y-108533826D01*
X162685154Y-108492015D01*
X162668859Y-108462714D01*
X162658189Y-108450787D01*
X162656546Y-108451276D01*
X162649459Y-108465038D01*
X162634521Y-108497422D01*
X162613813Y-108543670D01*
X162589418Y-108599027D01*
X162563418Y-108658736D01*
X162537894Y-108718042D01*
X162514928Y-108772187D01*
X162496602Y-108816415D01*
X162495099Y-108820125D01*
X162126847Y-108820125D01*
X162194005Y-108664550D01*
X162490048Y-107978750D01*
X162659120Y-107975236D01*
X162828191Y-107971723D01*
X163125788Y-108664211D01*
X163125788Y-108664211D01*
G37*
X163125788Y-108664211D02*
X163423386Y-109356700D01*
X163621700Y-109356700D01*
X163621700Y-107972400D01*
X163964600Y-107972400D01*
X163964600Y-109153500D01*
X164599600Y-109153500D01*
X164599600Y-109356700D01*
X164993300Y-109356700D01*
X164993300Y-108264500D01*
X164574200Y-108264500D01*
X164574200Y-107972400D01*
X165755300Y-107972400D01*
X165755300Y-108264500D01*
X165336200Y-108264500D01*
X165336200Y-109356700D01*
X166190784Y-109356700D01*
X166126844Y-109289093D01*
X166074520Y-109227640D01*
X166035141Y-109165071D01*
X166002970Y-109091496D01*
X165989229Y-109051900D01*
X165983360Y-109031572D01*
X165978501Y-109008019D01*
X165974523Y-108978598D01*
X165971301Y-108940667D01*
X165968706Y-108891584D01*
X165966611Y-108828707D01*
X165964889Y-108749394D01*
X165963412Y-108651002D01*
X165962053Y-108530890D01*
X165961523Y-108477225D01*
X165956689Y-107972400D01*
X166299982Y-107972400D01*
X166304605Y-108445475D01*
X166305962Y-108575414D01*
X166307495Y-108682632D01*
X166309566Y-108769807D01*
X166312538Y-108839617D01*
X166316772Y-108894741D01*
X166322632Y-108937857D01*
X166330480Y-108971643D01*
X166340677Y-108998777D01*
X166353587Y-109021937D01*
X166369572Y-109043802D01*
X166388644Y-109066642D01*
X166449991Y-109120844D01*
X166519867Y-109153784D01*
X166593936Y-109165962D01*
X166667862Y-109157877D01*
X166737308Y-109130030D01*
X166797938Y-109082921D01*
X166845416Y-109017048D01*
X166847098Y-109013800D01*
X166860250Y-108985179D01*
X166870989Y-108954064D01*
X166879550Y-108917660D01*
X166886166Y-108873175D01*
X166891073Y-108817817D01*
X166894505Y-108748793D01*
X166896695Y-108663309D01*
X166897878Y-108558574D01*
X166898289Y-108431794D01*
X166898300Y-108403574D01*
X166898300Y-107972400D01*
X167243028Y-107972400D01*
X167237880Y-108470875D01*
X167236397Y-108604254D01*
X167234756Y-108715061D01*
X167232657Y-108806123D01*
X167229800Y-108880268D01*
X167225886Y-108940324D01*
X167220615Y-108989118D01*
X167213687Y-109029477D01*
X167204803Y-109064229D01*
X167193663Y-109096202D01*
X167179967Y-109128223D01*
X167164813Y-109160234D01*
X167141306Y-109199931D01*
X167107406Y-109246818D01*
X167073470Y-109287309D01*
X167010051Y-109356700D01*
X167571400Y-109356700D01*
X167571400Y-108700069D01*
X167914300Y-108700069D01*
X168088925Y-108693084D01*
X168181399Y-108687855D01*
X168251087Y-108680330D01*
X168300525Y-108670192D01*
X168317281Y-108664518D01*
X168370098Y-108633275D01*
X168405051Y-108587827D01*
X168423568Y-108525613D01*
X168427529Y-108466906D01*
X168422650Y-108399853D01*
X168406214Y-108351086D01*
X168375518Y-108315087D01*
X168342805Y-108293833D01*
X168320113Y-108284620D01*
X168288724Y-108277782D01*
X168244368Y-108272826D01*
X168182777Y-108269263D01*
X168107975Y-108266811D01*
X167914300Y-108261785D01*
X167914300Y-108700069D01*
X167571400Y-108700069D01*
X167571400Y-107972400D01*
X167940235Y-107972400D01*
X168081917Y-107973190D01*
X168201037Y-107975922D01*
X168300393Y-107981134D01*
X168382784Y-107989367D01*
X168451009Y-108001161D01*
X168507866Y-108017054D01*
X168556156Y-108037588D01*
X168598676Y-108063301D01*
X168638225Y-108094733D01*
X168655151Y-108110271D01*
X168709371Y-108174290D01*
X168747019Y-108249036D01*
X168769046Y-108337629D01*
X168776398Y-108443193D01*
X168774826Y-108504122D01*
X168762175Y-108616543D01*
X168735977Y-108709556D01*
X168694771Y-108786091D01*
X168637096Y-108849079D01*
X168583250Y-108888509D01*
X168548028Y-108910626D01*
X168522626Y-108926624D01*
X168513476Y-108932440D01*
X168519193Y-108943132D01*
X168537502Y-108971409D01*
X168566292Y-109014144D01*
X168603451Y-109068212D01*
X168646867Y-109130485D01*
X168657721Y-109145931D01*
X168806039Y-109356700D01*
X169108100Y-109356700D01*
X169108100Y-107972400D01*
X169451000Y-107972400D01*
X169451000Y-109356700D01*
X169549425Y-109356634D01*
X169647850Y-109356569D01*
X169872227Y-108836000D01*
X170238720Y-108836000D01*
X170410010Y-108836000D01*
X170472650Y-108835641D01*
X170525016Y-108834658D01*
X170562478Y-108833191D01*
X170580408Y-108831377D01*
X170581300Y-108830852D01*
X170576486Y-108816754D01*
X170563455Y-108784347D01*
X170544324Y-108738528D01*
X170521209Y-108684192D01*
X170496226Y-108626233D01*
X170471492Y-108569547D01*
X170449123Y-108519029D01*
X170431235Y-108479574D01*
X170419946Y-108456077D01*
X170417442Y-108451849D01*
X170409281Y-108458779D01*
X170394026Y-108484904D01*
X170374022Y-108525840D01*
X170356244Y-108566149D01*
X170330102Y-108627532D01*
X170303489Y-108689361D01*
X170280489Y-108742169D01*
X170271290Y-108762975D01*
X170238720Y-108836000D01*
X169872227Y-108836000D01*
X170244750Y-107971727D01*
X170413657Y-107975238D01*
X170582565Y-107978750D01*
X171172965Y-109350350D01*
X171289871Y-109357984D01*
X170998444Y-108719167D01*
X170943185Y-108598013D01*
X170890483Y-108482423D01*
X170841396Y-108374719D01*
X170796980Y-108277221D01*
X170758293Y-108192251D01*
X170726392Y-108122129D01*
X170702333Y-108069177D01*
X170687173Y-108035715D01*
X170682973Y-108026374D01*
X170658928Y-107972400D01*
X170779681Y-107972400D01*
X171156740Y-108706435D01*
X171221785Y-108833194D01*
X171283278Y-108953291D01*
X171340253Y-109064820D01*
X171391742Y-109165878D01*
X171436779Y-109254559D01*
X171474398Y-109328958D01*
X171503630Y-109387170D01*
X171523510Y-109427289D01*
X171533070Y-109447410D01*
X171533800Y-109449385D01*
X171521647Y-109451740D01*
X171487375Y-109453862D01*
X171434266Y-109455664D01*
X171365601Y-109457062D01*
X171284661Y-109457969D01*
X171194727Y-109458299D01*
X170851748Y-109458299D01*
X170717064Y-109140357D01*
X170411652Y-109143753D01*
X170106241Y-109147150D01*
X170040765Y-109299550D01*
X169975290Y-109451950D01*
X168452126Y-109458496D01*
X168289529Y-109223448D01*
X168126932Y-108988399D01*
X168020616Y-108988400D01*
X167914300Y-108988400D01*
X167914300Y-109223382D01*
X167914299Y-109458365D01*
X165505855Y-109455157D01*
X163097411Y-109451950D01*
X163031935Y-109299550D01*
X162966458Y-109147150D01*
X162661047Y-109143753D01*
X162355635Y-109140357D01*
X162288293Y-109299328D01*
X162220951Y-109458300D01*
X161879925Y-109458300D01*
X161789838Y-109457986D01*
X161708676Y-109457104D01*
X161639721Y-109455736D01*
X161586253Y-109453967D01*
X161551554Y-109451883D01*
X161538905Y-109449566D01*
X161538900Y-109449516D01*
X161544556Y-109436995D01*
X161560880Y-109403800D01*
X161586905Y-109351835D01*
X161621664Y-109283005D01*
X161664189Y-109199212D01*
X161713514Y-109102363D01*
X161768672Y-108994360D01*
X161828695Y-108877108D01*
X161892616Y-108752512D01*
X161916220Y-108706566D01*
X162293541Y-107972400D01*
X162413802Y-107972400D01*
X162384124Y-108039075D01*
X162373122Y-108063476D01*
X162352677Y-108108509D01*
X162323912Y-108171707D01*
X162287951Y-108250603D01*
X162245921Y-108342732D01*
X162198945Y-108445629D01*
X162148147Y-108556827D01*
X162094654Y-108673860D01*
X162078586Y-108709000D01*
X162025389Y-108825492D01*
X161975316Y-108935451D01*
X161929383Y-109036629D01*
X161888603Y-109126778D01*
X161853989Y-109203651D01*
X161826555Y-109264998D01*
X161807316Y-109308572D01*
X161797286Y-109332125D01*
X161796119Y-109335287D01*
X161795181Y-109349504D01*
X161807200Y-109355231D01*
X161837884Y-109354751D01*
X161843737Y-109354337D01*
X161897963Y-109350350D01*
X162126847Y-108820125D01*
X162495099Y-108820125D01*
X162498208Y-108826775D01*
X162515759Y-108831404D01*
X162550681Y-108834292D01*
X162605906Y-108835719D01*
X162661009Y-108836000D01*
X162833336Y-108836000D01*
X162788323Y-108731225D01*
X162761478Y-108668519D01*
X162732389Y-108600227D01*
X162706856Y-108539972D01*
X162704264Y-108533826D01*
X162685154Y-108492015D01*
X162668859Y-108462714D01*
X162658189Y-108450787D01*
X162656546Y-108451276D01*
X162649459Y-108465038D01*
X162634521Y-108497422D01*
X162613813Y-108543670D01*
X162589418Y-108599027D01*
X162563418Y-108658736D01*
X162537894Y-108718042D01*
X162514928Y-108772187D01*
X162496602Y-108816415D01*
X162495099Y-108820125D01*
X162126847Y-108820125D01*
X162194005Y-108664550D01*
X162490048Y-107978750D01*
X162659120Y-107975236D01*
X162828191Y-107971723D01*
X163125788Y-108664211D01*
D12*
X175130000Y-113330000D02*
X176400000Y-113330000D01*
X175130000Y-114600000D02*
X175130000Y-113330000D01*
X177442929Y-120060000D02*
X177897071Y-120060000D01*
X177442929Y-119300000D02*
X177897071Y-119300000D01*
X179982929Y-120060000D02*
X180380000Y-120060000D01*
X179982929Y-119300000D02*
X180380000Y-119300000D01*
X189040000Y-120060000D02*
X183040000Y-120060000D01*
X189040000Y-119300000D02*
X189040000Y-120060000D01*
X183040000Y-119300000D02*
X189040000Y-119300000D01*
X180380000Y-118410000D02*
X183040000Y-118410000D01*
X177442929Y-117520000D02*
X177897071Y-117520000D01*
X177442929Y-116760000D02*
X177897071Y-116760000D01*
X179982929Y-117520000D02*
X180380000Y-117520000D01*
X179982929Y-116760000D02*
X180380000Y-116760000D01*
X189040000Y-117520000D02*
X183040000Y-117520000D01*
X189040000Y-116760000D02*
X189040000Y-117520000D01*
X183040000Y-116760000D02*
X189040000Y-116760000D01*
X180380000Y-115870000D02*
X183040000Y-115870000D01*
X177510000Y-114980000D02*
X177897071Y-114980000D01*
X177510000Y-114220000D02*
X177897071Y-114220000D01*
X179982929Y-114980000D02*
X180380000Y-114980000D01*
X179982929Y-114220000D02*
X180380000Y-114220000D01*
X183040000Y-114880000D02*
X189040000Y-114880000D01*
X183040000Y-114760000D02*
X189040000Y-114760000D01*
X183040000Y-114640000D02*
X189040000Y-114640000D01*
X183040000Y-114520000D02*
X189040000Y-114520000D01*
X183040000Y-114400000D02*
X189040000Y-114400000D01*
X183040000Y-114280000D02*
X189040000Y-114280000D01*
X189040000Y-114980000D02*
X183040000Y-114980000D01*
X189040000Y-114220000D02*
X189040000Y-114980000D01*
X183040000Y-114220000D02*
X189040000Y-114220000D01*
X183040000Y-113270000D02*
X180380000Y-113270000D01*
X183040000Y-121010000D02*
X183040000Y-113270000D01*
X180380000Y-121010000D02*
X183040000Y-121010000D01*
X180380000Y-113270000D02*
X180380000Y-121010000D01*
X149810000Y-96590000D02*
X149810000Y-99000000D01*
X147400000Y-96590000D02*
X149810000Y-96590000D01*
X147460000Y-116860000D02*
X147460000Y-117140000D01*
X147460000Y-114860000D02*
X147460000Y-115140000D01*
X147460000Y-112860000D02*
X147460000Y-113140000D01*
X147460000Y-110860000D02*
X147460000Y-111140000D01*
X147460000Y-108860000D02*
X147460000Y-109140000D01*
X147460000Y-106860000D02*
X147460000Y-107140000D01*
X147460000Y-104860000D02*
X147460000Y-105140000D01*
X147460000Y-102860000D02*
X147460000Y-103140000D01*
X147460000Y-100860000D02*
X147460000Y-101140000D01*
X147460000Y-119390000D02*
X147460000Y-118860000D01*
X149510000Y-119390000D02*
X147460000Y-119390000D01*
X149510000Y-121110000D02*
X149510000Y-119390000D01*
X138040000Y-121110000D02*
X149510000Y-121110000D01*
X138040000Y-112500000D02*
X138040000Y-121110000D01*
X137540000Y-112000000D02*
X138040000Y-112500000D01*
X137540000Y-109000000D02*
X137540000Y-112000000D01*
X147460000Y-98610000D02*
X147460000Y-99140000D01*
X149510000Y-98610000D02*
X147460000Y-98610000D01*
X149510000Y-96890000D02*
X149510000Y-98610000D01*
X138040000Y-96890000D02*
X149510000Y-96890000D01*
X138040000Y-105500000D02*
X138040000Y-96890000D01*
X137540000Y-106000000D02*
X138040000Y-105500000D01*
X137540000Y-109000000D02*
X137540000Y-106000000D01*
X170922520Y-103843180D02*
X168472520Y-103843180D01*
X169122520Y-107063180D02*
X170922520Y-107063180D01*
X174931200Y-110527200D02*
X172381200Y-110527200D01*
X174931200Y-108827200D02*
X172381200Y-108827200D01*
X174931200Y-110527200D02*
X174931200Y-108827200D01*
X177330000Y-104060000D02*
X177330000Y-105520000D01*
X174170000Y-104060000D02*
X174170000Y-106220000D01*
X174170000Y-104060000D02*
X175100000Y-104060000D01*
X177330000Y-104060000D02*
X176400000Y-104060000D01*
X172690800Y-117108100D02*
X172690800Y-114108100D01*
X162690800Y-114108100D02*
X162690800Y-117108100D01*
X162690800Y-110608100D02*
X162690800Y-111108100D01*
X171690800Y-110608100D02*
X162690800Y-110608100D01*
X162690800Y-120608100D02*
X162690800Y-120208100D01*
X171690800Y-110608100D02*
X172290800Y-111208100D01*
X172690800Y-120608100D02*
X172690800Y-120208100D01*
X162690800Y-120608100D02*
X172690800Y-120608100D01*
X174160000Y-102012500D02*
X174160000Y-101562500D01*
X174160000Y-102012500D02*
X173710000Y-102012500D01*
X168560000Y-101462500D02*
X169010000Y-101462500D01*
X168560000Y-99612500D02*
X168560000Y-101462500D01*
X176360000Y-97062500D02*
X176360000Y-97312500D01*
X168560000Y-97062500D02*
X168560000Y-97312500D01*
X176360000Y-99612500D02*
X176360000Y-101462500D01*
X176360000Y-101462500D02*
X175910000Y-101462500D01*
X157760000Y-114740000D02*
X158240000Y-114740000D01*
X157760000Y-118860000D02*
X158240000Y-118860000D01*
X155760000Y-114740000D02*
X156240000Y-114740000D01*
X155760000Y-118860000D02*
X156240000Y-118860000D01*
X153760000Y-114740000D02*
X154240000Y-114740000D01*
X153760000Y-118860000D02*
X154240000Y-118860000D01*
X151760000Y-114740000D02*
X152240000Y-114740000D01*
X151760000Y-118860000D02*
X152240000Y-118860000D01*
X159760000Y-114740000D02*
X160060000Y-114740000D01*
X159760000Y-118860000D02*
X160060000Y-118860000D01*
X149940000Y-114740000D02*
X150240000Y-114740000D01*
X149940000Y-118860000D02*
X150240000Y-118860000D01*
X150240000Y-120115000D02*
X150240000Y-118860000D01*
X160060000Y-118860000D02*
X160060000Y-114740000D01*
X149940000Y-118860000D02*
X149940000Y-114740000D01*
X183060000Y-96940000D02*
X183060000Y-100425000D01*
X177340000Y-96940000D02*
X183060000Y-96940000D01*
X177340000Y-98010000D02*
X177340000Y-96940000D01*
X177640000Y-98010000D02*
X177340000Y-98010000D01*
X177640000Y-100425000D02*
X177640000Y-98010000D01*
X183060000Y-103910000D02*
X183060000Y-100425000D01*
X177340000Y-103910000D02*
X183060000Y-103910000D01*
X177340000Y-102840000D02*
X177340000Y-103910000D01*
X177640000Y-102840000D02*
X177340000Y-102840000D01*
X177640000Y-100425000D02*
X177640000Y-102840000D01*
X177050000Y-102550000D02*
X177050000Y-103050000D01*
X177350000Y-102550000D02*
X177050000Y-102550000D01*
X158522340Y-113112920D02*
X158522340Y-110827920D01*
X157052340Y-113112920D02*
X158522340Y-113112920D01*
X157052340Y-110827920D02*
X157052340Y-113112920D01*
%LPC*%
D14*
G36*
X182250000Y-119500000D02*
G01*
X180750000Y-119500000D01*
X180750000Y-114750000D01*
X182250000Y-114750000D01*
X182250000Y-119500000D01*
G37*
X182250000Y-119500000D02*
X180750000Y-119500000D01*
X180750000Y-114750000D01*
X182250000Y-114750000D01*
X182250000Y-119500000D01*
G36*
X164290902Y-103555371D02*
G01*
X164306453Y-103557678D01*
X164321704Y-103561498D01*
X164336506Y-103566794D01*
X164350718Y-103573516D01*
X164364202Y-103581599D01*
X164376830Y-103590964D01*
X164388479Y-103601521D01*
X164399036Y-103613170D01*
X164408401Y-103625798D01*
X164416484Y-103639282D01*
X164423206Y-103653494D01*
X164428502Y-103668296D01*
X164432322Y-103683547D01*
X164434629Y-103699098D01*
X164435400Y-103714800D01*
X164435400Y-104085200D01*
X164434629Y-104100902D01*
X164432322Y-104116453D01*
X164428502Y-104131704D01*
X164423206Y-104146506D01*
X164416484Y-104160718D01*
X164408401Y-104174202D01*
X164399036Y-104186830D01*
X164388479Y-104198479D01*
X164376830Y-104209036D01*
X164364202Y-104218401D01*
X164350718Y-104226484D01*
X164336506Y-104233206D01*
X164321704Y-104238502D01*
X164306453Y-104242322D01*
X164290902Y-104244629D01*
X164275200Y-104245400D01*
X163954800Y-104245400D01*
X163939098Y-104244629D01*
X163923547Y-104242322D01*
X163908296Y-104238502D01*
X163893494Y-104233206D01*
X163879282Y-104226484D01*
X163865798Y-104218401D01*
X163853170Y-104209036D01*
X163841521Y-104198479D01*
X163830964Y-104186830D01*
X163821599Y-104174202D01*
X163813516Y-104160718D01*
X163806794Y-104146506D01*
X163801498Y-104131704D01*
X163797678Y-104116453D01*
X163795371Y-104100902D01*
X163794600Y-104085200D01*
X163794600Y-103714800D01*
X163795371Y-103699098D01*
X163797678Y-103683547D01*
X163801498Y-103668296D01*
X163806794Y-103653494D01*
X163813516Y-103639282D01*
X163821599Y-103625798D01*
X163830964Y-103613170D01*
X163841521Y-103601521D01*
X163853170Y-103590964D01*
X163865798Y-103581599D01*
X163879282Y-103573516D01*
X163893494Y-103566794D01*
X163908296Y-103561498D01*
X163923547Y-103557678D01*
X163939098Y-103555371D01*
X163954800Y-103554600D01*
X164275200Y-103554600D01*
X164290902Y-103555371D01*
X164290902Y-103555371D01*
G37*
D15*
X164115000Y-103900000D03*
D14*
G36*
X163320902Y-103555371D02*
G01*
X163336453Y-103557678D01*
X163351704Y-103561498D01*
X163366506Y-103566794D01*
X163380718Y-103573516D01*
X163394202Y-103581599D01*
X163406830Y-103590964D01*
X163418479Y-103601521D01*
X163429036Y-103613170D01*
X163438401Y-103625798D01*
X163446484Y-103639282D01*
X163453206Y-103653494D01*
X163458502Y-103668296D01*
X163462322Y-103683547D01*
X163464629Y-103699098D01*
X163465400Y-103714800D01*
X163465400Y-104085200D01*
X163464629Y-104100902D01*
X163462322Y-104116453D01*
X163458502Y-104131704D01*
X163453206Y-104146506D01*
X163446484Y-104160718D01*
X163438401Y-104174202D01*
X163429036Y-104186830D01*
X163418479Y-104198479D01*
X163406830Y-104209036D01*
X163394202Y-104218401D01*
X163380718Y-104226484D01*
X163366506Y-104233206D01*
X163351704Y-104238502D01*
X163336453Y-104242322D01*
X163320902Y-104244629D01*
X163305200Y-104245400D01*
X162984800Y-104245400D01*
X162969098Y-104244629D01*
X162953547Y-104242322D01*
X162938296Y-104238502D01*
X162923494Y-104233206D01*
X162909282Y-104226484D01*
X162895798Y-104218401D01*
X162883170Y-104209036D01*
X162871521Y-104198479D01*
X162860964Y-104186830D01*
X162851599Y-104174202D01*
X162843516Y-104160718D01*
X162836794Y-104146506D01*
X162831498Y-104131704D01*
X162827678Y-104116453D01*
X162825371Y-104100902D01*
X162824600Y-104085200D01*
X162824600Y-103714800D01*
X162825371Y-103699098D01*
X162827678Y-103683547D01*
X162831498Y-103668296D01*
X162836794Y-103653494D01*
X162843516Y-103639282D01*
X162851599Y-103625798D01*
X162860964Y-103613170D01*
X162871521Y-103601521D01*
X162883170Y-103590964D01*
X162895798Y-103581599D01*
X162909282Y-103573516D01*
X162923494Y-103566794D01*
X162938296Y-103561498D01*
X162953547Y-103557678D01*
X162969098Y-103555371D01*
X162984800Y-103554600D01*
X163305200Y-103554600D01*
X163320902Y-103555371D01*
X163320902Y-103555371D01*
G37*
D15*
X163145000Y-103900000D03*
D14*
G36*
X162331636Y-105000714D02*
G01*
X162354104Y-105004047D01*
X162376136Y-105009566D01*
X162397522Y-105017218D01*
X162418055Y-105026929D01*
X162437537Y-105038606D01*
X162455780Y-105052137D01*
X162472610Y-105067390D01*
X162487863Y-105084220D01*
X162501394Y-105102463D01*
X162513071Y-105121945D01*
X162522782Y-105142478D01*
X162530434Y-105163864D01*
X162535953Y-105185896D01*
X162539286Y-105208364D01*
X162540400Y-105231050D01*
X162540400Y-105693950D01*
X162539286Y-105716636D01*
X162535953Y-105739104D01*
X162530434Y-105761136D01*
X162522782Y-105782522D01*
X162513071Y-105803055D01*
X162501394Y-105822537D01*
X162487863Y-105840780D01*
X162472610Y-105857610D01*
X162455780Y-105872863D01*
X162437537Y-105886394D01*
X162418055Y-105898071D01*
X162397522Y-105907782D01*
X162376136Y-105915434D01*
X162354104Y-105920953D01*
X162331636Y-105924286D01*
X162308950Y-105925400D01*
X161771050Y-105925400D01*
X161748364Y-105924286D01*
X161725896Y-105920953D01*
X161703864Y-105915434D01*
X161682478Y-105907782D01*
X161661945Y-105898071D01*
X161642463Y-105886394D01*
X161624220Y-105872863D01*
X161607390Y-105857610D01*
X161592137Y-105840780D01*
X161578606Y-105822537D01*
X161566929Y-105803055D01*
X161557218Y-105782522D01*
X161549566Y-105761136D01*
X161544047Y-105739104D01*
X161540714Y-105716636D01*
X161539600Y-105693950D01*
X161539600Y-105231050D01*
X161540714Y-105208364D01*
X161544047Y-105185896D01*
X161549566Y-105163864D01*
X161557218Y-105142478D01*
X161566929Y-105121945D01*
X161578606Y-105102463D01*
X161592137Y-105084220D01*
X161607390Y-105067390D01*
X161624220Y-105052137D01*
X161642463Y-105038606D01*
X161661945Y-105026929D01*
X161682478Y-105017218D01*
X161703864Y-105009566D01*
X161725896Y-105004047D01*
X161748364Y-105000714D01*
X161771050Y-104999600D01*
X162308950Y-104999600D01*
X162331636Y-105000714D01*
X162331636Y-105000714D01*
G37*
D16*
X162040000Y-105462500D03*
D14*
G36*
X162331636Y-106575714D02*
G01*
X162354104Y-106579047D01*
X162376136Y-106584566D01*
X162397522Y-106592218D01*
X162418055Y-106601929D01*
X162437537Y-106613606D01*
X162455780Y-106627137D01*
X162472610Y-106642390D01*
X162487863Y-106659220D01*
X162501394Y-106677463D01*
X162513071Y-106696945D01*
X162522782Y-106717478D01*
X162530434Y-106738864D01*
X162535953Y-106760896D01*
X162539286Y-106783364D01*
X162540400Y-106806050D01*
X162540400Y-107268950D01*
X162539286Y-107291636D01*
X162535953Y-107314104D01*
X162530434Y-107336136D01*
X162522782Y-107357522D01*
X162513071Y-107378055D01*
X162501394Y-107397537D01*
X162487863Y-107415780D01*
X162472610Y-107432610D01*
X162455780Y-107447863D01*
X162437537Y-107461394D01*
X162418055Y-107473071D01*
X162397522Y-107482782D01*
X162376136Y-107490434D01*
X162354104Y-107495953D01*
X162331636Y-107499286D01*
X162308950Y-107500400D01*
X161771050Y-107500400D01*
X161748364Y-107499286D01*
X161725896Y-107495953D01*
X161703864Y-107490434D01*
X161682478Y-107482782D01*
X161661945Y-107473071D01*
X161642463Y-107461394D01*
X161624220Y-107447863D01*
X161607390Y-107432610D01*
X161592137Y-107415780D01*
X161578606Y-107397537D01*
X161566929Y-107378055D01*
X161557218Y-107357522D01*
X161549566Y-107336136D01*
X161544047Y-107314104D01*
X161540714Y-107291636D01*
X161539600Y-107268950D01*
X161539600Y-106806050D01*
X161540714Y-106783364D01*
X161544047Y-106760896D01*
X161549566Y-106738864D01*
X161557218Y-106717478D01*
X161566929Y-106696945D01*
X161578606Y-106677463D01*
X161592137Y-106659220D01*
X161607390Y-106642390D01*
X161624220Y-106627137D01*
X161642463Y-106613606D01*
X161661945Y-106601929D01*
X161682478Y-106592218D01*
X161703864Y-106584566D01*
X161725896Y-106579047D01*
X161748364Y-106575714D01*
X161771050Y-106574600D01*
X162308950Y-106574600D01*
X162331636Y-106575714D01*
X162331636Y-106575714D01*
G37*
D16*
X162040000Y-107037500D03*
D17*
X153430000Y-98882500D03*
D14*
G36*
X152210088Y-97505045D02*
G01*
X152211533Y-97500280D01*
X152213881Y-97495889D01*
X152217039Y-97492039D01*
X152220889Y-97488881D01*
X152225280Y-97486533D01*
X152230045Y-97485088D01*
X152235000Y-97484600D01*
X152642500Y-97484600D01*
X152647455Y-97485088D01*
X152652220Y-97486533D01*
X152656611Y-97488881D01*
X152660461Y-97492039D01*
X152663619Y-97495889D01*
X152665967Y-97500280D01*
X152667412Y-97505045D01*
X152667900Y-97510000D01*
X152667900Y-97994600D01*
X152872100Y-97994600D01*
X152872100Y-97510000D01*
X152872588Y-97505045D01*
X152874033Y-97500280D01*
X152876381Y-97495889D01*
X152879539Y-97492039D01*
X152883389Y-97488881D01*
X152887780Y-97486533D01*
X152892545Y-97485088D01*
X152897500Y-97484600D01*
X153302500Y-97484600D01*
X153307455Y-97485088D01*
X153312220Y-97486533D01*
X153316611Y-97488881D01*
X153320461Y-97492039D01*
X153323619Y-97495889D01*
X153325967Y-97500280D01*
X153327412Y-97505045D01*
X153327900Y-97510000D01*
X153327900Y-97994600D01*
X153532100Y-97994600D01*
X153532100Y-97510000D01*
X153532588Y-97505045D01*
X153534033Y-97500280D01*
X153536381Y-97495889D01*
X153539539Y-97492039D01*
X153543389Y-97488881D01*
X153547780Y-97486533D01*
X153552545Y-97485088D01*
X153557500Y-97484600D01*
X153962500Y-97484600D01*
X153967455Y-97485088D01*
X153972220Y-97486533D01*
X153976611Y-97488881D01*
X153980461Y-97492039D01*
X153983619Y-97495889D01*
X153985967Y-97500280D01*
X153987412Y-97505045D01*
X153987900Y-97510000D01*
X153987900Y-97994600D01*
X154192100Y-97994600D01*
X154192100Y-97510000D01*
X154192588Y-97505045D01*
X154194033Y-97500280D01*
X154196381Y-97495889D01*
X154199539Y-97492039D01*
X154203389Y-97488881D01*
X154207780Y-97486533D01*
X154212545Y-97485088D01*
X154217500Y-97484600D01*
X154625000Y-97484600D01*
X154629955Y-97485088D01*
X154634720Y-97486533D01*
X154639111Y-97488881D01*
X154642961Y-97492039D01*
X154646119Y-97495889D01*
X154648467Y-97500280D01*
X154649912Y-97505045D01*
X154650400Y-97510000D01*
X154650400Y-98270000D01*
X154649912Y-98274955D01*
X154648467Y-98279720D01*
X154646119Y-98284111D01*
X154642961Y-98287961D01*
X154639111Y-98291119D01*
X154634720Y-98293467D01*
X154629955Y-98294912D01*
X154625000Y-98295400D01*
X154572900Y-98295400D01*
X154572900Y-99745000D01*
X154572412Y-99749955D01*
X154570967Y-99754720D01*
X154568619Y-99759111D01*
X154565461Y-99762961D01*
X154561611Y-99766119D01*
X154557220Y-99768467D01*
X154552455Y-99769912D01*
X154547500Y-99770400D01*
X152312500Y-99770400D01*
X152307545Y-99769912D01*
X152302780Y-99768467D01*
X152298389Y-99766119D01*
X152294539Y-99762961D01*
X152291381Y-99759111D01*
X152289033Y-99754720D01*
X152287588Y-99749955D01*
X152287100Y-99745000D01*
X152287100Y-98295400D01*
X152235000Y-98295400D01*
X152230045Y-98294912D01*
X152225280Y-98293467D01*
X152220889Y-98291119D01*
X152217039Y-98287961D01*
X152213881Y-98284111D01*
X152211533Y-98279720D01*
X152210088Y-98274955D01*
X152209600Y-98270000D01*
X152209600Y-97510000D01*
X152210088Y-97505045D01*
X152210088Y-97505045D01*
G37*
D18*
X154420000Y-100875000D03*
X153760000Y-100875000D03*
X153100000Y-100875000D03*
X152440000Y-100875000D03*
D19*
X173767500Y-104460000D03*
X172692500Y-104460000D03*
D20*
X173230000Y-102685000D03*
X173230000Y-104535000D03*
D19*
X172692500Y-102760000D03*
X173767500Y-102760000D03*
D21*
X165000000Y-100400000D03*
D22*
X150000000Y-100400000D03*
D14*
G36*
X177545902Y-112475371D02*
G01*
X177561453Y-112477678D01*
X177576704Y-112481498D01*
X177591506Y-112486794D01*
X177605718Y-112493516D01*
X177619202Y-112501599D01*
X177631830Y-112510964D01*
X177643479Y-112521521D01*
X177654036Y-112533170D01*
X177663401Y-112545798D01*
X177671484Y-112559282D01*
X177678206Y-112573494D01*
X177683502Y-112588296D01*
X177687322Y-112603547D01*
X177689629Y-112619098D01*
X177690400Y-112634800D01*
X177690400Y-113005200D01*
X177689629Y-113020902D01*
X177687322Y-113036453D01*
X177683502Y-113051704D01*
X177678206Y-113066506D01*
X177671484Y-113080718D01*
X177663401Y-113094202D01*
X177654036Y-113106830D01*
X177643479Y-113118479D01*
X177631830Y-113129036D01*
X177619202Y-113138401D01*
X177605718Y-113146484D01*
X177591506Y-113153206D01*
X177576704Y-113158502D01*
X177561453Y-113162322D01*
X177545902Y-113164629D01*
X177530200Y-113165400D01*
X177209800Y-113165400D01*
X177194098Y-113164629D01*
X177178547Y-113162322D01*
X177163296Y-113158502D01*
X177148494Y-113153206D01*
X177134282Y-113146484D01*
X177120798Y-113138401D01*
X177108170Y-113129036D01*
X177096521Y-113118479D01*
X177085964Y-113106830D01*
X177076599Y-113094202D01*
X177068516Y-113080718D01*
X177061794Y-113066506D01*
X177056498Y-113051704D01*
X177052678Y-113036453D01*
X177050371Y-113020902D01*
X177049600Y-113005200D01*
X177049600Y-112634800D01*
X177050371Y-112619098D01*
X177052678Y-112603547D01*
X177056498Y-112588296D01*
X177061794Y-112573494D01*
X177068516Y-112559282D01*
X177076599Y-112545798D01*
X177085964Y-112533170D01*
X177096521Y-112521521D01*
X177108170Y-112510964D01*
X177120798Y-112501599D01*
X177134282Y-112493516D01*
X177148494Y-112486794D01*
X177163296Y-112481498D01*
X177178547Y-112477678D01*
X177194098Y-112475371D01*
X177209800Y-112474600D01*
X177530200Y-112474600D01*
X177545902Y-112475371D01*
X177545902Y-112475371D01*
G37*
D15*
X177370000Y-112820000D03*
D14*
G36*
X176575902Y-112475371D02*
G01*
X176591453Y-112477678D01*
X176606704Y-112481498D01*
X176621506Y-112486794D01*
X176635718Y-112493516D01*
X176649202Y-112501599D01*
X176661830Y-112510964D01*
X176673479Y-112521521D01*
X176684036Y-112533170D01*
X176693401Y-112545798D01*
X176701484Y-112559282D01*
X176708206Y-112573494D01*
X176713502Y-112588296D01*
X176717322Y-112603547D01*
X176719629Y-112619098D01*
X176720400Y-112634800D01*
X176720400Y-113005200D01*
X176719629Y-113020902D01*
X176717322Y-113036453D01*
X176713502Y-113051704D01*
X176708206Y-113066506D01*
X176701484Y-113080718D01*
X176693401Y-113094202D01*
X176684036Y-113106830D01*
X176673479Y-113118479D01*
X176661830Y-113129036D01*
X176649202Y-113138401D01*
X176635718Y-113146484D01*
X176621506Y-113153206D01*
X176606704Y-113158502D01*
X176591453Y-113162322D01*
X176575902Y-113164629D01*
X176560200Y-113165400D01*
X176239800Y-113165400D01*
X176224098Y-113164629D01*
X176208547Y-113162322D01*
X176193296Y-113158502D01*
X176178494Y-113153206D01*
X176164282Y-113146484D01*
X176150798Y-113138401D01*
X176138170Y-113129036D01*
X176126521Y-113118479D01*
X176115964Y-113106830D01*
X176106599Y-113094202D01*
X176098516Y-113080718D01*
X176091794Y-113066506D01*
X176086498Y-113051704D01*
X176082678Y-113036453D01*
X176080371Y-113020902D01*
X176079600Y-113005200D01*
X176079600Y-112634800D01*
X176080371Y-112619098D01*
X176082678Y-112603547D01*
X176086498Y-112588296D01*
X176091794Y-112573494D01*
X176098516Y-112559282D01*
X176106599Y-112545798D01*
X176115964Y-112533170D01*
X176126521Y-112521521D01*
X176138170Y-112510964D01*
X176150798Y-112501599D01*
X176164282Y-112493516D01*
X176178494Y-112486794D01*
X176193296Y-112481498D01*
X176208547Y-112477678D01*
X176224098Y-112475371D01*
X176239800Y-112474600D01*
X176560200Y-112474600D01*
X176575902Y-112475371D01*
X176575902Y-112475371D01*
G37*
D15*
X176400000Y-112820000D03*
D14*
G36*
X167660562Y-101003371D02*
G01*
X167676113Y-101005678D01*
X167691364Y-101009498D01*
X167706166Y-101014794D01*
X167720378Y-101021516D01*
X167733862Y-101029599D01*
X167746490Y-101038964D01*
X167758139Y-101049521D01*
X167768696Y-101061170D01*
X167778061Y-101073798D01*
X167786144Y-101087282D01*
X167792866Y-101101494D01*
X167798162Y-101116296D01*
X167801982Y-101131547D01*
X167804289Y-101147098D01*
X167805060Y-101162800D01*
X167805060Y-101483200D01*
X167804289Y-101498902D01*
X167801982Y-101514453D01*
X167798162Y-101529704D01*
X167792866Y-101544506D01*
X167786144Y-101558718D01*
X167778061Y-101572202D01*
X167768696Y-101584830D01*
X167758139Y-101596479D01*
X167746490Y-101607036D01*
X167733862Y-101616401D01*
X167720378Y-101624484D01*
X167706166Y-101631206D01*
X167691364Y-101636502D01*
X167676113Y-101640322D01*
X167660562Y-101642629D01*
X167644860Y-101643400D01*
X167274460Y-101643400D01*
X167258758Y-101642629D01*
X167243207Y-101640322D01*
X167227956Y-101636502D01*
X167213154Y-101631206D01*
X167198942Y-101624484D01*
X167185458Y-101616401D01*
X167172830Y-101607036D01*
X167161181Y-101596479D01*
X167150624Y-101584830D01*
X167141259Y-101572202D01*
X167133176Y-101558718D01*
X167126454Y-101544506D01*
X167121158Y-101529704D01*
X167117338Y-101514453D01*
X167115031Y-101498902D01*
X167114260Y-101483200D01*
X167114260Y-101162800D01*
X167115031Y-101147098D01*
X167117338Y-101131547D01*
X167121158Y-101116296D01*
X167126454Y-101101494D01*
X167133176Y-101087282D01*
X167141259Y-101073798D01*
X167150624Y-101061170D01*
X167161181Y-101049521D01*
X167172830Y-101038964D01*
X167185458Y-101029599D01*
X167198942Y-101021516D01*
X167213154Y-101014794D01*
X167227956Y-101009498D01*
X167243207Y-101005678D01*
X167258758Y-101003371D01*
X167274460Y-101002600D01*
X167644860Y-101002600D01*
X167660562Y-101003371D01*
X167660562Y-101003371D01*
G37*
D15*
X167459660Y-101323000D03*
D14*
G36*
X167660562Y-100033371D02*
G01*
X167676113Y-100035678D01*
X167691364Y-100039498D01*
X167706166Y-100044794D01*
X167720378Y-100051516D01*
X167733862Y-100059599D01*
X167746490Y-100068964D01*
X167758139Y-100079521D01*
X167768696Y-100091170D01*
X167778061Y-100103798D01*
X167786144Y-100117282D01*
X167792866Y-100131494D01*
X167798162Y-100146296D01*
X167801982Y-100161547D01*
X167804289Y-100177098D01*
X167805060Y-100192800D01*
X167805060Y-100513200D01*
X167804289Y-100528902D01*
X167801982Y-100544453D01*
X167798162Y-100559704D01*
X167792866Y-100574506D01*
X167786144Y-100588718D01*
X167778061Y-100602202D01*
X167768696Y-100614830D01*
X167758139Y-100626479D01*
X167746490Y-100637036D01*
X167733862Y-100646401D01*
X167720378Y-100654484D01*
X167706166Y-100661206D01*
X167691364Y-100666502D01*
X167676113Y-100670322D01*
X167660562Y-100672629D01*
X167644860Y-100673400D01*
X167274460Y-100673400D01*
X167258758Y-100672629D01*
X167243207Y-100670322D01*
X167227956Y-100666502D01*
X167213154Y-100661206D01*
X167198942Y-100654484D01*
X167185458Y-100646401D01*
X167172830Y-100637036D01*
X167161181Y-100626479D01*
X167150624Y-100614830D01*
X167141259Y-100602202D01*
X167133176Y-100588718D01*
X167126454Y-100574506D01*
X167121158Y-100559704D01*
X167117338Y-100544453D01*
X167115031Y-100528902D01*
X167114260Y-100513200D01*
X167114260Y-100192800D01*
X167115031Y-100177098D01*
X167117338Y-100161547D01*
X167121158Y-100146296D01*
X167126454Y-100131494D01*
X167133176Y-100117282D01*
X167141259Y-100103798D01*
X167150624Y-100091170D01*
X167161181Y-100079521D01*
X167172830Y-100068964D01*
X167185458Y-100059599D01*
X167198942Y-100051516D01*
X167213154Y-100044794D01*
X167227956Y-100039498D01*
X167243207Y-100035678D01*
X167258758Y-100033371D01*
X167274460Y-100032600D01*
X167644860Y-100032600D01*
X167660562Y-100033371D01*
X167660562Y-100033371D01*
G37*
D15*
X167459660Y-100353000D03*
D23*
X178940000Y-119680000D03*
X176400000Y-119680000D03*
X178940000Y-117140000D03*
X176400000Y-117140000D03*
X178940000Y-114600000D03*
D24*
X176400000Y-114600000D03*
D25*
X144950000Y-98000000D03*
X144950000Y-120000000D03*
D26*
X147350000Y-118000000D03*
X147350000Y-116000000D03*
X147350000Y-114000000D03*
X147350000Y-112000000D03*
X147350000Y-110000000D03*
X147350000Y-108000000D03*
X147350000Y-106000000D03*
X147350000Y-104000000D03*
X147350000Y-102000000D03*
D14*
G36*
X148040360Y-99375855D02*
G01*
X148065655Y-99379607D01*
X148090461Y-99385821D01*
X148114538Y-99394436D01*
X148137656Y-99405369D01*
X148159590Y-99418516D01*
X148180129Y-99433749D01*
X148199077Y-99450923D01*
X148216251Y-99469871D01*
X148231484Y-99490410D01*
X148244631Y-99512344D01*
X148255564Y-99535462D01*
X148264179Y-99559539D01*
X148270393Y-99584345D01*
X148274145Y-99609640D01*
X148275400Y-99635182D01*
X148275400Y-100364818D01*
X148274145Y-100390360D01*
X148270393Y-100415655D01*
X148264179Y-100440461D01*
X148255564Y-100464538D01*
X148244631Y-100487656D01*
X148231484Y-100509590D01*
X148216251Y-100530129D01*
X148199077Y-100549077D01*
X148180129Y-100566251D01*
X148159590Y-100581484D01*
X148137656Y-100594631D01*
X148114538Y-100605564D01*
X148090461Y-100614179D01*
X148065655Y-100620393D01*
X148040360Y-100624145D01*
X148014818Y-100625400D01*
X146685182Y-100625400D01*
X146659640Y-100624145D01*
X146634345Y-100620393D01*
X146609539Y-100614179D01*
X146585462Y-100605564D01*
X146562344Y-100594631D01*
X146540410Y-100581484D01*
X146519871Y-100566251D01*
X146500923Y-100549077D01*
X146483749Y-100530129D01*
X146468516Y-100509590D01*
X146455369Y-100487656D01*
X146444436Y-100464538D01*
X146435821Y-100440461D01*
X146429607Y-100415655D01*
X146425855Y-100390360D01*
X146424600Y-100364818D01*
X146424600Y-99635182D01*
X146425855Y-99609640D01*
X146429607Y-99584345D01*
X146435821Y-99559539D01*
X146444436Y-99535462D01*
X146455369Y-99512344D01*
X146468516Y-99490410D01*
X146483749Y-99469871D01*
X146500923Y-99450923D01*
X146519871Y-99433749D01*
X146540410Y-99418516D01*
X146562344Y-99405369D01*
X146585462Y-99394436D01*
X146609539Y-99385821D01*
X146634345Y-99379607D01*
X146659640Y-99375855D01*
X146685182Y-99374600D01*
X148014818Y-99374600D01*
X148040360Y-99375855D01*
X148040360Y-99375855D01*
G37*
D25*
X147350000Y-100000000D03*
D14*
G36*
X166362882Y-103559151D02*
G01*
X166378433Y-103561458D01*
X166393684Y-103565278D01*
X166408486Y-103570574D01*
X166422698Y-103577296D01*
X166436182Y-103585379D01*
X166448810Y-103594744D01*
X166460459Y-103605301D01*
X166471016Y-103616950D01*
X166480381Y-103629578D01*
X166488464Y-103643062D01*
X166495186Y-103657274D01*
X166500482Y-103672076D01*
X166504302Y-103687327D01*
X166506609Y-103702878D01*
X166507380Y-103718580D01*
X166507380Y-104088980D01*
X166506609Y-104104682D01*
X166504302Y-104120233D01*
X166500482Y-104135484D01*
X166495186Y-104150286D01*
X166488464Y-104164498D01*
X166480381Y-104177982D01*
X166471016Y-104190610D01*
X166460459Y-104202259D01*
X166448810Y-104212816D01*
X166436182Y-104222181D01*
X166422698Y-104230264D01*
X166408486Y-104236986D01*
X166393684Y-104242282D01*
X166378433Y-104246102D01*
X166362882Y-104248409D01*
X166347180Y-104249180D01*
X166026780Y-104249180D01*
X166011078Y-104248409D01*
X165995527Y-104246102D01*
X165980276Y-104242282D01*
X165965474Y-104236986D01*
X165951262Y-104230264D01*
X165937778Y-104222181D01*
X165925150Y-104212816D01*
X165913501Y-104202259D01*
X165902944Y-104190610D01*
X165893579Y-104177982D01*
X165885496Y-104164498D01*
X165878774Y-104150286D01*
X165873478Y-104135484D01*
X165869658Y-104120233D01*
X165867351Y-104104682D01*
X165866580Y-104088980D01*
X165866580Y-103718580D01*
X165867351Y-103702878D01*
X165869658Y-103687327D01*
X165873478Y-103672076D01*
X165878774Y-103657274D01*
X165885496Y-103643062D01*
X165893579Y-103629578D01*
X165902944Y-103616950D01*
X165913501Y-103605301D01*
X165925150Y-103594744D01*
X165937778Y-103585379D01*
X165951262Y-103577296D01*
X165965474Y-103570574D01*
X165980276Y-103565278D01*
X165995527Y-103561458D01*
X166011078Y-103559151D01*
X166026780Y-103558380D01*
X166347180Y-103558380D01*
X166362882Y-103559151D01*
X166362882Y-103559151D01*
G37*
D15*
X166186980Y-103903780D03*
D14*
G36*
X165392882Y-103559151D02*
G01*
X165408433Y-103561458D01*
X165423684Y-103565278D01*
X165438486Y-103570574D01*
X165452698Y-103577296D01*
X165466182Y-103585379D01*
X165478810Y-103594744D01*
X165490459Y-103605301D01*
X165501016Y-103616950D01*
X165510381Y-103629578D01*
X165518464Y-103643062D01*
X165525186Y-103657274D01*
X165530482Y-103672076D01*
X165534302Y-103687327D01*
X165536609Y-103702878D01*
X165537380Y-103718580D01*
X165537380Y-104088980D01*
X165536609Y-104104682D01*
X165534302Y-104120233D01*
X165530482Y-104135484D01*
X165525186Y-104150286D01*
X165518464Y-104164498D01*
X165510381Y-104177982D01*
X165501016Y-104190610D01*
X165490459Y-104202259D01*
X165478810Y-104212816D01*
X165466182Y-104222181D01*
X165452698Y-104230264D01*
X165438486Y-104236986D01*
X165423684Y-104242282D01*
X165408433Y-104246102D01*
X165392882Y-104248409D01*
X165377180Y-104249180D01*
X165056780Y-104249180D01*
X165041078Y-104248409D01*
X165025527Y-104246102D01*
X165010276Y-104242282D01*
X164995474Y-104236986D01*
X164981262Y-104230264D01*
X164967778Y-104222181D01*
X164955150Y-104212816D01*
X164943501Y-104202259D01*
X164932944Y-104190610D01*
X164923579Y-104177982D01*
X164915496Y-104164498D01*
X164908774Y-104150286D01*
X164903478Y-104135484D01*
X164899658Y-104120233D01*
X164897351Y-104104682D01*
X164896580Y-104088980D01*
X164896580Y-103718580D01*
X164897351Y-103702878D01*
X164899658Y-103687327D01*
X164903478Y-103672076D01*
X164908774Y-103657274D01*
X164915496Y-103643062D01*
X164923579Y-103629578D01*
X164932944Y-103616950D01*
X164943501Y-103605301D01*
X164955150Y-103594744D01*
X164967778Y-103585379D01*
X164981262Y-103577296D01*
X164995474Y-103570574D01*
X165010276Y-103565278D01*
X165025527Y-103561458D01*
X165041078Y-103559151D01*
X165056780Y-103558380D01*
X165377180Y-103558380D01*
X165392882Y-103559151D01*
X165392882Y-103559151D01*
G37*
D15*
X165216980Y-103903780D03*
D27*
X171122520Y-104503180D03*
X171122520Y-106403180D03*
X168922520Y-106403180D03*
X168922520Y-105453180D03*
X168922520Y-104503180D03*
D14*
G36*
X174698902Y-117030771D02*
G01*
X174714453Y-117033078D01*
X174729704Y-117036898D01*
X174744506Y-117042194D01*
X174758718Y-117048916D01*
X174772202Y-117056999D01*
X174784830Y-117066364D01*
X174796479Y-117076921D01*
X174807036Y-117088570D01*
X174816401Y-117101198D01*
X174824484Y-117114682D01*
X174831206Y-117128894D01*
X174836502Y-117143696D01*
X174840322Y-117158947D01*
X174842629Y-117174498D01*
X174843400Y-117190200D01*
X174843400Y-117510600D01*
X174842629Y-117526302D01*
X174840322Y-117541853D01*
X174836502Y-117557104D01*
X174831206Y-117571906D01*
X174824484Y-117586118D01*
X174816401Y-117599602D01*
X174807036Y-117612230D01*
X174796479Y-117623879D01*
X174784830Y-117634436D01*
X174772202Y-117643801D01*
X174758718Y-117651884D01*
X174744506Y-117658606D01*
X174729704Y-117663902D01*
X174714453Y-117667722D01*
X174698902Y-117670029D01*
X174683200Y-117670800D01*
X174312800Y-117670800D01*
X174297098Y-117670029D01*
X174281547Y-117667722D01*
X174266296Y-117663902D01*
X174251494Y-117658606D01*
X174237282Y-117651884D01*
X174223798Y-117643801D01*
X174211170Y-117634436D01*
X174199521Y-117623879D01*
X174188964Y-117612230D01*
X174179599Y-117599602D01*
X174171516Y-117586118D01*
X174164794Y-117571906D01*
X174159498Y-117557104D01*
X174155678Y-117541853D01*
X174153371Y-117526302D01*
X174152600Y-117510600D01*
X174152600Y-117190200D01*
X174153371Y-117174498D01*
X174155678Y-117158947D01*
X174159498Y-117143696D01*
X174164794Y-117128894D01*
X174171516Y-117114682D01*
X174179599Y-117101198D01*
X174188964Y-117088570D01*
X174199521Y-117076921D01*
X174211170Y-117066364D01*
X174223798Y-117056999D01*
X174237282Y-117048916D01*
X174251494Y-117042194D01*
X174266296Y-117036898D01*
X174281547Y-117033078D01*
X174297098Y-117030771D01*
X174312800Y-117030000D01*
X174683200Y-117030000D01*
X174698902Y-117030771D01*
X174698902Y-117030771D01*
G37*
D15*
X174498000Y-117350400D03*
D14*
G36*
X174698902Y-116060771D02*
G01*
X174714453Y-116063078D01*
X174729704Y-116066898D01*
X174744506Y-116072194D01*
X174758718Y-116078916D01*
X174772202Y-116086999D01*
X174784830Y-116096364D01*
X174796479Y-116106921D01*
X174807036Y-116118570D01*
X174816401Y-116131198D01*
X174824484Y-116144682D01*
X174831206Y-116158894D01*
X174836502Y-116173696D01*
X174840322Y-116188947D01*
X174842629Y-116204498D01*
X174843400Y-116220200D01*
X174843400Y-116540600D01*
X174842629Y-116556302D01*
X174840322Y-116571853D01*
X174836502Y-116587104D01*
X174831206Y-116601906D01*
X174824484Y-116616118D01*
X174816401Y-116629602D01*
X174807036Y-116642230D01*
X174796479Y-116653879D01*
X174784830Y-116664436D01*
X174772202Y-116673801D01*
X174758718Y-116681884D01*
X174744506Y-116688606D01*
X174729704Y-116693902D01*
X174714453Y-116697722D01*
X174698902Y-116700029D01*
X174683200Y-116700800D01*
X174312800Y-116700800D01*
X174297098Y-116700029D01*
X174281547Y-116697722D01*
X174266296Y-116693902D01*
X174251494Y-116688606D01*
X174237282Y-116681884D01*
X174223798Y-116673801D01*
X174211170Y-116664436D01*
X174199521Y-116653879D01*
X174188964Y-116642230D01*
X174179599Y-116629602D01*
X174171516Y-116616118D01*
X174164794Y-116601906D01*
X174159498Y-116587104D01*
X174155678Y-116571853D01*
X174153371Y-116556302D01*
X174152600Y-116540600D01*
X174152600Y-116220200D01*
X174153371Y-116204498D01*
X174155678Y-116188947D01*
X174159498Y-116173696D01*
X174164794Y-116158894D01*
X174171516Y-116144682D01*
X174179599Y-116131198D01*
X174188964Y-116118570D01*
X174199521Y-116106921D01*
X174211170Y-116096364D01*
X174223798Y-116086999D01*
X174237282Y-116078916D01*
X174251494Y-116072194D01*
X174266296Y-116066898D01*
X174281547Y-116063078D01*
X174297098Y-116060771D01*
X174312800Y-116060000D01*
X174683200Y-116060000D01*
X174698902Y-116060771D01*
X174698902Y-116060771D01*
G37*
D15*
X174498000Y-116380400D03*
D28*
X172381200Y-109677200D03*
X174481200Y-109677200D03*
D29*
X175750000Y-103820000D03*
X176700000Y-105820000D03*
X174800000Y-105820000D03*
D14*
G36*
X163253753Y-111335169D02*
G01*
X163303523Y-111342551D01*
X163352329Y-111354777D01*
X163399702Y-111371727D01*
X163445185Y-111393239D01*
X163488341Y-111419106D01*
X163528753Y-111449078D01*
X163566034Y-111482866D01*
X163599822Y-111520147D01*
X163629794Y-111560559D01*
X163655661Y-111603715D01*
X163677173Y-111649198D01*
X163694123Y-111696571D01*
X163706349Y-111745377D01*
X163713731Y-111795147D01*
X163716200Y-111845400D01*
X163716200Y-113370800D01*
X163713731Y-113421053D01*
X163706349Y-113470823D01*
X163694123Y-113519629D01*
X163677173Y-113567002D01*
X163655661Y-113612485D01*
X163629794Y-113655641D01*
X163599822Y-113696053D01*
X163566034Y-113733334D01*
X163528753Y-113767122D01*
X163488341Y-113797094D01*
X163445185Y-113822961D01*
X163399702Y-113844473D01*
X163352329Y-113861423D01*
X163303523Y-113873649D01*
X163253753Y-113881031D01*
X163203500Y-113883500D01*
X162178100Y-113883500D01*
X162127847Y-113881031D01*
X162078077Y-113873649D01*
X162029271Y-113861423D01*
X161981898Y-113844473D01*
X161936415Y-113822961D01*
X161893259Y-113797094D01*
X161852847Y-113767122D01*
X161815566Y-113733334D01*
X161781778Y-113696053D01*
X161751806Y-113655641D01*
X161725939Y-113612485D01*
X161704427Y-113567002D01*
X161687477Y-113519629D01*
X161675251Y-113470823D01*
X161667869Y-113421053D01*
X161665400Y-113370800D01*
X161665400Y-111845400D01*
X161667869Y-111795147D01*
X161675251Y-111745377D01*
X161687477Y-111696571D01*
X161704427Y-111649198D01*
X161725939Y-111603715D01*
X161751806Y-111560559D01*
X161781778Y-111520147D01*
X161815566Y-111482866D01*
X161852847Y-111449078D01*
X161893259Y-111419106D01*
X161936415Y-111393239D01*
X161981898Y-111371727D01*
X162029271Y-111354777D01*
X162078077Y-111342551D01*
X162127847Y-111335169D01*
X162178100Y-111332700D01*
X163203500Y-111332700D01*
X163253753Y-111335169D01*
X163253753Y-111335169D01*
G37*
D30*
X162690800Y-112608100D03*
D14*
G36*
X173253753Y-111335169D02*
G01*
X173303523Y-111342551D01*
X173352329Y-111354777D01*
X173399702Y-111371727D01*
X173445185Y-111393239D01*
X173488341Y-111419106D01*
X173528753Y-111449078D01*
X173566034Y-111482866D01*
X173599822Y-111520147D01*
X173629794Y-111560559D01*
X173655661Y-111603715D01*
X173677173Y-111649198D01*
X173694123Y-111696571D01*
X173706349Y-111745377D01*
X173713731Y-111795147D01*
X173716200Y-111845400D01*
X173716200Y-113370800D01*
X173713731Y-113421053D01*
X173706349Y-113470823D01*
X173694123Y-113519629D01*
X173677173Y-113567002D01*
X173655661Y-113612485D01*
X173629794Y-113655641D01*
X173599822Y-113696053D01*
X173566034Y-113733334D01*
X173528753Y-113767122D01*
X173488341Y-113797094D01*
X173445185Y-113822961D01*
X173399702Y-113844473D01*
X173352329Y-113861423D01*
X173303523Y-113873649D01*
X173253753Y-113881031D01*
X173203500Y-113883500D01*
X172178100Y-113883500D01*
X172127847Y-113881031D01*
X172078077Y-113873649D01*
X172029271Y-113861423D01*
X171981898Y-113844473D01*
X171936415Y-113822961D01*
X171893259Y-113797094D01*
X171852847Y-113767122D01*
X171815566Y-113733334D01*
X171781778Y-113696053D01*
X171751806Y-113655641D01*
X171725939Y-113612485D01*
X171704427Y-113567002D01*
X171687477Y-113519629D01*
X171675251Y-113470823D01*
X171667869Y-113421053D01*
X171665400Y-113370800D01*
X171665400Y-111845400D01*
X171667869Y-111795147D01*
X171675251Y-111745377D01*
X171687477Y-111696571D01*
X171704427Y-111649198D01*
X171725939Y-111603715D01*
X171751806Y-111560559D01*
X171781778Y-111520147D01*
X171815566Y-111482866D01*
X171852847Y-111449078D01*
X171893259Y-111419106D01*
X171936415Y-111393239D01*
X171981898Y-111371727D01*
X172029271Y-111354777D01*
X172078077Y-111342551D01*
X172127847Y-111335169D01*
X172178100Y-111332700D01*
X173203500Y-111332700D01*
X173253753Y-111335169D01*
X173253753Y-111335169D01*
G37*
D30*
X172690800Y-112608100D03*
D14*
G36*
X173253753Y-117335169D02*
G01*
X173303523Y-117342551D01*
X173352329Y-117354777D01*
X173399702Y-117371727D01*
X173445185Y-117393239D01*
X173488341Y-117419106D01*
X173528753Y-117449078D01*
X173566034Y-117482866D01*
X173599822Y-117520147D01*
X173629794Y-117560559D01*
X173655661Y-117603715D01*
X173677173Y-117649198D01*
X173694123Y-117696571D01*
X173706349Y-117745377D01*
X173713731Y-117795147D01*
X173716200Y-117845400D01*
X173716200Y-119370800D01*
X173713731Y-119421053D01*
X173706349Y-119470823D01*
X173694123Y-119519629D01*
X173677173Y-119567002D01*
X173655661Y-119612485D01*
X173629794Y-119655641D01*
X173599822Y-119696053D01*
X173566034Y-119733334D01*
X173528753Y-119767122D01*
X173488341Y-119797094D01*
X173445185Y-119822961D01*
X173399702Y-119844473D01*
X173352329Y-119861423D01*
X173303523Y-119873649D01*
X173253753Y-119881031D01*
X173203500Y-119883500D01*
X172178100Y-119883500D01*
X172127847Y-119881031D01*
X172078077Y-119873649D01*
X172029271Y-119861423D01*
X171981898Y-119844473D01*
X171936415Y-119822961D01*
X171893259Y-119797094D01*
X171852847Y-119767122D01*
X171815566Y-119733334D01*
X171781778Y-119696053D01*
X171751806Y-119655641D01*
X171725939Y-119612485D01*
X171704427Y-119567002D01*
X171687477Y-119519629D01*
X171675251Y-119470823D01*
X171667869Y-119421053D01*
X171665400Y-119370800D01*
X171665400Y-117845400D01*
X171667869Y-117795147D01*
X171675251Y-117745377D01*
X171687477Y-117696571D01*
X171704427Y-117649198D01*
X171725939Y-117603715D01*
X171751806Y-117560559D01*
X171781778Y-117520147D01*
X171815566Y-117482866D01*
X171852847Y-117449078D01*
X171893259Y-117419106D01*
X171936415Y-117393239D01*
X171981898Y-117371727D01*
X172029271Y-117354777D01*
X172078077Y-117342551D01*
X172127847Y-117335169D01*
X172178100Y-117332700D01*
X173203500Y-117332700D01*
X173253753Y-117335169D01*
X173253753Y-117335169D01*
G37*
D30*
X172690800Y-118608100D03*
D14*
G36*
X163253753Y-117335169D02*
G01*
X163303523Y-117342551D01*
X163352329Y-117354777D01*
X163399702Y-117371727D01*
X163445185Y-117393239D01*
X163488341Y-117419106D01*
X163528753Y-117449078D01*
X163566034Y-117482866D01*
X163599822Y-117520147D01*
X163629794Y-117560559D01*
X163655661Y-117603715D01*
X163677173Y-117649198D01*
X163694123Y-117696571D01*
X163706349Y-117745377D01*
X163713731Y-117795147D01*
X163716200Y-117845400D01*
X163716200Y-119370800D01*
X163713731Y-119421053D01*
X163706349Y-119470823D01*
X163694123Y-119519629D01*
X163677173Y-119567002D01*
X163655661Y-119612485D01*
X163629794Y-119655641D01*
X163599822Y-119696053D01*
X163566034Y-119733334D01*
X163528753Y-119767122D01*
X163488341Y-119797094D01*
X163445185Y-119822961D01*
X163399702Y-119844473D01*
X163352329Y-119861423D01*
X163303523Y-119873649D01*
X163253753Y-119881031D01*
X163203500Y-119883500D01*
X162178100Y-119883500D01*
X162127847Y-119881031D01*
X162078077Y-119873649D01*
X162029271Y-119861423D01*
X161981898Y-119844473D01*
X161936415Y-119822961D01*
X161893259Y-119797094D01*
X161852847Y-119767122D01*
X161815566Y-119733334D01*
X161781778Y-119696053D01*
X161751806Y-119655641D01*
X161725939Y-119612485D01*
X161704427Y-119567002D01*
X161687477Y-119519629D01*
X161675251Y-119470823D01*
X161667869Y-119421053D01*
X161665400Y-119370800D01*
X161665400Y-117845400D01*
X161667869Y-117795147D01*
X161675251Y-117745377D01*
X161687477Y-117696571D01*
X161704427Y-117649198D01*
X161725939Y-117603715D01*
X161751806Y-117560559D01*
X161781778Y-117520147D01*
X161815566Y-117482866D01*
X161852847Y-117449078D01*
X161893259Y-117419106D01*
X161936415Y-117393239D01*
X161981898Y-117371727D01*
X162029271Y-117354777D01*
X162078077Y-117342551D01*
X162127847Y-117335169D01*
X162178100Y-117332700D01*
X163203500Y-117332700D01*
X163253753Y-117335169D01*
X163253753Y-117335169D01*
G37*
D30*
X162690800Y-118608100D03*
D14*
G36*
X158584102Y-107427571D02*
G01*
X158599653Y-107429878D01*
X158614904Y-107433698D01*
X158629706Y-107438994D01*
X158643918Y-107445716D01*
X158657402Y-107453799D01*
X158670030Y-107463164D01*
X158681679Y-107473721D01*
X158692236Y-107485370D01*
X158701601Y-107497998D01*
X158709684Y-107511482D01*
X158716406Y-107525694D01*
X158721702Y-107540496D01*
X158725522Y-107555747D01*
X158727829Y-107571298D01*
X158728600Y-107587000D01*
X158728600Y-107957400D01*
X158727829Y-107973102D01*
X158725522Y-107988653D01*
X158721702Y-108003904D01*
X158716406Y-108018706D01*
X158709684Y-108032918D01*
X158701601Y-108046402D01*
X158692236Y-108059030D01*
X158681679Y-108070679D01*
X158670030Y-108081236D01*
X158657402Y-108090601D01*
X158643918Y-108098684D01*
X158629706Y-108105406D01*
X158614904Y-108110702D01*
X158599653Y-108114522D01*
X158584102Y-108116829D01*
X158568400Y-108117600D01*
X158248000Y-108117600D01*
X158232298Y-108116829D01*
X158216747Y-108114522D01*
X158201496Y-108110702D01*
X158186694Y-108105406D01*
X158172482Y-108098684D01*
X158158998Y-108090601D01*
X158146370Y-108081236D01*
X158134721Y-108070679D01*
X158124164Y-108059030D01*
X158114799Y-108046402D01*
X158106716Y-108032918D01*
X158099994Y-108018706D01*
X158094698Y-108003904D01*
X158090878Y-107988653D01*
X158088571Y-107973102D01*
X158087800Y-107957400D01*
X158087800Y-107587000D01*
X158088571Y-107571298D01*
X158090878Y-107555747D01*
X158094698Y-107540496D01*
X158099994Y-107525694D01*
X158106716Y-107511482D01*
X158114799Y-107497998D01*
X158124164Y-107485370D01*
X158134721Y-107473721D01*
X158146370Y-107463164D01*
X158158998Y-107453799D01*
X158172482Y-107445716D01*
X158186694Y-107438994D01*
X158201496Y-107433698D01*
X158216747Y-107429878D01*
X158232298Y-107427571D01*
X158248000Y-107426800D01*
X158568400Y-107426800D01*
X158584102Y-107427571D01*
X158584102Y-107427571D01*
G37*
D15*
X158408200Y-107772200D03*
D14*
G36*
X157614102Y-107427571D02*
G01*
X157629653Y-107429878D01*
X157644904Y-107433698D01*
X157659706Y-107438994D01*
X157673918Y-107445716D01*
X157687402Y-107453799D01*
X157700030Y-107463164D01*
X157711679Y-107473721D01*
X157722236Y-107485370D01*
X157731601Y-107497998D01*
X157739684Y-107511482D01*
X157746406Y-107525694D01*
X157751702Y-107540496D01*
X157755522Y-107555747D01*
X157757829Y-107571298D01*
X157758600Y-107587000D01*
X157758600Y-107957400D01*
X157757829Y-107973102D01*
X157755522Y-107988653D01*
X157751702Y-108003904D01*
X157746406Y-108018706D01*
X157739684Y-108032918D01*
X157731601Y-108046402D01*
X157722236Y-108059030D01*
X157711679Y-108070679D01*
X157700030Y-108081236D01*
X157687402Y-108090601D01*
X157673918Y-108098684D01*
X157659706Y-108105406D01*
X157644904Y-108110702D01*
X157629653Y-108114522D01*
X157614102Y-108116829D01*
X157598400Y-108117600D01*
X157278000Y-108117600D01*
X157262298Y-108116829D01*
X157246747Y-108114522D01*
X157231496Y-108110702D01*
X157216694Y-108105406D01*
X157202482Y-108098684D01*
X157188998Y-108090601D01*
X157176370Y-108081236D01*
X157164721Y-108070679D01*
X157154164Y-108059030D01*
X157144799Y-108046402D01*
X157136716Y-108032918D01*
X157129994Y-108018706D01*
X157124698Y-108003904D01*
X157120878Y-107988653D01*
X157118571Y-107973102D01*
X157117800Y-107957400D01*
X157117800Y-107587000D01*
X157118571Y-107571298D01*
X157120878Y-107555747D01*
X157124698Y-107540496D01*
X157129994Y-107525694D01*
X157136716Y-107511482D01*
X157144799Y-107497998D01*
X157154164Y-107485370D01*
X157164721Y-107473721D01*
X157176370Y-107463164D01*
X157188998Y-107453799D01*
X157202482Y-107445716D01*
X157216694Y-107438994D01*
X157231496Y-107433698D01*
X157246747Y-107429878D01*
X157262298Y-107427571D01*
X157278000Y-107426800D01*
X157598400Y-107426800D01*
X157614102Y-107427571D01*
X157614102Y-107427571D01*
G37*
D15*
X157438200Y-107772200D03*
D14*
G36*
X160026702Y-107427571D02*
G01*
X160042253Y-107429878D01*
X160057504Y-107433698D01*
X160072306Y-107438994D01*
X160086518Y-107445716D01*
X160100002Y-107453799D01*
X160112630Y-107463164D01*
X160124279Y-107473721D01*
X160134836Y-107485370D01*
X160144201Y-107497998D01*
X160152284Y-107511482D01*
X160159006Y-107525694D01*
X160164302Y-107540496D01*
X160168122Y-107555747D01*
X160170429Y-107571298D01*
X160171200Y-107587000D01*
X160171200Y-107957400D01*
X160170429Y-107973102D01*
X160168122Y-107988653D01*
X160164302Y-108003904D01*
X160159006Y-108018706D01*
X160152284Y-108032918D01*
X160144201Y-108046402D01*
X160134836Y-108059030D01*
X160124279Y-108070679D01*
X160112630Y-108081236D01*
X160100002Y-108090601D01*
X160086518Y-108098684D01*
X160072306Y-108105406D01*
X160057504Y-108110702D01*
X160042253Y-108114522D01*
X160026702Y-108116829D01*
X160011000Y-108117600D01*
X159690600Y-108117600D01*
X159674898Y-108116829D01*
X159659347Y-108114522D01*
X159644096Y-108110702D01*
X159629294Y-108105406D01*
X159615082Y-108098684D01*
X159601598Y-108090601D01*
X159588970Y-108081236D01*
X159577321Y-108070679D01*
X159566764Y-108059030D01*
X159557399Y-108046402D01*
X159549316Y-108032918D01*
X159542594Y-108018706D01*
X159537298Y-108003904D01*
X159533478Y-107988653D01*
X159531171Y-107973102D01*
X159530400Y-107957400D01*
X159530400Y-107587000D01*
X159531171Y-107571298D01*
X159533478Y-107555747D01*
X159537298Y-107540496D01*
X159542594Y-107525694D01*
X159549316Y-107511482D01*
X159557399Y-107497998D01*
X159566764Y-107485370D01*
X159577321Y-107473721D01*
X159588970Y-107463164D01*
X159601598Y-107453799D01*
X159615082Y-107445716D01*
X159629294Y-107438994D01*
X159644096Y-107433698D01*
X159659347Y-107429878D01*
X159674898Y-107427571D01*
X159690600Y-107426800D01*
X160011000Y-107426800D01*
X160026702Y-107427571D01*
X160026702Y-107427571D01*
G37*
D15*
X159850800Y-107772200D03*
D14*
G36*
X160996702Y-107427571D02*
G01*
X161012253Y-107429878D01*
X161027504Y-107433698D01*
X161042306Y-107438994D01*
X161056518Y-107445716D01*
X161070002Y-107453799D01*
X161082630Y-107463164D01*
X161094279Y-107473721D01*
X161104836Y-107485370D01*
X161114201Y-107497998D01*
X161122284Y-107511482D01*
X161129006Y-107525694D01*
X161134302Y-107540496D01*
X161138122Y-107555747D01*
X161140429Y-107571298D01*
X161141200Y-107587000D01*
X161141200Y-107957400D01*
X161140429Y-107973102D01*
X161138122Y-107988653D01*
X161134302Y-108003904D01*
X161129006Y-108018706D01*
X161122284Y-108032918D01*
X161114201Y-108046402D01*
X161104836Y-108059030D01*
X161094279Y-108070679D01*
X161082630Y-108081236D01*
X161070002Y-108090601D01*
X161056518Y-108098684D01*
X161042306Y-108105406D01*
X161027504Y-108110702D01*
X161012253Y-108114522D01*
X160996702Y-108116829D01*
X160981000Y-108117600D01*
X160660600Y-108117600D01*
X160644898Y-108116829D01*
X160629347Y-108114522D01*
X160614096Y-108110702D01*
X160599294Y-108105406D01*
X160585082Y-108098684D01*
X160571598Y-108090601D01*
X160558970Y-108081236D01*
X160547321Y-108070679D01*
X160536764Y-108059030D01*
X160527399Y-108046402D01*
X160519316Y-108032918D01*
X160512594Y-108018706D01*
X160507298Y-108003904D01*
X160503478Y-107988653D01*
X160501171Y-107973102D01*
X160500400Y-107957400D01*
X160500400Y-107587000D01*
X160501171Y-107571298D01*
X160503478Y-107555747D01*
X160507298Y-107540496D01*
X160512594Y-107525694D01*
X160519316Y-107511482D01*
X160527399Y-107497998D01*
X160536764Y-107485370D01*
X160547321Y-107473721D01*
X160558970Y-107463164D01*
X160571598Y-107453799D01*
X160585082Y-107445716D01*
X160599294Y-107438994D01*
X160614096Y-107433698D01*
X160629347Y-107429878D01*
X160644898Y-107427571D01*
X160660600Y-107426800D01*
X160981000Y-107426800D01*
X160996702Y-107427571D01*
X160996702Y-107427571D01*
G37*
D15*
X160820800Y-107772200D03*
D14*
G36*
X158584102Y-106475021D02*
G01*
X158599653Y-106477328D01*
X158614904Y-106481148D01*
X158629706Y-106486444D01*
X158643918Y-106493166D01*
X158657402Y-106501249D01*
X158670030Y-106510614D01*
X158681679Y-106521171D01*
X158692236Y-106532820D01*
X158701601Y-106545448D01*
X158709684Y-106558932D01*
X158716406Y-106573144D01*
X158721702Y-106587946D01*
X158725522Y-106603197D01*
X158727829Y-106618748D01*
X158728600Y-106634450D01*
X158728600Y-107004850D01*
X158727829Y-107020552D01*
X158725522Y-107036103D01*
X158721702Y-107051354D01*
X158716406Y-107066156D01*
X158709684Y-107080368D01*
X158701601Y-107093852D01*
X158692236Y-107106480D01*
X158681679Y-107118129D01*
X158670030Y-107128686D01*
X158657402Y-107138051D01*
X158643918Y-107146134D01*
X158629706Y-107152856D01*
X158614904Y-107158152D01*
X158599653Y-107161972D01*
X158584102Y-107164279D01*
X158568400Y-107165050D01*
X158248000Y-107165050D01*
X158232298Y-107164279D01*
X158216747Y-107161972D01*
X158201496Y-107158152D01*
X158186694Y-107152856D01*
X158172482Y-107146134D01*
X158158998Y-107138051D01*
X158146370Y-107128686D01*
X158134721Y-107118129D01*
X158124164Y-107106480D01*
X158114799Y-107093852D01*
X158106716Y-107080368D01*
X158099994Y-107066156D01*
X158094698Y-107051354D01*
X158090878Y-107036103D01*
X158088571Y-107020552D01*
X158087800Y-107004850D01*
X158087800Y-106634450D01*
X158088571Y-106618748D01*
X158090878Y-106603197D01*
X158094698Y-106587946D01*
X158099994Y-106573144D01*
X158106716Y-106558932D01*
X158114799Y-106545448D01*
X158124164Y-106532820D01*
X158134721Y-106521171D01*
X158146370Y-106510614D01*
X158158998Y-106501249D01*
X158172482Y-106493166D01*
X158186694Y-106486444D01*
X158201496Y-106481148D01*
X158216747Y-106477328D01*
X158232298Y-106475021D01*
X158248000Y-106474250D01*
X158568400Y-106474250D01*
X158584102Y-106475021D01*
X158584102Y-106475021D01*
G37*
D15*
X158408200Y-106819650D03*
D14*
G36*
X157614102Y-106475021D02*
G01*
X157629653Y-106477328D01*
X157644904Y-106481148D01*
X157659706Y-106486444D01*
X157673918Y-106493166D01*
X157687402Y-106501249D01*
X157700030Y-106510614D01*
X157711679Y-106521171D01*
X157722236Y-106532820D01*
X157731601Y-106545448D01*
X157739684Y-106558932D01*
X157746406Y-106573144D01*
X157751702Y-106587946D01*
X157755522Y-106603197D01*
X157757829Y-106618748D01*
X157758600Y-106634450D01*
X157758600Y-107004850D01*
X157757829Y-107020552D01*
X157755522Y-107036103D01*
X157751702Y-107051354D01*
X157746406Y-107066156D01*
X157739684Y-107080368D01*
X157731601Y-107093852D01*
X157722236Y-107106480D01*
X157711679Y-107118129D01*
X157700030Y-107128686D01*
X157687402Y-107138051D01*
X157673918Y-107146134D01*
X157659706Y-107152856D01*
X157644904Y-107158152D01*
X157629653Y-107161972D01*
X157614102Y-107164279D01*
X157598400Y-107165050D01*
X157278000Y-107165050D01*
X157262298Y-107164279D01*
X157246747Y-107161972D01*
X157231496Y-107158152D01*
X157216694Y-107152856D01*
X157202482Y-107146134D01*
X157188998Y-107138051D01*
X157176370Y-107128686D01*
X157164721Y-107118129D01*
X157154164Y-107106480D01*
X157144799Y-107093852D01*
X157136716Y-107080368D01*
X157129994Y-107066156D01*
X157124698Y-107051354D01*
X157120878Y-107036103D01*
X157118571Y-107020552D01*
X157117800Y-107004850D01*
X157117800Y-106634450D01*
X157118571Y-106618748D01*
X157120878Y-106603197D01*
X157124698Y-106587946D01*
X157129994Y-106573144D01*
X157136716Y-106558932D01*
X157144799Y-106545448D01*
X157154164Y-106532820D01*
X157164721Y-106521171D01*
X157176370Y-106510614D01*
X157188998Y-106501249D01*
X157202482Y-106493166D01*
X157216694Y-106486444D01*
X157231496Y-106481148D01*
X157246747Y-106477328D01*
X157262298Y-106475021D01*
X157278000Y-106474250D01*
X157598400Y-106474250D01*
X157614102Y-106475021D01*
X157614102Y-106475021D01*
G37*
D15*
X157438200Y-106819650D03*
D14*
G36*
X159996702Y-106475021D02*
G01*
X160012253Y-106477328D01*
X160027504Y-106481148D01*
X160042306Y-106486444D01*
X160056518Y-106493166D01*
X160070002Y-106501249D01*
X160082630Y-106510614D01*
X160094279Y-106521171D01*
X160104836Y-106532820D01*
X160114201Y-106545448D01*
X160122284Y-106558932D01*
X160129006Y-106573144D01*
X160134302Y-106587946D01*
X160138122Y-106603197D01*
X160140429Y-106618748D01*
X160141200Y-106634450D01*
X160141200Y-107004850D01*
X160140429Y-107020552D01*
X160138122Y-107036103D01*
X160134302Y-107051354D01*
X160129006Y-107066156D01*
X160122284Y-107080368D01*
X160114201Y-107093852D01*
X160104836Y-107106480D01*
X160094279Y-107118129D01*
X160082630Y-107128686D01*
X160070002Y-107138051D01*
X160056518Y-107146134D01*
X160042306Y-107152856D01*
X160027504Y-107158152D01*
X160012253Y-107161972D01*
X159996702Y-107164279D01*
X159981000Y-107165050D01*
X159660600Y-107165050D01*
X159644898Y-107164279D01*
X159629347Y-107161972D01*
X159614096Y-107158152D01*
X159599294Y-107152856D01*
X159585082Y-107146134D01*
X159571598Y-107138051D01*
X159558970Y-107128686D01*
X159547321Y-107118129D01*
X159536764Y-107106480D01*
X159527399Y-107093852D01*
X159519316Y-107080368D01*
X159512594Y-107066156D01*
X159507298Y-107051354D01*
X159503478Y-107036103D01*
X159501171Y-107020552D01*
X159500400Y-107004850D01*
X159500400Y-106634450D01*
X159501171Y-106618748D01*
X159503478Y-106603197D01*
X159507298Y-106587946D01*
X159512594Y-106573144D01*
X159519316Y-106558932D01*
X159527399Y-106545448D01*
X159536764Y-106532820D01*
X159547321Y-106521171D01*
X159558970Y-106510614D01*
X159571598Y-106501249D01*
X159585082Y-106493166D01*
X159599294Y-106486444D01*
X159614096Y-106481148D01*
X159629347Y-106477328D01*
X159644898Y-106475021D01*
X159660600Y-106474250D01*
X159981000Y-106474250D01*
X159996702Y-106475021D01*
X159996702Y-106475021D01*
G37*
D15*
X159820800Y-106819650D03*
D14*
G36*
X160966702Y-106475021D02*
G01*
X160982253Y-106477328D01*
X160997504Y-106481148D01*
X161012306Y-106486444D01*
X161026518Y-106493166D01*
X161040002Y-106501249D01*
X161052630Y-106510614D01*
X161064279Y-106521171D01*
X161074836Y-106532820D01*
X161084201Y-106545448D01*
X161092284Y-106558932D01*
X161099006Y-106573144D01*
X161104302Y-106587946D01*
X161108122Y-106603197D01*
X161110429Y-106618748D01*
X161111200Y-106634450D01*
X161111200Y-107004850D01*
X161110429Y-107020552D01*
X161108122Y-107036103D01*
X161104302Y-107051354D01*
X161099006Y-107066156D01*
X161092284Y-107080368D01*
X161084201Y-107093852D01*
X161074836Y-107106480D01*
X161064279Y-107118129D01*
X161052630Y-107128686D01*
X161040002Y-107138051D01*
X161026518Y-107146134D01*
X161012306Y-107152856D01*
X160997504Y-107158152D01*
X160982253Y-107161972D01*
X160966702Y-107164279D01*
X160951000Y-107165050D01*
X160630600Y-107165050D01*
X160614898Y-107164279D01*
X160599347Y-107161972D01*
X160584096Y-107158152D01*
X160569294Y-107152856D01*
X160555082Y-107146134D01*
X160541598Y-107138051D01*
X160528970Y-107128686D01*
X160517321Y-107118129D01*
X160506764Y-107106480D01*
X160497399Y-107093852D01*
X160489316Y-107080368D01*
X160482594Y-107066156D01*
X160477298Y-107051354D01*
X160473478Y-107036103D01*
X160471171Y-107020552D01*
X160470400Y-107004850D01*
X160470400Y-106634450D01*
X160471171Y-106618748D01*
X160473478Y-106603197D01*
X160477298Y-106587946D01*
X160482594Y-106573144D01*
X160489316Y-106558932D01*
X160497399Y-106545448D01*
X160506764Y-106532820D01*
X160517321Y-106521171D01*
X160528970Y-106510614D01*
X160541598Y-106501249D01*
X160555082Y-106493166D01*
X160569294Y-106486444D01*
X160584096Y-106481148D01*
X160599347Y-106477328D01*
X160614898Y-106475021D01*
X160630600Y-106474250D01*
X160951000Y-106474250D01*
X160966702Y-106475021D01*
X160966702Y-106475021D01*
G37*
D15*
X160790800Y-106819650D03*
D14*
G36*
X158584102Y-105522471D02*
G01*
X158599653Y-105524778D01*
X158614904Y-105528598D01*
X158629706Y-105533894D01*
X158643918Y-105540616D01*
X158657402Y-105548699D01*
X158670030Y-105558064D01*
X158681679Y-105568621D01*
X158692236Y-105580270D01*
X158701601Y-105592898D01*
X158709684Y-105606382D01*
X158716406Y-105620594D01*
X158721702Y-105635396D01*
X158725522Y-105650647D01*
X158727829Y-105666198D01*
X158728600Y-105681900D01*
X158728600Y-106052300D01*
X158727829Y-106068002D01*
X158725522Y-106083553D01*
X158721702Y-106098804D01*
X158716406Y-106113606D01*
X158709684Y-106127818D01*
X158701601Y-106141302D01*
X158692236Y-106153930D01*
X158681679Y-106165579D01*
X158670030Y-106176136D01*
X158657402Y-106185501D01*
X158643918Y-106193584D01*
X158629706Y-106200306D01*
X158614904Y-106205602D01*
X158599653Y-106209422D01*
X158584102Y-106211729D01*
X158568400Y-106212500D01*
X158248000Y-106212500D01*
X158232298Y-106211729D01*
X158216747Y-106209422D01*
X158201496Y-106205602D01*
X158186694Y-106200306D01*
X158172482Y-106193584D01*
X158158998Y-106185501D01*
X158146370Y-106176136D01*
X158134721Y-106165579D01*
X158124164Y-106153930D01*
X158114799Y-106141302D01*
X158106716Y-106127818D01*
X158099994Y-106113606D01*
X158094698Y-106098804D01*
X158090878Y-106083553D01*
X158088571Y-106068002D01*
X158087800Y-106052300D01*
X158087800Y-105681900D01*
X158088571Y-105666198D01*
X158090878Y-105650647D01*
X158094698Y-105635396D01*
X158099994Y-105620594D01*
X158106716Y-105606382D01*
X158114799Y-105592898D01*
X158124164Y-105580270D01*
X158134721Y-105568621D01*
X158146370Y-105558064D01*
X158158998Y-105548699D01*
X158172482Y-105540616D01*
X158186694Y-105533894D01*
X158201496Y-105528598D01*
X158216747Y-105524778D01*
X158232298Y-105522471D01*
X158248000Y-105521700D01*
X158568400Y-105521700D01*
X158584102Y-105522471D01*
X158584102Y-105522471D01*
G37*
D15*
X158408200Y-105867100D03*
D14*
G36*
X157614102Y-105522471D02*
G01*
X157629653Y-105524778D01*
X157644904Y-105528598D01*
X157659706Y-105533894D01*
X157673918Y-105540616D01*
X157687402Y-105548699D01*
X157700030Y-105558064D01*
X157711679Y-105568621D01*
X157722236Y-105580270D01*
X157731601Y-105592898D01*
X157739684Y-105606382D01*
X157746406Y-105620594D01*
X157751702Y-105635396D01*
X157755522Y-105650647D01*
X157757829Y-105666198D01*
X157758600Y-105681900D01*
X157758600Y-106052300D01*
X157757829Y-106068002D01*
X157755522Y-106083553D01*
X157751702Y-106098804D01*
X157746406Y-106113606D01*
X157739684Y-106127818D01*
X157731601Y-106141302D01*
X157722236Y-106153930D01*
X157711679Y-106165579D01*
X157700030Y-106176136D01*
X157687402Y-106185501D01*
X157673918Y-106193584D01*
X157659706Y-106200306D01*
X157644904Y-106205602D01*
X157629653Y-106209422D01*
X157614102Y-106211729D01*
X157598400Y-106212500D01*
X157278000Y-106212500D01*
X157262298Y-106211729D01*
X157246747Y-106209422D01*
X157231496Y-106205602D01*
X157216694Y-106200306D01*
X157202482Y-106193584D01*
X157188998Y-106185501D01*
X157176370Y-106176136D01*
X157164721Y-106165579D01*
X157154164Y-106153930D01*
X157144799Y-106141302D01*
X157136716Y-106127818D01*
X157129994Y-106113606D01*
X157124698Y-106098804D01*
X157120878Y-106083553D01*
X157118571Y-106068002D01*
X157117800Y-106052300D01*
X157117800Y-105681900D01*
X157118571Y-105666198D01*
X157120878Y-105650647D01*
X157124698Y-105635396D01*
X157129994Y-105620594D01*
X157136716Y-105606382D01*
X157144799Y-105592898D01*
X157154164Y-105580270D01*
X157164721Y-105568621D01*
X157176370Y-105558064D01*
X157188998Y-105548699D01*
X157202482Y-105540616D01*
X157216694Y-105533894D01*
X157231496Y-105528598D01*
X157246747Y-105524778D01*
X157262298Y-105522471D01*
X157278000Y-105521700D01*
X157598400Y-105521700D01*
X157614102Y-105522471D01*
X157614102Y-105522471D01*
G37*
D15*
X157438200Y-105867100D03*
D14*
G36*
X160026702Y-105522471D02*
G01*
X160042253Y-105524778D01*
X160057504Y-105528598D01*
X160072306Y-105533894D01*
X160086518Y-105540616D01*
X160100002Y-105548699D01*
X160112630Y-105558064D01*
X160124279Y-105568621D01*
X160134836Y-105580270D01*
X160144201Y-105592898D01*
X160152284Y-105606382D01*
X160159006Y-105620594D01*
X160164302Y-105635396D01*
X160168122Y-105650647D01*
X160170429Y-105666198D01*
X160171200Y-105681900D01*
X160171200Y-106052300D01*
X160170429Y-106068002D01*
X160168122Y-106083553D01*
X160164302Y-106098804D01*
X160159006Y-106113606D01*
X160152284Y-106127818D01*
X160144201Y-106141302D01*
X160134836Y-106153930D01*
X160124279Y-106165579D01*
X160112630Y-106176136D01*
X160100002Y-106185501D01*
X160086518Y-106193584D01*
X160072306Y-106200306D01*
X160057504Y-106205602D01*
X160042253Y-106209422D01*
X160026702Y-106211729D01*
X160011000Y-106212500D01*
X159690600Y-106212500D01*
X159674898Y-106211729D01*
X159659347Y-106209422D01*
X159644096Y-106205602D01*
X159629294Y-106200306D01*
X159615082Y-106193584D01*
X159601598Y-106185501D01*
X159588970Y-106176136D01*
X159577321Y-106165579D01*
X159566764Y-106153930D01*
X159557399Y-106141302D01*
X159549316Y-106127818D01*
X159542594Y-106113606D01*
X159537298Y-106098804D01*
X159533478Y-106083553D01*
X159531171Y-106068002D01*
X159530400Y-106052300D01*
X159530400Y-105681900D01*
X159531171Y-105666198D01*
X159533478Y-105650647D01*
X159537298Y-105635396D01*
X159542594Y-105620594D01*
X159549316Y-105606382D01*
X159557399Y-105592898D01*
X159566764Y-105580270D01*
X159577321Y-105568621D01*
X159588970Y-105558064D01*
X159601598Y-105548699D01*
X159615082Y-105540616D01*
X159629294Y-105533894D01*
X159644096Y-105528598D01*
X159659347Y-105524778D01*
X159674898Y-105522471D01*
X159690600Y-105521700D01*
X160011000Y-105521700D01*
X160026702Y-105522471D01*
X160026702Y-105522471D01*
G37*
D15*
X159850800Y-105867100D03*
D14*
G36*
X160996702Y-105522471D02*
G01*
X161012253Y-105524778D01*
X161027504Y-105528598D01*
X161042306Y-105533894D01*
X161056518Y-105540616D01*
X161070002Y-105548699D01*
X161082630Y-105558064D01*
X161094279Y-105568621D01*
X161104836Y-105580270D01*
X161114201Y-105592898D01*
X161122284Y-105606382D01*
X161129006Y-105620594D01*
X161134302Y-105635396D01*
X161138122Y-105650647D01*
X161140429Y-105666198D01*
X161141200Y-105681900D01*
X161141200Y-106052300D01*
X161140429Y-106068002D01*
X161138122Y-106083553D01*
X161134302Y-106098804D01*
X161129006Y-106113606D01*
X161122284Y-106127818D01*
X161114201Y-106141302D01*
X161104836Y-106153930D01*
X161094279Y-106165579D01*
X161082630Y-106176136D01*
X161070002Y-106185501D01*
X161056518Y-106193584D01*
X161042306Y-106200306D01*
X161027504Y-106205602D01*
X161012253Y-106209422D01*
X160996702Y-106211729D01*
X160981000Y-106212500D01*
X160660600Y-106212500D01*
X160644898Y-106211729D01*
X160629347Y-106209422D01*
X160614096Y-106205602D01*
X160599294Y-106200306D01*
X160585082Y-106193584D01*
X160571598Y-106185501D01*
X160558970Y-106176136D01*
X160547321Y-106165579D01*
X160536764Y-106153930D01*
X160527399Y-106141302D01*
X160519316Y-106127818D01*
X160512594Y-106113606D01*
X160507298Y-106098804D01*
X160503478Y-106083553D01*
X160501171Y-106068002D01*
X160500400Y-106052300D01*
X160500400Y-105681900D01*
X160501171Y-105666198D01*
X160503478Y-105650647D01*
X160507298Y-105635396D01*
X160512594Y-105620594D01*
X160519316Y-105606382D01*
X160527399Y-105592898D01*
X160536764Y-105580270D01*
X160547321Y-105568621D01*
X160558970Y-105558064D01*
X160571598Y-105548699D01*
X160585082Y-105540616D01*
X160599294Y-105533894D01*
X160614096Y-105528598D01*
X160629347Y-105524778D01*
X160644898Y-105522471D01*
X160660600Y-105521700D01*
X160981000Y-105521700D01*
X160996702Y-105522471D01*
X160996702Y-105522471D01*
G37*
D15*
X160820800Y-105867100D03*
D14*
G36*
X158584102Y-104569921D02*
G01*
X158599653Y-104572228D01*
X158614904Y-104576048D01*
X158629706Y-104581344D01*
X158643918Y-104588066D01*
X158657402Y-104596149D01*
X158670030Y-104605514D01*
X158681679Y-104616071D01*
X158692236Y-104627720D01*
X158701601Y-104640348D01*
X158709684Y-104653832D01*
X158716406Y-104668044D01*
X158721702Y-104682846D01*
X158725522Y-104698097D01*
X158727829Y-104713648D01*
X158728600Y-104729350D01*
X158728600Y-105099750D01*
X158727829Y-105115452D01*
X158725522Y-105131003D01*
X158721702Y-105146254D01*
X158716406Y-105161056D01*
X158709684Y-105175268D01*
X158701601Y-105188752D01*
X158692236Y-105201380D01*
X158681679Y-105213029D01*
X158670030Y-105223586D01*
X158657402Y-105232951D01*
X158643918Y-105241034D01*
X158629706Y-105247756D01*
X158614904Y-105253052D01*
X158599653Y-105256872D01*
X158584102Y-105259179D01*
X158568400Y-105259950D01*
X158248000Y-105259950D01*
X158232298Y-105259179D01*
X158216747Y-105256872D01*
X158201496Y-105253052D01*
X158186694Y-105247756D01*
X158172482Y-105241034D01*
X158158998Y-105232951D01*
X158146370Y-105223586D01*
X158134721Y-105213029D01*
X158124164Y-105201380D01*
X158114799Y-105188752D01*
X158106716Y-105175268D01*
X158099994Y-105161056D01*
X158094698Y-105146254D01*
X158090878Y-105131003D01*
X158088571Y-105115452D01*
X158087800Y-105099750D01*
X158087800Y-104729350D01*
X158088571Y-104713648D01*
X158090878Y-104698097D01*
X158094698Y-104682846D01*
X158099994Y-104668044D01*
X158106716Y-104653832D01*
X158114799Y-104640348D01*
X158124164Y-104627720D01*
X158134721Y-104616071D01*
X158146370Y-104605514D01*
X158158998Y-104596149D01*
X158172482Y-104588066D01*
X158186694Y-104581344D01*
X158201496Y-104576048D01*
X158216747Y-104572228D01*
X158232298Y-104569921D01*
X158248000Y-104569150D01*
X158568400Y-104569150D01*
X158584102Y-104569921D01*
X158584102Y-104569921D01*
G37*
D15*
X158408200Y-104914550D03*
D14*
G36*
X157614102Y-104569921D02*
G01*
X157629653Y-104572228D01*
X157644904Y-104576048D01*
X157659706Y-104581344D01*
X157673918Y-104588066D01*
X157687402Y-104596149D01*
X157700030Y-104605514D01*
X157711679Y-104616071D01*
X157722236Y-104627720D01*
X157731601Y-104640348D01*
X157739684Y-104653832D01*
X157746406Y-104668044D01*
X157751702Y-104682846D01*
X157755522Y-104698097D01*
X157757829Y-104713648D01*
X157758600Y-104729350D01*
X157758600Y-105099750D01*
X157757829Y-105115452D01*
X157755522Y-105131003D01*
X157751702Y-105146254D01*
X157746406Y-105161056D01*
X157739684Y-105175268D01*
X157731601Y-105188752D01*
X157722236Y-105201380D01*
X157711679Y-105213029D01*
X157700030Y-105223586D01*
X157687402Y-105232951D01*
X157673918Y-105241034D01*
X157659706Y-105247756D01*
X157644904Y-105253052D01*
X157629653Y-105256872D01*
X157614102Y-105259179D01*
X157598400Y-105259950D01*
X157278000Y-105259950D01*
X157262298Y-105259179D01*
X157246747Y-105256872D01*
X157231496Y-105253052D01*
X157216694Y-105247756D01*
X157202482Y-105241034D01*
X157188998Y-105232951D01*
X157176370Y-105223586D01*
X157164721Y-105213029D01*
X157154164Y-105201380D01*
X157144799Y-105188752D01*
X157136716Y-105175268D01*
X157129994Y-105161056D01*
X157124698Y-105146254D01*
X157120878Y-105131003D01*
X157118571Y-105115452D01*
X157117800Y-105099750D01*
X157117800Y-104729350D01*
X157118571Y-104713648D01*
X157120878Y-104698097D01*
X157124698Y-104682846D01*
X157129994Y-104668044D01*
X157136716Y-104653832D01*
X157144799Y-104640348D01*
X157154164Y-104627720D01*
X157164721Y-104616071D01*
X157176370Y-104605514D01*
X157188998Y-104596149D01*
X157202482Y-104588066D01*
X157216694Y-104581344D01*
X157231496Y-104576048D01*
X157246747Y-104572228D01*
X157262298Y-104569921D01*
X157278000Y-104569150D01*
X157598400Y-104569150D01*
X157614102Y-104569921D01*
X157614102Y-104569921D01*
G37*
D15*
X157438200Y-104914550D03*
D14*
G36*
X160026702Y-104569921D02*
G01*
X160042253Y-104572228D01*
X160057504Y-104576048D01*
X160072306Y-104581344D01*
X160086518Y-104588066D01*
X160100002Y-104596149D01*
X160112630Y-104605514D01*
X160124279Y-104616071D01*
X160134836Y-104627720D01*
X160144201Y-104640348D01*
X160152284Y-104653832D01*
X160159006Y-104668044D01*
X160164302Y-104682846D01*
X160168122Y-104698097D01*
X160170429Y-104713648D01*
X160171200Y-104729350D01*
X160171200Y-105099750D01*
X160170429Y-105115452D01*
X160168122Y-105131003D01*
X160164302Y-105146254D01*
X160159006Y-105161056D01*
X160152284Y-105175268D01*
X160144201Y-105188752D01*
X160134836Y-105201380D01*
X160124279Y-105213029D01*
X160112630Y-105223586D01*
X160100002Y-105232951D01*
X160086518Y-105241034D01*
X160072306Y-105247756D01*
X160057504Y-105253052D01*
X160042253Y-105256872D01*
X160026702Y-105259179D01*
X160011000Y-105259950D01*
X159690600Y-105259950D01*
X159674898Y-105259179D01*
X159659347Y-105256872D01*
X159644096Y-105253052D01*
X159629294Y-105247756D01*
X159615082Y-105241034D01*
X159601598Y-105232951D01*
X159588970Y-105223586D01*
X159577321Y-105213029D01*
X159566764Y-105201380D01*
X159557399Y-105188752D01*
X159549316Y-105175268D01*
X159542594Y-105161056D01*
X159537298Y-105146254D01*
X159533478Y-105131003D01*
X159531171Y-105115452D01*
X159530400Y-105099750D01*
X159530400Y-104729350D01*
X159531171Y-104713648D01*
X159533478Y-104698097D01*
X159537298Y-104682846D01*
X159542594Y-104668044D01*
X159549316Y-104653832D01*
X159557399Y-104640348D01*
X159566764Y-104627720D01*
X159577321Y-104616071D01*
X159588970Y-104605514D01*
X159601598Y-104596149D01*
X159615082Y-104588066D01*
X159629294Y-104581344D01*
X159644096Y-104576048D01*
X159659347Y-104572228D01*
X159674898Y-104569921D01*
X159690600Y-104569150D01*
X160011000Y-104569150D01*
X160026702Y-104569921D01*
X160026702Y-104569921D01*
G37*
D15*
X159850800Y-104914550D03*
D14*
G36*
X160996702Y-104569921D02*
G01*
X161012253Y-104572228D01*
X161027504Y-104576048D01*
X161042306Y-104581344D01*
X161056518Y-104588066D01*
X161070002Y-104596149D01*
X161082630Y-104605514D01*
X161094279Y-104616071D01*
X161104836Y-104627720D01*
X161114201Y-104640348D01*
X161122284Y-104653832D01*
X161129006Y-104668044D01*
X161134302Y-104682846D01*
X161138122Y-104698097D01*
X161140429Y-104713648D01*
X161141200Y-104729350D01*
X161141200Y-105099750D01*
X161140429Y-105115452D01*
X161138122Y-105131003D01*
X161134302Y-105146254D01*
X161129006Y-105161056D01*
X161122284Y-105175268D01*
X161114201Y-105188752D01*
X161104836Y-105201380D01*
X161094279Y-105213029D01*
X161082630Y-105223586D01*
X161070002Y-105232951D01*
X161056518Y-105241034D01*
X161042306Y-105247756D01*
X161027504Y-105253052D01*
X161012253Y-105256872D01*
X160996702Y-105259179D01*
X160981000Y-105259950D01*
X160660600Y-105259950D01*
X160644898Y-105259179D01*
X160629347Y-105256872D01*
X160614096Y-105253052D01*
X160599294Y-105247756D01*
X160585082Y-105241034D01*
X160571598Y-105232951D01*
X160558970Y-105223586D01*
X160547321Y-105213029D01*
X160536764Y-105201380D01*
X160527399Y-105188752D01*
X160519316Y-105175268D01*
X160512594Y-105161056D01*
X160507298Y-105146254D01*
X160503478Y-105131003D01*
X160501171Y-105115452D01*
X160500400Y-105099750D01*
X160500400Y-104729350D01*
X160501171Y-104713648D01*
X160503478Y-104698097D01*
X160507298Y-104682846D01*
X160512594Y-104668044D01*
X160519316Y-104653832D01*
X160527399Y-104640348D01*
X160536764Y-104627720D01*
X160547321Y-104616071D01*
X160558970Y-104605514D01*
X160571598Y-104596149D01*
X160585082Y-104588066D01*
X160599294Y-104581344D01*
X160614096Y-104576048D01*
X160629347Y-104572228D01*
X160644898Y-104569921D01*
X160660600Y-104569150D01*
X160981000Y-104569150D01*
X160996702Y-104569921D01*
X160996702Y-104569921D01*
G37*
D15*
X160820800Y-104914550D03*
D14*
G36*
X157614102Y-103617371D02*
G01*
X157629653Y-103619678D01*
X157644904Y-103623498D01*
X157659706Y-103628794D01*
X157673918Y-103635516D01*
X157687402Y-103643599D01*
X157700030Y-103652964D01*
X157711679Y-103663521D01*
X157722236Y-103675170D01*
X157731601Y-103687798D01*
X157739684Y-103701282D01*
X157746406Y-103715494D01*
X157751702Y-103730296D01*
X157755522Y-103745547D01*
X157757829Y-103761098D01*
X157758600Y-103776800D01*
X157758600Y-104147200D01*
X157757829Y-104162902D01*
X157755522Y-104178453D01*
X157751702Y-104193704D01*
X157746406Y-104208506D01*
X157739684Y-104222718D01*
X157731601Y-104236202D01*
X157722236Y-104248830D01*
X157711679Y-104260479D01*
X157700030Y-104271036D01*
X157687402Y-104280401D01*
X157673918Y-104288484D01*
X157659706Y-104295206D01*
X157644904Y-104300502D01*
X157629653Y-104304322D01*
X157614102Y-104306629D01*
X157598400Y-104307400D01*
X157278000Y-104307400D01*
X157262298Y-104306629D01*
X157246747Y-104304322D01*
X157231496Y-104300502D01*
X157216694Y-104295206D01*
X157202482Y-104288484D01*
X157188998Y-104280401D01*
X157176370Y-104271036D01*
X157164721Y-104260479D01*
X157154164Y-104248830D01*
X157144799Y-104236202D01*
X157136716Y-104222718D01*
X157129994Y-104208506D01*
X157124698Y-104193704D01*
X157120878Y-104178453D01*
X157118571Y-104162902D01*
X157117800Y-104147200D01*
X157117800Y-103776800D01*
X157118571Y-103761098D01*
X157120878Y-103745547D01*
X157124698Y-103730296D01*
X157129994Y-103715494D01*
X157136716Y-103701282D01*
X157144799Y-103687798D01*
X157154164Y-103675170D01*
X157164721Y-103663521D01*
X157176370Y-103652964D01*
X157188998Y-103643599D01*
X157202482Y-103635516D01*
X157216694Y-103628794D01*
X157231496Y-103623498D01*
X157246747Y-103619678D01*
X157262298Y-103617371D01*
X157278000Y-103616600D01*
X157598400Y-103616600D01*
X157614102Y-103617371D01*
X157614102Y-103617371D01*
G37*
D15*
X157438200Y-103962000D03*
D14*
G36*
X158584102Y-103617371D02*
G01*
X158599653Y-103619678D01*
X158614904Y-103623498D01*
X158629706Y-103628794D01*
X158643918Y-103635516D01*
X158657402Y-103643599D01*
X158670030Y-103652964D01*
X158681679Y-103663521D01*
X158692236Y-103675170D01*
X158701601Y-103687798D01*
X158709684Y-103701282D01*
X158716406Y-103715494D01*
X158721702Y-103730296D01*
X158725522Y-103745547D01*
X158727829Y-103761098D01*
X158728600Y-103776800D01*
X158728600Y-104147200D01*
X158727829Y-104162902D01*
X158725522Y-104178453D01*
X158721702Y-104193704D01*
X158716406Y-104208506D01*
X158709684Y-104222718D01*
X158701601Y-104236202D01*
X158692236Y-104248830D01*
X158681679Y-104260479D01*
X158670030Y-104271036D01*
X158657402Y-104280401D01*
X158643918Y-104288484D01*
X158629706Y-104295206D01*
X158614904Y-104300502D01*
X158599653Y-104304322D01*
X158584102Y-104306629D01*
X158568400Y-104307400D01*
X158248000Y-104307400D01*
X158232298Y-104306629D01*
X158216747Y-104304322D01*
X158201496Y-104300502D01*
X158186694Y-104295206D01*
X158172482Y-104288484D01*
X158158998Y-104280401D01*
X158146370Y-104271036D01*
X158134721Y-104260479D01*
X158124164Y-104248830D01*
X158114799Y-104236202D01*
X158106716Y-104222718D01*
X158099994Y-104208506D01*
X158094698Y-104193704D01*
X158090878Y-104178453D01*
X158088571Y-104162902D01*
X158087800Y-104147200D01*
X158087800Y-103776800D01*
X158088571Y-103761098D01*
X158090878Y-103745547D01*
X158094698Y-103730296D01*
X158099994Y-103715494D01*
X158106716Y-103701282D01*
X158114799Y-103687798D01*
X158124164Y-103675170D01*
X158134721Y-103663521D01*
X158146370Y-103652964D01*
X158158998Y-103643599D01*
X158172482Y-103635516D01*
X158186694Y-103628794D01*
X158201496Y-103623498D01*
X158216747Y-103619678D01*
X158232298Y-103617371D01*
X158248000Y-103616600D01*
X158568400Y-103616600D01*
X158584102Y-103617371D01*
X158584102Y-103617371D01*
G37*
D15*
X158408200Y-103962000D03*
D14*
G36*
X160026702Y-103617371D02*
G01*
X160042253Y-103619678D01*
X160057504Y-103623498D01*
X160072306Y-103628794D01*
X160086518Y-103635516D01*
X160100002Y-103643599D01*
X160112630Y-103652964D01*
X160124279Y-103663521D01*
X160134836Y-103675170D01*
X160144201Y-103687798D01*
X160152284Y-103701282D01*
X160159006Y-103715494D01*
X160164302Y-103730296D01*
X160168122Y-103745547D01*
X160170429Y-103761098D01*
X160171200Y-103776800D01*
X160171200Y-104147200D01*
X160170429Y-104162902D01*
X160168122Y-104178453D01*
X160164302Y-104193704D01*
X160159006Y-104208506D01*
X160152284Y-104222718D01*
X160144201Y-104236202D01*
X160134836Y-104248830D01*
X160124279Y-104260479D01*
X160112630Y-104271036D01*
X160100002Y-104280401D01*
X160086518Y-104288484D01*
X160072306Y-104295206D01*
X160057504Y-104300502D01*
X160042253Y-104304322D01*
X160026702Y-104306629D01*
X160011000Y-104307400D01*
X159690600Y-104307400D01*
X159674898Y-104306629D01*
X159659347Y-104304322D01*
X159644096Y-104300502D01*
X159629294Y-104295206D01*
X159615082Y-104288484D01*
X159601598Y-104280401D01*
X159588970Y-104271036D01*
X159577321Y-104260479D01*
X159566764Y-104248830D01*
X159557399Y-104236202D01*
X159549316Y-104222718D01*
X159542594Y-104208506D01*
X159537298Y-104193704D01*
X159533478Y-104178453D01*
X159531171Y-104162902D01*
X159530400Y-104147200D01*
X159530400Y-103776800D01*
X159531171Y-103761098D01*
X159533478Y-103745547D01*
X159537298Y-103730296D01*
X159542594Y-103715494D01*
X159549316Y-103701282D01*
X159557399Y-103687798D01*
X159566764Y-103675170D01*
X159577321Y-103663521D01*
X159588970Y-103652964D01*
X159601598Y-103643599D01*
X159615082Y-103635516D01*
X159629294Y-103628794D01*
X159644096Y-103623498D01*
X159659347Y-103619678D01*
X159674898Y-103617371D01*
X159690600Y-103616600D01*
X160011000Y-103616600D01*
X160026702Y-103617371D01*
X160026702Y-103617371D01*
G37*
D15*
X159850800Y-103962000D03*
D14*
G36*
X160996702Y-103617371D02*
G01*
X161012253Y-103619678D01*
X161027504Y-103623498D01*
X161042306Y-103628794D01*
X161056518Y-103635516D01*
X161070002Y-103643599D01*
X161082630Y-103652964D01*
X161094279Y-103663521D01*
X161104836Y-103675170D01*
X161114201Y-103687798D01*
X161122284Y-103701282D01*
X161129006Y-103715494D01*
X161134302Y-103730296D01*
X161138122Y-103745547D01*
X161140429Y-103761098D01*
X161141200Y-103776800D01*
X161141200Y-104147200D01*
X161140429Y-104162902D01*
X161138122Y-104178453D01*
X161134302Y-104193704D01*
X161129006Y-104208506D01*
X161122284Y-104222718D01*
X161114201Y-104236202D01*
X161104836Y-104248830D01*
X161094279Y-104260479D01*
X161082630Y-104271036D01*
X161070002Y-104280401D01*
X161056518Y-104288484D01*
X161042306Y-104295206D01*
X161027504Y-104300502D01*
X161012253Y-104304322D01*
X160996702Y-104306629D01*
X160981000Y-104307400D01*
X160660600Y-104307400D01*
X160644898Y-104306629D01*
X160629347Y-104304322D01*
X160614096Y-104300502D01*
X160599294Y-104295206D01*
X160585082Y-104288484D01*
X160571598Y-104280401D01*
X160558970Y-104271036D01*
X160547321Y-104260479D01*
X160536764Y-104248830D01*
X160527399Y-104236202D01*
X160519316Y-104222718D01*
X160512594Y-104208506D01*
X160507298Y-104193704D01*
X160503478Y-104178453D01*
X160501171Y-104162902D01*
X160500400Y-104147200D01*
X160500400Y-103776800D01*
X160501171Y-103761098D01*
X160503478Y-103745547D01*
X160507298Y-103730296D01*
X160512594Y-103715494D01*
X160519316Y-103701282D01*
X160527399Y-103687798D01*
X160536764Y-103675170D01*
X160547321Y-103663521D01*
X160558970Y-103652964D01*
X160571598Y-103643599D01*
X160585082Y-103635516D01*
X160599294Y-103628794D01*
X160614096Y-103623498D01*
X160629347Y-103619678D01*
X160644898Y-103617371D01*
X160660600Y-103616600D01*
X160981000Y-103616600D01*
X160996702Y-103617371D01*
X160996702Y-103617371D01*
G37*
D15*
X160820800Y-103962000D03*
D31*
X154297056Y-107302944D03*
X152600000Y-106600000D03*
X150902944Y-107302944D03*
X150200000Y-109000000D03*
X150902944Y-110697056D03*
X152600000Y-111400000D03*
X154297056Y-110697056D03*
X155000000Y-109000000D03*
D32*
X152600000Y-109000000D03*
D31*
X181097056Y-107302944D03*
X179400000Y-106600000D03*
X177702944Y-107302944D03*
X177000000Y-109000000D03*
X177702944Y-110697056D03*
X179400000Y-111400000D03*
X181097056Y-110697056D03*
X181800000Y-109000000D03*
D32*
X179400000Y-109000000D03*
D14*
G36*
X170935162Y-102210411D02*
G01*
X170950713Y-102212718D01*
X170965964Y-102216538D01*
X170980766Y-102221834D01*
X170994978Y-102228556D01*
X171008462Y-102236639D01*
X171021090Y-102246004D01*
X171032739Y-102256561D01*
X171043296Y-102268210D01*
X171052661Y-102280838D01*
X171060744Y-102294322D01*
X171067466Y-102308534D01*
X171072762Y-102323336D01*
X171076582Y-102338587D01*
X171078889Y-102354138D01*
X171079660Y-102369840D01*
X171079660Y-102740240D01*
X171078889Y-102755942D01*
X171076582Y-102771493D01*
X171072762Y-102786744D01*
X171067466Y-102801546D01*
X171060744Y-102815758D01*
X171052661Y-102829242D01*
X171043296Y-102841870D01*
X171032739Y-102853519D01*
X171021090Y-102864076D01*
X171008462Y-102873441D01*
X170994978Y-102881524D01*
X170980766Y-102888246D01*
X170965964Y-102893542D01*
X170950713Y-102897362D01*
X170935162Y-102899669D01*
X170919460Y-102900440D01*
X170599060Y-102900440D01*
X170583358Y-102899669D01*
X170567807Y-102897362D01*
X170552556Y-102893542D01*
X170537754Y-102888246D01*
X170523542Y-102881524D01*
X170510058Y-102873441D01*
X170497430Y-102864076D01*
X170485781Y-102853519D01*
X170475224Y-102841870D01*
X170465859Y-102829242D01*
X170457776Y-102815758D01*
X170451054Y-102801546D01*
X170445758Y-102786744D01*
X170441938Y-102771493D01*
X170439631Y-102755942D01*
X170438860Y-102740240D01*
X170438860Y-102369840D01*
X170439631Y-102354138D01*
X170441938Y-102338587D01*
X170445758Y-102323336D01*
X170451054Y-102308534D01*
X170457776Y-102294322D01*
X170465859Y-102280838D01*
X170475224Y-102268210D01*
X170485781Y-102256561D01*
X170497430Y-102246004D01*
X170510058Y-102236639D01*
X170523542Y-102228556D01*
X170537754Y-102221834D01*
X170552556Y-102216538D01*
X170567807Y-102212718D01*
X170583358Y-102210411D01*
X170599060Y-102209640D01*
X170919460Y-102209640D01*
X170935162Y-102210411D01*
X170935162Y-102210411D01*
G37*
D15*
X170759260Y-102555040D03*
D14*
G36*
X171905162Y-102210411D02*
G01*
X171920713Y-102212718D01*
X171935964Y-102216538D01*
X171950766Y-102221834D01*
X171964978Y-102228556D01*
X171978462Y-102236639D01*
X171991090Y-102246004D01*
X172002739Y-102256561D01*
X172013296Y-102268210D01*
X172022661Y-102280838D01*
X172030744Y-102294322D01*
X172037466Y-102308534D01*
X172042762Y-102323336D01*
X172046582Y-102338587D01*
X172048889Y-102354138D01*
X172049660Y-102369840D01*
X172049660Y-102740240D01*
X172048889Y-102755942D01*
X172046582Y-102771493D01*
X172042762Y-102786744D01*
X172037466Y-102801546D01*
X172030744Y-102815758D01*
X172022661Y-102829242D01*
X172013296Y-102841870D01*
X172002739Y-102853519D01*
X171991090Y-102864076D01*
X171978462Y-102873441D01*
X171964978Y-102881524D01*
X171950766Y-102888246D01*
X171935964Y-102893542D01*
X171920713Y-102897362D01*
X171905162Y-102899669D01*
X171889460Y-102900440D01*
X171569060Y-102900440D01*
X171553358Y-102899669D01*
X171537807Y-102897362D01*
X171522556Y-102893542D01*
X171507754Y-102888246D01*
X171493542Y-102881524D01*
X171480058Y-102873441D01*
X171467430Y-102864076D01*
X171455781Y-102853519D01*
X171445224Y-102841870D01*
X171435859Y-102829242D01*
X171427776Y-102815758D01*
X171421054Y-102801546D01*
X171415758Y-102786744D01*
X171411938Y-102771493D01*
X171409631Y-102755942D01*
X171408860Y-102740240D01*
X171408860Y-102369840D01*
X171409631Y-102354138D01*
X171411938Y-102338587D01*
X171415758Y-102323336D01*
X171421054Y-102308534D01*
X171427776Y-102294322D01*
X171435859Y-102280838D01*
X171445224Y-102268210D01*
X171455781Y-102256561D01*
X171467430Y-102246004D01*
X171480058Y-102236639D01*
X171493542Y-102228556D01*
X171507754Y-102221834D01*
X171522556Y-102216538D01*
X171537807Y-102212718D01*
X171553358Y-102210411D01*
X171569060Y-102209640D01*
X171889460Y-102209640D01*
X171905162Y-102210411D01*
X171905162Y-102210411D01*
G37*
D15*
X171729260Y-102555040D03*
D14*
G36*
X168000922Y-105735391D02*
G01*
X168016473Y-105737698D01*
X168031724Y-105741518D01*
X168046526Y-105746814D01*
X168060738Y-105753536D01*
X168074222Y-105761619D01*
X168086850Y-105770984D01*
X168098499Y-105781541D01*
X168109056Y-105793190D01*
X168118421Y-105805818D01*
X168126504Y-105819302D01*
X168133226Y-105833514D01*
X168138522Y-105848316D01*
X168142342Y-105863567D01*
X168144649Y-105879118D01*
X168145420Y-105894820D01*
X168145420Y-106215220D01*
X168144649Y-106230922D01*
X168142342Y-106246473D01*
X168138522Y-106261724D01*
X168133226Y-106276526D01*
X168126504Y-106290738D01*
X168118421Y-106304222D01*
X168109056Y-106316850D01*
X168098499Y-106328499D01*
X168086850Y-106339056D01*
X168074222Y-106348421D01*
X168060738Y-106356504D01*
X168046526Y-106363226D01*
X168031724Y-106368522D01*
X168016473Y-106372342D01*
X168000922Y-106374649D01*
X167985220Y-106375420D01*
X167614820Y-106375420D01*
X167599118Y-106374649D01*
X167583567Y-106372342D01*
X167568316Y-106368522D01*
X167553514Y-106363226D01*
X167539302Y-106356504D01*
X167525818Y-106348421D01*
X167513190Y-106339056D01*
X167501541Y-106328499D01*
X167490984Y-106316850D01*
X167481619Y-106304222D01*
X167473536Y-106290738D01*
X167466814Y-106276526D01*
X167461518Y-106261724D01*
X167457698Y-106246473D01*
X167455391Y-106230922D01*
X167454620Y-106215220D01*
X167454620Y-105894820D01*
X167455391Y-105879118D01*
X167457698Y-105863567D01*
X167461518Y-105848316D01*
X167466814Y-105833514D01*
X167473536Y-105819302D01*
X167481619Y-105805818D01*
X167490984Y-105793190D01*
X167501541Y-105781541D01*
X167513190Y-105770984D01*
X167525818Y-105761619D01*
X167539302Y-105753536D01*
X167553514Y-105746814D01*
X167568316Y-105741518D01*
X167583567Y-105737698D01*
X167599118Y-105735391D01*
X167614820Y-105734620D01*
X167985220Y-105734620D01*
X168000922Y-105735391D01*
X168000922Y-105735391D01*
G37*
D15*
X167800020Y-106055020D03*
D14*
G36*
X168000922Y-104765391D02*
G01*
X168016473Y-104767698D01*
X168031724Y-104771518D01*
X168046526Y-104776814D01*
X168060738Y-104783536D01*
X168074222Y-104791619D01*
X168086850Y-104800984D01*
X168098499Y-104811541D01*
X168109056Y-104823190D01*
X168118421Y-104835818D01*
X168126504Y-104849302D01*
X168133226Y-104863514D01*
X168138522Y-104878316D01*
X168142342Y-104893567D01*
X168144649Y-104909118D01*
X168145420Y-104924820D01*
X168145420Y-105245220D01*
X168144649Y-105260922D01*
X168142342Y-105276473D01*
X168138522Y-105291724D01*
X168133226Y-105306526D01*
X168126504Y-105320738D01*
X168118421Y-105334222D01*
X168109056Y-105346850D01*
X168098499Y-105358499D01*
X168086850Y-105369056D01*
X168074222Y-105378421D01*
X168060738Y-105386504D01*
X168046526Y-105393226D01*
X168031724Y-105398522D01*
X168016473Y-105402342D01*
X168000922Y-105404649D01*
X167985220Y-105405420D01*
X167614820Y-105405420D01*
X167599118Y-105404649D01*
X167583567Y-105402342D01*
X167568316Y-105398522D01*
X167553514Y-105393226D01*
X167539302Y-105386504D01*
X167525818Y-105378421D01*
X167513190Y-105369056D01*
X167501541Y-105358499D01*
X167490984Y-105346850D01*
X167481619Y-105334222D01*
X167473536Y-105320738D01*
X167466814Y-105306526D01*
X167461518Y-105291724D01*
X167457698Y-105276473D01*
X167455391Y-105260922D01*
X167454620Y-105245220D01*
X167454620Y-104924820D01*
X167455391Y-104909118D01*
X167457698Y-104893567D01*
X167461518Y-104878316D01*
X167466814Y-104863514D01*
X167473536Y-104849302D01*
X167481619Y-104835818D01*
X167490984Y-104823190D01*
X167501541Y-104811541D01*
X167513190Y-104800984D01*
X167525818Y-104791619D01*
X167539302Y-104783536D01*
X167553514Y-104776814D01*
X167568316Y-104771518D01*
X167583567Y-104767698D01*
X167599118Y-104765391D01*
X167614820Y-104764620D01*
X167985220Y-104764620D01*
X168000922Y-104765391D01*
X168000922Y-104765391D01*
G37*
D15*
X167800020Y-105085020D03*
D14*
G36*
X168003462Y-103784671D02*
G01*
X168019013Y-103786978D01*
X168034264Y-103790798D01*
X168049066Y-103796094D01*
X168063278Y-103802816D01*
X168076762Y-103810899D01*
X168089390Y-103820264D01*
X168101039Y-103830821D01*
X168111596Y-103842470D01*
X168120961Y-103855098D01*
X168129044Y-103868582D01*
X168135766Y-103882794D01*
X168141062Y-103897596D01*
X168144882Y-103912847D01*
X168147189Y-103928398D01*
X168147960Y-103944100D01*
X168147960Y-104264500D01*
X168147189Y-104280202D01*
X168144882Y-104295753D01*
X168141062Y-104311004D01*
X168135766Y-104325806D01*
X168129044Y-104340018D01*
X168120961Y-104353502D01*
X168111596Y-104366130D01*
X168101039Y-104377779D01*
X168089390Y-104388336D01*
X168076762Y-104397701D01*
X168063278Y-104405784D01*
X168049066Y-104412506D01*
X168034264Y-104417802D01*
X168019013Y-104421622D01*
X168003462Y-104423929D01*
X167987760Y-104424700D01*
X167617360Y-104424700D01*
X167601658Y-104423929D01*
X167586107Y-104421622D01*
X167570856Y-104417802D01*
X167556054Y-104412506D01*
X167541842Y-104405784D01*
X167528358Y-104397701D01*
X167515730Y-104388336D01*
X167504081Y-104377779D01*
X167493524Y-104366130D01*
X167484159Y-104353502D01*
X167476076Y-104340018D01*
X167469354Y-104325806D01*
X167464058Y-104311004D01*
X167460238Y-104295753D01*
X167457931Y-104280202D01*
X167457160Y-104264500D01*
X167457160Y-103944100D01*
X167457931Y-103928398D01*
X167460238Y-103912847D01*
X167464058Y-103897596D01*
X167469354Y-103882794D01*
X167476076Y-103868582D01*
X167484159Y-103855098D01*
X167493524Y-103842470D01*
X167504081Y-103830821D01*
X167515730Y-103820264D01*
X167528358Y-103810899D01*
X167541842Y-103802816D01*
X167556054Y-103796094D01*
X167570856Y-103790798D01*
X167586107Y-103786978D01*
X167601658Y-103784671D01*
X167617360Y-103783900D01*
X167987760Y-103783900D01*
X168003462Y-103784671D01*
X168003462Y-103784671D01*
G37*
D15*
X167802560Y-104104300D03*
D14*
G36*
X168003462Y-102814671D02*
G01*
X168019013Y-102816978D01*
X168034264Y-102820798D01*
X168049066Y-102826094D01*
X168063278Y-102832816D01*
X168076762Y-102840899D01*
X168089390Y-102850264D01*
X168101039Y-102860821D01*
X168111596Y-102872470D01*
X168120961Y-102885098D01*
X168129044Y-102898582D01*
X168135766Y-102912794D01*
X168141062Y-102927596D01*
X168144882Y-102942847D01*
X168147189Y-102958398D01*
X168147960Y-102974100D01*
X168147960Y-103294500D01*
X168147189Y-103310202D01*
X168144882Y-103325753D01*
X168141062Y-103341004D01*
X168135766Y-103355806D01*
X168129044Y-103370018D01*
X168120961Y-103383502D01*
X168111596Y-103396130D01*
X168101039Y-103407779D01*
X168089390Y-103418336D01*
X168076762Y-103427701D01*
X168063278Y-103435784D01*
X168049066Y-103442506D01*
X168034264Y-103447802D01*
X168019013Y-103451622D01*
X168003462Y-103453929D01*
X167987760Y-103454700D01*
X167617360Y-103454700D01*
X167601658Y-103453929D01*
X167586107Y-103451622D01*
X167570856Y-103447802D01*
X167556054Y-103442506D01*
X167541842Y-103435784D01*
X167528358Y-103427701D01*
X167515730Y-103418336D01*
X167504081Y-103407779D01*
X167493524Y-103396130D01*
X167484159Y-103383502D01*
X167476076Y-103370018D01*
X167469354Y-103355806D01*
X167464058Y-103341004D01*
X167460238Y-103325753D01*
X167457931Y-103310202D01*
X167457160Y-103294500D01*
X167457160Y-102974100D01*
X167457931Y-102958398D01*
X167460238Y-102942847D01*
X167464058Y-102927596D01*
X167469354Y-102912794D01*
X167476076Y-102898582D01*
X167484159Y-102885098D01*
X167493524Y-102872470D01*
X167504081Y-102860821D01*
X167515730Y-102850264D01*
X167528358Y-102840899D01*
X167541842Y-102832816D01*
X167556054Y-102826094D01*
X167570856Y-102820798D01*
X167586107Y-102816978D01*
X167601658Y-102814671D01*
X167617360Y-102813900D01*
X167987760Y-102813900D01*
X168003462Y-102814671D01*
X168003462Y-102814671D01*
G37*
D15*
X167802560Y-103134300D03*
D14*
G36*
X159138862Y-111465631D02*
G01*
X159154413Y-111467938D01*
X159169664Y-111471758D01*
X159184466Y-111477054D01*
X159198678Y-111483776D01*
X159212162Y-111491859D01*
X159224790Y-111501224D01*
X159236439Y-111511781D01*
X159246996Y-111523430D01*
X159256361Y-111536058D01*
X159264444Y-111549542D01*
X159271166Y-111563754D01*
X159276462Y-111578556D01*
X159280282Y-111593807D01*
X159282589Y-111609358D01*
X159283360Y-111625060D01*
X159283360Y-111945460D01*
X159282589Y-111961162D01*
X159280282Y-111976713D01*
X159276462Y-111991964D01*
X159271166Y-112006766D01*
X159264444Y-112020978D01*
X159256361Y-112034462D01*
X159246996Y-112047090D01*
X159236439Y-112058739D01*
X159224790Y-112069296D01*
X159212162Y-112078661D01*
X159198678Y-112086744D01*
X159184466Y-112093466D01*
X159169664Y-112098762D01*
X159154413Y-112102582D01*
X159138862Y-112104889D01*
X159123160Y-112105660D01*
X158752760Y-112105660D01*
X158737058Y-112104889D01*
X158721507Y-112102582D01*
X158706256Y-112098762D01*
X158691454Y-112093466D01*
X158677242Y-112086744D01*
X158663758Y-112078661D01*
X158651130Y-112069296D01*
X158639481Y-112058739D01*
X158628924Y-112047090D01*
X158619559Y-112034462D01*
X158611476Y-112020978D01*
X158604754Y-112006766D01*
X158599458Y-111991964D01*
X158595638Y-111976713D01*
X158593331Y-111961162D01*
X158592560Y-111945460D01*
X158592560Y-111625060D01*
X158593331Y-111609358D01*
X158595638Y-111593807D01*
X158599458Y-111578556D01*
X158604754Y-111563754D01*
X158611476Y-111549542D01*
X158619559Y-111536058D01*
X158628924Y-111523430D01*
X158639481Y-111511781D01*
X158651130Y-111501224D01*
X158663758Y-111491859D01*
X158677242Y-111483776D01*
X158691454Y-111477054D01*
X158706256Y-111471758D01*
X158721507Y-111467938D01*
X158737058Y-111465631D01*
X158752760Y-111464860D01*
X159123160Y-111464860D01*
X159138862Y-111465631D01*
X159138862Y-111465631D01*
G37*
D15*
X158937960Y-111785260D03*
D14*
G36*
X159138862Y-110495631D02*
G01*
X159154413Y-110497938D01*
X159169664Y-110501758D01*
X159184466Y-110507054D01*
X159198678Y-110513776D01*
X159212162Y-110521859D01*
X159224790Y-110531224D01*
X159236439Y-110541781D01*
X159246996Y-110553430D01*
X159256361Y-110566058D01*
X159264444Y-110579542D01*
X159271166Y-110593754D01*
X159276462Y-110608556D01*
X159280282Y-110623807D01*
X159282589Y-110639358D01*
X159283360Y-110655060D01*
X159283360Y-110975460D01*
X159282589Y-110991162D01*
X159280282Y-111006713D01*
X159276462Y-111021964D01*
X159271166Y-111036766D01*
X159264444Y-111050978D01*
X159256361Y-111064462D01*
X159246996Y-111077090D01*
X159236439Y-111088739D01*
X159224790Y-111099296D01*
X159212162Y-111108661D01*
X159198678Y-111116744D01*
X159184466Y-111123466D01*
X159169664Y-111128762D01*
X159154413Y-111132582D01*
X159138862Y-111134889D01*
X159123160Y-111135660D01*
X158752760Y-111135660D01*
X158737058Y-111134889D01*
X158721507Y-111132582D01*
X158706256Y-111128762D01*
X158691454Y-111123466D01*
X158677242Y-111116744D01*
X158663758Y-111108661D01*
X158651130Y-111099296D01*
X158639481Y-111088739D01*
X158628924Y-111077090D01*
X158619559Y-111064462D01*
X158611476Y-111050978D01*
X158604754Y-111036766D01*
X158599458Y-111021964D01*
X158595638Y-111006713D01*
X158593331Y-110991162D01*
X158592560Y-110975460D01*
X158592560Y-110655060D01*
X158593331Y-110639358D01*
X158595638Y-110623807D01*
X158599458Y-110608556D01*
X158604754Y-110593754D01*
X158611476Y-110579542D01*
X158619559Y-110566058D01*
X158628924Y-110553430D01*
X158639481Y-110541781D01*
X158651130Y-110531224D01*
X158663758Y-110521859D01*
X158677242Y-110513776D01*
X158691454Y-110507054D01*
X158706256Y-110501758D01*
X158721507Y-110497938D01*
X158737058Y-110495631D01*
X158752760Y-110494860D01*
X159123160Y-110494860D01*
X159138862Y-110495631D01*
X159138862Y-110495631D01*
G37*
D15*
X158937960Y-110815260D03*
D33*
X175360000Y-98462500D03*
X169560000Y-98462500D03*
D34*
X168960000Y-98462500D03*
X175960000Y-98462500D03*
D35*
X173460000Y-98462500D03*
D36*
X169960000Y-101162500D03*
D37*
X172460000Y-101162500D03*
X171810000Y-101162500D03*
X171160000Y-101162500D03*
X173760000Y-101162500D03*
X173110000Y-101162500D03*
D36*
X174960000Y-101162500D03*
D35*
X171460000Y-98462500D03*
D38*
X159000000Y-114715000D03*
X159000000Y-118885000D03*
X157000000Y-114715000D03*
X157000000Y-118885000D03*
X155000000Y-114715000D03*
X155000000Y-118885000D03*
X153000000Y-114715000D03*
X153000000Y-118885000D03*
X151000000Y-114715000D03*
X151000000Y-118885000D03*
D39*
X178500000Y-98550000D03*
X178500000Y-99800000D03*
X178500000Y-101050000D03*
D14*
G36*
X178983548Y-101875624D02*
G01*
X179004196Y-101878687D01*
X179024444Y-101883759D01*
X179044097Y-101890791D01*
X179062966Y-101899715D01*
X179080870Y-101910446D01*
X179097635Y-101922881D01*
X179113102Y-101936898D01*
X179127119Y-101952365D01*
X179139554Y-101969130D01*
X179150285Y-101987034D01*
X179159209Y-102005903D01*
X179166241Y-102025556D01*
X179171313Y-102045804D01*
X179174376Y-102066452D01*
X179175400Y-102087300D01*
X179175400Y-102512700D01*
X179174376Y-102533548D01*
X179171313Y-102554196D01*
X179166241Y-102574444D01*
X179159209Y-102594097D01*
X179150285Y-102612966D01*
X179139554Y-102630870D01*
X179127119Y-102647635D01*
X179113102Y-102663102D01*
X179097635Y-102677119D01*
X179080870Y-102689554D01*
X179062966Y-102700285D01*
X179044097Y-102709209D01*
X179024444Y-102716241D01*
X179004196Y-102721313D01*
X178983548Y-102724376D01*
X178962700Y-102725400D01*
X178037300Y-102725400D01*
X178016452Y-102724376D01*
X177995804Y-102721313D01*
X177975556Y-102716241D01*
X177955903Y-102709209D01*
X177937034Y-102700285D01*
X177919130Y-102689554D01*
X177902365Y-102677119D01*
X177886898Y-102663102D01*
X177872881Y-102647635D01*
X177860446Y-102630870D01*
X177849715Y-102612966D01*
X177840791Y-102594097D01*
X177833759Y-102574444D01*
X177828687Y-102554196D01*
X177825624Y-102533548D01*
X177824600Y-102512700D01*
X177824600Y-102087300D01*
X177825624Y-102066452D01*
X177828687Y-102045804D01*
X177833759Y-102025556D01*
X177840791Y-102005903D01*
X177849715Y-101987034D01*
X177860446Y-101969130D01*
X177872881Y-101952365D01*
X177886898Y-101936898D01*
X177902365Y-101922881D01*
X177919130Y-101910446D01*
X177937034Y-101899715D01*
X177955903Y-101890791D01*
X177975556Y-101883759D01*
X177995804Y-101878687D01*
X178016452Y-101875624D01*
X178037300Y-101874600D01*
X178962700Y-101874600D01*
X178983548Y-101875624D01*
X178983548Y-101875624D01*
G37*
D31*
X178500000Y-102300000D03*
D14*
G36*
X158078976Y-110378634D02*
G01*
X158101444Y-110381967D01*
X158123476Y-110387486D01*
X158144862Y-110395138D01*
X158165395Y-110404849D01*
X158184877Y-110416526D01*
X158203120Y-110430057D01*
X158219950Y-110445310D01*
X158235203Y-110462140D01*
X158248734Y-110480383D01*
X158260411Y-110499865D01*
X158270122Y-110520398D01*
X158277774Y-110541784D01*
X158283293Y-110563816D01*
X158286626Y-110586284D01*
X158287740Y-110608970D01*
X158287740Y-111071870D01*
X158286626Y-111094556D01*
X158283293Y-111117024D01*
X158277774Y-111139056D01*
X158270122Y-111160442D01*
X158260411Y-111180975D01*
X158248734Y-111200457D01*
X158235203Y-111218700D01*
X158219950Y-111235530D01*
X158203120Y-111250783D01*
X158184877Y-111264314D01*
X158165395Y-111275991D01*
X158144862Y-111285702D01*
X158123476Y-111293354D01*
X158101444Y-111298873D01*
X158078976Y-111302206D01*
X158056290Y-111303320D01*
X157518390Y-111303320D01*
X157495704Y-111302206D01*
X157473236Y-111298873D01*
X157451204Y-111293354D01*
X157429818Y-111285702D01*
X157409285Y-111275991D01*
X157389803Y-111264314D01*
X157371560Y-111250783D01*
X157354730Y-111235530D01*
X157339477Y-111218700D01*
X157325946Y-111200457D01*
X157314269Y-111180975D01*
X157304558Y-111160442D01*
X157296906Y-111139056D01*
X157291387Y-111117024D01*
X157288054Y-111094556D01*
X157286940Y-111071870D01*
X157286940Y-110608970D01*
X157288054Y-110586284D01*
X157291387Y-110563816D01*
X157296906Y-110541784D01*
X157304558Y-110520398D01*
X157314269Y-110499865D01*
X157325946Y-110480383D01*
X157339477Y-110462140D01*
X157354730Y-110445310D01*
X157371560Y-110430057D01*
X157389803Y-110416526D01*
X157409285Y-110404849D01*
X157429818Y-110395138D01*
X157451204Y-110387486D01*
X157473236Y-110381967D01*
X157495704Y-110378634D01*
X157518390Y-110377520D01*
X158056290Y-110377520D01*
X158078976Y-110378634D01*
X158078976Y-110378634D01*
G37*
D16*
X157787340Y-110840420D03*
D14*
G36*
X158078976Y-111953634D02*
G01*
X158101444Y-111956967D01*
X158123476Y-111962486D01*
X158144862Y-111970138D01*
X158165395Y-111979849D01*
X158184877Y-111991526D01*
X158203120Y-112005057D01*
X158219950Y-112020310D01*
X158235203Y-112037140D01*
X158248734Y-112055383D01*
X158260411Y-112074865D01*
X158270122Y-112095398D01*
X158277774Y-112116784D01*
X158283293Y-112138816D01*
X158286626Y-112161284D01*
X158287740Y-112183970D01*
X158287740Y-112646870D01*
X158286626Y-112669556D01*
X158283293Y-112692024D01*
X158277774Y-112714056D01*
X158270122Y-112735442D01*
X158260411Y-112755975D01*
X158248734Y-112775457D01*
X158235203Y-112793700D01*
X158219950Y-112810530D01*
X158203120Y-112825783D01*
X158184877Y-112839314D01*
X158165395Y-112850991D01*
X158144862Y-112860702D01*
X158123476Y-112868354D01*
X158101444Y-112873873D01*
X158078976Y-112877206D01*
X158056290Y-112878320D01*
X157518390Y-112878320D01*
X157495704Y-112877206D01*
X157473236Y-112873873D01*
X157451204Y-112868354D01*
X157429818Y-112860702D01*
X157409285Y-112850991D01*
X157389803Y-112839314D01*
X157371560Y-112825783D01*
X157354730Y-112810530D01*
X157339477Y-112793700D01*
X157325946Y-112775457D01*
X157314269Y-112755975D01*
X157304558Y-112735442D01*
X157296906Y-112714056D01*
X157291387Y-112692024D01*
X157288054Y-112669556D01*
X157286940Y-112646870D01*
X157286940Y-112183970D01*
X157288054Y-112161284D01*
X157291387Y-112138816D01*
X157296906Y-112116784D01*
X157304558Y-112095398D01*
X157314269Y-112074865D01*
X157325946Y-112055383D01*
X157339477Y-112037140D01*
X157354730Y-112020310D01*
X157371560Y-112005057D01*
X157389803Y-111991526D01*
X157409285Y-111979849D01*
X157429818Y-111970138D01*
X157451204Y-111962486D01*
X157473236Y-111956967D01*
X157495704Y-111953634D01*
X157518390Y-111952520D01*
X158056290Y-111952520D01*
X158078976Y-111953634D01*
X158078976Y-111953634D01*
G37*
D16*
X157787340Y-112415420D03*
M02*
