G04 #@! TF.GenerationSoftware,KiCad,Pcbnew,5.1.4*
G04 #@! TF.CreationDate,2019-09-04T23:44:43+02:00*
G04 #@! TF.ProjectId,altimeter,616c7469-6d65-4746-9572-2e6b69636164,rev?*
G04 #@! TF.SameCoordinates,Original*
G04 #@! TF.FileFunction,Legend,Bot*
G04 #@! TF.FilePolarity,Positive*
%FSLAX46Y46*%
G04 Gerber Fmt 4.6, Leading zero omitted, Abs format (unit mm)*
G04 Created by KiCad (PCBNEW 5.1.4) date 2019-09-04 23:44:43*
%MOMM*%
%LPD*%
G04 APERTURE LIST*
%ADD10C,0.120000*%
G04 APERTURE END LIST*
D10*
X168893360Y-108386440D02*
X168893360Y-107936440D01*
X170043360Y-108386440D02*
X168893360Y-108386440D01*
X168893360Y-103886440D02*
X168893360Y-104336440D01*
X170043360Y-103886440D02*
X168893360Y-103886440D01*
X171893360Y-103886440D02*
X170743360Y-103886440D01*
X171893360Y-103886440D02*
X171893360Y-104336440D01*
X172193360Y-108686440D02*
X171443360Y-108686440D01*
X172193360Y-107936440D02*
X172193360Y-108686440D01*
X171893360Y-108386440D02*
X170743360Y-108386440D01*
X171893360Y-108386440D02*
X171893360Y-107936440D01*
X165073400Y-111024200D02*
X165073400Y-109209200D01*
X164818400Y-111024200D02*
X165073400Y-111024200D01*
X164818400Y-114884200D02*
X164818400Y-111024200D01*
X164818400Y-118744200D02*
X165073400Y-118744200D01*
X164818400Y-114884200D02*
X164818400Y-118744200D01*
X175338400Y-111024200D02*
X175083400Y-111024200D01*
X175338400Y-114884200D02*
X175338400Y-111024200D01*
X175338400Y-118744200D02*
X175083400Y-118744200D01*
X175338400Y-114884200D02*
X175338400Y-118744200D01*
X141140000Y-117200000D02*
X141140000Y-115800000D01*
X143460000Y-115800000D02*
X143460000Y-117700000D01*
X140910000Y-116328733D02*
X140910000Y-116671267D01*
X139890000Y-116328733D02*
X139890000Y-116671267D01*
X152834493Y-104033860D02*
X153177027Y-104033860D01*
X152834493Y-105053860D02*
X153177027Y-105053860D01*
X150799340Y-118512860D02*
X150799340Y-115212860D01*
X153599340Y-118512860D02*
X150799340Y-118512860D01*
X150710000Y-103438748D02*
X150710000Y-103961252D01*
X149290000Y-103438748D02*
X149290000Y-103961252D01*
X143015200Y-105280367D02*
X143015200Y-104937833D01*
X144035200Y-105280367D02*
X144035200Y-104937833D01*
X143015200Y-102080367D02*
X143015200Y-101737833D01*
X144035200Y-102080367D02*
X144035200Y-101737833D01*
X143015200Y-98880367D02*
X143015200Y-98537833D01*
X144035200Y-98880367D02*
X144035200Y-98537833D01*
X173980000Y-100360000D02*
X173980000Y-98900000D01*
X170820000Y-100360000D02*
X170820000Y-98200000D01*
X170820000Y-100360000D02*
X171750000Y-100360000D01*
X173980000Y-100360000D02*
X173050000Y-100360000D01*
X143777500Y-114542500D02*
X143777500Y-114207500D01*
X143777500Y-111607500D02*
X143777500Y-111272500D01*
X140507500Y-111607500D02*
X140507500Y-111272500D01*
X140507500Y-111262500D02*
X143777500Y-111262500D01*
X140272500Y-114542500D02*
X143777500Y-114542500D01*
X143760700Y-110639100D02*
X143760700Y-110304100D01*
X143760700Y-107704100D02*
X143760700Y-107369100D01*
X140490700Y-107704100D02*
X140490700Y-107369100D01*
X140490700Y-107359100D02*
X143760700Y-107359100D01*
X140255700Y-110639100D02*
X143760700Y-110639100D01*
X140265200Y-105809100D02*
X140265200Y-104409100D01*
X142585200Y-104409100D02*
X142585200Y-106309100D01*
X140265200Y-102609100D02*
X140265200Y-101209100D01*
X142585200Y-101209100D02*
X142585200Y-103109100D01*
X140265200Y-99409100D02*
X140265200Y-98009100D01*
X142585200Y-98009100D02*
X142585200Y-99909100D01*
X159800000Y-104240000D02*
X163250000Y-104240000D01*
X159800000Y-104240000D02*
X157850000Y-104240000D01*
X159800000Y-109360000D02*
X161750000Y-109360000D01*
X159800000Y-109360000D02*
X157850000Y-109360000D01*
X154530000Y-97420000D02*
X153430000Y-97420000D01*
X154530000Y-97150000D02*
X154530000Y-97420000D01*
X156030000Y-97150000D02*
X154530000Y-97150000D01*
X154530000Y-103780000D02*
X151700000Y-103780000D01*
X154530000Y-104050000D02*
X154530000Y-103780000D01*
X156030000Y-104050000D02*
X154530000Y-104050000D01*
X173390920Y-105288920D02*
X173390920Y-102838920D01*
X176610920Y-103488920D02*
X176610920Y-105288920D01*
X167533920Y-103241800D02*
X166583920Y-103241800D01*
X167633920Y-108441800D02*
X167633920Y-107941800D01*
X167133920Y-108441800D02*
X167633920Y-108441800D01*
X164333920Y-108441800D02*
X164833920Y-108441800D01*
X164333920Y-107941800D02*
X164333920Y-108441800D01*
X164333920Y-103241800D02*
X164333920Y-103741800D01*
X164833920Y-103241800D02*
X164333920Y-103241800D01*
X155990000Y-118360000D02*
X154700000Y-118360000D01*
X155990000Y-118810000D02*
X155990000Y-118360000D01*
X156440000Y-118810000D02*
X155990000Y-118810000D01*
X163210000Y-118810000D02*
X163210000Y-118360000D01*
X162760000Y-118810000D02*
X163210000Y-118810000D01*
X155990000Y-111590000D02*
X155990000Y-112040000D01*
X156440000Y-111590000D02*
X155990000Y-111590000D01*
X163210000Y-111590000D02*
X163210000Y-112040000D01*
X162760000Y-111590000D02*
X163210000Y-111590000D01*
X174553733Y-106490000D02*
X174896267Y-106490000D01*
X174553733Y-107510000D02*
X174896267Y-107510000D01*
X164428733Y-97490000D02*
X164771267Y-97490000D01*
X164428733Y-98510000D02*
X164771267Y-98510000D01*
X176657540Y-104506847D02*
X176657540Y-104164313D01*
X177677540Y-104506847D02*
X177677540Y-104164313D01*
M02*
