M48
; DRILL file {KiCad 5.1.6} date Sun Jun 28 16:35:31 2020
; FORMAT={-:-/ absolute / inch / decimal}
; #@! TF.CreationDate,2020-06-28T16:35:31+02:00
; #@! TF.GenerationSoftware,Kicad,Pcbnew,5.1.6
; #@! TF.FileFunction,Plated,1,4,PTH
FMAT,2
INCH
T1C0.0080
T2C0.0090
T3C0.0100
T4C0.0197
T5C0.0236
T6C0.0315
T7C0.0335
T8C0.0394
T9C0.1260
%
G90
G05
T1
X5.4528Y-4.2126
X5.4528Y-4.252
X5.4528Y-4.2913
X5.4528Y-4.3307
X5.4528Y-4.3701
X5.4528Y-4.4094
X5.4528Y-4.4488
X5.4528Y-4.4882
X5.4567Y-4.6299
X5.47Y-4.272
X5.4724Y-4.2323
X5.4724Y-4.311
X5.4724Y-4.3504
X5.4724Y-4.3898
X5.4724Y-4.4291
X5.4724Y-4.4685
X5.4724Y-4.5079
X5.4726Y-4.6681
X5.4956Y-4.254
X5.496Y-4.304
X5.496Y-4.408
X5.496Y-4.46
X5.5118Y-4.5079
X5.512Y-4.67
X5.5175Y-3.9748
X5.5177Y-4.1008
X5.5184Y-3.8488
X5.5394Y-4.374
X5.5535Y-4.2136
X5.56Y-4.67
X5.577Y-4.376
X5.5808Y-4.5845
X5.594Y-4.6712
X5.596Y-4.3575
X5.609Y-4.1311
X5.6115Y-4.224
X5.617Y-4.012
X5.619Y-3.888
X5.6292Y-4.5851
X5.6386Y-4.7403
X5.6537Y-4.7022
X5.6591Y-4.7269
X5.689Y-3.9173
X5.689Y-3.9567
X5.689Y-3.9961
X5.689Y-4.311
X5.689Y-4.3504
X5.7087Y-3.937
X5.7087Y-3.9764
X5.7087Y-4.1535
X5.7087Y-4.1929
X5.7087Y-4.3307
X5.7087Y-4.4685
X5.7283Y-4.1732
X5.7283Y-4.311
X5.7283Y-4.3504
X5.7283Y-4.4882
X5.7283Y-4.6063
X5.7283Y-4.6457
X5.748Y-3.8386
X5.748Y-4.1535
X5.748Y-4.1929
X5.748Y-4.4685
X5.748Y-4.5079
X5.748Y-4.626
X5.748Y-4.6654
X5.7508Y-4.7378
X5.7679Y-4.7203
X5.7874Y-3.8386
X5.7987Y-4.6973
X5.8071Y-3.8583
X5.8071Y-3.8976
X5.8232Y-4.6976
X5.8268Y-3.8386
X5.8268Y-3.878
X5.8412Y-4.681
X5.8465Y-3.8583
X5.8465Y-3.8976
X5.8661Y-3.8386
X5.8661Y-3.878
X5.8858Y-3.8583
X5.8858Y-3.8976
X5.8945Y-4.4843
X5.9055Y-3.8386
X5.9055Y-3.878
X5.9252Y-3.8583
X5.9252Y-3.8976
X5.9449Y-3.8386
X5.9449Y-3.878
X6.063Y-4.6657
X6.1024Y-3.9567
X6.1024Y-3.9961
X6.1024Y-4.0157
X6.1024Y-4.0354
X6.1024Y-4.0551
X6.1029Y-3.9759
X6.122Y-3.8484
X6.122Y-3.8681
X6.122Y-3.8878
X6.122Y-3.9075
X6.1417Y-4.0945
X6.1417Y-4.1181
X6.1417Y-4.1417
X6.1417Y-4.1654
X6.1417Y-4.189
X6.1417Y-4.2126
X6.1575Y-4.0827
X6.1575Y-4.1063
X6.1575Y-4.1299
X6.1575Y-4.1535
X6.1575Y-4.1772
X6.1575Y-4.2008
X6.1654Y-4.3418
X6.1732Y-4.189
X6.1732Y-4.2126
X6.185Y-4.0236
X6.189Y-4.2008
X6.1929Y-4.4016
X6.2047Y-4.0236
X6.2136Y-4.2096
X6.2197Y-4.6724
X6.2244Y-4.0236
X6.2579Y-3.9744
X6.2606Y-4.1864
X6.2673Y-3.889
X6.2687Y-4.0264
X6.2748Y-4.2902
X6.2815Y-3.9744
X6.2819Y-4.3301
X6.2921Y-4.6206
X6.295Y-4.6886
X6.3051Y-3.9665
X6.3058Y-4.6658
X6.3079Y-4.6413
X6.3098Y-4.0984
X6.3189Y-3.9469
X6.3201Y-4.4709
X6.3209Y-4.5094
X6.3337Y-4.2238
X6.3395Y-4.6972
X6.342Y-4.3366
X6.3484Y-4.2598
X6.3484Y-4.6744
X6.3594Y-4.2228
X6.3705Y-4.1035
X6.3952Y-4.0696
X6.4213Y-4.061
X6.4596Y-4.2689
X6.4614Y-4.2933
X6.4646Y-4.6614
X6.4656Y-4.6378
X6.478Y-4.0858
X6.4915Y-3.849
X6.5157Y-4.2244
X6.5413Y-4.2244
X6.5512Y-3.9692
X6.5512Y-4.0062
X6.5551Y-4.6457
X6.561Y-3.8484
X6.561Y-3.876
X6.565Y-4.7224
X6.5667Y-4.2677
X6.5719Y-4.626
X6.5777Y-4.0062
X6.5783Y-3.9692
X6.5905Y-4.2736
X6.6139Y-4.2663
X6.6374Y-4.5271
X6.6598Y-4.3684
X6.666Y-4.7005
X6.667Y-4.0725
X6.6673Y-4.3931
X6.6693Y-4.2402
X6.6693Y-4.0421
X6.6879Y-4.3799
X6.6949Y-4.2559
X6.7325Y-4.7425
X6.7357Y-4.2794
X6.7362Y-4.2133
X6.7629Y-4.3058
X6.7655Y-4.075
X6.7776Y-4.0238
X6.7785Y-4.2768
X6.7795Y-4.0492
X6.7874Y-4.2997
X6.7906Y-4.0767
X6.7976Y-4.0497
X6.8031Y-4.0242
X6.8063Y-4.6047
X6.8165Y-4.5024
X6.8177Y-4.1031
X6.8241Y-4.1465
X6.8304Y-4.0246
X6.8371Y-4.5352
X6.8441Y-4.5701
X6.8463Y-3.9443
X6.8996Y-4.0906
X6.9036Y-4.1713
X6.9055Y-4.4275
X6.9141Y-4.1323
X6.9966Y-4.0797
X7.126Y-4.7244
X7.1654Y-4.4094
X7.1654Y-4.4488
X7.1654Y-4.4882
X7.1654Y-4.7244
T2
X6.7421Y-4.6854
T3
X5.8937Y-4.5339
T4
X5.9134Y-4.2913
X5.9411Y-4.2245
X5.9411Y-4.3582
X6.0079Y-4.1969
X6.0079Y-4.3858
X6.0747Y-4.2245
X6.0747Y-4.3582
X6.1024Y-4.2913
X7.0276Y-3.8799
X7.0276Y-3.9291
X7.0276Y-3.9783
X7.0276Y-4.0276
X6.9685Y-4.2913
X6.9962Y-4.2245
X6.9962Y-4.3582
X7.063Y-4.1969
X7.063Y-4.3858
X7.1298Y-4.2245
X7.1298Y-4.3582
X7.1575Y-4.2913
T6
X5.8012Y-3.937
X5.8012Y-4.0157
X5.8012Y-4.0945
X5.8012Y-4.1732
X5.8012Y-4.252
X5.8012Y-4.3307
X5.8012Y-4.4094
X5.8012Y-4.4882
X5.8012Y-4.5669
X5.8012Y-4.6457
T7
X6.6913Y-3.9828
X6.8882Y-3.9828
T8
X6.9449Y-4.5118
X6.9449Y-4.6118
X6.9449Y-4.7118
X7.0449Y-4.5118
X7.0449Y-4.6118
X7.0449Y-4.7118
X5.9055Y-3.9528
X6.4961Y-3.9528
T9
X6.0079Y-4.2913
X7.063Y-4.2913
T5
G00X6.652Y-3.8903
M15
G01X6.652Y-3.8627
M16
G05
G00X6.9276Y-3.8627
M15
G01X6.9276Y-3.8903
M16
G05
T0
M30
