G04 #@! TF.GenerationSoftware,KiCad,Pcbnew,5.1.6*
G04 #@! TF.CreationDate,2020-06-28T16:35:29+02:00*
G04 #@! TF.ProjectId,altimeter,616c7469-6d65-4746-9572-2e6b69636164,V 1.2 Rev. A*
G04 #@! TF.SameCoordinates,Original*
G04 #@! TF.FileFunction,Copper,L1,Top*
G04 #@! TF.FilePolarity,Positive*
%FSLAX46Y46*%
G04 Gerber Fmt 4.6, Leading zero omitted, Abs format (unit mm)*
G04 Created by KiCad (PCBNEW 5.1.6) date 2020-06-28 16:35:29*
%MOMM*%
%LPD*%
G01*
G04 APERTURE LIST*
G04 #@! TA.AperFunction,NonConductor*
%ADD10C,0.160000*%
G04 #@! TD*
G04 #@! TA.AperFunction,ComponentPad*
%ADD11O,2.000000X2.000000*%
G04 #@! TD*
G04 #@! TA.AperFunction,ComponentPad*
%ADD12R,2.000000X2.000000*%
G04 #@! TD*
G04 #@! TA.AperFunction,SMDPad,CuDef*
%ADD13R,0.650000X0.400000*%
G04 #@! TD*
G04 #@! TA.AperFunction,SMDPad,CuDef*
%ADD14R,1.550000X2.400000*%
G04 #@! TD*
G04 #@! TA.AperFunction,SMDPad,CuDef*
%ADD15R,0.650000X0.350000*%
G04 #@! TD*
G04 #@! TA.AperFunction,SMDPad,CuDef*
%ADD16R,1.000000X1.000000*%
G04 #@! TD*
G04 #@! TA.AperFunction,SMDPad,CuDef*
%ADD17R,0.450000X0.600000*%
G04 #@! TD*
G04 #@! TA.AperFunction,SMDPad,CuDef*
%ADD18C,0.100000*%
G04 #@! TD*
G04 #@! TA.AperFunction,SMDPad,CuDef*
%ADD19R,0.405000X0.990000*%
G04 #@! TD*
G04 #@! TA.AperFunction,ComponentPad*
%ADD20O,1.700000X1.700000*%
G04 #@! TD*
G04 #@! TA.AperFunction,ComponentPad*
%ADD21R,1.700000X1.700000*%
G04 #@! TD*
G04 #@! TA.AperFunction,ComponentPad*
%ADD22O,1.800000X1.200000*%
G04 #@! TD*
G04 #@! TA.AperFunction,SMDPad,CuDef*
%ADD23R,0.900000X0.800000*%
G04 #@! TD*
G04 #@! TA.AperFunction,ComponentPad*
%ADD24C,0.800000*%
G04 #@! TD*
G04 #@! TA.AperFunction,ComponentPad*
%ADD25C,6.400000*%
G04 #@! TD*
G04 #@! TA.AperFunction,SMDPad,CuDef*
%ADD26R,0.800000X0.900000*%
G04 #@! TD*
G04 #@! TA.AperFunction,SMDPad,CuDef*
%ADD27R,1.200000X1.900000*%
G04 #@! TD*
G04 #@! TA.AperFunction,ComponentPad*
%ADD28O,1.200000X1.900000*%
G04 #@! TD*
G04 #@! TA.AperFunction,SMDPad,CuDef*
%ADD29R,1.500000X1.900000*%
G04 #@! TD*
G04 #@! TA.AperFunction,ComponentPad*
%ADD30C,1.450000*%
G04 #@! TD*
G04 #@! TA.AperFunction,SMDPad,CuDef*
%ADD31R,0.400000X1.350000*%
G04 #@! TD*
G04 #@! TA.AperFunction,SMDPad,CuDef*
%ADD32R,1.000000X2.580000*%
G04 #@! TD*
G04 #@! TA.AperFunction,ComponentPad*
%ADD33O,1.300000X0.800000*%
G04 #@! TD*
G04 #@! TA.AperFunction,ViaPad*
%ADD34C,0.457200*%
G04 #@! TD*
G04 #@! TA.AperFunction,ViaPad*
%ADD35C,0.482600*%
G04 #@! TD*
G04 #@! TA.AperFunction,ViaPad*
%ADD36C,0.508000*%
G04 #@! TD*
G04 #@! TA.AperFunction,Conductor*
%ADD37C,0.508000*%
G04 #@! TD*
G04 #@! TA.AperFunction,Conductor*
%ADD38C,0.254000*%
G04 #@! TD*
G04 #@! TA.AperFunction,Conductor*
%ADD39C,0.381000*%
G04 #@! TD*
G04 #@! TA.AperFunction,Conductor*
%ADD40C,0.152400*%
G04 #@! TD*
G04 #@! TA.AperFunction,Conductor*
%ADD41C,0.177800*%
G04 #@! TD*
G04 #@! TA.AperFunction,Conductor*
%ADD42C,0.279400*%
G04 #@! TD*
G04 #@! TA.AperFunction,Conductor*
%ADD43C,0.482600*%
G04 #@! TD*
G04 #@! TA.AperFunction,Conductor*
%ADD44C,1.778000*%
G04 #@! TD*
G04 #@! TA.AperFunction,Conductor*
%ADD45C,0.635000*%
G04 #@! TD*
G04 #@! TA.AperFunction,Conductor*
%ADD46C,2.032000*%
G04 #@! TD*
G04 #@! TA.AperFunction,Conductor*
%ADD47C,0.762000*%
G04 #@! TD*
G04 #@! TA.AperFunction,Conductor*
%ADD48C,1.143000*%
G04 #@! TD*
G04 #@! TA.AperFunction,Conductor*
%ADD49C,0.304800*%
G04 #@! TD*
G04 #@! TA.AperFunction,Conductor*
%ADD50C,0.406400*%
G04 #@! TD*
G04 #@! TA.AperFunction,Conductor*
%ADD51C,0.431800*%
G04 #@! TD*
G04 #@! TA.AperFunction,Conductor*
%ADD52C,0.355600*%
G04 #@! TD*
G04 #@! TA.AperFunction,Conductor*
%ADD53C,0.200000*%
G04 #@! TD*
G04 #@! TA.AperFunction,Conductor*
%ADD54C,0.203200*%
G04 #@! TD*
G04 #@! TA.AperFunction,Conductor*
%ADD55C,0.457200*%
G04 #@! TD*
G04 APERTURE END LIST*
D10*
X181271428Y-118638095D02*
X181728571Y-118638095D01*
X181500000Y-118638095D02*
X181500000Y-119438095D01*
X181576190Y-119323809D01*
X181652380Y-119247619D01*
X181728571Y-119209523D01*
D11*
X165000000Y-100400000D03*
D12*
X150000000Y-100400000D03*
D13*
X163425000Y-97750000D03*
X163425000Y-99050000D03*
X161525000Y-98400000D03*
X161525000Y-99050000D03*
X161525000Y-97750000D03*
G04 #@! TA.AperFunction,SMDPad,CuDef*
G36*
G01*
X158350000Y-102700000D02*
X156850000Y-102700000D01*
G75*
G02*
X156800000Y-102650000I0J50000D01*
G01*
X156800000Y-101750000D01*
G75*
G02*
X156850000Y-101700000I50000J0D01*
G01*
X158350000Y-101700000D01*
G75*
G02*
X158400000Y-101750000I0J-50000D01*
G01*
X158400000Y-102650000D01*
G75*
G02*
X158350000Y-102700000I-50000J0D01*
G01*
G37*
G04 #@! TD.AperFunction*
G04 #@! TA.AperFunction,SMDPad,CuDef*
G36*
G01*
X158349900Y-101450000D02*
X158150100Y-101450000D01*
G75*
G02*
X158100000Y-101399900I0J50100D01*
G01*
X158100000Y-101050100D01*
G75*
G02*
X158150100Y-101000000I50100J0D01*
G01*
X158349900Y-101000000D01*
G75*
G02*
X158400000Y-101050100I0J-50100D01*
G01*
X158400000Y-101399900D01*
G75*
G02*
X158349900Y-101450000I-50100J0D01*
G01*
G37*
G04 #@! TD.AperFunction*
G04 #@! TA.AperFunction,SMDPad,CuDef*
G36*
G01*
X157699900Y-101450000D02*
X157500100Y-101450000D01*
G75*
G02*
X157450000Y-101399900I0J50100D01*
G01*
X157450000Y-101050100D01*
G75*
G02*
X157500100Y-101000000I50100J0D01*
G01*
X157699900Y-101000000D01*
G75*
G02*
X157750000Y-101050100I0J-50100D01*
G01*
X157750000Y-101399900D01*
G75*
G02*
X157699900Y-101450000I-50100J0D01*
G01*
G37*
G04 #@! TD.AperFunction*
G04 #@! TA.AperFunction,SMDPad,CuDef*
G36*
G01*
X157049900Y-101450000D02*
X156850100Y-101450000D01*
G75*
G02*
X156800000Y-101399900I0J50100D01*
G01*
X156800000Y-101050100D01*
G75*
G02*
X156850100Y-101000000I50100J0D01*
G01*
X157049900Y-101000000D01*
G75*
G02*
X157100000Y-101050100I0J-50100D01*
G01*
X157100000Y-101399900D01*
G75*
G02*
X157049900Y-101450000I-50100J0D01*
G01*
G37*
G04 #@! TD.AperFunction*
G04 #@! TA.AperFunction,SMDPad,CuDef*
G36*
G01*
X158349900Y-103400000D02*
X158150100Y-103400000D01*
G75*
G02*
X158100000Y-103349900I0J50100D01*
G01*
X158100000Y-103000100D01*
G75*
G02*
X158150100Y-102950000I50100J0D01*
G01*
X158349900Y-102950000D01*
G75*
G02*
X158400000Y-103000100I0J-50100D01*
G01*
X158400000Y-103349900D01*
G75*
G02*
X158349900Y-103400000I-50100J0D01*
G01*
G37*
G04 #@! TD.AperFunction*
G04 #@! TA.AperFunction,SMDPad,CuDef*
G36*
G01*
X157699900Y-103400000D02*
X157500100Y-103400000D01*
G75*
G02*
X157450000Y-103349900I0J50100D01*
G01*
X157450000Y-103000100D01*
G75*
G02*
X157500100Y-102950000I50100J0D01*
G01*
X157699900Y-102950000D01*
G75*
G02*
X157750000Y-103000100I0J-50100D01*
G01*
X157750000Y-103349900D01*
G75*
G02*
X157699900Y-103400000I-50100J0D01*
G01*
G37*
G04 #@! TD.AperFunction*
G04 #@! TA.AperFunction,SMDPad,CuDef*
G36*
G01*
X157049900Y-103400000D02*
X156850100Y-103400000D01*
G75*
G02*
X156800000Y-103349900I0J50100D01*
G01*
X156800000Y-103000100D01*
G75*
G02*
X156850100Y-102950000I50100J0D01*
G01*
X157049900Y-102950000D01*
G75*
G02*
X157100000Y-103000100I0J-50100D01*
G01*
X157100000Y-103349900D01*
G75*
G02*
X157049900Y-103400000I-50100J0D01*
G01*
G37*
G04 #@! TD.AperFunction*
G04 #@! TA.AperFunction,SMDPad,CuDef*
G36*
G01*
X158435000Y-105567500D02*
X158435000Y-105092500D01*
G75*
G02*
X158672500Y-104855000I237500J0D01*
G01*
X159247500Y-104855000D01*
G75*
G02*
X159485000Y-105092500I0J-237500D01*
G01*
X159485000Y-105567500D01*
G75*
G02*
X159247500Y-105805000I-237500J0D01*
G01*
X158672500Y-105805000D01*
G75*
G02*
X158435000Y-105567500I0J237500D01*
G01*
G37*
G04 #@! TD.AperFunction*
G04 #@! TA.AperFunction,SMDPad,CuDef*
G36*
G01*
X156685000Y-105567500D02*
X156685000Y-105092500D01*
G75*
G02*
X156922500Y-104855000I237500J0D01*
G01*
X157497500Y-104855000D01*
G75*
G02*
X157735000Y-105092500I0J-237500D01*
G01*
X157735000Y-105567500D01*
G75*
G02*
X157497500Y-105805000I-237500J0D01*
G01*
X156922500Y-105805000D01*
G75*
G02*
X156685000Y-105567500I0J237500D01*
G01*
G37*
G04 #@! TD.AperFunction*
G04 #@! TA.AperFunction,SMDPad,CuDef*
G36*
G01*
X151234999Y-104380000D02*
X152135001Y-104380000D01*
G75*
G02*
X152385000Y-104629999I0J-249999D01*
G01*
X152385000Y-105280001D01*
G75*
G02*
X152135001Y-105530000I-249999J0D01*
G01*
X151234999Y-105530000D01*
G75*
G02*
X150985000Y-105280001I0J249999D01*
G01*
X150985000Y-104629999D01*
G75*
G02*
X151234999Y-104380000I249999J0D01*
G01*
G37*
G04 #@! TD.AperFunction*
G04 #@! TA.AperFunction,SMDPad,CuDef*
G36*
G01*
X151234999Y-102330000D02*
X152135001Y-102330000D01*
G75*
G02*
X152385000Y-102579999I0J-249999D01*
G01*
X152385000Y-103230001D01*
G75*
G02*
X152135001Y-103480000I-249999J0D01*
G01*
X151234999Y-103480000D01*
G75*
G02*
X150985000Y-103230001I0J249999D01*
G01*
X150985000Y-102579999D01*
G75*
G02*
X151234999Y-102330000I249999J0D01*
G01*
G37*
G04 #@! TD.AperFunction*
G04 #@! TA.AperFunction,SMDPad,CuDef*
G36*
G01*
X153049999Y-104380000D02*
X153950001Y-104380000D01*
G75*
G02*
X154200000Y-104629999I0J-249999D01*
G01*
X154200000Y-105280001D01*
G75*
G02*
X153950001Y-105530000I-249999J0D01*
G01*
X153049999Y-105530000D01*
G75*
G02*
X152800000Y-105280001I0J249999D01*
G01*
X152800000Y-104629999D01*
G75*
G02*
X153049999Y-104380000I249999J0D01*
G01*
G37*
G04 #@! TD.AperFunction*
G04 #@! TA.AperFunction,SMDPad,CuDef*
G36*
G01*
X153049999Y-102330000D02*
X153950001Y-102330000D01*
G75*
G02*
X154200000Y-102579999I0J-249999D01*
G01*
X154200000Y-103230001D01*
G75*
G02*
X153950001Y-103480000I-249999J0D01*
G01*
X153049999Y-103480000D01*
G75*
G02*
X152800000Y-103230001I0J249999D01*
G01*
X152800000Y-102579999D01*
G75*
G02*
X153049999Y-102330000I249999J0D01*
G01*
G37*
G04 #@! TD.AperFunction*
G04 #@! TA.AperFunction,SMDPad,CuDef*
G36*
G01*
X149419999Y-104380000D02*
X150320001Y-104380000D01*
G75*
G02*
X150570000Y-104629999I0J-249999D01*
G01*
X150570000Y-105280001D01*
G75*
G02*
X150320001Y-105530000I-249999J0D01*
G01*
X149419999Y-105530000D01*
G75*
G02*
X149170000Y-105280001I0J249999D01*
G01*
X149170000Y-104629999D01*
G75*
G02*
X149419999Y-104380000I249999J0D01*
G01*
G37*
G04 #@! TD.AperFunction*
G04 #@! TA.AperFunction,SMDPad,CuDef*
G36*
G01*
X149419999Y-102330000D02*
X150320001Y-102330000D01*
G75*
G02*
X150570000Y-102579999I0J-249999D01*
G01*
X150570000Y-103230001D01*
G75*
G02*
X150320001Y-103480000I-249999J0D01*
G01*
X149419999Y-103480000D01*
G75*
G02*
X149170000Y-103230001I0J249999D01*
G01*
X149170000Y-102579999D01*
G75*
G02*
X149419999Y-102330000I249999J0D01*
G01*
G37*
G04 #@! TD.AperFunction*
G04 #@! TA.AperFunction,SMDPad,CuDef*
G36*
G01*
X163250000Y-104422500D02*
X163250000Y-104897500D01*
G75*
G02*
X163012500Y-105135000I-237500J0D01*
G01*
X162437500Y-105135000D01*
G75*
G02*
X162200000Y-104897500I0J237500D01*
G01*
X162200000Y-104422500D01*
G75*
G02*
X162437500Y-104185000I237500J0D01*
G01*
X163012500Y-104185000D01*
G75*
G02*
X163250000Y-104422500I0J-237500D01*
G01*
G37*
G04 #@! TD.AperFunction*
G04 #@! TA.AperFunction,SMDPad,CuDef*
G36*
G01*
X165000000Y-104422500D02*
X165000000Y-104897500D01*
G75*
G02*
X164762500Y-105135000I-237500J0D01*
G01*
X164187500Y-105135000D01*
G75*
G02*
X163950000Y-104897500I0J237500D01*
G01*
X163950000Y-104422500D01*
G75*
G02*
X164187500Y-104185000I237500J0D01*
G01*
X164762500Y-104185000D01*
G75*
G02*
X165000000Y-104422500I0J-237500D01*
G01*
G37*
G04 #@! TD.AperFunction*
G04 #@! TA.AperFunction,SMDPad,CuDef*
G36*
G01*
X163372500Y-101610000D02*
X163027500Y-101610000D01*
G75*
G02*
X162880000Y-101462500I0J147500D01*
G01*
X162880000Y-101167500D01*
G75*
G02*
X163027500Y-101020000I147500J0D01*
G01*
X163372500Y-101020000D01*
G75*
G02*
X163520000Y-101167500I0J-147500D01*
G01*
X163520000Y-101462500D01*
G75*
G02*
X163372500Y-101610000I-147500J0D01*
G01*
G37*
G04 #@! TD.AperFunction*
G04 #@! TA.AperFunction,SMDPad,CuDef*
G36*
G01*
X163372500Y-102580000D02*
X163027500Y-102580000D01*
G75*
G02*
X162880000Y-102432500I0J147500D01*
G01*
X162880000Y-102137500D01*
G75*
G02*
X163027500Y-101990000I147500J0D01*
G01*
X163372500Y-101990000D01*
G75*
G02*
X163520000Y-102137500I0J-147500D01*
G01*
X163520000Y-102432500D01*
G75*
G02*
X163372500Y-102580000I-147500J0D01*
G01*
G37*
G04 #@! TD.AperFunction*
G04 #@! TA.AperFunction,SMDPad,CuDef*
G36*
G01*
X158950000Y-100356250D02*
X158950000Y-99443750D01*
G75*
G02*
X159193750Y-99200000I243750J0D01*
G01*
X159681250Y-99200000D01*
G75*
G02*
X159925000Y-99443750I0J-243750D01*
G01*
X159925000Y-100356250D01*
G75*
G02*
X159681250Y-100600000I-243750J0D01*
G01*
X159193750Y-100600000D01*
G75*
G02*
X158950000Y-100356250I0J243750D01*
G01*
G37*
G04 #@! TD.AperFunction*
G04 #@! TA.AperFunction,SMDPad,CuDef*
G36*
G01*
X157075000Y-100356250D02*
X157075000Y-99443750D01*
G75*
G02*
X157318750Y-99200000I243750J0D01*
G01*
X157806250Y-99200000D01*
G75*
G02*
X158050000Y-99443750I0J-243750D01*
G01*
X158050000Y-100356250D01*
G75*
G02*
X157806250Y-100600000I-243750J0D01*
G01*
X157318750Y-100600000D01*
G75*
G02*
X157075000Y-100356250I0J243750D01*
G01*
G37*
G04 #@! TD.AperFunction*
D14*
X167150000Y-103350000D03*
D15*
X165600000Y-104325000D03*
X165600000Y-103675000D03*
X165600000Y-103025000D03*
X165600000Y-102375000D03*
X168700000Y-102375000D03*
X168700000Y-103025000D03*
X168700000Y-103675000D03*
X168700000Y-104325000D03*
G04 #@! TA.AperFunction,SMDPad,CuDef*
G36*
G01*
X160080000Y-110757500D02*
X160080000Y-111102500D01*
G75*
G02*
X159932500Y-111250000I-147500J0D01*
G01*
X159637500Y-111250000D01*
G75*
G02*
X159490000Y-111102500I0J147500D01*
G01*
X159490000Y-110757500D01*
G75*
G02*
X159637500Y-110610000I147500J0D01*
G01*
X159932500Y-110610000D01*
G75*
G02*
X160080000Y-110757500I0J-147500D01*
G01*
G37*
G04 #@! TD.AperFunction*
G04 #@! TA.AperFunction,SMDPad,CuDef*
G36*
G01*
X161050000Y-110757500D02*
X161050000Y-111102500D01*
G75*
G02*
X160902500Y-111250000I-147500J0D01*
G01*
X160607500Y-111250000D01*
G75*
G02*
X160460000Y-111102500I0J147500D01*
G01*
X160460000Y-110757500D01*
G75*
G02*
X160607500Y-110610000I147500J0D01*
G01*
X160902500Y-110610000D01*
G75*
G02*
X161050000Y-110757500I0J-147500D01*
G01*
G37*
G04 #@! TD.AperFunction*
G04 #@! TA.AperFunction,SMDPad,CuDef*
G36*
G01*
X160080000Y-111637500D02*
X160080000Y-111982500D01*
G75*
G02*
X159932500Y-112130000I-147500J0D01*
G01*
X159637500Y-112130000D01*
G75*
G02*
X159490000Y-111982500I0J147500D01*
G01*
X159490000Y-111637500D01*
G75*
G02*
X159637500Y-111490000I147500J0D01*
G01*
X159932500Y-111490000D01*
G75*
G02*
X160080000Y-111637500I0J-147500D01*
G01*
G37*
G04 #@! TD.AperFunction*
G04 #@! TA.AperFunction,SMDPad,CuDef*
G36*
G01*
X161050000Y-111637500D02*
X161050000Y-111982500D01*
G75*
G02*
X160902500Y-112130000I-147500J0D01*
G01*
X160607500Y-112130000D01*
G75*
G02*
X160460000Y-111982500I0J147500D01*
G01*
X160460000Y-111637500D01*
G75*
G02*
X160607500Y-111490000I147500J0D01*
G01*
X160902500Y-111490000D01*
G75*
G02*
X161050000Y-111637500I0J-147500D01*
G01*
G37*
G04 #@! TD.AperFunction*
G04 #@! TA.AperFunction,SMDPad,CuDef*
G36*
G01*
X160080000Y-112517500D02*
X160080000Y-112862500D01*
G75*
G02*
X159932500Y-113010000I-147500J0D01*
G01*
X159637500Y-113010000D01*
G75*
G02*
X159490000Y-112862500I0J147500D01*
G01*
X159490000Y-112517500D01*
G75*
G02*
X159637500Y-112370000I147500J0D01*
G01*
X159932500Y-112370000D01*
G75*
G02*
X160080000Y-112517500I0J-147500D01*
G01*
G37*
G04 #@! TD.AperFunction*
G04 #@! TA.AperFunction,SMDPad,CuDef*
G36*
G01*
X161050000Y-112517500D02*
X161050000Y-112862500D01*
G75*
G02*
X160902500Y-113010000I-147500J0D01*
G01*
X160607500Y-113010000D01*
G75*
G02*
X160460000Y-112862500I0J147500D01*
G01*
X160460000Y-112517500D01*
G75*
G02*
X160607500Y-112370000I147500J0D01*
G01*
X160902500Y-112370000D01*
G75*
G02*
X161050000Y-112517500I0J-147500D01*
G01*
G37*
G04 #@! TD.AperFunction*
D16*
X158225000Y-112425000D03*
X156375000Y-112425000D03*
X156375000Y-111175000D03*
X158225000Y-111175000D03*
G04 #@! TA.AperFunction,SMDPad,CuDef*
G36*
G01*
X173225000Y-110150000D02*
X173225000Y-107650000D01*
G75*
G02*
X173475000Y-107400000I250000J0D01*
G01*
X175075000Y-107400000D01*
G75*
G02*
X175325000Y-107650000I0J-250000D01*
G01*
X175325000Y-110150000D01*
G75*
G02*
X175075000Y-110400000I-250000J0D01*
G01*
X173475000Y-110400000D01*
G75*
G02*
X173225000Y-110150000I0J250000D01*
G01*
G37*
G04 #@! TD.AperFunction*
G04 #@! TA.AperFunction,SMDPad,CuDef*
G36*
G01*
X156875000Y-110150000D02*
X156875000Y-107650000D01*
G75*
G02*
X157125000Y-107400000I250000J0D01*
G01*
X158725000Y-107400000D01*
G75*
G02*
X158975000Y-107650000I0J-250000D01*
G01*
X158975000Y-110150000D01*
G75*
G02*
X158725000Y-110400000I-250000J0D01*
G01*
X157125000Y-110400000D01*
G75*
G02*
X156875000Y-110150000I0J250000D01*
G01*
G37*
G04 #@! TD.AperFunction*
G04 #@! TA.AperFunction,SMDPad,CuDef*
G36*
G01*
X171325000Y-106600000D02*
X171325000Y-105700000D01*
G75*
G02*
X171525000Y-105500000I200000J0D01*
G01*
X171925000Y-105500000D01*
G75*
G02*
X172125000Y-105700000I0J-200000D01*
G01*
X172125000Y-106600000D01*
G75*
G02*
X171925000Y-106800000I-200000J0D01*
G01*
X171525000Y-106800000D01*
G75*
G02*
X171325000Y-106600000I0J200000D01*
G01*
G37*
G04 #@! TD.AperFunction*
G04 #@! TA.AperFunction,SMDPad,CuDef*
G36*
G01*
X170075000Y-106600000D02*
X170075000Y-105700000D01*
G75*
G02*
X170275000Y-105500000I200000J0D01*
G01*
X170675000Y-105500000D01*
G75*
G02*
X170875000Y-105700000I0J-200000D01*
G01*
X170875000Y-106600000D01*
G75*
G02*
X170675000Y-106800000I-200000J0D01*
G01*
X170275000Y-106800000D01*
G75*
G02*
X170075000Y-106600000I0J200000D01*
G01*
G37*
G04 #@! TD.AperFunction*
G04 #@! TA.AperFunction,SMDPad,CuDef*
G36*
G01*
X168825000Y-106600000D02*
X168825000Y-105700000D01*
G75*
G02*
X169025000Y-105500000I200000J0D01*
G01*
X169425000Y-105500000D01*
G75*
G02*
X169625000Y-105700000I0J-200000D01*
G01*
X169625000Y-106600000D01*
G75*
G02*
X169425000Y-106800000I-200000J0D01*
G01*
X169025000Y-106800000D01*
G75*
G02*
X168825000Y-106600000I0J200000D01*
G01*
G37*
G04 #@! TD.AperFunction*
G04 #@! TA.AperFunction,SMDPad,CuDef*
G36*
G01*
X167575000Y-106600000D02*
X167575000Y-105700000D01*
G75*
G02*
X167775000Y-105500000I200000J0D01*
G01*
X168175000Y-105500000D01*
G75*
G02*
X168375000Y-105700000I0J-200000D01*
G01*
X168375000Y-106600000D01*
G75*
G02*
X168175000Y-106800000I-200000J0D01*
G01*
X167775000Y-106800000D01*
G75*
G02*
X167575000Y-106600000I0J200000D01*
G01*
G37*
G04 #@! TD.AperFunction*
G04 #@! TA.AperFunction,SMDPad,CuDef*
G36*
G01*
X166325000Y-106600000D02*
X166325000Y-105700000D01*
G75*
G02*
X166525000Y-105500000I200000J0D01*
G01*
X166925000Y-105500000D01*
G75*
G02*
X167125000Y-105700000I0J-200000D01*
G01*
X167125000Y-106600000D01*
G75*
G02*
X166925000Y-106800000I-200000J0D01*
G01*
X166525000Y-106800000D01*
G75*
G02*
X166325000Y-106600000I0J200000D01*
G01*
G37*
G04 #@! TD.AperFunction*
G04 #@! TA.AperFunction,SMDPad,CuDef*
G36*
G01*
X165075000Y-106600000D02*
X165075000Y-105700000D01*
G75*
G02*
X165275000Y-105500000I200000J0D01*
G01*
X165675000Y-105500000D01*
G75*
G02*
X165875000Y-105700000I0J-200000D01*
G01*
X165875000Y-106600000D01*
G75*
G02*
X165675000Y-106800000I-200000J0D01*
G01*
X165275000Y-106800000D01*
G75*
G02*
X165075000Y-106600000I0J200000D01*
G01*
G37*
G04 #@! TD.AperFunction*
G04 #@! TA.AperFunction,SMDPad,CuDef*
G36*
G01*
X163825000Y-106600000D02*
X163825000Y-105700000D01*
G75*
G02*
X164025000Y-105500000I200000J0D01*
G01*
X164425000Y-105500000D01*
G75*
G02*
X164625000Y-105700000I0J-200000D01*
G01*
X164625000Y-106600000D01*
G75*
G02*
X164425000Y-106800000I-200000J0D01*
G01*
X164025000Y-106800000D01*
G75*
G02*
X163825000Y-106600000I0J200000D01*
G01*
G37*
G04 #@! TD.AperFunction*
G04 #@! TA.AperFunction,SMDPad,CuDef*
G36*
G01*
X162575000Y-106600000D02*
X162575000Y-105700000D01*
G75*
G02*
X162775000Y-105500000I200000J0D01*
G01*
X163175000Y-105500000D01*
G75*
G02*
X163375000Y-105700000I0J-200000D01*
G01*
X163375000Y-106600000D01*
G75*
G02*
X163175000Y-106800000I-200000J0D01*
G01*
X162775000Y-106800000D01*
G75*
G02*
X162575000Y-106600000I0J200000D01*
G01*
G37*
G04 #@! TD.AperFunction*
G04 #@! TA.AperFunction,SMDPad,CuDef*
G36*
G01*
X161325000Y-106600000D02*
X161325000Y-105700000D01*
G75*
G02*
X161525000Y-105500000I200000J0D01*
G01*
X161925000Y-105500000D01*
G75*
G02*
X162125000Y-105700000I0J-200000D01*
G01*
X162125000Y-106600000D01*
G75*
G02*
X161925000Y-106800000I-200000J0D01*
G01*
X161525000Y-106800000D01*
G75*
G02*
X161325000Y-106600000I0J200000D01*
G01*
G37*
G04 #@! TD.AperFunction*
G04 #@! TA.AperFunction,SMDPad,CuDef*
G36*
G01*
X160075000Y-106600000D02*
X160075000Y-105700000D01*
G75*
G02*
X160275000Y-105500000I200000J0D01*
G01*
X160675000Y-105500000D01*
G75*
G02*
X160875000Y-105700000I0J-200000D01*
G01*
X160875000Y-106600000D01*
G75*
G02*
X160675000Y-106800000I-200000J0D01*
G01*
X160275000Y-106800000D01*
G75*
G02*
X160075000Y-106600000I0J200000D01*
G01*
G37*
G04 #@! TD.AperFunction*
D17*
X174498000Y-114774000D03*
X174498000Y-116874000D03*
G04 #@! TA.AperFunction,SMDPad,CuDef*
G36*
G01*
X178640000Y-113122500D02*
X178640000Y-112777500D01*
G75*
G02*
X178787500Y-112630000I147500J0D01*
G01*
X179082500Y-112630000D01*
G75*
G02*
X179230000Y-112777500I0J-147500D01*
G01*
X179230000Y-113122500D01*
G75*
G02*
X179082500Y-113270000I-147500J0D01*
G01*
X178787500Y-113270000D01*
G75*
G02*
X178640000Y-113122500I0J147500D01*
G01*
G37*
G04 #@! TD.AperFunction*
G04 #@! TA.AperFunction,SMDPad,CuDef*
G36*
G01*
X177670000Y-113122500D02*
X177670000Y-112777500D01*
G75*
G02*
X177817500Y-112630000I147500J0D01*
G01*
X178112500Y-112630000D01*
G75*
G02*
X178260000Y-112777500I0J-147500D01*
G01*
X178260000Y-113122500D01*
G75*
G02*
X178112500Y-113270000I-147500J0D01*
G01*
X177817500Y-113270000D01*
G75*
G02*
X177670000Y-113122500I0J147500D01*
G01*
G37*
G04 #@! TD.AperFunction*
G04 #@! TA.AperFunction,SMDPad,CuDef*
D18*
G36*
X152642500Y-97510000D02*
G01*
X152642500Y-98020000D01*
X152897500Y-98020000D01*
X152897500Y-97510000D01*
X153302500Y-97510000D01*
X153302500Y-98020000D01*
X153557500Y-98020000D01*
X153557500Y-97510000D01*
X153962500Y-97510000D01*
X153962500Y-98020000D01*
X154217500Y-98020000D01*
X154217500Y-97510000D01*
X154625000Y-97510000D01*
X154625000Y-98270000D01*
X154547500Y-98270000D01*
X154547500Y-99745000D01*
X152312500Y-99745000D01*
X152312500Y-98270000D01*
X152235000Y-98270000D01*
X152235000Y-97510000D01*
X152642500Y-97510000D01*
G37*
G04 #@! TD.AperFunction*
D19*
X154420000Y-100875000D03*
X153760000Y-100875000D03*
X153100000Y-100875000D03*
X152440000Y-100875000D03*
G04 #@! TA.AperFunction,SMDPad,CuDef*
G36*
G01*
X180210000Y-112777500D02*
X180210000Y-113122500D01*
G75*
G02*
X180062500Y-113270000I-147500J0D01*
G01*
X179767500Y-113270000D01*
G75*
G02*
X179620000Y-113122500I0J147500D01*
G01*
X179620000Y-112777500D01*
G75*
G02*
X179767500Y-112630000I147500J0D01*
G01*
X180062500Y-112630000D01*
G75*
G02*
X180210000Y-112777500I0J-147500D01*
G01*
G37*
G04 #@! TD.AperFunction*
G04 #@! TA.AperFunction,SMDPad,CuDef*
G36*
G01*
X181180000Y-112777500D02*
X181180000Y-113122500D01*
G75*
G02*
X181032500Y-113270000I-147500J0D01*
G01*
X180737500Y-113270000D01*
G75*
G02*
X180590000Y-113122500I0J147500D01*
G01*
X180590000Y-112777500D01*
G75*
G02*
X180737500Y-112630000I147500J0D01*
G01*
X181032500Y-112630000D01*
G75*
G02*
X181180000Y-112777500I0J-147500D01*
G01*
G37*
G04 #@! TD.AperFunction*
G04 #@! TA.AperFunction,SMDPad,CuDef*
G36*
G01*
X164077500Y-98440000D02*
X164422500Y-98440000D01*
G75*
G02*
X164570000Y-98587500I0J-147500D01*
G01*
X164570000Y-98882500D01*
G75*
G02*
X164422500Y-99030000I-147500J0D01*
G01*
X164077500Y-99030000D01*
G75*
G02*
X163930000Y-98882500I0J147500D01*
G01*
X163930000Y-98587500D01*
G75*
G02*
X164077500Y-98440000I147500J0D01*
G01*
G37*
G04 #@! TD.AperFunction*
G04 #@! TA.AperFunction,SMDPad,CuDef*
G36*
G01*
X164077500Y-97470000D02*
X164422500Y-97470000D01*
G75*
G02*
X164570000Y-97617500I0J-147500D01*
G01*
X164570000Y-97912500D01*
G75*
G02*
X164422500Y-98060000I-147500J0D01*
G01*
X164077500Y-98060000D01*
G75*
G02*
X163930000Y-97912500I0J147500D01*
G01*
X163930000Y-97617500D01*
G75*
G02*
X164077500Y-97470000I147500J0D01*
G01*
G37*
G04 #@! TD.AperFunction*
D20*
X178940000Y-119680000D03*
X176400000Y-119680000D03*
X178940000Y-117140000D03*
X176400000Y-117140000D03*
X178940000Y-114600000D03*
D21*
X176400000Y-114600000D03*
D22*
X147350000Y-118000000D03*
X147350000Y-116000000D03*
X147350000Y-114000000D03*
X147350000Y-112000000D03*
X147350000Y-110000000D03*
X147350000Y-108000000D03*
X147350000Y-106000000D03*
X147350000Y-104000000D03*
X147350000Y-102000000D03*
G04 #@! TA.AperFunction,ComponentPad*
G36*
G01*
X146699999Y-99400000D02*
X148000001Y-99400000D01*
G75*
G02*
X148250000Y-99649999I0J-249999D01*
G01*
X148250000Y-100350001D01*
G75*
G02*
X148000001Y-100600000I-249999J0D01*
G01*
X146699999Y-100600000D01*
G75*
G02*
X146450000Y-100350001I0J249999D01*
G01*
X146450000Y-99649999D01*
G75*
G02*
X146699999Y-99400000I249999J0D01*
G01*
G37*
G04 #@! TD.AperFunction*
D23*
X176600000Y-112100000D03*
X174600000Y-113050000D03*
X174600000Y-111150000D03*
G04 #@! TA.AperFunction,SMDPad,CuDef*
G36*
G01*
X163190800Y-113858100D02*
X162190800Y-113858100D01*
G75*
G02*
X161690800Y-113358100I0J500000D01*
G01*
X161690800Y-111858100D01*
G75*
G02*
X162190800Y-111358100I500000J0D01*
G01*
X163190800Y-111358100D01*
G75*
G02*
X163690800Y-111858100I0J-500000D01*
G01*
X163690800Y-113358100D01*
G75*
G02*
X163190800Y-113858100I-500000J0D01*
G01*
G37*
G04 #@! TD.AperFunction*
G04 #@! TA.AperFunction,SMDPad,CuDef*
G36*
G01*
X173190800Y-113858100D02*
X172190800Y-113858100D01*
G75*
G02*
X171690800Y-113358100I0J500000D01*
G01*
X171690800Y-111858100D01*
G75*
G02*
X172190800Y-111358100I500000J0D01*
G01*
X173190800Y-111358100D01*
G75*
G02*
X173690800Y-111858100I0J-500000D01*
G01*
X173690800Y-113358100D01*
G75*
G02*
X173190800Y-113858100I-500000J0D01*
G01*
G37*
G04 #@! TD.AperFunction*
G04 #@! TA.AperFunction,SMDPad,CuDef*
G36*
G01*
X173190800Y-119858100D02*
X172190800Y-119858100D01*
G75*
G02*
X171690800Y-119358100I0J500000D01*
G01*
X171690800Y-117858100D01*
G75*
G02*
X172190800Y-117358100I500000J0D01*
G01*
X173190800Y-117358100D01*
G75*
G02*
X173690800Y-117858100I0J-500000D01*
G01*
X173690800Y-119358100D01*
G75*
G02*
X173190800Y-119858100I-500000J0D01*
G01*
G37*
G04 #@! TD.AperFunction*
G04 #@! TA.AperFunction,SMDPad,CuDef*
G36*
G01*
X163190800Y-119858100D02*
X162190800Y-119858100D01*
G75*
G02*
X161690800Y-119358100I0J500000D01*
G01*
X161690800Y-117858100D01*
G75*
G02*
X162190800Y-117358100I500000J0D01*
G01*
X163190800Y-117358100D01*
G75*
G02*
X163690800Y-117858100I0J-500000D01*
G01*
X163690800Y-119358100D01*
G75*
G02*
X163190800Y-119858100I-500000J0D01*
G01*
G37*
G04 #@! TD.AperFunction*
D24*
X154297056Y-107302944D03*
X152600000Y-106600000D03*
X150902944Y-107302944D03*
X150200000Y-109000000D03*
X150902944Y-110697056D03*
X152600000Y-111400000D03*
X154297056Y-110697056D03*
X155000000Y-109000000D03*
D25*
X152600000Y-109000000D03*
D24*
X181097056Y-107302944D03*
X179400000Y-106600000D03*
X177702944Y-107302944D03*
X177000000Y-109000000D03*
X177702944Y-110697056D03*
X179400000Y-111400000D03*
X181097056Y-110697056D03*
X181800000Y-109000000D03*
D25*
X179400000Y-109000000D03*
G04 #@! TA.AperFunction,SMDPad,CuDef*
G36*
G01*
X170810000Y-102277500D02*
X170810000Y-102622500D01*
G75*
G02*
X170662500Y-102770000I-147500J0D01*
G01*
X170367500Y-102770000D01*
G75*
G02*
X170220000Y-102622500I0J147500D01*
G01*
X170220000Y-102277500D01*
G75*
G02*
X170367500Y-102130000I147500J0D01*
G01*
X170662500Y-102130000D01*
G75*
G02*
X170810000Y-102277500I0J-147500D01*
G01*
G37*
G04 #@! TD.AperFunction*
G04 #@! TA.AperFunction,SMDPad,CuDef*
G36*
G01*
X171780000Y-102277500D02*
X171780000Y-102622500D01*
G75*
G02*
X171632500Y-102770000I-147500J0D01*
G01*
X171337500Y-102770000D01*
G75*
G02*
X171190000Y-102622500I0J147500D01*
G01*
X171190000Y-102277500D01*
G75*
G02*
X171337500Y-102130000I147500J0D01*
G01*
X171632500Y-102130000D01*
G75*
G02*
X171780000Y-102277500I0J-147500D01*
G01*
G37*
G04 #@! TD.AperFunction*
G04 #@! TA.AperFunction,SMDPad,CuDef*
G36*
G01*
X160402500Y-98465000D02*
X160747500Y-98465000D01*
G75*
G02*
X160895000Y-98612500I0J-147500D01*
G01*
X160895000Y-98907500D01*
G75*
G02*
X160747500Y-99055000I-147500J0D01*
G01*
X160402500Y-99055000D01*
G75*
G02*
X160255000Y-98907500I0J147500D01*
G01*
X160255000Y-98612500D01*
G75*
G02*
X160402500Y-98465000I147500J0D01*
G01*
G37*
G04 #@! TD.AperFunction*
G04 #@! TA.AperFunction,SMDPad,CuDef*
G36*
G01*
X160402500Y-97495000D02*
X160747500Y-97495000D01*
G75*
G02*
X160895000Y-97642500I0J-147500D01*
G01*
X160895000Y-97937500D01*
G75*
G02*
X160747500Y-98085000I-147500J0D01*
G01*
X160402500Y-98085000D01*
G75*
G02*
X160255000Y-97937500I0J147500D01*
G01*
X160255000Y-97642500D01*
G75*
G02*
X160402500Y-97495000I147500J0D01*
G01*
G37*
G04 #@! TD.AperFunction*
G04 #@! TA.AperFunction,SMDPad,CuDef*
G36*
G01*
X159290000Y-97972500D02*
X159290000Y-97627500D01*
G75*
G02*
X159437500Y-97480000I147500J0D01*
G01*
X159732500Y-97480000D01*
G75*
G02*
X159880000Y-97627500I0J-147500D01*
G01*
X159880000Y-97972500D01*
G75*
G02*
X159732500Y-98120000I-147500J0D01*
G01*
X159437500Y-98120000D01*
G75*
G02*
X159290000Y-97972500I0J147500D01*
G01*
G37*
G04 #@! TD.AperFunction*
G04 #@! TA.AperFunction,SMDPad,CuDef*
G36*
G01*
X158320000Y-97972500D02*
X158320000Y-97627500D01*
G75*
G02*
X158467500Y-97480000I147500J0D01*
G01*
X158762500Y-97480000D01*
G75*
G02*
X158910000Y-97627500I0J-147500D01*
G01*
X158910000Y-97972500D01*
G75*
G02*
X158762500Y-98120000I-147500J0D01*
G01*
X158467500Y-98120000D01*
G75*
G02*
X158320000Y-97972500I0J147500D01*
G01*
G37*
G04 #@! TD.AperFunction*
D26*
X166700000Y-99950000D03*
X165750000Y-97950000D03*
X167650000Y-97950000D03*
D27*
X175360000Y-98462500D03*
X169560000Y-98462500D03*
D28*
X168960000Y-98462500D03*
X175960000Y-98462500D03*
D29*
X173460000Y-98462500D03*
D30*
X169960000Y-101162500D03*
D31*
X172460000Y-101162500D03*
X171810000Y-101162500D03*
X171160000Y-101162500D03*
X173760000Y-101162500D03*
X173110000Y-101162500D03*
D30*
X174960000Y-101162500D03*
D29*
X171460000Y-98462500D03*
D32*
X159000000Y-114715000D03*
X159000000Y-118885000D03*
X157000000Y-114715000D03*
X157000000Y-118885000D03*
X155000000Y-114715000D03*
X155000000Y-118885000D03*
X153000000Y-114715000D03*
X153000000Y-118885000D03*
X151000000Y-114715000D03*
X151000000Y-118885000D03*
D33*
X178500000Y-98550000D03*
X178500000Y-99800000D03*
X178500000Y-101050000D03*
G04 #@! TA.AperFunction,ComponentPad*
G36*
G01*
X178950000Y-102700000D02*
X178050000Y-102700000D01*
G75*
G02*
X177850000Y-102500000I0J200000D01*
G01*
X177850000Y-102100000D01*
G75*
G02*
X178050000Y-101900000I200000J0D01*
G01*
X178950000Y-101900000D01*
G75*
G02*
X179150000Y-102100000I0J-200000D01*
G01*
X179150000Y-102500000D01*
G75*
G02*
X178950000Y-102700000I-200000J0D01*
G01*
G37*
G04 #@! TD.AperFunction*
G04 #@! TA.AperFunction,SMDPad,CuDef*
G36*
G01*
X158435000Y-104437500D02*
X158435000Y-103962500D01*
G75*
G02*
X158672500Y-103725000I237500J0D01*
G01*
X159247500Y-103725000D01*
G75*
G02*
X159485000Y-103962500I0J-237500D01*
G01*
X159485000Y-104437500D01*
G75*
G02*
X159247500Y-104675000I-237500J0D01*
G01*
X158672500Y-104675000D01*
G75*
G02*
X158435000Y-104437500I0J237500D01*
G01*
G37*
G04 #@! TD.AperFunction*
G04 #@! TA.AperFunction,SMDPad,CuDef*
G36*
G01*
X156685000Y-104437500D02*
X156685000Y-103962500D01*
G75*
G02*
X156922500Y-103725000I237500J0D01*
G01*
X157497500Y-103725000D01*
G75*
G02*
X157735000Y-103962500I0J-237500D01*
G01*
X157735000Y-104437500D01*
G75*
G02*
X157497500Y-104675000I-237500J0D01*
G01*
X156922500Y-104675000D01*
G75*
G02*
X156685000Y-104437500I0J237500D01*
G01*
G37*
G04 #@! TD.AperFunction*
D34*
X140150800Y-104159100D03*
X140145320Y-100959100D03*
X140167780Y-97759100D03*
X141752320Y-116446300D03*
X143220440Y-120403620D03*
X140700000Y-111100000D03*
X138600000Y-117600000D03*
X144500000Y-101500000D03*
X144500000Y-100500000D03*
X144500000Y-99500000D03*
X138500000Y-107000000D03*
X138500000Y-108000000D03*
X138500000Y-109000000D03*
X138500000Y-110000000D03*
X138500000Y-111000000D03*
X138500000Y-112000000D03*
X138500000Y-113000000D03*
X138500000Y-114000000D03*
X139000000Y-111500000D03*
X139000000Y-110500000D03*
X139000000Y-109500000D03*
X139000000Y-107500000D03*
X139000000Y-113500000D03*
X139000000Y-114500000D03*
X140000000Y-114500000D03*
X145000000Y-100000000D03*
X145000000Y-101000000D03*
X142981669Y-116461540D03*
X138938000Y-108508800D03*
X139000000Y-112500000D03*
X182000000Y-120000000D03*
X181000000Y-120000000D03*
X182000000Y-114000000D03*
X182000000Y-113000000D03*
X182000000Y-112000000D03*
X169316400Y-119392700D03*
X155000000Y-100500000D03*
X155000000Y-102000000D03*
X155012900Y-100987100D03*
X155000000Y-101500000D03*
X166750000Y-119950000D03*
X173840002Y-116080000D03*
X166925631Y-117500317D03*
X164200000Y-118400000D03*
X154000002Y-118510000D03*
X157980000Y-118680000D03*
X173140000Y-114360000D03*
X160550000Y-114540000D03*
X149720000Y-113900000D03*
X164225002Y-117800000D03*
X159559777Y-109984777D03*
X155000000Y-102500000D03*
X155000000Y-103000000D03*
X175250000Y-103900000D03*
X156600000Y-110281276D03*
X173169512Y-104219512D03*
X169342723Y-103442723D03*
X177713739Y-103624710D03*
X162438835Y-103367850D03*
X172798780Y-102215177D03*
X160270000Y-104100000D03*
X157100000Y-102200000D03*
X157600000Y-102200000D03*
X158100000Y-102200000D03*
X159225118Y-102269808D03*
X159550000Y-100950000D03*
X160500000Y-100250000D03*
X160150000Y-100750000D03*
X158950000Y-100950000D03*
D35*
X171250000Y-119010000D03*
D34*
X160875024Y-107284147D03*
X161248712Y-108200000D03*
X155500000Y-98250000D03*
X155500000Y-98750000D03*
X166650000Y-97750000D03*
X166650000Y-98450000D03*
X164885000Y-97765000D03*
X169400550Y-102668200D03*
X155500000Y-99250000D03*
X155500000Y-97750000D03*
X172880000Y-116960000D03*
X166500000Y-118000002D03*
D36*
X149700000Y-115160000D03*
D34*
X160530000Y-113560000D03*
X159818623Y-117363741D03*
X173663251Y-115193483D03*
X161086011Y-110149434D03*
X157300000Y-111800000D03*
X173332035Y-105319955D03*
X172200000Y-102850000D03*
X163100000Y-103149992D03*
X172657878Y-102861191D03*
X161809910Y-104230000D03*
X156000000Y-107000000D03*
X156000000Y-106400000D03*
X156400000Y-106700000D03*
X156400000Y-106100000D03*
X156000000Y-105800000D03*
X156400000Y-105500000D03*
X156000000Y-105200000D03*
X156400000Y-104900000D03*
X156000000Y-104600000D03*
X156400000Y-104300000D03*
X156400000Y-103700000D03*
X156000000Y-104000000D03*
X156800000Y-107000000D03*
X156800000Y-106400000D03*
X157200000Y-106700000D03*
X159190000Y-98780000D03*
X173894999Y-100184545D03*
X168590000Y-114987421D03*
X157825000Y-106925000D03*
X159020000Y-106333786D03*
X167088966Y-100816452D03*
X167072311Y-101756276D03*
X166400000Y-101756262D03*
X166400000Y-100816453D03*
X145500000Y-117000000D03*
X146000000Y-117500000D03*
X146000000Y-118500000D03*
X145500000Y-118000000D03*
X142468579Y-104929409D03*
X141655800Y-111150400D03*
X146000000Y-113500000D03*
X145000000Y-113500000D03*
X146000000Y-114500000D03*
X145500000Y-114000000D03*
X142671800Y-101904800D03*
X142138391Y-110680490D03*
X144500000Y-109500000D03*
X145500000Y-109500000D03*
X145500000Y-110500000D03*
X144500000Y-110500000D03*
X145000000Y-110000000D03*
X140004800Y-118618000D03*
X139598396Y-109321600D03*
X161250000Y-118730000D03*
X146504373Y-119894363D03*
X143604064Y-119436256D03*
X141058900Y-107025440D03*
X147285875Y-119311220D03*
X159893702Y-119090000D03*
X141224000Y-118618000D03*
X139598400Y-111963200D03*
X160167918Y-118510052D03*
X147908149Y-119318007D03*
X139598400Y-113284000D03*
X160219677Y-117889897D03*
X148367275Y-118897918D03*
X142087600Y-118648835D03*
X171005500Y-120459500D03*
X142722600Y-98755200D03*
X142532100Y-107289600D03*
X146000000Y-105500000D03*
X145000000Y-105500000D03*
X145000000Y-106500000D03*
X146000000Y-106500000D03*
X145500000Y-106000000D03*
X139004040Y-118569740D03*
X143741136Y-120062835D03*
X139588236Y-108051600D03*
X161022165Y-119309105D03*
X146070000Y-120340002D03*
X175619064Y-104959832D03*
X175350471Y-105950471D03*
X172174286Y-108631843D03*
X169873848Y-111250008D03*
X171099996Y-107017390D03*
X171087252Y-108697985D03*
X169158806Y-110957787D03*
X164120000Y-109050000D03*
X159380000Y-108970090D03*
X169348632Y-111583805D03*
X146000000Y-97500000D03*
X147000000Y-97500000D03*
X148000000Y-97500000D03*
X148000000Y-98500000D03*
X147500000Y-98000000D03*
X148500000Y-98000000D03*
X149000000Y-97500000D03*
X149000000Y-98500000D03*
X149500000Y-98000000D03*
X150000000Y-97500000D03*
X150000000Y-98500000D03*
X150500000Y-98000000D03*
X150500000Y-99000000D03*
X149500000Y-99000000D03*
X148500000Y-99000000D03*
X151000000Y-98500000D03*
X151000000Y-97500000D03*
X147500000Y-99000000D03*
X172480986Y-103546972D03*
X171842753Y-103504616D03*
X164074861Y-108429327D03*
X161528400Y-107260188D03*
X167992699Y-108363621D03*
X167398603Y-108548882D03*
X166794690Y-108398680D03*
X172151846Y-102204772D03*
X173492659Y-102225410D03*
X166150000Y-107300000D03*
X171777708Y-109366672D03*
X165500000Y-107300000D03*
X172400000Y-109211779D03*
X175400000Y-112459667D03*
X164540922Y-103780000D03*
X170050000Y-108100000D03*
X169400000Y-107700000D03*
D37*
X171460000Y-98462500D02*
X170254260Y-98462500D01*
X173460000Y-98462500D02*
X175960000Y-98462500D01*
D38*
X171160000Y-101162500D02*
X169960000Y-101162500D01*
D37*
X170254260Y-98462500D02*
X169560000Y-98462500D01*
D39*
X177702944Y-110697056D02*
X179400000Y-109000000D01*
D40*
X179415000Y-108985000D02*
X179400000Y-109000000D01*
D41*
X178990000Y-106190000D02*
X179400000Y-106600000D01*
X179400000Y-106600000D02*
X179400000Y-109000000D01*
X178815000Y-111985000D02*
X179400000Y-111400000D01*
X176700000Y-111700000D02*
X179400000Y-109000000D01*
D42*
X178935000Y-112950000D02*
X179400000Y-112950000D01*
D40*
X179400000Y-109000000D02*
X179400000Y-112950000D01*
D42*
X179400000Y-112950000D02*
X179915000Y-112950000D01*
D40*
X154420000Y-100875000D02*
X154774900Y-100875000D01*
X154900800Y-100875000D02*
X155012900Y-100987100D01*
X154420000Y-100875000D02*
X154900800Y-100875000D01*
X150502945Y-111097055D02*
X150902944Y-110697056D01*
D43*
X158795000Y-118680000D02*
X159000000Y-118885000D01*
X157980000Y-118680000D02*
X158795000Y-118680000D01*
X155000000Y-118885000D02*
X153000000Y-118885000D01*
X154625000Y-118510000D02*
X155000000Y-118885000D01*
X154000002Y-118510000D02*
X154625000Y-118510000D01*
X153375000Y-118510000D02*
X153000000Y-118885000D01*
X154000002Y-118510000D02*
X153375000Y-118510000D01*
D44*
X178940000Y-119680000D02*
X176400000Y-119680000D01*
D45*
X178935000Y-111865000D02*
X179400000Y-111400000D01*
X178935000Y-112950000D02*
X178935000Y-111865000D01*
X179915000Y-111915000D02*
X179400000Y-111400000D01*
X179915000Y-112950000D02*
X179915000Y-111915000D01*
X179400000Y-112940000D02*
X179410000Y-112950000D01*
X179400000Y-109000000D02*
X179400000Y-112940000D01*
X179915000Y-112950000D02*
X179410000Y-112950000D01*
X179410000Y-112950000D02*
X178935000Y-112950000D01*
D40*
X167475000Y-103675000D02*
X167150000Y-103350000D01*
X168700000Y-103675000D02*
X167475000Y-103675000D01*
D46*
X152700000Y-108900000D02*
X152600000Y-109000000D01*
X157925000Y-108900000D02*
X152700000Y-108900000D01*
X179300000Y-108900000D02*
X179400000Y-109000000D01*
X174275000Y-108900000D02*
X179300000Y-108900000D01*
D47*
X174275000Y-108725000D02*
X174275000Y-108900000D01*
X171725000Y-106150000D02*
X171725000Y-106175000D01*
X171725000Y-106175000D02*
X174275000Y-108725000D01*
D40*
X168700000Y-103675000D02*
X169177400Y-103675000D01*
X169177400Y-103675000D02*
X169342723Y-103509677D01*
X169342723Y-103509677D02*
X169342723Y-103442723D01*
D48*
X149870000Y-106270000D02*
X152600000Y-109000000D01*
X149870000Y-104955000D02*
X149870000Y-106270000D01*
X151685000Y-108085000D02*
X152600000Y-109000000D01*
X151685000Y-104955000D02*
X151685000Y-108085000D01*
X153500000Y-108100000D02*
X152600000Y-109000000D01*
X153500000Y-104955000D02*
X153500000Y-108100000D01*
X150570000Y-104955000D02*
X150890000Y-105275000D01*
X149870000Y-104955000D02*
X150570000Y-104955000D01*
X150570000Y-104955000D02*
X150720000Y-105105000D01*
X150720000Y-105105000D02*
X150720000Y-106180000D01*
X149870000Y-104955000D02*
X152795000Y-104955000D01*
X152795000Y-104955000D02*
X152795000Y-105385000D01*
X152795000Y-104955000D02*
X153500000Y-104955000D01*
X153500000Y-105530000D02*
X153300000Y-105730000D01*
X153500000Y-104955000D02*
X153500000Y-105530000D01*
X153300000Y-105730000D02*
X152310000Y-105730000D01*
D45*
X164085000Y-101315000D02*
X165000000Y-100400000D01*
X163200000Y-101315000D02*
X164085000Y-101315000D01*
D49*
X157600000Y-101225000D02*
X157600000Y-102200000D01*
X158250000Y-102350000D02*
X158100000Y-102200000D01*
X158250000Y-103175000D02*
X158250000Y-102350000D01*
D41*
X158960000Y-104200000D02*
X158960000Y-105330000D01*
X159040000Y-105330000D02*
X160270000Y-104100000D01*
X158960000Y-105330000D02*
X159040000Y-105330000D01*
D40*
X176134000Y-116874000D02*
X176400000Y-117140000D01*
X174498000Y-116874000D02*
X176134000Y-116874000D01*
D39*
X164450417Y-118984201D02*
X164826518Y-118608100D01*
X164826518Y-118608100D02*
X169483282Y-118608100D01*
X162690800Y-118608100D02*
X163066901Y-118984201D01*
X163066901Y-118984201D02*
X164450417Y-118984201D01*
D44*
X178940000Y-117140000D02*
X176400000Y-117140000D01*
D39*
X176400000Y-117358916D02*
X176400000Y-117140000D01*
X170719383Y-119844201D02*
X171242121Y-119844201D01*
X171242121Y-119844201D02*
X171611630Y-120213710D01*
X171611630Y-120213710D02*
X173545206Y-120213710D01*
X169483282Y-118608100D02*
X170719383Y-119844201D01*
X173545206Y-120213710D02*
X176400000Y-117358916D01*
D45*
X165750000Y-97950000D02*
X166650000Y-97950000D01*
X166650000Y-97950000D02*
X166650000Y-97750000D01*
X166650000Y-97750000D02*
X166650000Y-98450000D01*
X166650000Y-97750000D02*
X166650000Y-97750000D01*
X166650000Y-98450000D02*
X166650000Y-98600000D01*
X165565000Y-97765000D02*
X165750000Y-97950000D01*
X164250000Y-97765000D02*
X164885000Y-97765000D01*
X164885000Y-97765000D02*
X165565000Y-97765000D01*
X180885000Y-113765000D02*
X180885000Y-112950000D01*
X180300000Y-114350000D02*
X180885000Y-113765000D01*
X178940000Y-117140000D02*
X180300000Y-115780000D01*
X180300000Y-115780000D02*
X180300000Y-114350000D01*
D39*
X170850000Y-110814366D02*
X170850000Y-117241382D01*
X170850000Y-117241382D02*
X169483282Y-118608100D01*
X167601713Y-110348287D02*
X170383921Y-110348287D01*
X170383921Y-110348287D02*
X170850000Y-110814366D01*
X162690800Y-112608100D02*
X165341900Y-112608100D01*
X165341900Y-112608100D02*
X167601713Y-110348287D01*
D40*
X168700000Y-103025000D02*
X169096951Y-103025000D01*
X169096951Y-103025000D02*
X169171951Y-102950000D01*
X169171951Y-102950000D02*
X169171951Y-102896799D01*
X169171951Y-102896799D02*
X169400550Y-102668200D01*
D50*
X164235000Y-97750000D02*
X164250000Y-97765000D01*
X163425000Y-97750000D02*
X164235000Y-97750000D01*
D40*
X151000000Y-117388370D02*
X149700000Y-116088370D01*
X149700000Y-115519210D02*
X149700000Y-115160000D01*
X149700000Y-116088370D02*
X149700000Y-115519210D01*
X151000000Y-118885000D02*
X151000000Y-117388370D01*
D49*
X156375000Y-111175000D02*
X156675000Y-111175000D01*
X156675000Y-111175000D02*
X157300000Y-111800000D01*
D47*
X171021110Y-104953890D02*
X172603890Y-104953890D01*
X170475000Y-106150000D02*
X170475000Y-105500000D01*
X170475000Y-105500000D02*
X171021110Y-104953890D01*
X172969955Y-105319955D02*
X173332035Y-105319955D01*
X172603890Y-104953890D02*
X172969955Y-105319955D01*
X173332035Y-105319955D02*
X173980045Y-105319955D01*
X173980045Y-105319955D02*
X174300000Y-105000000D01*
D51*
X165510000Y-102285000D02*
X165600000Y-102375000D01*
X163200000Y-102285000D02*
X165510000Y-102285000D01*
D47*
X174300000Y-105000000D02*
X174300000Y-102850000D01*
X177950000Y-102850000D02*
X178500000Y-102300000D01*
X174300000Y-102850000D02*
X177950000Y-102850000D01*
D51*
X163200000Y-102285000D02*
X163200000Y-103049992D01*
X163200000Y-103049992D02*
X163100000Y-103149992D01*
D41*
X171899086Y-102923736D02*
X172458217Y-102923736D01*
X171798812Y-103024010D02*
X171899086Y-102923736D01*
X171049010Y-103024010D02*
X171798812Y-103024010D01*
X170515000Y-102450000D02*
X170515000Y-102490000D01*
X170515000Y-102490000D02*
X171049010Y-103024010D01*
D51*
X174300000Y-102850000D02*
X174288809Y-102861191D01*
X172981167Y-102861191D02*
X172657878Y-102861191D01*
X174288809Y-102861191D02*
X172981167Y-102861191D01*
D41*
X161620000Y-99050000D02*
X161525000Y-99050000D01*
D40*
X161525000Y-99050000D02*
X161275000Y-99300000D01*
X161275000Y-99300000D02*
X160223480Y-99300000D01*
X160223480Y-99300000D02*
X159703480Y-98780000D01*
X159703480Y-98780000D02*
X159190000Y-98780000D01*
D43*
X161525000Y-99465000D02*
X161525000Y-99050000D01*
X161525000Y-100765000D02*
X161525000Y-99465000D01*
X163045000Y-102285000D02*
X161525000Y-100765000D01*
X163200000Y-102285000D02*
X163045000Y-102285000D01*
D40*
X159170000Y-112425000D02*
X159785000Y-111810000D01*
X158225000Y-112425000D02*
X159170000Y-112425000D01*
D39*
X173760000Y-100319544D02*
X173760000Y-101162500D01*
X173894999Y-100184545D02*
X173760000Y-100319544D01*
D45*
X173660454Y-99950000D02*
X173894999Y-100184545D01*
X166700000Y-99950000D02*
X173660454Y-99950000D01*
D40*
X161040000Y-115920000D02*
X167980710Y-115920000D01*
X159000000Y-114715000D02*
X159835000Y-114715000D01*
X168590000Y-115310710D02*
X168590000Y-114987421D01*
X167980710Y-115920000D02*
X168590000Y-115310710D01*
X159835000Y-114715000D02*
X161040000Y-115920000D01*
D52*
X160565000Y-97800000D02*
X160575000Y-97790000D01*
X159585000Y-97800000D02*
X160565000Y-97800000D01*
X160615000Y-97750000D02*
X160575000Y-97790000D01*
X161525000Y-97750000D02*
X160615000Y-97750000D01*
D41*
X157825000Y-106925000D02*
X158428786Y-106925000D01*
X158428786Y-106925000D02*
X159020000Y-106333786D01*
D40*
X167088966Y-100816452D02*
X167088966Y-101739621D01*
X167088966Y-101739621D02*
X167072311Y-101756276D01*
X166400000Y-100816453D02*
X166400000Y-101756262D01*
X144199131Y-118841189D02*
X143832663Y-119207657D01*
X146504373Y-119671084D02*
X145674478Y-118841189D01*
X146504373Y-119894363D02*
X146504373Y-119671084D01*
X145674478Y-118841189D02*
X144199131Y-118841189D01*
X143832663Y-119207657D02*
X143604064Y-119436256D01*
X149147000Y-116000000D02*
X149633940Y-116486940D01*
X170682211Y-120459500D02*
X171005500Y-120459500D01*
X147350000Y-116000000D02*
X149147000Y-116000000D01*
X150350158Y-120459500D02*
X170682211Y-120459500D01*
X149633940Y-119743282D02*
X150350158Y-120459500D01*
X149633940Y-116486940D02*
X149633940Y-119743282D01*
D39*
X149990000Y-100410000D02*
X150000000Y-100400000D01*
X149990000Y-102785000D02*
X149990000Y-100410000D01*
X149870000Y-102905000D02*
X149990000Y-102785000D01*
D40*
X158215000Y-97400000D02*
X158615000Y-97800000D01*
X155845454Y-97400000D02*
X158215000Y-97400000D01*
X155725553Y-97280099D02*
X155845454Y-97400000D01*
X154900000Y-97654546D02*
X155274447Y-97280099D01*
X154900000Y-99733766D02*
X154900000Y-97654546D01*
X154523766Y-100110000D02*
X154900000Y-99733766D01*
X153877600Y-100110000D02*
X154523766Y-100110000D01*
X153760000Y-100227600D02*
X153877600Y-100110000D01*
X155274447Y-97280099D02*
X155725553Y-97280099D01*
X153760000Y-100875000D02*
X153760000Y-100227600D01*
X144546175Y-119158699D02*
X145468699Y-119158699D01*
X145980000Y-120250002D02*
X146070000Y-120340002D01*
X145468699Y-119158699D02*
X145980000Y-119670000D01*
X145980000Y-119670000D02*
X145980000Y-120250002D01*
X143741136Y-119963738D02*
X144546175Y-119158699D01*
X143741136Y-120062835D02*
X143741136Y-119963738D01*
D41*
X178800000Y-101050000D02*
X178500000Y-101050000D01*
X179550000Y-102542068D02*
X179550000Y-101800000D01*
X175619064Y-104959832D02*
X177132236Y-104959832D01*
X179550000Y-101800000D02*
X178800000Y-101050000D01*
X177132236Y-104959832D02*
X179550000Y-102542068D01*
X179892910Y-100992910D02*
X178700000Y-99800000D01*
X179892910Y-102692038D02*
X179892910Y-100992910D01*
X178700000Y-99800000D02*
X178500000Y-99800000D01*
X175350471Y-105950471D02*
X176634477Y-105950471D01*
X176634477Y-105950471D02*
X179892910Y-102692038D01*
D40*
X172869902Y-110239722D02*
X172869902Y-109004170D01*
X172497575Y-108631843D02*
X172174286Y-108631843D01*
X172869902Y-109004170D02*
X172497575Y-108631843D01*
X176167398Y-112950000D02*
X177965000Y-112950000D01*
X175908699Y-112691301D02*
X176167398Y-112950000D01*
X175908699Y-111888699D02*
X175908699Y-112691301D01*
X175170000Y-111150000D02*
X175908699Y-111888699D01*
X174600000Y-111150000D02*
X175170000Y-111150000D01*
X173780180Y-111150000D02*
X172869902Y-110239722D01*
X174600000Y-111150000D02*
X173780180Y-111150000D01*
D37*
X172381200Y-112298500D02*
X172381200Y-112298500D01*
D45*
X173382700Y-113300000D02*
X172690800Y-112608100D01*
D39*
X172295799Y-118213099D02*
X172690800Y-118608100D01*
X172690800Y-112608100D02*
X172295799Y-113003101D01*
X172295799Y-113003101D02*
X172295799Y-118213099D01*
D37*
X172381200Y-112298500D02*
X172690800Y-112608100D01*
D47*
X173132700Y-113050000D02*
X172690800Y-112608100D01*
X174600000Y-113050000D02*
X173132700Y-113050000D01*
D37*
X174498000Y-113152000D02*
X174600000Y-113050000D01*
X174498000Y-114774000D02*
X174498000Y-113152000D01*
D40*
X154058811Y-116563811D02*
X168414245Y-116563811D01*
X169873848Y-111573297D02*
X169873848Y-111250008D01*
X168414245Y-116563811D02*
X169873848Y-115104208D01*
X153000000Y-115505000D02*
X154058811Y-116563811D01*
X169873848Y-115104208D02*
X169873848Y-111573297D01*
X171099996Y-108685241D02*
X171087252Y-108697985D01*
X171099996Y-107017390D02*
X171099996Y-108685241D01*
X151000000Y-114715000D02*
X151000000Y-116157400D01*
X170343758Y-115083326D02*
X170343758Y-110918796D01*
X151000000Y-116157400D02*
X151723921Y-116881321D01*
X169482095Y-110957787D02*
X169158806Y-110957787D01*
X169659784Y-110780098D02*
X169482095Y-110957787D01*
X170205060Y-110780098D02*
X169659784Y-110780098D01*
X170343758Y-110918796D02*
X170205060Y-110780098D01*
X168545763Y-116881321D02*
X170343758Y-115083326D01*
X151723921Y-116881321D02*
X168545763Y-116881321D01*
X164120000Y-109050000D02*
X159459910Y-109050000D01*
X159459910Y-109050000D02*
X159380000Y-108970090D01*
X169348632Y-111907094D02*
X169348632Y-111583805D01*
X155000000Y-114715000D02*
X155000000Y-116157400D01*
X169348632Y-115180396D02*
X169348632Y-111907094D01*
X155000000Y-116157400D02*
X155088901Y-116246301D01*
X155088901Y-116246301D02*
X168282727Y-116246301D01*
X168282727Y-116246301D02*
X169348632Y-115180396D01*
D41*
X167006289Y-99221511D02*
X167650000Y-98577800D01*
X167650000Y-98577800D02*
X167650000Y-97950000D01*
X166413273Y-99221511D02*
X167006289Y-99221511D01*
X164250000Y-98735000D02*
X165926762Y-98735000D01*
X165926762Y-98735000D02*
X166413273Y-99221511D01*
D52*
X163935000Y-99050000D02*
X164250000Y-98735000D01*
X163425000Y-99050000D02*
X163935000Y-99050000D01*
D40*
X172053440Y-103974518D02*
X172252387Y-103775571D01*
X170235482Y-103974518D02*
X172053440Y-103974518D01*
X169910000Y-104300000D02*
X170235482Y-103974518D01*
X168725000Y-104300000D02*
X169910000Y-104300000D01*
X172252387Y-103775571D02*
X172480986Y-103546972D01*
X168700000Y-104325000D02*
X168725000Y-104300000D01*
X171697369Y-103650000D02*
X171842753Y-103504616D01*
X169870452Y-103270452D02*
X170250000Y-103650000D01*
X168850000Y-102375000D02*
X169050000Y-102175000D01*
X168700000Y-102375000D02*
X168850000Y-102375000D01*
X170250000Y-103650000D02*
X171697369Y-103650000D01*
X169050000Y-102175000D02*
X169602806Y-102175000D01*
X169602806Y-102175000D02*
X169870452Y-102442646D01*
X169870452Y-102442646D02*
X169870452Y-103270452D01*
X163751572Y-108429327D02*
X164074861Y-108429327D01*
X161725000Y-106150000D02*
X161725000Y-106402755D01*
X161725000Y-106402755D02*
X163751572Y-108429327D01*
X160475000Y-106205000D02*
X160475000Y-106150000D01*
X161500000Y-107231788D02*
X161528400Y-107260188D01*
D41*
X160475000Y-106150000D02*
X160475000Y-106192068D01*
X160475000Y-106192068D02*
X161528400Y-107245468D01*
D40*
X161500000Y-107230000D02*
X161500000Y-107231788D01*
D41*
X161528400Y-107245468D02*
X161528400Y-107260188D01*
D40*
X159308699Y-113166301D02*
X159785000Y-112690000D01*
X156375000Y-112425000D02*
X157116301Y-113166301D01*
X157116301Y-113166301D02*
X159308699Y-113166301D01*
X158470000Y-110930000D02*
X158225000Y-111175000D01*
X159785000Y-110930000D02*
X158470000Y-110930000D01*
X161449490Y-111554400D02*
X161608821Y-111395069D01*
X161449490Y-112290510D02*
X161449490Y-111554400D01*
X160755000Y-112690000D02*
X161050000Y-112690000D01*
X167992699Y-108686910D02*
X167992699Y-108363621D01*
X161050000Y-112690000D02*
X161449490Y-112290510D01*
X161608821Y-111395069D02*
X161608821Y-111391707D01*
X161915508Y-111085022D02*
X165594587Y-111085022D01*
X161608821Y-111391707D02*
X161915508Y-111085022D01*
X165594587Y-111085022D02*
X167992699Y-108686910D01*
X160635000Y-111700000D02*
X160854862Y-111700000D01*
X161291310Y-111263552D02*
X161291310Y-111258690D01*
X160755000Y-111799862D02*
X161291310Y-111263552D01*
X167170004Y-108777481D02*
X167398603Y-108548882D01*
X165179974Y-110767511D02*
X167170004Y-108777481D01*
X161782489Y-110767511D02*
X165179974Y-110767511D01*
X161291310Y-111258690D02*
X161782489Y-110767511D01*
X160755000Y-111810000D02*
X160755000Y-111799862D01*
X161070000Y-110930000D02*
X161550000Y-110450000D01*
X160755000Y-110930000D02*
X161070000Y-110930000D01*
X161550000Y-110450000D02*
X164743370Y-110450000D01*
X164743370Y-110450000D02*
X166566091Y-108627279D01*
X166566091Y-108627279D02*
X166794690Y-108398680D01*
D41*
X172025228Y-102204772D02*
X172151846Y-102204772D01*
X171485000Y-102450000D02*
X171780000Y-102450000D01*
X171780000Y-102450000D02*
X172025228Y-102204772D01*
D53*
X172460000Y-101162500D02*
X172460000Y-101765000D01*
X172151846Y-102073154D02*
X172151846Y-102204772D01*
X172460000Y-101765000D02*
X172151846Y-102073154D01*
X173110000Y-101763001D02*
X173492659Y-102145660D01*
X173110000Y-101162500D02*
X173110000Y-101763001D01*
X173492659Y-102145660D02*
X173492659Y-102225410D01*
D54*
X166150000Y-106900000D02*
X166150000Y-107300000D01*
X166725000Y-106150000D02*
X166725000Y-106325000D01*
X166725000Y-106325000D02*
X166150000Y-106900000D01*
X170251564Y-109366672D02*
X171454419Y-109366672D01*
X166150000Y-107300000D02*
X168184892Y-107300000D01*
X168184892Y-107300000D02*
X170251564Y-109366672D01*
X171454419Y-109366672D02*
X171777708Y-109366672D01*
X165475000Y-106150000D02*
X165475000Y-107275000D01*
X165475000Y-107275000D02*
X165500000Y-107300000D01*
X170241076Y-109891076D02*
X172043992Y-109891076D01*
X165745022Y-107868311D02*
X168218311Y-107868311D01*
X165500000Y-107300000D02*
X165500000Y-107623289D01*
X172043992Y-109891076D02*
X172400000Y-109535068D01*
X168218311Y-107868311D02*
X170241076Y-109891076D01*
X165500000Y-107623289D02*
X165745022Y-107868311D01*
X172400000Y-109535068D02*
X172400000Y-109211779D01*
D40*
X165600000Y-104325000D02*
X165385972Y-104325000D01*
X164840972Y-103780000D02*
X164540922Y-103780000D01*
X165385972Y-104325000D02*
X164840972Y-103780000D01*
D42*
X169225000Y-106603994D02*
X169225000Y-106150000D01*
X170022301Y-108072301D02*
X170022301Y-107401295D01*
X170022301Y-107401295D02*
X169225000Y-106603994D01*
X170050000Y-108100000D02*
X170022301Y-108072301D01*
D40*
X167975000Y-106150000D02*
X167975000Y-106325000D01*
X169350000Y-107700000D02*
X169400000Y-107700000D01*
D55*
X167975000Y-106150000D02*
X167975000Y-106389634D01*
X167975000Y-106389634D02*
X169056767Y-107471401D01*
X169056767Y-107471401D02*
X169171401Y-107471401D01*
X169171401Y-107471401D02*
X169400000Y-107700000D01*
D40*
X164225000Y-106150000D02*
X164225000Y-105900000D01*
X164225000Y-104910000D02*
X164475000Y-104660000D01*
X165335000Y-103675000D02*
X165600000Y-103675000D01*
X164430000Y-104660000D02*
X163767997Y-103997997D01*
X164475000Y-104660000D02*
X164430000Y-104660000D01*
X164200000Y-103280000D02*
X164940000Y-103280000D01*
X164940000Y-103280000D02*
X165335000Y-103675000D01*
X163767997Y-103997997D02*
X163767997Y-103712003D01*
X163767997Y-103712003D02*
X164200000Y-103280000D01*
X163760000Y-105410000D02*
X164225000Y-105875000D01*
X163880000Y-104660000D02*
X163760000Y-104780000D01*
X164475000Y-104660000D02*
X163880000Y-104660000D01*
X163760000Y-104780000D02*
X163760000Y-105410000D01*
X164225000Y-105875000D02*
X164225000Y-106150000D01*
X162975000Y-105900000D02*
X162975000Y-106150000D01*
X162770000Y-104660000D02*
X162725000Y-104660000D01*
X165537489Y-102962489D02*
X164068483Y-102962489D01*
X165600000Y-103025000D02*
X165537489Y-102962489D01*
X163450486Y-103580486D02*
X163450486Y-103979514D01*
X164068483Y-102962489D02*
X163450486Y-103580486D01*
X163450486Y-103979514D02*
X162770000Y-104660000D01*
X163440000Y-105420000D02*
X162975000Y-105885000D01*
X163310000Y-104660000D02*
X163440000Y-104790000D01*
X162725000Y-104660000D02*
X163310000Y-104660000D01*
X163440000Y-104790000D02*
X163440000Y-105420000D01*
X162975000Y-105885000D02*
X162975000Y-106150000D01*
G36*
X152057271Y-99745000D02*
G01*
X152062175Y-99794793D01*
X152076699Y-99842672D01*
X152100285Y-99886798D01*
X152132026Y-99925474D01*
X152170702Y-99957215D01*
X152214828Y-99980801D01*
X152262707Y-99995325D01*
X152312500Y-100000229D01*
X154546000Y-100000229D01*
X154546000Y-100124772D01*
X154217500Y-100124772D01*
X154167707Y-100129676D01*
X154119828Y-100144200D01*
X154075703Y-100167786D01*
X154037027Y-100199527D01*
X154005286Y-100238203D01*
X153981700Y-100282328D01*
X153967176Y-100330207D01*
X153962272Y-100380000D01*
X153962272Y-101370000D01*
X153967176Y-101419793D01*
X153981700Y-101467672D01*
X154005286Y-101511797D01*
X154037027Y-101550473D01*
X154075703Y-101582214D01*
X154119828Y-101605800D01*
X154167707Y-101620324D01*
X154217500Y-101625228D01*
X154532855Y-101625228D01*
X154535946Y-101640769D01*
X154546000Y-101665041D01*
X154546000Y-101834959D01*
X154535946Y-101859231D01*
X154517400Y-101952468D01*
X154517400Y-102047532D01*
X154535946Y-102140769D01*
X154546000Y-102165041D01*
X154546000Y-102334959D01*
X154535946Y-102359231D01*
X154517400Y-102452468D01*
X154517400Y-102547532D01*
X154535946Y-102640769D01*
X154546000Y-102665041D01*
X154546000Y-102834959D01*
X154535946Y-102859231D01*
X154517400Y-102952468D01*
X154517400Y-103047532D01*
X154535946Y-103140769D01*
X154546000Y-103165041D01*
X154546000Y-103400000D01*
X154550881Y-103449553D01*
X154565335Y-103497202D01*
X154588807Y-103541115D01*
X154620395Y-103579605D01*
X154658885Y-103611193D01*
X154702798Y-103634665D01*
X154746000Y-103647770D01*
X154746000Y-104923800D01*
X154455228Y-104923800D01*
X154455228Y-104629999D01*
X154445520Y-104531434D01*
X154416770Y-104436657D01*
X154370082Y-104349310D01*
X154307250Y-104272750D01*
X154230690Y-104209918D01*
X154143343Y-104163230D01*
X154048566Y-104134480D01*
X153950001Y-104124772D01*
X153049999Y-104124772D01*
X153001996Y-104129500D01*
X152835553Y-104129500D01*
X152795000Y-104125506D01*
X152754447Y-104129500D01*
X152183004Y-104129500D01*
X152135001Y-104124772D01*
X151234999Y-104124772D01*
X151186996Y-104129500D01*
X150610550Y-104129500D01*
X150570000Y-104125506D01*
X150529450Y-104129500D01*
X150368004Y-104129500D01*
X150320001Y-104124772D01*
X149419999Y-104124772D01*
X149321434Y-104134480D01*
X149226657Y-104163230D01*
X149139310Y-104209918D01*
X149062750Y-104272750D01*
X148999918Y-104349310D01*
X148953230Y-104436657D01*
X148924480Y-104531434D01*
X148914772Y-104629999D01*
X148914772Y-105280001D01*
X148924480Y-105378566D01*
X148953230Y-105473343D01*
X148999918Y-105560690D01*
X149044501Y-105615013D01*
X149044501Y-105847735D01*
X148946118Y-105946118D01*
X148936642Y-105957666D01*
X148929600Y-105970840D01*
X148925264Y-105985134D01*
X148923800Y-106000000D01*
X148923800Y-120721000D01*
X146368454Y-120721000D01*
X146377640Y-120714862D01*
X146444860Y-120647642D01*
X146497674Y-120568599D01*
X146534054Y-120480771D01*
X146552600Y-120387534D01*
X146552600Y-120376825D01*
X146645142Y-120358417D01*
X146732970Y-120322037D01*
X146812013Y-120269223D01*
X146879233Y-120202003D01*
X146932047Y-120122960D01*
X146968427Y-120035132D01*
X146986973Y-119941895D01*
X146986973Y-119846831D01*
X146968427Y-119753594D01*
X146932047Y-119665766D01*
X146879233Y-119586723D01*
X146812013Y-119519503D01*
X146789842Y-119504689D01*
X146780252Y-119486747D01*
X146762601Y-119465239D01*
X146738989Y-119436468D01*
X146726391Y-119426129D01*
X146228129Y-118927868D01*
X146228597Y-118927674D01*
X146307640Y-118874860D01*
X146374860Y-118807640D01*
X146427674Y-118728597D01*
X146464054Y-118640769D01*
X146466939Y-118626266D01*
X146573247Y-118713511D01*
X146721607Y-118792811D01*
X146882587Y-118841643D01*
X147008048Y-118854000D01*
X147128607Y-118854000D01*
X147057278Y-118883546D01*
X146978235Y-118936360D01*
X146911015Y-119003580D01*
X146858201Y-119082623D01*
X146821821Y-119170451D01*
X146803275Y-119263688D01*
X146803275Y-119358752D01*
X146821821Y-119451989D01*
X146858201Y-119539817D01*
X146911015Y-119618860D01*
X146978235Y-119686080D01*
X147057278Y-119738894D01*
X147145106Y-119775274D01*
X147238343Y-119793820D01*
X147333407Y-119793820D01*
X147426644Y-119775274D01*
X147514472Y-119738894D01*
X147593515Y-119686080D01*
X147593619Y-119685977D01*
X147600509Y-119692867D01*
X147679552Y-119745681D01*
X147767380Y-119782061D01*
X147860617Y-119800607D01*
X147955681Y-119800607D01*
X148048918Y-119782061D01*
X148136746Y-119745681D01*
X148215789Y-119692867D01*
X148283009Y-119625647D01*
X148335823Y-119546604D01*
X148372203Y-119458776D01*
X148387769Y-119380518D01*
X148414807Y-119380518D01*
X148508044Y-119361972D01*
X148595872Y-119325592D01*
X148674915Y-119272778D01*
X148742135Y-119205558D01*
X148794949Y-119126515D01*
X148831329Y-119038687D01*
X148849875Y-118945450D01*
X148849875Y-118850386D01*
X148831329Y-118757149D01*
X148794949Y-118669321D01*
X148742135Y-118590278D01*
X148674915Y-118523058D01*
X148595872Y-118470244D01*
X148508044Y-118433864D01*
X148414807Y-118415318D01*
X148396349Y-118415318D01*
X148442811Y-118328393D01*
X148491643Y-118167413D01*
X148508132Y-118000000D01*
X148491643Y-117832587D01*
X148442811Y-117671607D01*
X148363511Y-117523247D01*
X148256791Y-117393209D01*
X148126753Y-117286489D01*
X147978393Y-117207189D01*
X147817413Y-117158357D01*
X147691952Y-117146000D01*
X147008048Y-117146000D01*
X146882587Y-117158357D01*
X146721607Y-117207189D01*
X146573247Y-117286489D01*
X146466939Y-117373734D01*
X146464054Y-117359231D01*
X146427674Y-117271403D01*
X146374860Y-117192360D01*
X146307640Y-117125140D01*
X146228597Y-117072326D01*
X146140769Y-117035946D01*
X146047532Y-117017400D01*
X145982600Y-117017400D01*
X145982600Y-116952468D01*
X145964054Y-116859231D01*
X145927674Y-116771403D01*
X145874860Y-116692360D01*
X145807640Y-116625140D01*
X145728597Y-116572326D01*
X145640769Y-116535946D01*
X145547532Y-116517400D01*
X145452468Y-116517400D01*
X145359231Y-116535946D01*
X145271403Y-116572326D01*
X145192360Y-116625140D01*
X145125140Y-116692360D01*
X145072326Y-116771403D01*
X145035946Y-116859231D01*
X145017400Y-116952468D01*
X145017400Y-117047532D01*
X145035946Y-117140769D01*
X145072326Y-117228597D01*
X145125140Y-117307640D01*
X145192360Y-117374860D01*
X145271403Y-117427674D01*
X145359231Y-117464054D01*
X145452468Y-117482600D01*
X145517400Y-117482600D01*
X145517400Y-117517400D01*
X145452468Y-117517400D01*
X145359231Y-117535946D01*
X145271403Y-117572326D01*
X145192360Y-117625140D01*
X145125140Y-117692360D01*
X145072326Y-117771403D01*
X145035946Y-117859231D01*
X145017400Y-117952468D01*
X145017400Y-118047532D01*
X145035946Y-118140769D01*
X145072326Y-118228597D01*
X145125140Y-118307640D01*
X145192360Y-118374860D01*
X145271403Y-118427674D01*
X145359231Y-118464054D01*
X145452468Y-118482600D01*
X145517400Y-118482600D01*
X145517400Y-118510989D01*
X144215343Y-118510989D01*
X144199130Y-118509392D01*
X144182917Y-118510989D01*
X144182916Y-118510989D01*
X144134401Y-118515767D01*
X144072158Y-118534649D01*
X144048055Y-118547532D01*
X144014793Y-118565310D01*
X143990873Y-118584942D01*
X143964515Y-118606573D01*
X143954176Y-118619171D01*
X143619692Y-118953656D01*
X143556532Y-118953656D01*
X143463295Y-118972202D01*
X143375467Y-119008582D01*
X143296424Y-119061396D01*
X143229204Y-119128616D01*
X143176390Y-119207659D01*
X143140010Y-119295487D01*
X143121464Y-119388724D01*
X143121464Y-119483788D01*
X143140010Y-119577025D01*
X143176390Y-119664853D01*
X143229204Y-119743896D01*
X143296424Y-119811116D01*
X143318884Y-119826123D01*
X143313462Y-119834238D01*
X143277082Y-119922066D01*
X143276935Y-119922803D01*
X143267972Y-119921020D01*
X143172908Y-119921020D01*
X143079671Y-119939566D01*
X142991843Y-119975946D01*
X142912800Y-120028760D01*
X142845580Y-120095980D01*
X142792766Y-120175023D01*
X142756386Y-120262851D01*
X142737840Y-120356088D01*
X142737840Y-120451152D01*
X142756386Y-120544389D01*
X142792766Y-120632217D01*
X142845580Y-120711260D01*
X142855320Y-120721000D01*
X138513650Y-120721000D01*
X138457333Y-120715478D01*
X138416291Y-120703087D01*
X138378442Y-120682962D01*
X138345220Y-120655867D01*
X138317890Y-120622830D01*
X138297502Y-120585124D01*
X138284825Y-120544170D01*
X138279000Y-120488752D01*
X138279000Y-118522208D01*
X138521440Y-118522208D01*
X138521440Y-118617272D01*
X138539986Y-118710509D01*
X138576366Y-118798337D01*
X138629180Y-118877380D01*
X138696400Y-118944600D01*
X138775443Y-118997414D01*
X138863271Y-119033794D01*
X138956508Y-119052340D01*
X139051572Y-119052340D01*
X139144809Y-119033794D01*
X139232637Y-118997414D01*
X139311680Y-118944600D01*
X139378900Y-118877380D01*
X139431714Y-118798337D01*
X139468094Y-118710509D01*
X139486640Y-118617272D01*
X139486640Y-118570468D01*
X139522200Y-118570468D01*
X139522200Y-118665532D01*
X139540746Y-118758769D01*
X139577126Y-118846597D01*
X139629940Y-118925640D01*
X139697160Y-118992860D01*
X139776203Y-119045674D01*
X139864031Y-119082054D01*
X139957268Y-119100600D01*
X140052332Y-119100600D01*
X140145569Y-119082054D01*
X140233397Y-119045674D01*
X140312440Y-118992860D01*
X140379660Y-118925640D01*
X140432474Y-118846597D01*
X140468854Y-118758769D01*
X140487400Y-118665532D01*
X140487400Y-118570468D01*
X140741400Y-118570468D01*
X140741400Y-118665532D01*
X140759946Y-118758769D01*
X140796326Y-118846597D01*
X140849140Y-118925640D01*
X140916360Y-118992860D01*
X140995403Y-119045674D01*
X141083231Y-119082054D01*
X141176468Y-119100600D01*
X141271532Y-119100600D01*
X141364769Y-119082054D01*
X141452597Y-119045674D01*
X141531640Y-118992860D01*
X141598860Y-118925640D01*
X141648883Y-118850773D01*
X141659926Y-118877432D01*
X141712740Y-118956475D01*
X141779960Y-119023695D01*
X141859003Y-119076509D01*
X141946831Y-119112889D01*
X142040068Y-119131435D01*
X142135132Y-119131435D01*
X142228369Y-119112889D01*
X142316197Y-119076509D01*
X142395240Y-119023695D01*
X142462460Y-118956475D01*
X142515274Y-118877432D01*
X142551654Y-118789604D01*
X142570200Y-118696367D01*
X142570200Y-118601303D01*
X142551654Y-118508066D01*
X142515274Y-118420238D01*
X142462460Y-118341195D01*
X142395240Y-118273975D01*
X142316197Y-118221161D01*
X142228369Y-118184781D01*
X142135132Y-118166235D01*
X142040068Y-118166235D01*
X141946831Y-118184781D01*
X141859003Y-118221161D01*
X141779960Y-118273975D01*
X141712740Y-118341195D01*
X141662717Y-118416062D01*
X141651674Y-118389403D01*
X141598860Y-118310360D01*
X141531640Y-118243140D01*
X141452597Y-118190326D01*
X141364769Y-118153946D01*
X141271532Y-118135400D01*
X141176468Y-118135400D01*
X141083231Y-118153946D01*
X140995403Y-118190326D01*
X140916360Y-118243140D01*
X140849140Y-118310360D01*
X140796326Y-118389403D01*
X140759946Y-118477231D01*
X140741400Y-118570468D01*
X140487400Y-118570468D01*
X140468854Y-118477231D01*
X140432474Y-118389403D01*
X140379660Y-118310360D01*
X140312440Y-118243140D01*
X140233397Y-118190326D01*
X140145569Y-118153946D01*
X140052332Y-118135400D01*
X139957268Y-118135400D01*
X139864031Y-118153946D01*
X139776203Y-118190326D01*
X139697160Y-118243140D01*
X139629940Y-118310360D01*
X139577126Y-118389403D01*
X139540746Y-118477231D01*
X139522200Y-118570468D01*
X139486640Y-118570468D01*
X139486640Y-118522208D01*
X139468094Y-118428971D01*
X139431714Y-118341143D01*
X139378900Y-118262100D01*
X139311680Y-118194880D01*
X139232637Y-118142066D01*
X139144809Y-118105686D01*
X139051572Y-118087140D01*
X138956508Y-118087140D01*
X138863271Y-118105686D01*
X138775443Y-118142066D01*
X138696400Y-118194880D01*
X138629180Y-118262100D01*
X138576366Y-118341143D01*
X138539986Y-118428971D01*
X138521440Y-118522208D01*
X138279000Y-118522208D01*
X138279000Y-117961500D01*
X138292360Y-117974860D01*
X138371403Y-118027674D01*
X138459231Y-118064054D01*
X138552468Y-118082600D01*
X138647532Y-118082600D01*
X138740769Y-118064054D01*
X138828597Y-118027674D01*
X138907640Y-117974860D01*
X138974860Y-117907640D01*
X139027674Y-117828597D01*
X139064054Y-117740769D01*
X139082600Y-117647532D01*
X139082600Y-117552468D01*
X139064054Y-117459231D01*
X139027674Y-117371403D01*
X138974860Y-117292360D01*
X138907640Y-117225140D01*
X138828597Y-117172326D01*
X138740769Y-117135946D01*
X138647532Y-117117400D01*
X138552468Y-117117400D01*
X138459231Y-117135946D01*
X138371403Y-117172326D01*
X138292360Y-117225140D01*
X138279000Y-117238500D01*
X138279000Y-116398768D01*
X141269720Y-116398768D01*
X141269720Y-116493832D01*
X141288266Y-116587069D01*
X141324646Y-116674897D01*
X141377460Y-116753940D01*
X141444680Y-116821160D01*
X141523723Y-116873974D01*
X141611551Y-116910354D01*
X141704788Y-116928900D01*
X141799852Y-116928900D01*
X141893089Y-116910354D01*
X141980917Y-116873974D01*
X142059960Y-116821160D01*
X142127180Y-116753940D01*
X142179994Y-116674897D01*
X142216374Y-116587069D01*
X142234920Y-116493832D01*
X142234920Y-116414008D01*
X142499069Y-116414008D01*
X142499069Y-116509072D01*
X142517615Y-116602309D01*
X142553995Y-116690137D01*
X142606809Y-116769180D01*
X142674029Y-116836400D01*
X142753072Y-116889214D01*
X142840900Y-116925594D01*
X142934137Y-116944140D01*
X143029201Y-116944140D01*
X143122438Y-116925594D01*
X143210266Y-116889214D01*
X143289309Y-116836400D01*
X143356529Y-116769180D01*
X143409343Y-116690137D01*
X143445723Y-116602309D01*
X143464269Y-116509072D01*
X143464269Y-116414008D01*
X143445723Y-116320771D01*
X143409343Y-116232943D01*
X143356529Y-116153900D01*
X143289309Y-116086680D01*
X143210266Y-116033866D01*
X143122438Y-115997486D01*
X143029201Y-115978940D01*
X142934137Y-115978940D01*
X142840900Y-115997486D01*
X142753072Y-116033866D01*
X142674029Y-116086680D01*
X142606809Y-116153900D01*
X142553995Y-116232943D01*
X142517615Y-116320771D01*
X142499069Y-116414008D01*
X142234920Y-116414008D01*
X142234920Y-116398768D01*
X142216374Y-116305531D01*
X142179994Y-116217703D01*
X142127180Y-116138660D01*
X142059960Y-116071440D01*
X141980917Y-116018626D01*
X141893089Y-115982246D01*
X141799852Y-115963700D01*
X141704788Y-115963700D01*
X141611551Y-115982246D01*
X141523723Y-116018626D01*
X141444680Y-116071440D01*
X141377460Y-116138660D01*
X141324646Y-116217703D01*
X141288266Y-116305531D01*
X141269720Y-116398768D01*
X138279000Y-116398768D01*
X138279000Y-115254000D01*
X141000000Y-115254000D01*
X141049553Y-115249119D01*
X141097202Y-115234665D01*
X141141115Y-115211193D01*
X141179605Y-115179605D01*
X141211193Y-115141115D01*
X141234665Y-115097202D01*
X141249119Y-115049553D01*
X141254000Y-115000000D01*
X141254000Y-113452468D01*
X144517400Y-113452468D01*
X144517400Y-113547532D01*
X144535946Y-113640769D01*
X144572326Y-113728597D01*
X144625140Y-113807640D01*
X144692360Y-113874860D01*
X144771403Y-113927674D01*
X144859231Y-113964054D01*
X144952468Y-113982600D01*
X145017400Y-113982600D01*
X145017400Y-114047532D01*
X145035946Y-114140769D01*
X145072326Y-114228597D01*
X145125140Y-114307640D01*
X145192360Y-114374860D01*
X145271403Y-114427674D01*
X145359231Y-114464054D01*
X145452468Y-114482600D01*
X145517400Y-114482600D01*
X145517400Y-114547532D01*
X145535946Y-114640769D01*
X145572326Y-114728597D01*
X145625140Y-114807640D01*
X145692360Y-114874860D01*
X145771403Y-114927674D01*
X145859231Y-114964054D01*
X145952468Y-114982600D01*
X146047532Y-114982600D01*
X146140769Y-114964054D01*
X146228597Y-114927674D01*
X146307640Y-114874860D01*
X146374860Y-114807640D01*
X146427674Y-114728597D01*
X146464054Y-114640769D01*
X146466939Y-114626266D01*
X146573247Y-114713511D01*
X146721607Y-114792811D01*
X146882587Y-114841643D01*
X147008048Y-114854000D01*
X147691952Y-114854000D01*
X147817413Y-114841643D01*
X147978393Y-114792811D01*
X148126753Y-114713511D01*
X148256791Y-114606791D01*
X148363511Y-114476753D01*
X148442811Y-114328393D01*
X148491643Y-114167413D01*
X148508132Y-114000000D01*
X148491643Y-113832587D01*
X148442811Y-113671607D01*
X148363511Y-113523247D01*
X148256791Y-113393209D01*
X148126753Y-113286489D01*
X147978393Y-113207189D01*
X147817413Y-113158357D01*
X147691952Y-113146000D01*
X147008048Y-113146000D01*
X146882587Y-113158357D01*
X146721607Y-113207189D01*
X146573247Y-113286489D01*
X146466939Y-113373734D01*
X146464054Y-113359231D01*
X146427674Y-113271403D01*
X146374860Y-113192360D01*
X146307640Y-113125140D01*
X146228597Y-113072326D01*
X146140769Y-113035946D01*
X146047532Y-113017400D01*
X145952468Y-113017400D01*
X145859231Y-113035946D01*
X145771403Y-113072326D01*
X145692360Y-113125140D01*
X145625140Y-113192360D01*
X145572326Y-113271403D01*
X145535946Y-113359231D01*
X145517400Y-113452468D01*
X145517400Y-113517400D01*
X145482600Y-113517400D01*
X145482600Y-113452468D01*
X145464054Y-113359231D01*
X145427674Y-113271403D01*
X145374860Y-113192360D01*
X145307640Y-113125140D01*
X145228597Y-113072326D01*
X145140769Y-113035946D01*
X145047532Y-113017400D01*
X144952468Y-113017400D01*
X144859231Y-113035946D01*
X144771403Y-113072326D01*
X144692360Y-113125140D01*
X144625140Y-113192360D01*
X144572326Y-113271403D01*
X144535946Y-113359231D01*
X144517400Y-113452468D01*
X141254000Y-113452468D01*
X141254000Y-111417721D01*
X141280940Y-111458040D01*
X141348160Y-111525260D01*
X141427203Y-111578074D01*
X141515031Y-111614454D01*
X141608268Y-111633000D01*
X141703332Y-111633000D01*
X141796569Y-111614454D01*
X141884397Y-111578074D01*
X141963440Y-111525260D01*
X142030660Y-111458040D01*
X142083474Y-111378997D01*
X142119854Y-111291169D01*
X142138400Y-111197932D01*
X142138400Y-111163090D01*
X142185923Y-111163090D01*
X142279160Y-111144544D01*
X142366988Y-111108164D01*
X142446031Y-111055350D01*
X142513251Y-110988130D01*
X142566065Y-110909087D01*
X142602445Y-110821259D01*
X142620991Y-110728022D01*
X142620991Y-110632958D01*
X142602445Y-110539721D01*
X142566065Y-110451893D01*
X142513251Y-110372850D01*
X142446031Y-110305630D01*
X142366988Y-110252816D01*
X142279160Y-110216436D01*
X142185923Y-110197890D01*
X142090859Y-110197890D01*
X141997622Y-110216436D01*
X141909794Y-110252816D01*
X141830751Y-110305630D01*
X141763531Y-110372850D01*
X141710717Y-110451893D01*
X141674337Y-110539721D01*
X141655791Y-110632958D01*
X141655791Y-110667800D01*
X141608268Y-110667800D01*
X141515031Y-110686346D01*
X141427203Y-110722726D01*
X141348160Y-110775540D01*
X141280940Y-110842760D01*
X141254000Y-110883079D01*
X141254000Y-109452468D01*
X144017400Y-109452468D01*
X144017400Y-109547532D01*
X144035946Y-109640769D01*
X144072326Y-109728597D01*
X144125140Y-109807640D01*
X144192360Y-109874860D01*
X144271403Y-109927674D01*
X144359231Y-109964054D01*
X144452468Y-109982600D01*
X144517400Y-109982600D01*
X144517400Y-110017400D01*
X144452468Y-110017400D01*
X144359231Y-110035946D01*
X144271403Y-110072326D01*
X144192360Y-110125140D01*
X144125140Y-110192360D01*
X144072326Y-110271403D01*
X144035946Y-110359231D01*
X144017400Y-110452468D01*
X144017400Y-110547532D01*
X144035946Y-110640769D01*
X144072326Y-110728597D01*
X144125140Y-110807640D01*
X144192360Y-110874860D01*
X144271403Y-110927674D01*
X144359231Y-110964054D01*
X144452468Y-110982600D01*
X144547532Y-110982600D01*
X144640769Y-110964054D01*
X144728597Y-110927674D01*
X144807640Y-110874860D01*
X144874860Y-110807640D01*
X144927674Y-110728597D01*
X144964054Y-110640769D01*
X144982600Y-110547532D01*
X144982600Y-110482600D01*
X145017400Y-110482600D01*
X145017400Y-110547532D01*
X145035946Y-110640769D01*
X145072326Y-110728597D01*
X145125140Y-110807640D01*
X145192360Y-110874860D01*
X145271403Y-110927674D01*
X145359231Y-110964054D01*
X145452468Y-110982600D01*
X145547532Y-110982600D01*
X145640769Y-110964054D01*
X145728597Y-110927674D01*
X145807640Y-110874860D01*
X145874860Y-110807640D01*
X145927674Y-110728597D01*
X145964054Y-110640769D01*
X145982600Y-110547532D01*
X145982600Y-110452468D01*
X145964054Y-110359231D01*
X145927674Y-110271403D01*
X145874860Y-110192360D01*
X145807640Y-110125140D01*
X145728597Y-110072326D01*
X145640769Y-110035946D01*
X145547532Y-110017400D01*
X145482600Y-110017400D01*
X145482600Y-110000000D01*
X146191868Y-110000000D01*
X146208357Y-110167413D01*
X146257189Y-110328393D01*
X146336489Y-110476753D01*
X146443209Y-110606791D01*
X146573247Y-110713511D01*
X146721607Y-110792811D01*
X146882587Y-110841643D01*
X147008048Y-110854000D01*
X147691952Y-110854000D01*
X147817413Y-110841643D01*
X147978393Y-110792811D01*
X148126753Y-110713511D01*
X148256791Y-110606791D01*
X148363511Y-110476753D01*
X148442811Y-110328393D01*
X148491643Y-110167413D01*
X148508132Y-110000000D01*
X148491643Y-109832587D01*
X148442811Y-109671607D01*
X148363511Y-109523247D01*
X148256791Y-109393209D01*
X148126753Y-109286489D01*
X147978393Y-109207189D01*
X147817413Y-109158357D01*
X147691952Y-109146000D01*
X147008048Y-109146000D01*
X146882587Y-109158357D01*
X146721607Y-109207189D01*
X146573247Y-109286489D01*
X146443209Y-109393209D01*
X146336489Y-109523247D01*
X146257189Y-109671607D01*
X146208357Y-109832587D01*
X146191868Y-110000000D01*
X145482600Y-110000000D01*
X145482600Y-109982600D01*
X145547532Y-109982600D01*
X145640769Y-109964054D01*
X145728597Y-109927674D01*
X145807640Y-109874860D01*
X145874860Y-109807640D01*
X145927674Y-109728597D01*
X145964054Y-109640769D01*
X145982600Y-109547532D01*
X145982600Y-109452468D01*
X145964054Y-109359231D01*
X145927674Y-109271403D01*
X145874860Y-109192360D01*
X145807640Y-109125140D01*
X145728597Y-109072326D01*
X145640769Y-109035946D01*
X145547532Y-109017400D01*
X145452468Y-109017400D01*
X145359231Y-109035946D01*
X145271403Y-109072326D01*
X145192360Y-109125140D01*
X145125140Y-109192360D01*
X145072326Y-109271403D01*
X145035946Y-109359231D01*
X145017400Y-109452468D01*
X145017400Y-109517400D01*
X144982600Y-109517400D01*
X144982600Y-109452468D01*
X144964054Y-109359231D01*
X144927674Y-109271403D01*
X144874860Y-109192360D01*
X144807640Y-109125140D01*
X144728597Y-109072326D01*
X144640769Y-109035946D01*
X144547532Y-109017400D01*
X144452468Y-109017400D01*
X144359231Y-109035946D01*
X144271403Y-109072326D01*
X144192360Y-109125140D01*
X144125140Y-109192360D01*
X144072326Y-109271403D01*
X144035946Y-109359231D01*
X144017400Y-109452468D01*
X141254000Y-109452468D01*
X141254000Y-107466989D01*
X141287497Y-107453114D01*
X141366540Y-107400300D01*
X141433760Y-107333080D01*
X141486574Y-107254037D01*
X141491531Y-107242068D01*
X142049500Y-107242068D01*
X142049500Y-107337132D01*
X142068046Y-107430369D01*
X142104426Y-107518197D01*
X142157240Y-107597240D01*
X142224460Y-107664460D01*
X142303503Y-107717274D01*
X142391331Y-107753654D01*
X142484568Y-107772200D01*
X142579632Y-107772200D01*
X142672869Y-107753654D01*
X142760697Y-107717274D01*
X142839740Y-107664460D01*
X142906960Y-107597240D01*
X142959774Y-107518197D01*
X142996154Y-107430369D01*
X143014700Y-107337132D01*
X143014700Y-107242068D01*
X142996154Y-107148831D01*
X142959774Y-107061003D01*
X142906960Y-106981960D01*
X142839740Y-106914740D01*
X142760697Y-106861926D01*
X142672869Y-106825546D01*
X142579632Y-106807000D01*
X142484568Y-106807000D01*
X142391331Y-106825546D01*
X142303503Y-106861926D01*
X142224460Y-106914740D01*
X142157240Y-106981960D01*
X142104426Y-107061003D01*
X142068046Y-107148831D01*
X142049500Y-107242068D01*
X141491531Y-107242068D01*
X141522954Y-107166209D01*
X141541500Y-107072972D01*
X141541500Y-106977908D01*
X141522954Y-106884671D01*
X141486574Y-106796843D01*
X141433760Y-106717800D01*
X141366540Y-106650580D01*
X141287497Y-106597766D01*
X141254000Y-106583891D01*
X141254000Y-105452468D01*
X144517400Y-105452468D01*
X144517400Y-105547532D01*
X144535946Y-105640769D01*
X144572326Y-105728597D01*
X144625140Y-105807640D01*
X144692360Y-105874860D01*
X144771403Y-105927674D01*
X144859231Y-105964054D01*
X144952468Y-105982600D01*
X145017400Y-105982600D01*
X145017400Y-106017400D01*
X144952468Y-106017400D01*
X144859231Y-106035946D01*
X144771403Y-106072326D01*
X144692360Y-106125140D01*
X144625140Y-106192360D01*
X144572326Y-106271403D01*
X144535946Y-106359231D01*
X144517400Y-106452468D01*
X144517400Y-106547532D01*
X144535946Y-106640769D01*
X144572326Y-106728597D01*
X144625140Y-106807640D01*
X144692360Y-106874860D01*
X144771403Y-106927674D01*
X144859231Y-106964054D01*
X144952468Y-106982600D01*
X145047532Y-106982600D01*
X145140769Y-106964054D01*
X145228597Y-106927674D01*
X145307640Y-106874860D01*
X145374860Y-106807640D01*
X145427674Y-106728597D01*
X145464054Y-106640769D01*
X145482600Y-106547532D01*
X145482600Y-106482600D01*
X145517400Y-106482600D01*
X145517400Y-106547532D01*
X145535946Y-106640769D01*
X145572326Y-106728597D01*
X145625140Y-106807640D01*
X145692360Y-106874860D01*
X145771403Y-106927674D01*
X145859231Y-106964054D01*
X145952468Y-106982600D01*
X146047532Y-106982600D01*
X146140769Y-106964054D01*
X146228597Y-106927674D01*
X146307640Y-106874860D01*
X146374860Y-106807640D01*
X146427674Y-106728597D01*
X146464054Y-106640769D01*
X146466939Y-106626266D01*
X146573247Y-106713511D01*
X146721607Y-106792811D01*
X146882587Y-106841643D01*
X147008048Y-106854000D01*
X147691952Y-106854000D01*
X147817413Y-106841643D01*
X147978393Y-106792811D01*
X148126753Y-106713511D01*
X148256791Y-106606791D01*
X148363511Y-106476753D01*
X148442811Y-106328393D01*
X148491643Y-106167413D01*
X148508132Y-106000000D01*
X148491643Y-105832587D01*
X148442811Y-105671607D01*
X148363511Y-105523247D01*
X148256791Y-105393209D01*
X148126753Y-105286489D01*
X147978393Y-105207189D01*
X147817413Y-105158357D01*
X147691952Y-105146000D01*
X147008048Y-105146000D01*
X146882587Y-105158357D01*
X146721607Y-105207189D01*
X146573247Y-105286489D01*
X146466939Y-105373734D01*
X146464054Y-105359231D01*
X146427674Y-105271403D01*
X146374860Y-105192360D01*
X146307640Y-105125140D01*
X146228597Y-105072326D01*
X146140769Y-105035946D01*
X146047532Y-105017400D01*
X145952468Y-105017400D01*
X145859231Y-105035946D01*
X145771403Y-105072326D01*
X145692360Y-105125140D01*
X145625140Y-105192360D01*
X145572326Y-105271403D01*
X145535946Y-105359231D01*
X145517400Y-105452468D01*
X145517400Y-105517400D01*
X145482600Y-105517400D01*
X145482600Y-105452468D01*
X145464054Y-105359231D01*
X145427674Y-105271403D01*
X145374860Y-105192360D01*
X145307640Y-105125140D01*
X145228597Y-105072326D01*
X145140769Y-105035946D01*
X145047532Y-105017400D01*
X144952468Y-105017400D01*
X144859231Y-105035946D01*
X144771403Y-105072326D01*
X144692360Y-105125140D01*
X144625140Y-105192360D01*
X144572326Y-105271403D01*
X144535946Y-105359231D01*
X144517400Y-105452468D01*
X141254000Y-105452468D01*
X141254000Y-105114062D01*
X141515208Y-104881877D01*
X141985979Y-104881877D01*
X141985979Y-104976941D01*
X142004525Y-105070178D01*
X142040905Y-105158006D01*
X142093719Y-105237049D01*
X142160939Y-105304269D01*
X142239982Y-105357083D01*
X142327810Y-105393463D01*
X142421047Y-105412009D01*
X142516111Y-105412009D01*
X142609348Y-105393463D01*
X142697176Y-105357083D01*
X142776219Y-105304269D01*
X142843439Y-105237049D01*
X142896253Y-105158006D01*
X142932633Y-105070178D01*
X142951179Y-104976941D01*
X142951179Y-104881877D01*
X142932633Y-104788640D01*
X142896253Y-104700812D01*
X142843439Y-104621769D01*
X142776219Y-104554549D01*
X142697176Y-104501735D01*
X142609348Y-104465355D01*
X142516111Y-104446809D01*
X142421047Y-104446809D01*
X142327810Y-104465355D01*
X142239982Y-104501735D01*
X142160939Y-104554549D01*
X142093719Y-104621769D01*
X142040905Y-104700812D01*
X142004525Y-104788640D01*
X141985979Y-104881877D01*
X141515208Y-104881877D01*
X144757320Y-102000000D01*
X146191868Y-102000000D01*
X146208357Y-102167413D01*
X146257189Y-102328393D01*
X146336489Y-102476753D01*
X146443209Y-102606791D01*
X146573247Y-102713511D01*
X146721607Y-102792811D01*
X146882587Y-102841643D01*
X147008048Y-102854000D01*
X147691952Y-102854000D01*
X147817413Y-102841643D01*
X147978393Y-102792811D01*
X148126753Y-102713511D01*
X148256791Y-102606791D01*
X148363511Y-102476753D01*
X148442811Y-102328393D01*
X148491643Y-102167413D01*
X148508132Y-102000000D01*
X148491643Y-101832587D01*
X148442811Y-101671607D01*
X148363511Y-101523247D01*
X148256791Y-101393209D01*
X148126753Y-101286489D01*
X147978393Y-101207189D01*
X147817413Y-101158357D01*
X147691952Y-101146000D01*
X147008048Y-101146000D01*
X146882587Y-101158357D01*
X146721607Y-101207189D01*
X146573247Y-101286489D01*
X146443209Y-101393209D01*
X146336489Y-101523247D01*
X146257189Y-101671607D01*
X146208357Y-101832587D01*
X146191868Y-102000000D01*
X144757320Y-102000000D01*
X145668748Y-101189842D01*
X145711193Y-101141115D01*
X145734665Y-101097202D01*
X145741036Y-101076200D01*
X148860000Y-101076200D01*
X148874866Y-101074736D01*
X148889160Y-101070400D01*
X148902334Y-101063358D01*
X148913882Y-101053882D01*
X148923358Y-101042334D01*
X148930400Y-101029160D01*
X148934736Y-101014866D01*
X148936200Y-101000000D01*
X148936200Y-99576200D01*
X152057271Y-99576200D01*
X152057271Y-99745000D01*
G37*
X152057271Y-99745000D02*
X152062175Y-99794793D01*
X152076699Y-99842672D01*
X152100285Y-99886798D01*
X152132026Y-99925474D01*
X152170702Y-99957215D01*
X152214828Y-99980801D01*
X152262707Y-99995325D01*
X152312500Y-100000229D01*
X154546000Y-100000229D01*
X154546000Y-100124772D01*
X154217500Y-100124772D01*
X154167707Y-100129676D01*
X154119828Y-100144200D01*
X154075703Y-100167786D01*
X154037027Y-100199527D01*
X154005286Y-100238203D01*
X153981700Y-100282328D01*
X153967176Y-100330207D01*
X153962272Y-100380000D01*
X153962272Y-101370000D01*
X153967176Y-101419793D01*
X153981700Y-101467672D01*
X154005286Y-101511797D01*
X154037027Y-101550473D01*
X154075703Y-101582214D01*
X154119828Y-101605800D01*
X154167707Y-101620324D01*
X154217500Y-101625228D01*
X154532855Y-101625228D01*
X154535946Y-101640769D01*
X154546000Y-101665041D01*
X154546000Y-101834959D01*
X154535946Y-101859231D01*
X154517400Y-101952468D01*
X154517400Y-102047532D01*
X154535946Y-102140769D01*
X154546000Y-102165041D01*
X154546000Y-102334959D01*
X154535946Y-102359231D01*
X154517400Y-102452468D01*
X154517400Y-102547532D01*
X154535946Y-102640769D01*
X154546000Y-102665041D01*
X154546000Y-102834959D01*
X154535946Y-102859231D01*
X154517400Y-102952468D01*
X154517400Y-103047532D01*
X154535946Y-103140769D01*
X154546000Y-103165041D01*
X154546000Y-103400000D01*
X154550881Y-103449553D01*
X154565335Y-103497202D01*
X154588807Y-103541115D01*
X154620395Y-103579605D01*
X154658885Y-103611193D01*
X154702798Y-103634665D01*
X154746000Y-103647770D01*
X154746000Y-104923800D01*
X154455228Y-104923800D01*
X154455228Y-104629999D01*
X154445520Y-104531434D01*
X154416770Y-104436657D01*
X154370082Y-104349310D01*
X154307250Y-104272750D01*
X154230690Y-104209918D01*
X154143343Y-104163230D01*
X154048566Y-104134480D01*
X153950001Y-104124772D01*
X153049999Y-104124772D01*
X153001996Y-104129500D01*
X152835553Y-104129500D01*
X152795000Y-104125506D01*
X152754447Y-104129500D01*
X152183004Y-104129500D01*
X152135001Y-104124772D01*
X151234999Y-104124772D01*
X151186996Y-104129500D01*
X150610550Y-104129500D01*
X150570000Y-104125506D01*
X150529450Y-104129500D01*
X150368004Y-104129500D01*
X150320001Y-104124772D01*
X149419999Y-104124772D01*
X149321434Y-104134480D01*
X149226657Y-104163230D01*
X149139310Y-104209918D01*
X149062750Y-104272750D01*
X148999918Y-104349310D01*
X148953230Y-104436657D01*
X148924480Y-104531434D01*
X148914772Y-104629999D01*
X148914772Y-105280001D01*
X148924480Y-105378566D01*
X148953230Y-105473343D01*
X148999918Y-105560690D01*
X149044501Y-105615013D01*
X149044501Y-105847735D01*
X148946118Y-105946118D01*
X148936642Y-105957666D01*
X148929600Y-105970840D01*
X148925264Y-105985134D01*
X148923800Y-106000000D01*
X148923800Y-120721000D01*
X146368454Y-120721000D01*
X146377640Y-120714862D01*
X146444860Y-120647642D01*
X146497674Y-120568599D01*
X146534054Y-120480771D01*
X146552600Y-120387534D01*
X146552600Y-120376825D01*
X146645142Y-120358417D01*
X146732970Y-120322037D01*
X146812013Y-120269223D01*
X146879233Y-120202003D01*
X146932047Y-120122960D01*
X146968427Y-120035132D01*
X146986973Y-119941895D01*
X146986973Y-119846831D01*
X146968427Y-119753594D01*
X146932047Y-119665766D01*
X146879233Y-119586723D01*
X146812013Y-119519503D01*
X146789842Y-119504689D01*
X146780252Y-119486747D01*
X146762601Y-119465239D01*
X146738989Y-119436468D01*
X146726391Y-119426129D01*
X146228129Y-118927868D01*
X146228597Y-118927674D01*
X146307640Y-118874860D01*
X146374860Y-118807640D01*
X146427674Y-118728597D01*
X146464054Y-118640769D01*
X146466939Y-118626266D01*
X146573247Y-118713511D01*
X146721607Y-118792811D01*
X146882587Y-118841643D01*
X147008048Y-118854000D01*
X147128607Y-118854000D01*
X147057278Y-118883546D01*
X146978235Y-118936360D01*
X146911015Y-119003580D01*
X146858201Y-119082623D01*
X146821821Y-119170451D01*
X146803275Y-119263688D01*
X146803275Y-119358752D01*
X146821821Y-119451989D01*
X146858201Y-119539817D01*
X146911015Y-119618860D01*
X146978235Y-119686080D01*
X147057278Y-119738894D01*
X147145106Y-119775274D01*
X147238343Y-119793820D01*
X147333407Y-119793820D01*
X147426644Y-119775274D01*
X147514472Y-119738894D01*
X147593515Y-119686080D01*
X147593619Y-119685977D01*
X147600509Y-119692867D01*
X147679552Y-119745681D01*
X147767380Y-119782061D01*
X147860617Y-119800607D01*
X147955681Y-119800607D01*
X148048918Y-119782061D01*
X148136746Y-119745681D01*
X148215789Y-119692867D01*
X148283009Y-119625647D01*
X148335823Y-119546604D01*
X148372203Y-119458776D01*
X148387769Y-119380518D01*
X148414807Y-119380518D01*
X148508044Y-119361972D01*
X148595872Y-119325592D01*
X148674915Y-119272778D01*
X148742135Y-119205558D01*
X148794949Y-119126515D01*
X148831329Y-119038687D01*
X148849875Y-118945450D01*
X148849875Y-118850386D01*
X148831329Y-118757149D01*
X148794949Y-118669321D01*
X148742135Y-118590278D01*
X148674915Y-118523058D01*
X148595872Y-118470244D01*
X148508044Y-118433864D01*
X148414807Y-118415318D01*
X148396349Y-118415318D01*
X148442811Y-118328393D01*
X148491643Y-118167413D01*
X148508132Y-118000000D01*
X148491643Y-117832587D01*
X148442811Y-117671607D01*
X148363511Y-117523247D01*
X148256791Y-117393209D01*
X148126753Y-117286489D01*
X147978393Y-117207189D01*
X147817413Y-117158357D01*
X147691952Y-117146000D01*
X147008048Y-117146000D01*
X146882587Y-117158357D01*
X146721607Y-117207189D01*
X146573247Y-117286489D01*
X146466939Y-117373734D01*
X146464054Y-117359231D01*
X146427674Y-117271403D01*
X146374860Y-117192360D01*
X146307640Y-117125140D01*
X146228597Y-117072326D01*
X146140769Y-117035946D01*
X146047532Y-117017400D01*
X145982600Y-117017400D01*
X145982600Y-116952468D01*
X145964054Y-116859231D01*
X145927674Y-116771403D01*
X145874860Y-116692360D01*
X145807640Y-116625140D01*
X145728597Y-116572326D01*
X145640769Y-116535946D01*
X145547532Y-116517400D01*
X145452468Y-116517400D01*
X145359231Y-116535946D01*
X145271403Y-116572326D01*
X145192360Y-116625140D01*
X145125140Y-116692360D01*
X145072326Y-116771403D01*
X145035946Y-116859231D01*
X145017400Y-116952468D01*
X145017400Y-117047532D01*
X145035946Y-117140769D01*
X145072326Y-117228597D01*
X145125140Y-117307640D01*
X145192360Y-117374860D01*
X145271403Y-117427674D01*
X145359231Y-117464054D01*
X145452468Y-117482600D01*
X145517400Y-117482600D01*
X145517400Y-117517400D01*
X145452468Y-117517400D01*
X145359231Y-117535946D01*
X145271403Y-117572326D01*
X145192360Y-117625140D01*
X145125140Y-117692360D01*
X145072326Y-117771403D01*
X145035946Y-117859231D01*
X145017400Y-117952468D01*
X145017400Y-118047532D01*
X145035946Y-118140769D01*
X145072326Y-118228597D01*
X145125140Y-118307640D01*
X145192360Y-118374860D01*
X145271403Y-118427674D01*
X145359231Y-118464054D01*
X145452468Y-118482600D01*
X145517400Y-118482600D01*
X145517400Y-118510989D01*
X144215343Y-118510989D01*
X144199130Y-118509392D01*
X144182917Y-118510989D01*
X144182916Y-118510989D01*
X144134401Y-118515767D01*
X144072158Y-118534649D01*
X144048055Y-118547532D01*
X144014793Y-118565310D01*
X143990873Y-118584942D01*
X143964515Y-118606573D01*
X143954176Y-118619171D01*
X143619692Y-118953656D01*
X143556532Y-118953656D01*
X143463295Y-118972202D01*
X143375467Y-119008582D01*
X143296424Y-119061396D01*
X143229204Y-119128616D01*
X143176390Y-119207659D01*
X143140010Y-119295487D01*
X143121464Y-119388724D01*
X143121464Y-119483788D01*
X143140010Y-119577025D01*
X143176390Y-119664853D01*
X143229204Y-119743896D01*
X143296424Y-119811116D01*
X143318884Y-119826123D01*
X143313462Y-119834238D01*
X143277082Y-119922066D01*
X143276935Y-119922803D01*
X143267972Y-119921020D01*
X143172908Y-119921020D01*
X143079671Y-119939566D01*
X142991843Y-119975946D01*
X142912800Y-120028760D01*
X142845580Y-120095980D01*
X142792766Y-120175023D01*
X142756386Y-120262851D01*
X142737840Y-120356088D01*
X142737840Y-120451152D01*
X142756386Y-120544389D01*
X142792766Y-120632217D01*
X142845580Y-120711260D01*
X142855320Y-120721000D01*
X138513650Y-120721000D01*
X138457333Y-120715478D01*
X138416291Y-120703087D01*
X138378442Y-120682962D01*
X138345220Y-120655867D01*
X138317890Y-120622830D01*
X138297502Y-120585124D01*
X138284825Y-120544170D01*
X138279000Y-120488752D01*
X138279000Y-118522208D01*
X138521440Y-118522208D01*
X138521440Y-118617272D01*
X138539986Y-118710509D01*
X138576366Y-118798337D01*
X138629180Y-118877380D01*
X138696400Y-118944600D01*
X138775443Y-118997414D01*
X138863271Y-119033794D01*
X138956508Y-119052340D01*
X139051572Y-119052340D01*
X139144809Y-119033794D01*
X139232637Y-118997414D01*
X139311680Y-118944600D01*
X139378900Y-118877380D01*
X139431714Y-118798337D01*
X139468094Y-118710509D01*
X139486640Y-118617272D01*
X139486640Y-118570468D01*
X139522200Y-118570468D01*
X139522200Y-118665532D01*
X139540746Y-118758769D01*
X139577126Y-118846597D01*
X139629940Y-118925640D01*
X139697160Y-118992860D01*
X139776203Y-119045674D01*
X139864031Y-119082054D01*
X139957268Y-119100600D01*
X140052332Y-119100600D01*
X140145569Y-119082054D01*
X140233397Y-119045674D01*
X140312440Y-118992860D01*
X140379660Y-118925640D01*
X140432474Y-118846597D01*
X140468854Y-118758769D01*
X140487400Y-118665532D01*
X140487400Y-118570468D01*
X140741400Y-118570468D01*
X140741400Y-118665532D01*
X140759946Y-118758769D01*
X140796326Y-118846597D01*
X140849140Y-118925640D01*
X140916360Y-118992860D01*
X140995403Y-119045674D01*
X141083231Y-119082054D01*
X141176468Y-119100600D01*
X141271532Y-119100600D01*
X141364769Y-119082054D01*
X141452597Y-119045674D01*
X141531640Y-118992860D01*
X141598860Y-118925640D01*
X141648883Y-118850773D01*
X141659926Y-118877432D01*
X141712740Y-118956475D01*
X141779960Y-119023695D01*
X141859003Y-119076509D01*
X141946831Y-119112889D01*
X142040068Y-119131435D01*
X142135132Y-119131435D01*
X142228369Y-119112889D01*
X142316197Y-119076509D01*
X142395240Y-119023695D01*
X142462460Y-118956475D01*
X142515274Y-118877432D01*
X142551654Y-118789604D01*
X142570200Y-118696367D01*
X142570200Y-118601303D01*
X142551654Y-118508066D01*
X142515274Y-118420238D01*
X142462460Y-118341195D01*
X142395240Y-118273975D01*
X142316197Y-118221161D01*
X142228369Y-118184781D01*
X142135132Y-118166235D01*
X142040068Y-118166235D01*
X141946831Y-118184781D01*
X141859003Y-118221161D01*
X141779960Y-118273975D01*
X141712740Y-118341195D01*
X141662717Y-118416062D01*
X141651674Y-118389403D01*
X141598860Y-118310360D01*
X141531640Y-118243140D01*
X141452597Y-118190326D01*
X141364769Y-118153946D01*
X141271532Y-118135400D01*
X141176468Y-118135400D01*
X141083231Y-118153946D01*
X140995403Y-118190326D01*
X140916360Y-118243140D01*
X140849140Y-118310360D01*
X140796326Y-118389403D01*
X140759946Y-118477231D01*
X140741400Y-118570468D01*
X140487400Y-118570468D01*
X140468854Y-118477231D01*
X140432474Y-118389403D01*
X140379660Y-118310360D01*
X140312440Y-118243140D01*
X140233397Y-118190326D01*
X140145569Y-118153946D01*
X140052332Y-118135400D01*
X139957268Y-118135400D01*
X139864031Y-118153946D01*
X139776203Y-118190326D01*
X139697160Y-118243140D01*
X139629940Y-118310360D01*
X139577126Y-118389403D01*
X139540746Y-118477231D01*
X139522200Y-118570468D01*
X139486640Y-118570468D01*
X139486640Y-118522208D01*
X139468094Y-118428971D01*
X139431714Y-118341143D01*
X139378900Y-118262100D01*
X139311680Y-118194880D01*
X139232637Y-118142066D01*
X139144809Y-118105686D01*
X139051572Y-118087140D01*
X138956508Y-118087140D01*
X138863271Y-118105686D01*
X138775443Y-118142066D01*
X138696400Y-118194880D01*
X138629180Y-118262100D01*
X138576366Y-118341143D01*
X138539986Y-118428971D01*
X138521440Y-118522208D01*
X138279000Y-118522208D01*
X138279000Y-117961500D01*
X138292360Y-117974860D01*
X138371403Y-118027674D01*
X138459231Y-118064054D01*
X138552468Y-118082600D01*
X138647532Y-118082600D01*
X138740769Y-118064054D01*
X138828597Y-118027674D01*
X138907640Y-117974860D01*
X138974860Y-117907640D01*
X139027674Y-117828597D01*
X139064054Y-117740769D01*
X139082600Y-117647532D01*
X139082600Y-117552468D01*
X139064054Y-117459231D01*
X139027674Y-117371403D01*
X138974860Y-117292360D01*
X138907640Y-117225140D01*
X138828597Y-117172326D01*
X138740769Y-117135946D01*
X138647532Y-117117400D01*
X138552468Y-117117400D01*
X138459231Y-117135946D01*
X138371403Y-117172326D01*
X138292360Y-117225140D01*
X138279000Y-117238500D01*
X138279000Y-116398768D01*
X141269720Y-116398768D01*
X141269720Y-116493832D01*
X141288266Y-116587069D01*
X141324646Y-116674897D01*
X141377460Y-116753940D01*
X141444680Y-116821160D01*
X141523723Y-116873974D01*
X141611551Y-116910354D01*
X141704788Y-116928900D01*
X141799852Y-116928900D01*
X141893089Y-116910354D01*
X141980917Y-116873974D01*
X142059960Y-116821160D01*
X142127180Y-116753940D01*
X142179994Y-116674897D01*
X142216374Y-116587069D01*
X142234920Y-116493832D01*
X142234920Y-116414008D01*
X142499069Y-116414008D01*
X142499069Y-116509072D01*
X142517615Y-116602309D01*
X142553995Y-116690137D01*
X142606809Y-116769180D01*
X142674029Y-116836400D01*
X142753072Y-116889214D01*
X142840900Y-116925594D01*
X142934137Y-116944140D01*
X143029201Y-116944140D01*
X143122438Y-116925594D01*
X143210266Y-116889214D01*
X143289309Y-116836400D01*
X143356529Y-116769180D01*
X143409343Y-116690137D01*
X143445723Y-116602309D01*
X143464269Y-116509072D01*
X143464269Y-116414008D01*
X143445723Y-116320771D01*
X143409343Y-116232943D01*
X143356529Y-116153900D01*
X143289309Y-116086680D01*
X143210266Y-116033866D01*
X143122438Y-115997486D01*
X143029201Y-115978940D01*
X142934137Y-115978940D01*
X142840900Y-115997486D01*
X142753072Y-116033866D01*
X142674029Y-116086680D01*
X142606809Y-116153900D01*
X142553995Y-116232943D01*
X142517615Y-116320771D01*
X142499069Y-116414008D01*
X142234920Y-116414008D01*
X142234920Y-116398768D01*
X142216374Y-116305531D01*
X142179994Y-116217703D01*
X142127180Y-116138660D01*
X142059960Y-116071440D01*
X141980917Y-116018626D01*
X141893089Y-115982246D01*
X141799852Y-115963700D01*
X141704788Y-115963700D01*
X141611551Y-115982246D01*
X141523723Y-116018626D01*
X141444680Y-116071440D01*
X141377460Y-116138660D01*
X141324646Y-116217703D01*
X141288266Y-116305531D01*
X141269720Y-116398768D01*
X138279000Y-116398768D01*
X138279000Y-115254000D01*
X141000000Y-115254000D01*
X141049553Y-115249119D01*
X141097202Y-115234665D01*
X141141115Y-115211193D01*
X141179605Y-115179605D01*
X141211193Y-115141115D01*
X141234665Y-115097202D01*
X141249119Y-115049553D01*
X141254000Y-115000000D01*
X141254000Y-113452468D01*
X144517400Y-113452468D01*
X144517400Y-113547532D01*
X144535946Y-113640769D01*
X144572326Y-113728597D01*
X144625140Y-113807640D01*
X144692360Y-113874860D01*
X144771403Y-113927674D01*
X144859231Y-113964054D01*
X144952468Y-113982600D01*
X145017400Y-113982600D01*
X145017400Y-114047532D01*
X145035946Y-114140769D01*
X145072326Y-114228597D01*
X145125140Y-114307640D01*
X145192360Y-114374860D01*
X145271403Y-114427674D01*
X145359231Y-114464054D01*
X145452468Y-114482600D01*
X145517400Y-114482600D01*
X145517400Y-114547532D01*
X145535946Y-114640769D01*
X145572326Y-114728597D01*
X145625140Y-114807640D01*
X145692360Y-114874860D01*
X145771403Y-114927674D01*
X145859231Y-114964054D01*
X145952468Y-114982600D01*
X146047532Y-114982600D01*
X146140769Y-114964054D01*
X146228597Y-114927674D01*
X146307640Y-114874860D01*
X146374860Y-114807640D01*
X146427674Y-114728597D01*
X146464054Y-114640769D01*
X146466939Y-114626266D01*
X146573247Y-114713511D01*
X146721607Y-114792811D01*
X146882587Y-114841643D01*
X147008048Y-114854000D01*
X147691952Y-114854000D01*
X147817413Y-114841643D01*
X147978393Y-114792811D01*
X148126753Y-114713511D01*
X148256791Y-114606791D01*
X148363511Y-114476753D01*
X148442811Y-114328393D01*
X148491643Y-114167413D01*
X148508132Y-114000000D01*
X148491643Y-113832587D01*
X148442811Y-113671607D01*
X148363511Y-113523247D01*
X148256791Y-113393209D01*
X148126753Y-113286489D01*
X147978393Y-113207189D01*
X147817413Y-113158357D01*
X147691952Y-113146000D01*
X147008048Y-113146000D01*
X146882587Y-113158357D01*
X146721607Y-113207189D01*
X146573247Y-113286489D01*
X146466939Y-113373734D01*
X146464054Y-113359231D01*
X146427674Y-113271403D01*
X146374860Y-113192360D01*
X146307640Y-113125140D01*
X146228597Y-113072326D01*
X146140769Y-113035946D01*
X146047532Y-113017400D01*
X145952468Y-113017400D01*
X145859231Y-113035946D01*
X145771403Y-113072326D01*
X145692360Y-113125140D01*
X145625140Y-113192360D01*
X145572326Y-113271403D01*
X145535946Y-113359231D01*
X145517400Y-113452468D01*
X145517400Y-113517400D01*
X145482600Y-113517400D01*
X145482600Y-113452468D01*
X145464054Y-113359231D01*
X145427674Y-113271403D01*
X145374860Y-113192360D01*
X145307640Y-113125140D01*
X145228597Y-113072326D01*
X145140769Y-113035946D01*
X145047532Y-113017400D01*
X144952468Y-113017400D01*
X144859231Y-113035946D01*
X144771403Y-113072326D01*
X144692360Y-113125140D01*
X144625140Y-113192360D01*
X144572326Y-113271403D01*
X144535946Y-113359231D01*
X144517400Y-113452468D01*
X141254000Y-113452468D01*
X141254000Y-111417721D01*
X141280940Y-111458040D01*
X141348160Y-111525260D01*
X141427203Y-111578074D01*
X141515031Y-111614454D01*
X141608268Y-111633000D01*
X141703332Y-111633000D01*
X141796569Y-111614454D01*
X141884397Y-111578074D01*
X141963440Y-111525260D01*
X142030660Y-111458040D01*
X142083474Y-111378997D01*
X142119854Y-111291169D01*
X142138400Y-111197932D01*
X142138400Y-111163090D01*
X142185923Y-111163090D01*
X142279160Y-111144544D01*
X142366988Y-111108164D01*
X142446031Y-111055350D01*
X142513251Y-110988130D01*
X142566065Y-110909087D01*
X142602445Y-110821259D01*
X142620991Y-110728022D01*
X142620991Y-110632958D01*
X142602445Y-110539721D01*
X142566065Y-110451893D01*
X142513251Y-110372850D01*
X142446031Y-110305630D01*
X142366988Y-110252816D01*
X142279160Y-110216436D01*
X142185923Y-110197890D01*
X142090859Y-110197890D01*
X141997622Y-110216436D01*
X141909794Y-110252816D01*
X141830751Y-110305630D01*
X141763531Y-110372850D01*
X141710717Y-110451893D01*
X141674337Y-110539721D01*
X141655791Y-110632958D01*
X141655791Y-110667800D01*
X141608268Y-110667800D01*
X141515031Y-110686346D01*
X141427203Y-110722726D01*
X141348160Y-110775540D01*
X141280940Y-110842760D01*
X141254000Y-110883079D01*
X141254000Y-109452468D01*
X144017400Y-109452468D01*
X144017400Y-109547532D01*
X144035946Y-109640769D01*
X144072326Y-109728597D01*
X144125140Y-109807640D01*
X144192360Y-109874860D01*
X144271403Y-109927674D01*
X144359231Y-109964054D01*
X144452468Y-109982600D01*
X144517400Y-109982600D01*
X144517400Y-110017400D01*
X144452468Y-110017400D01*
X144359231Y-110035946D01*
X144271403Y-110072326D01*
X144192360Y-110125140D01*
X144125140Y-110192360D01*
X144072326Y-110271403D01*
X144035946Y-110359231D01*
X144017400Y-110452468D01*
X144017400Y-110547532D01*
X144035946Y-110640769D01*
X144072326Y-110728597D01*
X144125140Y-110807640D01*
X144192360Y-110874860D01*
X144271403Y-110927674D01*
X144359231Y-110964054D01*
X144452468Y-110982600D01*
X144547532Y-110982600D01*
X144640769Y-110964054D01*
X144728597Y-110927674D01*
X144807640Y-110874860D01*
X144874860Y-110807640D01*
X144927674Y-110728597D01*
X144964054Y-110640769D01*
X144982600Y-110547532D01*
X144982600Y-110482600D01*
X145017400Y-110482600D01*
X145017400Y-110547532D01*
X145035946Y-110640769D01*
X145072326Y-110728597D01*
X145125140Y-110807640D01*
X145192360Y-110874860D01*
X145271403Y-110927674D01*
X145359231Y-110964054D01*
X145452468Y-110982600D01*
X145547532Y-110982600D01*
X145640769Y-110964054D01*
X145728597Y-110927674D01*
X145807640Y-110874860D01*
X145874860Y-110807640D01*
X145927674Y-110728597D01*
X145964054Y-110640769D01*
X145982600Y-110547532D01*
X145982600Y-110452468D01*
X145964054Y-110359231D01*
X145927674Y-110271403D01*
X145874860Y-110192360D01*
X145807640Y-110125140D01*
X145728597Y-110072326D01*
X145640769Y-110035946D01*
X145547532Y-110017400D01*
X145482600Y-110017400D01*
X145482600Y-110000000D01*
X146191868Y-110000000D01*
X146208357Y-110167413D01*
X146257189Y-110328393D01*
X146336489Y-110476753D01*
X146443209Y-110606791D01*
X146573247Y-110713511D01*
X146721607Y-110792811D01*
X146882587Y-110841643D01*
X147008048Y-110854000D01*
X147691952Y-110854000D01*
X147817413Y-110841643D01*
X147978393Y-110792811D01*
X148126753Y-110713511D01*
X148256791Y-110606791D01*
X148363511Y-110476753D01*
X148442811Y-110328393D01*
X148491643Y-110167413D01*
X148508132Y-110000000D01*
X148491643Y-109832587D01*
X148442811Y-109671607D01*
X148363511Y-109523247D01*
X148256791Y-109393209D01*
X148126753Y-109286489D01*
X147978393Y-109207189D01*
X147817413Y-109158357D01*
X147691952Y-109146000D01*
X147008048Y-109146000D01*
X146882587Y-109158357D01*
X146721607Y-109207189D01*
X146573247Y-109286489D01*
X146443209Y-109393209D01*
X146336489Y-109523247D01*
X146257189Y-109671607D01*
X146208357Y-109832587D01*
X146191868Y-110000000D01*
X145482600Y-110000000D01*
X145482600Y-109982600D01*
X145547532Y-109982600D01*
X145640769Y-109964054D01*
X145728597Y-109927674D01*
X145807640Y-109874860D01*
X145874860Y-109807640D01*
X145927674Y-109728597D01*
X145964054Y-109640769D01*
X145982600Y-109547532D01*
X145982600Y-109452468D01*
X145964054Y-109359231D01*
X145927674Y-109271403D01*
X145874860Y-109192360D01*
X145807640Y-109125140D01*
X145728597Y-109072326D01*
X145640769Y-109035946D01*
X145547532Y-109017400D01*
X145452468Y-109017400D01*
X145359231Y-109035946D01*
X145271403Y-109072326D01*
X145192360Y-109125140D01*
X145125140Y-109192360D01*
X145072326Y-109271403D01*
X145035946Y-109359231D01*
X145017400Y-109452468D01*
X145017400Y-109517400D01*
X144982600Y-109517400D01*
X144982600Y-109452468D01*
X144964054Y-109359231D01*
X144927674Y-109271403D01*
X144874860Y-109192360D01*
X144807640Y-109125140D01*
X144728597Y-109072326D01*
X144640769Y-109035946D01*
X144547532Y-109017400D01*
X144452468Y-109017400D01*
X144359231Y-109035946D01*
X144271403Y-109072326D01*
X144192360Y-109125140D01*
X144125140Y-109192360D01*
X144072326Y-109271403D01*
X144035946Y-109359231D01*
X144017400Y-109452468D01*
X141254000Y-109452468D01*
X141254000Y-107466989D01*
X141287497Y-107453114D01*
X141366540Y-107400300D01*
X141433760Y-107333080D01*
X141486574Y-107254037D01*
X141491531Y-107242068D01*
X142049500Y-107242068D01*
X142049500Y-107337132D01*
X142068046Y-107430369D01*
X142104426Y-107518197D01*
X142157240Y-107597240D01*
X142224460Y-107664460D01*
X142303503Y-107717274D01*
X142391331Y-107753654D01*
X142484568Y-107772200D01*
X142579632Y-107772200D01*
X142672869Y-107753654D01*
X142760697Y-107717274D01*
X142839740Y-107664460D01*
X142906960Y-107597240D01*
X142959774Y-107518197D01*
X142996154Y-107430369D01*
X143014700Y-107337132D01*
X143014700Y-107242068D01*
X142996154Y-107148831D01*
X142959774Y-107061003D01*
X142906960Y-106981960D01*
X142839740Y-106914740D01*
X142760697Y-106861926D01*
X142672869Y-106825546D01*
X142579632Y-106807000D01*
X142484568Y-106807000D01*
X142391331Y-106825546D01*
X142303503Y-106861926D01*
X142224460Y-106914740D01*
X142157240Y-106981960D01*
X142104426Y-107061003D01*
X142068046Y-107148831D01*
X142049500Y-107242068D01*
X141491531Y-107242068D01*
X141522954Y-107166209D01*
X141541500Y-107072972D01*
X141541500Y-106977908D01*
X141522954Y-106884671D01*
X141486574Y-106796843D01*
X141433760Y-106717800D01*
X141366540Y-106650580D01*
X141287497Y-106597766D01*
X141254000Y-106583891D01*
X141254000Y-105452468D01*
X144517400Y-105452468D01*
X144517400Y-105547532D01*
X144535946Y-105640769D01*
X144572326Y-105728597D01*
X144625140Y-105807640D01*
X144692360Y-105874860D01*
X144771403Y-105927674D01*
X144859231Y-105964054D01*
X144952468Y-105982600D01*
X145017400Y-105982600D01*
X145017400Y-106017400D01*
X144952468Y-106017400D01*
X144859231Y-106035946D01*
X144771403Y-106072326D01*
X144692360Y-106125140D01*
X144625140Y-106192360D01*
X144572326Y-106271403D01*
X144535946Y-106359231D01*
X144517400Y-106452468D01*
X144517400Y-106547532D01*
X144535946Y-106640769D01*
X144572326Y-106728597D01*
X144625140Y-106807640D01*
X144692360Y-106874860D01*
X144771403Y-106927674D01*
X144859231Y-106964054D01*
X144952468Y-106982600D01*
X145047532Y-106982600D01*
X145140769Y-106964054D01*
X145228597Y-106927674D01*
X145307640Y-106874860D01*
X145374860Y-106807640D01*
X145427674Y-106728597D01*
X145464054Y-106640769D01*
X145482600Y-106547532D01*
X145482600Y-106482600D01*
X145517400Y-106482600D01*
X145517400Y-106547532D01*
X145535946Y-106640769D01*
X145572326Y-106728597D01*
X145625140Y-106807640D01*
X145692360Y-106874860D01*
X145771403Y-106927674D01*
X145859231Y-106964054D01*
X145952468Y-106982600D01*
X146047532Y-106982600D01*
X146140769Y-106964054D01*
X146228597Y-106927674D01*
X146307640Y-106874860D01*
X146374860Y-106807640D01*
X146427674Y-106728597D01*
X146464054Y-106640769D01*
X146466939Y-106626266D01*
X146573247Y-106713511D01*
X146721607Y-106792811D01*
X146882587Y-106841643D01*
X147008048Y-106854000D01*
X147691952Y-106854000D01*
X147817413Y-106841643D01*
X147978393Y-106792811D01*
X148126753Y-106713511D01*
X148256791Y-106606791D01*
X148363511Y-106476753D01*
X148442811Y-106328393D01*
X148491643Y-106167413D01*
X148508132Y-106000000D01*
X148491643Y-105832587D01*
X148442811Y-105671607D01*
X148363511Y-105523247D01*
X148256791Y-105393209D01*
X148126753Y-105286489D01*
X147978393Y-105207189D01*
X147817413Y-105158357D01*
X147691952Y-105146000D01*
X147008048Y-105146000D01*
X146882587Y-105158357D01*
X146721607Y-105207189D01*
X146573247Y-105286489D01*
X146466939Y-105373734D01*
X146464054Y-105359231D01*
X146427674Y-105271403D01*
X146374860Y-105192360D01*
X146307640Y-105125140D01*
X146228597Y-105072326D01*
X146140769Y-105035946D01*
X146047532Y-105017400D01*
X145952468Y-105017400D01*
X145859231Y-105035946D01*
X145771403Y-105072326D01*
X145692360Y-105125140D01*
X145625140Y-105192360D01*
X145572326Y-105271403D01*
X145535946Y-105359231D01*
X145517400Y-105452468D01*
X145517400Y-105517400D01*
X145482600Y-105517400D01*
X145482600Y-105452468D01*
X145464054Y-105359231D01*
X145427674Y-105271403D01*
X145374860Y-105192360D01*
X145307640Y-105125140D01*
X145228597Y-105072326D01*
X145140769Y-105035946D01*
X145047532Y-105017400D01*
X144952468Y-105017400D01*
X144859231Y-105035946D01*
X144771403Y-105072326D01*
X144692360Y-105125140D01*
X144625140Y-105192360D01*
X144572326Y-105271403D01*
X144535946Y-105359231D01*
X144517400Y-105452468D01*
X141254000Y-105452468D01*
X141254000Y-105114062D01*
X141515208Y-104881877D01*
X141985979Y-104881877D01*
X141985979Y-104976941D01*
X142004525Y-105070178D01*
X142040905Y-105158006D01*
X142093719Y-105237049D01*
X142160939Y-105304269D01*
X142239982Y-105357083D01*
X142327810Y-105393463D01*
X142421047Y-105412009D01*
X142516111Y-105412009D01*
X142609348Y-105393463D01*
X142697176Y-105357083D01*
X142776219Y-105304269D01*
X142843439Y-105237049D01*
X142896253Y-105158006D01*
X142932633Y-105070178D01*
X142951179Y-104976941D01*
X142951179Y-104881877D01*
X142932633Y-104788640D01*
X142896253Y-104700812D01*
X142843439Y-104621769D01*
X142776219Y-104554549D01*
X142697176Y-104501735D01*
X142609348Y-104465355D01*
X142516111Y-104446809D01*
X142421047Y-104446809D01*
X142327810Y-104465355D01*
X142239982Y-104501735D01*
X142160939Y-104554549D01*
X142093719Y-104621769D01*
X142040905Y-104700812D01*
X142004525Y-104788640D01*
X141985979Y-104881877D01*
X141515208Y-104881877D01*
X144757320Y-102000000D01*
X146191868Y-102000000D01*
X146208357Y-102167413D01*
X146257189Y-102328393D01*
X146336489Y-102476753D01*
X146443209Y-102606791D01*
X146573247Y-102713511D01*
X146721607Y-102792811D01*
X146882587Y-102841643D01*
X147008048Y-102854000D01*
X147691952Y-102854000D01*
X147817413Y-102841643D01*
X147978393Y-102792811D01*
X148126753Y-102713511D01*
X148256791Y-102606791D01*
X148363511Y-102476753D01*
X148442811Y-102328393D01*
X148491643Y-102167413D01*
X148508132Y-102000000D01*
X148491643Y-101832587D01*
X148442811Y-101671607D01*
X148363511Y-101523247D01*
X148256791Y-101393209D01*
X148126753Y-101286489D01*
X147978393Y-101207189D01*
X147817413Y-101158357D01*
X147691952Y-101146000D01*
X147008048Y-101146000D01*
X146882587Y-101158357D01*
X146721607Y-101207189D01*
X146573247Y-101286489D01*
X146443209Y-101393209D01*
X146336489Y-101523247D01*
X146257189Y-101671607D01*
X146208357Y-101832587D01*
X146191868Y-102000000D01*
X144757320Y-102000000D01*
X145668748Y-101189842D01*
X145711193Y-101141115D01*
X145734665Y-101097202D01*
X145741036Y-101076200D01*
X148860000Y-101076200D01*
X148874866Y-101074736D01*
X148889160Y-101070400D01*
X148902334Y-101063358D01*
X148913882Y-101053882D01*
X148923358Y-101042334D01*
X148930400Y-101029160D01*
X148934736Y-101014866D01*
X148936200Y-101000000D01*
X148936200Y-99576200D01*
X152057271Y-99576200D01*
X152057271Y-99745000D01*
G36*
X144405607Y-97336655D02*
G01*
X144286655Y-97455607D01*
X144193195Y-97595479D01*
X144128819Y-97750897D01*
X144096000Y-97915888D01*
X144096000Y-98084112D01*
X144128819Y-98249103D01*
X144193195Y-98404521D01*
X144286655Y-98544393D01*
X144405607Y-98663345D01*
X144545479Y-98756805D01*
X144700897Y-98821181D01*
X144865888Y-98854000D01*
X145034112Y-98854000D01*
X145199103Y-98821181D01*
X145354521Y-98756805D01*
X145423800Y-98710514D01*
X145423800Y-100965780D01*
X140949375Y-104943047D01*
X140939237Y-104954018D01*
X140931434Y-104966756D01*
X140926266Y-104980771D01*
X140923800Y-105000000D01*
X140923800Y-106560258D01*
X140918131Y-106561386D01*
X140830303Y-106597766D01*
X140751260Y-106650580D01*
X140684040Y-106717800D01*
X140631226Y-106796843D01*
X140594846Y-106884671D01*
X140576300Y-106977908D01*
X140576300Y-107072972D01*
X140594846Y-107166209D01*
X140631226Y-107254037D01*
X140684040Y-107333080D01*
X140751260Y-107400300D01*
X140830303Y-107453114D01*
X140918131Y-107489494D01*
X140923800Y-107490622D01*
X140923800Y-114923800D01*
X138279000Y-114923800D01*
X138279000Y-113236468D01*
X139115800Y-113236468D01*
X139115800Y-113331532D01*
X139134346Y-113424769D01*
X139170726Y-113512597D01*
X139223540Y-113591640D01*
X139290760Y-113658860D01*
X139369803Y-113711674D01*
X139457631Y-113748054D01*
X139550868Y-113766600D01*
X139645932Y-113766600D01*
X139739169Y-113748054D01*
X139826997Y-113711674D01*
X139906040Y-113658860D01*
X139973260Y-113591640D01*
X140026074Y-113512597D01*
X140062454Y-113424769D01*
X140081000Y-113331532D01*
X140081000Y-113236468D01*
X140062454Y-113143231D01*
X140026074Y-113055403D01*
X139973260Y-112976360D01*
X139906040Y-112909140D01*
X139826997Y-112856326D01*
X139739169Y-112819946D01*
X139645932Y-112801400D01*
X139550868Y-112801400D01*
X139457631Y-112819946D01*
X139369803Y-112856326D01*
X139290760Y-112909140D01*
X139223540Y-112976360D01*
X139170726Y-113055403D01*
X139134346Y-113143231D01*
X139115800Y-113236468D01*
X138279000Y-113236468D01*
X138279000Y-111915668D01*
X139115800Y-111915668D01*
X139115800Y-112010732D01*
X139134346Y-112103969D01*
X139170726Y-112191797D01*
X139223540Y-112270840D01*
X139290760Y-112338060D01*
X139369803Y-112390874D01*
X139457631Y-112427254D01*
X139550868Y-112445800D01*
X139645932Y-112445800D01*
X139739169Y-112427254D01*
X139826997Y-112390874D01*
X139906040Y-112338060D01*
X139973260Y-112270840D01*
X140026074Y-112191797D01*
X140062454Y-112103969D01*
X140081000Y-112010732D01*
X140081000Y-111915668D01*
X140062454Y-111822431D01*
X140026074Y-111734603D01*
X139973260Y-111655560D01*
X139906040Y-111588340D01*
X139826997Y-111535526D01*
X139739169Y-111499146D01*
X139645932Y-111480600D01*
X139550868Y-111480600D01*
X139457631Y-111499146D01*
X139369803Y-111535526D01*
X139290760Y-111588340D01*
X139223540Y-111655560D01*
X139170726Y-111734603D01*
X139134346Y-111822431D01*
X139115800Y-111915668D01*
X138279000Y-111915668D01*
X138279000Y-109274068D01*
X139115796Y-109274068D01*
X139115796Y-109369132D01*
X139134342Y-109462369D01*
X139170722Y-109550197D01*
X139223536Y-109629240D01*
X139290756Y-109696460D01*
X139369799Y-109749274D01*
X139457627Y-109785654D01*
X139550864Y-109804200D01*
X139645928Y-109804200D01*
X139739165Y-109785654D01*
X139826993Y-109749274D01*
X139906036Y-109696460D01*
X139973256Y-109629240D01*
X140026070Y-109550197D01*
X140062450Y-109462369D01*
X140080996Y-109369132D01*
X140080996Y-109274068D01*
X140062450Y-109180831D01*
X140026070Y-109093003D01*
X139973256Y-109013960D01*
X139906036Y-108946740D01*
X139826993Y-108893926D01*
X139739165Y-108857546D01*
X139645928Y-108839000D01*
X139550864Y-108839000D01*
X139457627Y-108857546D01*
X139369799Y-108893926D01*
X139290756Y-108946740D01*
X139223536Y-109013960D01*
X139170722Y-109093003D01*
X139134342Y-109180831D01*
X139115796Y-109274068D01*
X138279000Y-109274068D01*
X138279000Y-108004068D01*
X139105636Y-108004068D01*
X139105636Y-108099132D01*
X139124182Y-108192369D01*
X139160562Y-108280197D01*
X139213376Y-108359240D01*
X139280596Y-108426460D01*
X139359639Y-108479274D01*
X139447467Y-108515654D01*
X139540704Y-108534200D01*
X139635768Y-108534200D01*
X139729005Y-108515654D01*
X139816833Y-108479274D01*
X139895876Y-108426460D01*
X139963096Y-108359240D01*
X140015910Y-108280197D01*
X140052290Y-108192369D01*
X140070836Y-108099132D01*
X140070836Y-108004068D01*
X140052290Y-107910831D01*
X140015910Y-107823003D01*
X139963096Y-107743960D01*
X139895876Y-107676740D01*
X139816833Y-107623926D01*
X139729005Y-107587546D01*
X139635768Y-107569000D01*
X139540704Y-107569000D01*
X139447467Y-107587546D01*
X139359639Y-107623926D01*
X139280596Y-107676740D01*
X139213376Y-107743960D01*
X139160562Y-107823003D01*
X139124182Y-107910831D01*
X139105636Y-108004068D01*
X138279000Y-108004068D01*
X138279000Y-101857268D01*
X142189200Y-101857268D01*
X142189200Y-101952332D01*
X142207746Y-102045569D01*
X142244126Y-102133397D01*
X142296940Y-102212440D01*
X142364160Y-102279660D01*
X142443203Y-102332474D01*
X142531031Y-102368854D01*
X142624268Y-102387400D01*
X142719332Y-102387400D01*
X142812569Y-102368854D01*
X142900397Y-102332474D01*
X142979440Y-102279660D01*
X143046660Y-102212440D01*
X143099474Y-102133397D01*
X143135854Y-102045569D01*
X143154400Y-101952332D01*
X143154400Y-101857268D01*
X143135854Y-101764031D01*
X143099474Y-101676203D01*
X143046660Y-101597160D01*
X142979440Y-101529940D01*
X142900397Y-101477126D01*
X142812569Y-101440746D01*
X142719332Y-101422200D01*
X142624268Y-101422200D01*
X142531031Y-101440746D01*
X142443203Y-101477126D01*
X142364160Y-101529940D01*
X142296940Y-101597160D01*
X142244126Y-101676203D01*
X142207746Y-101764031D01*
X142189200Y-101857268D01*
X138279000Y-101857268D01*
X138279000Y-98707668D01*
X142240000Y-98707668D01*
X142240000Y-98802732D01*
X142258546Y-98895969D01*
X142294926Y-98983797D01*
X142347740Y-99062840D01*
X142414960Y-99130060D01*
X142494003Y-99182874D01*
X142581831Y-99219254D01*
X142675068Y-99237800D01*
X142770132Y-99237800D01*
X142863369Y-99219254D01*
X142951197Y-99182874D01*
X143030240Y-99130060D01*
X143097460Y-99062840D01*
X143150274Y-98983797D01*
X143186654Y-98895969D01*
X143205200Y-98802732D01*
X143205200Y-98707668D01*
X143186654Y-98614431D01*
X143150274Y-98526603D01*
X143097460Y-98447560D01*
X143030240Y-98380340D01*
X142951197Y-98327526D01*
X142863369Y-98291146D01*
X142770132Y-98272600D01*
X142675068Y-98272600D01*
X142581831Y-98291146D01*
X142494003Y-98327526D01*
X142414960Y-98380340D01*
X142347740Y-98447560D01*
X142294926Y-98526603D01*
X142258546Y-98614431D01*
X142240000Y-98707668D01*
X138279000Y-98707668D01*
X138279000Y-97513649D01*
X138284522Y-97457333D01*
X138296913Y-97416291D01*
X138317038Y-97378442D01*
X138344133Y-97345220D01*
X138377171Y-97317889D01*
X138414875Y-97297502D01*
X138455830Y-97284825D01*
X138511248Y-97279000D01*
X144491893Y-97279000D01*
X144405607Y-97336655D01*
G37*
X144405607Y-97336655D02*
X144286655Y-97455607D01*
X144193195Y-97595479D01*
X144128819Y-97750897D01*
X144096000Y-97915888D01*
X144096000Y-98084112D01*
X144128819Y-98249103D01*
X144193195Y-98404521D01*
X144286655Y-98544393D01*
X144405607Y-98663345D01*
X144545479Y-98756805D01*
X144700897Y-98821181D01*
X144865888Y-98854000D01*
X145034112Y-98854000D01*
X145199103Y-98821181D01*
X145354521Y-98756805D01*
X145423800Y-98710514D01*
X145423800Y-100965780D01*
X140949375Y-104943047D01*
X140939237Y-104954018D01*
X140931434Y-104966756D01*
X140926266Y-104980771D01*
X140923800Y-105000000D01*
X140923800Y-106560258D01*
X140918131Y-106561386D01*
X140830303Y-106597766D01*
X140751260Y-106650580D01*
X140684040Y-106717800D01*
X140631226Y-106796843D01*
X140594846Y-106884671D01*
X140576300Y-106977908D01*
X140576300Y-107072972D01*
X140594846Y-107166209D01*
X140631226Y-107254037D01*
X140684040Y-107333080D01*
X140751260Y-107400300D01*
X140830303Y-107453114D01*
X140918131Y-107489494D01*
X140923800Y-107490622D01*
X140923800Y-114923800D01*
X138279000Y-114923800D01*
X138279000Y-113236468D01*
X139115800Y-113236468D01*
X139115800Y-113331532D01*
X139134346Y-113424769D01*
X139170726Y-113512597D01*
X139223540Y-113591640D01*
X139290760Y-113658860D01*
X139369803Y-113711674D01*
X139457631Y-113748054D01*
X139550868Y-113766600D01*
X139645932Y-113766600D01*
X139739169Y-113748054D01*
X139826997Y-113711674D01*
X139906040Y-113658860D01*
X139973260Y-113591640D01*
X140026074Y-113512597D01*
X140062454Y-113424769D01*
X140081000Y-113331532D01*
X140081000Y-113236468D01*
X140062454Y-113143231D01*
X140026074Y-113055403D01*
X139973260Y-112976360D01*
X139906040Y-112909140D01*
X139826997Y-112856326D01*
X139739169Y-112819946D01*
X139645932Y-112801400D01*
X139550868Y-112801400D01*
X139457631Y-112819946D01*
X139369803Y-112856326D01*
X139290760Y-112909140D01*
X139223540Y-112976360D01*
X139170726Y-113055403D01*
X139134346Y-113143231D01*
X139115800Y-113236468D01*
X138279000Y-113236468D01*
X138279000Y-111915668D01*
X139115800Y-111915668D01*
X139115800Y-112010732D01*
X139134346Y-112103969D01*
X139170726Y-112191797D01*
X139223540Y-112270840D01*
X139290760Y-112338060D01*
X139369803Y-112390874D01*
X139457631Y-112427254D01*
X139550868Y-112445800D01*
X139645932Y-112445800D01*
X139739169Y-112427254D01*
X139826997Y-112390874D01*
X139906040Y-112338060D01*
X139973260Y-112270840D01*
X140026074Y-112191797D01*
X140062454Y-112103969D01*
X140081000Y-112010732D01*
X140081000Y-111915668D01*
X140062454Y-111822431D01*
X140026074Y-111734603D01*
X139973260Y-111655560D01*
X139906040Y-111588340D01*
X139826997Y-111535526D01*
X139739169Y-111499146D01*
X139645932Y-111480600D01*
X139550868Y-111480600D01*
X139457631Y-111499146D01*
X139369803Y-111535526D01*
X139290760Y-111588340D01*
X139223540Y-111655560D01*
X139170726Y-111734603D01*
X139134346Y-111822431D01*
X139115800Y-111915668D01*
X138279000Y-111915668D01*
X138279000Y-109274068D01*
X139115796Y-109274068D01*
X139115796Y-109369132D01*
X139134342Y-109462369D01*
X139170722Y-109550197D01*
X139223536Y-109629240D01*
X139290756Y-109696460D01*
X139369799Y-109749274D01*
X139457627Y-109785654D01*
X139550864Y-109804200D01*
X139645928Y-109804200D01*
X139739165Y-109785654D01*
X139826993Y-109749274D01*
X139906036Y-109696460D01*
X139973256Y-109629240D01*
X140026070Y-109550197D01*
X140062450Y-109462369D01*
X140080996Y-109369132D01*
X140080996Y-109274068D01*
X140062450Y-109180831D01*
X140026070Y-109093003D01*
X139973256Y-109013960D01*
X139906036Y-108946740D01*
X139826993Y-108893926D01*
X139739165Y-108857546D01*
X139645928Y-108839000D01*
X139550864Y-108839000D01*
X139457627Y-108857546D01*
X139369799Y-108893926D01*
X139290756Y-108946740D01*
X139223536Y-109013960D01*
X139170722Y-109093003D01*
X139134342Y-109180831D01*
X139115796Y-109274068D01*
X138279000Y-109274068D01*
X138279000Y-108004068D01*
X139105636Y-108004068D01*
X139105636Y-108099132D01*
X139124182Y-108192369D01*
X139160562Y-108280197D01*
X139213376Y-108359240D01*
X139280596Y-108426460D01*
X139359639Y-108479274D01*
X139447467Y-108515654D01*
X139540704Y-108534200D01*
X139635768Y-108534200D01*
X139729005Y-108515654D01*
X139816833Y-108479274D01*
X139895876Y-108426460D01*
X139963096Y-108359240D01*
X140015910Y-108280197D01*
X140052290Y-108192369D01*
X140070836Y-108099132D01*
X140070836Y-108004068D01*
X140052290Y-107910831D01*
X140015910Y-107823003D01*
X139963096Y-107743960D01*
X139895876Y-107676740D01*
X139816833Y-107623926D01*
X139729005Y-107587546D01*
X139635768Y-107569000D01*
X139540704Y-107569000D01*
X139447467Y-107587546D01*
X139359639Y-107623926D01*
X139280596Y-107676740D01*
X139213376Y-107743960D01*
X139160562Y-107823003D01*
X139124182Y-107910831D01*
X139105636Y-108004068D01*
X138279000Y-108004068D01*
X138279000Y-101857268D01*
X142189200Y-101857268D01*
X142189200Y-101952332D01*
X142207746Y-102045569D01*
X142244126Y-102133397D01*
X142296940Y-102212440D01*
X142364160Y-102279660D01*
X142443203Y-102332474D01*
X142531031Y-102368854D01*
X142624268Y-102387400D01*
X142719332Y-102387400D01*
X142812569Y-102368854D01*
X142900397Y-102332474D01*
X142979440Y-102279660D01*
X143046660Y-102212440D01*
X143099474Y-102133397D01*
X143135854Y-102045569D01*
X143154400Y-101952332D01*
X143154400Y-101857268D01*
X143135854Y-101764031D01*
X143099474Y-101676203D01*
X143046660Y-101597160D01*
X142979440Y-101529940D01*
X142900397Y-101477126D01*
X142812569Y-101440746D01*
X142719332Y-101422200D01*
X142624268Y-101422200D01*
X142531031Y-101440746D01*
X142443203Y-101477126D01*
X142364160Y-101529940D01*
X142296940Y-101597160D01*
X142244126Y-101676203D01*
X142207746Y-101764031D01*
X142189200Y-101857268D01*
X138279000Y-101857268D01*
X138279000Y-98707668D01*
X142240000Y-98707668D01*
X142240000Y-98802732D01*
X142258546Y-98895969D01*
X142294926Y-98983797D01*
X142347740Y-99062840D01*
X142414960Y-99130060D01*
X142494003Y-99182874D01*
X142581831Y-99219254D01*
X142675068Y-99237800D01*
X142770132Y-99237800D01*
X142863369Y-99219254D01*
X142951197Y-99182874D01*
X143030240Y-99130060D01*
X143097460Y-99062840D01*
X143150274Y-98983797D01*
X143186654Y-98895969D01*
X143205200Y-98802732D01*
X143205200Y-98707668D01*
X143186654Y-98614431D01*
X143150274Y-98526603D01*
X143097460Y-98447560D01*
X143030240Y-98380340D01*
X142951197Y-98327526D01*
X142863369Y-98291146D01*
X142770132Y-98272600D01*
X142675068Y-98272600D01*
X142581831Y-98291146D01*
X142494003Y-98327526D01*
X142414960Y-98380340D01*
X142347740Y-98447560D01*
X142294926Y-98526603D01*
X142258546Y-98614431D01*
X142240000Y-98707668D01*
X138279000Y-98707668D01*
X138279000Y-97513649D01*
X138284522Y-97457333D01*
X138296913Y-97416291D01*
X138317038Y-97378442D01*
X138344133Y-97345220D01*
X138377171Y-97317889D01*
X138414875Y-97297502D01*
X138455830Y-97284825D01*
X138511248Y-97279000D01*
X144491893Y-97279000D01*
X144405607Y-97336655D01*
G36*
X154546000Y-97300000D02*
G01*
X154546000Y-99246000D01*
X151202199Y-99246000D01*
X151180473Y-99219527D01*
X151141797Y-99187786D01*
X151097672Y-99164200D01*
X151049793Y-99149676D01*
X151000000Y-99144772D01*
X149000000Y-99144772D01*
X148950207Y-99149676D01*
X148902328Y-99164200D01*
X148858203Y-99187786D01*
X148819527Y-99219527D01*
X148788275Y-99257607D01*
X148762798Y-99265335D01*
X148718885Y-99288807D01*
X148680395Y-99320395D01*
X148648807Y-99358885D01*
X148625335Y-99402798D01*
X148610881Y-99450447D01*
X148606000Y-99500000D01*
X148606000Y-100746000D01*
X145754000Y-100746000D01*
X145754000Y-98290582D01*
X145771181Y-98249103D01*
X145804000Y-98084112D01*
X145804000Y-97915888D01*
X145771181Y-97750897D01*
X145754000Y-97709418D01*
X145754000Y-97279000D01*
X154548069Y-97279000D01*
X154546000Y-97300000D01*
G37*
X154546000Y-97300000D02*
X154546000Y-99246000D01*
X151202199Y-99246000D01*
X151180473Y-99219527D01*
X151141797Y-99187786D01*
X151097672Y-99164200D01*
X151049793Y-99149676D01*
X151000000Y-99144772D01*
X149000000Y-99144772D01*
X148950207Y-99149676D01*
X148902328Y-99164200D01*
X148858203Y-99187786D01*
X148819527Y-99219527D01*
X148788275Y-99257607D01*
X148762798Y-99265335D01*
X148718885Y-99288807D01*
X148680395Y-99320395D01*
X148648807Y-99358885D01*
X148625335Y-99402798D01*
X148610881Y-99450447D01*
X148606000Y-99500000D01*
X148606000Y-100746000D01*
X145754000Y-100746000D01*
X145754000Y-98290582D01*
X145771181Y-98249103D01*
X145804000Y-98084112D01*
X145804000Y-97915888D01*
X145771181Y-97750897D01*
X145754000Y-97709418D01*
X145754000Y-97279000D01*
X154548069Y-97279000D01*
X154546000Y-97300000D01*
G36*
X158762326Y-99008597D02*
G01*
X158815140Y-99087640D01*
X158882360Y-99154860D01*
X158961403Y-99207674D01*
X159049231Y-99244054D01*
X159142468Y-99262600D01*
X159237532Y-99262600D01*
X159330769Y-99244054D01*
X159418597Y-99207674D01*
X159497640Y-99154860D01*
X159542300Y-99110200D01*
X159566708Y-99110200D01*
X159978525Y-99522018D01*
X159988864Y-99534616D01*
X160006915Y-99549430D01*
X160039142Y-99575879D01*
X160069803Y-99592267D01*
X160096507Y-99606540D01*
X160158750Y-99625422D01*
X160207265Y-99630200D01*
X160207266Y-99630200D01*
X160223479Y-99631797D01*
X160239692Y-99630200D01*
X161029701Y-99630200D01*
X161029700Y-100740683D01*
X161027305Y-100765000D01*
X161029700Y-100789317D01*
X161029700Y-100789326D01*
X161036867Y-100862095D01*
X161065189Y-100955459D01*
X161111181Y-101041505D01*
X161173076Y-101116924D01*
X161191975Y-101132434D01*
X162666073Y-102606533D01*
X162692644Y-102656244D01*
X162730101Y-102701885D01*
X162730101Y-102837391D01*
X162725140Y-102842352D01*
X162672326Y-102921395D01*
X162635946Y-103009223D01*
X162617400Y-103102460D01*
X162617400Y-103197524D01*
X162635946Y-103290761D01*
X162672326Y-103378589D01*
X162725140Y-103457632D01*
X162792360Y-103524852D01*
X162871403Y-103577666D01*
X162959231Y-103614046D01*
X163052468Y-103632592D01*
X163120286Y-103632592D01*
X163120286Y-103842741D01*
X163031394Y-103931633D01*
X163012500Y-103929772D01*
X162437500Y-103929772D01*
X162341374Y-103939240D01*
X162248941Y-103967279D01*
X162223772Y-103980732D01*
X162184770Y-103922360D01*
X162117550Y-103855140D01*
X162038507Y-103802326D01*
X161950679Y-103765946D01*
X161857442Y-103747400D01*
X161762378Y-103747400D01*
X161669141Y-103765946D01*
X161581313Y-103802326D01*
X161502270Y-103855140D01*
X161435050Y-103922360D01*
X161382236Y-104001403D01*
X161345856Y-104089231D01*
X161327310Y-104182468D01*
X161327310Y-104277532D01*
X161345856Y-104370769D01*
X161382236Y-104458597D01*
X161435050Y-104537640D01*
X161502270Y-104604860D01*
X161581313Y-104657674D01*
X161669141Y-104694054D01*
X161762378Y-104712600D01*
X161857442Y-104712600D01*
X161944772Y-104695229D01*
X161944772Y-104897500D01*
X161954240Y-104993626D01*
X161982279Y-105086059D01*
X162027812Y-105171245D01*
X162089089Y-105245911D01*
X162163755Y-105307188D01*
X162194834Y-105323800D01*
X162180723Y-105323800D01*
X162177911Y-105321492D01*
X162099208Y-105279424D01*
X162013811Y-105253519D01*
X161925000Y-105244772D01*
X161525000Y-105244772D01*
X161436189Y-105253519D01*
X161350792Y-105279424D01*
X161272089Y-105321492D01*
X161269277Y-105323800D01*
X160930723Y-105323800D01*
X160927911Y-105321492D01*
X160849208Y-105279424D01*
X160763811Y-105253519D01*
X160675000Y-105244772D01*
X160275000Y-105244772D01*
X160186189Y-105253519D01*
X160100792Y-105279424D01*
X160022089Y-105321492D01*
X160019277Y-105323800D01*
X157990228Y-105323800D01*
X157990228Y-105092500D01*
X157980760Y-104996374D01*
X157976200Y-104981342D01*
X157976200Y-104548658D01*
X157980760Y-104533626D01*
X157990228Y-104437500D01*
X157990228Y-103962500D01*
X157980760Y-103866374D01*
X157976200Y-103851342D01*
X157976200Y-103477569D01*
X157981986Y-103466744D01*
X157999361Y-103409467D01*
X158005228Y-103349900D01*
X158005228Y-103000100D01*
X157999361Y-102940533D01*
X157981986Y-102883256D01*
X157976200Y-102872431D01*
X157976200Y-102700000D01*
X157974736Y-102685134D01*
X157970400Y-102670840D01*
X157963358Y-102657666D01*
X157953882Y-102646118D01*
X157942334Y-102636642D01*
X157929160Y-102629600D01*
X157914866Y-102625264D01*
X157900000Y-102623800D01*
X156600000Y-102623800D01*
X156585134Y-102625264D01*
X156570840Y-102629600D01*
X156557666Y-102636642D01*
X156546118Y-102646118D01*
X156536642Y-102657666D01*
X156529600Y-102670840D01*
X156525264Y-102685134D01*
X156523800Y-102700000D01*
X156523800Y-103232571D01*
X156447532Y-103217400D01*
X156352468Y-103217400D01*
X156259231Y-103235946D01*
X156171403Y-103272326D01*
X156094365Y-103323800D01*
X154876200Y-103323800D01*
X154876200Y-100224538D01*
X155122024Y-99978715D01*
X155134616Y-99968382D01*
X155175879Y-99918103D01*
X155206540Y-99860739D01*
X155225422Y-99798496D01*
X155229804Y-99754000D01*
X156246000Y-99754000D01*
X156246000Y-101500000D01*
X156250881Y-101549553D01*
X156265335Y-101597202D01*
X156288807Y-101641115D01*
X156320395Y-101679605D01*
X156358885Y-101711193D01*
X156402798Y-101734665D01*
X156450447Y-101749119D01*
X156500000Y-101754000D01*
X158500000Y-101754000D01*
X158549553Y-101749119D01*
X158597202Y-101734665D01*
X158641115Y-101711193D01*
X158679605Y-101679605D01*
X158711193Y-101641115D01*
X158734665Y-101597202D01*
X158749119Y-101549553D01*
X158754000Y-101500000D01*
X158754000Y-98988497D01*
X158762326Y-99008597D01*
G37*
X158762326Y-99008597D02*
X158815140Y-99087640D01*
X158882360Y-99154860D01*
X158961403Y-99207674D01*
X159049231Y-99244054D01*
X159142468Y-99262600D01*
X159237532Y-99262600D01*
X159330769Y-99244054D01*
X159418597Y-99207674D01*
X159497640Y-99154860D01*
X159542300Y-99110200D01*
X159566708Y-99110200D01*
X159978525Y-99522018D01*
X159988864Y-99534616D01*
X160006915Y-99549430D01*
X160039142Y-99575879D01*
X160069803Y-99592267D01*
X160096507Y-99606540D01*
X160158750Y-99625422D01*
X160207265Y-99630200D01*
X160207266Y-99630200D01*
X160223479Y-99631797D01*
X160239692Y-99630200D01*
X161029701Y-99630200D01*
X161029700Y-100740683D01*
X161027305Y-100765000D01*
X161029700Y-100789317D01*
X161029700Y-100789326D01*
X161036867Y-100862095D01*
X161065189Y-100955459D01*
X161111181Y-101041505D01*
X161173076Y-101116924D01*
X161191975Y-101132434D01*
X162666073Y-102606533D01*
X162692644Y-102656244D01*
X162730101Y-102701885D01*
X162730101Y-102837391D01*
X162725140Y-102842352D01*
X162672326Y-102921395D01*
X162635946Y-103009223D01*
X162617400Y-103102460D01*
X162617400Y-103197524D01*
X162635946Y-103290761D01*
X162672326Y-103378589D01*
X162725140Y-103457632D01*
X162792360Y-103524852D01*
X162871403Y-103577666D01*
X162959231Y-103614046D01*
X163052468Y-103632592D01*
X163120286Y-103632592D01*
X163120286Y-103842741D01*
X163031394Y-103931633D01*
X163012500Y-103929772D01*
X162437500Y-103929772D01*
X162341374Y-103939240D01*
X162248941Y-103967279D01*
X162223772Y-103980732D01*
X162184770Y-103922360D01*
X162117550Y-103855140D01*
X162038507Y-103802326D01*
X161950679Y-103765946D01*
X161857442Y-103747400D01*
X161762378Y-103747400D01*
X161669141Y-103765946D01*
X161581313Y-103802326D01*
X161502270Y-103855140D01*
X161435050Y-103922360D01*
X161382236Y-104001403D01*
X161345856Y-104089231D01*
X161327310Y-104182468D01*
X161327310Y-104277532D01*
X161345856Y-104370769D01*
X161382236Y-104458597D01*
X161435050Y-104537640D01*
X161502270Y-104604860D01*
X161581313Y-104657674D01*
X161669141Y-104694054D01*
X161762378Y-104712600D01*
X161857442Y-104712600D01*
X161944772Y-104695229D01*
X161944772Y-104897500D01*
X161954240Y-104993626D01*
X161982279Y-105086059D01*
X162027812Y-105171245D01*
X162089089Y-105245911D01*
X162163755Y-105307188D01*
X162194834Y-105323800D01*
X162180723Y-105323800D01*
X162177911Y-105321492D01*
X162099208Y-105279424D01*
X162013811Y-105253519D01*
X161925000Y-105244772D01*
X161525000Y-105244772D01*
X161436189Y-105253519D01*
X161350792Y-105279424D01*
X161272089Y-105321492D01*
X161269277Y-105323800D01*
X160930723Y-105323800D01*
X160927911Y-105321492D01*
X160849208Y-105279424D01*
X160763811Y-105253519D01*
X160675000Y-105244772D01*
X160275000Y-105244772D01*
X160186189Y-105253519D01*
X160100792Y-105279424D01*
X160022089Y-105321492D01*
X160019277Y-105323800D01*
X157990228Y-105323800D01*
X157990228Y-105092500D01*
X157980760Y-104996374D01*
X157976200Y-104981342D01*
X157976200Y-104548658D01*
X157980760Y-104533626D01*
X157990228Y-104437500D01*
X157990228Y-103962500D01*
X157980760Y-103866374D01*
X157976200Y-103851342D01*
X157976200Y-103477569D01*
X157981986Y-103466744D01*
X157999361Y-103409467D01*
X158005228Y-103349900D01*
X158005228Y-103000100D01*
X157999361Y-102940533D01*
X157981986Y-102883256D01*
X157976200Y-102872431D01*
X157976200Y-102700000D01*
X157974736Y-102685134D01*
X157970400Y-102670840D01*
X157963358Y-102657666D01*
X157953882Y-102646118D01*
X157942334Y-102636642D01*
X157929160Y-102629600D01*
X157914866Y-102625264D01*
X157900000Y-102623800D01*
X156600000Y-102623800D01*
X156585134Y-102625264D01*
X156570840Y-102629600D01*
X156557666Y-102636642D01*
X156546118Y-102646118D01*
X156536642Y-102657666D01*
X156529600Y-102670840D01*
X156525264Y-102685134D01*
X156523800Y-102700000D01*
X156523800Y-103232571D01*
X156447532Y-103217400D01*
X156352468Y-103217400D01*
X156259231Y-103235946D01*
X156171403Y-103272326D01*
X156094365Y-103323800D01*
X154876200Y-103323800D01*
X154876200Y-100224538D01*
X155122024Y-99978715D01*
X155134616Y-99968382D01*
X155175879Y-99918103D01*
X155206540Y-99860739D01*
X155225422Y-99798496D01*
X155229804Y-99754000D01*
X156246000Y-99754000D01*
X156246000Y-101500000D01*
X156250881Y-101549553D01*
X156265335Y-101597202D01*
X156288807Y-101641115D01*
X156320395Y-101679605D01*
X156358885Y-101711193D01*
X156402798Y-101734665D01*
X156450447Y-101749119D01*
X156500000Y-101754000D01*
X158500000Y-101754000D01*
X158549553Y-101749119D01*
X158597202Y-101734665D01*
X158641115Y-101711193D01*
X158679605Y-101679605D01*
X158711193Y-101641115D01*
X158734665Y-101597202D01*
X158749119Y-101549553D01*
X158754000Y-101500000D01*
X158754000Y-98988497D01*
X158762326Y-99008597D01*
G36*
X162887786Y-97408203D02*
G01*
X162864200Y-97452328D01*
X162849676Y-97500207D01*
X162844772Y-97550000D01*
X162844772Y-97950000D01*
X162849676Y-97999793D01*
X162864200Y-98047672D01*
X162887786Y-98091797D01*
X162919527Y-98130473D01*
X162958203Y-98162214D01*
X163002328Y-98185800D01*
X163050207Y-98200324D01*
X163100000Y-98205228D01*
X163382517Y-98205228D01*
X163402540Y-98207200D01*
X163804825Y-98207200D01*
X163853756Y-98247356D01*
X163858703Y-98250000D01*
X163853756Y-98252644D01*
X163792728Y-98302728D01*
X163742644Y-98363756D01*
X163705428Y-98433383D01*
X163682510Y-98508932D01*
X163674772Y-98587500D01*
X163674772Y-98594772D01*
X163100000Y-98594772D01*
X163050207Y-98599676D01*
X163002328Y-98614200D01*
X162958203Y-98637786D01*
X162919527Y-98669527D01*
X162887786Y-98708203D01*
X162864200Y-98752328D01*
X162849676Y-98800207D01*
X162844772Y-98850000D01*
X162844772Y-99250000D01*
X162849676Y-99299793D01*
X162864200Y-99347672D01*
X162887786Y-99391797D01*
X162919527Y-99430473D01*
X162958203Y-99462214D01*
X163002328Y-99485800D01*
X163050207Y-99500324D01*
X163100000Y-99505228D01*
X163701826Y-99505228D01*
X163621940Y-99618554D01*
X163495966Y-99902415D01*
X163473004Y-99978131D01*
X163572883Y-100222200D01*
X164822200Y-100222200D01*
X164822200Y-100202200D01*
X164923800Y-100202200D01*
X164923800Y-100597800D01*
X164822200Y-100597800D01*
X164822200Y-100577800D01*
X163572883Y-100577800D01*
X163473004Y-100821869D01*
X163495966Y-100897585D01*
X163621940Y-101181446D01*
X163800872Y-101435277D01*
X164025885Y-101649323D01*
X164287925Y-101815100D01*
X163611422Y-101815100D01*
X163596244Y-101802644D01*
X163526617Y-101765428D01*
X163451068Y-101742510D01*
X163372500Y-101734772D01*
X163195232Y-101734772D01*
X162020300Y-100559841D01*
X162020300Y-99438822D01*
X162030473Y-99430473D01*
X162062214Y-99391797D01*
X162085800Y-99347672D01*
X162100324Y-99299793D01*
X162105228Y-99250000D01*
X162105228Y-98850000D01*
X162100324Y-98800207D01*
X162085800Y-98752328D01*
X162062214Y-98708203D01*
X162030473Y-98669527D01*
X161991797Y-98637786D01*
X161947672Y-98614200D01*
X161899793Y-98599676D01*
X161850000Y-98594772D01*
X161724034Y-98594772D01*
X161715460Y-98590189D01*
X161622096Y-98561867D01*
X161525000Y-98552304D01*
X161427905Y-98561867D01*
X161334541Y-98590189D01*
X161325967Y-98594772D01*
X161200000Y-98594772D01*
X161150207Y-98599676D01*
X161102328Y-98614200D01*
X161058203Y-98637786D01*
X161019527Y-98669527D01*
X160987786Y-98708203D01*
X160964200Y-98752328D01*
X160949676Y-98800207D01*
X160944772Y-98850000D01*
X160944772Y-98969800D01*
X160360253Y-98969800D01*
X159948439Y-98557987D01*
X159938096Y-98545384D01*
X159887817Y-98504121D01*
X159830453Y-98473460D01*
X159768210Y-98454578D01*
X159719695Y-98449800D01*
X159719693Y-98449800D01*
X159703480Y-98448203D01*
X159687267Y-98449800D01*
X159542300Y-98449800D01*
X159497640Y-98405140D01*
X159452873Y-98375228D01*
X159732500Y-98375228D01*
X159811068Y-98367490D01*
X159886617Y-98344572D01*
X159956244Y-98307356D01*
X160017272Y-98257272D01*
X160038176Y-98231800D01*
X160129338Y-98231800D01*
X160178756Y-98272356D01*
X160248383Y-98309572D01*
X160323932Y-98332490D01*
X160402500Y-98340228D01*
X160747500Y-98340228D01*
X160826068Y-98332490D01*
X160901617Y-98309572D01*
X160971244Y-98272356D01*
X161032272Y-98222272D01*
X161065486Y-98181800D01*
X161094845Y-98181800D01*
X161102328Y-98185800D01*
X161150207Y-98200324D01*
X161200000Y-98205228D01*
X161850000Y-98205228D01*
X161899793Y-98200324D01*
X161947672Y-98185800D01*
X161991797Y-98162214D01*
X162030473Y-98130473D01*
X162062214Y-98091797D01*
X162085800Y-98047672D01*
X162100324Y-97999793D01*
X162105228Y-97950000D01*
X162105228Y-97550000D01*
X162100324Y-97500207D01*
X162085800Y-97452328D01*
X162062214Y-97408203D01*
X162035949Y-97376200D01*
X162914051Y-97376200D01*
X162887786Y-97408203D01*
G37*
X162887786Y-97408203D02*
X162864200Y-97452328D01*
X162849676Y-97500207D01*
X162844772Y-97550000D01*
X162844772Y-97950000D01*
X162849676Y-97999793D01*
X162864200Y-98047672D01*
X162887786Y-98091797D01*
X162919527Y-98130473D01*
X162958203Y-98162214D01*
X163002328Y-98185800D01*
X163050207Y-98200324D01*
X163100000Y-98205228D01*
X163382517Y-98205228D01*
X163402540Y-98207200D01*
X163804825Y-98207200D01*
X163853756Y-98247356D01*
X163858703Y-98250000D01*
X163853756Y-98252644D01*
X163792728Y-98302728D01*
X163742644Y-98363756D01*
X163705428Y-98433383D01*
X163682510Y-98508932D01*
X163674772Y-98587500D01*
X163674772Y-98594772D01*
X163100000Y-98594772D01*
X163050207Y-98599676D01*
X163002328Y-98614200D01*
X162958203Y-98637786D01*
X162919527Y-98669527D01*
X162887786Y-98708203D01*
X162864200Y-98752328D01*
X162849676Y-98800207D01*
X162844772Y-98850000D01*
X162844772Y-99250000D01*
X162849676Y-99299793D01*
X162864200Y-99347672D01*
X162887786Y-99391797D01*
X162919527Y-99430473D01*
X162958203Y-99462214D01*
X163002328Y-99485800D01*
X163050207Y-99500324D01*
X163100000Y-99505228D01*
X163701826Y-99505228D01*
X163621940Y-99618554D01*
X163495966Y-99902415D01*
X163473004Y-99978131D01*
X163572883Y-100222200D01*
X164822200Y-100222200D01*
X164822200Y-100202200D01*
X164923800Y-100202200D01*
X164923800Y-100597800D01*
X164822200Y-100597800D01*
X164822200Y-100577800D01*
X163572883Y-100577800D01*
X163473004Y-100821869D01*
X163495966Y-100897585D01*
X163621940Y-101181446D01*
X163800872Y-101435277D01*
X164025885Y-101649323D01*
X164287925Y-101815100D01*
X163611422Y-101815100D01*
X163596244Y-101802644D01*
X163526617Y-101765428D01*
X163451068Y-101742510D01*
X163372500Y-101734772D01*
X163195232Y-101734772D01*
X162020300Y-100559841D01*
X162020300Y-99438822D01*
X162030473Y-99430473D01*
X162062214Y-99391797D01*
X162085800Y-99347672D01*
X162100324Y-99299793D01*
X162105228Y-99250000D01*
X162105228Y-98850000D01*
X162100324Y-98800207D01*
X162085800Y-98752328D01*
X162062214Y-98708203D01*
X162030473Y-98669527D01*
X161991797Y-98637786D01*
X161947672Y-98614200D01*
X161899793Y-98599676D01*
X161850000Y-98594772D01*
X161724034Y-98594772D01*
X161715460Y-98590189D01*
X161622096Y-98561867D01*
X161525000Y-98552304D01*
X161427905Y-98561867D01*
X161334541Y-98590189D01*
X161325967Y-98594772D01*
X161200000Y-98594772D01*
X161150207Y-98599676D01*
X161102328Y-98614200D01*
X161058203Y-98637786D01*
X161019527Y-98669527D01*
X160987786Y-98708203D01*
X160964200Y-98752328D01*
X160949676Y-98800207D01*
X160944772Y-98850000D01*
X160944772Y-98969800D01*
X160360253Y-98969800D01*
X159948439Y-98557987D01*
X159938096Y-98545384D01*
X159887817Y-98504121D01*
X159830453Y-98473460D01*
X159768210Y-98454578D01*
X159719695Y-98449800D01*
X159719693Y-98449800D01*
X159703480Y-98448203D01*
X159687267Y-98449800D01*
X159542300Y-98449800D01*
X159497640Y-98405140D01*
X159452873Y-98375228D01*
X159732500Y-98375228D01*
X159811068Y-98367490D01*
X159886617Y-98344572D01*
X159956244Y-98307356D01*
X160017272Y-98257272D01*
X160038176Y-98231800D01*
X160129338Y-98231800D01*
X160178756Y-98272356D01*
X160248383Y-98309572D01*
X160323932Y-98332490D01*
X160402500Y-98340228D01*
X160747500Y-98340228D01*
X160826068Y-98332490D01*
X160901617Y-98309572D01*
X160971244Y-98272356D01*
X161032272Y-98222272D01*
X161065486Y-98181800D01*
X161094845Y-98181800D01*
X161102328Y-98185800D01*
X161150207Y-98200324D01*
X161200000Y-98205228D01*
X161850000Y-98205228D01*
X161899793Y-98200324D01*
X161947672Y-98185800D01*
X161991797Y-98162214D01*
X162030473Y-98130473D01*
X162062214Y-98091797D01*
X162085800Y-98047672D01*
X162100324Y-97999793D01*
X162105228Y-97950000D01*
X162105228Y-97550000D01*
X162100324Y-97500207D01*
X162085800Y-97452328D01*
X162062214Y-97408203D01*
X162035949Y-97376200D01*
X162914051Y-97376200D01*
X162887786Y-97408203D01*
G36*
X157646000Y-105400000D02*
G01*
X157650881Y-105449553D01*
X157665335Y-105497202D01*
X157688807Y-105541115D01*
X157720395Y-105579605D01*
X157758885Y-105611193D01*
X157802798Y-105634665D01*
X157823800Y-105641036D01*
X157823800Y-106455100D01*
X157778719Y-106455100D01*
X157687935Y-106473158D01*
X157602419Y-106508580D01*
X157525456Y-106560005D01*
X157460005Y-106625456D01*
X157408580Y-106702419D01*
X157373158Y-106787935D01*
X157355100Y-106878719D01*
X157355100Y-106971281D01*
X157373158Y-107062065D01*
X157398730Y-107123800D01*
X155485180Y-107123800D01*
X155273032Y-106806299D01*
X155076200Y-106609467D01*
X155076200Y-103654000D01*
X156600000Y-103654000D01*
X156649553Y-103649119D01*
X156697202Y-103634665D01*
X156741115Y-103611193D01*
X156779605Y-103579605D01*
X156811193Y-103541115D01*
X156834665Y-103497202D01*
X156849119Y-103449553D01*
X156854000Y-103400000D01*
X156854000Y-102954000D01*
X157646000Y-102954000D01*
X157646000Y-105400000D01*
G37*
X157646000Y-105400000D02*
X157650881Y-105449553D01*
X157665335Y-105497202D01*
X157688807Y-105541115D01*
X157720395Y-105579605D01*
X157758885Y-105611193D01*
X157802798Y-105634665D01*
X157823800Y-105641036D01*
X157823800Y-106455100D01*
X157778719Y-106455100D01*
X157687935Y-106473158D01*
X157602419Y-106508580D01*
X157525456Y-106560005D01*
X157460005Y-106625456D01*
X157408580Y-106702419D01*
X157373158Y-106787935D01*
X157355100Y-106878719D01*
X157355100Y-106971281D01*
X157373158Y-107062065D01*
X157398730Y-107123800D01*
X155485180Y-107123800D01*
X155273032Y-106806299D01*
X155076200Y-106609467D01*
X155076200Y-103654000D01*
X156600000Y-103654000D01*
X156649553Y-103649119D01*
X156697202Y-103634665D01*
X156741115Y-103611193D01*
X156779605Y-103579605D01*
X156811193Y-103541115D01*
X156834665Y-103497202D01*
X156849119Y-103449553D01*
X156854000Y-103400000D01*
X156854000Y-102954000D01*
X157646000Y-102954000D01*
X157646000Y-105400000D01*
G36*
X155609912Y-97613470D02*
G01*
X155619861Y-97625593D01*
X155668207Y-97665269D01*
X155723364Y-97694751D01*
X155783213Y-97712906D01*
X155822609Y-97716786D01*
X155845454Y-97719036D01*
X155861050Y-97717500D01*
X158077533Y-97717500D01*
X158077533Y-97972500D01*
X158085026Y-98048579D01*
X158107217Y-98121734D01*
X158143254Y-98189154D01*
X158191752Y-98248248D01*
X158250846Y-98296746D01*
X158318266Y-98332783D01*
X158391421Y-98354974D01*
X158423800Y-98358163D01*
X158423800Y-101423800D01*
X157993700Y-101423800D01*
X157993700Y-101205667D01*
X157992467Y-101193147D01*
X157992467Y-101050100D01*
X157986845Y-100993023D01*
X157970197Y-100938139D01*
X157943161Y-100887558D01*
X157906776Y-100843224D01*
X157862442Y-100806839D01*
X157811861Y-100779803D01*
X157756977Y-100763155D01*
X157699900Y-100757533D01*
X157500100Y-100757533D01*
X157443023Y-100763155D01*
X157388139Y-100779803D01*
X157337558Y-100806839D01*
X157293224Y-100843224D01*
X157256839Y-100887558D01*
X157229803Y-100938139D01*
X157213155Y-100993023D01*
X157207533Y-101050100D01*
X157207533Y-101193148D01*
X157206300Y-101205668D01*
X157206300Y-101423800D01*
X156576200Y-101423800D01*
X156576200Y-99500000D01*
X156574736Y-99485134D01*
X156570400Y-99470840D01*
X156563358Y-99457666D01*
X156553882Y-99446118D01*
X156542334Y-99436642D01*
X156529160Y-99429600D01*
X156514866Y-99425264D01*
X156500000Y-99423800D01*
X155217500Y-99423800D01*
X155217500Y-97786058D01*
X155405960Y-97597599D01*
X155594041Y-97597599D01*
X155609912Y-97613470D01*
G37*
X155609912Y-97613470D02*
X155619861Y-97625593D01*
X155668207Y-97665269D01*
X155723364Y-97694751D01*
X155783213Y-97712906D01*
X155822609Y-97716786D01*
X155845454Y-97719036D01*
X155861050Y-97717500D01*
X158077533Y-97717500D01*
X158077533Y-97972500D01*
X158085026Y-98048579D01*
X158107217Y-98121734D01*
X158143254Y-98189154D01*
X158191752Y-98248248D01*
X158250846Y-98296746D01*
X158318266Y-98332783D01*
X158391421Y-98354974D01*
X158423800Y-98358163D01*
X158423800Y-101423800D01*
X157993700Y-101423800D01*
X157993700Y-101205667D01*
X157992467Y-101193147D01*
X157992467Y-101050100D01*
X157986845Y-100993023D01*
X157970197Y-100938139D01*
X157943161Y-100887558D01*
X157906776Y-100843224D01*
X157862442Y-100806839D01*
X157811861Y-100779803D01*
X157756977Y-100763155D01*
X157699900Y-100757533D01*
X157500100Y-100757533D01*
X157443023Y-100763155D01*
X157388139Y-100779803D01*
X157337558Y-100806839D01*
X157293224Y-100843224D01*
X157256839Y-100887558D01*
X157229803Y-100938139D01*
X157213155Y-100993023D01*
X157207533Y-101050100D01*
X157207533Y-101193148D01*
X157206300Y-101205668D01*
X157206300Y-101423800D01*
X156576200Y-101423800D01*
X156576200Y-99500000D01*
X156574736Y-99485134D01*
X156570400Y-99470840D01*
X156563358Y-99457666D01*
X156553882Y-99446118D01*
X156542334Y-99436642D01*
X156529160Y-99429600D01*
X156514866Y-99425264D01*
X156500000Y-99423800D01*
X155217500Y-99423800D01*
X155217500Y-97786058D01*
X155405960Y-97597599D01*
X155594041Y-97597599D01*
X155609912Y-97613470D01*
M02*
