G04 #@! TF.GenerationSoftware,KiCad,Pcbnew,5.1.4*
G04 #@! TF.CreationDate,2019-09-04T23:44:43+02:00*
G04 #@! TF.ProjectId,altimeter,616c7469-6d65-4746-9572-2e6b69636164,rev?*
G04 #@! TF.SameCoordinates,Original*
G04 #@! TF.FileFunction,Legend,Top*
G04 #@! TF.FilePolarity,Positive*
%FSLAX46Y46*%
G04 Gerber Fmt 4.6, Leading zero omitted, Abs format (unit mm)*
G04 Created by KiCad (PCBNEW 5.1.4) date 2019-09-04 23:44:43*
%MOMM*%
%LPD*%
G04 APERTURE LIST*
%ADD10C,0.300000*%
%ADD11C,0.150000*%
%ADD12C,0.120000*%
%ADD13C,0.010000*%
G04 APERTURE END LIST*
D10*
X174136857Y-119062571D02*
X174136857Y-120205428D01*
X173672571Y-114661142D02*
X174815428Y-114661142D01*
X174244000Y-115232571D02*
X174244000Y-114089714D01*
D11*
X146018499Y-104367272D02*
X145304213Y-104367272D01*
X145161356Y-104319653D01*
X145066118Y-104224415D01*
X145018499Y-104081558D01*
X145018499Y-103986320D01*
X145018499Y-105319653D02*
X145018499Y-104843462D01*
X146018499Y-104843462D01*
X145113737Y-106224415D02*
X145066118Y-106176796D01*
X145018499Y-106033939D01*
X145018499Y-105938700D01*
X145066118Y-105795843D01*
X145161356Y-105700605D01*
X145256594Y-105652986D01*
X145447070Y-105605367D01*
X145589927Y-105605367D01*
X145780403Y-105652986D01*
X145875641Y-105700605D01*
X145970880Y-105795843D01*
X146018499Y-105938700D01*
X146018499Y-106033939D01*
X145970880Y-106176796D01*
X145923260Y-106224415D01*
X146018499Y-106938700D02*
X145304213Y-106938700D01*
X145161356Y-106891081D01*
X145066118Y-106795843D01*
X145018499Y-106652986D01*
X145018499Y-106557748D01*
X145018499Y-107891081D02*
X145018499Y-107414891D01*
X146018499Y-107414891D01*
X145113737Y-108795843D02*
X145066118Y-108748224D01*
X145018499Y-108605367D01*
X145018499Y-108510129D01*
X145066118Y-108367272D01*
X145161356Y-108272034D01*
X145256594Y-108224415D01*
X145447070Y-108176796D01*
X145589927Y-108176796D01*
X145780403Y-108224415D01*
X145875641Y-108272034D01*
X145970880Y-108367272D01*
X146018499Y-108510129D01*
X146018499Y-108605367D01*
X145970880Y-108748224D01*
X145923260Y-108795843D01*
X146018499Y-109510129D02*
X145304213Y-109510129D01*
X145161356Y-109462510D01*
X145066118Y-109367272D01*
X145018499Y-109224415D01*
X145018499Y-109129177D01*
X145018499Y-110462510D02*
X145018499Y-109986320D01*
X146018499Y-109986320D01*
X145113737Y-111367272D02*
X145066118Y-111319653D01*
X145018499Y-111176796D01*
X145018499Y-111081558D01*
X145066118Y-110938700D01*
X145161356Y-110843462D01*
X145256594Y-110795843D01*
X145447070Y-110748224D01*
X145589927Y-110748224D01*
X145780403Y-110795843D01*
X145875641Y-110843462D01*
X145970880Y-110938700D01*
X146018499Y-111081558D01*
X146018499Y-111176796D01*
X145970880Y-111319653D01*
X145923260Y-111367272D01*
X146018499Y-112081558D02*
X145304213Y-112081558D01*
X145161356Y-112033939D01*
X145066118Y-111938700D01*
X145018499Y-111795843D01*
X145018499Y-111700605D01*
X145018499Y-113033939D02*
X145018499Y-112557748D01*
X146018499Y-112557748D01*
X145113737Y-113938700D02*
X145066118Y-113891081D01*
X145018499Y-113748224D01*
X145018499Y-113652986D01*
X145066118Y-113510129D01*
X145161356Y-113414891D01*
X145256594Y-113367272D01*
X145447070Y-113319653D01*
X145589927Y-113319653D01*
X145780403Y-113367272D01*
X145875641Y-113414891D01*
X145970880Y-113510129D01*
X146018499Y-113652986D01*
X146018499Y-113748224D01*
X145970880Y-113891081D01*
X145923260Y-113938700D01*
D12*
X162775000Y-107735000D02*
X162775000Y-105450000D01*
X161305000Y-107735000D02*
X162775000Y-107735000D01*
X161305000Y-105450000D02*
X161305000Y-107735000D01*
X151795000Y-97805000D02*
X152130000Y-97805000D01*
X154730000Y-97805000D02*
X155065000Y-97805000D01*
X154730000Y-101075000D02*
X155065000Y-101075000D01*
X155065000Y-101075000D02*
X155065000Y-97805000D01*
X151795000Y-101310000D02*
X151795000Y-97805000D01*
D13*
G36*
X158168400Y-110202500D02*
G01*
X157987425Y-110201354D01*
X157918163Y-110200056D01*
X157854427Y-110197295D01*
X157802301Y-110193445D01*
X157767870Y-110188877D01*
X157762463Y-110187588D01*
X157694866Y-110159219D01*
X157647932Y-110117815D01*
X157620423Y-110061506D01*
X157611103Y-109988417D01*
X157611336Y-109979328D01*
X157787400Y-109979328D01*
X157797981Y-110024725D01*
X157829353Y-110055963D01*
X157880953Y-110072643D01*
X157922462Y-110075500D01*
X157990600Y-110075500D01*
X157990600Y-109885000D01*
X157914400Y-109885000D01*
X157853755Y-109890653D01*
X157813894Y-109908717D01*
X157792587Y-109940846D01*
X157787400Y-109979328D01*
X157611336Y-109979328D01*
X157611841Y-109959695D01*
X157616096Y-109910161D01*
X157624004Y-109877060D01*
X157638580Y-109851432D01*
X157654441Y-109833061D01*
X157689702Y-109801144D01*
X157729115Y-109778828D01*
X157778855Y-109763864D01*
X157845097Y-109753999D01*
X157880176Y-109750766D01*
X157990600Y-109741807D01*
X157990600Y-109516700D01*
X158168400Y-109516700D01*
X158168400Y-110202500D01*
X158168400Y-110202500D01*
G37*
X158168400Y-110202500D02*
X157987425Y-110201354D01*
X157918163Y-110200056D01*
X157854427Y-110197295D01*
X157802301Y-110193445D01*
X157767870Y-110188877D01*
X157762463Y-110187588D01*
X157694866Y-110159219D01*
X157647932Y-110117815D01*
X157620423Y-110061506D01*
X157611103Y-109988417D01*
X157611336Y-109979328D01*
X157787400Y-109979328D01*
X157797981Y-110024725D01*
X157829353Y-110055963D01*
X157880953Y-110072643D01*
X157922462Y-110075500D01*
X157990600Y-110075500D01*
X157990600Y-109885000D01*
X157914400Y-109885000D01*
X157853755Y-109890653D01*
X157813894Y-109908717D01*
X157792587Y-109940846D01*
X157787400Y-109979328D01*
X157611336Y-109979328D01*
X157611841Y-109959695D01*
X157616096Y-109910161D01*
X157624004Y-109877060D01*
X157638580Y-109851432D01*
X157654441Y-109833061D01*
X157689702Y-109801144D01*
X157729115Y-109778828D01*
X157778855Y-109763864D01*
X157845097Y-109753999D01*
X157880176Y-109750766D01*
X157990600Y-109741807D01*
X157990600Y-109516700D01*
X158168400Y-109516700D01*
X158168400Y-110202500D01*
G36*
X158707057Y-109507062D02*
G01*
X158779922Y-109520350D01*
X158836376Y-109547717D01*
X158879678Y-109590733D01*
X158912764Y-109650223D01*
X158920850Y-109674251D01*
X158927146Y-109706328D01*
X158931991Y-109750184D01*
X158935729Y-109809547D01*
X158938700Y-109888144D01*
X158940391Y-109951675D01*
X158946342Y-110202500D01*
X158765300Y-110202500D01*
X158764542Y-110002475D01*
X158763096Y-109893877D01*
X158759124Y-109808096D01*
X158751811Y-109742606D01*
X158740338Y-109694880D01*
X158723888Y-109662393D01*
X158701642Y-109642619D01*
X158672784Y-109633032D01*
X158644281Y-109631000D01*
X158607690Y-109632731D01*
X158579328Y-109639816D01*
X158558159Y-109655091D01*
X158543150Y-109681392D01*
X158533265Y-109721555D01*
X158527468Y-109778415D01*
X158524725Y-109854809D01*
X158524001Y-109953573D01*
X158524000Y-109960569D01*
X158524000Y-110202500D01*
X158344774Y-110202500D01*
X158348662Y-109938975D01*
X158350715Y-109837282D01*
X158354123Y-109757492D01*
X158359792Y-109696107D01*
X158368630Y-109649635D01*
X158381545Y-109614579D01*
X158399444Y-109587445D01*
X158423233Y-109564739D01*
X158451008Y-109544819D01*
X158480438Y-109527883D01*
X158511617Y-109517064D01*
X158552263Y-109510541D01*
X158610096Y-109506495D01*
X158614523Y-109506280D01*
X158707057Y-109507062D01*
X158707057Y-109507062D01*
G37*
X158707057Y-109507062D02*
X158779922Y-109520350D01*
X158836376Y-109547717D01*
X158879678Y-109590733D01*
X158912764Y-109650223D01*
X158920850Y-109674251D01*
X158927146Y-109706328D01*
X158931991Y-109750184D01*
X158935729Y-109809547D01*
X158938700Y-109888144D01*
X158940391Y-109951675D01*
X158946342Y-110202500D01*
X158765300Y-110202500D01*
X158764542Y-110002475D01*
X158763096Y-109893877D01*
X158759124Y-109808096D01*
X158751811Y-109742606D01*
X158740338Y-109694880D01*
X158723888Y-109662393D01*
X158701642Y-109642619D01*
X158672784Y-109633032D01*
X158644281Y-109631000D01*
X158607690Y-109632731D01*
X158579328Y-109639816D01*
X158558159Y-109655091D01*
X158543150Y-109681392D01*
X158533265Y-109721555D01*
X158527468Y-109778415D01*
X158524725Y-109854809D01*
X158524001Y-109953573D01*
X158524000Y-109960569D01*
X158524000Y-110202500D01*
X158344774Y-110202500D01*
X158348662Y-109938975D01*
X158350715Y-109837282D01*
X158354123Y-109757492D01*
X158359792Y-109696107D01*
X158368630Y-109649635D01*
X158381545Y-109614579D01*
X158399444Y-109587445D01*
X158423233Y-109564739D01*
X158451008Y-109544819D01*
X158480438Y-109527883D01*
X158511617Y-109517064D01*
X158552263Y-109510541D01*
X158610096Y-109506495D01*
X158614523Y-109506280D01*
X158707057Y-109507062D01*
G36*
X157284462Y-108828336D02*
G01*
X157287852Y-108829547D01*
X157312132Y-108851797D01*
X157315242Y-108887039D01*
X157297159Y-108935650D01*
X157279400Y-108966295D01*
X157267298Y-108984161D01*
X157256158Y-108999768D01*
X157247486Y-109013269D01*
X157242790Y-109024814D01*
X157243580Y-109034554D01*
X157251362Y-109042642D01*
X157267646Y-109049229D01*
X157293938Y-109054466D01*
X157331749Y-109058504D01*
X157382584Y-109061496D01*
X157447954Y-109063593D01*
X157529365Y-109064945D01*
X157628326Y-109065706D01*
X157746345Y-109066025D01*
X157884930Y-109066055D01*
X158045590Y-109065948D01*
X158229832Y-109065853D01*
X158270579Y-109065850D01*
X159299859Y-109065850D01*
X159292156Y-109034100D01*
X159280281Y-109003328D01*
X159260149Y-108965642D01*
X159253476Y-108954997D01*
X159228510Y-108905321D01*
X159223939Y-108865273D01*
X159239791Y-108837111D01*
X159251888Y-108829665D01*
X159262256Y-108827467D01*
X159278810Y-108828598D01*
X159303661Y-108833739D01*
X159338918Y-108843571D01*
X159386693Y-108858776D01*
X159449096Y-108880035D01*
X159528238Y-108908029D01*
X159626229Y-108943439D01*
X159745179Y-108986947D01*
X159788463Y-109002855D01*
X159896924Y-109043017D01*
X159998486Y-109081125D01*
X160090552Y-109116168D01*
X160170524Y-109147136D01*
X160235804Y-109173017D01*
X160283795Y-109192799D01*
X160311900Y-109205472D01*
X160317874Y-109208986D01*
X160335668Y-109233279D01*
X160340099Y-109250000D01*
X160331152Y-109275053D01*
X160317874Y-109291013D01*
X160301503Y-109299456D01*
X160263852Y-109315552D01*
X160207519Y-109338288D01*
X160135102Y-109366654D01*
X160049198Y-109399638D01*
X159952405Y-109436229D01*
X159847320Y-109475415D01*
X159788463Y-109497144D01*
X159662286Y-109543414D01*
X159557750Y-109581368D01*
X159472747Y-109611684D01*
X159405163Y-109635046D01*
X159352891Y-109652133D01*
X159313818Y-109663628D01*
X159285834Y-109670211D01*
X159266829Y-109672564D01*
X159254692Y-109671367D01*
X159251888Y-109670334D01*
X159227749Y-109648027D01*
X159224843Y-109612576D01*
X159243187Y-109563693D01*
X159260600Y-109533704D01*
X159272701Y-109515838D01*
X159283841Y-109500231D01*
X159292513Y-109486730D01*
X159297209Y-109475185D01*
X159296419Y-109465445D01*
X159288637Y-109457357D01*
X159272353Y-109450770D01*
X159246061Y-109445533D01*
X159208250Y-109441495D01*
X159157415Y-109438503D01*
X159092045Y-109436406D01*
X159010634Y-109435054D01*
X158911673Y-109434293D01*
X158793654Y-109433974D01*
X158655069Y-109433944D01*
X158494409Y-109434051D01*
X158310167Y-109434146D01*
X158269420Y-109434150D01*
X157240140Y-109434150D01*
X157247843Y-109465900D01*
X157259718Y-109496671D01*
X157279850Y-109534357D01*
X157286523Y-109545002D01*
X157310752Y-109593498D01*
X157315988Y-109633741D01*
X157302049Y-109662258D01*
X157292934Y-109668653D01*
X157268782Y-109679093D01*
X157258009Y-109681335D01*
X157244251Y-109676969D01*
X157209202Y-109664687D01*
X157155386Y-109645404D01*
X157085328Y-109620035D01*
X157001552Y-109589497D01*
X156906582Y-109554706D01*
X156802942Y-109516577D01*
X156746000Y-109495565D01*
X156638163Y-109455471D01*
X156537226Y-109417445D01*
X156445801Y-109382506D01*
X156366498Y-109351674D01*
X156301929Y-109325971D01*
X156254706Y-109306417D01*
X156227440Y-109294031D01*
X156222125Y-109290861D01*
X156204312Y-109266649D01*
X156199900Y-109250000D01*
X156208902Y-109224990D01*
X156222125Y-109209315D01*
X156238492Y-109200931D01*
X156276130Y-109184869D01*
X156332442Y-109162142D01*
X156404831Y-109133763D01*
X156490701Y-109100742D01*
X156587455Y-109064093D01*
X156692496Y-109024827D01*
X156751277Y-109003066D01*
X156877217Y-108956744D01*
X156981532Y-108918750D01*
X157066344Y-108888397D01*
X157133774Y-108865000D01*
X157185944Y-108847873D01*
X157224977Y-108836329D01*
X157252993Y-108829682D01*
X157272114Y-108827247D01*
X157284462Y-108828336D01*
X157284462Y-108828336D01*
G37*
X157284462Y-108828336D02*
X157287852Y-108829547D01*
X157312132Y-108851797D01*
X157315242Y-108887039D01*
X157297159Y-108935650D01*
X157279400Y-108966295D01*
X157267298Y-108984161D01*
X157256158Y-108999768D01*
X157247486Y-109013269D01*
X157242790Y-109024814D01*
X157243580Y-109034554D01*
X157251362Y-109042642D01*
X157267646Y-109049229D01*
X157293938Y-109054466D01*
X157331749Y-109058504D01*
X157382584Y-109061496D01*
X157447954Y-109063593D01*
X157529365Y-109064945D01*
X157628326Y-109065706D01*
X157746345Y-109066025D01*
X157884930Y-109066055D01*
X158045590Y-109065948D01*
X158229832Y-109065853D01*
X158270579Y-109065850D01*
X159299859Y-109065850D01*
X159292156Y-109034100D01*
X159280281Y-109003328D01*
X159260149Y-108965642D01*
X159253476Y-108954997D01*
X159228510Y-108905321D01*
X159223939Y-108865273D01*
X159239791Y-108837111D01*
X159251888Y-108829665D01*
X159262256Y-108827467D01*
X159278810Y-108828598D01*
X159303661Y-108833739D01*
X159338918Y-108843571D01*
X159386693Y-108858776D01*
X159449096Y-108880035D01*
X159528238Y-108908029D01*
X159626229Y-108943439D01*
X159745179Y-108986947D01*
X159788463Y-109002855D01*
X159896924Y-109043017D01*
X159998486Y-109081125D01*
X160090552Y-109116168D01*
X160170524Y-109147136D01*
X160235804Y-109173017D01*
X160283795Y-109192799D01*
X160311900Y-109205472D01*
X160317874Y-109208986D01*
X160335668Y-109233279D01*
X160340099Y-109250000D01*
X160331152Y-109275053D01*
X160317874Y-109291013D01*
X160301503Y-109299456D01*
X160263852Y-109315552D01*
X160207519Y-109338288D01*
X160135102Y-109366654D01*
X160049198Y-109399638D01*
X159952405Y-109436229D01*
X159847320Y-109475415D01*
X159788463Y-109497144D01*
X159662286Y-109543414D01*
X159557750Y-109581368D01*
X159472747Y-109611684D01*
X159405163Y-109635046D01*
X159352891Y-109652133D01*
X159313818Y-109663628D01*
X159285834Y-109670211D01*
X159266829Y-109672564D01*
X159254692Y-109671367D01*
X159251888Y-109670334D01*
X159227749Y-109648027D01*
X159224843Y-109612576D01*
X159243187Y-109563693D01*
X159260600Y-109533704D01*
X159272701Y-109515838D01*
X159283841Y-109500231D01*
X159292513Y-109486730D01*
X159297209Y-109475185D01*
X159296419Y-109465445D01*
X159288637Y-109457357D01*
X159272353Y-109450770D01*
X159246061Y-109445533D01*
X159208250Y-109441495D01*
X159157415Y-109438503D01*
X159092045Y-109436406D01*
X159010634Y-109435054D01*
X158911673Y-109434293D01*
X158793654Y-109433974D01*
X158655069Y-109433944D01*
X158494409Y-109434051D01*
X158310167Y-109434146D01*
X158269420Y-109434150D01*
X157240140Y-109434150D01*
X157247843Y-109465900D01*
X157259718Y-109496671D01*
X157279850Y-109534357D01*
X157286523Y-109545002D01*
X157310752Y-109593498D01*
X157315988Y-109633741D01*
X157302049Y-109662258D01*
X157292934Y-109668653D01*
X157268782Y-109679093D01*
X157258009Y-109681335D01*
X157244251Y-109676969D01*
X157209202Y-109664687D01*
X157155386Y-109645404D01*
X157085328Y-109620035D01*
X157001552Y-109589497D01*
X156906582Y-109554706D01*
X156802942Y-109516577D01*
X156746000Y-109495565D01*
X156638163Y-109455471D01*
X156537226Y-109417445D01*
X156445801Y-109382506D01*
X156366498Y-109351674D01*
X156301929Y-109325971D01*
X156254706Y-109306417D01*
X156227440Y-109294031D01*
X156222125Y-109290861D01*
X156204312Y-109266649D01*
X156199900Y-109250000D01*
X156208902Y-109224990D01*
X156222125Y-109209315D01*
X156238492Y-109200931D01*
X156276130Y-109184869D01*
X156332442Y-109162142D01*
X156404831Y-109133763D01*
X156490701Y-109100742D01*
X156587455Y-109064093D01*
X156692496Y-109024827D01*
X156751277Y-109003066D01*
X156877217Y-108956744D01*
X156981532Y-108918750D01*
X157066344Y-108888397D01*
X157133774Y-108865000D01*
X157185944Y-108847873D01*
X157224977Y-108836329D01*
X157252993Y-108829682D01*
X157272114Y-108827247D01*
X157284462Y-108828336D01*
G36*
X157775457Y-108497525D02*
G01*
X157776903Y-108606122D01*
X157780875Y-108691903D01*
X157788188Y-108757393D01*
X157799661Y-108805119D01*
X157816111Y-108837606D01*
X157838357Y-108857380D01*
X157867215Y-108866967D01*
X157895718Y-108869000D01*
X157932309Y-108867268D01*
X157960671Y-108860183D01*
X157981840Y-108844908D01*
X157996849Y-108818607D01*
X158006734Y-108778444D01*
X158012531Y-108721584D01*
X158015274Y-108645190D01*
X158015998Y-108546426D01*
X158016000Y-108539430D01*
X158016000Y-108297500D01*
X158195225Y-108297500D01*
X158191337Y-108561025D01*
X158189286Y-108662699D01*
X158185882Y-108742475D01*
X158180213Y-108803851D01*
X158171368Y-108850325D01*
X158158435Y-108885394D01*
X158140503Y-108912557D01*
X158116660Y-108935312D01*
X158088544Y-108955476D01*
X158061185Y-108971617D01*
X158033387Y-108981998D01*
X157997993Y-108988170D01*
X157947847Y-108991684D01*
X157915904Y-108992899D01*
X157852667Y-108993895D01*
X157807510Y-108991422D01*
X157773251Y-108984646D01*
X157742950Y-108972850D01*
X157702690Y-108951168D01*
X157671000Y-108926500D01*
X157646781Y-108895589D01*
X157628933Y-108855180D01*
X157616357Y-108802017D01*
X157607954Y-108732843D01*
X157602623Y-108644403D01*
X157599608Y-108548325D01*
X157593657Y-108297500D01*
X157774700Y-108297500D01*
X157775457Y-108497525D01*
X157775457Y-108497525D01*
G37*
X157775457Y-108497525D02*
X157776903Y-108606122D01*
X157780875Y-108691903D01*
X157788188Y-108757393D01*
X157799661Y-108805119D01*
X157816111Y-108837606D01*
X157838357Y-108857380D01*
X157867215Y-108866967D01*
X157895718Y-108869000D01*
X157932309Y-108867268D01*
X157960671Y-108860183D01*
X157981840Y-108844908D01*
X157996849Y-108818607D01*
X158006734Y-108778444D01*
X158012531Y-108721584D01*
X158015274Y-108645190D01*
X158015998Y-108546426D01*
X158016000Y-108539430D01*
X158016000Y-108297500D01*
X158195225Y-108297500D01*
X158191337Y-108561025D01*
X158189286Y-108662699D01*
X158185882Y-108742475D01*
X158180213Y-108803851D01*
X158171368Y-108850325D01*
X158158435Y-108885394D01*
X158140503Y-108912557D01*
X158116660Y-108935312D01*
X158088544Y-108955476D01*
X158061185Y-108971617D01*
X158033387Y-108981998D01*
X157997993Y-108988170D01*
X157947847Y-108991684D01*
X157915904Y-108992899D01*
X157852667Y-108993895D01*
X157807510Y-108991422D01*
X157773251Y-108984646D01*
X157742950Y-108972850D01*
X157702690Y-108951168D01*
X157671000Y-108926500D01*
X157646781Y-108895589D01*
X157628933Y-108855180D01*
X157616357Y-108802017D01*
X157607954Y-108732843D01*
X157602623Y-108644403D01*
X157599608Y-108548325D01*
X157593657Y-108297500D01*
X157774700Y-108297500D01*
X157775457Y-108497525D01*
G36*
X158571625Y-108299559D02*
G01*
X158664742Y-108302770D01*
X158736546Y-108308713D01*
X158791076Y-108318616D01*
X158832375Y-108333705D01*
X158864482Y-108355209D01*
X158891440Y-108384356D01*
X158902908Y-108400204D01*
X158918771Y-108427114D01*
X158927074Y-108454650D01*
X158929443Y-108491527D01*
X158928092Y-108535016D01*
X158924446Y-108585334D01*
X158917723Y-108618703D01*
X158905208Y-108643575D01*
X158885733Y-108666755D01*
X158851303Y-108698112D01*
X158813144Y-108720067D01*
X158765086Y-108734861D01*
X158700959Y-108744735D01*
X158660525Y-108748562D01*
X158549400Y-108757704D01*
X158549400Y-108983300D01*
X158371600Y-108983300D01*
X158371600Y-108424500D01*
X158549400Y-108424500D01*
X158549400Y-108615000D01*
X158625600Y-108615000D01*
X158674395Y-108612742D01*
X158705912Y-108604666D01*
X158727200Y-108589600D01*
X158749008Y-108551592D01*
X158749916Y-108507629D01*
X158730266Y-108465675D01*
X158721427Y-108455672D01*
X158697205Y-108436560D01*
X158667992Y-108427166D01*
X158624080Y-108424510D01*
X158619827Y-108424500D01*
X158549400Y-108424500D01*
X158371600Y-108424500D01*
X158371600Y-108295269D01*
X158571625Y-108299559D01*
X158571625Y-108299559D01*
G37*
X158571625Y-108299559D02*
X158664742Y-108302770D01*
X158736546Y-108308713D01*
X158791076Y-108318616D01*
X158832375Y-108333705D01*
X158864482Y-108355209D01*
X158891440Y-108384356D01*
X158902908Y-108400204D01*
X158918771Y-108427114D01*
X158927074Y-108454650D01*
X158929443Y-108491527D01*
X158928092Y-108535016D01*
X158924446Y-108585334D01*
X158917723Y-108618703D01*
X158905208Y-108643575D01*
X158885733Y-108666755D01*
X158851303Y-108698112D01*
X158813144Y-108720067D01*
X158765086Y-108734861D01*
X158700959Y-108744735D01*
X158660525Y-108748562D01*
X158549400Y-108757704D01*
X158549400Y-108983300D01*
X158371600Y-108983300D01*
X158371600Y-108424500D01*
X158549400Y-108424500D01*
X158549400Y-108615000D01*
X158625600Y-108615000D01*
X158674395Y-108612742D01*
X158705912Y-108604666D01*
X158727200Y-108589600D01*
X158749008Y-108551592D01*
X158749916Y-108507629D01*
X158730266Y-108465675D01*
X158721427Y-108455672D01*
X158697205Y-108436560D01*
X158667992Y-108427166D01*
X158624080Y-108424510D01*
X158619827Y-108424500D01*
X158549400Y-108424500D01*
X158371600Y-108424500D01*
X158371600Y-108295269D01*
X158571625Y-108299559D01*
D12*
X172330000Y-102810000D02*
X172330000Y-104410000D01*
X174130000Y-104410000D02*
X174130000Y-102510000D01*
X152080000Y-99700000D02*
X152080000Y-101200000D01*
X151330000Y-100450000D02*
X152830000Y-100450000D01*
D13*
G36*
X164039706Y-109509242D02*
G01*
X164110650Y-109509385D01*
X164262051Y-109848967D01*
X164300706Y-109935617D01*
X164336052Y-110014754D01*
X164366755Y-110083399D01*
X164391482Y-110138573D01*
X164408897Y-110177297D01*
X164417667Y-110196591D01*
X164418376Y-110198075D01*
X164409595Y-110203093D01*
X164381806Y-110206544D01*
X164348009Y-110207600D01*
X164272720Y-110207600D01*
X164206626Y-110055200D01*
X163868910Y-110055200D01*
X163838643Y-110131400D01*
X163808377Y-110207600D01*
X163733030Y-110207600D01*
X163693952Y-110205885D01*
X163668315Y-110201427D01*
X163661916Y-110196262D01*
X163668006Y-110182180D01*
X163683150Y-110147925D01*
X163706010Y-110096499D01*
X163735248Y-110030905D01*
X163769528Y-109954146D01*
X163778652Y-109933746D01*
X163926500Y-109933746D01*
X163938254Y-109936896D01*
X163969739Y-109939339D01*
X164015288Y-109940719D01*
X164040800Y-109940900D01*
X164091138Y-109940472D01*
X164130164Y-109939326D01*
X164152211Y-109937668D01*
X164155100Y-109936740D01*
X164150166Y-109922086D01*
X164137168Y-109890474D01*
X164118808Y-109847952D01*
X164097787Y-109800567D01*
X164076809Y-109754366D01*
X164058575Y-109715396D01*
X164045788Y-109689705D01*
X164041728Y-109683041D01*
X164034276Y-109690719D01*
X164019727Y-109716327D01*
X164000639Y-109754302D01*
X163979569Y-109799080D01*
X163959074Y-109845098D01*
X163941712Y-109886793D01*
X163930039Y-109918600D01*
X163926500Y-109933746D01*
X163778652Y-109933746D01*
X163807511Y-109869226D01*
X163817456Y-109847012D01*
X163968763Y-109509100D01*
X164039706Y-109509242D01*
X164039706Y-109509242D01*
G37*
X164039706Y-109509242D02*
X164110650Y-109509385D01*
X164262051Y-109848967D01*
X164300706Y-109935617D01*
X164336052Y-110014754D01*
X164366755Y-110083399D01*
X164391482Y-110138573D01*
X164408897Y-110177297D01*
X164417667Y-110196591D01*
X164418376Y-110198075D01*
X164409595Y-110203093D01*
X164381806Y-110206544D01*
X164348009Y-110207600D01*
X164272720Y-110207600D01*
X164206626Y-110055200D01*
X163868910Y-110055200D01*
X163838643Y-110131400D01*
X163808377Y-110207600D01*
X163733030Y-110207600D01*
X163693952Y-110205885D01*
X163668315Y-110201427D01*
X163661916Y-110196262D01*
X163668006Y-110182180D01*
X163683150Y-110147925D01*
X163706010Y-110096499D01*
X163735248Y-110030905D01*
X163769528Y-109954146D01*
X163778652Y-109933746D01*
X163926500Y-109933746D01*
X163938254Y-109936896D01*
X163969739Y-109939339D01*
X164015288Y-109940719D01*
X164040800Y-109940900D01*
X164091138Y-109940472D01*
X164130164Y-109939326D01*
X164152211Y-109937668D01*
X164155100Y-109936740D01*
X164150166Y-109922086D01*
X164137168Y-109890474D01*
X164118808Y-109847952D01*
X164097787Y-109800567D01*
X164076809Y-109754366D01*
X164058575Y-109715396D01*
X164045788Y-109689705D01*
X164041728Y-109683041D01*
X164034276Y-109690719D01*
X164019727Y-109716327D01*
X164000639Y-109754302D01*
X163979569Y-109799080D01*
X163959074Y-109845098D01*
X163941712Y-109886793D01*
X163930039Y-109918600D01*
X163926500Y-109933746D01*
X163778652Y-109933746D01*
X163807511Y-109869226D01*
X163817456Y-109847012D01*
X163968763Y-109509100D01*
X164039706Y-109509242D01*
G36*
X164637700Y-110093300D02*
G01*
X164993300Y-110093300D01*
X164993300Y-110207600D01*
X164498000Y-110207600D01*
X164498000Y-109509100D01*
X164637700Y-109509100D01*
X164637700Y-110093300D01*
X164637700Y-110093300D01*
G37*
X164637700Y-110093300D02*
X164993300Y-110093300D01*
X164993300Y-110207600D01*
X164498000Y-110207600D01*
X164498000Y-109509100D01*
X164637700Y-109509100D01*
X164637700Y-110093300D01*
G36*
X165539400Y-109623400D02*
G01*
X165310800Y-109623400D01*
X165310800Y-110207600D01*
X165171100Y-110207600D01*
X165171100Y-109623400D01*
X164929800Y-109623400D01*
X164929800Y-109509100D01*
X165539400Y-109509100D01*
X165539400Y-109623400D01*
X165539400Y-109623400D01*
G37*
X165539400Y-109623400D02*
X165310800Y-109623400D01*
X165310800Y-110207600D01*
X165171100Y-110207600D01*
X165171100Y-109623400D01*
X164929800Y-109623400D01*
X164929800Y-109509100D01*
X165539400Y-109509100D01*
X165539400Y-109623400D01*
G36*
X165755300Y-110207600D02*
G01*
X165615600Y-110207600D01*
X165615600Y-109509100D01*
X165755300Y-109509100D01*
X165755300Y-110207600D01*
X165755300Y-110207600D01*
G37*
X165755300Y-110207600D02*
X165615600Y-110207600D01*
X165615600Y-109509100D01*
X165755300Y-109509100D01*
X165755300Y-110207600D01*
G36*
X166646187Y-109509100D02*
G01*
X166707800Y-109509100D01*
X166707800Y-110207600D01*
X166568714Y-110207600D01*
X166561750Y-109787462D01*
X166460150Y-109959119D01*
X166421325Y-110024177D01*
X166392538Y-110070401D01*
X166371188Y-110100990D01*
X166354673Y-110119140D01*
X166340393Y-110128051D01*
X166325745Y-110130920D01*
X166320266Y-110131087D01*
X166305074Y-110129840D01*
X166291113Y-110123729D01*
X166275807Y-110109609D01*
X166256578Y-110084335D01*
X166230850Y-110044761D01*
X166196047Y-109987741D01*
X166177469Y-109956775D01*
X166072955Y-109782150D01*
X166072877Y-109994875D01*
X166072800Y-110207600D01*
X165933100Y-110207600D01*
X165933100Y-109509100D01*
X166054265Y-109509100D01*
X166158694Y-109683725D01*
X166196890Y-109747542D01*
X166232881Y-109807577D01*
X166263577Y-109858684D01*
X166285889Y-109895716D01*
X166292963Y-109907392D01*
X166322803Y-109956434D01*
X166453689Y-109732767D01*
X166584575Y-109509099D01*
X166646187Y-109509100D01*
X166646187Y-109509100D01*
G37*
X166646187Y-109509100D02*
X166707800Y-109509100D01*
X166707800Y-110207600D01*
X166568714Y-110207600D01*
X166561750Y-109787462D01*
X166460150Y-109959119D01*
X166421325Y-110024177D01*
X166392538Y-110070401D01*
X166371188Y-110100990D01*
X166354673Y-110119140D01*
X166340393Y-110128051D01*
X166325745Y-110130920D01*
X166320266Y-110131087D01*
X166305074Y-110129840D01*
X166291113Y-110123729D01*
X166275807Y-110109609D01*
X166256578Y-110084335D01*
X166230850Y-110044761D01*
X166196047Y-109987741D01*
X166177469Y-109956775D01*
X166072955Y-109782150D01*
X166072877Y-109994875D01*
X166072800Y-110207600D01*
X165933100Y-110207600D01*
X165933100Y-109509100D01*
X166054265Y-109509100D01*
X166158694Y-109683725D01*
X166196890Y-109747542D01*
X166232881Y-109807577D01*
X166263577Y-109858684D01*
X166285889Y-109895716D01*
X166292963Y-109907392D01*
X166322803Y-109956434D01*
X166453689Y-109732767D01*
X166584575Y-109509099D01*
X166646187Y-109509100D01*
G36*
X167393600Y-109623400D02*
G01*
X167025300Y-109623400D01*
X167025300Y-109801200D01*
X167355500Y-109801200D01*
X167355500Y-109915500D01*
X167025300Y-109915500D01*
X167025300Y-110093300D01*
X167406300Y-110093300D01*
X167406300Y-110207600D01*
X166872900Y-110207600D01*
X166872900Y-109509100D01*
X167393600Y-109509100D01*
X167393600Y-109623400D01*
X167393600Y-109623400D01*
G37*
X167393600Y-109623400D02*
X167025300Y-109623400D01*
X167025300Y-109801200D01*
X167355500Y-109801200D01*
X167355500Y-109915500D01*
X167025300Y-109915500D01*
X167025300Y-110093300D01*
X167406300Y-110093300D01*
X167406300Y-110207600D01*
X166872900Y-110207600D01*
X166872900Y-109509100D01*
X167393600Y-109509100D01*
X167393600Y-109623400D01*
G36*
X168054000Y-109623400D02*
G01*
X167825400Y-109623400D01*
X167825400Y-110207600D01*
X167685700Y-110207600D01*
X167685700Y-109623400D01*
X167457100Y-109623400D01*
X167457100Y-109509100D01*
X168054000Y-109509100D01*
X168054000Y-109623400D01*
X168054000Y-109623400D01*
G37*
X168054000Y-109623400D02*
X167825400Y-109623400D01*
X167825400Y-110207600D01*
X167685700Y-110207600D01*
X167685700Y-109623400D01*
X167457100Y-109623400D01*
X167457100Y-109509100D01*
X168054000Y-109509100D01*
X168054000Y-109623400D01*
G36*
X168650900Y-109623400D02*
G01*
X168282600Y-109623400D01*
X168282600Y-109801200D01*
X168612800Y-109801200D01*
X168612800Y-109915500D01*
X168282600Y-109915500D01*
X168282600Y-110093300D01*
X168663600Y-110093300D01*
X168663600Y-110207600D01*
X168142900Y-110207600D01*
X168142900Y-109509100D01*
X168650900Y-109509100D01*
X168650900Y-109623400D01*
X168650900Y-109623400D01*
G37*
X168650900Y-109623400D02*
X168282600Y-109623400D01*
X168282600Y-109801200D01*
X168612800Y-109801200D01*
X168612800Y-109915500D01*
X168282600Y-109915500D01*
X168282600Y-110093300D01*
X168663600Y-110093300D01*
X168663600Y-110207600D01*
X168142900Y-110207600D01*
X168142900Y-109509100D01*
X168650900Y-109509100D01*
X168650900Y-109623400D01*
G36*
X169080768Y-109510675D02*
G01*
X169155365Y-109516017D01*
X169213236Y-109526051D01*
X169258638Y-109541701D01*
X169295828Y-109563892D01*
X169316279Y-109581016D01*
X169359875Y-109637568D01*
X169383083Y-109708071D01*
X169387500Y-109763947D01*
X169376986Y-109842095D01*
X169345372Y-109906171D01*
X169298100Y-109952501D01*
X169251096Y-109986551D01*
X169313891Y-110074850D01*
X169352886Y-110129699D01*
X169377907Y-110166930D01*
X169389241Y-110189942D01*
X169387177Y-110202135D01*
X169372001Y-110206910D01*
X169344002Y-110207666D01*
X169325119Y-110207600D01*
X169249144Y-110207600D01*
X169182640Y-110112350D01*
X169116137Y-110017100D01*
X168943000Y-110017100D01*
X168943000Y-110207600D01*
X168803300Y-110207600D01*
X168803300Y-109890100D01*
X168943000Y-109890100D01*
X169045230Y-109890100D01*
X169110644Y-109887365D01*
X169160461Y-109879660D01*
X169182458Y-109872002D01*
X169220731Y-109839253D01*
X169242432Y-109793805D01*
X169246074Y-109743394D01*
X169230172Y-109695753D01*
X169219225Y-109680593D01*
X169178351Y-109650490D01*
X169116873Y-109631716D01*
X169033664Y-109623955D01*
X169016025Y-109623702D01*
X168943000Y-109623400D01*
X168943000Y-109890100D01*
X168803300Y-109890100D01*
X168803300Y-109509100D01*
X168985187Y-109509100D01*
X169080768Y-109510675D01*
X169080768Y-109510675D01*
G37*
X169080768Y-109510675D02*
X169155365Y-109516017D01*
X169213236Y-109526051D01*
X169258638Y-109541701D01*
X169295828Y-109563892D01*
X169316279Y-109581016D01*
X169359875Y-109637568D01*
X169383083Y-109708071D01*
X169387500Y-109763947D01*
X169376986Y-109842095D01*
X169345372Y-109906171D01*
X169298100Y-109952501D01*
X169251096Y-109986551D01*
X169313891Y-110074850D01*
X169352886Y-110129699D01*
X169377907Y-110166930D01*
X169389241Y-110189942D01*
X169387177Y-110202135D01*
X169372001Y-110206910D01*
X169344002Y-110207666D01*
X169325119Y-110207600D01*
X169249144Y-110207600D01*
X169182640Y-110112350D01*
X169116137Y-110017100D01*
X168943000Y-110017100D01*
X168943000Y-110207600D01*
X168803300Y-110207600D01*
X168803300Y-109890100D01*
X168943000Y-109890100D01*
X169045230Y-109890100D01*
X169110644Y-109887365D01*
X169160461Y-109879660D01*
X169182458Y-109872002D01*
X169220731Y-109839253D01*
X169242432Y-109793805D01*
X169246074Y-109743394D01*
X169230172Y-109695753D01*
X169219225Y-109680593D01*
X169178351Y-109650490D01*
X169116873Y-109631716D01*
X169033664Y-109623955D01*
X169016025Y-109623702D01*
X168943000Y-109623400D01*
X168943000Y-109890100D01*
X168803300Y-109890100D01*
X168803300Y-109509100D01*
X168985187Y-109509100D01*
X169080768Y-109510675D01*
G36*
X163125788Y-108664211D02*
G01*
X163423386Y-109356700D01*
X163621700Y-109356700D01*
X163621700Y-107972400D01*
X163964600Y-107972400D01*
X163964600Y-109153500D01*
X164599600Y-109153500D01*
X164599600Y-109356700D01*
X164993300Y-109356700D01*
X164993300Y-108264500D01*
X164574200Y-108264500D01*
X164574200Y-107972400D01*
X165755300Y-107972400D01*
X165755300Y-108264500D01*
X165336200Y-108264500D01*
X165336200Y-109356700D01*
X166190784Y-109356700D01*
X166126844Y-109289093D01*
X166074520Y-109227640D01*
X166035141Y-109165071D01*
X166002970Y-109091496D01*
X165989229Y-109051900D01*
X165983360Y-109031572D01*
X165978501Y-109008019D01*
X165974523Y-108978598D01*
X165971301Y-108940667D01*
X165968706Y-108891584D01*
X165966611Y-108828707D01*
X165964889Y-108749394D01*
X165963412Y-108651002D01*
X165962053Y-108530890D01*
X165961523Y-108477225D01*
X165956689Y-107972400D01*
X166299982Y-107972400D01*
X166304605Y-108445475D01*
X166305962Y-108575414D01*
X166307495Y-108682632D01*
X166309566Y-108769807D01*
X166312538Y-108839617D01*
X166316772Y-108894741D01*
X166322632Y-108937857D01*
X166330480Y-108971643D01*
X166340677Y-108998777D01*
X166353587Y-109021937D01*
X166369572Y-109043802D01*
X166388644Y-109066642D01*
X166449991Y-109120844D01*
X166519867Y-109153784D01*
X166593936Y-109165962D01*
X166667862Y-109157877D01*
X166737308Y-109130030D01*
X166797938Y-109082921D01*
X166845416Y-109017048D01*
X166847098Y-109013800D01*
X166860250Y-108985179D01*
X166870989Y-108954064D01*
X166879550Y-108917660D01*
X166886166Y-108873175D01*
X166891073Y-108817817D01*
X166894505Y-108748793D01*
X166896695Y-108663309D01*
X166897878Y-108558574D01*
X166898289Y-108431794D01*
X166898300Y-108403574D01*
X166898300Y-107972400D01*
X167243028Y-107972400D01*
X167237880Y-108470875D01*
X167236397Y-108604254D01*
X167234756Y-108715061D01*
X167232657Y-108806123D01*
X167229800Y-108880268D01*
X167225886Y-108940324D01*
X167220615Y-108989118D01*
X167213687Y-109029477D01*
X167204803Y-109064229D01*
X167193663Y-109096202D01*
X167179967Y-109128223D01*
X167164813Y-109160234D01*
X167141306Y-109199931D01*
X167107406Y-109246818D01*
X167073470Y-109287309D01*
X167010051Y-109356700D01*
X167571400Y-109356700D01*
X167571400Y-108700069D01*
X167914300Y-108700069D01*
X168088925Y-108693084D01*
X168181399Y-108687855D01*
X168251087Y-108680330D01*
X168300525Y-108670192D01*
X168317281Y-108664518D01*
X168370098Y-108633275D01*
X168405051Y-108587827D01*
X168423568Y-108525613D01*
X168427529Y-108466906D01*
X168422650Y-108399853D01*
X168406214Y-108351086D01*
X168375518Y-108315087D01*
X168342805Y-108293833D01*
X168320113Y-108284620D01*
X168288724Y-108277782D01*
X168244368Y-108272826D01*
X168182777Y-108269263D01*
X168107975Y-108266811D01*
X167914300Y-108261785D01*
X167914300Y-108700069D01*
X167571400Y-108700069D01*
X167571400Y-107972400D01*
X167940235Y-107972400D01*
X168081917Y-107973190D01*
X168201037Y-107975922D01*
X168300393Y-107981134D01*
X168382784Y-107989367D01*
X168451009Y-108001161D01*
X168507866Y-108017054D01*
X168556156Y-108037588D01*
X168598676Y-108063301D01*
X168638225Y-108094733D01*
X168655151Y-108110271D01*
X168709371Y-108174290D01*
X168747019Y-108249036D01*
X168769046Y-108337629D01*
X168776398Y-108443193D01*
X168774826Y-108504122D01*
X168762175Y-108616543D01*
X168735977Y-108709556D01*
X168694771Y-108786091D01*
X168637096Y-108849079D01*
X168583250Y-108888509D01*
X168548028Y-108910626D01*
X168522626Y-108926624D01*
X168513476Y-108932440D01*
X168519193Y-108943132D01*
X168537502Y-108971409D01*
X168566292Y-109014144D01*
X168603451Y-109068212D01*
X168646867Y-109130485D01*
X168657721Y-109145931D01*
X168806039Y-109356700D01*
X169108100Y-109356700D01*
X169108100Y-107972400D01*
X169451000Y-107972400D01*
X169451000Y-109356700D01*
X169549425Y-109356634D01*
X169647850Y-109356569D01*
X169872227Y-108836000D01*
X170238720Y-108836000D01*
X170410010Y-108836000D01*
X170472650Y-108835641D01*
X170525016Y-108834658D01*
X170562478Y-108833191D01*
X170580408Y-108831377D01*
X170581300Y-108830852D01*
X170576486Y-108816754D01*
X170563455Y-108784347D01*
X170544324Y-108738528D01*
X170521209Y-108684192D01*
X170496226Y-108626233D01*
X170471492Y-108569547D01*
X170449123Y-108519029D01*
X170431235Y-108479574D01*
X170419946Y-108456077D01*
X170417442Y-108451849D01*
X170409281Y-108458779D01*
X170394026Y-108484904D01*
X170374022Y-108525840D01*
X170356244Y-108566149D01*
X170330102Y-108627532D01*
X170303489Y-108689361D01*
X170280489Y-108742169D01*
X170271290Y-108762975D01*
X170238720Y-108836000D01*
X169872227Y-108836000D01*
X170244750Y-107971727D01*
X170413657Y-107975238D01*
X170582565Y-107978750D01*
X171172965Y-109350350D01*
X171289871Y-109357984D01*
X170998444Y-108719167D01*
X170943185Y-108598013D01*
X170890483Y-108482423D01*
X170841396Y-108374719D01*
X170796980Y-108277221D01*
X170758293Y-108192251D01*
X170726392Y-108122129D01*
X170702333Y-108069177D01*
X170687173Y-108035715D01*
X170682973Y-108026374D01*
X170658928Y-107972400D01*
X170779681Y-107972400D01*
X171156740Y-108706435D01*
X171221785Y-108833194D01*
X171283278Y-108953291D01*
X171340253Y-109064820D01*
X171391742Y-109165878D01*
X171436779Y-109254559D01*
X171474398Y-109328958D01*
X171503630Y-109387170D01*
X171523510Y-109427289D01*
X171533070Y-109447410D01*
X171533800Y-109449385D01*
X171521647Y-109451740D01*
X171487375Y-109453862D01*
X171434266Y-109455664D01*
X171365601Y-109457062D01*
X171284661Y-109457969D01*
X171194727Y-109458299D01*
X170851748Y-109458299D01*
X170717064Y-109140357D01*
X170411652Y-109143753D01*
X170106241Y-109147150D01*
X170040765Y-109299550D01*
X169975290Y-109451950D01*
X168452126Y-109458496D01*
X168289529Y-109223448D01*
X168126932Y-108988399D01*
X168020616Y-108988400D01*
X167914300Y-108988400D01*
X167914300Y-109223382D01*
X167914299Y-109458365D01*
X165505855Y-109455157D01*
X163097411Y-109451950D01*
X163031935Y-109299550D01*
X162966458Y-109147150D01*
X162661047Y-109143753D01*
X162355635Y-109140357D01*
X162288293Y-109299328D01*
X162220951Y-109458300D01*
X161879925Y-109458300D01*
X161789838Y-109457986D01*
X161708676Y-109457104D01*
X161639721Y-109455736D01*
X161586253Y-109453967D01*
X161551554Y-109451883D01*
X161538905Y-109449566D01*
X161538900Y-109449516D01*
X161544556Y-109436995D01*
X161560880Y-109403800D01*
X161586905Y-109351835D01*
X161621664Y-109283005D01*
X161664189Y-109199212D01*
X161713514Y-109102363D01*
X161768672Y-108994360D01*
X161828695Y-108877108D01*
X161892616Y-108752512D01*
X161916220Y-108706566D01*
X162293541Y-107972400D01*
X162413802Y-107972400D01*
X162384124Y-108039075D01*
X162373122Y-108063476D01*
X162352677Y-108108509D01*
X162323912Y-108171707D01*
X162287951Y-108250603D01*
X162245921Y-108342732D01*
X162198945Y-108445629D01*
X162148147Y-108556827D01*
X162094654Y-108673860D01*
X162078586Y-108709000D01*
X162025389Y-108825492D01*
X161975316Y-108935451D01*
X161929383Y-109036629D01*
X161888603Y-109126778D01*
X161853989Y-109203651D01*
X161826555Y-109264998D01*
X161807316Y-109308572D01*
X161797286Y-109332125D01*
X161796119Y-109335287D01*
X161795181Y-109349504D01*
X161807200Y-109355231D01*
X161837884Y-109354751D01*
X161843737Y-109354337D01*
X161897963Y-109350350D01*
X162126847Y-108820125D01*
X162495099Y-108820125D01*
X162498208Y-108826775D01*
X162515759Y-108831404D01*
X162550681Y-108834292D01*
X162605906Y-108835719D01*
X162661009Y-108836000D01*
X162833336Y-108836000D01*
X162788323Y-108731225D01*
X162761478Y-108668519D01*
X162732389Y-108600227D01*
X162706856Y-108539972D01*
X162704264Y-108533826D01*
X162685154Y-108492015D01*
X162668859Y-108462714D01*
X162658189Y-108450787D01*
X162656546Y-108451276D01*
X162649459Y-108465038D01*
X162634521Y-108497422D01*
X162613813Y-108543670D01*
X162589418Y-108599027D01*
X162563418Y-108658736D01*
X162537894Y-108718042D01*
X162514928Y-108772187D01*
X162496602Y-108816415D01*
X162495099Y-108820125D01*
X162126847Y-108820125D01*
X162194005Y-108664550D01*
X162490048Y-107978750D01*
X162659120Y-107975236D01*
X162828191Y-107971723D01*
X163125788Y-108664211D01*
X163125788Y-108664211D01*
G37*
X163125788Y-108664211D02*
X163423386Y-109356700D01*
X163621700Y-109356700D01*
X163621700Y-107972400D01*
X163964600Y-107972400D01*
X163964600Y-109153500D01*
X164599600Y-109153500D01*
X164599600Y-109356700D01*
X164993300Y-109356700D01*
X164993300Y-108264500D01*
X164574200Y-108264500D01*
X164574200Y-107972400D01*
X165755300Y-107972400D01*
X165755300Y-108264500D01*
X165336200Y-108264500D01*
X165336200Y-109356700D01*
X166190784Y-109356700D01*
X166126844Y-109289093D01*
X166074520Y-109227640D01*
X166035141Y-109165071D01*
X166002970Y-109091496D01*
X165989229Y-109051900D01*
X165983360Y-109031572D01*
X165978501Y-109008019D01*
X165974523Y-108978598D01*
X165971301Y-108940667D01*
X165968706Y-108891584D01*
X165966611Y-108828707D01*
X165964889Y-108749394D01*
X165963412Y-108651002D01*
X165962053Y-108530890D01*
X165961523Y-108477225D01*
X165956689Y-107972400D01*
X166299982Y-107972400D01*
X166304605Y-108445475D01*
X166305962Y-108575414D01*
X166307495Y-108682632D01*
X166309566Y-108769807D01*
X166312538Y-108839617D01*
X166316772Y-108894741D01*
X166322632Y-108937857D01*
X166330480Y-108971643D01*
X166340677Y-108998777D01*
X166353587Y-109021937D01*
X166369572Y-109043802D01*
X166388644Y-109066642D01*
X166449991Y-109120844D01*
X166519867Y-109153784D01*
X166593936Y-109165962D01*
X166667862Y-109157877D01*
X166737308Y-109130030D01*
X166797938Y-109082921D01*
X166845416Y-109017048D01*
X166847098Y-109013800D01*
X166860250Y-108985179D01*
X166870989Y-108954064D01*
X166879550Y-108917660D01*
X166886166Y-108873175D01*
X166891073Y-108817817D01*
X166894505Y-108748793D01*
X166896695Y-108663309D01*
X166897878Y-108558574D01*
X166898289Y-108431794D01*
X166898300Y-108403574D01*
X166898300Y-107972400D01*
X167243028Y-107972400D01*
X167237880Y-108470875D01*
X167236397Y-108604254D01*
X167234756Y-108715061D01*
X167232657Y-108806123D01*
X167229800Y-108880268D01*
X167225886Y-108940324D01*
X167220615Y-108989118D01*
X167213687Y-109029477D01*
X167204803Y-109064229D01*
X167193663Y-109096202D01*
X167179967Y-109128223D01*
X167164813Y-109160234D01*
X167141306Y-109199931D01*
X167107406Y-109246818D01*
X167073470Y-109287309D01*
X167010051Y-109356700D01*
X167571400Y-109356700D01*
X167571400Y-108700069D01*
X167914300Y-108700069D01*
X168088925Y-108693084D01*
X168181399Y-108687855D01*
X168251087Y-108680330D01*
X168300525Y-108670192D01*
X168317281Y-108664518D01*
X168370098Y-108633275D01*
X168405051Y-108587827D01*
X168423568Y-108525613D01*
X168427529Y-108466906D01*
X168422650Y-108399853D01*
X168406214Y-108351086D01*
X168375518Y-108315087D01*
X168342805Y-108293833D01*
X168320113Y-108284620D01*
X168288724Y-108277782D01*
X168244368Y-108272826D01*
X168182777Y-108269263D01*
X168107975Y-108266811D01*
X167914300Y-108261785D01*
X167914300Y-108700069D01*
X167571400Y-108700069D01*
X167571400Y-107972400D01*
X167940235Y-107972400D01*
X168081917Y-107973190D01*
X168201037Y-107975922D01*
X168300393Y-107981134D01*
X168382784Y-107989367D01*
X168451009Y-108001161D01*
X168507866Y-108017054D01*
X168556156Y-108037588D01*
X168598676Y-108063301D01*
X168638225Y-108094733D01*
X168655151Y-108110271D01*
X168709371Y-108174290D01*
X168747019Y-108249036D01*
X168769046Y-108337629D01*
X168776398Y-108443193D01*
X168774826Y-108504122D01*
X168762175Y-108616543D01*
X168735977Y-108709556D01*
X168694771Y-108786091D01*
X168637096Y-108849079D01*
X168583250Y-108888509D01*
X168548028Y-108910626D01*
X168522626Y-108926624D01*
X168513476Y-108932440D01*
X168519193Y-108943132D01*
X168537502Y-108971409D01*
X168566292Y-109014144D01*
X168603451Y-109068212D01*
X168646867Y-109130485D01*
X168657721Y-109145931D01*
X168806039Y-109356700D01*
X169108100Y-109356700D01*
X169108100Y-107972400D01*
X169451000Y-107972400D01*
X169451000Y-109356700D01*
X169549425Y-109356634D01*
X169647850Y-109356569D01*
X169872227Y-108836000D01*
X170238720Y-108836000D01*
X170410010Y-108836000D01*
X170472650Y-108835641D01*
X170525016Y-108834658D01*
X170562478Y-108833191D01*
X170580408Y-108831377D01*
X170581300Y-108830852D01*
X170576486Y-108816754D01*
X170563455Y-108784347D01*
X170544324Y-108738528D01*
X170521209Y-108684192D01*
X170496226Y-108626233D01*
X170471492Y-108569547D01*
X170449123Y-108519029D01*
X170431235Y-108479574D01*
X170419946Y-108456077D01*
X170417442Y-108451849D01*
X170409281Y-108458779D01*
X170394026Y-108484904D01*
X170374022Y-108525840D01*
X170356244Y-108566149D01*
X170330102Y-108627532D01*
X170303489Y-108689361D01*
X170280489Y-108742169D01*
X170271290Y-108762975D01*
X170238720Y-108836000D01*
X169872227Y-108836000D01*
X170244750Y-107971727D01*
X170413657Y-107975238D01*
X170582565Y-107978750D01*
X171172965Y-109350350D01*
X171289871Y-109357984D01*
X170998444Y-108719167D01*
X170943185Y-108598013D01*
X170890483Y-108482423D01*
X170841396Y-108374719D01*
X170796980Y-108277221D01*
X170758293Y-108192251D01*
X170726392Y-108122129D01*
X170702333Y-108069177D01*
X170687173Y-108035715D01*
X170682973Y-108026374D01*
X170658928Y-107972400D01*
X170779681Y-107972400D01*
X171156740Y-108706435D01*
X171221785Y-108833194D01*
X171283278Y-108953291D01*
X171340253Y-109064820D01*
X171391742Y-109165878D01*
X171436779Y-109254559D01*
X171474398Y-109328958D01*
X171503630Y-109387170D01*
X171523510Y-109427289D01*
X171533070Y-109447410D01*
X171533800Y-109449385D01*
X171521647Y-109451740D01*
X171487375Y-109453862D01*
X171434266Y-109455664D01*
X171365601Y-109457062D01*
X171284661Y-109457969D01*
X171194727Y-109458299D01*
X170851748Y-109458299D01*
X170717064Y-109140357D01*
X170411652Y-109143753D01*
X170106241Y-109147150D01*
X170040765Y-109299550D01*
X169975290Y-109451950D01*
X168452126Y-109458496D01*
X168289529Y-109223448D01*
X168126932Y-108988399D01*
X168020616Y-108988400D01*
X167914300Y-108988400D01*
X167914300Y-109223382D01*
X167914299Y-109458365D01*
X165505855Y-109455157D01*
X163097411Y-109451950D01*
X163031935Y-109299550D01*
X162966458Y-109147150D01*
X162661047Y-109143753D01*
X162355635Y-109140357D01*
X162288293Y-109299328D01*
X162220951Y-109458300D01*
X161879925Y-109458300D01*
X161789838Y-109457986D01*
X161708676Y-109457104D01*
X161639721Y-109455736D01*
X161586253Y-109453967D01*
X161551554Y-109451883D01*
X161538905Y-109449566D01*
X161538900Y-109449516D01*
X161544556Y-109436995D01*
X161560880Y-109403800D01*
X161586905Y-109351835D01*
X161621664Y-109283005D01*
X161664189Y-109199212D01*
X161713514Y-109102363D01*
X161768672Y-108994360D01*
X161828695Y-108877108D01*
X161892616Y-108752512D01*
X161916220Y-108706566D01*
X162293541Y-107972400D01*
X162413802Y-107972400D01*
X162384124Y-108039075D01*
X162373122Y-108063476D01*
X162352677Y-108108509D01*
X162323912Y-108171707D01*
X162287951Y-108250603D01*
X162245921Y-108342732D01*
X162198945Y-108445629D01*
X162148147Y-108556827D01*
X162094654Y-108673860D01*
X162078586Y-108709000D01*
X162025389Y-108825492D01*
X161975316Y-108935451D01*
X161929383Y-109036629D01*
X161888603Y-109126778D01*
X161853989Y-109203651D01*
X161826555Y-109264998D01*
X161807316Y-109308572D01*
X161797286Y-109332125D01*
X161796119Y-109335287D01*
X161795181Y-109349504D01*
X161807200Y-109355231D01*
X161837884Y-109354751D01*
X161843737Y-109354337D01*
X161897963Y-109350350D01*
X162126847Y-108820125D01*
X162495099Y-108820125D01*
X162498208Y-108826775D01*
X162515759Y-108831404D01*
X162550681Y-108834292D01*
X162605906Y-108835719D01*
X162661009Y-108836000D01*
X162833336Y-108836000D01*
X162788323Y-108731225D01*
X162761478Y-108668519D01*
X162732389Y-108600227D01*
X162706856Y-108539972D01*
X162704264Y-108533826D01*
X162685154Y-108492015D01*
X162668859Y-108462714D01*
X162658189Y-108450787D01*
X162656546Y-108451276D01*
X162649459Y-108465038D01*
X162634521Y-108497422D01*
X162613813Y-108543670D01*
X162589418Y-108599027D01*
X162563418Y-108658736D01*
X162537894Y-108718042D01*
X162514928Y-108772187D01*
X162496602Y-108816415D01*
X162495099Y-108820125D01*
X162126847Y-108820125D01*
X162194005Y-108664550D01*
X162490048Y-107978750D01*
X162659120Y-107975236D01*
X162828191Y-107971723D01*
X163125788Y-108664211D01*
D12*
X175130000Y-113330000D02*
X176400000Y-113330000D01*
X175130000Y-114600000D02*
X175130000Y-113330000D01*
X177442929Y-120060000D02*
X177897071Y-120060000D01*
X177442929Y-119300000D02*
X177897071Y-119300000D01*
X179982929Y-120060000D02*
X180380000Y-120060000D01*
X179982929Y-119300000D02*
X180380000Y-119300000D01*
X189040000Y-120060000D02*
X183040000Y-120060000D01*
X189040000Y-119300000D02*
X189040000Y-120060000D01*
X183040000Y-119300000D02*
X189040000Y-119300000D01*
X180380000Y-118410000D02*
X183040000Y-118410000D01*
X177442929Y-117520000D02*
X177897071Y-117520000D01*
X177442929Y-116760000D02*
X177897071Y-116760000D01*
X179982929Y-117520000D02*
X180380000Y-117520000D01*
X179982929Y-116760000D02*
X180380000Y-116760000D01*
X189040000Y-117520000D02*
X183040000Y-117520000D01*
X189040000Y-116760000D02*
X189040000Y-117520000D01*
X183040000Y-116760000D02*
X189040000Y-116760000D01*
X180380000Y-115870000D02*
X183040000Y-115870000D01*
X177510000Y-114980000D02*
X177897071Y-114980000D01*
X177510000Y-114220000D02*
X177897071Y-114220000D01*
X179982929Y-114980000D02*
X180380000Y-114980000D01*
X179982929Y-114220000D02*
X180380000Y-114220000D01*
X183040000Y-114880000D02*
X189040000Y-114880000D01*
X183040000Y-114760000D02*
X189040000Y-114760000D01*
X183040000Y-114640000D02*
X189040000Y-114640000D01*
X183040000Y-114520000D02*
X189040000Y-114520000D01*
X183040000Y-114400000D02*
X189040000Y-114400000D01*
X183040000Y-114280000D02*
X189040000Y-114280000D01*
X189040000Y-114980000D02*
X183040000Y-114980000D01*
X189040000Y-114220000D02*
X189040000Y-114980000D01*
X183040000Y-114220000D02*
X189040000Y-114220000D01*
X183040000Y-113270000D02*
X180380000Y-113270000D01*
X183040000Y-121010000D02*
X183040000Y-113270000D01*
X180380000Y-121010000D02*
X183040000Y-121010000D01*
X180380000Y-113270000D02*
X180380000Y-121010000D01*
X149810000Y-96590000D02*
X149810000Y-99000000D01*
X147400000Y-96590000D02*
X149810000Y-96590000D01*
X147460000Y-116860000D02*
X147460000Y-117140000D01*
X147460000Y-114860000D02*
X147460000Y-115140000D01*
X147460000Y-112860000D02*
X147460000Y-113140000D01*
X147460000Y-110860000D02*
X147460000Y-111140000D01*
X147460000Y-108860000D02*
X147460000Y-109140000D01*
X147460000Y-106860000D02*
X147460000Y-107140000D01*
X147460000Y-104860000D02*
X147460000Y-105140000D01*
X147460000Y-102860000D02*
X147460000Y-103140000D01*
X147460000Y-100860000D02*
X147460000Y-101140000D01*
X147460000Y-119390000D02*
X147460000Y-118860000D01*
X149510000Y-119390000D02*
X147460000Y-119390000D01*
X149510000Y-121110000D02*
X149510000Y-119390000D01*
X138040000Y-121110000D02*
X149510000Y-121110000D01*
X138040000Y-112500000D02*
X138040000Y-121110000D01*
X137540000Y-112000000D02*
X138040000Y-112500000D01*
X137540000Y-109000000D02*
X137540000Y-112000000D01*
X147460000Y-98610000D02*
X147460000Y-99140000D01*
X149510000Y-98610000D02*
X147460000Y-98610000D01*
X149510000Y-96890000D02*
X149510000Y-98610000D01*
X138040000Y-96890000D02*
X149510000Y-96890000D01*
X138040000Y-105500000D02*
X138040000Y-96890000D01*
X137540000Y-106000000D02*
X138040000Y-105500000D01*
X137540000Y-109000000D02*
X137540000Y-106000000D01*
X170922520Y-103843180D02*
X168472520Y-103843180D01*
X169122520Y-107063180D02*
X170922520Y-107063180D01*
X174931200Y-110527200D02*
X172381200Y-110527200D01*
X174931200Y-108827200D02*
X172381200Y-108827200D01*
X174931200Y-110527200D02*
X174931200Y-108827200D01*
X177330000Y-104060000D02*
X177330000Y-105520000D01*
X174170000Y-104060000D02*
X174170000Y-106220000D01*
X174170000Y-104060000D02*
X175100000Y-104060000D01*
X177330000Y-104060000D02*
X176400000Y-104060000D01*
X172690800Y-117108100D02*
X172690800Y-114108100D01*
X162690800Y-114108100D02*
X162690800Y-117108100D01*
X162690800Y-110608100D02*
X162690800Y-111108100D01*
X171690800Y-110608100D02*
X162690800Y-110608100D01*
X162690800Y-120608100D02*
X162690800Y-120208100D01*
X171690800Y-110608100D02*
X172290800Y-111208100D01*
X172690800Y-120608100D02*
X172690800Y-120208100D01*
X162690800Y-120608100D02*
X172690800Y-120608100D01*
X174160000Y-102012500D02*
X174160000Y-101562500D01*
X174160000Y-102012500D02*
X173710000Y-102012500D01*
X168560000Y-101462500D02*
X169010000Y-101462500D01*
X168560000Y-99612500D02*
X168560000Y-101462500D01*
X176360000Y-97062500D02*
X176360000Y-97312500D01*
X168560000Y-97062500D02*
X168560000Y-97312500D01*
X176360000Y-99612500D02*
X176360000Y-101462500D01*
X176360000Y-101462500D02*
X175910000Y-101462500D01*
X157760000Y-114740000D02*
X158240000Y-114740000D01*
X157760000Y-118860000D02*
X158240000Y-118860000D01*
X155760000Y-114740000D02*
X156240000Y-114740000D01*
X155760000Y-118860000D02*
X156240000Y-118860000D01*
X153760000Y-114740000D02*
X154240000Y-114740000D01*
X153760000Y-118860000D02*
X154240000Y-118860000D01*
X151760000Y-114740000D02*
X152240000Y-114740000D01*
X151760000Y-118860000D02*
X152240000Y-118860000D01*
X159760000Y-114740000D02*
X160060000Y-114740000D01*
X159760000Y-118860000D02*
X160060000Y-118860000D01*
X149940000Y-114740000D02*
X150240000Y-114740000D01*
X149940000Y-118860000D02*
X150240000Y-118860000D01*
X150240000Y-120115000D02*
X150240000Y-118860000D01*
X160060000Y-118860000D02*
X160060000Y-114740000D01*
X149940000Y-118860000D02*
X149940000Y-114740000D01*
X183060000Y-96940000D02*
X183060000Y-100425000D01*
X177340000Y-96940000D02*
X183060000Y-96940000D01*
X177340000Y-98010000D02*
X177340000Y-96940000D01*
X177640000Y-98010000D02*
X177340000Y-98010000D01*
X177640000Y-100425000D02*
X177640000Y-98010000D01*
X183060000Y-103910000D02*
X183060000Y-100425000D01*
X177340000Y-103910000D02*
X183060000Y-103910000D01*
X177340000Y-102840000D02*
X177340000Y-103910000D01*
X177640000Y-102840000D02*
X177340000Y-102840000D01*
X177640000Y-100425000D02*
X177640000Y-102840000D01*
X177050000Y-102550000D02*
X177050000Y-103050000D01*
X177350000Y-102550000D02*
X177050000Y-102550000D01*
X158522340Y-113112920D02*
X158522340Y-110827920D01*
X157052340Y-113112920D02*
X158522340Y-113112920D01*
X157052340Y-110827920D02*
X157052340Y-113112920D01*
M02*
