G04 #@! TF.GenerationSoftware,KiCad,Pcbnew,5.1.6*
G04 #@! TF.CreationDate,2020-06-28T16:35:29+02:00*
G04 #@! TF.ProjectId,altimeter,616c7469-6d65-4746-9572-2e6b69636164,V 1.2 Rev. A*
G04 #@! TF.SameCoordinates,Original*
G04 #@! TF.FileFunction,Paste,Top*
G04 #@! TF.FilePolarity,Positive*
%FSLAX46Y46*%
G04 Gerber Fmt 4.6, Leading zero omitted, Abs format (unit mm)*
G04 Created by KiCad (PCBNEW 5.1.6) date 2020-06-28 16:35:29*
%MOMM*%
%LPD*%
G01*
G04 APERTURE LIST*
%ADD10R,0.546000X0.336000*%
%ADD11R,0.600000X1.000000*%
%ADD12R,0.546000X0.294000*%
%ADD13R,0.840000X0.840000*%
%ADD14R,0.378000X0.504000*%
%ADD15C,0.100000*%
%ADD16R,0.380700X0.930600*%
%ADD17R,0.756000X0.672000*%
%ADD18R,0.672000X0.756000*%
%ADD19R,1.260000X1.596000*%
%ADD20R,0.336000X1.134000*%
%ADD21R,0.840000X2.167200*%
G04 APERTURE END LIST*
D10*
X163425000Y-97750000D03*
X163425000Y-99050000D03*
X161525000Y-98400000D03*
X161525000Y-99050000D03*
X161525000Y-97750000D03*
G36*
G01*
X158350301Y-102700000D02*
X157749699Y-102700000D01*
G75*
G02*
X157700000Y-102650301I0J49699D01*
G01*
X157700000Y-101749699D01*
G75*
G02*
X157749699Y-101700000I49699J0D01*
G01*
X158350301Y-101700000D01*
G75*
G02*
X158400000Y-101749699I0J-49699D01*
G01*
X158400000Y-102650301D01*
G75*
G02*
X158350301Y-102700000I-49699J0D01*
G01*
G37*
G36*
G01*
X157450301Y-102700000D02*
X156849699Y-102700000D01*
G75*
G02*
X156800000Y-102650301I0J49699D01*
G01*
X156800000Y-101749699D01*
G75*
G02*
X156849699Y-101700000I49699J0D01*
G01*
X157450301Y-101700000D01*
G75*
G02*
X157500000Y-101749699I0J-49699D01*
G01*
X157500000Y-102650301D01*
G75*
G02*
X157450301Y-102700000I-49699J0D01*
G01*
G37*
G36*
G01*
X158333916Y-101414000D02*
X158166084Y-101414000D01*
G75*
G02*
X158124000Y-101371916I0J42084D01*
G01*
X158124000Y-101078084D01*
G75*
G02*
X158166084Y-101036000I42084J0D01*
G01*
X158333916Y-101036000D01*
G75*
G02*
X158376000Y-101078084I0J-42084D01*
G01*
X158376000Y-101371916D01*
G75*
G02*
X158333916Y-101414000I-42084J0D01*
G01*
G37*
G36*
G01*
X157683916Y-101414000D02*
X157516084Y-101414000D01*
G75*
G02*
X157474000Y-101371916I0J42084D01*
G01*
X157474000Y-101078084D01*
G75*
G02*
X157516084Y-101036000I42084J0D01*
G01*
X157683916Y-101036000D01*
G75*
G02*
X157726000Y-101078084I0J-42084D01*
G01*
X157726000Y-101371916D01*
G75*
G02*
X157683916Y-101414000I-42084J0D01*
G01*
G37*
G36*
G01*
X157033916Y-101414000D02*
X156866084Y-101414000D01*
G75*
G02*
X156824000Y-101371916I0J42084D01*
G01*
X156824000Y-101078084D01*
G75*
G02*
X156866084Y-101036000I42084J0D01*
G01*
X157033916Y-101036000D01*
G75*
G02*
X157076000Y-101078084I0J-42084D01*
G01*
X157076000Y-101371916D01*
G75*
G02*
X157033916Y-101414000I-42084J0D01*
G01*
G37*
G36*
G01*
X158333916Y-103364000D02*
X158166084Y-103364000D01*
G75*
G02*
X158124000Y-103321916I0J42084D01*
G01*
X158124000Y-103028084D01*
G75*
G02*
X158166084Y-102986000I42084J0D01*
G01*
X158333916Y-102986000D01*
G75*
G02*
X158376000Y-103028084I0J-42084D01*
G01*
X158376000Y-103321916D01*
G75*
G02*
X158333916Y-103364000I-42084J0D01*
G01*
G37*
G36*
G01*
X157683916Y-103364000D02*
X157516084Y-103364000D01*
G75*
G02*
X157474000Y-103321916I0J42084D01*
G01*
X157474000Y-103028084D01*
G75*
G02*
X157516084Y-102986000I42084J0D01*
G01*
X157683916Y-102986000D01*
G75*
G02*
X157726000Y-103028084I0J-42084D01*
G01*
X157726000Y-103321916D01*
G75*
G02*
X157683916Y-103364000I-42084J0D01*
G01*
G37*
G36*
G01*
X157033916Y-103364000D02*
X156866084Y-103364000D01*
G75*
G02*
X156824000Y-103321916I0J42084D01*
G01*
X156824000Y-103028084D01*
G75*
G02*
X156866084Y-102986000I42084J0D01*
G01*
X157033916Y-102986000D01*
G75*
G02*
X157076000Y-103028084I0J-42084D01*
G01*
X157076000Y-103321916D01*
G75*
G02*
X157033916Y-103364000I-42084J0D01*
G01*
G37*
G36*
G01*
X158519000Y-105529500D02*
X158519000Y-105130500D01*
G75*
G02*
X158718500Y-104931000I199500J0D01*
G01*
X159201500Y-104931000D01*
G75*
G02*
X159401000Y-105130500I0J-199500D01*
G01*
X159401000Y-105529500D01*
G75*
G02*
X159201500Y-105729000I-199500J0D01*
G01*
X158718500Y-105729000D01*
G75*
G02*
X158519000Y-105529500I0J199500D01*
G01*
G37*
G36*
G01*
X156769000Y-105529500D02*
X156769000Y-105130500D01*
G75*
G02*
X156968500Y-104931000I199500J0D01*
G01*
X157451500Y-104931000D01*
G75*
G02*
X157651000Y-105130500I0J-199500D01*
G01*
X157651000Y-105529500D01*
G75*
G02*
X157451500Y-105729000I-199500J0D01*
G01*
X156968500Y-105729000D01*
G75*
G02*
X156769000Y-105529500I0J199500D01*
G01*
G37*
G36*
G01*
X151306999Y-104472000D02*
X152063001Y-104472000D01*
G75*
G02*
X152273000Y-104681999I0J-209999D01*
G01*
X152273000Y-105228001D01*
G75*
G02*
X152063001Y-105438000I-209999J0D01*
G01*
X151306999Y-105438000D01*
G75*
G02*
X151097000Y-105228001I0J209999D01*
G01*
X151097000Y-104681999D01*
G75*
G02*
X151306999Y-104472000I209999J0D01*
G01*
G37*
G36*
G01*
X151306999Y-102422000D02*
X152063001Y-102422000D01*
G75*
G02*
X152273000Y-102631999I0J-209999D01*
G01*
X152273000Y-103178001D01*
G75*
G02*
X152063001Y-103388000I-209999J0D01*
G01*
X151306999Y-103388000D01*
G75*
G02*
X151097000Y-103178001I0J209999D01*
G01*
X151097000Y-102631999D01*
G75*
G02*
X151306999Y-102422000I209999J0D01*
G01*
G37*
G36*
G01*
X153121999Y-104472000D02*
X153878001Y-104472000D01*
G75*
G02*
X154088000Y-104681999I0J-209999D01*
G01*
X154088000Y-105228001D01*
G75*
G02*
X153878001Y-105438000I-209999J0D01*
G01*
X153121999Y-105438000D01*
G75*
G02*
X152912000Y-105228001I0J209999D01*
G01*
X152912000Y-104681999D01*
G75*
G02*
X153121999Y-104472000I209999J0D01*
G01*
G37*
G36*
G01*
X153121999Y-102422000D02*
X153878001Y-102422000D01*
G75*
G02*
X154088000Y-102631999I0J-209999D01*
G01*
X154088000Y-103178001D01*
G75*
G02*
X153878001Y-103388000I-209999J0D01*
G01*
X153121999Y-103388000D01*
G75*
G02*
X152912000Y-103178001I0J209999D01*
G01*
X152912000Y-102631999D01*
G75*
G02*
X153121999Y-102422000I209999J0D01*
G01*
G37*
G36*
G01*
X149491999Y-104472000D02*
X150248001Y-104472000D01*
G75*
G02*
X150458000Y-104681999I0J-209999D01*
G01*
X150458000Y-105228001D01*
G75*
G02*
X150248001Y-105438000I-209999J0D01*
G01*
X149491999Y-105438000D01*
G75*
G02*
X149282000Y-105228001I0J209999D01*
G01*
X149282000Y-104681999D01*
G75*
G02*
X149491999Y-104472000I209999J0D01*
G01*
G37*
G36*
G01*
X149491999Y-102422000D02*
X150248001Y-102422000D01*
G75*
G02*
X150458000Y-102631999I0J-209999D01*
G01*
X150458000Y-103178001D01*
G75*
G02*
X150248001Y-103388000I-209999J0D01*
G01*
X149491999Y-103388000D01*
G75*
G02*
X149282000Y-103178001I0J209999D01*
G01*
X149282000Y-102631999D01*
G75*
G02*
X149491999Y-102422000I209999J0D01*
G01*
G37*
G36*
G01*
X163166000Y-104460500D02*
X163166000Y-104859500D01*
G75*
G02*
X162966500Y-105059000I-199500J0D01*
G01*
X162483500Y-105059000D01*
G75*
G02*
X162284000Y-104859500I0J199500D01*
G01*
X162284000Y-104460500D01*
G75*
G02*
X162483500Y-104261000I199500J0D01*
G01*
X162966500Y-104261000D01*
G75*
G02*
X163166000Y-104460500I0J-199500D01*
G01*
G37*
G36*
G01*
X164916000Y-104460500D02*
X164916000Y-104859500D01*
G75*
G02*
X164716500Y-105059000I-199500J0D01*
G01*
X164233500Y-105059000D01*
G75*
G02*
X164034000Y-104859500I0J199500D01*
G01*
X164034000Y-104460500D01*
G75*
G02*
X164233500Y-104261000I199500J0D01*
G01*
X164716500Y-104261000D01*
G75*
G02*
X164916000Y-104460500I0J-199500D01*
G01*
G37*
G36*
G01*
X163344900Y-101562800D02*
X163055100Y-101562800D01*
G75*
G02*
X162931200Y-101438900I0J123900D01*
G01*
X162931200Y-101191100D01*
G75*
G02*
X163055100Y-101067200I123900J0D01*
G01*
X163344900Y-101067200D01*
G75*
G02*
X163468800Y-101191100I0J-123900D01*
G01*
X163468800Y-101438900D01*
G75*
G02*
X163344900Y-101562800I-123900J0D01*
G01*
G37*
G36*
G01*
X163344900Y-102532800D02*
X163055100Y-102532800D01*
G75*
G02*
X162931200Y-102408900I0J123900D01*
G01*
X162931200Y-102161100D01*
G75*
G02*
X163055100Y-102037200I123900J0D01*
G01*
X163344900Y-102037200D01*
G75*
G02*
X163468800Y-102161100I0J-123900D01*
G01*
X163468800Y-102408900D01*
G75*
G02*
X163344900Y-102532800I-123900J0D01*
G01*
G37*
G36*
G01*
X159028000Y-100283250D02*
X159028000Y-99516750D01*
G75*
G02*
X159232750Y-99312000I204750J0D01*
G01*
X159642250Y-99312000D01*
G75*
G02*
X159847000Y-99516750I0J-204750D01*
G01*
X159847000Y-100283250D01*
G75*
G02*
X159642250Y-100488000I-204750J0D01*
G01*
X159232750Y-100488000D01*
G75*
G02*
X159028000Y-100283250I0J204750D01*
G01*
G37*
G36*
G01*
X157153000Y-100283250D02*
X157153000Y-99516750D01*
G75*
G02*
X157357750Y-99312000I204750J0D01*
G01*
X157767250Y-99312000D01*
G75*
G02*
X157972000Y-99516750I0J-204750D01*
G01*
X157972000Y-100283250D01*
G75*
G02*
X157767250Y-100488000I-204750J0D01*
G01*
X157357750Y-100488000D01*
G75*
G02*
X157153000Y-100283250I0J204750D01*
G01*
G37*
D11*
X167537500Y-103950000D03*
X166762500Y-103950000D03*
X166762500Y-102750000D03*
X167537500Y-102750000D03*
D12*
X165600000Y-104325000D03*
X165600000Y-103675000D03*
X165600000Y-103025000D03*
X165600000Y-102375000D03*
X168700000Y-102375000D03*
X168700000Y-103025000D03*
X168700000Y-103675000D03*
X168700000Y-104325000D03*
G36*
G01*
X160032800Y-110785100D02*
X160032800Y-111074900D01*
G75*
G02*
X159908900Y-111198800I-123900J0D01*
G01*
X159661100Y-111198800D01*
G75*
G02*
X159537200Y-111074900I0J123900D01*
G01*
X159537200Y-110785100D01*
G75*
G02*
X159661100Y-110661200I123900J0D01*
G01*
X159908900Y-110661200D01*
G75*
G02*
X160032800Y-110785100I0J-123900D01*
G01*
G37*
G36*
G01*
X161002800Y-110785100D02*
X161002800Y-111074900D01*
G75*
G02*
X160878900Y-111198800I-123900J0D01*
G01*
X160631100Y-111198800D01*
G75*
G02*
X160507200Y-111074900I0J123900D01*
G01*
X160507200Y-110785100D01*
G75*
G02*
X160631100Y-110661200I123900J0D01*
G01*
X160878900Y-110661200D01*
G75*
G02*
X161002800Y-110785100I0J-123900D01*
G01*
G37*
G36*
G01*
X160032800Y-111665100D02*
X160032800Y-111954900D01*
G75*
G02*
X159908900Y-112078800I-123900J0D01*
G01*
X159661100Y-112078800D01*
G75*
G02*
X159537200Y-111954900I0J123900D01*
G01*
X159537200Y-111665100D01*
G75*
G02*
X159661100Y-111541200I123900J0D01*
G01*
X159908900Y-111541200D01*
G75*
G02*
X160032800Y-111665100I0J-123900D01*
G01*
G37*
G36*
G01*
X161002800Y-111665100D02*
X161002800Y-111954900D01*
G75*
G02*
X160878900Y-112078800I-123900J0D01*
G01*
X160631100Y-112078800D01*
G75*
G02*
X160507200Y-111954900I0J123900D01*
G01*
X160507200Y-111665100D01*
G75*
G02*
X160631100Y-111541200I123900J0D01*
G01*
X160878900Y-111541200D01*
G75*
G02*
X161002800Y-111665100I0J-123900D01*
G01*
G37*
G36*
G01*
X160032800Y-112545100D02*
X160032800Y-112834900D01*
G75*
G02*
X159908900Y-112958800I-123900J0D01*
G01*
X159661100Y-112958800D01*
G75*
G02*
X159537200Y-112834900I0J123900D01*
G01*
X159537200Y-112545100D01*
G75*
G02*
X159661100Y-112421200I123900J0D01*
G01*
X159908900Y-112421200D01*
G75*
G02*
X160032800Y-112545100I0J-123900D01*
G01*
G37*
G36*
G01*
X161002800Y-112545100D02*
X161002800Y-112834900D01*
G75*
G02*
X160878900Y-112958800I-123900J0D01*
G01*
X160631100Y-112958800D01*
G75*
G02*
X160507200Y-112834900I0J123900D01*
G01*
X160507200Y-112545100D01*
G75*
G02*
X160631100Y-112421200I123900J0D01*
G01*
X160878900Y-112421200D01*
G75*
G02*
X161002800Y-112545100I0J-123900D01*
G01*
G37*
D13*
X158225000Y-112425000D03*
X156375000Y-112425000D03*
X156375000Y-111175000D03*
X158225000Y-111175000D03*
G36*
G01*
X173393000Y-109950000D02*
X173393000Y-107850000D01*
G75*
G02*
X173603000Y-107640000I210000J0D01*
G01*
X174947000Y-107640000D01*
G75*
G02*
X175157000Y-107850000I0J-210000D01*
G01*
X175157000Y-109950000D01*
G75*
G02*
X174947000Y-110160000I-210000J0D01*
G01*
X173603000Y-110160000D01*
G75*
G02*
X173393000Y-109950000I0J210000D01*
G01*
G37*
G36*
G01*
X157043000Y-109950000D02*
X157043000Y-107850000D01*
G75*
G02*
X157253000Y-107640000I210000J0D01*
G01*
X158597000Y-107640000D01*
G75*
G02*
X158807000Y-107850000I0J-210000D01*
G01*
X158807000Y-109950000D01*
G75*
G02*
X158597000Y-110160000I-210000J0D01*
G01*
X157253000Y-110160000D01*
G75*
G02*
X157043000Y-109950000I0J210000D01*
G01*
G37*
G36*
G01*
X171389000Y-106528000D02*
X171389000Y-105772000D01*
G75*
G02*
X171557000Y-105604000I168000J0D01*
G01*
X171893000Y-105604000D01*
G75*
G02*
X172061000Y-105772000I0J-168000D01*
G01*
X172061000Y-106528000D01*
G75*
G02*
X171893000Y-106696000I-168000J0D01*
G01*
X171557000Y-106696000D01*
G75*
G02*
X171389000Y-106528000I0J168000D01*
G01*
G37*
G36*
G01*
X170139000Y-106528000D02*
X170139000Y-105772000D01*
G75*
G02*
X170307000Y-105604000I168000J0D01*
G01*
X170643000Y-105604000D01*
G75*
G02*
X170811000Y-105772000I0J-168000D01*
G01*
X170811000Y-106528000D01*
G75*
G02*
X170643000Y-106696000I-168000J0D01*
G01*
X170307000Y-106696000D01*
G75*
G02*
X170139000Y-106528000I0J168000D01*
G01*
G37*
G36*
G01*
X168889000Y-106528000D02*
X168889000Y-105772000D01*
G75*
G02*
X169057000Y-105604000I168000J0D01*
G01*
X169393000Y-105604000D01*
G75*
G02*
X169561000Y-105772000I0J-168000D01*
G01*
X169561000Y-106528000D01*
G75*
G02*
X169393000Y-106696000I-168000J0D01*
G01*
X169057000Y-106696000D01*
G75*
G02*
X168889000Y-106528000I0J168000D01*
G01*
G37*
G36*
G01*
X167639000Y-106528000D02*
X167639000Y-105772000D01*
G75*
G02*
X167807000Y-105604000I168000J0D01*
G01*
X168143000Y-105604000D01*
G75*
G02*
X168311000Y-105772000I0J-168000D01*
G01*
X168311000Y-106528000D01*
G75*
G02*
X168143000Y-106696000I-168000J0D01*
G01*
X167807000Y-106696000D01*
G75*
G02*
X167639000Y-106528000I0J168000D01*
G01*
G37*
G36*
G01*
X166389000Y-106528000D02*
X166389000Y-105772000D01*
G75*
G02*
X166557000Y-105604000I168000J0D01*
G01*
X166893000Y-105604000D01*
G75*
G02*
X167061000Y-105772000I0J-168000D01*
G01*
X167061000Y-106528000D01*
G75*
G02*
X166893000Y-106696000I-168000J0D01*
G01*
X166557000Y-106696000D01*
G75*
G02*
X166389000Y-106528000I0J168000D01*
G01*
G37*
G36*
G01*
X165139000Y-106528000D02*
X165139000Y-105772000D01*
G75*
G02*
X165307000Y-105604000I168000J0D01*
G01*
X165643000Y-105604000D01*
G75*
G02*
X165811000Y-105772000I0J-168000D01*
G01*
X165811000Y-106528000D01*
G75*
G02*
X165643000Y-106696000I-168000J0D01*
G01*
X165307000Y-106696000D01*
G75*
G02*
X165139000Y-106528000I0J168000D01*
G01*
G37*
G36*
G01*
X163889000Y-106528000D02*
X163889000Y-105772000D01*
G75*
G02*
X164057000Y-105604000I168000J0D01*
G01*
X164393000Y-105604000D01*
G75*
G02*
X164561000Y-105772000I0J-168000D01*
G01*
X164561000Y-106528000D01*
G75*
G02*
X164393000Y-106696000I-168000J0D01*
G01*
X164057000Y-106696000D01*
G75*
G02*
X163889000Y-106528000I0J168000D01*
G01*
G37*
G36*
G01*
X162639000Y-106528000D02*
X162639000Y-105772000D01*
G75*
G02*
X162807000Y-105604000I168000J0D01*
G01*
X163143000Y-105604000D01*
G75*
G02*
X163311000Y-105772000I0J-168000D01*
G01*
X163311000Y-106528000D01*
G75*
G02*
X163143000Y-106696000I-168000J0D01*
G01*
X162807000Y-106696000D01*
G75*
G02*
X162639000Y-106528000I0J168000D01*
G01*
G37*
G36*
G01*
X161389000Y-106528000D02*
X161389000Y-105772000D01*
G75*
G02*
X161557000Y-105604000I168000J0D01*
G01*
X161893000Y-105604000D01*
G75*
G02*
X162061000Y-105772000I0J-168000D01*
G01*
X162061000Y-106528000D01*
G75*
G02*
X161893000Y-106696000I-168000J0D01*
G01*
X161557000Y-106696000D01*
G75*
G02*
X161389000Y-106528000I0J168000D01*
G01*
G37*
G36*
G01*
X160139000Y-106528000D02*
X160139000Y-105772000D01*
G75*
G02*
X160307000Y-105604000I168000J0D01*
G01*
X160643000Y-105604000D01*
G75*
G02*
X160811000Y-105772000I0J-168000D01*
G01*
X160811000Y-106528000D01*
G75*
G02*
X160643000Y-106696000I-168000J0D01*
G01*
X160307000Y-106696000D01*
G75*
G02*
X160139000Y-106528000I0J168000D01*
G01*
G37*
D14*
X174498000Y-114774000D03*
X174498000Y-116874000D03*
G36*
G01*
X178687200Y-113094900D02*
X178687200Y-112805100D01*
G75*
G02*
X178811100Y-112681200I123900J0D01*
G01*
X179058900Y-112681200D01*
G75*
G02*
X179182800Y-112805100I0J-123900D01*
G01*
X179182800Y-113094900D01*
G75*
G02*
X179058900Y-113218800I-123900J0D01*
G01*
X178811100Y-113218800D01*
G75*
G02*
X178687200Y-113094900I0J123900D01*
G01*
G37*
G36*
G01*
X177717200Y-113094900D02*
X177717200Y-112805100D01*
G75*
G02*
X177841100Y-112681200I123900J0D01*
G01*
X178088900Y-112681200D01*
G75*
G02*
X178212800Y-112805100I0J-123900D01*
G01*
X178212800Y-113094900D01*
G75*
G02*
X178088900Y-113218800I-123900J0D01*
G01*
X177841100Y-113218800D01*
G75*
G02*
X177717200Y-113094900I0J123900D01*
G01*
G37*
D15*
G36*
X152590750Y-97561750D02*
G01*
X152590750Y-98020000D01*
X152591744Y-98030096D01*
X152594689Y-98039804D01*
X152599471Y-98048751D01*
X152605907Y-98056593D01*
X152613749Y-98063029D01*
X152622696Y-98067811D01*
X152632404Y-98070756D01*
X152642500Y-98071750D01*
X152897500Y-98071750D01*
X152907596Y-98070756D01*
X152917304Y-98067811D01*
X152926251Y-98063029D01*
X152934093Y-98056593D01*
X152940529Y-98048751D01*
X152945311Y-98039804D01*
X152948256Y-98030096D01*
X152949250Y-98020000D01*
X152949250Y-97561750D01*
X153250750Y-97561750D01*
X153250750Y-98020000D01*
X153251744Y-98030096D01*
X153254689Y-98039804D01*
X153259471Y-98048751D01*
X153265907Y-98056593D01*
X153273749Y-98063029D01*
X153282696Y-98067811D01*
X153292404Y-98070756D01*
X153302500Y-98071750D01*
X153557500Y-98071750D01*
X153567596Y-98070756D01*
X153577304Y-98067811D01*
X153586251Y-98063029D01*
X153594093Y-98056593D01*
X153600529Y-98048751D01*
X153605311Y-98039804D01*
X153608256Y-98030096D01*
X153609250Y-98020000D01*
X153609250Y-97561750D01*
X153910750Y-97561750D01*
X153910750Y-98020000D01*
X153911744Y-98030096D01*
X153914689Y-98039804D01*
X153919471Y-98048751D01*
X153925907Y-98056593D01*
X153933749Y-98063029D01*
X153942696Y-98067811D01*
X153952404Y-98070756D01*
X153962500Y-98071750D01*
X154217500Y-98071750D01*
X154227596Y-98070756D01*
X154237304Y-98067811D01*
X154246251Y-98063029D01*
X154254093Y-98056593D01*
X154260529Y-98048751D01*
X154265311Y-98039804D01*
X154268256Y-98030096D01*
X154269250Y-98020000D01*
X154269250Y-97561750D01*
X154573250Y-97561750D01*
X154573250Y-98218250D01*
X154547500Y-98218250D01*
X154537404Y-98219244D01*
X154527696Y-98222189D01*
X154518749Y-98226971D01*
X154510907Y-98233407D01*
X154504471Y-98241249D01*
X154499689Y-98250196D01*
X154496744Y-98259904D01*
X154495750Y-98270000D01*
X154495750Y-99693250D01*
X152364250Y-99693250D01*
X152364250Y-98270000D01*
X152363256Y-98259904D01*
X152360311Y-98250196D01*
X152355529Y-98241249D01*
X152349093Y-98233407D01*
X152341251Y-98226971D01*
X152332304Y-98222189D01*
X152322596Y-98219244D01*
X152312500Y-98218250D01*
X152286750Y-98218250D01*
X152286750Y-97561750D01*
X152590750Y-97561750D01*
G37*
D16*
X154420000Y-100875000D03*
X153760000Y-100875000D03*
X153100000Y-100875000D03*
X152440000Y-100875000D03*
G36*
G01*
X180162800Y-112805100D02*
X180162800Y-113094900D01*
G75*
G02*
X180038900Y-113218800I-123900J0D01*
G01*
X179791100Y-113218800D01*
G75*
G02*
X179667200Y-113094900I0J123900D01*
G01*
X179667200Y-112805100D01*
G75*
G02*
X179791100Y-112681200I123900J0D01*
G01*
X180038900Y-112681200D01*
G75*
G02*
X180162800Y-112805100I0J-123900D01*
G01*
G37*
G36*
G01*
X181132800Y-112805100D02*
X181132800Y-113094900D01*
G75*
G02*
X181008900Y-113218800I-123900J0D01*
G01*
X180761100Y-113218800D01*
G75*
G02*
X180637200Y-113094900I0J123900D01*
G01*
X180637200Y-112805100D01*
G75*
G02*
X180761100Y-112681200I123900J0D01*
G01*
X181008900Y-112681200D01*
G75*
G02*
X181132800Y-112805100I0J-123900D01*
G01*
G37*
G36*
G01*
X164105100Y-98487200D02*
X164394900Y-98487200D01*
G75*
G02*
X164518800Y-98611100I0J-123900D01*
G01*
X164518800Y-98858900D01*
G75*
G02*
X164394900Y-98982800I-123900J0D01*
G01*
X164105100Y-98982800D01*
G75*
G02*
X163981200Y-98858900I0J123900D01*
G01*
X163981200Y-98611100D01*
G75*
G02*
X164105100Y-98487200I123900J0D01*
G01*
G37*
G36*
G01*
X164105100Y-97517200D02*
X164394900Y-97517200D01*
G75*
G02*
X164518800Y-97641100I0J-123900D01*
G01*
X164518800Y-97888900D01*
G75*
G02*
X164394900Y-98012800I-123900J0D01*
G01*
X164105100Y-98012800D01*
G75*
G02*
X163981200Y-97888900I0J123900D01*
G01*
X163981200Y-97641100D01*
G75*
G02*
X164105100Y-97517200I123900J0D01*
G01*
G37*
D17*
X176600000Y-112100000D03*
X174600000Y-113050000D03*
X174600000Y-111150000D03*
G36*
G01*
X163110800Y-113658100D02*
X162270800Y-113658100D01*
G75*
G02*
X161850800Y-113238100I0J420000D01*
G01*
X161850800Y-111978100D01*
G75*
G02*
X162270800Y-111558100I420000J0D01*
G01*
X163110800Y-111558100D01*
G75*
G02*
X163530800Y-111978100I0J-420000D01*
G01*
X163530800Y-113238100D01*
G75*
G02*
X163110800Y-113658100I-420000J0D01*
G01*
G37*
G36*
G01*
X173110800Y-113658100D02*
X172270800Y-113658100D01*
G75*
G02*
X171850800Y-113238100I0J420000D01*
G01*
X171850800Y-111978100D01*
G75*
G02*
X172270800Y-111558100I420000J0D01*
G01*
X173110800Y-111558100D01*
G75*
G02*
X173530800Y-111978100I0J-420000D01*
G01*
X173530800Y-113238100D01*
G75*
G02*
X173110800Y-113658100I-420000J0D01*
G01*
G37*
G36*
G01*
X173110800Y-119658100D02*
X172270800Y-119658100D01*
G75*
G02*
X171850800Y-119238100I0J420000D01*
G01*
X171850800Y-117978100D01*
G75*
G02*
X172270800Y-117558100I420000J0D01*
G01*
X173110800Y-117558100D01*
G75*
G02*
X173530800Y-117978100I0J-420000D01*
G01*
X173530800Y-119238100D01*
G75*
G02*
X173110800Y-119658100I-420000J0D01*
G01*
G37*
G36*
G01*
X163110800Y-119658100D02*
X162270800Y-119658100D01*
G75*
G02*
X161850800Y-119238100I0J420000D01*
G01*
X161850800Y-117978100D01*
G75*
G02*
X162270800Y-117558100I420000J0D01*
G01*
X163110800Y-117558100D01*
G75*
G02*
X163530800Y-117978100I0J-420000D01*
G01*
X163530800Y-119238100D01*
G75*
G02*
X163110800Y-119658100I-420000J0D01*
G01*
G37*
G36*
G01*
X170762800Y-102305100D02*
X170762800Y-102594900D01*
G75*
G02*
X170638900Y-102718800I-123900J0D01*
G01*
X170391100Y-102718800D01*
G75*
G02*
X170267200Y-102594900I0J123900D01*
G01*
X170267200Y-102305100D01*
G75*
G02*
X170391100Y-102181200I123900J0D01*
G01*
X170638900Y-102181200D01*
G75*
G02*
X170762800Y-102305100I0J-123900D01*
G01*
G37*
G36*
G01*
X171732800Y-102305100D02*
X171732800Y-102594900D01*
G75*
G02*
X171608900Y-102718800I-123900J0D01*
G01*
X171361100Y-102718800D01*
G75*
G02*
X171237200Y-102594900I0J123900D01*
G01*
X171237200Y-102305100D01*
G75*
G02*
X171361100Y-102181200I123900J0D01*
G01*
X171608900Y-102181200D01*
G75*
G02*
X171732800Y-102305100I0J-123900D01*
G01*
G37*
G36*
G01*
X160430100Y-98512200D02*
X160719900Y-98512200D01*
G75*
G02*
X160843800Y-98636100I0J-123900D01*
G01*
X160843800Y-98883900D01*
G75*
G02*
X160719900Y-99007800I-123900J0D01*
G01*
X160430100Y-99007800D01*
G75*
G02*
X160306200Y-98883900I0J123900D01*
G01*
X160306200Y-98636100D01*
G75*
G02*
X160430100Y-98512200I123900J0D01*
G01*
G37*
G36*
G01*
X160430100Y-97542200D02*
X160719900Y-97542200D01*
G75*
G02*
X160843800Y-97666100I0J-123900D01*
G01*
X160843800Y-97913900D01*
G75*
G02*
X160719900Y-98037800I-123900J0D01*
G01*
X160430100Y-98037800D01*
G75*
G02*
X160306200Y-97913900I0J123900D01*
G01*
X160306200Y-97666100D01*
G75*
G02*
X160430100Y-97542200I123900J0D01*
G01*
G37*
G36*
G01*
X159337200Y-97944900D02*
X159337200Y-97655100D01*
G75*
G02*
X159461100Y-97531200I123900J0D01*
G01*
X159708900Y-97531200D01*
G75*
G02*
X159832800Y-97655100I0J-123900D01*
G01*
X159832800Y-97944900D01*
G75*
G02*
X159708900Y-98068800I-123900J0D01*
G01*
X159461100Y-98068800D01*
G75*
G02*
X159337200Y-97944900I0J123900D01*
G01*
G37*
G36*
G01*
X158367200Y-97944900D02*
X158367200Y-97655100D01*
G75*
G02*
X158491100Y-97531200I123900J0D01*
G01*
X158738900Y-97531200D01*
G75*
G02*
X158862800Y-97655100I0J-123900D01*
G01*
X158862800Y-97944900D01*
G75*
G02*
X158738900Y-98068800I-123900J0D01*
G01*
X158491100Y-98068800D01*
G75*
G02*
X158367200Y-97944900I0J123900D01*
G01*
G37*
D18*
X166700000Y-99950000D03*
X165750000Y-97950000D03*
X167650000Y-97950000D03*
D19*
X173460000Y-98462500D03*
D20*
X172460000Y-101162500D03*
X171810000Y-101162500D03*
X171160000Y-101162500D03*
X173760000Y-101162500D03*
X173110000Y-101162500D03*
D19*
X171460000Y-98462500D03*
D21*
X159000000Y-114715000D03*
X159000000Y-118885000D03*
X157000000Y-114715000D03*
X157000000Y-118885000D03*
X155000000Y-114715000D03*
X155000000Y-118885000D03*
X153000000Y-114715000D03*
X153000000Y-118885000D03*
X151000000Y-114715000D03*
X151000000Y-118885000D03*
G36*
G01*
X158519000Y-104399500D02*
X158519000Y-104000500D01*
G75*
G02*
X158718500Y-103801000I199500J0D01*
G01*
X159201500Y-103801000D01*
G75*
G02*
X159401000Y-104000500I0J-199500D01*
G01*
X159401000Y-104399500D01*
G75*
G02*
X159201500Y-104599000I-199500J0D01*
G01*
X158718500Y-104599000D01*
G75*
G02*
X158519000Y-104399500I0J199500D01*
G01*
G37*
G36*
G01*
X156769000Y-104399500D02*
X156769000Y-104000500D01*
G75*
G02*
X156968500Y-103801000I199500J0D01*
G01*
X157451500Y-103801000D01*
G75*
G02*
X157651000Y-104000500I0J-199500D01*
G01*
X157651000Y-104399500D01*
G75*
G02*
X157451500Y-104599000I-199500J0D01*
G01*
X156968500Y-104599000D01*
G75*
G02*
X156769000Y-104399500I0J199500D01*
G01*
G37*
M02*
