G04 #@! TF.GenerationSoftware,KiCad,Pcbnew,5.1.4*
G04 #@! TF.CreationDate,2019-09-17T22:36:34+02:00*
G04 #@! TF.ProjectId,altimeter,616c7469-6d65-4746-9572-2e6b69636164,rev?*
G04 #@! TF.SameCoordinates,Original*
G04 #@! TF.FileFunction,Copper,L1,Top*
G04 #@! TF.FilePolarity,Positive*
%FSLAX46Y46*%
G04 Gerber Fmt 4.6, Leading zero omitted, Abs format (unit mm)*
G04 Created by KiCad (PCBNEW 5.1.4) date 2019-09-17 22:36:34*
%MOMM*%
%LPD*%
G04 APERTURE LIST*
%ADD10C,0.160000*%
%ADD11C,0.100000*%
%ADD12C,0.590000*%
%ADD13C,0.875000*%
%ADD14C,1.725000*%
%ADD15R,0.405000X0.990000*%
%ADD16R,0.375000X0.500000*%
%ADD17R,0.300000X0.650000*%
%ADD18O,2.000000X2.000000*%
%ADD19R,2.000000X2.000000*%
%ADD20O,1.700000X1.700000*%
%ADD21R,1.700000X1.700000*%
%ADD22O,1.800000X1.200000*%
%ADD23C,1.200000*%
%ADD24R,1.060000X0.650000*%
%ADD25R,0.600000X0.450000*%
%ADD26R,0.800000X0.900000*%
%ADD27C,2.000000*%
%ADD28C,0.800000*%
%ADD29C,6.400000*%
%ADD30R,1.200000X1.900000*%
%ADD31O,1.200000X1.900000*%
%ADD32R,1.500000X1.900000*%
%ADD33C,1.450000*%
%ADD34R,0.400000X1.350000*%
%ADD35R,1.000000X2.580000*%
%ADD36O,1.300000X0.800000*%
%ADD37C,0.457200*%
%ADD38C,0.812800*%
%ADD39C,0.152400*%
%ADD40C,0.508000*%
%ADD41C,0.254000*%
%ADD42C,0.381000*%
%ADD43C,0.177800*%
%ADD44C,0.431800*%
%ADD45C,0.330200*%
%ADD46C,0.200000*%
G04 APERTURE END LIST*
D10*
X181271428Y-118638095D02*
X181728571Y-118638095D01*
X181500000Y-118638095D02*
X181500000Y-119438095D01*
X181576190Y-119323809D01*
X181652380Y-119247619D01*
X181728571Y-119209523D01*
D11*
G36*
X179151958Y-104570710D02*
G01*
X179166276Y-104572834D01*
X179180317Y-104576351D01*
X179193946Y-104581228D01*
X179207031Y-104587417D01*
X179219447Y-104594858D01*
X179231073Y-104603481D01*
X179241798Y-104613202D01*
X179251519Y-104623927D01*
X179260142Y-104635553D01*
X179267583Y-104647969D01*
X179273772Y-104661054D01*
X179278649Y-104674683D01*
X179282166Y-104688724D01*
X179284290Y-104703042D01*
X179285000Y-104717500D01*
X179285000Y-105062500D01*
X179284290Y-105076958D01*
X179282166Y-105091276D01*
X179278649Y-105105317D01*
X179273772Y-105118946D01*
X179267583Y-105132031D01*
X179260142Y-105144447D01*
X179251519Y-105156073D01*
X179241798Y-105166798D01*
X179231073Y-105176519D01*
X179219447Y-105185142D01*
X179207031Y-105192583D01*
X179193946Y-105198772D01*
X179180317Y-105203649D01*
X179166276Y-105207166D01*
X179151958Y-105209290D01*
X179137500Y-105210000D01*
X178842500Y-105210000D01*
X178828042Y-105209290D01*
X178813724Y-105207166D01*
X178799683Y-105203649D01*
X178786054Y-105198772D01*
X178772969Y-105192583D01*
X178760553Y-105185142D01*
X178748927Y-105176519D01*
X178738202Y-105166798D01*
X178728481Y-105156073D01*
X178719858Y-105144447D01*
X178712417Y-105132031D01*
X178706228Y-105118946D01*
X178701351Y-105105317D01*
X178697834Y-105091276D01*
X178695710Y-105076958D01*
X178695000Y-105062500D01*
X178695000Y-104717500D01*
X178695710Y-104703042D01*
X178697834Y-104688724D01*
X178701351Y-104674683D01*
X178706228Y-104661054D01*
X178712417Y-104647969D01*
X178719858Y-104635553D01*
X178728481Y-104623927D01*
X178738202Y-104613202D01*
X178748927Y-104603481D01*
X178760553Y-104594858D01*
X178772969Y-104587417D01*
X178786054Y-104581228D01*
X178799683Y-104576351D01*
X178813724Y-104572834D01*
X178828042Y-104570710D01*
X178842500Y-104570000D01*
X179137500Y-104570000D01*
X179151958Y-104570710D01*
X179151958Y-104570710D01*
G37*
D12*
X178990000Y-104890000D03*
D11*
G36*
X178181958Y-104570710D02*
G01*
X178196276Y-104572834D01*
X178210317Y-104576351D01*
X178223946Y-104581228D01*
X178237031Y-104587417D01*
X178249447Y-104594858D01*
X178261073Y-104603481D01*
X178271798Y-104613202D01*
X178281519Y-104623927D01*
X178290142Y-104635553D01*
X178297583Y-104647969D01*
X178303772Y-104661054D01*
X178308649Y-104674683D01*
X178312166Y-104688724D01*
X178314290Y-104703042D01*
X178315000Y-104717500D01*
X178315000Y-105062500D01*
X178314290Y-105076958D01*
X178312166Y-105091276D01*
X178308649Y-105105317D01*
X178303772Y-105118946D01*
X178297583Y-105132031D01*
X178290142Y-105144447D01*
X178281519Y-105156073D01*
X178271798Y-105166798D01*
X178261073Y-105176519D01*
X178249447Y-105185142D01*
X178237031Y-105192583D01*
X178223946Y-105198772D01*
X178210317Y-105203649D01*
X178196276Y-105207166D01*
X178181958Y-105209290D01*
X178167500Y-105210000D01*
X177872500Y-105210000D01*
X177858042Y-105209290D01*
X177843724Y-105207166D01*
X177829683Y-105203649D01*
X177816054Y-105198772D01*
X177802969Y-105192583D01*
X177790553Y-105185142D01*
X177778927Y-105176519D01*
X177768202Y-105166798D01*
X177758481Y-105156073D01*
X177749858Y-105144447D01*
X177742417Y-105132031D01*
X177736228Y-105118946D01*
X177731351Y-105105317D01*
X177727834Y-105091276D01*
X177725710Y-105076958D01*
X177725000Y-105062500D01*
X177725000Y-104717500D01*
X177725710Y-104703042D01*
X177727834Y-104688724D01*
X177731351Y-104674683D01*
X177736228Y-104661054D01*
X177742417Y-104647969D01*
X177749858Y-104635553D01*
X177758481Y-104623927D01*
X177768202Y-104613202D01*
X177778927Y-104603481D01*
X177790553Y-104594858D01*
X177802969Y-104587417D01*
X177816054Y-104581228D01*
X177829683Y-104576351D01*
X177843724Y-104572834D01*
X177858042Y-104570710D01*
X177872500Y-104570000D01*
X178167500Y-104570000D01*
X178181958Y-104570710D01*
X178181958Y-104570710D01*
G37*
D12*
X178020000Y-104890000D03*
D11*
G36*
X164276958Y-103580710D02*
G01*
X164291276Y-103582834D01*
X164305317Y-103586351D01*
X164318946Y-103591228D01*
X164332031Y-103597417D01*
X164344447Y-103604858D01*
X164356073Y-103613481D01*
X164366798Y-103623202D01*
X164376519Y-103633927D01*
X164385142Y-103645553D01*
X164392583Y-103657969D01*
X164398772Y-103671054D01*
X164403649Y-103684683D01*
X164407166Y-103698724D01*
X164409290Y-103713042D01*
X164410000Y-103727500D01*
X164410000Y-104072500D01*
X164409290Y-104086958D01*
X164407166Y-104101276D01*
X164403649Y-104115317D01*
X164398772Y-104128946D01*
X164392583Y-104142031D01*
X164385142Y-104154447D01*
X164376519Y-104166073D01*
X164366798Y-104176798D01*
X164356073Y-104186519D01*
X164344447Y-104195142D01*
X164332031Y-104202583D01*
X164318946Y-104208772D01*
X164305317Y-104213649D01*
X164291276Y-104217166D01*
X164276958Y-104219290D01*
X164262500Y-104220000D01*
X163967500Y-104220000D01*
X163953042Y-104219290D01*
X163938724Y-104217166D01*
X163924683Y-104213649D01*
X163911054Y-104208772D01*
X163897969Y-104202583D01*
X163885553Y-104195142D01*
X163873927Y-104186519D01*
X163863202Y-104176798D01*
X163853481Y-104166073D01*
X163844858Y-104154447D01*
X163837417Y-104142031D01*
X163831228Y-104128946D01*
X163826351Y-104115317D01*
X163822834Y-104101276D01*
X163820710Y-104086958D01*
X163820000Y-104072500D01*
X163820000Y-103727500D01*
X163820710Y-103713042D01*
X163822834Y-103698724D01*
X163826351Y-103684683D01*
X163831228Y-103671054D01*
X163837417Y-103657969D01*
X163844858Y-103645553D01*
X163853481Y-103633927D01*
X163863202Y-103623202D01*
X163873927Y-103613481D01*
X163885553Y-103604858D01*
X163897969Y-103597417D01*
X163911054Y-103591228D01*
X163924683Y-103586351D01*
X163938724Y-103582834D01*
X163953042Y-103580710D01*
X163967500Y-103580000D01*
X164262500Y-103580000D01*
X164276958Y-103580710D01*
X164276958Y-103580710D01*
G37*
D12*
X164115000Y-103900000D03*
D11*
G36*
X163306958Y-103580710D02*
G01*
X163321276Y-103582834D01*
X163335317Y-103586351D01*
X163348946Y-103591228D01*
X163362031Y-103597417D01*
X163374447Y-103604858D01*
X163386073Y-103613481D01*
X163396798Y-103623202D01*
X163406519Y-103633927D01*
X163415142Y-103645553D01*
X163422583Y-103657969D01*
X163428772Y-103671054D01*
X163433649Y-103684683D01*
X163437166Y-103698724D01*
X163439290Y-103713042D01*
X163440000Y-103727500D01*
X163440000Y-104072500D01*
X163439290Y-104086958D01*
X163437166Y-104101276D01*
X163433649Y-104115317D01*
X163428772Y-104128946D01*
X163422583Y-104142031D01*
X163415142Y-104154447D01*
X163406519Y-104166073D01*
X163396798Y-104176798D01*
X163386073Y-104186519D01*
X163374447Y-104195142D01*
X163362031Y-104202583D01*
X163348946Y-104208772D01*
X163335317Y-104213649D01*
X163321276Y-104217166D01*
X163306958Y-104219290D01*
X163292500Y-104220000D01*
X162997500Y-104220000D01*
X162983042Y-104219290D01*
X162968724Y-104217166D01*
X162954683Y-104213649D01*
X162941054Y-104208772D01*
X162927969Y-104202583D01*
X162915553Y-104195142D01*
X162903927Y-104186519D01*
X162893202Y-104176798D01*
X162883481Y-104166073D01*
X162874858Y-104154447D01*
X162867417Y-104142031D01*
X162861228Y-104128946D01*
X162856351Y-104115317D01*
X162852834Y-104101276D01*
X162850710Y-104086958D01*
X162850000Y-104072500D01*
X162850000Y-103727500D01*
X162850710Y-103713042D01*
X162852834Y-103698724D01*
X162856351Y-103684683D01*
X162861228Y-103671054D01*
X162867417Y-103657969D01*
X162874858Y-103645553D01*
X162883481Y-103633927D01*
X162893202Y-103623202D01*
X162903927Y-103613481D01*
X162915553Y-103604858D01*
X162927969Y-103597417D01*
X162941054Y-103591228D01*
X162954683Y-103586351D01*
X162968724Y-103582834D01*
X162983042Y-103580710D01*
X162997500Y-103580000D01*
X163292500Y-103580000D01*
X163306958Y-103580710D01*
X163306958Y-103580710D01*
G37*
D12*
X163145000Y-103900000D03*
D11*
G36*
X162317691Y-105026053D02*
G01*
X162338926Y-105029203D01*
X162359750Y-105034419D01*
X162379962Y-105041651D01*
X162399368Y-105050830D01*
X162417781Y-105061866D01*
X162435024Y-105074654D01*
X162450930Y-105089070D01*
X162465346Y-105104976D01*
X162478134Y-105122219D01*
X162489170Y-105140632D01*
X162498349Y-105160038D01*
X162505581Y-105180250D01*
X162510797Y-105201074D01*
X162513947Y-105222309D01*
X162515000Y-105243750D01*
X162515000Y-105681250D01*
X162513947Y-105702691D01*
X162510797Y-105723926D01*
X162505581Y-105744750D01*
X162498349Y-105764962D01*
X162489170Y-105784368D01*
X162478134Y-105802781D01*
X162465346Y-105820024D01*
X162450930Y-105835930D01*
X162435024Y-105850346D01*
X162417781Y-105863134D01*
X162399368Y-105874170D01*
X162379962Y-105883349D01*
X162359750Y-105890581D01*
X162338926Y-105895797D01*
X162317691Y-105898947D01*
X162296250Y-105900000D01*
X161783750Y-105900000D01*
X161762309Y-105898947D01*
X161741074Y-105895797D01*
X161720250Y-105890581D01*
X161700038Y-105883349D01*
X161680632Y-105874170D01*
X161662219Y-105863134D01*
X161644976Y-105850346D01*
X161629070Y-105835930D01*
X161614654Y-105820024D01*
X161601866Y-105802781D01*
X161590830Y-105784368D01*
X161581651Y-105764962D01*
X161574419Y-105744750D01*
X161569203Y-105723926D01*
X161566053Y-105702691D01*
X161565000Y-105681250D01*
X161565000Y-105243750D01*
X161566053Y-105222309D01*
X161569203Y-105201074D01*
X161574419Y-105180250D01*
X161581651Y-105160038D01*
X161590830Y-105140632D01*
X161601866Y-105122219D01*
X161614654Y-105104976D01*
X161629070Y-105089070D01*
X161644976Y-105074654D01*
X161662219Y-105061866D01*
X161680632Y-105050830D01*
X161700038Y-105041651D01*
X161720250Y-105034419D01*
X161741074Y-105029203D01*
X161762309Y-105026053D01*
X161783750Y-105025000D01*
X162296250Y-105025000D01*
X162317691Y-105026053D01*
X162317691Y-105026053D01*
G37*
D13*
X162040000Y-105462500D03*
D11*
G36*
X162317691Y-106601053D02*
G01*
X162338926Y-106604203D01*
X162359750Y-106609419D01*
X162379962Y-106616651D01*
X162399368Y-106625830D01*
X162417781Y-106636866D01*
X162435024Y-106649654D01*
X162450930Y-106664070D01*
X162465346Y-106679976D01*
X162478134Y-106697219D01*
X162489170Y-106715632D01*
X162498349Y-106735038D01*
X162505581Y-106755250D01*
X162510797Y-106776074D01*
X162513947Y-106797309D01*
X162515000Y-106818750D01*
X162515000Y-107256250D01*
X162513947Y-107277691D01*
X162510797Y-107298926D01*
X162505581Y-107319750D01*
X162498349Y-107339962D01*
X162489170Y-107359368D01*
X162478134Y-107377781D01*
X162465346Y-107395024D01*
X162450930Y-107410930D01*
X162435024Y-107425346D01*
X162417781Y-107438134D01*
X162399368Y-107449170D01*
X162379962Y-107458349D01*
X162359750Y-107465581D01*
X162338926Y-107470797D01*
X162317691Y-107473947D01*
X162296250Y-107475000D01*
X161783750Y-107475000D01*
X161762309Y-107473947D01*
X161741074Y-107470797D01*
X161720250Y-107465581D01*
X161700038Y-107458349D01*
X161680632Y-107449170D01*
X161662219Y-107438134D01*
X161644976Y-107425346D01*
X161629070Y-107410930D01*
X161614654Y-107395024D01*
X161601866Y-107377781D01*
X161590830Y-107359368D01*
X161581651Y-107339962D01*
X161574419Y-107319750D01*
X161569203Y-107298926D01*
X161566053Y-107277691D01*
X161565000Y-107256250D01*
X161565000Y-106818750D01*
X161566053Y-106797309D01*
X161569203Y-106776074D01*
X161574419Y-106755250D01*
X161581651Y-106735038D01*
X161590830Y-106715632D01*
X161601866Y-106697219D01*
X161614654Y-106679976D01*
X161629070Y-106664070D01*
X161644976Y-106649654D01*
X161662219Y-106636866D01*
X161680632Y-106625830D01*
X161700038Y-106616651D01*
X161720250Y-106609419D01*
X161741074Y-106604203D01*
X161762309Y-106601053D01*
X161783750Y-106600000D01*
X162296250Y-106600000D01*
X162317691Y-106601053D01*
X162317691Y-106601053D01*
G37*
D13*
X162040000Y-107037500D03*
D14*
X153430000Y-98882500D03*
D11*
G36*
X152642500Y-97510000D02*
G01*
X152642500Y-98020000D01*
X152897500Y-98020000D01*
X152897500Y-97510000D01*
X153302500Y-97510000D01*
X153302500Y-98020000D01*
X153557500Y-98020000D01*
X153557500Y-97510000D01*
X153962500Y-97510000D01*
X153962500Y-98020000D01*
X154217500Y-98020000D01*
X154217500Y-97510000D01*
X154625000Y-97510000D01*
X154625000Y-98270000D01*
X154547500Y-98270000D01*
X154547500Y-99745000D01*
X152312500Y-99745000D01*
X152312500Y-98270000D01*
X152235000Y-98270000D01*
X152235000Y-97510000D01*
X152642500Y-97510000D01*
X152642500Y-97510000D01*
G37*
D15*
X154420000Y-100875000D03*
X153760000Y-100875000D03*
X153100000Y-100875000D03*
X152440000Y-100875000D03*
D16*
X173767500Y-104460000D03*
X172692500Y-104460000D03*
D17*
X173230000Y-102685000D03*
X173230000Y-104535000D03*
D16*
X172692500Y-102760000D03*
X173767500Y-102760000D03*
D18*
X165000000Y-100400000D03*
D19*
X150000000Y-100400000D03*
D11*
G36*
X177531958Y-112500710D02*
G01*
X177546276Y-112502834D01*
X177560317Y-112506351D01*
X177573946Y-112511228D01*
X177587031Y-112517417D01*
X177599447Y-112524858D01*
X177611073Y-112533481D01*
X177621798Y-112543202D01*
X177631519Y-112553927D01*
X177640142Y-112565553D01*
X177647583Y-112577969D01*
X177653772Y-112591054D01*
X177658649Y-112604683D01*
X177662166Y-112618724D01*
X177664290Y-112633042D01*
X177665000Y-112647500D01*
X177665000Y-112992500D01*
X177664290Y-113006958D01*
X177662166Y-113021276D01*
X177658649Y-113035317D01*
X177653772Y-113048946D01*
X177647583Y-113062031D01*
X177640142Y-113074447D01*
X177631519Y-113086073D01*
X177621798Y-113096798D01*
X177611073Y-113106519D01*
X177599447Y-113115142D01*
X177587031Y-113122583D01*
X177573946Y-113128772D01*
X177560317Y-113133649D01*
X177546276Y-113137166D01*
X177531958Y-113139290D01*
X177517500Y-113140000D01*
X177222500Y-113140000D01*
X177208042Y-113139290D01*
X177193724Y-113137166D01*
X177179683Y-113133649D01*
X177166054Y-113128772D01*
X177152969Y-113122583D01*
X177140553Y-113115142D01*
X177128927Y-113106519D01*
X177118202Y-113096798D01*
X177108481Y-113086073D01*
X177099858Y-113074447D01*
X177092417Y-113062031D01*
X177086228Y-113048946D01*
X177081351Y-113035317D01*
X177077834Y-113021276D01*
X177075710Y-113006958D01*
X177075000Y-112992500D01*
X177075000Y-112647500D01*
X177075710Y-112633042D01*
X177077834Y-112618724D01*
X177081351Y-112604683D01*
X177086228Y-112591054D01*
X177092417Y-112577969D01*
X177099858Y-112565553D01*
X177108481Y-112553927D01*
X177118202Y-112543202D01*
X177128927Y-112533481D01*
X177140553Y-112524858D01*
X177152969Y-112517417D01*
X177166054Y-112511228D01*
X177179683Y-112506351D01*
X177193724Y-112502834D01*
X177208042Y-112500710D01*
X177222500Y-112500000D01*
X177517500Y-112500000D01*
X177531958Y-112500710D01*
X177531958Y-112500710D01*
G37*
D12*
X177370000Y-112820000D03*
D11*
G36*
X176561958Y-112500710D02*
G01*
X176576276Y-112502834D01*
X176590317Y-112506351D01*
X176603946Y-112511228D01*
X176617031Y-112517417D01*
X176629447Y-112524858D01*
X176641073Y-112533481D01*
X176651798Y-112543202D01*
X176661519Y-112553927D01*
X176670142Y-112565553D01*
X176677583Y-112577969D01*
X176683772Y-112591054D01*
X176688649Y-112604683D01*
X176692166Y-112618724D01*
X176694290Y-112633042D01*
X176695000Y-112647500D01*
X176695000Y-112992500D01*
X176694290Y-113006958D01*
X176692166Y-113021276D01*
X176688649Y-113035317D01*
X176683772Y-113048946D01*
X176677583Y-113062031D01*
X176670142Y-113074447D01*
X176661519Y-113086073D01*
X176651798Y-113096798D01*
X176641073Y-113106519D01*
X176629447Y-113115142D01*
X176617031Y-113122583D01*
X176603946Y-113128772D01*
X176590317Y-113133649D01*
X176576276Y-113137166D01*
X176561958Y-113139290D01*
X176547500Y-113140000D01*
X176252500Y-113140000D01*
X176238042Y-113139290D01*
X176223724Y-113137166D01*
X176209683Y-113133649D01*
X176196054Y-113128772D01*
X176182969Y-113122583D01*
X176170553Y-113115142D01*
X176158927Y-113106519D01*
X176148202Y-113096798D01*
X176138481Y-113086073D01*
X176129858Y-113074447D01*
X176122417Y-113062031D01*
X176116228Y-113048946D01*
X176111351Y-113035317D01*
X176107834Y-113021276D01*
X176105710Y-113006958D01*
X176105000Y-112992500D01*
X176105000Y-112647500D01*
X176105710Y-112633042D01*
X176107834Y-112618724D01*
X176111351Y-112604683D01*
X176116228Y-112591054D01*
X176122417Y-112577969D01*
X176129858Y-112565553D01*
X176138481Y-112553927D01*
X176148202Y-112543202D01*
X176158927Y-112533481D01*
X176170553Y-112524858D01*
X176182969Y-112517417D01*
X176196054Y-112511228D01*
X176209683Y-112506351D01*
X176223724Y-112502834D01*
X176238042Y-112500710D01*
X176252500Y-112500000D01*
X176547500Y-112500000D01*
X176561958Y-112500710D01*
X176561958Y-112500710D01*
G37*
D12*
X176400000Y-112820000D03*
D11*
G36*
X167646618Y-101028710D02*
G01*
X167660936Y-101030834D01*
X167674977Y-101034351D01*
X167688606Y-101039228D01*
X167701691Y-101045417D01*
X167714107Y-101052858D01*
X167725733Y-101061481D01*
X167736458Y-101071202D01*
X167746179Y-101081927D01*
X167754802Y-101093553D01*
X167762243Y-101105969D01*
X167768432Y-101119054D01*
X167773309Y-101132683D01*
X167776826Y-101146724D01*
X167778950Y-101161042D01*
X167779660Y-101175500D01*
X167779660Y-101470500D01*
X167778950Y-101484958D01*
X167776826Y-101499276D01*
X167773309Y-101513317D01*
X167768432Y-101526946D01*
X167762243Y-101540031D01*
X167754802Y-101552447D01*
X167746179Y-101564073D01*
X167736458Y-101574798D01*
X167725733Y-101584519D01*
X167714107Y-101593142D01*
X167701691Y-101600583D01*
X167688606Y-101606772D01*
X167674977Y-101611649D01*
X167660936Y-101615166D01*
X167646618Y-101617290D01*
X167632160Y-101618000D01*
X167287160Y-101618000D01*
X167272702Y-101617290D01*
X167258384Y-101615166D01*
X167244343Y-101611649D01*
X167230714Y-101606772D01*
X167217629Y-101600583D01*
X167205213Y-101593142D01*
X167193587Y-101584519D01*
X167182862Y-101574798D01*
X167173141Y-101564073D01*
X167164518Y-101552447D01*
X167157077Y-101540031D01*
X167150888Y-101526946D01*
X167146011Y-101513317D01*
X167142494Y-101499276D01*
X167140370Y-101484958D01*
X167139660Y-101470500D01*
X167139660Y-101175500D01*
X167140370Y-101161042D01*
X167142494Y-101146724D01*
X167146011Y-101132683D01*
X167150888Y-101119054D01*
X167157077Y-101105969D01*
X167164518Y-101093553D01*
X167173141Y-101081927D01*
X167182862Y-101071202D01*
X167193587Y-101061481D01*
X167205213Y-101052858D01*
X167217629Y-101045417D01*
X167230714Y-101039228D01*
X167244343Y-101034351D01*
X167258384Y-101030834D01*
X167272702Y-101028710D01*
X167287160Y-101028000D01*
X167632160Y-101028000D01*
X167646618Y-101028710D01*
X167646618Y-101028710D01*
G37*
D12*
X167459660Y-101323000D03*
D11*
G36*
X167646618Y-100058710D02*
G01*
X167660936Y-100060834D01*
X167674977Y-100064351D01*
X167688606Y-100069228D01*
X167701691Y-100075417D01*
X167714107Y-100082858D01*
X167725733Y-100091481D01*
X167736458Y-100101202D01*
X167746179Y-100111927D01*
X167754802Y-100123553D01*
X167762243Y-100135969D01*
X167768432Y-100149054D01*
X167773309Y-100162683D01*
X167776826Y-100176724D01*
X167778950Y-100191042D01*
X167779660Y-100205500D01*
X167779660Y-100500500D01*
X167778950Y-100514958D01*
X167776826Y-100529276D01*
X167773309Y-100543317D01*
X167768432Y-100556946D01*
X167762243Y-100570031D01*
X167754802Y-100582447D01*
X167746179Y-100594073D01*
X167736458Y-100604798D01*
X167725733Y-100614519D01*
X167714107Y-100623142D01*
X167701691Y-100630583D01*
X167688606Y-100636772D01*
X167674977Y-100641649D01*
X167660936Y-100645166D01*
X167646618Y-100647290D01*
X167632160Y-100648000D01*
X167287160Y-100648000D01*
X167272702Y-100647290D01*
X167258384Y-100645166D01*
X167244343Y-100641649D01*
X167230714Y-100636772D01*
X167217629Y-100630583D01*
X167205213Y-100623142D01*
X167193587Y-100614519D01*
X167182862Y-100604798D01*
X167173141Y-100594073D01*
X167164518Y-100582447D01*
X167157077Y-100570031D01*
X167150888Y-100556946D01*
X167146011Y-100543317D01*
X167142494Y-100529276D01*
X167140370Y-100514958D01*
X167139660Y-100500500D01*
X167139660Y-100205500D01*
X167140370Y-100191042D01*
X167142494Y-100176724D01*
X167146011Y-100162683D01*
X167150888Y-100149054D01*
X167157077Y-100135969D01*
X167164518Y-100123553D01*
X167173141Y-100111927D01*
X167182862Y-100101202D01*
X167193587Y-100091481D01*
X167205213Y-100082858D01*
X167217629Y-100075417D01*
X167230714Y-100069228D01*
X167244343Y-100064351D01*
X167258384Y-100060834D01*
X167272702Y-100058710D01*
X167287160Y-100058000D01*
X167632160Y-100058000D01*
X167646618Y-100058710D01*
X167646618Y-100058710D01*
G37*
D12*
X167459660Y-100353000D03*
D20*
X178940000Y-119680000D03*
X176400000Y-119680000D03*
X178940000Y-117140000D03*
X176400000Y-117140000D03*
X178940000Y-114600000D03*
D21*
X176400000Y-114600000D03*
D22*
X147350000Y-118000000D03*
X147350000Y-116000000D03*
X147350000Y-114000000D03*
X147350000Y-112000000D03*
X147350000Y-110000000D03*
X147350000Y-108000000D03*
X147350000Y-106000000D03*
X147350000Y-104000000D03*
X147350000Y-102000000D03*
D11*
G36*
X148024505Y-99401204D02*
G01*
X148048773Y-99404804D01*
X148072572Y-99410765D01*
X148095671Y-99419030D01*
X148117850Y-99429520D01*
X148138893Y-99442132D01*
X148158599Y-99456747D01*
X148176777Y-99473223D01*
X148193253Y-99491401D01*
X148207868Y-99511107D01*
X148220480Y-99532150D01*
X148230970Y-99554329D01*
X148239235Y-99577428D01*
X148245196Y-99601227D01*
X148248796Y-99625495D01*
X148250000Y-99649999D01*
X148250000Y-100350001D01*
X148248796Y-100374505D01*
X148245196Y-100398773D01*
X148239235Y-100422572D01*
X148230970Y-100445671D01*
X148220480Y-100467850D01*
X148207868Y-100488893D01*
X148193253Y-100508599D01*
X148176777Y-100526777D01*
X148158599Y-100543253D01*
X148138893Y-100557868D01*
X148117850Y-100570480D01*
X148095671Y-100580970D01*
X148072572Y-100589235D01*
X148048773Y-100595196D01*
X148024505Y-100598796D01*
X148000001Y-100600000D01*
X146699999Y-100600000D01*
X146675495Y-100598796D01*
X146651227Y-100595196D01*
X146627428Y-100589235D01*
X146604329Y-100580970D01*
X146582150Y-100570480D01*
X146561107Y-100557868D01*
X146541401Y-100543253D01*
X146523223Y-100526777D01*
X146506747Y-100508599D01*
X146492132Y-100488893D01*
X146479520Y-100467850D01*
X146469030Y-100445671D01*
X146460765Y-100422572D01*
X146454804Y-100398773D01*
X146451204Y-100374505D01*
X146450000Y-100350001D01*
X146450000Y-99649999D01*
X146451204Y-99625495D01*
X146454804Y-99601227D01*
X146460765Y-99577428D01*
X146469030Y-99554329D01*
X146479520Y-99532150D01*
X146492132Y-99511107D01*
X146506747Y-99491401D01*
X146523223Y-99473223D01*
X146541401Y-99456747D01*
X146561107Y-99442132D01*
X146582150Y-99429520D01*
X146604329Y-99419030D01*
X146627428Y-99410765D01*
X146651227Y-99404804D01*
X146675495Y-99401204D01*
X146699999Y-99400000D01*
X148000001Y-99400000D01*
X148024505Y-99401204D01*
X148024505Y-99401204D01*
G37*
D23*
X147350000Y-100000000D03*
D11*
G36*
X166348938Y-103584490D02*
G01*
X166363256Y-103586614D01*
X166377297Y-103590131D01*
X166390926Y-103595008D01*
X166404011Y-103601197D01*
X166416427Y-103608638D01*
X166428053Y-103617261D01*
X166438778Y-103626982D01*
X166448499Y-103637707D01*
X166457122Y-103649333D01*
X166464563Y-103661749D01*
X166470752Y-103674834D01*
X166475629Y-103688463D01*
X166479146Y-103702504D01*
X166481270Y-103716822D01*
X166481980Y-103731280D01*
X166481980Y-104076280D01*
X166481270Y-104090738D01*
X166479146Y-104105056D01*
X166475629Y-104119097D01*
X166470752Y-104132726D01*
X166464563Y-104145811D01*
X166457122Y-104158227D01*
X166448499Y-104169853D01*
X166438778Y-104180578D01*
X166428053Y-104190299D01*
X166416427Y-104198922D01*
X166404011Y-104206363D01*
X166390926Y-104212552D01*
X166377297Y-104217429D01*
X166363256Y-104220946D01*
X166348938Y-104223070D01*
X166334480Y-104223780D01*
X166039480Y-104223780D01*
X166025022Y-104223070D01*
X166010704Y-104220946D01*
X165996663Y-104217429D01*
X165983034Y-104212552D01*
X165969949Y-104206363D01*
X165957533Y-104198922D01*
X165945907Y-104190299D01*
X165935182Y-104180578D01*
X165925461Y-104169853D01*
X165916838Y-104158227D01*
X165909397Y-104145811D01*
X165903208Y-104132726D01*
X165898331Y-104119097D01*
X165894814Y-104105056D01*
X165892690Y-104090738D01*
X165891980Y-104076280D01*
X165891980Y-103731280D01*
X165892690Y-103716822D01*
X165894814Y-103702504D01*
X165898331Y-103688463D01*
X165903208Y-103674834D01*
X165909397Y-103661749D01*
X165916838Y-103649333D01*
X165925461Y-103637707D01*
X165935182Y-103626982D01*
X165945907Y-103617261D01*
X165957533Y-103608638D01*
X165969949Y-103601197D01*
X165983034Y-103595008D01*
X165996663Y-103590131D01*
X166010704Y-103586614D01*
X166025022Y-103584490D01*
X166039480Y-103583780D01*
X166334480Y-103583780D01*
X166348938Y-103584490D01*
X166348938Y-103584490D01*
G37*
D12*
X166186980Y-103903780D03*
D11*
G36*
X165378938Y-103584490D02*
G01*
X165393256Y-103586614D01*
X165407297Y-103590131D01*
X165420926Y-103595008D01*
X165434011Y-103601197D01*
X165446427Y-103608638D01*
X165458053Y-103617261D01*
X165468778Y-103626982D01*
X165478499Y-103637707D01*
X165487122Y-103649333D01*
X165494563Y-103661749D01*
X165500752Y-103674834D01*
X165505629Y-103688463D01*
X165509146Y-103702504D01*
X165511270Y-103716822D01*
X165511980Y-103731280D01*
X165511980Y-104076280D01*
X165511270Y-104090738D01*
X165509146Y-104105056D01*
X165505629Y-104119097D01*
X165500752Y-104132726D01*
X165494563Y-104145811D01*
X165487122Y-104158227D01*
X165478499Y-104169853D01*
X165468778Y-104180578D01*
X165458053Y-104190299D01*
X165446427Y-104198922D01*
X165434011Y-104206363D01*
X165420926Y-104212552D01*
X165407297Y-104217429D01*
X165393256Y-104220946D01*
X165378938Y-104223070D01*
X165364480Y-104223780D01*
X165069480Y-104223780D01*
X165055022Y-104223070D01*
X165040704Y-104220946D01*
X165026663Y-104217429D01*
X165013034Y-104212552D01*
X164999949Y-104206363D01*
X164987533Y-104198922D01*
X164975907Y-104190299D01*
X164965182Y-104180578D01*
X164955461Y-104169853D01*
X164946838Y-104158227D01*
X164939397Y-104145811D01*
X164933208Y-104132726D01*
X164928331Y-104119097D01*
X164924814Y-104105056D01*
X164922690Y-104090738D01*
X164921980Y-104076280D01*
X164921980Y-103731280D01*
X164922690Y-103716822D01*
X164924814Y-103702504D01*
X164928331Y-103688463D01*
X164933208Y-103674834D01*
X164939397Y-103661749D01*
X164946838Y-103649333D01*
X164955461Y-103637707D01*
X164965182Y-103626982D01*
X164975907Y-103617261D01*
X164987533Y-103608638D01*
X164999949Y-103601197D01*
X165013034Y-103595008D01*
X165026663Y-103590131D01*
X165040704Y-103586614D01*
X165055022Y-103584490D01*
X165069480Y-103583780D01*
X165364480Y-103583780D01*
X165378938Y-103584490D01*
X165378938Y-103584490D01*
G37*
D12*
X165216980Y-103903780D03*
D24*
X171122520Y-104503180D03*
X171122520Y-106403180D03*
X168922520Y-106403180D03*
X168922520Y-105453180D03*
X168922520Y-104503180D03*
D11*
G36*
X174684958Y-117056110D02*
G01*
X174699276Y-117058234D01*
X174713317Y-117061751D01*
X174726946Y-117066628D01*
X174740031Y-117072817D01*
X174752447Y-117080258D01*
X174764073Y-117088881D01*
X174774798Y-117098602D01*
X174784519Y-117109327D01*
X174793142Y-117120953D01*
X174800583Y-117133369D01*
X174806772Y-117146454D01*
X174811649Y-117160083D01*
X174815166Y-117174124D01*
X174817290Y-117188442D01*
X174818000Y-117202900D01*
X174818000Y-117497900D01*
X174817290Y-117512358D01*
X174815166Y-117526676D01*
X174811649Y-117540717D01*
X174806772Y-117554346D01*
X174800583Y-117567431D01*
X174793142Y-117579847D01*
X174784519Y-117591473D01*
X174774798Y-117602198D01*
X174764073Y-117611919D01*
X174752447Y-117620542D01*
X174740031Y-117627983D01*
X174726946Y-117634172D01*
X174713317Y-117639049D01*
X174699276Y-117642566D01*
X174684958Y-117644690D01*
X174670500Y-117645400D01*
X174325500Y-117645400D01*
X174311042Y-117644690D01*
X174296724Y-117642566D01*
X174282683Y-117639049D01*
X174269054Y-117634172D01*
X174255969Y-117627983D01*
X174243553Y-117620542D01*
X174231927Y-117611919D01*
X174221202Y-117602198D01*
X174211481Y-117591473D01*
X174202858Y-117579847D01*
X174195417Y-117567431D01*
X174189228Y-117554346D01*
X174184351Y-117540717D01*
X174180834Y-117526676D01*
X174178710Y-117512358D01*
X174178000Y-117497900D01*
X174178000Y-117202900D01*
X174178710Y-117188442D01*
X174180834Y-117174124D01*
X174184351Y-117160083D01*
X174189228Y-117146454D01*
X174195417Y-117133369D01*
X174202858Y-117120953D01*
X174211481Y-117109327D01*
X174221202Y-117098602D01*
X174231927Y-117088881D01*
X174243553Y-117080258D01*
X174255969Y-117072817D01*
X174269054Y-117066628D01*
X174282683Y-117061751D01*
X174296724Y-117058234D01*
X174311042Y-117056110D01*
X174325500Y-117055400D01*
X174670500Y-117055400D01*
X174684958Y-117056110D01*
X174684958Y-117056110D01*
G37*
D12*
X174498000Y-117350400D03*
D11*
G36*
X174684958Y-116086110D02*
G01*
X174699276Y-116088234D01*
X174713317Y-116091751D01*
X174726946Y-116096628D01*
X174740031Y-116102817D01*
X174752447Y-116110258D01*
X174764073Y-116118881D01*
X174774798Y-116128602D01*
X174784519Y-116139327D01*
X174793142Y-116150953D01*
X174800583Y-116163369D01*
X174806772Y-116176454D01*
X174811649Y-116190083D01*
X174815166Y-116204124D01*
X174817290Y-116218442D01*
X174818000Y-116232900D01*
X174818000Y-116527900D01*
X174817290Y-116542358D01*
X174815166Y-116556676D01*
X174811649Y-116570717D01*
X174806772Y-116584346D01*
X174800583Y-116597431D01*
X174793142Y-116609847D01*
X174784519Y-116621473D01*
X174774798Y-116632198D01*
X174764073Y-116641919D01*
X174752447Y-116650542D01*
X174740031Y-116657983D01*
X174726946Y-116664172D01*
X174713317Y-116669049D01*
X174699276Y-116672566D01*
X174684958Y-116674690D01*
X174670500Y-116675400D01*
X174325500Y-116675400D01*
X174311042Y-116674690D01*
X174296724Y-116672566D01*
X174282683Y-116669049D01*
X174269054Y-116664172D01*
X174255969Y-116657983D01*
X174243553Y-116650542D01*
X174231927Y-116641919D01*
X174221202Y-116632198D01*
X174211481Y-116621473D01*
X174202858Y-116609847D01*
X174195417Y-116597431D01*
X174189228Y-116584346D01*
X174184351Y-116570717D01*
X174180834Y-116556676D01*
X174178710Y-116542358D01*
X174178000Y-116527900D01*
X174178000Y-116232900D01*
X174178710Y-116218442D01*
X174180834Y-116204124D01*
X174184351Y-116190083D01*
X174189228Y-116176454D01*
X174195417Y-116163369D01*
X174202858Y-116150953D01*
X174211481Y-116139327D01*
X174221202Y-116128602D01*
X174231927Y-116118881D01*
X174243553Y-116110258D01*
X174255969Y-116102817D01*
X174269054Y-116096628D01*
X174282683Y-116091751D01*
X174296724Y-116088234D01*
X174311042Y-116086110D01*
X174325500Y-116085400D01*
X174670500Y-116085400D01*
X174684958Y-116086110D01*
X174684958Y-116086110D01*
G37*
D12*
X174498000Y-116380400D03*
D25*
X172381200Y-109677200D03*
X174481200Y-109677200D03*
D26*
X175750000Y-103820000D03*
X176700000Y-105820000D03*
X174800000Y-105820000D03*
D11*
G36*
X163239809Y-111360508D02*
G01*
X163288345Y-111367707D01*
X163335942Y-111379630D01*
X163382142Y-111396160D01*
X163426498Y-111417139D01*
X163468585Y-111442365D01*
X163507997Y-111471595D01*
X163544353Y-111504547D01*
X163577305Y-111540903D01*
X163606535Y-111580315D01*
X163631761Y-111622402D01*
X163652740Y-111666758D01*
X163669270Y-111712958D01*
X163681193Y-111760555D01*
X163688392Y-111809091D01*
X163690800Y-111858100D01*
X163690800Y-113358100D01*
X163688392Y-113407109D01*
X163681193Y-113455645D01*
X163669270Y-113503242D01*
X163652740Y-113549442D01*
X163631761Y-113593798D01*
X163606535Y-113635885D01*
X163577305Y-113675297D01*
X163544353Y-113711653D01*
X163507997Y-113744605D01*
X163468585Y-113773835D01*
X163426498Y-113799061D01*
X163382142Y-113820040D01*
X163335942Y-113836570D01*
X163288345Y-113848493D01*
X163239809Y-113855692D01*
X163190800Y-113858100D01*
X162190800Y-113858100D01*
X162141791Y-113855692D01*
X162093255Y-113848493D01*
X162045658Y-113836570D01*
X161999458Y-113820040D01*
X161955102Y-113799061D01*
X161913015Y-113773835D01*
X161873603Y-113744605D01*
X161837247Y-113711653D01*
X161804295Y-113675297D01*
X161775065Y-113635885D01*
X161749839Y-113593798D01*
X161728860Y-113549442D01*
X161712330Y-113503242D01*
X161700407Y-113455645D01*
X161693208Y-113407109D01*
X161690800Y-113358100D01*
X161690800Y-111858100D01*
X161693208Y-111809091D01*
X161700407Y-111760555D01*
X161712330Y-111712958D01*
X161728860Y-111666758D01*
X161749839Y-111622402D01*
X161775065Y-111580315D01*
X161804295Y-111540903D01*
X161837247Y-111504547D01*
X161873603Y-111471595D01*
X161913015Y-111442365D01*
X161955102Y-111417139D01*
X161999458Y-111396160D01*
X162045658Y-111379630D01*
X162093255Y-111367707D01*
X162141791Y-111360508D01*
X162190800Y-111358100D01*
X163190800Y-111358100D01*
X163239809Y-111360508D01*
X163239809Y-111360508D01*
G37*
D27*
X162690800Y-112608100D03*
D11*
G36*
X173239809Y-111360508D02*
G01*
X173288345Y-111367707D01*
X173335942Y-111379630D01*
X173382142Y-111396160D01*
X173426498Y-111417139D01*
X173468585Y-111442365D01*
X173507997Y-111471595D01*
X173544353Y-111504547D01*
X173577305Y-111540903D01*
X173606535Y-111580315D01*
X173631761Y-111622402D01*
X173652740Y-111666758D01*
X173669270Y-111712958D01*
X173681193Y-111760555D01*
X173688392Y-111809091D01*
X173690800Y-111858100D01*
X173690800Y-113358100D01*
X173688392Y-113407109D01*
X173681193Y-113455645D01*
X173669270Y-113503242D01*
X173652740Y-113549442D01*
X173631761Y-113593798D01*
X173606535Y-113635885D01*
X173577305Y-113675297D01*
X173544353Y-113711653D01*
X173507997Y-113744605D01*
X173468585Y-113773835D01*
X173426498Y-113799061D01*
X173382142Y-113820040D01*
X173335942Y-113836570D01*
X173288345Y-113848493D01*
X173239809Y-113855692D01*
X173190800Y-113858100D01*
X172190800Y-113858100D01*
X172141791Y-113855692D01*
X172093255Y-113848493D01*
X172045658Y-113836570D01*
X171999458Y-113820040D01*
X171955102Y-113799061D01*
X171913015Y-113773835D01*
X171873603Y-113744605D01*
X171837247Y-113711653D01*
X171804295Y-113675297D01*
X171775065Y-113635885D01*
X171749839Y-113593798D01*
X171728860Y-113549442D01*
X171712330Y-113503242D01*
X171700407Y-113455645D01*
X171693208Y-113407109D01*
X171690800Y-113358100D01*
X171690800Y-111858100D01*
X171693208Y-111809091D01*
X171700407Y-111760555D01*
X171712330Y-111712958D01*
X171728860Y-111666758D01*
X171749839Y-111622402D01*
X171775065Y-111580315D01*
X171804295Y-111540903D01*
X171837247Y-111504547D01*
X171873603Y-111471595D01*
X171913015Y-111442365D01*
X171955102Y-111417139D01*
X171999458Y-111396160D01*
X172045658Y-111379630D01*
X172093255Y-111367707D01*
X172141791Y-111360508D01*
X172190800Y-111358100D01*
X173190800Y-111358100D01*
X173239809Y-111360508D01*
X173239809Y-111360508D01*
G37*
D27*
X172690800Y-112608100D03*
D11*
G36*
X173239809Y-117360508D02*
G01*
X173288345Y-117367707D01*
X173335942Y-117379630D01*
X173382142Y-117396160D01*
X173426498Y-117417139D01*
X173468585Y-117442365D01*
X173507997Y-117471595D01*
X173544353Y-117504547D01*
X173577305Y-117540903D01*
X173606535Y-117580315D01*
X173631761Y-117622402D01*
X173652740Y-117666758D01*
X173669270Y-117712958D01*
X173681193Y-117760555D01*
X173688392Y-117809091D01*
X173690800Y-117858100D01*
X173690800Y-119358100D01*
X173688392Y-119407109D01*
X173681193Y-119455645D01*
X173669270Y-119503242D01*
X173652740Y-119549442D01*
X173631761Y-119593798D01*
X173606535Y-119635885D01*
X173577305Y-119675297D01*
X173544353Y-119711653D01*
X173507997Y-119744605D01*
X173468585Y-119773835D01*
X173426498Y-119799061D01*
X173382142Y-119820040D01*
X173335942Y-119836570D01*
X173288345Y-119848493D01*
X173239809Y-119855692D01*
X173190800Y-119858100D01*
X172190800Y-119858100D01*
X172141791Y-119855692D01*
X172093255Y-119848493D01*
X172045658Y-119836570D01*
X171999458Y-119820040D01*
X171955102Y-119799061D01*
X171913015Y-119773835D01*
X171873603Y-119744605D01*
X171837247Y-119711653D01*
X171804295Y-119675297D01*
X171775065Y-119635885D01*
X171749839Y-119593798D01*
X171728860Y-119549442D01*
X171712330Y-119503242D01*
X171700407Y-119455645D01*
X171693208Y-119407109D01*
X171690800Y-119358100D01*
X171690800Y-117858100D01*
X171693208Y-117809091D01*
X171700407Y-117760555D01*
X171712330Y-117712958D01*
X171728860Y-117666758D01*
X171749839Y-117622402D01*
X171775065Y-117580315D01*
X171804295Y-117540903D01*
X171837247Y-117504547D01*
X171873603Y-117471595D01*
X171913015Y-117442365D01*
X171955102Y-117417139D01*
X171999458Y-117396160D01*
X172045658Y-117379630D01*
X172093255Y-117367707D01*
X172141791Y-117360508D01*
X172190800Y-117358100D01*
X173190800Y-117358100D01*
X173239809Y-117360508D01*
X173239809Y-117360508D01*
G37*
D27*
X172690800Y-118608100D03*
D11*
G36*
X163239809Y-117360508D02*
G01*
X163288345Y-117367707D01*
X163335942Y-117379630D01*
X163382142Y-117396160D01*
X163426498Y-117417139D01*
X163468585Y-117442365D01*
X163507997Y-117471595D01*
X163544353Y-117504547D01*
X163577305Y-117540903D01*
X163606535Y-117580315D01*
X163631761Y-117622402D01*
X163652740Y-117666758D01*
X163669270Y-117712958D01*
X163681193Y-117760555D01*
X163688392Y-117809091D01*
X163690800Y-117858100D01*
X163690800Y-119358100D01*
X163688392Y-119407109D01*
X163681193Y-119455645D01*
X163669270Y-119503242D01*
X163652740Y-119549442D01*
X163631761Y-119593798D01*
X163606535Y-119635885D01*
X163577305Y-119675297D01*
X163544353Y-119711653D01*
X163507997Y-119744605D01*
X163468585Y-119773835D01*
X163426498Y-119799061D01*
X163382142Y-119820040D01*
X163335942Y-119836570D01*
X163288345Y-119848493D01*
X163239809Y-119855692D01*
X163190800Y-119858100D01*
X162190800Y-119858100D01*
X162141791Y-119855692D01*
X162093255Y-119848493D01*
X162045658Y-119836570D01*
X161999458Y-119820040D01*
X161955102Y-119799061D01*
X161913015Y-119773835D01*
X161873603Y-119744605D01*
X161837247Y-119711653D01*
X161804295Y-119675297D01*
X161775065Y-119635885D01*
X161749839Y-119593798D01*
X161728860Y-119549442D01*
X161712330Y-119503242D01*
X161700407Y-119455645D01*
X161693208Y-119407109D01*
X161690800Y-119358100D01*
X161690800Y-117858100D01*
X161693208Y-117809091D01*
X161700407Y-117760555D01*
X161712330Y-117712958D01*
X161728860Y-117666758D01*
X161749839Y-117622402D01*
X161775065Y-117580315D01*
X161804295Y-117540903D01*
X161837247Y-117504547D01*
X161873603Y-117471595D01*
X161913015Y-117442365D01*
X161955102Y-117417139D01*
X161999458Y-117396160D01*
X162045658Y-117379630D01*
X162093255Y-117367707D01*
X162141791Y-117360508D01*
X162190800Y-117358100D01*
X163190800Y-117358100D01*
X163239809Y-117360508D01*
X163239809Y-117360508D01*
G37*
D27*
X162690800Y-118608100D03*
D11*
G36*
X158570158Y-107452910D02*
G01*
X158584476Y-107455034D01*
X158598517Y-107458551D01*
X158612146Y-107463428D01*
X158625231Y-107469617D01*
X158637647Y-107477058D01*
X158649273Y-107485681D01*
X158659998Y-107495402D01*
X158669719Y-107506127D01*
X158678342Y-107517753D01*
X158685783Y-107530169D01*
X158691972Y-107543254D01*
X158696849Y-107556883D01*
X158700366Y-107570924D01*
X158702490Y-107585242D01*
X158703200Y-107599700D01*
X158703200Y-107944700D01*
X158702490Y-107959158D01*
X158700366Y-107973476D01*
X158696849Y-107987517D01*
X158691972Y-108001146D01*
X158685783Y-108014231D01*
X158678342Y-108026647D01*
X158669719Y-108038273D01*
X158659998Y-108048998D01*
X158649273Y-108058719D01*
X158637647Y-108067342D01*
X158625231Y-108074783D01*
X158612146Y-108080972D01*
X158598517Y-108085849D01*
X158584476Y-108089366D01*
X158570158Y-108091490D01*
X158555700Y-108092200D01*
X158260700Y-108092200D01*
X158246242Y-108091490D01*
X158231924Y-108089366D01*
X158217883Y-108085849D01*
X158204254Y-108080972D01*
X158191169Y-108074783D01*
X158178753Y-108067342D01*
X158167127Y-108058719D01*
X158156402Y-108048998D01*
X158146681Y-108038273D01*
X158138058Y-108026647D01*
X158130617Y-108014231D01*
X158124428Y-108001146D01*
X158119551Y-107987517D01*
X158116034Y-107973476D01*
X158113910Y-107959158D01*
X158113200Y-107944700D01*
X158113200Y-107599700D01*
X158113910Y-107585242D01*
X158116034Y-107570924D01*
X158119551Y-107556883D01*
X158124428Y-107543254D01*
X158130617Y-107530169D01*
X158138058Y-107517753D01*
X158146681Y-107506127D01*
X158156402Y-107495402D01*
X158167127Y-107485681D01*
X158178753Y-107477058D01*
X158191169Y-107469617D01*
X158204254Y-107463428D01*
X158217883Y-107458551D01*
X158231924Y-107455034D01*
X158246242Y-107452910D01*
X158260700Y-107452200D01*
X158555700Y-107452200D01*
X158570158Y-107452910D01*
X158570158Y-107452910D01*
G37*
D12*
X158408200Y-107772200D03*
D11*
G36*
X157600158Y-107452910D02*
G01*
X157614476Y-107455034D01*
X157628517Y-107458551D01*
X157642146Y-107463428D01*
X157655231Y-107469617D01*
X157667647Y-107477058D01*
X157679273Y-107485681D01*
X157689998Y-107495402D01*
X157699719Y-107506127D01*
X157708342Y-107517753D01*
X157715783Y-107530169D01*
X157721972Y-107543254D01*
X157726849Y-107556883D01*
X157730366Y-107570924D01*
X157732490Y-107585242D01*
X157733200Y-107599700D01*
X157733200Y-107944700D01*
X157732490Y-107959158D01*
X157730366Y-107973476D01*
X157726849Y-107987517D01*
X157721972Y-108001146D01*
X157715783Y-108014231D01*
X157708342Y-108026647D01*
X157699719Y-108038273D01*
X157689998Y-108048998D01*
X157679273Y-108058719D01*
X157667647Y-108067342D01*
X157655231Y-108074783D01*
X157642146Y-108080972D01*
X157628517Y-108085849D01*
X157614476Y-108089366D01*
X157600158Y-108091490D01*
X157585700Y-108092200D01*
X157290700Y-108092200D01*
X157276242Y-108091490D01*
X157261924Y-108089366D01*
X157247883Y-108085849D01*
X157234254Y-108080972D01*
X157221169Y-108074783D01*
X157208753Y-108067342D01*
X157197127Y-108058719D01*
X157186402Y-108048998D01*
X157176681Y-108038273D01*
X157168058Y-108026647D01*
X157160617Y-108014231D01*
X157154428Y-108001146D01*
X157149551Y-107987517D01*
X157146034Y-107973476D01*
X157143910Y-107959158D01*
X157143200Y-107944700D01*
X157143200Y-107599700D01*
X157143910Y-107585242D01*
X157146034Y-107570924D01*
X157149551Y-107556883D01*
X157154428Y-107543254D01*
X157160617Y-107530169D01*
X157168058Y-107517753D01*
X157176681Y-107506127D01*
X157186402Y-107495402D01*
X157197127Y-107485681D01*
X157208753Y-107477058D01*
X157221169Y-107469617D01*
X157234254Y-107463428D01*
X157247883Y-107458551D01*
X157261924Y-107455034D01*
X157276242Y-107452910D01*
X157290700Y-107452200D01*
X157585700Y-107452200D01*
X157600158Y-107452910D01*
X157600158Y-107452910D01*
G37*
D12*
X157438200Y-107772200D03*
D11*
G36*
X160012758Y-107452910D02*
G01*
X160027076Y-107455034D01*
X160041117Y-107458551D01*
X160054746Y-107463428D01*
X160067831Y-107469617D01*
X160080247Y-107477058D01*
X160091873Y-107485681D01*
X160102598Y-107495402D01*
X160112319Y-107506127D01*
X160120942Y-107517753D01*
X160128383Y-107530169D01*
X160134572Y-107543254D01*
X160139449Y-107556883D01*
X160142966Y-107570924D01*
X160145090Y-107585242D01*
X160145800Y-107599700D01*
X160145800Y-107944700D01*
X160145090Y-107959158D01*
X160142966Y-107973476D01*
X160139449Y-107987517D01*
X160134572Y-108001146D01*
X160128383Y-108014231D01*
X160120942Y-108026647D01*
X160112319Y-108038273D01*
X160102598Y-108048998D01*
X160091873Y-108058719D01*
X160080247Y-108067342D01*
X160067831Y-108074783D01*
X160054746Y-108080972D01*
X160041117Y-108085849D01*
X160027076Y-108089366D01*
X160012758Y-108091490D01*
X159998300Y-108092200D01*
X159703300Y-108092200D01*
X159688842Y-108091490D01*
X159674524Y-108089366D01*
X159660483Y-108085849D01*
X159646854Y-108080972D01*
X159633769Y-108074783D01*
X159621353Y-108067342D01*
X159609727Y-108058719D01*
X159599002Y-108048998D01*
X159589281Y-108038273D01*
X159580658Y-108026647D01*
X159573217Y-108014231D01*
X159567028Y-108001146D01*
X159562151Y-107987517D01*
X159558634Y-107973476D01*
X159556510Y-107959158D01*
X159555800Y-107944700D01*
X159555800Y-107599700D01*
X159556510Y-107585242D01*
X159558634Y-107570924D01*
X159562151Y-107556883D01*
X159567028Y-107543254D01*
X159573217Y-107530169D01*
X159580658Y-107517753D01*
X159589281Y-107506127D01*
X159599002Y-107495402D01*
X159609727Y-107485681D01*
X159621353Y-107477058D01*
X159633769Y-107469617D01*
X159646854Y-107463428D01*
X159660483Y-107458551D01*
X159674524Y-107455034D01*
X159688842Y-107452910D01*
X159703300Y-107452200D01*
X159998300Y-107452200D01*
X160012758Y-107452910D01*
X160012758Y-107452910D01*
G37*
D12*
X159850800Y-107772200D03*
D11*
G36*
X160982758Y-107452910D02*
G01*
X160997076Y-107455034D01*
X161011117Y-107458551D01*
X161024746Y-107463428D01*
X161037831Y-107469617D01*
X161050247Y-107477058D01*
X161061873Y-107485681D01*
X161072598Y-107495402D01*
X161082319Y-107506127D01*
X161090942Y-107517753D01*
X161098383Y-107530169D01*
X161104572Y-107543254D01*
X161109449Y-107556883D01*
X161112966Y-107570924D01*
X161115090Y-107585242D01*
X161115800Y-107599700D01*
X161115800Y-107944700D01*
X161115090Y-107959158D01*
X161112966Y-107973476D01*
X161109449Y-107987517D01*
X161104572Y-108001146D01*
X161098383Y-108014231D01*
X161090942Y-108026647D01*
X161082319Y-108038273D01*
X161072598Y-108048998D01*
X161061873Y-108058719D01*
X161050247Y-108067342D01*
X161037831Y-108074783D01*
X161024746Y-108080972D01*
X161011117Y-108085849D01*
X160997076Y-108089366D01*
X160982758Y-108091490D01*
X160968300Y-108092200D01*
X160673300Y-108092200D01*
X160658842Y-108091490D01*
X160644524Y-108089366D01*
X160630483Y-108085849D01*
X160616854Y-108080972D01*
X160603769Y-108074783D01*
X160591353Y-108067342D01*
X160579727Y-108058719D01*
X160569002Y-108048998D01*
X160559281Y-108038273D01*
X160550658Y-108026647D01*
X160543217Y-108014231D01*
X160537028Y-108001146D01*
X160532151Y-107987517D01*
X160528634Y-107973476D01*
X160526510Y-107959158D01*
X160525800Y-107944700D01*
X160525800Y-107599700D01*
X160526510Y-107585242D01*
X160528634Y-107570924D01*
X160532151Y-107556883D01*
X160537028Y-107543254D01*
X160543217Y-107530169D01*
X160550658Y-107517753D01*
X160559281Y-107506127D01*
X160569002Y-107495402D01*
X160579727Y-107485681D01*
X160591353Y-107477058D01*
X160603769Y-107469617D01*
X160616854Y-107463428D01*
X160630483Y-107458551D01*
X160644524Y-107455034D01*
X160658842Y-107452910D01*
X160673300Y-107452200D01*
X160968300Y-107452200D01*
X160982758Y-107452910D01*
X160982758Y-107452910D01*
G37*
D12*
X160820800Y-107772200D03*
D11*
G36*
X158570158Y-106500360D02*
G01*
X158584476Y-106502484D01*
X158598517Y-106506001D01*
X158612146Y-106510878D01*
X158625231Y-106517067D01*
X158637647Y-106524508D01*
X158649273Y-106533131D01*
X158659998Y-106542852D01*
X158669719Y-106553577D01*
X158678342Y-106565203D01*
X158685783Y-106577619D01*
X158691972Y-106590704D01*
X158696849Y-106604333D01*
X158700366Y-106618374D01*
X158702490Y-106632692D01*
X158703200Y-106647150D01*
X158703200Y-106992150D01*
X158702490Y-107006608D01*
X158700366Y-107020926D01*
X158696849Y-107034967D01*
X158691972Y-107048596D01*
X158685783Y-107061681D01*
X158678342Y-107074097D01*
X158669719Y-107085723D01*
X158659998Y-107096448D01*
X158649273Y-107106169D01*
X158637647Y-107114792D01*
X158625231Y-107122233D01*
X158612146Y-107128422D01*
X158598517Y-107133299D01*
X158584476Y-107136816D01*
X158570158Y-107138940D01*
X158555700Y-107139650D01*
X158260700Y-107139650D01*
X158246242Y-107138940D01*
X158231924Y-107136816D01*
X158217883Y-107133299D01*
X158204254Y-107128422D01*
X158191169Y-107122233D01*
X158178753Y-107114792D01*
X158167127Y-107106169D01*
X158156402Y-107096448D01*
X158146681Y-107085723D01*
X158138058Y-107074097D01*
X158130617Y-107061681D01*
X158124428Y-107048596D01*
X158119551Y-107034967D01*
X158116034Y-107020926D01*
X158113910Y-107006608D01*
X158113200Y-106992150D01*
X158113200Y-106647150D01*
X158113910Y-106632692D01*
X158116034Y-106618374D01*
X158119551Y-106604333D01*
X158124428Y-106590704D01*
X158130617Y-106577619D01*
X158138058Y-106565203D01*
X158146681Y-106553577D01*
X158156402Y-106542852D01*
X158167127Y-106533131D01*
X158178753Y-106524508D01*
X158191169Y-106517067D01*
X158204254Y-106510878D01*
X158217883Y-106506001D01*
X158231924Y-106502484D01*
X158246242Y-106500360D01*
X158260700Y-106499650D01*
X158555700Y-106499650D01*
X158570158Y-106500360D01*
X158570158Y-106500360D01*
G37*
D12*
X158408200Y-106819650D03*
D11*
G36*
X157600158Y-106500360D02*
G01*
X157614476Y-106502484D01*
X157628517Y-106506001D01*
X157642146Y-106510878D01*
X157655231Y-106517067D01*
X157667647Y-106524508D01*
X157679273Y-106533131D01*
X157689998Y-106542852D01*
X157699719Y-106553577D01*
X157708342Y-106565203D01*
X157715783Y-106577619D01*
X157721972Y-106590704D01*
X157726849Y-106604333D01*
X157730366Y-106618374D01*
X157732490Y-106632692D01*
X157733200Y-106647150D01*
X157733200Y-106992150D01*
X157732490Y-107006608D01*
X157730366Y-107020926D01*
X157726849Y-107034967D01*
X157721972Y-107048596D01*
X157715783Y-107061681D01*
X157708342Y-107074097D01*
X157699719Y-107085723D01*
X157689998Y-107096448D01*
X157679273Y-107106169D01*
X157667647Y-107114792D01*
X157655231Y-107122233D01*
X157642146Y-107128422D01*
X157628517Y-107133299D01*
X157614476Y-107136816D01*
X157600158Y-107138940D01*
X157585700Y-107139650D01*
X157290700Y-107139650D01*
X157276242Y-107138940D01*
X157261924Y-107136816D01*
X157247883Y-107133299D01*
X157234254Y-107128422D01*
X157221169Y-107122233D01*
X157208753Y-107114792D01*
X157197127Y-107106169D01*
X157186402Y-107096448D01*
X157176681Y-107085723D01*
X157168058Y-107074097D01*
X157160617Y-107061681D01*
X157154428Y-107048596D01*
X157149551Y-107034967D01*
X157146034Y-107020926D01*
X157143910Y-107006608D01*
X157143200Y-106992150D01*
X157143200Y-106647150D01*
X157143910Y-106632692D01*
X157146034Y-106618374D01*
X157149551Y-106604333D01*
X157154428Y-106590704D01*
X157160617Y-106577619D01*
X157168058Y-106565203D01*
X157176681Y-106553577D01*
X157186402Y-106542852D01*
X157197127Y-106533131D01*
X157208753Y-106524508D01*
X157221169Y-106517067D01*
X157234254Y-106510878D01*
X157247883Y-106506001D01*
X157261924Y-106502484D01*
X157276242Y-106500360D01*
X157290700Y-106499650D01*
X157585700Y-106499650D01*
X157600158Y-106500360D01*
X157600158Y-106500360D01*
G37*
D12*
X157438200Y-106819650D03*
D11*
G36*
X159982758Y-106500360D02*
G01*
X159997076Y-106502484D01*
X160011117Y-106506001D01*
X160024746Y-106510878D01*
X160037831Y-106517067D01*
X160050247Y-106524508D01*
X160061873Y-106533131D01*
X160072598Y-106542852D01*
X160082319Y-106553577D01*
X160090942Y-106565203D01*
X160098383Y-106577619D01*
X160104572Y-106590704D01*
X160109449Y-106604333D01*
X160112966Y-106618374D01*
X160115090Y-106632692D01*
X160115800Y-106647150D01*
X160115800Y-106992150D01*
X160115090Y-107006608D01*
X160112966Y-107020926D01*
X160109449Y-107034967D01*
X160104572Y-107048596D01*
X160098383Y-107061681D01*
X160090942Y-107074097D01*
X160082319Y-107085723D01*
X160072598Y-107096448D01*
X160061873Y-107106169D01*
X160050247Y-107114792D01*
X160037831Y-107122233D01*
X160024746Y-107128422D01*
X160011117Y-107133299D01*
X159997076Y-107136816D01*
X159982758Y-107138940D01*
X159968300Y-107139650D01*
X159673300Y-107139650D01*
X159658842Y-107138940D01*
X159644524Y-107136816D01*
X159630483Y-107133299D01*
X159616854Y-107128422D01*
X159603769Y-107122233D01*
X159591353Y-107114792D01*
X159579727Y-107106169D01*
X159569002Y-107096448D01*
X159559281Y-107085723D01*
X159550658Y-107074097D01*
X159543217Y-107061681D01*
X159537028Y-107048596D01*
X159532151Y-107034967D01*
X159528634Y-107020926D01*
X159526510Y-107006608D01*
X159525800Y-106992150D01*
X159525800Y-106647150D01*
X159526510Y-106632692D01*
X159528634Y-106618374D01*
X159532151Y-106604333D01*
X159537028Y-106590704D01*
X159543217Y-106577619D01*
X159550658Y-106565203D01*
X159559281Y-106553577D01*
X159569002Y-106542852D01*
X159579727Y-106533131D01*
X159591353Y-106524508D01*
X159603769Y-106517067D01*
X159616854Y-106510878D01*
X159630483Y-106506001D01*
X159644524Y-106502484D01*
X159658842Y-106500360D01*
X159673300Y-106499650D01*
X159968300Y-106499650D01*
X159982758Y-106500360D01*
X159982758Y-106500360D01*
G37*
D12*
X159820800Y-106819650D03*
D11*
G36*
X160952758Y-106500360D02*
G01*
X160967076Y-106502484D01*
X160981117Y-106506001D01*
X160994746Y-106510878D01*
X161007831Y-106517067D01*
X161020247Y-106524508D01*
X161031873Y-106533131D01*
X161042598Y-106542852D01*
X161052319Y-106553577D01*
X161060942Y-106565203D01*
X161068383Y-106577619D01*
X161074572Y-106590704D01*
X161079449Y-106604333D01*
X161082966Y-106618374D01*
X161085090Y-106632692D01*
X161085800Y-106647150D01*
X161085800Y-106992150D01*
X161085090Y-107006608D01*
X161082966Y-107020926D01*
X161079449Y-107034967D01*
X161074572Y-107048596D01*
X161068383Y-107061681D01*
X161060942Y-107074097D01*
X161052319Y-107085723D01*
X161042598Y-107096448D01*
X161031873Y-107106169D01*
X161020247Y-107114792D01*
X161007831Y-107122233D01*
X160994746Y-107128422D01*
X160981117Y-107133299D01*
X160967076Y-107136816D01*
X160952758Y-107138940D01*
X160938300Y-107139650D01*
X160643300Y-107139650D01*
X160628842Y-107138940D01*
X160614524Y-107136816D01*
X160600483Y-107133299D01*
X160586854Y-107128422D01*
X160573769Y-107122233D01*
X160561353Y-107114792D01*
X160549727Y-107106169D01*
X160539002Y-107096448D01*
X160529281Y-107085723D01*
X160520658Y-107074097D01*
X160513217Y-107061681D01*
X160507028Y-107048596D01*
X160502151Y-107034967D01*
X160498634Y-107020926D01*
X160496510Y-107006608D01*
X160495800Y-106992150D01*
X160495800Y-106647150D01*
X160496510Y-106632692D01*
X160498634Y-106618374D01*
X160502151Y-106604333D01*
X160507028Y-106590704D01*
X160513217Y-106577619D01*
X160520658Y-106565203D01*
X160529281Y-106553577D01*
X160539002Y-106542852D01*
X160549727Y-106533131D01*
X160561353Y-106524508D01*
X160573769Y-106517067D01*
X160586854Y-106510878D01*
X160600483Y-106506001D01*
X160614524Y-106502484D01*
X160628842Y-106500360D01*
X160643300Y-106499650D01*
X160938300Y-106499650D01*
X160952758Y-106500360D01*
X160952758Y-106500360D01*
G37*
D12*
X160790800Y-106819650D03*
D11*
G36*
X158570158Y-105547810D02*
G01*
X158584476Y-105549934D01*
X158598517Y-105553451D01*
X158612146Y-105558328D01*
X158625231Y-105564517D01*
X158637647Y-105571958D01*
X158649273Y-105580581D01*
X158659998Y-105590302D01*
X158669719Y-105601027D01*
X158678342Y-105612653D01*
X158685783Y-105625069D01*
X158691972Y-105638154D01*
X158696849Y-105651783D01*
X158700366Y-105665824D01*
X158702490Y-105680142D01*
X158703200Y-105694600D01*
X158703200Y-106039600D01*
X158702490Y-106054058D01*
X158700366Y-106068376D01*
X158696849Y-106082417D01*
X158691972Y-106096046D01*
X158685783Y-106109131D01*
X158678342Y-106121547D01*
X158669719Y-106133173D01*
X158659998Y-106143898D01*
X158649273Y-106153619D01*
X158637647Y-106162242D01*
X158625231Y-106169683D01*
X158612146Y-106175872D01*
X158598517Y-106180749D01*
X158584476Y-106184266D01*
X158570158Y-106186390D01*
X158555700Y-106187100D01*
X158260700Y-106187100D01*
X158246242Y-106186390D01*
X158231924Y-106184266D01*
X158217883Y-106180749D01*
X158204254Y-106175872D01*
X158191169Y-106169683D01*
X158178753Y-106162242D01*
X158167127Y-106153619D01*
X158156402Y-106143898D01*
X158146681Y-106133173D01*
X158138058Y-106121547D01*
X158130617Y-106109131D01*
X158124428Y-106096046D01*
X158119551Y-106082417D01*
X158116034Y-106068376D01*
X158113910Y-106054058D01*
X158113200Y-106039600D01*
X158113200Y-105694600D01*
X158113910Y-105680142D01*
X158116034Y-105665824D01*
X158119551Y-105651783D01*
X158124428Y-105638154D01*
X158130617Y-105625069D01*
X158138058Y-105612653D01*
X158146681Y-105601027D01*
X158156402Y-105590302D01*
X158167127Y-105580581D01*
X158178753Y-105571958D01*
X158191169Y-105564517D01*
X158204254Y-105558328D01*
X158217883Y-105553451D01*
X158231924Y-105549934D01*
X158246242Y-105547810D01*
X158260700Y-105547100D01*
X158555700Y-105547100D01*
X158570158Y-105547810D01*
X158570158Y-105547810D01*
G37*
D12*
X158408200Y-105867100D03*
D11*
G36*
X157600158Y-105547810D02*
G01*
X157614476Y-105549934D01*
X157628517Y-105553451D01*
X157642146Y-105558328D01*
X157655231Y-105564517D01*
X157667647Y-105571958D01*
X157679273Y-105580581D01*
X157689998Y-105590302D01*
X157699719Y-105601027D01*
X157708342Y-105612653D01*
X157715783Y-105625069D01*
X157721972Y-105638154D01*
X157726849Y-105651783D01*
X157730366Y-105665824D01*
X157732490Y-105680142D01*
X157733200Y-105694600D01*
X157733200Y-106039600D01*
X157732490Y-106054058D01*
X157730366Y-106068376D01*
X157726849Y-106082417D01*
X157721972Y-106096046D01*
X157715783Y-106109131D01*
X157708342Y-106121547D01*
X157699719Y-106133173D01*
X157689998Y-106143898D01*
X157679273Y-106153619D01*
X157667647Y-106162242D01*
X157655231Y-106169683D01*
X157642146Y-106175872D01*
X157628517Y-106180749D01*
X157614476Y-106184266D01*
X157600158Y-106186390D01*
X157585700Y-106187100D01*
X157290700Y-106187100D01*
X157276242Y-106186390D01*
X157261924Y-106184266D01*
X157247883Y-106180749D01*
X157234254Y-106175872D01*
X157221169Y-106169683D01*
X157208753Y-106162242D01*
X157197127Y-106153619D01*
X157186402Y-106143898D01*
X157176681Y-106133173D01*
X157168058Y-106121547D01*
X157160617Y-106109131D01*
X157154428Y-106096046D01*
X157149551Y-106082417D01*
X157146034Y-106068376D01*
X157143910Y-106054058D01*
X157143200Y-106039600D01*
X157143200Y-105694600D01*
X157143910Y-105680142D01*
X157146034Y-105665824D01*
X157149551Y-105651783D01*
X157154428Y-105638154D01*
X157160617Y-105625069D01*
X157168058Y-105612653D01*
X157176681Y-105601027D01*
X157186402Y-105590302D01*
X157197127Y-105580581D01*
X157208753Y-105571958D01*
X157221169Y-105564517D01*
X157234254Y-105558328D01*
X157247883Y-105553451D01*
X157261924Y-105549934D01*
X157276242Y-105547810D01*
X157290700Y-105547100D01*
X157585700Y-105547100D01*
X157600158Y-105547810D01*
X157600158Y-105547810D01*
G37*
D12*
X157438200Y-105867100D03*
D11*
G36*
X160012758Y-105547810D02*
G01*
X160027076Y-105549934D01*
X160041117Y-105553451D01*
X160054746Y-105558328D01*
X160067831Y-105564517D01*
X160080247Y-105571958D01*
X160091873Y-105580581D01*
X160102598Y-105590302D01*
X160112319Y-105601027D01*
X160120942Y-105612653D01*
X160128383Y-105625069D01*
X160134572Y-105638154D01*
X160139449Y-105651783D01*
X160142966Y-105665824D01*
X160145090Y-105680142D01*
X160145800Y-105694600D01*
X160145800Y-106039600D01*
X160145090Y-106054058D01*
X160142966Y-106068376D01*
X160139449Y-106082417D01*
X160134572Y-106096046D01*
X160128383Y-106109131D01*
X160120942Y-106121547D01*
X160112319Y-106133173D01*
X160102598Y-106143898D01*
X160091873Y-106153619D01*
X160080247Y-106162242D01*
X160067831Y-106169683D01*
X160054746Y-106175872D01*
X160041117Y-106180749D01*
X160027076Y-106184266D01*
X160012758Y-106186390D01*
X159998300Y-106187100D01*
X159703300Y-106187100D01*
X159688842Y-106186390D01*
X159674524Y-106184266D01*
X159660483Y-106180749D01*
X159646854Y-106175872D01*
X159633769Y-106169683D01*
X159621353Y-106162242D01*
X159609727Y-106153619D01*
X159599002Y-106143898D01*
X159589281Y-106133173D01*
X159580658Y-106121547D01*
X159573217Y-106109131D01*
X159567028Y-106096046D01*
X159562151Y-106082417D01*
X159558634Y-106068376D01*
X159556510Y-106054058D01*
X159555800Y-106039600D01*
X159555800Y-105694600D01*
X159556510Y-105680142D01*
X159558634Y-105665824D01*
X159562151Y-105651783D01*
X159567028Y-105638154D01*
X159573217Y-105625069D01*
X159580658Y-105612653D01*
X159589281Y-105601027D01*
X159599002Y-105590302D01*
X159609727Y-105580581D01*
X159621353Y-105571958D01*
X159633769Y-105564517D01*
X159646854Y-105558328D01*
X159660483Y-105553451D01*
X159674524Y-105549934D01*
X159688842Y-105547810D01*
X159703300Y-105547100D01*
X159998300Y-105547100D01*
X160012758Y-105547810D01*
X160012758Y-105547810D01*
G37*
D12*
X159850800Y-105867100D03*
D11*
G36*
X160982758Y-105547810D02*
G01*
X160997076Y-105549934D01*
X161011117Y-105553451D01*
X161024746Y-105558328D01*
X161037831Y-105564517D01*
X161050247Y-105571958D01*
X161061873Y-105580581D01*
X161072598Y-105590302D01*
X161082319Y-105601027D01*
X161090942Y-105612653D01*
X161098383Y-105625069D01*
X161104572Y-105638154D01*
X161109449Y-105651783D01*
X161112966Y-105665824D01*
X161115090Y-105680142D01*
X161115800Y-105694600D01*
X161115800Y-106039600D01*
X161115090Y-106054058D01*
X161112966Y-106068376D01*
X161109449Y-106082417D01*
X161104572Y-106096046D01*
X161098383Y-106109131D01*
X161090942Y-106121547D01*
X161082319Y-106133173D01*
X161072598Y-106143898D01*
X161061873Y-106153619D01*
X161050247Y-106162242D01*
X161037831Y-106169683D01*
X161024746Y-106175872D01*
X161011117Y-106180749D01*
X160997076Y-106184266D01*
X160982758Y-106186390D01*
X160968300Y-106187100D01*
X160673300Y-106187100D01*
X160658842Y-106186390D01*
X160644524Y-106184266D01*
X160630483Y-106180749D01*
X160616854Y-106175872D01*
X160603769Y-106169683D01*
X160591353Y-106162242D01*
X160579727Y-106153619D01*
X160569002Y-106143898D01*
X160559281Y-106133173D01*
X160550658Y-106121547D01*
X160543217Y-106109131D01*
X160537028Y-106096046D01*
X160532151Y-106082417D01*
X160528634Y-106068376D01*
X160526510Y-106054058D01*
X160525800Y-106039600D01*
X160525800Y-105694600D01*
X160526510Y-105680142D01*
X160528634Y-105665824D01*
X160532151Y-105651783D01*
X160537028Y-105638154D01*
X160543217Y-105625069D01*
X160550658Y-105612653D01*
X160559281Y-105601027D01*
X160569002Y-105590302D01*
X160579727Y-105580581D01*
X160591353Y-105571958D01*
X160603769Y-105564517D01*
X160616854Y-105558328D01*
X160630483Y-105553451D01*
X160644524Y-105549934D01*
X160658842Y-105547810D01*
X160673300Y-105547100D01*
X160968300Y-105547100D01*
X160982758Y-105547810D01*
X160982758Y-105547810D01*
G37*
D12*
X160820800Y-105867100D03*
D11*
G36*
X158570158Y-104595260D02*
G01*
X158584476Y-104597384D01*
X158598517Y-104600901D01*
X158612146Y-104605778D01*
X158625231Y-104611967D01*
X158637647Y-104619408D01*
X158649273Y-104628031D01*
X158659998Y-104637752D01*
X158669719Y-104648477D01*
X158678342Y-104660103D01*
X158685783Y-104672519D01*
X158691972Y-104685604D01*
X158696849Y-104699233D01*
X158700366Y-104713274D01*
X158702490Y-104727592D01*
X158703200Y-104742050D01*
X158703200Y-105087050D01*
X158702490Y-105101508D01*
X158700366Y-105115826D01*
X158696849Y-105129867D01*
X158691972Y-105143496D01*
X158685783Y-105156581D01*
X158678342Y-105168997D01*
X158669719Y-105180623D01*
X158659998Y-105191348D01*
X158649273Y-105201069D01*
X158637647Y-105209692D01*
X158625231Y-105217133D01*
X158612146Y-105223322D01*
X158598517Y-105228199D01*
X158584476Y-105231716D01*
X158570158Y-105233840D01*
X158555700Y-105234550D01*
X158260700Y-105234550D01*
X158246242Y-105233840D01*
X158231924Y-105231716D01*
X158217883Y-105228199D01*
X158204254Y-105223322D01*
X158191169Y-105217133D01*
X158178753Y-105209692D01*
X158167127Y-105201069D01*
X158156402Y-105191348D01*
X158146681Y-105180623D01*
X158138058Y-105168997D01*
X158130617Y-105156581D01*
X158124428Y-105143496D01*
X158119551Y-105129867D01*
X158116034Y-105115826D01*
X158113910Y-105101508D01*
X158113200Y-105087050D01*
X158113200Y-104742050D01*
X158113910Y-104727592D01*
X158116034Y-104713274D01*
X158119551Y-104699233D01*
X158124428Y-104685604D01*
X158130617Y-104672519D01*
X158138058Y-104660103D01*
X158146681Y-104648477D01*
X158156402Y-104637752D01*
X158167127Y-104628031D01*
X158178753Y-104619408D01*
X158191169Y-104611967D01*
X158204254Y-104605778D01*
X158217883Y-104600901D01*
X158231924Y-104597384D01*
X158246242Y-104595260D01*
X158260700Y-104594550D01*
X158555700Y-104594550D01*
X158570158Y-104595260D01*
X158570158Y-104595260D01*
G37*
D12*
X158408200Y-104914550D03*
D11*
G36*
X157600158Y-104595260D02*
G01*
X157614476Y-104597384D01*
X157628517Y-104600901D01*
X157642146Y-104605778D01*
X157655231Y-104611967D01*
X157667647Y-104619408D01*
X157679273Y-104628031D01*
X157689998Y-104637752D01*
X157699719Y-104648477D01*
X157708342Y-104660103D01*
X157715783Y-104672519D01*
X157721972Y-104685604D01*
X157726849Y-104699233D01*
X157730366Y-104713274D01*
X157732490Y-104727592D01*
X157733200Y-104742050D01*
X157733200Y-105087050D01*
X157732490Y-105101508D01*
X157730366Y-105115826D01*
X157726849Y-105129867D01*
X157721972Y-105143496D01*
X157715783Y-105156581D01*
X157708342Y-105168997D01*
X157699719Y-105180623D01*
X157689998Y-105191348D01*
X157679273Y-105201069D01*
X157667647Y-105209692D01*
X157655231Y-105217133D01*
X157642146Y-105223322D01*
X157628517Y-105228199D01*
X157614476Y-105231716D01*
X157600158Y-105233840D01*
X157585700Y-105234550D01*
X157290700Y-105234550D01*
X157276242Y-105233840D01*
X157261924Y-105231716D01*
X157247883Y-105228199D01*
X157234254Y-105223322D01*
X157221169Y-105217133D01*
X157208753Y-105209692D01*
X157197127Y-105201069D01*
X157186402Y-105191348D01*
X157176681Y-105180623D01*
X157168058Y-105168997D01*
X157160617Y-105156581D01*
X157154428Y-105143496D01*
X157149551Y-105129867D01*
X157146034Y-105115826D01*
X157143910Y-105101508D01*
X157143200Y-105087050D01*
X157143200Y-104742050D01*
X157143910Y-104727592D01*
X157146034Y-104713274D01*
X157149551Y-104699233D01*
X157154428Y-104685604D01*
X157160617Y-104672519D01*
X157168058Y-104660103D01*
X157176681Y-104648477D01*
X157186402Y-104637752D01*
X157197127Y-104628031D01*
X157208753Y-104619408D01*
X157221169Y-104611967D01*
X157234254Y-104605778D01*
X157247883Y-104600901D01*
X157261924Y-104597384D01*
X157276242Y-104595260D01*
X157290700Y-104594550D01*
X157585700Y-104594550D01*
X157600158Y-104595260D01*
X157600158Y-104595260D01*
G37*
D12*
X157438200Y-104914550D03*
D11*
G36*
X160012758Y-104595260D02*
G01*
X160027076Y-104597384D01*
X160041117Y-104600901D01*
X160054746Y-104605778D01*
X160067831Y-104611967D01*
X160080247Y-104619408D01*
X160091873Y-104628031D01*
X160102598Y-104637752D01*
X160112319Y-104648477D01*
X160120942Y-104660103D01*
X160128383Y-104672519D01*
X160134572Y-104685604D01*
X160139449Y-104699233D01*
X160142966Y-104713274D01*
X160145090Y-104727592D01*
X160145800Y-104742050D01*
X160145800Y-105087050D01*
X160145090Y-105101508D01*
X160142966Y-105115826D01*
X160139449Y-105129867D01*
X160134572Y-105143496D01*
X160128383Y-105156581D01*
X160120942Y-105168997D01*
X160112319Y-105180623D01*
X160102598Y-105191348D01*
X160091873Y-105201069D01*
X160080247Y-105209692D01*
X160067831Y-105217133D01*
X160054746Y-105223322D01*
X160041117Y-105228199D01*
X160027076Y-105231716D01*
X160012758Y-105233840D01*
X159998300Y-105234550D01*
X159703300Y-105234550D01*
X159688842Y-105233840D01*
X159674524Y-105231716D01*
X159660483Y-105228199D01*
X159646854Y-105223322D01*
X159633769Y-105217133D01*
X159621353Y-105209692D01*
X159609727Y-105201069D01*
X159599002Y-105191348D01*
X159589281Y-105180623D01*
X159580658Y-105168997D01*
X159573217Y-105156581D01*
X159567028Y-105143496D01*
X159562151Y-105129867D01*
X159558634Y-105115826D01*
X159556510Y-105101508D01*
X159555800Y-105087050D01*
X159555800Y-104742050D01*
X159556510Y-104727592D01*
X159558634Y-104713274D01*
X159562151Y-104699233D01*
X159567028Y-104685604D01*
X159573217Y-104672519D01*
X159580658Y-104660103D01*
X159589281Y-104648477D01*
X159599002Y-104637752D01*
X159609727Y-104628031D01*
X159621353Y-104619408D01*
X159633769Y-104611967D01*
X159646854Y-104605778D01*
X159660483Y-104600901D01*
X159674524Y-104597384D01*
X159688842Y-104595260D01*
X159703300Y-104594550D01*
X159998300Y-104594550D01*
X160012758Y-104595260D01*
X160012758Y-104595260D01*
G37*
D12*
X159850800Y-104914550D03*
D11*
G36*
X160982758Y-104595260D02*
G01*
X160997076Y-104597384D01*
X161011117Y-104600901D01*
X161024746Y-104605778D01*
X161037831Y-104611967D01*
X161050247Y-104619408D01*
X161061873Y-104628031D01*
X161072598Y-104637752D01*
X161082319Y-104648477D01*
X161090942Y-104660103D01*
X161098383Y-104672519D01*
X161104572Y-104685604D01*
X161109449Y-104699233D01*
X161112966Y-104713274D01*
X161115090Y-104727592D01*
X161115800Y-104742050D01*
X161115800Y-105087050D01*
X161115090Y-105101508D01*
X161112966Y-105115826D01*
X161109449Y-105129867D01*
X161104572Y-105143496D01*
X161098383Y-105156581D01*
X161090942Y-105168997D01*
X161082319Y-105180623D01*
X161072598Y-105191348D01*
X161061873Y-105201069D01*
X161050247Y-105209692D01*
X161037831Y-105217133D01*
X161024746Y-105223322D01*
X161011117Y-105228199D01*
X160997076Y-105231716D01*
X160982758Y-105233840D01*
X160968300Y-105234550D01*
X160673300Y-105234550D01*
X160658842Y-105233840D01*
X160644524Y-105231716D01*
X160630483Y-105228199D01*
X160616854Y-105223322D01*
X160603769Y-105217133D01*
X160591353Y-105209692D01*
X160579727Y-105201069D01*
X160569002Y-105191348D01*
X160559281Y-105180623D01*
X160550658Y-105168997D01*
X160543217Y-105156581D01*
X160537028Y-105143496D01*
X160532151Y-105129867D01*
X160528634Y-105115826D01*
X160526510Y-105101508D01*
X160525800Y-105087050D01*
X160525800Y-104742050D01*
X160526510Y-104727592D01*
X160528634Y-104713274D01*
X160532151Y-104699233D01*
X160537028Y-104685604D01*
X160543217Y-104672519D01*
X160550658Y-104660103D01*
X160559281Y-104648477D01*
X160569002Y-104637752D01*
X160579727Y-104628031D01*
X160591353Y-104619408D01*
X160603769Y-104611967D01*
X160616854Y-104605778D01*
X160630483Y-104600901D01*
X160644524Y-104597384D01*
X160658842Y-104595260D01*
X160673300Y-104594550D01*
X160968300Y-104594550D01*
X160982758Y-104595260D01*
X160982758Y-104595260D01*
G37*
D12*
X160820800Y-104914550D03*
D11*
G36*
X157600158Y-103642710D02*
G01*
X157614476Y-103644834D01*
X157628517Y-103648351D01*
X157642146Y-103653228D01*
X157655231Y-103659417D01*
X157667647Y-103666858D01*
X157679273Y-103675481D01*
X157689998Y-103685202D01*
X157699719Y-103695927D01*
X157708342Y-103707553D01*
X157715783Y-103719969D01*
X157721972Y-103733054D01*
X157726849Y-103746683D01*
X157730366Y-103760724D01*
X157732490Y-103775042D01*
X157733200Y-103789500D01*
X157733200Y-104134500D01*
X157732490Y-104148958D01*
X157730366Y-104163276D01*
X157726849Y-104177317D01*
X157721972Y-104190946D01*
X157715783Y-104204031D01*
X157708342Y-104216447D01*
X157699719Y-104228073D01*
X157689998Y-104238798D01*
X157679273Y-104248519D01*
X157667647Y-104257142D01*
X157655231Y-104264583D01*
X157642146Y-104270772D01*
X157628517Y-104275649D01*
X157614476Y-104279166D01*
X157600158Y-104281290D01*
X157585700Y-104282000D01*
X157290700Y-104282000D01*
X157276242Y-104281290D01*
X157261924Y-104279166D01*
X157247883Y-104275649D01*
X157234254Y-104270772D01*
X157221169Y-104264583D01*
X157208753Y-104257142D01*
X157197127Y-104248519D01*
X157186402Y-104238798D01*
X157176681Y-104228073D01*
X157168058Y-104216447D01*
X157160617Y-104204031D01*
X157154428Y-104190946D01*
X157149551Y-104177317D01*
X157146034Y-104163276D01*
X157143910Y-104148958D01*
X157143200Y-104134500D01*
X157143200Y-103789500D01*
X157143910Y-103775042D01*
X157146034Y-103760724D01*
X157149551Y-103746683D01*
X157154428Y-103733054D01*
X157160617Y-103719969D01*
X157168058Y-103707553D01*
X157176681Y-103695927D01*
X157186402Y-103685202D01*
X157197127Y-103675481D01*
X157208753Y-103666858D01*
X157221169Y-103659417D01*
X157234254Y-103653228D01*
X157247883Y-103648351D01*
X157261924Y-103644834D01*
X157276242Y-103642710D01*
X157290700Y-103642000D01*
X157585700Y-103642000D01*
X157600158Y-103642710D01*
X157600158Y-103642710D01*
G37*
D12*
X157438200Y-103962000D03*
D11*
G36*
X158570158Y-103642710D02*
G01*
X158584476Y-103644834D01*
X158598517Y-103648351D01*
X158612146Y-103653228D01*
X158625231Y-103659417D01*
X158637647Y-103666858D01*
X158649273Y-103675481D01*
X158659998Y-103685202D01*
X158669719Y-103695927D01*
X158678342Y-103707553D01*
X158685783Y-103719969D01*
X158691972Y-103733054D01*
X158696849Y-103746683D01*
X158700366Y-103760724D01*
X158702490Y-103775042D01*
X158703200Y-103789500D01*
X158703200Y-104134500D01*
X158702490Y-104148958D01*
X158700366Y-104163276D01*
X158696849Y-104177317D01*
X158691972Y-104190946D01*
X158685783Y-104204031D01*
X158678342Y-104216447D01*
X158669719Y-104228073D01*
X158659998Y-104238798D01*
X158649273Y-104248519D01*
X158637647Y-104257142D01*
X158625231Y-104264583D01*
X158612146Y-104270772D01*
X158598517Y-104275649D01*
X158584476Y-104279166D01*
X158570158Y-104281290D01*
X158555700Y-104282000D01*
X158260700Y-104282000D01*
X158246242Y-104281290D01*
X158231924Y-104279166D01*
X158217883Y-104275649D01*
X158204254Y-104270772D01*
X158191169Y-104264583D01*
X158178753Y-104257142D01*
X158167127Y-104248519D01*
X158156402Y-104238798D01*
X158146681Y-104228073D01*
X158138058Y-104216447D01*
X158130617Y-104204031D01*
X158124428Y-104190946D01*
X158119551Y-104177317D01*
X158116034Y-104163276D01*
X158113910Y-104148958D01*
X158113200Y-104134500D01*
X158113200Y-103789500D01*
X158113910Y-103775042D01*
X158116034Y-103760724D01*
X158119551Y-103746683D01*
X158124428Y-103733054D01*
X158130617Y-103719969D01*
X158138058Y-103707553D01*
X158146681Y-103695927D01*
X158156402Y-103685202D01*
X158167127Y-103675481D01*
X158178753Y-103666858D01*
X158191169Y-103659417D01*
X158204254Y-103653228D01*
X158217883Y-103648351D01*
X158231924Y-103644834D01*
X158246242Y-103642710D01*
X158260700Y-103642000D01*
X158555700Y-103642000D01*
X158570158Y-103642710D01*
X158570158Y-103642710D01*
G37*
D12*
X158408200Y-103962000D03*
D11*
G36*
X160012758Y-103642710D02*
G01*
X160027076Y-103644834D01*
X160041117Y-103648351D01*
X160054746Y-103653228D01*
X160067831Y-103659417D01*
X160080247Y-103666858D01*
X160091873Y-103675481D01*
X160102598Y-103685202D01*
X160112319Y-103695927D01*
X160120942Y-103707553D01*
X160128383Y-103719969D01*
X160134572Y-103733054D01*
X160139449Y-103746683D01*
X160142966Y-103760724D01*
X160145090Y-103775042D01*
X160145800Y-103789500D01*
X160145800Y-104134500D01*
X160145090Y-104148958D01*
X160142966Y-104163276D01*
X160139449Y-104177317D01*
X160134572Y-104190946D01*
X160128383Y-104204031D01*
X160120942Y-104216447D01*
X160112319Y-104228073D01*
X160102598Y-104238798D01*
X160091873Y-104248519D01*
X160080247Y-104257142D01*
X160067831Y-104264583D01*
X160054746Y-104270772D01*
X160041117Y-104275649D01*
X160027076Y-104279166D01*
X160012758Y-104281290D01*
X159998300Y-104282000D01*
X159703300Y-104282000D01*
X159688842Y-104281290D01*
X159674524Y-104279166D01*
X159660483Y-104275649D01*
X159646854Y-104270772D01*
X159633769Y-104264583D01*
X159621353Y-104257142D01*
X159609727Y-104248519D01*
X159599002Y-104238798D01*
X159589281Y-104228073D01*
X159580658Y-104216447D01*
X159573217Y-104204031D01*
X159567028Y-104190946D01*
X159562151Y-104177317D01*
X159558634Y-104163276D01*
X159556510Y-104148958D01*
X159555800Y-104134500D01*
X159555800Y-103789500D01*
X159556510Y-103775042D01*
X159558634Y-103760724D01*
X159562151Y-103746683D01*
X159567028Y-103733054D01*
X159573217Y-103719969D01*
X159580658Y-103707553D01*
X159589281Y-103695927D01*
X159599002Y-103685202D01*
X159609727Y-103675481D01*
X159621353Y-103666858D01*
X159633769Y-103659417D01*
X159646854Y-103653228D01*
X159660483Y-103648351D01*
X159674524Y-103644834D01*
X159688842Y-103642710D01*
X159703300Y-103642000D01*
X159998300Y-103642000D01*
X160012758Y-103642710D01*
X160012758Y-103642710D01*
G37*
D12*
X159850800Y-103962000D03*
D11*
G36*
X160982758Y-103642710D02*
G01*
X160997076Y-103644834D01*
X161011117Y-103648351D01*
X161024746Y-103653228D01*
X161037831Y-103659417D01*
X161050247Y-103666858D01*
X161061873Y-103675481D01*
X161072598Y-103685202D01*
X161082319Y-103695927D01*
X161090942Y-103707553D01*
X161098383Y-103719969D01*
X161104572Y-103733054D01*
X161109449Y-103746683D01*
X161112966Y-103760724D01*
X161115090Y-103775042D01*
X161115800Y-103789500D01*
X161115800Y-104134500D01*
X161115090Y-104148958D01*
X161112966Y-104163276D01*
X161109449Y-104177317D01*
X161104572Y-104190946D01*
X161098383Y-104204031D01*
X161090942Y-104216447D01*
X161082319Y-104228073D01*
X161072598Y-104238798D01*
X161061873Y-104248519D01*
X161050247Y-104257142D01*
X161037831Y-104264583D01*
X161024746Y-104270772D01*
X161011117Y-104275649D01*
X160997076Y-104279166D01*
X160982758Y-104281290D01*
X160968300Y-104282000D01*
X160673300Y-104282000D01*
X160658842Y-104281290D01*
X160644524Y-104279166D01*
X160630483Y-104275649D01*
X160616854Y-104270772D01*
X160603769Y-104264583D01*
X160591353Y-104257142D01*
X160579727Y-104248519D01*
X160569002Y-104238798D01*
X160559281Y-104228073D01*
X160550658Y-104216447D01*
X160543217Y-104204031D01*
X160537028Y-104190946D01*
X160532151Y-104177317D01*
X160528634Y-104163276D01*
X160526510Y-104148958D01*
X160525800Y-104134500D01*
X160525800Y-103789500D01*
X160526510Y-103775042D01*
X160528634Y-103760724D01*
X160532151Y-103746683D01*
X160537028Y-103733054D01*
X160543217Y-103719969D01*
X160550658Y-103707553D01*
X160559281Y-103695927D01*
X160569002Y-103685202D01*
X160579727Y-103675481D01*
X160591353Y-103666858D01*
X160603769Y-103659417D01*
X160616854Y-103653228D01*
X160630483Y-103648351D01*
X160644524Y-103644834D01*
X160658842Y-103642710D01*
X160673300Y-103642000D01*
X160968300Y-103642000D01*
X160982758Y-103642710D01*
X160982758Y-103642710D01*
G37*
D12*
X160820800Y-103962000D03*
D28*
X154297056Y-107302944D03*
X152600000Y-106600000D03*
X150902944Y-107302944D03*
X150200000Y-109000000D03*
X150902944Y-110697056D03*
X152600000Y-111400000D03*
X154297056Y-110697056D03*
X155000000Y-109000000D03*
D29*
X152600000Y-109000000D03*
D28*
X181097056Y-107302944D03*
X179400000Y-106600000D03*
X177702944Y-107302944D03*
X177000000Y-109000000D03*
X177702944Y-110697056D03*
X179400000Y-111400000D03*
X181097056Y-110697056D03*
X181800000Y-109000000D03*
D29*
X179400000Y-109000000D03*
D11*
G36*
X170921218Y-102235750D02*
G01*
X170935536Y-102237874D01*
X170949577Y-102241391D01*
X170963206Y-102246268D01*
X170976291Y-102252457D01*
X170988707Y-102259898D01*
X171000333Y-102268521D01*
X171011058Y-102278242D01*
X171020779Y-102288967D01*
X171029402Y-102300593D01*
X171036843Y-102313009D01*
X171043032Y-102326094D01*
X171047909Y-102339723D01*
X171051426Y-102353764D01*
X171053550Y-102368082D01*
X171054260Y-102382540D01*
X171054260Y-102727540D01*
X171053550Y-102741998D01*
X171051426Y-102756316D01*
X171047909Y-102770357D01*
X171043032Y-102783986D01*
X171036843Y-102797071D01*
X171029402Y-102809487D01*
X171020779Y-102821113D01*
X171011058Y-102831838D01*
X171000333Y-102841559D01*
X170988707Y-102850182D01*
X170976291Y-102857623D01*
X170963206Y-102863812D01*
X170949577Y-102868689D01*
X170935536Y-102872206D01*
X170921218Y-102874330D01*
X170906760Y-102875040D01*
X170611760Y-102875040D01*
X170597302Y-102874330D01*
X170582984Y-102872206D01*
X170568943Y-102868689D01*
X170555314Y-102863812D01*
X170542229Y-102857623D01*
X170529813Y-102850182D01*
X170518187Y-102841559D01*
X170507462Y-102831838D01*
X170497741Y-102821113D01*
X170489118Y-102809487D01*
X170481677Y-102797071D01*
X170475488Y-102783986D01*
X170470611Y-102770357D01*
X170467094Y-102756316D01*
X170464970Y-102741998D01*
X170464260Y-102727540D01*
X170464260Y-102382540D01*
X170464970Y-102368082D01*
X170467094Y-102353764D01*
X170470611Y-102339723D01*
X170475488Y-102326094D01*
X170481677Y-102313009D01*
X170489118Y-102300593D01*
X170497741Y-102288967D01*
X170507462Y-102278242D01*
X170518187Y-102268521D01*
X170529813Y-102259898D01*
X170542229Y-102252457D01*
X170555314Y-102246268D01*
X170568943Y-102241391D01*
X170582984Y-102237874D01*
X170597302Y-102235750D01*
X170611760Y-102235040D01*
X170906760Y-102235040D01*
X170921218Y-102235750D01*
X170921218Y-102235750D01*
G37*
D12*
X170759260Y-102555040D03*
D11*
G36*
X171891218Y-102235750D02*
G01*
X171905536Y-102237874D01*
X171919577Y-102241391D01*
X171933206Y-102246268D01*
X171946291Y-102252457D01*
X171958707Y-102259898D01*
X171970333Y-102268521D01*
X171981058Y-102278242D01*
X171990779Y-102288967D01*
X171999402Y-102300593D01*
X172006843Y-102313009D01*
X172013032Y-102326094D01*
X172017909Y-102339723D01*
X172021426Y-102353764D01*
X172023550Y-102368082D01*
X172024260Y-102382540D01*
X172024260Y-102727540D01*
X172023550Y-102741998D01*
X172021426Y-102756316D01*
X172017909Y-102770357D01*
X172013032Y-102783986D01*
X172006843Y-102797071D01*
X171999402Y-102809487D01*
X171990779Y-102821113D01*
X171981058Y-102831838D01*
X171970333Y-102841559D01*
X171958707Y-102850182D01*
X171946291Y-102857623D01*
X171933206Y-102863812D01*
X171919577Y-102868689D01*
X171905536Y-102872206D01*
X171891218Y-102874330D01*
X171876760Y-102875040D01*
X171581760Y-102875040D01*
X171567302Y-102874330D01*
X171552984Y-102872206D01*
X171538943Y-102868689D01*
X171525314Y-102863812D01*
X171512229Y-102857623D01*
X171499813Y-102850182D01*
X171488187Y-102841559D01*
X171477462Y-102831838D01*
X171467741Y-102821113D01*
X171459118Y-102809487D01*
X171451677Y-102797071D01*
X171445488Y-102783986D01*
X171440611Y-102770357D01*
X171437094Y-102756316D01*
X171434970Y-102741998D01*
X171434260Y-102727540D01*
X171434260Y-102382540D01*
X171434970Y-102368082D01*
X171437094Y-102353764D01*
X171440611Y-102339723D01*
X171445488Y-102326094D01*
X171451677Y-102313009D01*
X171459118Y-102300593D01*
X171467741Y-102288967D01*
X171477462Y-102278242D01*
X171488187Y-102268521D01*
X171499813Y-102259898D01*
X171512229Y-102252457D01*
X171525314Y-102246268D01*
X171538943Y-102241391D01*
X171552984Y-102237874D01*
X171567302Y-102235750D01*
X171581760Y-102235040D01*
X171876760Y-102235040D01*
X171891218Y-102235750D01*
X171891218Y-102235750D01*
G37*
D12*
X171729260Y-102555040D03*
D11*
G36*
X167986978Y-105760730D02*
G01*
X168001296Y-105762854D01*
X168015337Y-105766371D01*
X168028966Y-105771248D01*
X168042051Y-105777437D01*
X168054467Y-105784878D01*
X168066093Y-105793501D01*
X168076818Y-105803222D01*
X168086539Y-105813947D01*
X168095162Y-105825573D01*
X168102603Y-105837989D01*
X168108792Y-105851074D01*
X168113669Y-105864703D01*
X168117186Y-105878744D01*
X168119310Y-105893062D01*
X168120020Y-105907520D01*
X168120020Y-106202520D01*
X168119310Y-106216978D01*
X168117186Y-106231296D01*
X168113669Y-106245337D01*
X168108792Y-106258966D01*
X168102603Y-106272051D01*
X168095162Y-106284467D01*
X168086539Y-106296093D01*
X168076818Y-106306818D01*
X168066093Y-106316539D01*
X168054467Y-106325162D01*
X168042051Y-106332603D01*
X168028966Y-106338792D01*
X168015337Y-106343669D01*
X168001296Y-106347186D01*
X167986978Y-106349310D01*
X167972520Y-106350020D01*
X167627520Y-106350020D01*
X167613062Y-106349310D01*
X167598744Y-106347186D01*
X167584703Y-106343669D01*
X167571074Y-106338792D01*
X167557989Y-106332603D01*
X167545573Y-106325162D01*
X167533947Y-106316539D01*
X167523222Y-106306818D01*
X167513501Y-106296093D01*
X167504878Y-106284467D01*
X167497437Y-106272051D01*
X167491248Y-106258966D01*
X167486371Y-106245337D01*
X167482854Y-106231296D01*
X167480730Y-106216978D01*
X167480020Y-106202520D01*
X167480020Y-105907520D01*
X167480730Y-105893062D01*
X167482854Y-105878744D01*
X167486371Y-105864703D01*
X167491248Y-105851074D01*
X167497437Y-105837989D01*
X167504878Y-105825573D01*
X167513501Y-105813947D01*
X167523222Y-105803222D01*
X167533947Y-105793501D01*
X167545573Y-105784878D01*
X167557989Y-105777437D01*
X167571074Y-105771248D01*
X167584703Y-105766371D01*
X167598744Y-105762854D01*
X167613062Y-105760730D01*
X167627520Y-105760020D01*
X167972520Y-105760020D01*
X167986978Y-105760730D01*
X167986978Y-105760730D01*
G37*
D12*
X167800020Y-106055020D03*
D11*
G36*
X167986978Y-104790730D02*
G01*
X168001296Y-104792854D01*
X168015337Y-104796371D01*
X168028966Y-104801248D01*
X168042051Y-104807437D01*
X168054467Y-104814878D01*
X168066093Y-104823501D01*
X168076818Y-104833222D01*
X168086539Y-104843947D01*
X168095162Y-104855573D01*
X168102603Y-104867989D01*
X168108792Y-104881074D01*
X168113669Y-104894703D01*
X168117186Y-104908744D01*
X168119310Y-104923062D01*
X168120020Y-104937520D01*
X168120020Y-105232520D01*
X168119310Y-105246978D01*
X168117186Y-105261296D01*
X168113669Y-105275337D01*
X168108792Y-105288966D01*
X168102603Y-105302051D01*
X168095162Y-105314467D01*
X168086539Y-105326093D01*
X168076818Y-105336818D01*
X168066093Y-105346539D01*
X168054467Y-105355162D01*
X168042051Y-105362603D01*
X168028966Y-105368792D01*
X168015337Y-105373669D01*
X168001296Y-105377186D01*
X167986978Y-105379310D01*
X167972520Y-105380020D01*
X167627520Y-105380020D01*
X167613062Y-105379310D01*
X167598744Y-105377186D01*
X167584703Y-105373669D01*
X167571074Y-105368792D01*
X167557989Y-105362603D01*
X167545573Y-105355162D01*
X167533947Y-105346539D01*
X167523222Y-105336818D01*
X167513501Y-105326093D01*
X167504878Y-105314467D01*
X167497437Y-105302051D01*
X167491248Y-105288966D01*
X167486371Y-105275337D01*
X167482854Y-105261296D01*
X167480730Y-105246978D01*
X167480020Y-105232520D01*
X167480020Y-104937520D01*
X167480730Y-104923062D01*
X167482854Y-104908744D01*
X167486371Y-104894703D01*
X167491248Y-104881074D01*
X167497437Y-104867989D01*
X167504878Y-104855573D01*
X167513501Y-104843947D01*
X167523222Y-104833222D01*
X167533947Y-104823501D01*
X167545573Y-104814878D01*
X167557989Y-104807437D01*
X167571074Y-104801248D01*
X167584703Y-104796371D01*
X167598744Y-104792854D01*
X167613062Y-104790730D01*
X167627520Y-104790020D01*
X167972520Y-104790020D01*
X167986978Y-104790730D01*
X167986978Y-104790730D01*
G37*
D12*
X167800020Y-105085020D03*
D11*
G36*
X167989518Y-103810010D02*
G01*
X168003836Y-103812134D01*
X168017877Y-103815651D01*
X168031506Y-103820528D01*
X168044591Y-103826717D01*
X168057007Y-103834158D01*
X168068633Y-103842781D01*
X168079358Y-103852502D01*
X168089079Y-103863227D01*
X168097702Y-103874853D01*
X168105143Y-103887269D01*
X168111332Y-103900354D01*
X168116209Y-103913983D01*
X168119726Y-103928024D01*
X168121850Y-103942342D01*
X168122560Y-103956800D01*
X168122560Y-104251800D01*
X168121850Y-104266258D01*
X168119726Y-104280576D01*
X168116209Y-104294617D01*
X168111332Y-104308246D01*
X168105143Y-104321331D01*
X168097702Y-104333747D01*
X168089079Y-104345373D01*
X168079358Y-104356098D01*
X168068633Y-104365819D01*
X168057007Y-104374442D01*
X168044591Y-104381883D01*
X168031506Y-104388072D01*
X168017877Y-104392949D01*
X168003836Y-104396466D01*
X167989518Y-104398590D01*
X167975060Y-104399300D01*
X167630060Y-104399300D01*
X167615602Y-104398590D01*
X167601284Y-104396466D01*
X167587243Y-104392949D01*
X167573614Y-104388072D01*
X167560529Y-104381883D01*
X167548113Y-104374442D01*
X167536487Y-104365819D01*
X167525762Y-104356098D01*
X167516041Y-104345373D01*
X167507418Y-104333747D01*
X167499977Y-104321331D01*
X167493788Y-104308246D01*
X167488911Y-104294617D01*
X167485394Y-104280576D01*
X167483270Y-104266258D01*
X167482560Y-104251800D01*
X167482560Y-103956800D01*
X167483270Y-103942342D01*
X167485394Y-103928024D01*
X167488911Y-103913983D01*
X167493788Y-103900354D01*
X167499977Y-103887269D01*
X167507418Y-103874853D01*
X167516041Y-103863227D01*
X167525762Y-103852502D01*
X167536487Y-103842781D01*
X167548113Y-103834158D01*
X167560529Y-103826717D01*
X167573614Y-103820528D01*
X167587243Y-103815651D01*
X167601284Y-103812134D01*
X167615602Y-103810010D01*
X167630060Y-103809300D01*
X167975060Y-103809300D01*
X167989518Y-103810010D01*
X167989518Y-103810010D01*
G37*
D12*
X167802560Y-104104300D03*
D11*
G36*
X167989518Y-102840010D02*
G01*
X168003836Y-102842134D01*
X168017877Y-102845651D01*
X168031506Y-102850528D01*
X168044591Y-102856717D01*
X168057007Y-102864158D01*
X168068633Y-102872781D01*
X168079358Y-102882502D01*
X168089079Y-102893227D01*
X168097702Y-102904853D01*
X168105143Y-102917269D01*
X168111332Y-102930354D01*
X168116209Y-102943983D01*
X168119726Y-102958024D01*
X168121850Y-102972342D01*
X168122560Y-102986800D01*
X168122560Y-103281800D01*
X168121850Y-103296258D01*
X168119726Y-103310576D01*
X168116209Y-103324617D01*
X168111332Y-103338246D01*
X168105143Y-103351331D01*
X168097702Y-103363747D01*
X168089079Y-103375373D01*
X168079358Y-103386098D01*
X168068633Y-103395819D01*
X168057007Y-103404442D01*
X168044591Y-103411883D01*
X168031506Y-103418072D01*
X168017877Y-103422949D01*
X168003836Y-103426466D01*
X167989518Y-103428590D01*
X167975060Y-103429300D01*
X167630060Y-103429300D01*
X167615602Y-103428590D01*
X167601284Y-103426466D01*
X167587243Y-103422949D01*
X167573614Y-103418072D01*
X167560529Y-103411883D01*
X167548113Y-103404442D01*
X167536487Y-103395819D01*
X167525762Y-103386098D01*
X167516041Y-103375373D01*
X167507418Y-103363747D01*
X167499977Y-103351331D01*
X167493788Y-103338246D01*
X167488911Y-103324617D01*
X167485394Y-103310576D01*
X167483270Y-103296258D01*
X167482560Y-103281800D01*
X167482560Y-102986800D01*
X167483270Y-102972342D01*
X167485394Y-102958024D01*
X167488911Y-102943983D01*
X167493788Y-102930354D01*
X167499977Y-102917269D01*
X167507418Y-102904853D01*
X167516041Y-102893227D01*
X167525762Y-102882502D01*
X167536487Y-102872781D01*
X167548113Y-102864158D01*
X167560529Y-102856717D01*
X167573614Y-102850528D01*
X167587243Y-102845651D01*
X167601284Y-102842134D01*
X167615602Y-102840010D01*
X167630060Y-102839300D01*
X167975060Y-102839300D01*
X167989518Y-102840010D01*
X167989518Y-102840010D01*
G37*
D12*
X167802560Y-103134300D03*
D11*
G36*
X159124918Y-111490970D02*
G01*
X159139236Y-111493094D01*
X159153277Y-111496611D01*
X159166906Y-111501488D01*
X159179991Y-111507677D01*
X159192407Y-111515118D01*
X159204033Y-111523741D01*
X159214758Y-111533462D01*
X159224479Y-111544187D01*
X159233102Y-111555813D01*
X159240543Y-111568229D01*
X159246732Y-111581314D01*
X159251609Y-111594943D01*
X159255126Y-111608984D01*
X159257250Y-111623302D01*
X159257960Y-111637760D01*
X159257960Y-111932760D01*
X159257250Y-111947218D01*
X159255126Y-111961536D01*
X159251609Y-111975577D01*
X159246732Y-111989206D01*
X159240543Y-112002291D01*
X159233102Y-112014707D01*
X159224479Y-112026333D01*
X159214758Y-112037058D01*
X159204033Y-112046779D01*
X159192407Y-112055402D01*
X159179991Y-112062843D01*
X159166906Y-112069032D01*
X159153277Y-112073909D01*
X159139236Y-112077426D01*
X159124918Y-112079550D01*
X159110460Y-112080260D01*
X158765460Y-112080260D01*
X158751002Y-112079550D01*
X158736684Y-112077426D01*
X158722643Y-112073909D01*
X158709014Y-112069032D01*
X158695929Y-112062843D01*
X158683513Y-112055402D01*
X158671887Y-112046779D01*
X158661162Y-112037058D01*
X158651441Y-112026333D01*
X158642818Y-112014707D01*
X158635377Y-112002291D01*
X158629188Y-111989206D01*
X158624311Y-111975577D01*
X158620794Y-111961536D01*
X158618670Y-111947218D01*
X158617960Y-111932760D01*
X158617960Y-111637760D01*
X158618670Y-111623302D01*
X158620794Y-111608984D01*
X158624311Y-111594943D01*
X158629188Y-111581314D01*
X158635377Y-111568229D01*
X158642818Y-111555813D01*
X158651441Y-111544187D01*
X158661162Y-111533462D01*
X158671887Y-111523741D01*
X158683513Y-111515118D01*
X158695929Y-111507677D01*
X158709014Y-111501488D01*
X158722643Y-111496611D01*
X158736684Y-111493094D01*
X158751002Y-111490970D01*
X158765460Y-111490260D01*
X159110460Y-111490260D01*
X159124918Y-111490970D01*
X159124918Y-111490970D01*
G37*
D12*
X158937960Y-111785260D03*
D11*
G36*
X159124918Y-110520970D02*
G01*
X159139236Y-110523094D01*
X159153277Y-110526611D01*
X159166906Y-110531488D01*
X159179991Y-110537677D01*
X159192407Y-110545118D01*
X159204033Y-110553741D01*
X159214758Y-110563462D01*
X159224479Y-110574187D01*
X159233102Y-110585813D01*
X159240543Y-110598229D01*
X159246732Y-110611314D01*
X159251609Y-110624943D01*
X159255126Y-110638984D01*
X159257250Y-110653302D01*
X159257960Y-110667760D01*
X159257960Y-110962760D01*
X159257250Y-110977218D01*
X159255126Y-110991536D01*
X159251609Y-111005577D01*
X159246732Y-111019206D01*
X159240543Y-111032291D01*
X159233102Y-111044707D01*
X159224479Y-111056333D01*
X159214758Y-111067058D01*
X159204033Y-111076779D01*
X159192407Y-111085402D01*
X159179991Y-111092843D01*
X159166906Y-111099032D01*
X159153277Y-111103909D01*
X159139236Y-111107426D01*
X159124918Y-111109550D01*
X159110460Y-111110260D01*
X158765460Y-111110260D01*
X158751002Y-111109550D01*
X158736684Y-111107426D01*
X158722643Y-111103909D01*
X158709014Y-111099032D01*
X158695929Y-111092843D01*
X158683513Y-111085402D01*
X158671887Y-111076779D01*
X158661162Y-111067058D01*
X158651441Y-111056333D01*
X158642818Y-111044707D01*
X158635377Y-111032291D01*
X158629188Y-111019206D01*
X158624311Y-111005577D01*
X158620794Y-110991536D01*
X158618670Y-110977218D01*
X158617960Y-110962760D01*
X158617960Y-110667760D01*
X158618670Y-110653302D01*
X158620794Y-110638984D01*
X158624311Y-110624943D01*
X158629188Y-110611314D01*
X158635377Y-110598229D01*
X158642818Y-110585813D01*
X158651441Y-110574187D01*
X158661162Y-110563462D01*
X158671887Y-110553741D01*
X158683513Y-110545118D01*
X158695929Y-110537677D01*
X158709014Y-110531488D01*
X158722643Y-110526611D01*
X158736684Y-110523094D01*
X158751002Y-110520970D01*
X158765460Y-110520260D01*
X159110460Y-110520260D01*
X159124918Y-110520970D01*
X159124918Y-110520970D01*
G37*
D12*
X158937960Y-110815260D03*
D30*
X175360000Y-98462500D03*
X169560000Y-98462500D03*
D31*
X168960000Y-98462500D03*
X175960000Y-98462500D03*
D32*
X173460000Y-98462500D03*
D33*
X169960000Y-101162500D03*
D34*
X172460000Y-101162500D03*
X171810000Y-101162500D03*
X171160000Y-101162500D03*
X173760000Y-101162500D03*
X173110000Y-101162500D03*
D33*
X174960000Y-101162500D03*
D32*
X171460000Y-98462500D03*
D35*
X159000000Y-114715000D03*
X159000000Y-118885000D03*
X157000000Y-114715000D03*
X157000000Y-118885000D03*
X155000000Y-114715000D03*
X155000000Y-118885000D03*
X153000000Y-114715000D03*
X153000000Y-118885000D03*
X151000000Y-114715000D03*
X151000000Y-118885000D03*
D36*
X178500000Y-98550000D03*
X178500000Y-99800000D03*
X178500000Y-101050000D03*
D11*
G36*
X178969603Y-101900963D02*
G01*
X178989018Y-101903843D01*
X179008057Y-101908612D01*
X179026537Y-101915224D01*
X179044279Y-101923616D01*
X179061114Y-101933706D01*
X179076879Y-101945398D01*
X179091421Y-101958579D01*
X179104602Y-101973121D01*
X179116294Y-101988886D01*
X179126384Y-102005721D01*
X179134776Y-102023463D01*
X179141388Y-102041943D01*
X179146157Y-102060982D01*
X179149037Y-102080397D01*
X179150000Y-102100000D01*
X179150000Y-102500000D01*
X179149037Y-102519603D01*
X179146157Y-102539018D01*
X179141388Y-102558057D01*
X179134776Y-102576537D01*
X179126384Y-102594279D01*
X179116294Y-102611114D01*
X179104602Y-102626879D01*
X179091421Y-102641421D01*
X179076879Y-102654602D01*
X179061114Y-102666294D01*
X179044279Y-102676384D01*
X179026537Y-102684776D01*
X179008057Y-102691388D01*
X178989018Y-102696157D01*
X178969603Y-102699037D01*
X178950000Y-102700000D01*
X178050000Y-102700000D01*
X178030397Y-102699037D01*
X178010982Y-102696157D01*
X177991943Y-102691388D01*
X177973463Y-102684776D01*
X177955721Y-102676384D01*
X177938886Y-102666294D01*
X177923121Y-102654602D01*
X177908579Y-102641421D01*
X177895398Y-102626879D01*
X177883706Y-102611114D01*
X177873616Y-102594279D01*
X177865224Y-102576537D01*
X177858612Y-102558057D01*
X177853843Y-102539018D01*
X177850963Y-102519603D01*
X177850000Y-102500000D01*
X177850000Y-102100000D01*
X177850963Y-102080397D01*
X177853843Y-102060982D01*
X177858612Y-102041943D01*
X177865224Y-102023463D01*
X177873616Y-102005721D01*
X177883706Y-101988886D01*
X177895398Y-101973121D01*
X177908579Y-101958579D01*
X177923121Y-101945398D01*
X177938886Y-101933706D01*
X177955721Y-101923616D01*
X177973463Y-101915224D01*
X177991943Y-101908612D01*
X178010982Y-101903843D01*
X178030397Y-101900963D01*
X178050000Y-101900000D01*
X178950000Y-101900000D01*
X178969603Y-101900963D01*
X178969603Y-101900963D01*
G37*
D28*
X178500000Y-102300000D03*
D11*
G36*
X158065031Y-110403973D02*
G01*
X158086266Y-110407123D01*
X158107090Y-110412339D01*
X158127302Y-110419571D01*
X158146708Y-110428750D01*
X158165121Y-110439786D01*
X158182364Y-110452574D01*
X158198270Y-110466990D01*
X158212686Y-110482896D01*
X158225474Y-110500139D01*
X158236510Y-110518552D01*
X158245689Y-110537958D01*
X158252921Y-110558170D01*
X158258137Y-110578994D01*
X158261287Y-110600229D01*
X158262340Y-110621670D01*
X158262340Y-111059170D01*
X158261287Y-111080611D01*
X158258137Y-111101846D01*
X158252921Y-111122670D01*
X158245689Y-111142882D01*
X158236510Y-111162288D01*
X158225474Y-111180701D01*
X158212686Y-111197944D01*
X158198270Y-111213850D01*
X158182364Y-111228266D01*
X158165121Y-111241054D01*
X158146708Y-111252090D01*
X158127302Y-111261269D01*
X158107090Y-111268501D01*
X158086266Y-111273717D01*
X158065031Y-111276867D01*
X158043590Y-111277920D01*
X157531090Y-111277920D01*
X157509649Y-111276867D01*
X157488414Y-111273717D01*
X157467590Y-111268501D01*
X157447378Y-111261269D01*
X157427972Y-111252090D01*
X157409559Y-111241054D01*
X157392316Y-111228266D01*
X157376410Y-111213850D01*
X157361994Y-111197944D01*
X157349206Y-111180701D01*
X157338170Y-111162288D01*
X157328991Y-111142882D01*
X157321759Y-111122670D01*
X157316543Y-111101846D01*
X157313393Y-111080611D01*
X157312340Y-111059170D01*
X157312340Y-110621670D01*
X157313393Y-110600229D01*
X157316543Y-110578994D01*
X157321759Y-110558170D01*
X157328991Y-110537958D01*
X157338170Y-110518552D01*
X157349206Y-110500139D01*
X157361994Y-110482896D01*
X157376410Y-110466990D01*
X157392316Y-110452574D01*
X157409559Y-110439786D01*
X157427972Y-110428750D01*
X157447378Y-110419571D01*
X157467590Y-110412339D01*
X157488414Y-110407123D01*
X157509649Y-110403973D01*
X157531090Y-110402920D01*
X158043590Y-110402920D01*
X158065031Y-110403973D01*
X158065031Y-110403973D01*
G37*
D13*
X157787340Y-110840420D03*
D11*
G36*
X158065031Y-111978973D02*
G01*
X158086266Y-111982123D01*
X158107090Y-111987339D01*
X158127302Y-111994571D01*
X158146708Y-112003750D01*
X158165121Y-112014786D01*
X158182364Y-112027574D01*
X158198270Y-112041990D01*
X158212686Y-112057896D01*
X158225474Y-112075139D01*
X158236510Y-112093552D01*
X158245689Y-112112958D01*
X158252921Y-112133170D01*
X158258137Y-112153994D01*
X158261287Y-112175229D01*
X158262340Y-112196670D01*
X158262340Y-112634170D01*
X158261287Y-112655611D01*
X158258137Y-112676846D01*
X158252921Y-112697670D01*
X158245689Y-112717882D01*
X158236510Y-112737288D01*
X158225474Y-112755701D01*
X158212686Y-112772944D01*
X158198270Y-112788850D01*
X158182364Y-112803266D01*
X158165121Y-112816054D01*
X158146708Y-112827090D01*
X158127302Y-112836269D01*
X158107090Y-112843501D01*
X158086266Y-112848717D01*
X158065031Y-112851867D01*
X158043590Y-112852920D01*
X157531090Y-112852920D01*
X157509649Y-112851867D01*
X157488414Y-112848717D01*
X157467590Y-112843501D01*
X157447378Y-112836269D01*
X157427972Y-112827090D01*
X157409559Y-112816054D01*
X157392316Y-112803266D01*
X157376410Y-112788850D01*
X157361994Y-112772944D01*
X157349206Y-112755701D01*
X157338170Y-112737288D01*
X157328991Y-112717882D01*
X157321759Y-112697670D01*
X157316543Y-112676846D01*
X157313393Y-112655611D01*
X157312340Y-112634170D01*
X157312340Y-112196670D01*
X157313393Y-112175229D01*
X157316543Y-112153994D01*
X157321759Y-112133170D01*
X157328991Y-112112958D01*
X157338170Y-112093552D01*
X157349206Y-112075139D01*
X157361994Y-112057896D01*
X157376410Y-112041990D01*
X157392316Y-112027574D01*
X157409559Y-112014786D01*
X157427972Y-112003750D01*
X157447378Y-111994571D01*
X157467590Y-111987339D01*
X157488414Y-111982123D01*
X157509649Y-111978973D01*
X157531090Y-111977920D01*
X158043590Y-111977920D01*
X158065031Y-111978973D01*
X158065031Y-111978973D01*
G37*
D13*
X157787340Y-112415420D03*
D37*
X161574480Y-104013000D03*
X140150800Y-104159100D03*
X140145320Y-100959100D03*
X140167780Y-97759100D03*
X141752320Y-116446300D03*
X143220440Y-120403620D03*
X177129440Y-102115620D03*
X177109120Y-100291900D03*
X177190400Y-97795080D03*
X174602140Y-97723960D03*
X174713900Y-99628960D03*
X176057560Y-100261420D03*
X170268900Y-97683320D03*
X170254260Y-98462500D03*
X164256720Y-120398540D03*
X168158160Y-107063540D03*
X174472600Y-115366800D03*
X164134800Y-111506000D03*
X140700000Y-111100000D03*
X138600000Y-117600000D03*
X144500000Y-101500000D03*
X144500000Y-100500000D03*
X144500000Y-99500000D03*
X138500000Y-107000000D03*
X139500000Y-108000000D03*
X138500000Y-108000000D03*
X138500000Y-109000000D03*
X138500000Y-110000000D03*
X138500000Y-111000000D03*
X138500000Y-112000000D03*
X138500000Y-113000000D03*
X138500000Y-114000000D03*
X139000000Y-111500000D03*
X139000000Y-110500000D03*
X139000000Y-109500000D03*
X139000000Y-107500000D03*
X139000000Y-113500000D03*
X139000000Y-114500000D03*
X140000000Y-114500000D03*
X145000000Y-100000000D03*
X145000000Y-101000000D03*
X142981669Y-116461540D03*
X166070200Y-105216019D03*
X159788905Y-117753665D03*
X173527860Y-108379260D03*
X153949152Y-119326419D03*
X150000000Y-119250000D03*
X150000000Y-118500000D03*
X150000000Y-117750000D03*
X150000000Y-117000000D03*
X150000000Y-116250000D03*
X150000000Y-115500000D03*
X150000000Y-114750000D03*
X150000000Y-114000000D03*
X149910000Y-112890000D03*
X150500000Y-112250000D03*
X182000000Y-112000000D03*
X182000000Y-113000000D03*
X182000000Y-114000000D03*
X181000000Y-120000000D03*
X182000000Y-120000000D03*
X155500000Y-101000000D03*
X173230000Y-103226031D03*
X152010000Y-113720001D03*
X163329620Y-99077780D03*
X175338740Y-109646720D03*
X174523400Y-112725200D03*
X174523400Y-113284000D03*
X174523400Y-113817400D03*
X175945800Y-102364540D03*
X174083980Y-99931220D03*
X173550580Y-99938840D03*
X173042580Y-99824540D03*
X174348712Y-104427710D03*
X171227019Y-103179805D03*
D38*
X154830000Y-102000000D03*
X155000000Y-103000000D03*
D28*
X161067272Y-112991179D03*
D37*
X163286440Y-120469660D03*
X174498000Y-118008400D03*
X164109400Y-110540800D03*
X166244806Y-104603000D03*
X153893712Y-119946257D03*
X157893702Y-117772180D03*
X170002448Y-103182647D03*
X172180000Y-103810000D03*
X172769822Y-103810241D03*
X172459968Y-105820006D03*
X172284572Y-105227459D03*
X159109438Y-106318421D03*
X153330000Y-112550090D03*
X174168654Y-102179302D03*
X157977390Y-114795644D03*
X161350000Y-117430000D03*
X157949133Y-114025710D03*
X162600000Y-116015062D03*
X167530780Y-114340780D03*
X168248506Y-116621047D03*
X167810180Y-113253520D03*
X166965788Y-113870870D03*
X163652136Y-106197400D03*
X160350110Y-112637522D03*
X163639490Y-107416607D03*
X168640760Y-108107480D03*
X165935660Y-106535220D03*
X159871489Y-113035258D03*
X163652200Y-104902000D03*
X159256345Y-112941110D03*
X145500000Y-117000000D03*
X146000000Y-117500000D03*
X146000000Y-118500000D03*
X145500000Y-118000000D03*
X142468579Y-104929409D03*
X141655800Y-111150400D03*
X146000000Y-113500000D03*
X145000000Y-113500000D03*
X146000000Y-114500000D03*
X145500000Y-114000000D03*
X142671800Y-101904800D03*
X142138391Y-110680490D03*
X144500000Y-109500000D03*
X145500000Y-109500000D03*
X145500000Y-110500000D03*
X144500000Y-110500000D03*
X145000000Y-110000000D03*
X139598400Y-110032800D03*
X140004800Y-118618000D03*
X143626840Y-119451120D03*
X146619838Y-119760157D03*
X160398666Y-117878016D03*
X156166398Y-111588854D03*
X141058900Y-107025440D03*
X148869400Y-119004080D03*
X139598400Y-112572800D03*
X141224000Y-118618000D03*
X159847280Y-120500140D03*
X139598400Y-113893600D03*
X142087600Y-118668800D03*
X156083000Y-120131830D03*
X159131200Y-103962000D03*
X142722600Y-98755200D03*
X142532100Y-107289600D03*
X146000000Y-105500000D03*
X145000000Y-105500000D03*
X145000000Y-106500000D03*
X146000000Y-106500000D03*
X145500000Y-106000000D03*
X159118450Y-104914550D03*
X156743400Y-113004600D03*
X159331921Y-109065920D03*
X159328772Y-108430778D03*
X159095462Y-105696266D03*
X154302511Y-112509729D03*
X159107719Y-107010695D03*
X159092910Y-107771068D03*
X139588240Y-108668820D03*
X139004040Y-118569740D03*
X143741136Y-120062835D03*
X147104100Y-120256310D03*
X160869114Y-118285388D03*
X166391749Y-116468710D03*
X166890033Y-115949967D03*
X167821449Y-115529436D03*
X167547317Y-114970756D03*
X174840000Y-104900000D03*
X178420000Y-104260000D03*
X161939901Y-115227641D03*
X161428997Y-115697551D03*
X163977507Y-109196027D03*
X169861693Y-106267713D03*
X157977390Y-115456163D03*
X170415514Y-107408753D03*
X161759359Y-116664824D03*
X161154845Y-116812557D03*
X161229802Y-112214286D03*
X159893702Y-114495620D03*
X169922109Y-105622372D03*
X169440643Y-102700037D03*
X160664711Y-115973582D03*
X171000000Y-99806252D03*
X165600009Y-111567486D03*
X160618209Y-114495620D03*
X146000000Y-97500000D03*
X147000000Y-97500000D03*
X148000000Y-97500000D03*
X148000000Y-98500000D03*
X147500000Y-98000000D03*
X148500000Y-98000000D03*
X149000000Y-97500000D03*
X149000000Y-98500000D03*
X149500000Y-98000000D03*
X150000000Y-97500000D03*
X150000000Y-98500000D03*
X150500000Y-98000000D03*
X150500000Y-99000000D03*
X149500000Y-99000000D03*
X148500000Y-99000000D03*
X151000000Y-98500000D03*
X151000000Y-97500000D03*
X147500000Y-99000000D03*
D39*
X160820800Y-103962000D02*
X160820800Y-104914550D01*
X160820800Y-104914550D02*
X160820800Y-105867100D01*
X160820800Y-106789650D02*
X160790800Y-106819650D01*
X160820800Y-105867100D02*
X160820800Y-106789650D01*
X160790800Y-107742200D02*
X160820800Y-107772200D01*
X160790800Y-106819650D02*
X160790800Y-107742200D01*
X160820800Y-103962000D02*
X161523480Y-103962000D01*
X161523480Y-103962000D02*
X161574480Y-104013000D01*
D40*
X171460000Y-98462500D02*
X170254260Y-98462500D01*
X173460000Y-98462500D02*
X175960000Y-98462500D01*
D41*
X171160000Y-101162500D02*
X169960000Y-101162500D01*
D40*
X170254260Y-98462500D02*
X169560000Y-98462500D01*
D42*
X167800020Y-106055020D02*
X167800020Y-106705400D01*
X167800020Y-106705400D02*
X168158160Y-107063540D01*
D39*
X174472600Y-116355000D02*
X174498000Y-116380400D01*
X174472600Y-115366800D02*
X174472600Y-116355000D01*
X152804120Y-118689120D02*
X153000000Y-118885000D01*
X165216980Y-104362799D02*
X165841601Y-104987420D01*
X165216980Y-103903780D02*
X165216980Y-104362799D01*
X165841601Y-104987420D02*
X166070200Y-105216019D01*
X159652400Y-118885000D02*
X159788905Y-118748495D01*
X159788905Y-118076954D02*
X159788905Y-117753665D01*
X159000000Y-118885000D02*
X159652400Y-118885000D01*
X159788905Y-118748495D02*
X159788905Y-118076954D01*
X160820800Y-108192200D02*
X160820800Y-107772200D01*
X157071030Y-111699110D02*
X157071030Y-110431104D01*
X157787340Y-112415420D02*
X157071030Y-111699110D01*
X157071030Y-110431104D02*
X157935326Y-109566808D01*
X159495588Y-109566808D02*
X160820800Y-108241596D01*
X160820800Y-108241596D02*
X160820800Y-108192200D01*
X157935326Y-109566808D02*
X159495588Y-109566808D01*
D42*
X167800020Y-106055020D02*
X167861526Y-106055020D01*
D39*
X153949152Y-118885000D02*
X153949152Y-119326419D01*
X153000000Y-118885000D02*
X153949152Y-118885000D01*
X155000000Y-118885000D02*
X153949152Y-118885000D01*
D42*
X167800020Y-106055020D02*
X167800020Y-106037380D01*
X168463366Y-105453180D02*
X168922520Y-105453180D01*
X167879166Y-106037380D02*
X168463366Y-105453180D01*
X167800020Y-106037380D02*
X167879166Y-106037380D01*
X177702944Y-110697056D02*
X179400000Y-109000000D01*
X177370000Y-112820000D02*
X177702944Y-112487056D01*
X177702944Y-112487056D02*
X177702944Y-110697056D01*
D39*
X179415000Y-108985000D02*
X179400000Y-109000000D01*
D40*
X174960000Y-103030000D02*
X175750000Y-103820000D01*
X174960000Y-101162500D02*
X174960000Y-103030000D01*
D39*
X155375000Y-100875000D02*
X155500000Y-101000000D01*
X154420000Y-100875000D02*
X155375000Y-100875000D01*
X173230000Y-102685000D02*
X173230000Y-103226031D01*
D43*
X161822150Y-106819650D02*
X162040000Y-107037500D01*
X160790800Y-106819650D02*
X161822150Y-106819650D01*
X178990000Y-106190000D02*
X179400000Y-106600000D01*
X179400000Y-106600000D02*
X179400000Y-109000000D01*
X178990000Y-104890000D02*
X178990000Y-106190000D01*
D40*
X174481200Y-109677200D02*
X175308260Y-109677200D01*
X175308260Y-109677200D02*
X175338740Y-109646720D01*
D42*
X174523400Y-113284000D02*
X174523400Y-112725200D01*
X174523400Y-113817400D02*
X174523400Y-113284000D01*
X174523400Y-114249200D02*
X174523400Y-113817400D01*
X175173610Y-114899410D02*
X174523400Y-114249200D01*
X170230784Y-118608100D02*
X171836394Y-120213710D01*
X162690800Y-118608100D02*
X170230784Y-118608100D01*
X171836394Y-120213710D02*
X173545206Y-120213710D01*
X173545206Y-120213710D02*
X175173610Y-118585306D01*
X175173610Y-118585306D02*
X175173610Y-114899410D01*
D39*
X166184440Y-99077780D02*
X163329620Y-99077780D01*
X167459660Y-100353000D02*
X166184440Y-99077780D01*
D42*
X178940000Y-114600000D02*
X176400000Y-114600000D01*
X176400000Y-114600000D02*
X176400000Y-112820000D01*
D39*
X171122520Y-104503180D02*
X171122520Y-103284304D01*
X171122520Y-103284304D02*
X171227019Y-103179805D01*
D44*
X162307721Y-112991179D02*
X161632957Y-112991179D01*
X161632957Y-112991179D02*
X161067272Y-112991179D01*
X162690800Y-112608100D02*
X162307721Y-112991179D01*
D39*
X174498000Y-117350400D02*
X174498000Y-118008400D01*
X166186980Y-104545174D02*
X166244806Y-104603000D01*
X166186980Y-103903780D02*
X166186980Y-104545174D01*
X168922520Y-106880580D02*
X168922520Y-106403180D01*
X168922520Y-107195800D02*
X168922520Y-106880580D01*
X166244806Y-104603000D02*
X166908480Y-105266674D01*
X166908480Y-105266674D02*
X166908480Y-106888280D01*
X167675560Y-107655360D02*
X168462960Y-107655360D01*
X166908480Y-106888280D02*
X167675560Y-107655360D01*
X168462960Y-107655360D02*
X168922520Y-107195800D01*
D42*
X170014900Y-103170195D02*
X170002448Y-103182647D01*
D39*
X170131653Y-103182647D02*
X170002448Y-103182647D01*
D42*
X170014900Y-103167180D02*
X170014900Y-103170195D01*
D39*
X170759260Y-102555040D02*
X170131653Y-103182647D01*
D43*
X165852812Y-103569612D02*
X166186980Y-103903780D01*
X165612970Y-103329770D02*
X165852812Y-103569612D01*
X164685230Y-103329770D02*
X165612970Y-103329770D01*
X164115000Y-103900000D02*
X164685230Y-103329770D01*
D39*
X151000000Y-119675000D02*
X151741301Y-120416301D01*
X151000000Y-118885000D02*
X151000000Y-119675000D01*
X151741301Y-120416301D02*
X153746957Y-120416301D01*
X153746957Y-120416301D02*
X153893712Y-120269546D01*
X153893712Y-120269546D02*
X153893712Y-119946257D01*
D42*
X158912800Y-110840420D02*
X158937960Y-110815260D01*
X157787340Y-110840420D02*
X158912800Y-110840420D01*
D39*
X174397253Y-102407901D02*
X174168654Y-102179302D01*
X173230000Y-104169342D02*
X174397253Y-103002089D01*
X174397253Y-103002089D02*
X174397253Y-102407901D01*
X173230000Y-104535000D02*
X173230000Y-104169342D01*
D41*
X174214000Y-102091500D02*
X174214000Y-102133956D01*
X174214000Y-102133956D02*
X174168654Y-102179302D01*
X173760000Y-101162500D02*
X173760000Y-101637500D01*
X173760000Y-101637500D02*
X174214000Y-102091500D01*
D39*
X158919356Y-114795644D02*
X159000000Y-114715000D01*
X157977390Y-114795644D02*
X158919356Y-114795644D01*
X157949133Y-113702421D02*
X157949133Y-114025710D01*
X158937960Y-111785260D02*
X158937960Y-112390426D01*
X158937960Y-112390426D02*
X157949133Y-113379253D01*
X157949133Y-113379253D02*
X157949133Y-113702421D01*
X161350000Y-117430000D02*
X161645274Y-117134726D01*
X161984913Y-117134726D02*
X162600000Y-116519639D01*
X162600000Y-116338351D02*
X162600000Y-116015062D01*
X161645274Y-117134726D02*
X161984913Y-117134726D01*
X162600000Y-116519639D02*
X162600000Y-116338351D01*
D42*
X167802560Y-105082480D02*
X167800020Y-105085020D01*
X167932740Y-104581960D02*
X167802560Y-104581960D01*
X167802560Y-104104300D02*
X167802560Y-104581960D01*
X168011520Y-104503180D02*
X167932740Y-104581960D01*
X168922520Y-104503180D02*
X168011520Y-104503180D01*
X167802560Y-104581960D02*
X167802560Y-105082480D01*
D39*
X167018603Y-115391144D02*
X168248506Y-116621047D01*
X167018603Y-114817928D02*
X167018603Y-115391144D01*
X167530780Y-114340780D02*
X167495751Y-114340780D01*
X167495751Y-114340780D02*
X167018603Y-114817928D01*
X166965788Y-113870870D02*
X167279608Y-113557050D01*
X167506650Y-113557050D02*
X167810180Y-113253520D01*
X167279608Y-113557050D02*
X167506650Y-113557050D01*
X160350110Y-112314233D02*
X160350110Y-112637522D01*
X164109400Y-106654664D02*
X164109400Y-107627972D01*
X163652136Y-106197400D02*
X164109400Y-106654664D01*
X160350110Y-111387262D02*
X160350110Y-112314233D01*
X164109400Y-107627972D02*
X160350110Y-111387262D01*
X165935660Y-106563160D02*
X165935660Y-106535220D01*
X168640760Y-108107480D02*
X167479980Y-108107480D01*
X167479980Y-108107480D02*
X165935660Y-106563160D01*
X159871489Y-111416855D02*
X159871489Y-112711969D01*
X163410891Y-107645206D02*
X163410891Y-107877453D01*
X159871489Y-112711969D02*
X159871489Y-113035258D01*
X163410891Y-107877453D02*
X159871489Y-111416855D01*
X163639490Y-107416607D02*
X163410891Y-107645206D01*
X163652200Y-104902000D02*
X163055289Y-105498911D01*
X163055289Y-105498911D02*
X163055289Y-107784027D01*
X159543985Y-111295331D02*
X159543985Y-112653470D01*
X159543985Y-112653470D02*
X159484944Y-112712511D01*
X159484944Y-112712511D02*
X159256345Y-112941110D01*
X163055289Y-107784027D02*
X159543985Y-111295331D01*
X150948175Y-105558699D02*
X149126330Y-107380544D01*
X147650000Y-118000000D02*
X147350000Y-118000000D01*
X149126330Y-107380544D02*
X149126330Y-116523670D01*
X149126330Y-116523670D02*
X147650000Y-118000000D01*
X154251825Y-105558699D02*
X150948175Y-105558699D01*
X156465326Y-107772200D02*
X154251825Y-105558699D01*
X157438200Y-107772200D02*
X156465326Y-107772200D01*
X157043200Y-106819650D02*
X157438200Y-106819650D01*
X150816658Y-105241188D02*
X154383342Y-105241188D01*
X148808819Y-112841181D02*
X148808819Y-107249027D01*
X154383342Y-105241188D02*
X155961804Y-106819650D01*
X148808819Y-107249027D02*
X150816658Y-105241188D01*
X155961804Y-106819650D02*
X157043200Y-106819650D01*
X147650000Y-114000000D02*
X148808819Y-112841181D01*
X147350000Y-114000000D02*
X147650000Y-114000000D01*
X147650000Y-110000000D02*
X148491309Y-109158691D01*
X150685141Y-104923677D02*
X154514860Y-104923678D01*
X148491309Y-109158691D02*
X148491309Y-107117509D01*
X157043200Y-105867100D02*
X157438200Y-105867100D01*
X147350000Y-110000000D02*
X147650000Y-110000000D01*
X154514860Y-104923678D02*
X155458282Y-105867100D01*
X148491309Y-107117509D02*
X150685141Y-104923677D01*
X155458282Y-105867100D02*
X157043200Y-105867100D01*
X143626840Y-119451120D02*
X143626840Y-119127831D01*
X143626840Y-119127831D02*
X144116351Y-118638320D01*
X145293080Y-118638320D02*
X146186318Y-119531558D01*
X144116351Y-118638320D02*
X145293080Y-118638320D01*
X146186318Y-119531558D02*
X146391239Y-119531558D01*
X146391239Y-119531558D02*
X146619838Y-119760157D01*
X148869400Y-119004080D02*
X149512020Y-118361460D01*
X149512020Y-118361460D02*
X149512020Y-114092020D01*
X149512020Y-114092020D02*
X149512020Y-113978638D01*
X149512020Y-114092020D02*
X149512020Y-113792526D01*
X149512020Y-113792526D02*
X149732273Y-113572273D01*
X149530099Y-113774447D02*
X149732273Y-113572273D01*
X155937799Y-111817453D02*
X156166398Y-111588854D01*
X149774447Y-113530099D02*
X149965355Y-113530099D01*
X149732273Y-113572273D02*
X149774447Y-113530099D01*
X149965355Y-113530099D02*
X150475454Y-113020000D01*
X154735252Y-113020000D02*
X155937799Y-111817453D01*
X150475454Y-113020000D02*
X154735252Y-113020000D01*
X158408200Y-103962000D02*
X159131200Y-103962000D01*
X159131200Y-103962000D02*
X159850800Y-103962000D01*
D45*
X158408200Y-103962000D02*
X159850800Y-103962000D01*
D39*
X150000000Y-101999080D02*
X150000000Y-100400000D01*
X157438200Y-103962000D02*
X151962920Y-103962000D01*
X151962920Y-103962000D02*
X150000000Y-101999080D01*
D42*
X150485000Y-100885000D02*
X150000000Y-100400000D01*
X150485000Y-102500000D02*
X150485000Y-100885000D01*
D39*
X167468392Y-102800132D02*
X167802560Y-103134300D01*
X158600068Y-102800132D02*
X167468392Y-102800132D01*
X157438200Y-103962000D02*
X158600068Y-102800132D01*
X149159790Y-106000000D02*
X147350000Y-106000000D01*
X150553623Y-104606167D02*
X149159790Y-106000000D01*
X154646376Y-104606168D02*
X150553623Y-104606167D01*
X157438200Y-104914550D02*
X154954758Y-104914550D01*
X154954758Y-104914550D02*
X154646376Y-104606168D01*
D45*
X158408200Y-104914550D02*
X159118450Y-104914550D01*
X159118450Y-104914550D02*
X159850800Y-104914550D01*
D39*
X156747511Y-110305595D02*
X157987186Y-109065920D01*
X157987186Y-109065920D02*
X159008632Y-109065920D01*
X156747511Y-110513757D02*
X156747511Y-110305595D01*
X159008632Y-109065920D02*
X159331921Y-109065920D01*
X156743400Y-113004600D02*
X156743400Y-110517868D01*
X156743400Y-110517868D02*
X156747511Y-110513757D01*
D45*
X158579034Y-105696266D02*
X159095462Y-105696266D01*
X158408200Y-105867100D02*
X158579034Y-105696266D01*
X159679966Y-105696266D02*
X159095462Y-105696266D01*
X159850800Y-105867100D02*
X159679966Y-105696266D01*
D39*
X154302511Y-112509729D02*
X156430000Y-110382240D01*
X156430000Y-110058951D02*
X158058173Y-108430778D01*
X156430000Y-110382240D02*
X156430000Y-110058951D01*
X158058173Y-108430778D02*
X159328772Y-108430778D01*
D45*
X159040695Y-107010695D02*
X159107719Y-107010695D01*
X158408550Y-106820000D02*
X158850000Y-106820000D01*
X158408200Y-106819650D02*
X158408550Y-106820000D01*
X158850000Y-106820000D02*
X159040695Y-107010695D01*
X159139305Y-107010695D02*
X159107719Y-107010695D01*
X159310000Y-106840000D02*
X159139305Y-107010695D01*
X159820800Y-106819650D02*
X159800450Y-106840000D01*
X159800450Y-106840000D02*
X159310000Y-106840000D01*
X159091778Y-107772200D02*
X159092910Y-107771068D01*
X158408200Y-107772200D02*
X159091778Y-107772200D01*
X159850800Y-107772200D02*
X159094042Y-107772200D01*
X159094042Y-107772200D02*
X159092910Y-107771068D01*
D39*
X146451436Y-120256310D02*
X147104100Y-120256310D01*
X143741136Y-120062835D02*
X144108699Y-119695272D01*
X145181426Y-118986300D02*
X146451436Y-120256310D01*
X144108699Y-119695272D02*
X144108699Y-119368041D01*
X144108699Y-119368041D02*
X144490440Y-118986300D01*
X144490440Y-118986300D02*
X145181426Y-118986300D01*
D46*
X172692500Y-104910000D02*
X173033701Y-105251201D01*
X165815000Y-113436800D02*
X165815000Y-115891961D01*
X172692500Y-104460000D02*
X172692500Y-104910000D01*
X173033701Y-105251201D02*
X173033701Y-106218099D01*
X165815000Y-115891961D02*
X166163150Y-116240111D01*
X166163150Y-116240111D02*
X166391749Y-116468710D01*
X173033701Y-106218099D02*
X165815000Y-113436800D01*
X166708166Y-115949967D02*
X166890033Y-115949967D01*
X166265000Y-115506801D02*
X166708166Y-115949967D01*
X173767500Y-104460000D02*
X173767500Y-104910000D01*
X166265000Y-113623200D02*
X166265000Y-115506801D01*
X173767500Y-104910000D02*
X173455000Y-105222500D01*
X173455000Y-105222500D02*
X173455000Y-106433200D01*
X173455000Y-106433200D02*
X166265000Y-113623200D01*
D39*
X168597591Y-114753294D02*
X168050048Y-115300837D01*
X168050048Y-115300837D02*
X167821449Y-115529436D01*
X168597591Y-112288309D02*
X168597591Y-114753294D01*
X178250000Y-101050000D02*
X177608690Y-101691310D01*
X174444011Y-107909359D02*
X172976541Y-107909359D01*
X175957511Y-105345859D02*
X175957511Y-106395859D01*
X177608690Y-103694680D02*
X175957511Y-105345859D01*
X178500000Y-101050000D02*
X178250000Y-101050000D01*
X172976541Y-107909359D02*
X168597591Y-112288309D01*
X177608690Y-101691310D02*
X177608690Y-103694680D01*
X175957511Y-106395859D02*
X174444011Y-107909359D01*
X175610000Y-106294342D02*
X175610000Y-105244342D01*
X168280080Y-114561282D02*
X168280080Y-112135920D01*
X167870606Y-114970756D02*
X168280080Y-114561282D01*
X176527461Y-100178105D02*
X176905566Y-99800000D01*
X175610000Y-105244342D02*
X176527461Y-104326881D01*
X174312494Y-107591848D02*
X175610000Y-106294342D01*
X172824152Y-107591848D02*
X174312494Y-107591848D01*
X167547317Y-114970756D02*
X167870606Y-114970756D01*
X168280080Y-112135920D02*
X172824152Y-107591848D01*
X176527461Y-104326881D02*
X176527461Y-100178105D01*
X176905566Y-99800000D02*
X178500000Y-99800000D01*
X174589440Y-105920000D02*
X174589440Y-105150560D01*
X174589440Y-105150560D02*
X174840000Y-104900000D01*
D43*
X178020000Y-104336711D02*
X178020000Y-104890000D01*
X178420000Y-104260000D02*
X178096711Y-104260000D01*
X178096711Y-104260000D02*
X178020000Y-104336711D01*
D40*
X172381200Y-112298500D02*
X172690800Y-112608100D01*
X172381200Y-109677200D02*
X172381200Y-112298500D01*
D42*
X172690800Y-112608100D02*
X172690800Y-118608100D01*
D40*
X176489440Y-106564405D02*
X176489440Y-105920000D01*
X174595330Y-108404670D02*
X174649175Y-108404670D01*
X172381200Y-109677200D02*
X173322800Y-109677200D01*
X174649175Y-108404670D02*
X176489440Y-106564405D01*
X173322800Y-109677200D02*
X174595330Y-108404670D01*
D39*
X157977390Y-115456163D02*
X157977390Y-115916732D01*
X158306959Y-116246301D02*
X159696536Y-116246301D01*
X160659805Y-115283032D02*
X161081603Y-115283032D01*
X163760896Y-114734432D02*
X170415514Y-108079814D01*
X170415514Y-107732042D02*
X170415514Y-107408753D01*
X157977390Y-115916732D02*
X158306959Y-116246301D01*
X170415514Y-108079814D02*
X170415514Y-107732042D01*
X161630203Y-114734432D02*
X163760896Y-114734432D01*
X159696536Y-116246301D02*
X160659805Y-115283032D01*
X161081603Y-115283032D02*
X161630203Y-114734432D01*
X161530760Y-116436225D02*
X161759359Y-116664824D01*
X154444240Y-116949240D02*
X160353607Y-116949240D01*
X153000000Y-115505000D02*
X154444240Y-116949240D01*
X160972847Y-116330000D02*
X161424535Y-116330000D01*
X160353607Y-116949240D02*
X160972847Y-116330000D01*
X161424535Y-116330000D02*
X161530760Y-116436225D01*
X152761751Y-117266751D02*
X160700651Y-117266751D01*
X151000000Y-115505000D02*
X152761751Y-117266751D01*
X151000000Y-114715000D02*
X151000000Y-115505000D01*
X160926246Y-117041156D02*
X161154845Y-116812557D01*
X160700651Y-117266751D02*
X160926246Y-117041156D01*
X161229802Y-111890997D02*
X161229802Y-112214286D01*
X163654218Y-109196027D02*
X161229802Y-111620443D01*
X161229802Y-111620443D02*
X161229802Y-111890997D01*
X163977507Y-109196027D02*
X163654218Y-109196027D01*
X160843762Y-114965521D02*
X160363603Y-114965521D01*
X169861693Y-108184607D02*
X163629379Y-114416921D01*
X160122301Y-114724219D02*
X159893702Y-114495620D01*
X161392362Y-114416921D02*
X160843762Y-114965521D01*
X163629379Y-114416921D02*
X161392362Y-114416921D01*
X160363603Y-114965521D02*
X160122301Y-114724219D01*
X169861693Y-106267713D02*
X169861693Y-108184607D01*
X160436112Y-116202181D02*
X160664711Y-115973582D01*
X155000000Y-114715000D02*
X155000000Y-115505000D01*
X156126731Y-116631731D02*
X160006562Y-116631731D01*
X155000000Y-115505000D02*
X156126731Y-116631731D01*
X160006562Y-116631731D02*
X160436112Y-116202181D01*
D42*
X171122520Y-106403180D02*
X171122520Y-105910560D01*
X171122520Y-105910560D02*
X169808121Y-104596161D01*
X169808121Y-104596161D02*
X169808121Y-103893699D01*
X169676713Y-99806252D02*
X170676711Y-99806252D01*
X170676711Y-99806252D02*
X171000000Y-99806252D01*
X168610280Y-100872685D02*
X169676713Y-99806252D01*
X168610280Y-102695858D02*
X168610280Y-100872685D01*
X169808121Y-103893699D02*
X168610280Y-102695858D01*
D39*
X167459660Y-101323000D02*
X168543560Y-101323000D01*
X168610280Y-101389720D02*
X168610280Y-100872685D01*
X168543560Y-101323000D02*
X168610280Y-101389720D01*
X172460000Y-102125100D02*
X172460000Y-101989900D01*
X172692500Y-102357600D02*
X172460000Y-102125100D01*
X172460000Y-101989900D02*
X172460000Y-101162500D01*
X172692500Y-102760000D02*
X172692500Y-102357600D01*
X172460000Y-102219300D02*
X172460000Y-102125100D01*
X172124260Y-102555040D02*
X172460000Y-102219300D01*
X171729260Y-102555040D02*
X172124260Y-102555040D01*
X173662171Y-102654671D02*
X173767500Y-102760000D01*
X173110000Y-101162500D02*
X173110000Y-101989900D01*
X173573041Y-102118699D02*
X173662171Y-102207829D01*
X173110000Y-101989900D02*
X173238799Y-102118699D01*
X173662171Y-102207829D02*
X173662171Y-102654671D01*
X173238799Y-102118699D02*
X173573041Y-102118699D01*
X161014419Y-114099410D02*
X160846808Y-114267021D01*
X165600009Y-111567486D02*
X165600009Y-111997263D01*
X160846808Y-114267021D02*
X160618209Y-114495620D01*
X163497862Y-114099410D02*
X161014419Y-114099410D01*
X165600009Y-111997263D02*
X163497862Y-114099410D01*
D43*
X162040000Y-104610000D02*
X162040000Y-105462500D01*
X163145000Y-103900000D02*
X162750000Y-103900000D01*
X162750000Y-103900000D02*
X162040000Y-104610000D01*
D39*
G36*
X152057271Y-99745000D02*
G01*
X152062175Y-99794793D01*
X152076699Y-99842672D01*
X152100285Y-99886798D01*
X152132026Y-99925474D01*
X152170702Y-99957215D01*
X152214828Y-99980801D01*
X152262707Y-99995325D01*
X152312500Y-100000229D01*
X154547500Y-100000229D01*
X154597293Y-99995325D01*
X154645172Y-99980801D01*
X154689298Y-99957215D01*
X154727974Y-99925474D01*
X154759715Y-99886798D01*
X154783301Y-99842672D01*
X154797825Y-99794793D01*
X154802729Y-99745000D01*
X154802729Y-99576200D01*
X154923800Y-99576200D01*
X154923800Y-100544800D01*
X154877728Y-100544800D01*
X154877728Y-100380000D01*
X154872824Y-100330207D01*
X154858300Y-100282328D01*
X154834714Y-100238203D01*
X154802973Y-100199527D01*
X154764297Y-100167786D01*
X154720172Y-100144200D01*
X154672293Y-100129676D01*
X154622500Y-100124772D01*
X154217500Y-100124772D01*
X154167707Y-100129676D01*
X154119828Y-100144200D01*
X154075703Y-100167786D01*
X154037027Y-100199527D01*
X154005286Y-100238203D01*
X153981700Y-100282328D01*
X153967176Y-100330207D01*
X153962272Y-100380000D01*
X153962272Y-101370000D01*
X153967176Y-101419793D01*
X153981700Y-101467672D01*
X154005286Y-101511797D01*
X154037027Y-101550473D01*
X154075703Y-101582214D01*
X154119828Y-101605800D01*
X154167707Y-101620324D01*
X154217500Y-101625228D01*
X154286158Y-101625228D01*
X154244761Y-101687183D01*
X154194979Y-101807369D01*
X154169600Y-101934956D01*
X154169600Y-102065044D01*
X154194979Y-102192631D01*
X154244761Y-102312817D01*
X154317034Y-102420980D01*
X154409020Y-102512966D01*
X154495382Y-102570672D01*
X154487034Y-102579020D01*
X154414761Y-102687183D01*
X154364979Y-102807369D01*
X154339600Y-102934956D01*
X154339600Y-103065044D01*
X154364979Y-103192631D01*
X154414761Y-103312817D01*
X154487034Y-103420980D01*
X154579020Y-103512966D01*
X154687183Y-103585239D01*
X154807369Y-103635021D01*
X154923800Y-103658181D01*
X154923800Y-104416620D01*
X154891330Y-104384150D01*
X154880992Y-104371553D01*
X154859860Y-104354210D01*
X154830713Y-104330289D01*
X154773349Y-104299629D01*
X154773342Y-104299627D01*
X154711106Y-104280747D01*
X154705629Y-104280208D01*
X154646376Y-104274371D01*
X154630153Y-104275969D01*
X150569839Y-104275967D01*
X150553623Y-104274370D01*
X150488893Y-104280745D01*
X150426650Y-104299627D01*
X150369286Y-104330288D01*
X150331602Y-104361215D01*
X150319008Y-104371551D01*
X150308674Y-104384143D01*
X149023018Y-105669800D01*
X148441845Y-105669800D01*
X148363511Y-105523247D01*
X148256791Y-105393209D01*
X148126753Y-105286489D01*
X147978393Y-105207189D01*
X147817413Y-105158357D01*
X147691952Y-105146000D01*
X147008048Y-105146000D01*
X146882587Y-105158357D01*
X146721607Y-105207189D01*
X146573247Y-105286489D01*
X146466939Y-105373734D01*
X146464054Y-105359231D01*
X146427674Y-105271403D01*
X146374860Y-105192360D01*
X146307640Y-105125140D01*
X146228597Y-105072326D01*
X146140769Y-105035946D01*
X146047532Y-105017400D01*
X145952468Y-105017400D01*
X145859231Y-105035946D01*
X145771403Y-105072326D01*
X145692360Y-105125140D01*
X145625140Y-105192360D01*
X145572326Y-105271403D01*
X145535946Y-105359231D01*
X145517400Y-105452468D01*
X145517400Y-105517400D01*
X145482600Y-105517400D01*
X145482600Y-105452468D01*
X145464054Y-105359231D01*
X145427674Y-105271403D01*
X145374860Y-105192360D01*
X145307640Y-105125140D01*
X145228597Y-105072326D01*
X145140769Y-105035946D01*
X145047532Y-105017400D01*
X144952468Y-105017400D01*
X144859231Y-105035946D01*
X144771403Y-105072326D01*
X144692360Y-105125140D01*
X144625140Y-105192360D01*
X144572326Y-105271403D01*
X144535946Y-105359231D01*
X144517400Y-105452468D01*
X144517400Y-105547532D01*
X144535946Y-105640769D01*
X144572326Y-105728597D01*
X144625140Y-105807640D01*
X144692360Y-105874860D01*
X144771403Y-105927674D01*
X144859231Y-105964054D01*
X144952468Y-105982600D01*
X145017400Y-105982600D01*
X145017400Y-106017400D01*
X144952468Y-106017400D01*
X144859231Y-106035946D01*
X144771403Y-106072326D01*
X144692360Y-106125140D01*
X144625140Y-106192360D01*
X144572326Y-106271403D01*
X144535946Y-106359231D01*
X144517400Y-106452468D01*
X144517400Y-106547532D01*
X144535946Y-106640769D01*
X144572326Y-106728597D01*
X144625140Y-106807640D01*
X144692360Y-106874860D01*
X144771403Y-106927674D01*
X144859231Y-106964054D01*
X144952468Y-106982600D01*
X145047532Y-106982600D01*
X145140769Y-106964054D01*
X145228597Y-106927674D01*
X145307640Y-106874860D01*
X145374860Y-106807640D01*
X145427674Y-106728597D01*
X145464054Y-106640769D01*
X145482600Y-106547532D01*
X145482600Y-106482600D01*
X145517400Y-106482600D01*
X145517400Y-106547532D01*
X145535946Y-106640769D01*
X145572326Y-106728597D01*
X145625140Y-106807640D01*
X145692360Y-106874860D01*
X145771403Y-106927674D01*
X145859231Y-106964054D01*
X145952468Y-106982600D01*
X146047532Y-106982600D01*
X146140769Y-106964054D01*
X146228597Y-106927674D01*
X146307640Y-106874860D01*
X146374860Y-106807640D01*
X146427674Y-106728597D01*
X146464054Y-106640769D01*
X146466939Y-106626266D01*
X146573247Y-106713511D01*
X146721607Y-106792811D01*
X146882587Y-106841643D01*
X147008048Y-106854000D01*
X147691952Y-106854000D01*
X147817413Y-106841643D01*
X147978393Y-106792811D01*
X148126753Y-106713511D01*
X148256791Y-106606791D01*
X148363511Y-106476753D01*
X148441845Y-106330200D01*
X148811646Y-106330200D01*
X148269292Y-106872554D01*
X148256694Y-106882893D01*
X148246357Y-106895489D01*
X148215430Y-106933172D01*
X148189354Y-106981960D01*
X148184770Y-106990536D01*
X148170995Y-107035946D01*
X148165888Y-107052780D01*
X148159512Y-107117509D01*
X148161110Y-107133732D01*
X148161109Y-109021918D01*
X147976433Y-109206594D01*
X147817413Y-109158357D01*
X147691952Y-109146000D01*
X147008048Y-109146000D01*
X146882587Y-109158357D01*
X146721607Y-109207189D01*
X146573247Y-109286489D01*
X146443209Y-109393209D01*
X146336489Y-109523247D01*
X146257189Y-109671607D01*
X146208357Y-109832587D01*
X146191868Y-110000000D01*
X146208357Y-110167413D01*
X146257189Y-110328393D01*
X146336489Y-110476753D01*
X146443209Y-110606791D01*
X146573247Y-110713511D01*
X146721607Y-110792811D01*
X146882587Y-110841643D01*
X147008048Y-110854000D01*
X147691952Y-110854000D01*
X147817413Y-110841643D01*
X147978393Y-110792811D01*
X148126753Y-110713511D01*
X148256791Y-110606791D01*
X148363511Y-110476753D01*
X148442811Y-110328393D01*
X148478619Y-110210346D01*
X148478619Y-112704408D01*
X147976433Y-113206594D01*
X147817413Y-113158357D01*
X147691952Y-113146000D01*
X147008048Y-113146000D01*
X146882587Y-113158357D01*
X146721607Y-113207189D01*
X146573247Y-113286489D01*
X146466939Y-113373734D01*
X146464054Y-113359231D01*
X146427674Y-113271403D01*
X146374860Y-113192360D01*
X146307640Y-113125140D01*
X146228597Y-113072326D01*
X146140769Y-113035946D01*
X146047532Y-113017400D01*
X145952468Y-113017400D01*
X145859231Y-113035946D01*
X145771403Y-113072326D01*
X145692360Y-113125140D01*
X145625140Y-113192360D01*
X145572326Y-113271403D01*
X145535946Y-113359231D01*
X145517400Y-113452468D01*
X145517400Y-113517400D01*
X145482600Y-113517400D01*
X145482600Y-113452468D01*
X145464054Y-113359231D01*
X145427674Y-113271403D01*
X145374860Y-113192360D01*
X145307640Y-113125140D01*
X145228597Y-113072326D01*
X145140769Y-113035946D01*
X145047532Y-113017400D01*
X144952468Y-113017400D01*
X144859231Y-113035946D01*
X144771403Y-113072326D01*
X144692360Y-113125140D01*
X144625140Y-113192360D01*
X144572326Y-113271403D01*
X144535946Y-113359231D01*
X144517400Y-113452468D01*
X144517400Y-113547532D01*
X144535946Y-113640769D01*
X144572326Y-113728597D01*
X144625140Y-113807640D01*
X144692360Y-113874860D01*
X144771403Y-113927674D01*
X144859231Y-113964054D01*
X144952468Y-113982600D01*
X145017400Y-113982600D01*
X145017400Y-114047532D01*
X145035946Y-114140769D01*
X145072326Y-114228597D01*
X145125140Y-114307640D01*
X145192360Y-114374860D01*
X145271403Y-114427674D01*
X145359231Y-114464054D01*
X145452468Y-114482600D01*
X145517400Y-114482600D01*
X145517400Y-114547532D01*
X145535946Y-114640769D01*
X145572326Y-114728597D01*
X145625140Y-114807640D01*
X145692360Y-114874860D01*
X145771403Y-114927674D01*
X145859231Y-114964054D01*
X145952468Y-114982600D01*
X146047532Y-114982600D01*
X146140769Y-114964054D01*
X146228597Y-114927674D01*
X146307640Y-114874860D01*
X146374860Y-114807640D01*
X146427674Y-114728597D01*
X146464054Y-114640769D01*
X146466939Y-114626266D01*
X146573247Y-114713511D01*
X146721607Y-114792811D01*
X146882587Y-114841643D01*
X147008048Y-114854000D01*
X147691952Y-114854000D01*
X147817413Y-114841643D01*
X147978393Y-114792811D01*
X148126753Y-114713511D01*
X148256791Y-114606791D01*
X148363511Y-114476753D01*
X148442811Y-114328393D01*
X148491643Y-114167413D01*
X148508132Y-114000000D01*
X148491643Y-113832587D01*
X148443406Y-113673567D01*
X148796131Y-113320842D01*
X148796131Y-116386896D01*
X147976433Y-117206594D01*
X147817413Y-117158357D01*
X147691952Y-117146000D01*
X147008048Y-117146000D01*
X146882587Y-117158357D01*
X146721607Y-117207189D01*
X146573247Y-117286489D01*
X146466939Y-117373734D01*
X146464054Y-117359231D01*
X146427674Y-117271403D01*
X146374860Y-117192360D01*
X146307640Y-117125140D01*
X146228597Y-117072326D01*
X146140769Y-117035946D01*
X146047532Y-117017400D01*
X145982600Y-117017400D01*
X145982600Y-116952468D01*
X145964054Y-116859231D01*
X145927674Y-116771403D01*
X145874860Y-116692360D01*
X145807640Y-116625140D01*
X145728597Y-116572326D01*
X145640769Y-116535946D01*
X145547532Y-116517400D01*
X145452468Y-116517400D01*
X145359231Y-116535946D01*
X145271403Y-116572326D01*
X145192360Y-116625140D01*
X145125140Y-116692360D01*
X145072326Y-116771403D01*
X145035946Y-116859231D01*
X145017400Y-116952468D01*
X145017400Y-117047532D01*
X145035946Y-117140769D01*
X145072326Y-117228597D01*
X145125140Y-117307640D01*
X145192360Y-117374860D01*
X145271403Y-117427674D01*
X145359231Y-117464054D01*
X145452468Y-117482600D01*
X145517400Y-117482600D01*
X145517400Y-117517400D01*
X145452468Y-117517400D01*
X145359231Y-117535946D01*
X145271403Y-117572326D01*
X145192360Y-117625140D01*
X145125140Y-117692360D01*
X145072326Y-117771403D01*
X145035946Y-117859231D01*
X145017400Y-117952468D01*
X145017400Y-118047532D01*
X145035946Y-118140769D01*
X145072326Y-118228597D01*
X145125140Y-118307640D01*
X145125620Y-118308120D01*
X144132563Y-118308120D01*
X144116350Y-118306523D01*
X144100137Y-118308120D01*
X144100136Y-118308120D01*
X144051621Y-118312898D01*
X143989378Y-118331780D01*
X143971861Y-118341143D01*
X143932013Y-118362441D01*
X143913451Y-118377675D01*
X143881735Y-118403704D01*
X143871396Y-118416302D01*
X143404822Y-118882877D01*
X143392225Y-118893215D01*
X143381888Y-118905811D01*
X143350961Y-118943494D01*
X143343984Y-118956548D01*
X143320300Y-119000858D01*
X143301418Y-119063101D01*
X143298038Y-119097422D01*
X143251980Y-119143480D01*
X143199166Y-119222523D01*
X143162786Y-119310351D01*
X143144240Y-119403588D01*
X143144240Y-119498652D01*
X143162786Y-119591889D01*
X143199166Y-119679717D01*
X143251980Y-119758760D01*
X143319068Y-119825848D01*
X143313462Y-119834238D01*
X143277082Y-119922066D01*
X143276935Y-119922803D01*
X143267972Y-119921020D01*
X143172908Y-119921020D01*
X143079671Y-119939566D01*
X142991843Y-119975946D01*
X142912800Y-120028760D01*
X142845580Y-120095980D01*
X142792766Y-120175023D01*
X142756386Y-120262851D01*
X142737840Y-120356088D01*
X142737840Y-120451152D01*
X142756386Y-120544389D01*
X142792766Y-120632217D01*
X142845580Y-120711260D01*
X142855320Y-120721000D01*
X138513650Y-120721000D01*
X138457333Y-120715478D01*
X138416291Y-120703087D01*
X138378442Y-120682962D01*
X138345220Y-120655867D01*
X138317890Y-120622830D01*
X138297502Y-120585124D01*
X138284825Y-120544170D01*
X138279000Y-120488752D01*
X138279000Y-118522208D01*
X138521440Y-118522208D01*
X138521440Y-118617272D01*
X138539986Y-118710509D01*
X138576366Y-118798337D01*
X138629180Y-118877380D01*
X138696400Y-118944600D01*
X138775443Y-118997414D01*
X138863271Y-119033794D01*
X138956508Y-119052340D01*
X139051572Y-119052340D01*
X139144809Y-119033794D01*
X139232637Y-118997414D01*
X139311680Y-118944600D01*
X139378900Y-118877380D01*
X139431714Y-118798337D01*
X139468094Y-118710509D01*
X139486640Y-118617272D01*
X139486640Y-118570468D01*
X139522200Y-118570468D01*
X139522200Y-118665532D01*
X139540746Y-118758769D01*
X139577126Y-118846597D01*
X139629940Y-118925640D01*
X139697160Y-118992860D01*
X139776203Y-119045674D01*
X139864031Y-119082054D01*
X139957268Y-119100600D01*
X140052332Y-119100600D01*
X140145569Y-119082054D01*
X140233397Y-119045674D01*
X140312440Y-118992860D01*
X140379660Y-118925640D01*
X140432474Y-118846597D01*
X140468854Y-118758769D01*
X140487400Y-118665532D01*
X140487400Y-118570468D01*
X140741400Y-118570468D01*
X140741400Y-118665532D01*
X140759946Y-118758769D01*
X140796326Y-118846597D01*
X140849140Y-118925640D01*
X140916360Y-118992860D01*
X140995403Y-119045674D01*
X141083231Y-119082054D01*
X141176468Y-119100600D01*
X141271532Y-119100600D01*
X141364769Y-119082054D01*
X141452597Y-119045674D01*
X141531640Y-118992860D01*
X141598860Y-118925640D01*
X141643778Y-118858414D01*
X141659926Y-118897397D01*
X141712740Y-118976440D01*
X141779960Y-119043660D01*
X141859003Y-119096474D01*
X141946831Y-119132854D01*
X142040068Y-119151400D01*
X142135132Y-119151400D01*
X142228369Y-119132854D01*
X142316197Y-119096474D01*
X142395240Y-119043660D01*
X142462460Y-118976440D01*
X142515274Y-118897397D01*
X142551654Y-118809569D01*
X142570200Y-118716332D01*
X142570200Y-118621268D01*
X142551654Y-118528031D01*
X142515274Y-118440203D01*
X142462460Y-118361160D01*
X142395240Y-118293940D01*
X142316197Y-118241126D01*
X142228369Y-118204746D01*
X142135132Y-118186200D01*
X142040068Y-118186200D01*
X141946831Y-118204746D01*
X141859003Y-118241126D01*
X141779960Y-118293940D01*
X141712740Y-118361160D01*
X141667822Y-118428386D01*
X141651674Y-118389403D01*
X141598860Y-118310360D01*
X141531640Y-118243140D01*
X141452597Y-118190326D01*
X141364769Y-118153946D01*
X141271532Y-118135400D01*
X141176468Y-118135400D01*
X141083231Y-118153946D01*
X140995403Y-118190326D01*
X140916360Y-118243140D01*
X140849140Y-118310360D01*
X140796326Y-118389403D01*
X140759946Y-118477231D01*
X140741400Y-118570468D01*
X140487400Y-118570468D01*
X140468854Y-118477231D01*
X140432474Y-118389403D01*
X140379660Y-118310360D01*
X140312440Y-118243140D01*
X140233397Y-118190326D01*
X140145569Y-118153946D01*
X140052332Y-118135400D01*
X139957268Y-118135400D01*
X139864031Y-118153946D01*
X139776203Y-118190326D01*
X139697160Y-118243140D01*
X139629940Y-118310360D01*
X139577126Y-118389403D01*
X139540746Y-118477231D01*
X139522200Y-118570468D01*
X139486640Y-118570468D01*
X139486640Y-118522208D01*
X139468094Y-118428971D01*
X139431714Y-118341143D01*
X139378900Y-118262100D01*
X139311680Y-118194880D01*
X139232637Y-118142066D01*
X139144809Y-118105686D01*
X139051572Y-118087140D01*
X138956508Y-118087140D01*
X138863271Y-118105686D01*
X138775443Y-118142066D01*
X138696400Y-118194880D01*
X138629180Y-118262100D01*
X138576366Y-118341143D01*
X138539986Y-118428971D01*
X138521440Y-118522208D01*
X138279000Y-118522208D01*
X138279000Y-117961500D01*
X138292360Y-117974860D01*
X138371403Y-118027674D01*
X138459231Y-118064054D01*
X138552468Y-118082600D01*
X138647532Y-118082600D01*
X138740769Y-118064054D01*
X138828597Y-118027674D01*
X138907640Y-117974860D01*
X138974860Y-117907640D01*
X139027674Y-117828597D01*
X139064054Y-117740769D01*
X139082600Y-117647532D01*
X139082600Y-117552468D01*
X139064054Y-117459231D01*
X139027674Y-117371403D01*
X138974860Y-117292360D01*
X138907640Y-117225140D01*
X138828597Y-117172326D01*
X138740769Y-117135946D01*
X138647532Y-117117400D01*
X138552468Y-117117400D01*
X138459231Y-117135946D01*
X138371403Y-117172326D01*
X138292360Y-117225140D01*
X138279000Y-117238500D01*
X138279000Y-116398768D01*
X141269720Y-116398768D01*
X141269720Y-116493832D01*
X141288266Y-116587069D01*
X141324646Y-116674897D01*
X141377460Y-116753940D01*
X141444680Y-116821160D01*
X141523723Y-116873974D01*
X141611551Y-116910354D01*
X141704788Y-116928900D01*
X141799852Y-116928900D01*
X141893089Y-116910354D01*
X141980917Y-116873974D01*
X142059960Y-116821160D01*
X142127180Y-116753940D01*
X142179994Y-116674897D01*
X142216374Y-116587069D01*
X142234920Y-116493832D01*
X142234920Y-116414008D01*
X142499069Y-116414008D01*
X142499069Y-116509072D01*
X142517615Y-116602309D01*
X142553995Y-116690137D01*
X142606809Y-116769180D01*
X142674029Y-116836400D01*
X142753072Y-116889214D01*
X142840900Y-116925594D01*
X142934137Y-116944140D01*
X143029201Y-116944140D01*
X143122438Y-116925594D01*
X143210266Y-116889214D01*
X143289309Y-116836400D01*
X143356529Y-116769180D01*
X143409343Y-116690137D01*
X143445723Y-116602309D01*
X143464269Y-116509072D01*
X143464269Y-116414008D01*
X143445723Y-116320771D01*
X143409343Y-116232943D01*
X143356529Y-116153900D01*
X143289309Y-116086680D01*
X143210266Y-116033866D01*
X143122438Y-115997486D01*
X143029201Y-115978940D01*
X142934137Y-115978940D01*
X142840900Y-115997486D01*
X142753072Y-116033866D01*
X142674029Y-116086680D01*
X142606809Y-116153900D01*
X142553995Y-116232943D01*
X142517615Y-116320771D01*
X142499069Y-116414008D01*
X142234920Y-116414008D01*
X142234920Y-116398768D01*
X142216374Y-116305531D01*
X142179994Y-116217703D01*
X142127180Y-116138660D01*
X142059960Y-116071440D01*
X141980917Y-116018626D01*
X141893089Y-115982246D01*
X141799852Y-115963700D01*
X141704788Y-115963700D01*
X141611551Y-115982246D01*
X141523723Y-116018626D01*
X141444680Y-116071440D01*
X141377460Y-116138660D01*
X141324646Y-116217703D01*
X141288266Y-116305531D01*
X141269720Y-116398768D01*
X138279000Y-116398768D01*
X138279000Y-115254000D01*
X141000000Y-115254000D01*
X141049553Y-115249119D01*
X141097202Y-115234665D01*
X141141115Y-115211193D01*
X141179605Y-115179605D01*
X141211193Y-115141115D01*
X141234665Y-115097202D01*
X141249119Y-115049553D01*
X141254000Y-115000000D01*
X141254000Y-111417721D01*
X141280940Y-111458040D01*
X141348160Y-111525260D01*
X141427203Y-111578074D01*
X141515031Y-111614454D01*
X141608268Y-111633000D01*
X141703332Y-111633000D01*
X141796569Y-111614454D01*
X141884397Y-111578074D01*
X141963440Y-111525260D01*
X142030660Y-111458040D01*
X142083474Y-111378997D01*
X142119854Y-111291169D01*
X142138400Y-111197932D01*
X142138400Y-111163090D01*
X142185923Y-111163090D01*
X142279160Y-111144544D01*
X142366988Y-111108164D01*
X142446031Y-111055350D01*
X142513251Y-110988130D01*
X142566065Y-110909087D01*
X142602445Y-110821259D01*
X142620991Y-110728022D01*
X142620991Y-110632958D01*
X142602445Y-110539721D01*
X142566065Y-110451893D01*
X142513251Y-110372850D01*
X142446031Y-110305630D01*
X142366988Y-110252816D01*
X142279160Y-110216436D01*
X142185923Y-110197890D01*
X142090859Y-110197890D01*
X141997622Y-110216436D01*
X141909794Y-110252816D01*
X141830751Y-110305630D01*
X141763531Y-110372850D01*
X141710717Y-110451893D01*
X141674337Y-110539721D01*
X141655791Y-110632958D01*
X141655791Y-110667800D01*
X141608268Y-110667800D01*
X141515031Y-110686346D01*
X141427203Y-110722726D01*
X141348160Y-110775540D01*
X141280940Y-110842760D01*
X141254000Y-110883079D01*
X141254000Y-109452468D01*
X144017400Y-109452468D01*
X144017400Y-109547532D01*
X144035946Y-109640769D01*
X144072326Y-109728597D01*
X144125140Y-109807640D01*
X144192360Y-109874860D01*
X144271403Y-109927674D01*
X144359231Y-109964054D01*
X144452468Y-109982600D01*
X144517400Y-109982600D01*
X144517400Y-110017400D01*
X144452468Y-110017400D01*
X144359231Y-110035946D01*
X144271403Y-110072326D01*
X144192360Y-110125140D01*
X144125140Y-110192360D01*
X144072326Y-110271403D01*
X144035946Y-110359231D01*
X144017400Y-110452468D01*
X144017400Y-110547532D01*
X144035946Y-110640769D01*
X144072326Y-110728597D01*
X144125140Y-110807640D01*
X144192360Y-110874860D01*
X144271403Y-110927674D01*
X144359231Y-110964054D01*
X144452468Y-110982600D01*
X144547532Y-110982600D01*
X144640769Y-110964054D01*
X144728597Y-110927674D01*
X144807640Y-110874860D01*
X144874860Y-110807640D01*
X144927674Y-110728597D01*
X144964054Y-110640769D01*
X144982600Y-110547532D01*
X144982600Y-110482600D01*
X145017400Y-110482600D01*
X145017400Y-110547532D01*
X145035946Y-110640769D01*
X145072326Y-110728597D01*
X145125140Y-110807640D01*
X145192360Y-110874860D01*
X145271403Y-110927674D01*
X145359231Y-110964054D01*
X145452468Y-110982600D01*
X145547532Y-110982600D01*
X145640769Y-110964054D01*
X145728597Y-110927674D01*
X145807640Y-110874860D01*
X145874860Y-110807640D01*
X145927674Y-110728597D01*
X145964054Y-110640769D01*
X145982600Y-110547532D01*
X145982600Y-110452468D01*
X145964054Y-110359231D01*
X145927674Y-110271403D01*
X145874860Y-110192360D01*
X145807640Y-110125140D01*
X145728597Y-110072326D01*
X145640769Y-110035946D01*
X145547532Y-110017400D01*
X145482600Y-110017400D01*
X145482600Y-109982600D01*
X145547532Y-109982600D01*
X145640769Y-109964054D01*
X145728597Y-109927674D01*
X145807640Y-109874860D01*
X145874860Y-109807640D01*
X145927674Y-109728597D01*
X145964054Y-109640769D01*
X145982600Y-109547532D01*
X145982600Y-109452468D01*
X145964054Y-109359231D01*
X145927674Y-109271403D01*
X145874860Y-109192360D01*
X145807640Y-109125140D01*
X145728597Y-109072326D01*
X145640769Y-109035946D01*
X145547532Y-109017400D01*
X145452468Y-109017400D01*
X145359231Y-109035946D01*
X145271403Y-109072326D01*
X145192360Y-109125140D01*
X145125140Y-109192360D01*
X145072326Y-109271403D01*
X145035946Y-109359231D01*
X145017400Y-109452468D01*
X145017400Y-109517400D01*
X144982600Y-109517400D01*
X144982600Y-109452468D01*
X144964054Y-109359231D01*
X144927674Y-109271403D01*
X144874860Y-109192360D01*
X144807640Y-109125140D01*
X144728597Y-109072326D01*
X144640769Y-109035946D01*
X144547532Y-109017400D01*
X144452468Y-109017400D01*
X144359231Y-109035946D01*
X144271403Y-109072326D01*
X144192360Y-109125140D01*
X144125140Y-109192360D01*
X144072326Y-109271403D01*
X144035946Y-109359231D01*
X144017400Y-109452468D01*
X141254000Y-109452468D01*
X141254000Y-107466989D01*
X141287497Y-107453114D01*
X141366540Y-107400300D01*
X141433760Y-107333080D01*
X141486574Y-107254037D01*
X141491531Y-107242068D01*
X142049500Y-107242068D01*
X142049500Y-107337132D01*
X142068046Y-107430369D01*
X142104426Y-107518197D01*
X142157240Y-107597240D01*
X142224460Y-107664460D01*
X142303503Y-107717274D01*
X142391331Y-107753654D01*
X142484568Y-107772200D01*
X142579632Y-107772200D01*
X142672869Y-107753654D01*
X142760697Y-107717274D01*
X142839740Y-107664460D01*
X142906960Y-107597240D01*
X142959774Y-107518197D01*
X142996154Y-107430369D01*
X143014700Y-107337132D01*
X143014700Y-107242068D01*
X142996154Y-107148831D01*
X142959774Y-107061003D01*
X142906960Y-106981960D01*
X142839740Y-106914740D01*
X142760697Y-106861926D01*
X142672869Y-106825546D01*
X142579632Y-106807000D01*
X142484568Y-106807000D01*
X142391331Y-106825546D01*
X142303503Y-106861926D01*
X142224460Y-106914740D01*
X142157240Y-106981960D01*
X142104426Y-107061003D01*
X142068046Y-107148831D01*
X142049500Y-107242068D01*
X141491531Y-107242068D01*
X141522954Y-107166209D01*
X141541500Y-107072972D01*
X141541500Y-106977908D01*
X141522954Y-106884671D01*
X141486574Y-106796843D01*
X141433760Y-106717800D01*
X141366540Y-106650580D01*
X141287497Y-106597766D01*
X141254000Y-106583891D01*
X141254000Y-105114062D01*
X141515208Y-104881877D01*
X141985979Y-104881877D01*
X141985979Y-104976941D01*
X142004525Y-105070178D01*
X142040905Y-105158006D01*
X142093719Y-105237049D01*
X142160939Y-105304269D01*
X142239982Y-105357083D01*
X142327810Y-105393463D01*
X142421047Y-105412009D01*
X142516111Y-105412009D01*
X142609348Y-105393463D01*
X142697176Y-105357083D01*
X142776219Y-105304269D01*
X142843439Y-105237049D01*
X142896253Y-105158006D01*
X142932633Y-105070178D01*
X142951179Y-104976941D01*
X142951179Y-104881877D01*
X142932633Y-104788640D01*
X142896253Y-104700812D01*
X142843439Y-104621769D01*
X142776219Y-104554549D01*
X142697176Y-104501735D01*
X142609348Y-104465355D01*
X142516111Y-104446809D01*
X142421047Y-104446809D01*
X142327810Y-104465355D01*
X142239982Y-104501735D01*
X142160939Y-104554549D01*
X142093719Y-104621769D01*
X142040905Y-104700812D01*
X142004525Y-104788640D01*
X141985979Y-104881877D01*
X141515208Y-104881877D01*
X144757320Y-102000000D01*
X146191868Y-102000000D01*
X146208357Y-102167413D01*
X146257189Y-102328393D01*
X146336489Y-102476753D01*
X146443209Y-102606791D01*
X146573247Y-102713511D01*
X146721607Y-102792811D01*
X146882587Y-102841643D01*
X147008048Y-102854000D01*
X147691952Y-102854000D01*
X147817413Y-102841643D01*
X147978393Y-102792811D01*
X148126753Y-102713511D01*
X148256791Y-102606791D01*
X148363511Y-102476753D01*
X148442811Y-102328393D01*
X148491643Y-102167413D01*
X148508132Y-102000000D01*
X148491643Y-101832587D01*
X148442811Y-101671607D01*
X148363511Y-101523247D01*
X148256791Y-101393209D01*
X148126753Y-101286489D01*
X147978393Y-101207189D01*
X147817413Y-101158357D01*
X147691952Y-101146000D01*
X147008048Y-101146000D01*
X146882587Y-101158357D01*
X146721607Y-101207189D01*
X146573247Y-101286489D01*
X146443209Y-101393209D01*
X146336489Y-101523247D01*
X146257189Y-101671607D01*
X146208357Y-101832587D01*
X146191868Y-102000000D01*
X144757320Y-102000000D01*
X145668748Y-101189842D01*
X145711193Y-101141115D01*
X145734665Y-101097202D01*
X145741036Y-101076200D01*
X148860000Y-101076200D01*
X148874866Y-101074736D01*
X148889160Y-101070400D01*
X148902334Y-101063358D01*
X148913882Y-101053882D01*
X148923358Y-101042334D01*
X148930400Y-101029160D01*
X148934736Y-101014866D01*
X148936200Y-101000000D01*
X148936200Y-99576200D01*
X152057271Y-99576200D01*
X152057271Y-99745000D01*
X152057271Y-99745000D01*
G37*
X152057271Y-99745000D02*
X152062175Y-99794793D01*
X152076699Y-99842672D01*
X152100285Y-99886798D01*
X152132026Y-99925474D01*
X152170702Y-99957215D01*
X152214828Y-99980801D01*
X152262707Y-99995325D01*
X152312500Y-100000229D01*
X154547500Y-100000229D01*
X154597293Y-99995325D01*
X154645172Y-99980801D01*
X154689298Y-99957215D01*
X154727974Y-99925474D01*
X154759715Y-99886798D01*
X154783301Y-99842672D01*
X154797825Y-99794793D01*
X154802729Y-99745000D01*
X154802729Y-99576200D01*
X154923800Y-99576200D01*
X154923800Y-100544800D01*
X154877728Y-100544800D01*
X154877728Y-100380000D01*
X154872824Y-100330207D01*
X154858300Y-100282328D01*
X154834714Y-100238203D01*
X154802973Y-100199527D01*
X154764297Y-100167786D01*
X154720172Y-100144200D01*
X154672293Y-100129676D01*
X154622500Y-100124772D01*
X154217500Y-100124772D01*
X154167707Y-100129676D01*
X154119828Y-100144200D01*
X154075703Y-100167786D01*
X154037027Y-100199527D01*
X154005286Y-100238203D01*
X153981700Y-100282328D01*
X153967176Y-100330207D01*
X153962272Y-100380000D01*
X153962272Y-101370000D01*
X153967176Y-101419793D01*
X153981700Y-101467672D01*
X154005286Y-101511797D01*
X154037027Y-101550473D01*
X154075703Y-101582214D01*
X154119828Y-101605800D01*
X154167707Y-101620324D01*
X154217500Y-101625228D01*
X154286158Y-101625228D01*
X154244761Y-101687183D01*
X154194979Y-101807369D01*
X154169600Y-101934956D01*
X154169600Y-102065044D01*
X154194979Y-102192631D01*
X154244761Y-102312817D01*
X154317034Y-102420980D01*
X154409020Y-102512966D01*
X154495382Y-102570672D01*
X154487034Y-102579020D01*
X154414761Y-102687183D01*
X154364979Y-102807369D01*
X154339600Y-102934956D01*
X154339600Y-103065044D01*
X154364979Y-103192631D01*
X154414761Y-103312817D01*
X154487034Y-103420980D01*
X154579020Y-103512966D01*
X154687183Y-103585239D01*
X154807369Y-103635021D01*
X154923800Y-103658181D01*
X154923800Y-104416620D01*
X154891330Y-104384150D01*
X154880992Y-104371553D01*
X154859860Y-104354210D01*
X154830713Y-104330289D01*
X154773349Y-104299629D01*
X154773342Y-104299627D01*
X154711106Y-104280747D01*
X154705629Y-104280208D01*
X154646376Y-104274371D01*
X154630153Y-104275969D01*
X150569839Y-104275967D01*
X150553623Y-104274370D01*
X150488893Y-104280745D01*
X150426650Y-104299627D01*
X150369286Y-104330288D01*
X150331602Y-104361215D01*
X150319008Y-104371551D01*
X150308674Y-104384143D01*
X149023018Y-105669800D01*
X148441845Y-105669800D01*
X148363511Y-105523247D01*
X148256791Y-105393209D01*
X148126753Y-105286489D01*
X147978393Y-105207189D01*
X147817413Y-105158357D01*
X147691952Y-105146000D01*
X147008048Y-105146000D01*
X146882587Y-105158357D01*
X146721607Y-105207189D01*
X146573247Y-105286489D01*
X146466939Y-105373734D01*
X146464054Y-105359231D01*
X146427674Y-105271403D01*
X146374860Y-105192360D01*
X146307640Y-105125140D01*
X146228597Y-105072326D01*
X146140769Y-105035946D01*
X146047532Y-105017400D01*
X145952468Y-105017400D01*
X145859231Y-105035946D01*
X145771403Y-105072326D01*
X145692360Y-105125140D01*
X145625140Y-105192360D01*
X145572326Y-105271403D01*
X145535946Y-105359231D01*
X145517400Y-105452468D01*
X145517400Y-105517400D01*
X145482600Y-105517400D01*
X145482600Y-105452468D01*
X145464054Y-105359231D01*
X145427674Y-105271403D01*
X145374860Y-105192360D01*
X145307640Y-105125140D01*
X145228597Y-105072326D01*
X145140769Y-105035946D01*
X145047532Y-105017400D01*
X144952468Y-105017400D01*
X144859231Y-105035946D01*
X144771403Y-105072326D01*
X144692360Y-105125140D01*
X144625140Y-105192360D01*
X144572326Y-105271403D01*
X144535946Y-105359231D01*
X144517400Y-105452468D01*
X144517400Y-105547532D01*
X144535946Y-105640769D01*
X144572326Y-105728597D01*
X144625140Y-105807640D01*
X144692360Y-105874860D01*
X144771403Y-105927674D01*
X144859231Y-105964054D01*
X144952468Y-105982600D01*
X145017400Y-105982600D01*
X145017400Y-106017400D01*
X144952468Y-106017400D01*
X144859231Y-106035946D01*
X144771403Y-106072326D01*
X144692360Y-106125140D01*
X144625140Y-106192360D01*
X144572326Y-106271403D01*
X144535946Y-106359231D01*
X144517400Y-106452468D01*
X144517400Y-106547532D01*
X144535946Y-106640769D01*
X144572326Y-106728597D01*
X144625140Y-106807640D01*
X144692360Y-106874860D01*
X144771403Y-106927674D01*
X144859231Y-106964054D01*
X144952468Y-106982600D01*
X145047532Y-106982600D01*
X145140769Y-106964054D01*
X145228597Y-106927674D01*
X145307640Y-106874860D01*
X145374860Y-106807640D01*
X145427674Y-106728597D01*
X145464054Y-106640769D01*
X145482600Y-106547532D01*
X145482600Y-106482600D01*
X145517400Y-106482600D01*
X145517400Y-106547532D01*
X145535946Y-106640769D01*
X145572326Y-106728597D01*
X145625140Y-106807640D01*
X145692360Y-106874860D01*
X145771403Y-106927674D01*
X145859231Y-106964054D01*
X145952468Y-106982600D01*
X146047532Y-106982600D01*
X146140769Y-106964054D01*
X146228597Y-106927674D01*
X146307640Y-106874860D01*
X146374860Y-106807640D01*
X146427674Y-106728597D01*
X146464054Y-106640769D01*
X146466939Y-106626266D01*
X146573247Y-106713511D01*
X146721607Y-106792811D01*
X146882587Y-106841643D01*
X147008048Y-106854000D01*
X147691952Y-106854000D01*
X147817413Y-106841643D01*
X147978393Y-106792811D01*
X148126753Y-106713511D01*
X148256791Y-106606791D01*
X148363511Y-106476753D01*
X148441845Y-106330200D01*
X148811646Y-106330200D01*
X148269292Y-106872554D01*
X148256694Y-106882893D01*
X148246357Y-106895489D01*
X148215430Y-106933172D01*
X148189354Y-106981960D01*
X148184770Y-106990536D01*
X148170995Y-107035946D01*
X148165888Y-107052780D01*
X148159512Y-107117509D01*
X148161110Y-107133732D01*
X148161109Y-109021918D01*
X147976433Y-109206594D01*
X147817413Y-109158357D01*
X147691952Y-109146000D01*
X147008048Y-109146000D01*
X146882587Y-109158357D01*
X146721607Y-109207189D01*
X146573247Y-109286489D01*
X146443209Y-109393209D01*
X146336489Y-109523247D01*
X146257189Y-109671607D01*
X146208357Y-109832587D01*
X146191868Y-110000000D01*
X146208357Y-110167413D01*
X146257189Y-110328393D01*
X146336489Y-110476753D01*
X146443209Y-110606791D01*
X146573247Y-110713511D01*
X146721607Y-110792811D01*
X146882587Y-110841643D01*
X147008048Y-110854000D01*
X147691952Y-110854000D01*
X147817413Y-110841643D01*
X147978393Y-110792811D01*
X148126753Y-110713511D01*
X148256791Y-110606791D01*
X148363511Y-110476753D01*
X148442811Y-110328393D01*
X148478619Y-110210346D01*
X148478619Y-112704408D01*
X147976433Y-113206594D01*
X147817413Y-113158357D01*
X147691952Y-113146000D01*
X147008048Y-113146000D01*
X146882587Y-113158357D01*
X146721607Y-113207189D01*
X146573247Y-113286489D01*
X146466939Y-113373734D01*
X146464054Y-113359231D01*
X146427674Y-113271403D01*
X146374860Y-113192360D01*
X146307640Y-113125140D01*
X146228597Y-113072326D01*
X146140769Y-113035946D01*
X146047532Y-113017400D01*
X145952468Y-113017400D01*
X145859231Y-113035946D01*
X145771403Y-113072326D01*
X145692360Y-113125140D01*
X145625140Y-113192360D01*
X145572326Y-113271403D01*
X145535946Y-113359231D01*
X145517400Y-113452468D01*
X145517400Y-113517400D01*
X145482600Y-113517400D01*
X145482600Y-113452468D01*
X145464054Y-113359231D01*
X145427674Y-113271403D01*
X145374860Y-113192360D01*
X145307640Y-113125140D01*
X145228597Y-113072326D01*
X145140769Y-113035946D01*
X145047532Y-113017400D01*
X144952468Y-113017400D01*
X144859231Y-113035946D01*
X144771403Y-113072326D01*
X144692360Y-113125140D01*
X144625140Y-113192360D01*
X144572326Y-113271403D01*
X144535946Y-113359231D01*
X144517400Y-113452468D01*
X144517400Y-113547532D01*
X144535946Y-113640769D01*
X144572326Y-113728597D01*
X144625140Y-113807640D01*
X144692360Y-113874860D01*
X144771403Y-113927674D01*
X144859231Y-113964054D01*
X144952468Y-113982600D01*
X145017400Y-113982600D01*
X145017400Y-114047532D01*
X145035946Y-114140769D01*
X145072326Y-114228597D01*
X145125140Y-114307640D01*
X145192360Y-114374860D01*
X145271403Y-114427674D01*
X145359231Y-114464054D01*
X145452468Y-114482600D01*
X145517400Y-114482600D01*
X145517400Y-114547532D01*
X145535946Y-114640769D01*
X145572326Y-114728597D01*
X145625140Y-114807640D01*
X145692360Y-114874860D01*
X145771403Y-114927674D01*
X145859231Y-114964054D01*
X145952468Y-114982600D01*
X146047532Y-114982600D01*
X146140769Y-114964054D01*
X146228597Y-114927674D01*
X146307640Y-114874860D01*
X146374860Y-114807640D01*
X146427674Y-114728597D01*
X146464054Y-114640769D01*
X146466939Y-114626266D01*
X146573247Y-114713511D01*
X146721607Y-114792811D01*
X146882587Y-114841643D01*
X147008048Y-114854000D01*
X147691952Y-114854000D01*
X147817413Y-114841643D01*
X147978393Y-114792811D01*
X148126753Y-114713511D01*
X148256791Y-114606791D01*
X148363511Y-114476753D01*
X148442811Y-114328393D01*
X148491643Y-114167413D01*
X148508132Y-114000000D01*
X148491643Y-113832587D01*
X148443406Y-113673567D01*
X148796131Y-113320842D01*
X148796131Y-116386896D01*
X147976433Y-117206594D01*
X147817413Y-117158357D01*
X147691952Y-117146000D01*
X147008048Y-117146000D01*
X146882587Y-117158357D01*
X146721607Y-117207189D01*
X146573247Y-117286489D01*
X146466939Y-117373734D01*
X146464054Y-117359231D01*
X146427674Y-117271403D01*
X146374860Y-117192360D01*
X146307640Y-117125140D01*
X146228597Y-117072326D01*
X146140769Y-117035946D01*
X146047532Y-117017400D01*
X145982600Y-117017400D01*
X145982600Y-116952468D01*
X145964054Y-116859231D01*
X145927674Y-116771403D01*
X145874860Y-116692360D01*
X145807640Y-116625140D01*
X145728597Y-116572326D01*
X145640769Y-116535946D01*
X145547532Y-116517400D01*
X145452468Y-116517400D01*
X145359231Y-116535946D01*
X145271403Y-116572326D01*
X145192360Y-116625140D01*
X145125140Y-116692360D01*
X145072326Y-116771403D01*
X145035946Y-116859231D01*
X145017400Y-116952468D01*
X145017400Y-117047532D01*
X145035946Y-117140769D01*
X145072326Y-117228597D01*
X145125140Y-117307640D01*
X145192360Y-117374860D01*
X145271403Y-117427674D01*
X145359231Y-117464054D01*
X145452468Y-117482600D01*
X145517400Y-117482600D01*
X145517400Y-117517400D01*
X145452468Y-117517400D01*
X145359231Y-117535946D01*
X145271403Y-117572326D01*
X145192360Y-117625140D01*
X145125140Y-117692360D01*
X145072326Y-117771403D01*
X145035946Y-117859231D01*
X145017400Y-117952468D01*
X145017400Y-118047532D01*
X145035946Y-118140769D01*
X145072326Y-118228597D01*
X145125140Y-118307640D01*
X145125620Y-118308120D01*
X144132563Y-118308120D01*
X144116350Y-118306523D01*
X144100137Y-118308120D01*
X144100136Y-118308120D01*
X144051621Y-118312898D01*
X143989378Y-118331780D01*
X143971861Y-118341143D01*
X143932013Y-118362441D01*
X143913451Y-118377675D01*
X143881735Y-118403704D01*
X143871396Y-118416302D01*
X143404822Y-118882877D01*
X143392225Y-118893215D01*
X143381888Y-118905811D01*
X143350961Y-118943494D01*
X143343984Y-118956548D01*
X143320300Y-119000858D01*
X143301418Y-119063101D01*
X143298038Y-119097422D01*
X143251980Y-119143480D01*
X143199166Y-119222523D01*
X143162786Y-119310351D01*
X143144240Y-119403588D01*
X143144240Y-119498652D01*
X143162786Y-119591889D01*
X143199166Y-119679717D01*
X143251980Y-119758760D01*
X143319068Y-119825848D01*
X143313462Y-119834238D01*
X143277082Y-119922066D01*
X143276935Y-119922803D01*
X143267972Y-119921020D01*
X143172908Y-119921020D01*
X143079671Y-119939566D01*
X142991843Y-119975946D01*
X142912800Y-120028760D01*
X142845580Y-120095980D01*
X142792766Y-120175023D01*
X142756386Y-120262851D01*
X142737840Y-120356088D01*
X142737840Y-120451152D01*
X142756386Y-120544389D01*
X142792766Y-120632217D01*
X142845580Y-120711260D01*
X142855320Y-120721000D01*
X138513650Y-120721000D01*
X138457333Y-120715478D01*
X138416291Y-120703087D01*
X138378442Y-120682962D01*
X138345220Y-120655867D01*
X138317890Y-120622830D01*
X138297502Y-120585124D01*
X138284825Y-120544170D01*
X138279000Y-120488752D01*
X138279000Y-118522208D01*
X138521440Y-118522208D01*
X138521440Y-118617272D01*
X138539986Y-118710509D01*
X138576366Y-118798337D01*
X138629180Y-118877380D01*
X138696400Y-118944600D01*
X138775443Y-118997414D01*
X138863271Y-119033794D01*
X138956508Y-119052340D01*
X139051572Y-119052340D01*
X139144809Y-119033794D01*
X139232637Y-118997414D01*
X139311680Y-118944600D01*
X139378900Y-118877380D01*
X139431714Y-118798337D01*
X139468094Y-118710509D01*
X139486640Y-118617272D01*
X139486640Y-118570468D01*
X139522200Y-118570468D01*
X139522200Y-118665532D01*
X139540746Y-118758769D01*
X139577126Y-118846597D01*
X139629940Y-118925640D01*
X139697160Y-118992860D01*
X139776203Y-119045674D01*
X139864031Y-119082054D01*
X139957268Y-119100600D01*
X140052332Y-119100600D01*
X140145569Y-119082054D01*
X140233397Y-119045674D01*
X140312440Y-118992860D01*
X140379660Y-118925640D01*
X140432474Y-118846597D01*
X140468854Y-118758769D01*
X140487400Y-118665532D01*
X140487400Y-118570468D01*
X140741400Y-118570468D01*
X140741400Y-118665532D01*
X140759946Y-118758769D01*
X140796326Y-118846597D01*
X140849140Y-118925640D01*
X140916360Y-118992860D01*
X140995403Y-119045674D01*
X141083231Y-119082054D01*
X141176468Y-119100600D01*
X141271532Y-119100600D01*
X141364769Y-119082054D01*
X141452597Y-119045674D01*
X141531640Y-118992860D01*
X141598860Y-118925640D01*
X141643778Y-118858414D01*
X141659926Y-118897397D01*
X141712740Y-118976440D01*
X141779960Y-119043660D01*
X141859003Y-119096474D01*
X141946831Y-119132854D01*
X142040068Y-119151400D01*
X142135132Y-119151400D01*
X142228369Y-119132854D01*
X142316197Y-119096474D01*
X142395240Y-119043660D01*
X142462460Y-118976440D01*
X142515274Y-118897397D01*
X142551654Y-118809569D01*
X142570200Y-118716332D01*
X142570200Y-118621268D01*
X142551654Y-118528031D01*
X142515274Y-118440203D01*
X142462460Y-118361160D01*
X142395240Y-118293940D01*
X142316197Y-118241126D01*
X142228369Y-118204746D01*
X142135132Y-118186200D01*
X142040068Y-118186200D01*
X141946831Y-118204746D01*
X141859003Y-118241126D01*
X141779960Y-118293940D01*
X141712740Y-118361160D01*
X141667822Y-118428386D01*
X141651674Y-118389403D01*
X141598860Y-118310360D01*
X141531640Y-118243140D01*
X141452597Y-118190326D01*
X141364769Y-118153946D01*
X141271532Y-118135400D01*
X141176468Y-118135400D01*
X141083231Y-118153946D01*
X140995403Y-118190326D01*
X140916360Y-118243140D01*
X140849140Y-118310360D01*
X140796326Y-118389403D01*
X140759946Y-118477231D01*
X140741400Y-118570468D01*
X140487400Y-118570468D01*
X140468854Y-118477231D01*
X140432474Y-118389403D01*
X140379660Y-118310360D01*
X140312440Y-118243140D01*
X140233397Y-118190326D01*
X140145569Y-118153946D01*
X140052332Y-118135400D01*
X139957268Y-118135400D01*
X139864031Y-118153946D01*
X139776203Y-118190326D01*
X139697160Y-118243140D01*
X139629940Y-118310360D01*
X139577126Y-118389403D01*
X139540746Y-118477231D01*
X139522200Y-118570468D01*
X139486640Y-118570468D01*
X139486640Y-118522208D01*
X139468094Y-118428971D01*
X139431714Y-118341143D01*
X139378900Y-118262100D01*
X139311680Y-118194880D01*
X139232637Y-118142066D01*
X139144809Y-118105686D01*
X139051572Y-118087140D01*
X138956508Y-118087140D01*
X138863271Y-118105686D01*
X138775443Y-118142066D01*
X138696400Y-118194880D01*
X138629180Y-118262100D01*
X138576366Y-118341143D01*
X138539986Y-118428971D01*
X138521440Y-118522208D01*
X138279000Y-118522208D01*
X138279000Y-117961500D01*
X138292360Y-117974860D01*
X138371403Y-118027674D01*
X138459231Y-118064054D01*
X138552468Y-118082600D01*
X138647532Y-118082600D01*
X138740769Y-118064054D01*
X138828597Y-118027674D01*
X138907640Y-117974860D01*
X138974860Y-117907640D01*
X139027674Y-117828597D01*
X139064054Y-117740769D01*
X139082600Y-117647532D01*
X139082600Y-117552468D01*
X139064054Y-117459231D01*
X139027674Y-117371403D01*
X138974860Y-117292360D01*
X138907640Y-117225140D01*
X138828597Y-117172326D01*
X138740769Y-117135946D01*
X138647532Y-117117400D01*
X138552468Y-117117400D01*
X138459231Y-117135946D01*
X138371403Y-117172326D01*
X138292360Y-117225140D01*
X138279000Y-117238500D01*
X138279000Y-116398768D01*
X141269720Y-116398768D01*
X141269720Y-116493832D01*
X141288266Y-116587069D01*
X141324646Y-116674897D01*
X141377460Y-116753940D01*
X141444680Y-116821160D01*
X141523723Y-116873974D01*
X141611551Y-116910354D01*
X141704788Y-116928900D01*
X141799852Y-116928900D01*
X141893089Y-116910354D01*
X141980917Y-116873974D01*
X142059960Y-116821160D01*
X142127180Y-116753940D01*
X142179994Y-116674897D01*
X142216374Y-116587069D01*
X142234920Y-116493832D01*
X142234920Y-116414008D01*
X142499069Y-116414008D01*
X142499069Y-116509072D01*
X142517615Y-116602309D01*
X142553995Y-116690137D01*
X142606809Y-116769180D01*
X142674029Y-116836400D01*
X142753072Y-116889214D01*
X142840900Y-116925594D01*
X142934137Y-116944140D01*
X143029201Y-116944140D01*
X143122438Y-116925594D01*
X143210266Y-116889214D01*
X143289309Y-116836400D01*
X143356529Y-116769180D01*
X143409343Y-116690137D01*
X143445723Y-116602309D01*
X143464269Y-116509072D01*
X143464269Y-116414008D01*
X143445723Y-116320771D01*
X143409343Y-116232943D01*
X143356529Y-116153900D01*
X143289309Y-116086680D01*
X143210266Y-116033866D01*
X143122438Y-115997486D01*
X143029201Y-115978940D01*
X142934137Y-115978940D01*
X142840900Y-115997486D01*
X142753072Y-116033866D01*
X142674029Y-116086680D01*
X142606809Y-116153900D01*
X142553995Y-116232943D01*
X142517615Y-116320771D01*
X142499069Y-116414008D01*
X142234920Y-116414008D01*
X142234920Y-116398768D01*
X142216374Y-116305531D01*
X142179994Y-116217703D01*
X142127180Y-116138660D01*
X142059960Y-116071440D01*
X141980917Y-116018626D01*
X141893089Y-115982246D01*
X141799852Y-115963700D01*
X141704788Y-115963700D01*
X141611551Y-115982246D01*
X141523723Y-116018626D01*
X141444680Y-116071440D01*
X141377460Y-116138660D01*
X141324646Y-116217703D01*
X141288266Y-116305531D01*
X141269720Y-116398768D01*
X138279000Y-116398768D01*
X138279000Y-115254000D01*
X141000000Y-115254000D01*
X141049553Y-115249119D01*
X141097202Y-115234665D01*
X141141115Y-115211193D01*
X141179605Y-115179605D01*
X141211193Y-115141115D01*
X141234665Y-115097202D01*
X141249119Y-115049553D01*
X141254000Y-115000000D01*
X141254000Y-111417721D01*
X141280940Y-111458040D01*
X141348160Y-111525260D01*
X141427203Y-111578074D01*
X141515031Y-111614454D01*
X141608268Y-111633000D01*
X141703332Y-111633000D01*
X141796569Y-111614454D01*
X141884397Y-111578074D01*
X141963440Y-111525260D01*
X142030660Y-111458040D01*
X142083474Y-111378997D01*
X142119854Y-111291169D01*
X142138400Y-111197932D01*
X142138400Y-111163090D01*
X142185923Y-111163090D01*
X142279160Y-111144544D01*
X142366988Y-111108164D01*
X142446031Y-111055350D01*
X142513251Y-110988130D01*
X142566065Y-110909087D01*
X142602445Y-110821259D01*
X142620991Y-110728022D01*
X142620991Y-110632958D01*
X142602445Y-110539721D01*
X142566065Y-110451893D01*
X142513251Y-110372850D01*
X142446031Y-110305630D01*
X142366988Y-110252816D01*
X142279160Y-110216436D01*
X142185923Y-110197890D01*
X142090859Y-110197890D01*
X141997622Y-110216436D01*
X141909794Y-110252816D01*
X141830751Y-110305630D01*
X141763531Y-110372850D01*
X141710717Y-110451893D01*
X141674337Y-110539721D01*
X141655791Y-110632958D01*
X141655791Y-110667800D01*
X141608268Y-110667800D01*
X141515031Y-110686346D01*
X141427203Y-110722726D01*
X141348160Y-110775540D01*
X141280940Y-110842760D01*
X141254000Y-110883079D01*
X141254000Y-109452468D01*
X144017400Y-109452468D01*
X144017400Y-109547532D01*
X144035946Y-109640769D01*
X144072326Y-109728597D01*
X144125140Y-109807640D01*
X144192360Y-109874860D01*
X144271403Y-109927674D01*
X144359231Y-109964054D01*
X144452468Y-109982600D01*
X144517400Y-109982600D01*
X144517400Y-110017400D01*
X144452468Y-110017400D01*
X144359231Y-110035946D01*
X144271403Y-110072326D01*
X144192360Y-110125140D01*
X144125140Y-110192360D01*
X144072326Y-110271403D01*
X144035946Y-110359231D01*
X144017400Y-110452468D01*
X144017400Y-110547532D01*
X144035946Y-110640769D01*
X144072326Y-110728597D01*
X144125140Y-110807640D01*
X144192360Y-110874860D01*
X144271403Y-110927674D01*
X144359231Y-110964054D01*
X144452468Y-110982600D01*
X144547532Y-110982600D01*
X144640769Y-110964054D01*
X144728597Y-110927674D01*
X144807640Y-110874860D01*
X144874860Y-110807640D01*
X144927674Y-110728597D01*
X144964054Y-110640769D01*
X144982600Y-110547532D01*
X144982600Y-110482600D01*
X145017400Y-110482600D01*
X145017400Y-110547532D01*
X145035946Y-110640769D01*
X145072326Y-110728597D01*
X145125140Y-110807640D01*
X145192360Y-110874860D01*
X145271403Y-110927674D01*
X145359231Y-110964054D01*
X145452468Y-110982600D01*
X145547532Y-110982600D01*
X145640769Y-110964054D01*
X145728597Y-110927674D01*
X145807640Y-110874860D01*
X145874860Y-110807640D01*
X145927674Y-110728597D01*
X145964054Y-110640769D01*
X145982600Y-110547532D01*
X145982600Y-110452468D01*
X145964054Y-110359231D01*
X145927674Y-110271403D01*
X145874860Y-110192360D01*
X145807640Y-110125140D01*
X145728597Y-110072326D01*
X145640769Y-110035946D01*
X145547532Y-110017400D01*
X145482600Y-110017400D01*
X145482600Y-109982600D01*
X145547532Y-109982600D01*
X145640769Y-109964054D01*
X145728597Y-109927674D01*
X145807640Y-109874860D01*
X145874860Y-109807640D01*
X145927674Y-109728597D01*
X145964054Y-109640769D01*
X145982600Y-109547532D01*
X145982600Y-109452468D01*
X145964054Y-109359231D01*
X145927674Y-109271403D01*
X145874860Y-109192360D01*
X145807640Y-109125140D01*
X145728597Y-109072326D01*
X145640769Y-109035946D01*
X145547532Y-109017400D01*
X145452468Y-109017400D01*
X145359231Y-109035946D01*
X145271403Y-109072326D01*
X145192360Y-109125140D01*
X145125140Y-109192360D01*
X145072326Y-109271403D01*
X145035946Y-109359231D01*
X145017400Y-109452468D01*
X145017400Y-109517400D01*
X144982600Y-109517400D01*
X144982600Y-109452468D01*
X144964054Y-109359231D01*
X144927674Y-109271403D01*
X144874860Y-109192360D01*
X144807640Y-109125140D01*
X144728597Y-109072326D01*
X144640769Y-109035946D01*
X144547532Y-109017400D01*
X144452468Y-109017400D01*
X144359231Y-109035946D01*
X144271403Y-109072326D01*
X144192360Y-109125140D01*
X144125140Y-109192360D01*
X144072326Y-109271403D01*
X144035946Y-109359231D01*
X144017400Y-109452468D01*
X141254000Y-109452468D01*
X141254000Y-107466989D01*
X141287497Y-107453114D01*
X141366540Y-107400300D01*
X141433760Y-107333080D01*
X141486574Y-107254037D01*
X141491531Y-107242068D01*
X142049500Y-107242068D01*
X142049500Y-107337132D01*
X142068046Y-107430369D01*
X142104426Y-107518197D01*
X142157240Y-107597240D01*
X142224460Y-107664460D01*
X142303503Y-107717274D01*
X142391331Y-107753654D01*
X142484568Y-107772200D01*
X142579632Y-107772200D01*
X142672869Y-107753654D01*
X142760697Y-107717274D01*
X142839740Y-107664460D01*
X142906960Y-107597240D01*
X142959774Y-107518197D01*
X142996154Y-107430369D01*
X143014700Y-107337132D01*
X143014700Y-107242068D01*
X142996154Y-107148831D01*
X142959774Y-107061003D01*
X142906960Y-106981960D01*
X142839740Y-106914740D01*
X142760697Y-106861926D01*
X142672869Y-106825546D01*
X142579632Y-106807000D01*
X142484568Y-106807000D01*
X142391331Y-106825546D01*
X142303503Y-106861926D01*
X142224460Y-106914740D01*
X142157240Y-106981960D01*
X142104426Y-107061003D01*
X142068046Y-107148831D01*
X142049500Y-107242068D01*
X141491531Y-107242068D01*
X141522954Y-107166209D01*
X141541500Y-107072972D01*
X141541500Y-106977908D01*
X141522954Y-106884671D01*
X141486574Y-106796843D01*
X141433760Y-106717800D01*
X141366540Y-106650580D01*
X141287497Y-106597766D01*
X141254000Y-106583891D01*
X141254000Y-105114062D01*
X141515208Y-104881877D01*
X141985979Y-104881877D01*
X141985979Y-104976941D01*
X142004525Y-105070178D01*
X142040905Y-105158006D01*
X142093719Y-105237049D01*
X142160939Y-105304269D01*
X142239982Y-105357083D01*
X142327810Y-105393463D01*
X142421047Y-105412009D01*
X142516111Y-105412009D01*
X142609348Y-105393463D01*
X142697176Y-105357083D01*
X142776219Y-105304269D01*
X142843439Y-105237049D01*
X142896253Y-105158006D01*
X142932633Y-105070178D01*
X142951179Y-104976941D01*
X142951179Y-104881877D01*
X142932633Y-104788640D01*
X142896253Y-104700812D01*
X142843439Y-104621769D01*
X142776219Y-104554549D01*
X142697176Y-104501735D01*
X142609348Y-104465355D01*
X142516111Y-104446809D01*
X142421047Y-104446809D01*
X142327810Y-104465355D01*
X142239982Y-104501735D01*
X142160939Y-104554549D01*
X142093719Y-104621769D01*
X142040905Y-104700812D01*
X142004525Y-104788640D01*
X141985979Y-104881877D01*
X141515208Y-104881877D01*
X144757320Y-102000000D01*
X146191868Y-102000000D01*
X146208357Y-102167413D01*
X146257189Y-102328393D01*
X146336489Y-102476753D01*
X146443209Y-102606791D01*
X146573247Y-102713511D01*
X146721607Y-102792811D01*
X146882587Y-102841643D01*
X147008048Y-102854000D01*
X147691952Y-102854000D01*
X147817413Y-102841643D01*
X147978393Y-102792811D01*
X148126753Y-102713511D01*
X148256791Y-102606791D01*
X148363511Y-102476753D01*
X148442811Y-102328393D01*
X148491643Y-102167413D01*
X148508132Y-102000000D01*
X148491643Y-101832587D01*
X148442811Y-101671607D01*
X148363511Y-101523247D01*
X148256791Y-101393209D01*
X148126753Y-101286489D01*
X147978393Y-101207189D01*
X147817413Y-101158357D01*
X147691952Y-101146000D01*
X147008048Y-101146000D01*
X146882587Y-101158357D01*
X146721607Y-101207189D01*
X146573247Y-101286489D01*
X146443209Y-101393209D01*
X146336489Y-101523247D01*
X146257189Y-101671607D01*
X146208357Y-101832587D01*
X146191868Y-102000000D01*
X144757320Y-102000000D01*
X145668748Y-101189842D01*
X145711193Y-101141115D01*
X145734665Y-101097202D01*
X145741036Y-101076200D01*
X148860000Y-101076200D01*
X148874866Y-101074736D01*
X148889160Y-101070400D01*
X148902334Y-101063358D01*
X148913882Y-101053882D01*
X148923358Y-101042334D01*
X148930400Y-101029160D01*
X148934736Y-101014866D01*
X148936200Y-101000000D01*
X148936200Y-99576200D01*
X152057271Y-99576200D01*
X152057271Y-99745000D01*
G36*
X144405607Y-97336655D02*
G01*
X144286655Y-97455607D01*
X144193195Y-97595479D01*
X144128819Y-97750897D01*
X144096000Y-97915888D01*
X144096000Y-98084112D01*
X144128819Y-98249103D01*
X144193195Y-98404521D01*
X144286655Y-98544393D01*
X144405607Y-98663345D01*
X144545479Y-98756805D01*
X144700897Y-98821181D01*
X144865888Y-98854000D01*
X145034112Y-98854000D01*
X145199103Y-98821181D01*
X145354521Y-98756805D01*
X145423800Y-98710514D01*
X145423800Y-100965780D01*
X140949375Y-104943047D01*
X140939237Y-104954018D01*
X140931434Y-104966756D01*
X140926266Y-104980771D01*
X140923800Y-105000000D01*
X140923800Y-106560258D01*
X140918131Y-106561386D01*
X140830303Y-106597766D01*
X140751260Y-106650580D01*
X140684040Y-106717800D01*
X140631226Y-106796843D01*
X140594846Y-106884671D01*
X140576300Y-106977908D01*
X140576300Y-107072972D01*
X140594846Y-107166209D01*
X140631226Y-107254037D01*
X140684040Y-107333080D01*
X140751260Y-107400300D01*
X140830303Y-107453114D01*
X140918131Y-107489494D01*
X140923800Y-107490622D01*
X140923800Y-114923800D01*
X138279000Y-114923800D01*
X138279000Y-113846068D01*
X139115800Y-113846068D01*
X139115800Y-113941132D01*
X139134346Y-114034369D01*
X139170726Y-114122197D01*
X139223540Y-114201240D01*
X139290760Y-114268460D01*
X139369803Y-114321274D01*
X139457631Y-114357654D01*
X139550868Y-114376200D01*
X139645932Y-114376200D01*
X139739169Y-114357654D01*
X139826997Y-114321274D01*
X139906040Y-114268460D01*
X139973260Y-114201240D01*
X140026074Y-114122197D01*
X140062454Y-114034369D01*
X140081000Y-113941132D01*
X140081000Y-113846068D01*
X140062454Y-113752831D01*
X140026074Y-113665003D01*
X139973260Y-113585960D01*
X139906040Y-113518740D01*
X139826997Y-113465926D01*
X139739169Y-113429546D01*
X139645932Y-113411000D01*
X139550868Y-113411000D01*
X139457631Y-113429546D01*
X139369803Y-113465926D01*
X139290760Y-113518740D01*
X139223540Y-113585960D01*
X139170726Y-113665003D01*
X139134346Y-113752831D01*
X139115800Y-113846068D01*
X138279000Y-113846068D01*
X138279000Y-112525268D01*
X139115800Y-112525268D01*
X139115800Y-112620332D01*
X139134346Y-112713569D01*
X139170726Y-112801397D01*
X139223540Y-112880440D01*
X139290760Y-112947660D01*
X139369803Y-113000474D01*
X139457631Y-113036854D01*
X139550868Y-113055400D01*
X139645932Y-113055400D01*
X139739169Y-113036854D01*
X139826997Y-113000474D01*
X139906040Y-112947660D01*
X139973260Y-112880440D01*
X140026074Y-112801397D01*
X140062454Y-112713569D01*
X140081000Y-112620332D01*
X140081000Y-112525268D01*
X140062454Y-112432031D01*
X140026074Y-112344203D01*
X139973260Y-112265160D01*
X139906040Y-112197940D01*
X139826997Y-112145126D01*
X139739169Y-112108746D01*
X139645932Y-112090200D01*
X139550868Y-112090200D01*
X139457631Y-112108746D01*
X139369803Y-112145126D01*
X139290760Y-112197940D01*
X139223540Y-112265160D01*
X139170726Y-112344203D01*
X139134346Y-112432031D01*
X139115800Y-112525268D01*
X138279000Y-112525268D01*
X138279000Y-109985268D01*
X139115800Y-109985268D01*
X139115800Y-110080332D01*
X139134346Y-110173569D01*
X139170726Y-110261397D01*
X139223540Y-110340440D01*
X139290760Y-110407660D01*
X139369803Y-110460474D01*
X139457631Y-110496854D01*
X139550868Y-110515400D01*
X139645932Y-110515400D01*
X139739169Y-110496854D01*
X139826997Y-110460474D01*
X139906040Y-110407660D01*
X139973260Y-110340440D01*
X140026074Y-110261397D01*
X140062454Y-110173569D01*
X140081000Y-110080332D01*
X140081000Y-109985268D01*
X140062454Y-109892031D01*
X140026074Y-109804203D01*
X139973260Y-109725160D01*
X139906040Y-109657940D01*
X139826997Y-109605126D01*
X139739169Y-109568746D01*
X139645932Y-109550200D01*
X139550868Y-109550200D01*
X139457631Y-109568746D01*
X139369803Y-109605126D01*
X139290760Y-109657940D01*
X139223540Y-109725160D01*
X139170726Y-109804203D01*
X139134346Y-109892031D01*
X139115800Y-109985268D01*
X138279000Y-109985268D01*
X138279000Y-108621288D01*
X139105640Y-108621288D01*
X139105640Y-108716352D01*
X139124186Y-108809589D01*
X139160566Y-108897417D01*
X139213380Y-108976460D01*
X139280600Y-109043680D01*
X139359643Y-109096494D01*
X139447471Y-109132874D01*
X139540708Y-109151420D01*
X139635772Y-109151420D01*
X139729009Y-109132874D01*
X139816837Y-109096494D01*
X139895880Y-109043680D01*
X139963100Y-108976460D01*
X140015914Y-108897417D01*
X140052294Y-108809589D01*
X140070840Y-108716352D01*
X140070840Y-108621288D01*
X140052294Y-108528051D01*
X140015914Y-108440223D01*
X139963100Y-108361180D01*
X139895880Y-108293960D01*
X139816837Y-108241146D01*
X139729009Y-108204766D01*
X139635772Y-108186220D01*
X139540708Y-108186220D01*
X139447471Y-108204766D01*
X139359643Y-108241146D01*
X139280600Y-108293960D01*
X139213380Y-108361180D01*
X139160566Y-108440223D01*
X139124186Y-108528051D01*
X139105640Y-108621288D01*
X138279000Y-108621288D01*
X138279000Y-101857268D01*
X142189200Y-101857268D01*
X142189200Y-101952332D01*
X142207746Y-102045569D01*
X142244126Y-102133397D01*
X142296940Y-102212440D01*
X142364160Y-102279660D01*
X142443203Y-102332474D01*
X142531031Y-102368854D01*
X142624268Y-102387400D01*
X142719332Y-102387400D01*
X142812569Y-102368854D01*
X142900397Y-102332474D01*
X142979440Y-102279660D01*
X143046660Y-102212440D01*
X143099474Y-102133397D01*
X143135854Y-102045569D01*
X143154400Y-101952332D01*
X143154400Y-101857268D01*
X143135854Y-101764031D01*
X143099474Y-101676203D01*
X143046660Y-101597160D01*
X142979440Y-101529940D01*
X142900397Y-101477126D01*
X142812569Y-101440746D01*
X142719332Y-101422200D01*
X142624268Y-101422200D01*
X142531031Y-101440746D01*
X142443203Y-101477126D01*
X142364160Y-101529940D01*
X142296940Y-101597160D01*
X142244126Y-101676203D01*
X142207746Y-101764031D01*
X142189200Y-101857268D01*
X138279000Y-101857268D01*
X138279000Y-98707668D01*
X142240000Y-98707668D01*
X142240000Y-98802732D01*
X142258546Y-98895969D01*
X142294926Y-98983797D01*
X142347740Y-99062840D01*
X142414960Y-99130060D01*
X142494003Y-99182874D01*
X142581831Y-99219254D01*
X142675068Y-99237800D01*
X142770132Y-99237800D01*
X142863369Y-99219254D01*
X142951197Y-99182874D01*
X143030240Y-99130060D01*
X143097460Y-99062840D01*
X143150274Y-98983797D01*
X143186654Y-98895969D01*
X143205200Y-98802732D01*
X143205200Y-98707668D01*
X143186654Y-98614431D01*
X143150274Y-98526603D01*
X143097460Y-98447560D01*
X143030240Y-98380340D01*
X142951197Y-98327526D01*
X142863369Y-98291146D01*
X142770132Y-98272600D01*
X142675068Y-98272600D01*
X142581831Y-98291146D01*
X142494003Y-98327526D01*
X142414960Y-98380340D01*
X142347740Y-98447560D01*
X142294926Y-98526603D01*
X142258546Y-98614431D01*
X142240000Y-98707668D01*
X138279000Y-98707668D01*
X138279000Y-97513649D01*
X138284522Y-97457333D01*
X138296913Y-97416291D01*
X138317038Y-97378442D01*
X138344133Y-97345220D01*
X138377171Y-97317889D01*
X138414875Y-97297502D01*
X138455830Y-97284825D01*
X138511248Y-97279000D01*
X144491893Y-97279000D01*
X144405607Y-97336655D01*
X144405607Y-97336655D01*
G37*
X144405607Y-97336655D02*
X144286655Y-97455607D01*
X144193195Y-97595479D01*
X144128819Y-97750897D01*
X144096000Y-97915888D01*
X144096000Y-98084112D01*
X144128819Y-98249103D01*
X144193195Y-98404521D01*
X144286655Y-98544393D01*
X144405607Y-98663345D01*
X144545479Y-98756805D01*
X144700897Y-98821181D01*
X144865888Y-98854000D01*
X145034112Y-98854000D01*
X145199103Y-98821181D01*
X145354521Y-98756805D01*
X145423800Y-98710514D01*
X145423800Y-100965780D01*
X140949375Y-104943047D01*
X140939237Y-104954018D01*
X140931434Y-104966756D01*
X140926266Y-104980771D01*
X140923800Y-105000000D01*
X140923800Y-106560258D01*
X140918131Y-106561386D01*
X140830303Y-106597766D01*
X140751260Y-106650580D01*
X140684040Y-106717800D01*
X140631226Y-106796843D01*
X140594846Y-106884671D01*
X140576300Y-106977908D01*
X140576300Y-107072972D01*
X140594846Y-107166209D01*
X140631226Y-107254037D01*
X140684040Y-107333080D01*
X140751260Y-107400300D01*
X140830303Y-107453114D01*
X140918131Y-107489494D01*
X140923800Y-107490622D01*
X140923800Y-114923800D01*
X138279000Y-114923800D01*
X138279000Y-113846068D01*
X139115800Y-113846068D01*
X139115800Y-113941132D01*
X139134346Y-114034369D01*
X139170726Y-114122197D01*
X139223540Y-114201240D01*
X139290760Y-114268460D01*
X139369803Y-114321274D01*
X139457631Y-114357654D01*
X139550868Y-114376200D01*
X139645932Y-114376200D01*
X139739169Y-114357654D01*
X139826997Y-114321274D01*
X139906040Y-114268460D01*
X139973260Y-114201240D01*
X140026074Y-114122197D01*
X140062454Y-114034369D01*
X140081000Y-113941132D01*
X140081000Y-113846068D01*
X140062454Y-113752831D01*
X140026074Y-113665003D01*
X139973260Y-113585960D01*
X139906040Y-113518740D01*
X139826997Y-113465926D01*
X139739169Y-113429546D01*
X139645932Y-113411000D01*
X139550868Y-113411000D01*
X139457631Y-113429546D01*
X139369803Y-113465926D01*
X139290760Y-113518740D01*
X139223540Y-113585960D01*
X139170726Y-113665003D01*
X139134346Y-113752831D01*
X139115800Y-113846068D01*
X138279000Y-113846068D01*
X138279000Y-112525268D01*
X139115800Y-112525268D01*
X139115800Y-112620332D01*
X139134346Y-112713569D01*
X139170726Y-112801397D01*
X139223540Y-112880440D01*
X139290760Y-112947660D01*
X139369803Y-113000474D01*
X139457631Y-113036854D01*
X139550868Y-113055400D01*
X139645932Y-113055400D01*
X139739169Y-113036854D01*
X139826997Y-113000474D01*
X139906040Y-112947660D01*
X139973260Y-112880440D01*
X140026074Y-112801397D01*
X140062454Y-112713569D01*
X140081000Y-112620332D01*
X140081000Y-112525268D01*
X140062454Y-112432031D01*
X140026074Y-112344203D01*
X139973260Y-112265160D01*
X139906040Y-112197940D01*
X139826997Y-112145126D01*
X139739169Y-112108746D01*
X139645932Y-112090200D01*
X139550868Y-112090200D01*
X139457631Y-112108746D01*
X139369803Y-112145126D01*
X139290760Y-112197940D01*
X139223540Y-112265160D01*
X139170726Y-112344203D01*
X139134346Y-112432031D01*
X139115800Y-112525268D01*
X138279000Y-112525268D01*
X138279000Y-109985268D01*
X139115800Y-109985268D01*
X139115800Y-110080332D01*
X139134346Y-110173569D01*
X139170726Y-110261397D01*
X139223540Y-110340440D01*
X139290760Y-110407660D01*
X139369803Y-110460474D01*
X139457631Y-110496854D01*
X139550868Y-110515400D01*
X139645932Y-110515400D01*
X139739169Y-110496854D01*
X139826997Y-110460474D01*
X139906040Y-110407660D01*
X139973260Y-110340440D01*
X140026074Y-110261397D01*
X140062454Y-110173569D01*
X140081000Y-110080332D01*
X140081000Y-109985268D01*
X140062454Y-109892031D01*
X140026074Y-109804203D01*
X139973260Y-109725160D01*
X139906040Y-109657940D01*
X139826997Y-109605126D01*
X139739169Y-109568746D01*
X139645932Y-109550200D01*
X139550868Y-109550200D01*
X139457631Y-109568746D01*
X139369803Y-109605126D01*
X139290760Y-109657940D01*
X139223540Y-109725160D01*
X139170726Y-109804203D01*
X139134346Y-109892031D01*
X139115800Y-109985268D01*
X138279000Y-109985268D01*
X138279000Y-108621288D01*
X139105640Y-108621288D01*
X139105640Y-108716352D01*
X139124186Y-108809589D01*
X139160566Y-108897417D01*
X139213380Y-108976460D01*
X139280600Y-109043680D01*
X139359643Y-109096494D01*
X139447471Y-109132874D01*
X139540708Y-109151420D01*
X139635772Y-109151420D01*
X139729009Y-109132874D01*
X139816837Y-109096494D01*
X139895880Y-109043680D01*
X139963100Y-108976460D01*
X140015914Y-108897417D01*
X140052294Y-108809589D01*
X140070840Y-108716352D01*
X140070840Y-108621288D01*
X140052294Y-108528051D01*
X140015914Y-108440223D01*
X139963100Y-108361180D01*
X139895880Y-108293960D01*
X139816837Y-108241146D01*
X139729009Y-108204766D01*
X139635772Y-108186220D01*
X139540708Y-108186220D01*
X139447471Y-108204766D01*
X139359643Y-108241146D01*
X139280600Y-108293960D01*
X139213380Y-108361180D01*
X139160566Y-108440223D01*
X139124186Y-108528051D01*
X139105640Y-108621288D01*
X138279000Y-108621288D01*
X138279000Y-101857268D01*
X142189200Y-101857268D01*
X142189200Y-101952332D01*
X142207746Y-102045569D01*
X142244126Y-102133397D01*
X142296940Y-102212440D01*
X142364160Y-102279660D01*
X142443203Y-102332474D01*
X142531031Y-102368854D01*
X142624268Y-102387400D01*
X142719332Y-102387400D01*
X142812569Y-102368854D01*
X142900397Y-102332474D01*
X142979440Y-102279660D01*
X143046660Y-102212440D01*
X143099474Y-102133397D01*
X143135854Y-102045569D01*
X143154400Y-101952332D01*
X143154400Y-101857268D01*
X143135854Y-101764031D01*
X143099474Y-101676203D01*
X143046660Y-101597160D01*
X142979440Y-101529940D01*
X142900397Y-101477126D01*
X142812569Y-101440746D01*
X142719332Y-101422200D01*
X142624268Y-101422200D01*
X142531031Y-101440746D01*
X142443203Y-101477126D01*
X142364160Y-101529940D01*
X142296940Y-101597160D01*
X142244126Y-101676203D01*
X142207746Y-101764031D01*
X142189200Y-101857268D01*
X138279000Y-101857268D01*
X138279000Y-98707668D01*
X142240000Y-98707668D01*
X142240000Y-98802732D01*
X142258546Y-98895969D01*
X142294926Y-98983797D01*
X142347740Y-99062840D01*
X142414960Y-99130060D01*
X142494003Y-99182874D01*
X142581831Y-99219254D01*
X142675068Y-99237800D01*
X142770132Y-99237800D01*
X142863369Y-99219254D01*
X142951197Y-99182874D01*
X143030240Y-99130060D01*
X143097460Y-99062840D01*
X143150274Y-98983797D01*
X143186654Y-98895969D01*
X143205200Y-98802732D01*
X143205200Y-98707668D01*
X143186654Y-98614431D01*
X143150274Y-98526603D01*
X143097460Y-98447560D01*
X143030240Y-98380340D01*
X142951197Y-98327526D01*
X142863369Y-98291146D01*
X142770132Y-98272600D01*
X142675068Y-98272600D01*
X142581831Y-98291146D01*
X142494003Y-98327526D01*
X142414960Y-98380340D01*
X142347740Y-98447560D01*
X142294926Y-98526603D01*
X142258546Y-98614431D01*
X142240000Y-98707668D01*
X138279000Y-98707668D01*
X138279000Y-97513649D01*
X138284522Y-97457333D01*
X138296913Y-97416291D01*
X138317038Y-97378442D01*
X138344133Y-97345220D01*
X138377171Y-97317889D01*
X138414875Y-97297502D01*
X138455830Y-97284825D01*
X138511248Y-97279000D01*
X144491893Y-97279000D01*
X144405607Y-97336655D01*
G36*
X154923800Y-99246000D02*
G01*
X151202199Y-99246000D01*
X151180473Y-99219527D01*
X151141797Y-99187786D01*
X151097672Y-99164200D01*
X151049793Y-99149676D01*
X151000000Y-99144772D01*
X149000000Y-99144772D01*
X148950207Y-99149676D01*
X148902328Y-99164200D01*
X148858203Y-99187786D01*
X148819527Y-99219527D01*
X148788275Y-99257607D01*
X148762798Y-99265335D01*
X148718885Y-99288807D01*
X148680395Y-99320395D01*
X148648807Y-99358885D01*
X148625335Y-99402798D01*
X148610881Y-99450447D01*
X148606000Y-99500000D01*
X148606000Y-100746000D01*
X145754000Y-100746000D01*
X145754000Y-98290582D01*
X145771181Y-98249103D01*
X145804000Y-98084112D01*
X145804000Y-97915888D01*
X145771181Y-97750897D01*
X145754000Y-97709418D01*
X145754000Y-97279000D01*
X154923800Y-97279000D01*
X154923800Y-99246000D01*
X154923800Y-99246000D01*
G37*
X154923800Y-99246000D02*
X151202199Y-99246000D01*
X151180473Y-99219527D01*
X151141797Y-99187786D01*
X151097672Y-99164200D01*
X151049793Y-99149676D01*
X151000000Y-99144772D01*
X149000000Y-99144772D01*
X148950207Y-99149676D01*
X148902328Y-99164200D01*
X148858203Y-99187786D01*
X148819527Y-99219527D01*
X148788275Y-99257607D01*
X148762798Y-99265335D01*
X148718885Y-99288807D01*
X148680395Y-99320395D01*
X148648807Y-99358885D01*
X148625335Y-99402798D01*
X148610881Y-99450447D01*
X148606000Y-99500000D01*
X148606000Y-100746000D01*
X145754000Y-100746000D01*
X145754000Y-98290582D01*
X145771181Y-98249103D01*
X145804000Y-98084112D01*
X145804000Y-97915888D01*
X145771181Y-97750897D01*
X145754000Y-97709418D01*
X145754000Y-97279000D01*
X154923800Y-97279000D01*
X154923800Y-99246000D01*
M02*
