M48
; DRILL file {KiCad (5.1.4)-1} date 05.09.2019 11:02:49
; FORMAT={-:-/ absolute / inch / decimal}
; #@! TF.CreationDate,2019-09-05T11:02:49+02:00
; #@! TF.GenerationSoftware,Kicad,Pcbnew,(5.1.4)-1
FMAT,2
INCH
T1C0.0080
T2C0.0157
T3C0.0180
T4C0.0197
T5C0.0236
T6C0.0315
T7C0.0335
T8C0.0394
T9C0.1260
T10C0.0472
%
G90
G05
T1
X5.4528Y-4.2126
X5.4528Y-4.252
X5.4528Y-4.2913
X5.4528Y-4.3307
X5.4528Y-4.3701
X5.4528Y-4.4094
X5.4528Y-4.4488
X5.4528Y-4.4882
X5.4567Y-4.6299
X5.4724Y-4.2323
X5.4724Y-4.311
X5.4724Y-4.3504
X5.4724Y-4.3898
X5.4724Y-4.4685
X5.4724Y-4.5079
X5.4726Y-4.6681
X5.4921Y-4.252
X5.4956Y-4.2783
X5.496Y-4.332
X5.496Y-4.432
X5.496Y-4.484
X5.5118Y-4.5079
X5.512Y-4.67
X5.5175Y-3.9748
X5.5177Y-4.1008
X5.5184Y-3.8488
X5.5394Y-4.374
X5.5535Y-4.2136
X5.56Y-4.67
X5.577Y-4.376
X5.5808Y-4.5845
X5.594Y-4.672
X5.596Y-4.3575
X5.609Y-4.1311
X5.6115Y-4.224
X5.617Y-4.012
X5.619Y-3.888
X5.6292Y-4.5851
X5.6386Y-4.7403
X5.6546Y-4.7028
X5.6591Y-4.7269
X5.689Y-3.9173
X5.689Y-3.9567
X5.689Y-3.9961
X5.689Y-4.311
X5.689Y-4.3504
X5.7087Y-3.937
X5.7087Y-3.9764
X5.7087Y-4.1535
X5.7087Y-4.1929
X5.7087Y-4.3307
X5.7087Y-4.4685
X5.7283Y-4.1732
X5.7283Y-4.311
X5.7283Y-4.3504
X5.7283Y-4.4882
X5.7283Y-4.6063
X5.7283Y-4.6457
X5.748Y-3.8386
X5.748Y-4.1535
X5.748Y-4.1929
X5.748Y-4.4685
X5.748Y-4.5079
X5.748Y-4.626
X5.748Y-4.6654
X5.7724Y-4.715
X5.7874Y-3.8386
X5.7915Y-4.7345
X5.8071Y-3.8583
X5.8071Y-3.8976
X5.8268Y-3.8386
X5.8268Y-3.878
X5.8465Y-3.8583
X5.8465Y-3.8976
X5.861Y-4.6852
X5.8661Y-3.8386
X5.8661Y-3.878
X5.8858Y-3.8583
X5.8858Y-3.8976
X5.902Y-4.4445
X5.9055Y-3.8386
X5.9055Y-3.878
X5.9055Y-4.4882
X5.9055Y-4.5177
X5.9055Y-4.5472
X5.9055Y-4.5768
X5.9055Y-4.6063
X5.9055Y-4.6358
X5.9055Y-4.6654
X5.9055Y-4.6949
X5.9252Y-3.8583
X5.9252Y-3.8976
X5.9252Y-4.4193
X5.9449Y-3.8386
X5.9449Y-3.878
X5.986Y-4.514
X6.0416Y-4.4376
X6.0588Y-4.7223
X6.061Y-4.6979
X6.0681Y-4.4349
X6.122Y-3.9764
X6.145Y-4.7296
X6.1483Y-4.3933
X6.171Y-4.449
X6.2163Y-4.6367
X6.2178Y-4.4889
X6.221Y-4.5456
X6.223Y-4.5195
X6.2635Y-4.243
X6.2636Y-4.1613
X6.2641Y-4.213
X6.2642Y-4.1858
X6.2645Y-4.1305
X6.265Y-4.093
X6.2728Y-4.2689
X6.2729Y-4.2939
X6.2763Y-4.4466
X6.2909Y-4.636
X6.2932Y-4.7441
X6.3007Y-4.4449
X6.3149Y-4.6409
X6.3244Y-4.4387
X6.3272Y-4.5677
X6.3334Y-4.6569
X6.3468Y-4.422
X6.3484Y-4.5554
X6.3521Y-4.5954
X6.3543Y-4.5059
X6.3612Y-4.095
X6.3741Y-4.6062
X6.3972Y-4.5673
X6.4023Y-4.5434
X6.4286Y-4.7429
X6.4303Y-3.9007
X6.4425Y-4.229
X6.443Y-4.181
X6.443Y-4.13
X6.4558Y-4.2991
X6.461Y-4.352
X6.462Y-4.39
X6.4668Y-4.7401
X6.5197Y-4.3924
X6.5329Y-4.1943
X6.5382Y-4.1424
X6.5451Y-4.1182
X6.5509Y-4.5854
X6.5705Y-4.565
X6.5735Y-4.4831
X6.5957Y-4.5016
X6.5964Y-4.5264
X6.6067Y-4.4588
X6.6071Y-4.5484
X6.6204Y-4.2151
X6.624Y-4.5914
X6.6394Y-4.2562
X6.6709Y-4.0433
X6.6875Y-4.1838
X6.6898Y-4.1584
X6.693Y-4.0623
X6.7029Y-3.8765
X6.7035Y-3.8458
X6.7093Y-4.2287
X6.7323Y-3.9294
X6.7412Y-4.0622
X6.7787Y-4.087
X6.7829Y-4.1428
X6.7898Y-4.1661
X6.802Y-4.087
X6.8127Y-3.9301
X6.8201Y-4.064
X6.8318Y-4.2669
X6.8327Y-3.9346
X6.8537Y-3.9343
X6.857Y-4.0228
X6.8641Y-4.1113
X6.869Y-4.542
X6.87Y-4.646
X6.871Y-4.438
X6.871Y-4.46
X6.871Y-4.481
X6.8741Y-3.8474
X6.8785Y-3.9224
X6.8835Y-4.1299
X6.9031Y-4.3168
X6.927Y-4.0301
X6.9314Y-3.9473
X6.9728Y-3.9485
X6.9736Y-4.0203
X6.976Y-3.8502
X7.126Y-4.7244
X7.1654Y-4.4094
X7.1654Y-4.4488
X7.1654Y-4.4882
X7.1654Y-4.7244
T2
X6.3451Y-4.4622
T3
X6.0957Y-4.0157
X6.1024Y-4.0551
T4
X5.9134Y-4.2913
X5.9411Y-4.2245
X5.9411Y-4.3582
X6.0079Y-4.1969
X6.0079Y-4.3858
X6.0747Y-4.2245
X6.0747Y-4.3582
X6.1024Y-4.2913
X7.0276Y-3.8799
X7.0276Y-3.9291
X7.0276Y-3.9783
X7.0276Y-4.0276
X6.9685Y-4.2913
X6.9962Y-4.2245
X6.9962Y-4.3582
X7.063Y-4.1969
X7.063Y-4.3858
X7.1298Y-4.2245
X7.1298Y-4.3582
X7.1575Y-4.2913
T6
X5.8012Y-3.937
X5.8012Y-4.0157
X5.8012Y-4.0945
X5.8012Y-4.1732
X5.8012Y-4.252
X5.8012Y-4.3307
X5.8012Y-4.4094
X5.8012Y-4.4882
X5.8012Y-4.5669
X5.8012Y-4.6457
T7
X6.6913Y-3.9828
X6.8882Y-3.9828
T8
X5.9055Y-3.9528
X6.4961Y-3.9528
X6.9449Y-4.5118
X6.9449Y-4.6118
X6.9449Y-4.7118
X7.0449Y-4.5118
X7.0449Y-4.6118
X7.0449Y-4.7118
T9
X6.0079Y-4.2913
X7.063Y-4.2913
T10
X5.7067Y-3.8583
X5.7067Y-4.7244
T5
G00X6.652Y-3.8903
M15
G01X6.652Y-3.8627
M16
G05
G00X6.9276Y-3.8627
M15
G01X6.9276Y-3.8903
M16
G05
T0
M30
