G04 #@! TF.GenerationSoftware,KiCad,Pcbnew,5.1.6*
G04 #@! TF.CreationDate,2020-06-25T22:37:20+02:00*
G04 #@! TF.ProjectId,altimeter,616c7469-6d65-4746-9572-2e6b69636164,V 1.2 Rev. A*
G04 #@! TF.SameCoordinates,Original*
G04 #@! TF.FileFunction,Soldermask,Top*
G04 #@! TF.FilePolarity,Negative*
%FSLAX46Y46*%
G04 Gerber Fmt 4.6, Leading zero omitted, Abs format (unit mm)*
G04 Created by KiCad (PCBNEW 5.1.6) date 2020-06-25 22:37:20*
%MOMM*%
%LPD*%
G01*
G04 APERTURE LIST*
%ADD10C,0.100000*%
G04 #@! TA.AperFunction,NonConductor*
%ADD11C,0.100000*%
G04 #@! TD*
G04 APERTURE END LIST*
D10*
G36*
X182250000Y-119500000D02*
G01*
X180750000Y-119500000D01*
X180750000Y-114750000D01*
X182250000Y-114750000D01*
X182250000Y-119500000D01*
G37*
X182250000Y-119500000D02*
X180750000Y-119500000D01*
X180750000Y-114750000D01*
X182250000Y-114750000D01*
X182250000Y-119500000D01*
D11*
G36*
X145139830Y-119374209D02*
G01*
X145209210Y-119402947D01*
X145258269Y-119423268D01*
X145364861Y-119494491D01*
X145455509Y-119585139D01*
X145526732Y-119691731D01*
X145526732Y-119691732D01*
X145575791Y-119810170D01*
X145600800Y-119935900D01*
X145600800Y-120064100D01*
X145575791Y-120189830D01*
X145549117Y-120254227D01*
X145526732Y-120308269D01*
X145455509Y-120414861D01*
X145364861Y-120505509D01*
X145258269Y-120576732D01*
X145209210Y-120597053D01*
X145139830Y-120625791D01*
X145014100Y-120650800D01*
X144885900Y-120650800D01*
X144760170Y-120625791D01*
X144690790Y-120597053D01*
X144641731Y-120576732D01*
X144535139Y-120505509D01*
X144444491Y-120414861D01*
X144373268Y-120308269D01*
X144350883Y-120254227D01*
X144324209Y-120189830D01*
X144299200Y-120064100D01*
X144299200Y-119935900D01*
X144324209Y-119810170D01*
X144373268Y-119691732D01*
X144373268Y-119691731D01*
X144444491Y-119585139D01*
X144535139Y-119494491D01*
X144641731Y-119423268D01*
X144690790Y-119402947D01*
X144760170Y-119374209D01*
X144885900Y-119349200D01*
X145014100Y-119349200D01*
X145139830Y-119374209D01*
G37*
G36*
X176662752Y-118813816D02*
G01*
X176662755Y-118813817D01*
X176662754Y-118813817D01*
X176826689Y-118881721D01*
X176974227Y-118980303D01*
X177099697Y-119105773D01*
X177099698Y-119105775D01*
X177198280Y-119253313D01*
X177266184Y-119417248D01*
X177300800Y-119591277D01*
X177300800Y-119768723D01*
X177266184Y-119942752D01*
X177266183Y-119942754D01*
X177198279Y-120106689D01*
X177099697Y-120254227D01*
X176974227Y-120379697D01*
X176826689Y-120478279D01*
X176826688Y-120478280D01*
X176826687Y-120478280D01*
X176662752Y-120546184D01*
X176488723Y-120580800D01*
X176311277Y-120580800D01*
X176137248Y-120546184D01*
X175973313Y-120478280D01*
X175973312Y-120478280D01*
X175973311Y-120478279D01*
X175825773Y-120379697D01*
X175700303Y-120254227D01*
X175601721Y-120106689D01*
X175533817Y-119942754D01*
X175533816Y-119942752D01*
X175499200Y-119768723D01*
X175499200Y-119591277D01*
X175533816Y-119417248D01*
X175601720Y-119253313D01*
X175700302Y-119105775D01*
X175700303Y-119105773D01*
X175825773Y-118980303D01*
X175973311Y-118881721D01*
X176137246Y-118813817D01*
X176137245Y-118813817D01*
X176137248Y-118813816D01*
X176311277Y-118779200D01*
X176488723Y-118779200D01*
X176662752Y-118813816D01*
G37*
G36*
X179202752Y-118813816D02*
G01*
X179202755Y-118813817D01*
X179202754Y-118813817D01*
X179366689Y-118881721D01*
X179514227Y-118980303D01*
X179639697Y-119105773D01*
X179639698Y-119105775D01*
X179738280Y-119253313D01*
X179806184Y-119417248D01*
X179840800Y-119591277D01*
X179840800Y-119768723D01*
X179806184Y-119942752D01*
X179806183Y-119942754D01*
X179738279Y-120106689D01*
X179639697Y-120254227D01*
X179514227Y-120379697D01*
X179366689Y-120478279D01*
X179366688Y-120478280D01*
X179366687Y-120478280D01*
X179202752Y-120546184D01*
X179028723Y-120580800D01*
X178851277Y-120580800D01*
X178677248Y-120546184D01*
X178513313Y-120478280D01*
X178513312Y-120478280D01*
X178513311Y-120478279D01*
X178365773Y-120379697D01*
X178240303Y-120254227D01*
X178141721Y-120106689D01*
X178073817Y-119942754D01*
X178073816Y-119942752D01*
X178039200Y-119768723D01*
X178039200Y-119591277D01*
X178073816Y-119417248D01*
X178141720Y-119253313D01*
X178240302Y-119105775D01*
X178240303Y-119105773D01*
X178365773Y-118980303D01*
X178513311Y-118881721D01*
X178677246Y-118813817D01*
X178677245Y-118813817D01*
X178677248Y-118813816D01*
X178851277Y-118779200D01*
X179028723Y-118779200D01*
X179202752Y-118813816D01*
G37*
G36*
X155550800Y-120225800D02*
G01*
X154449200Y-120225800D01*
X154449200Y-117544200D01*
X155550800Y-117544200D01*
X155550800Y-120225800D01*
G37*
G36*
X159550800Y-120225800D02*
G01*
X158449200Y-120225800D01*
X158449200Y-117544200D01*
X159550800Y-117544200D01*
X159550800Y-120225800D01*
G37*
G36*
X157550800Y-120225800D02*
G01*
X156449200Y-120225800D01*
X156449200Y-117544200D01*
X157550800Y-117544200D01*
X157550800Y-120225800D01*
G37*
G36*
X151550800Y-120225800D02*
G01*
X150449200Y-120225800D01*
X150449200Y-117544200D01*
X151550800Y-117544200D01*
X151550800Y-120225800D01*
G37*
G36*
X153550800Y-120225800D02*
G01*
X152449200Y-120225800D01*
X152449200Y-117544200D01*
X153550800Y-117544200D01*
X153550800Y-120225800D01*
G37*
G36*
X163338776Y-117317152D02*
G01*
X163432604Y-117345615D01*
X163519071Y-117391832D01*
X163594865Y-117454035D01*
X163657068Y-117529829D01*
X163703285Y-117616296D01*
X163731748Y-117710124D01*
X163741600Y-117810154D01*
X163741600Y-119406046D01*
X163731748Y-119506076D01*
X163703285Y-119599904D01*
X163657068Y-119686371D01*
X163594865Y-119762165D01*
X163519071Y-119824368D01*
X163432604Y-119870585D01*
X163338776Y-119899048D01*
X163238746Y-119908900D01*
X162142854Y-119908900D01*
X162042824Y-119899048D01*
X161948996Y-119870585D01*
X161862529Y-119824368D01*
X161786735Y-119762165D01*
X161724532Y-119686371D01*
X161678315Y-119599904D01*
X161649852Y-119506076D01*
X161640000Y-119406046D01*
X161640000Y-117810154D01*
X161649852Y-117710124D01*
X161678315Y-117616296D01*
X161724532Y-117529829D01*
X161786735Y-117454035D01*
X161862529Y-117391832D01*
X161948996Y-117345615D01*
X162042824Y-117317152D01*
X162142854Y-117307300D01*
X163238746Y-117307300D01*
X163338776Y-117317152D01*
G37*
G36*
X173338776Y-117317152D02*
G01*
X173432604Y-117345615D01*
X173519071Y-117391832D01*
X173594865Y-117454035D01*
X173657068Y-117529829D01*
X173703285Y-117616296D01*
X173731748Y-117710124D01*
X173741600Y-117810154D01*
X173741600Y-119406046D01*
X173731748Y-119506076D01*
X173703285Y-119599904D01*
X173657068Y-119686371D01*
X173594865Y-119762165D01*
X173519071Y-119824368D01*
X173432604Y-119870585D01*
X173338776Y-119899048D01*
X173238746Y-119908900D01*
X172142854Y-119908900D01*
X172042824Y-119899048D01*
X171948996Y-119870585D01*
X171862529Y-119824368D01*
X171786735Y-119762165D01*
X171724532Y-119686371D01*
X171678315Y-119599904D01*
X171649852Y-119506076D01*
X171640000Y-119406046D01*
X171640000Y-117810154D01*
X171649852Y-117710124D01*
X171678315Y-117616296D01*
X171724532Y-117529829D01*
X171786735Y-117454035D01*
X171862529Y-117391832D01*
X171948996Y-117345615D01*
X172042824Y-117317152D01*
X172142854Y-117307300D01*
X173238746Y-117307300D01*
X173338776Y-117317152D01*
G37*
G36*
X147745707Y-117355478D02*
G01*
X147777579Y-117358617D01*
X147838917Y-117377224D01*
X147900256Y-117395831D01*
X148013312Y-117456260D01*
X148112411Y-117537589D01*
X148193740Y-117636688D01*
X148254169Y-117749744D01*
X148254169Y-117749745D01*
X148279334Y-117832700D01*
X148291383Y-117872422D01*
X148303948Y-118000000D01*
X148291383Y-118127578D01*
X148254169Y-118250256D01*
X148193740Y-118363312D01*
X148112411Y-118462411D01*
X148013312Y-118543740D01*
X147900256Y-118604169D01*
X147838917Y-118622776D01*
X147777579Y-118641383D01*
X147745707Y-118644522D01*
X147681965Y-118650800D01*
X147018035Y-118650800D01*
X146954293Y-118644522D01*
X146922421Y-118641383D01*
X146861083Y-118622776D01*
X146799744Y-118604169D01*
X146686688Y-118543740D01*
X146587589Y-118462411D01*
X146506260Y-118363312D01*
X146445831Y-118250256D01*
X146408617Y-118127578D01*
X146396052Y-118000000D01*
X146408617Y-117872422D01*
X146420667Y-117832700D01*
X146445831Y-117749745D01*
X146445831Y-117749744D01*
X146506260Y-117636688D01*
X146587589Y-117537589D01*
X146686688Y-117456260D01*
X146799744Y-117395831D01*
X146861083Y-117377224D01*
X146922421Y-117358617D01*
X146954293Y-117355478D01*
X147018035Y-117349200D01*
X147681965Y-117349200D01*
X147745707Y-117355478D01*
G37*
G36*
X179202752Y-116273816D02*
G01*
X179202755Y-116273817D01*
X179202754Y-116273817D01*
X179366689Y-116341721D01*
X179514227Y-116440303D01*
X179639697Y-116565773D01*
X179639698Y-116565775D01*
X179738280Y-116713313D01*
X179806184Y-116877248D01*
X179840800Y-117051277D01*
X179840800Y-117228723D01*
X179806184Y-117402752D01*
X179806183Y-117402754D01*
X179738279Y-117566689D01*
X179639697Y-117714227D01*
X179514227Y-117839697D01*
X179366689Y-117938279D01*
X179366688Y-117938280D01*
X179366687Y-117938280D01*
X179202752Y-118006184D01*
X179028723Y-118040800D01*
X178851277Y-118040800D01*
X178677248Y-118006184D01*
X178513313Y-117938280D01*
X178513312Y-117938280D01*
X178513311Y-117938279D01*
X178365773Y-117839697D01*
X178240303Y-117714227D01*
X178141721Y-117566689D01*
X178073817Y-117402754D01*
X178073816Y-117402752D01*
X178039200Y-117228723D01*
X178039200Y-117051277D01*
X178073816Y-116877248D01*
X178141720Y-116713313D01*
X178240302Y-116565775D01*
X178240303Y-116565773D01*
X178365773Y-116440303D01*
X178513311Y-116341721D01*
X178677246Y-116273817D01*
X178677245Y-116273817D01*
X178677248Y-116273816D01*
X178851277Y-116239200D01*
X179028723Y-116239200D01*
X179202752Y-116273816D01*
G37*
G36*
X176662752Y-116273816D02*
G01*
X176662755Y-116273817D01*
X176662754Y-116273817D01*
X176826689Y-116341721D01*
X176974227Y-116440303D01*
X177099697Y-116565773D01*
X177099698Y-116565775D01*
X177198280Y-116713313D01*
X177266184Y-116877248D01*
X177300800Y-117051277D01*
X177300800Y-117228723D01*
X177266184Y-117402752D01*
X177266183Y-117402754D01*
X177198279Y-117566689D01*
X177099697Y-117714227D01*
X176974227Y-117839697D01*
X176826689Y-117938279D01*
X176826688Y-117938280D01*
X176826687Y-117938280D01*
X176662752Y-118006184D01*
X176488723Y-118040800D01*
X176311277Y-118040800D01*
X176137248Y-118006184D01*
X175973313Y-117938280D01*
X175973312Y-117938280D01*
X175973311Y-117938279D01*
X175825773Y-117839697D01*
X175700303Y-117714227D01*
X175601721Y-117566689D01*
X175533817Y-117402754D01*
X175533816Y-117402752D01*
X175499200Y-117228723D01*
X175499200Y-117051277D01*
X175533816Y-116877248D01*
X175601720Y-116713313D01*
X175700302Y-116565775D01*
X175700303Y-116565773D01*
X175825773Y-116440303D01*
X175973311Y-116341721D01*
X176137246Y-116273817D01*
X176137245Y-116273817D01*
X176137248Y-116273816D01*
X176311277Y-116239200D01*
X176488723Y-116239200D01*
X176662752Y-116273816D01*
G37*
G36*
X174773800Y-117224800D02*
G01*
X174222200Y-117224800D01*
X174222200Y-116523200D01*
X174773800Y-116523200D01*
X174773800Y-117224800D01*
G37*
G36*
X147745707Y-115355478D02*
G01*
X147777579Y-115358617D01*
X147838917Y-115377224D01*
X147900256Y-115395831D01*
X148013312Y-115456260D01*
X148112411Y-115537589D01*
X148193740Y-115636688D01*
X148254169Y-115749744D01*
X148291383Y-115872422D01*
X148303948Y-116000000D01*
X148291383Y-116127578D01*
X148254169Y-116250256D01*
X148193740Y-116363312D01*
X148112411Y-116462411D01*
X148013312Y-116543740D01*
X147900256Y-116604169D01*
X147838917Y-116622776D01*
X147777579Y-116641383D01*
X147745707Y-116644522D01*
X147681965Y-116650800D01*
X147018035Y-116650800D01*
X146954293Y-116644522D01*
X146922421Y-116641383D01*
X146861083Y-116622776D01*
X146799744Y-116604169D01*
X146686688Y-116543740D01*
X146587589Y-116462411D01*
X146506260Y-116363312D01*
X146445831Y-116250256D01*
X146408617Y-116127578D01*
X146396052Y-116000000D01*
X146408617Y-115872422D01*
X146445831Y-115749744D01*
X146506260Y-115636688D01*
X146587589Y-115537589D01*
X146686688Y-115456260D01*
X146799744Y-115395831D01*
X146861083Y-115377224D01*
X146922421Y-115358617D01*
X146954293Y-115355478D01*
X147018035Y-115349200D01*
X147681965Y-115349200D01*
X147745707Y-115355478D01*
G37*
G36*
X159550800Y-116055800D02*
G01*
X158449200Y-116055800D01*
X158449200Y-113374200D01*
X159550800Y-113374200D01*
X159550800Y-116055800D01*
G37*
G36*
X155550800Y-116055800D02*
G01*
X154449200Y-116055800D01*
X154449200Y-113374200D01*
X155550800Y-113374200D01*
X155550800Y-116055800D01*
G37*
G36*
X157550800Y-116055800D02*
G01*
X156449200Y-116055800D01*
X156449200Y-113374200D01*
X157550800Y-113374200D01*
X157550800Y-116055800D01*
G37*
G36*
X153550800Y-116055800D02*
G01*
X152449200Y-116055800D01*
X152449200Y-113374200D01*
X153550800Y-113374200D01*
X153550800Y-116055800D01*
G37*
G36*
X151550800Y-116055800D02*
G01*
X150449200Y-116055800D01*
X150449200Y-113374200D01*
X151550800Y-113374200D01*
X151550800Y-116055800D01*
G37*
G36*
X179202752Y-113733816D02*
G01*
X179366687Y-113801720D01*
X179366689Y-113801721D01*
X179514227Y-113900303D01*
X179639697Y-114025773D01*
X179738279Y-114173311D01*
X179738280Y-114173313D01*
X179806184Y-114337248D01*
X179840800Y-114511277D01*
X179840800Y-114688723D01*
X179806184Y-114862752D01*
X179806183Y-114862754D01*
X179738279Y-115026689D01*
X179639697Y-115174227D01*
X179514227Y-115299697D01*
X179366689Y-115398279D01*
X179366688Y-115398280D01*
X179366687Y-115398280D01*
X179202752Y-115466184D01*
X179028723Y-115500800D01*
X178851277Y-115500800D01*
X178677248Y-115466184D01*
X178513313Y-115398280D01*
X178513312Y-115398280D01*
X178513311Y-115398279D01*
X178365773Y-115299697D01*
X178240303Y-115174227D01*
X178141721Y-115026689D01*
X178073817Y-114862754D01*
X178073816Y-114862752D01*
X178039200Y-114688723D01*
X178039200Y-114511277D01*
X178073816Y-114337248D01*
X178141720Y-114173313D01*
X178141721Y-114173311D01*
X178240303Y-114025773D01*
X178365773Y-113900303D01*
X178513311Y-113801721D01*
X178513313Y-113801720D01*
X178677248Y-113733816D01*
X178851277Y-113699200D01*
X179028723Y-113699200D01*
X179202752Y-113733816D01*
G37*
G36*
X177300800Y-115500800D02*
G01*
X175499200Y-115500800D01*
X175499200Y-113699200D01*
X177300800Y-113699200D01*
X177300800Y-115500800D01*
G37*
G36*
X174773800Y-115124800D02*
G01*
X174222200Y-115124800D01*
X174222200Y-114423200D01*
X174773800Y-114423200D01*
X174773800Y-115124800D01*
G37*
G36*
X147745707Y-113355478D02*
G01*
X147777579Y-113358617D01*
X147828948Y-113374200D01*
X147900256Y-113395831D01*
X148013312Y-113456260D01*
X148112411Y-113537589D01*
X148193740Y-113636688D01*
X148254169Y-113749744D01*
X148257937Y-113762165D01*
X148291383Y-113872421D01*
X148303948Y-114000000D01*
X148291383Y-114127579D01*
X148272776Y-114188917D01*
X148254169Y-114250256D01*
X148193740Y-114363312D01*
X148112411Y-114462411D01*
X148013312Y-114543740D01*
X147900256Y-114604169D01*
X147838917Y-114622776D01*
X147777579Y-114641383D01*
X147745707Y-114644522D01*
X147681965Y-114650800D01*
X147018035Y-114650800D01*
X146954293Y-114644522D01*
X146922421Y-114641383D01*
X146861083Y-114622776D01*
X146799744Y-114604169D01*
X146686688Y-114543740D01*
X146587589Y-114462411D01*
X146506260Y-114363312D01*
X146445831Y-114250256D01*
X146427224Y-114188917D01*
X146408617Y-114127579D01*
X146396052Y-114000000D01*
X146408617Y-113872421D01*
X146442063Y-113762165D01*
X146445831Y-113749744D01*
X146506260Y-113636688D01*
X146587589Y-113537589D01*
X146686688Y-113456260D01*
X146799744Y-113395831D01*
X146871052Y-113374200D01*
X146922421Y-113358617D01*
X146954293Y-113355478D01*
X147018035Y-113349200D01*
X147681965Y-113349200D01*
X147745707Y-113355478D01*
G37*
G36*
X173338776Y-111317152D02*
G01*
X173432604Y-111345615D01*
X173519071Y-111391832D01*
X173594865Y-111454035D01*
X173657068Y-111529829D01*
X173703285Y-111616296D01*
X173731748Y-111710124D01*
X173741600Y-111810154D01*
X173741600Y-113406046D01*
X173731748Y-113506076D01*
X173703285Y-113599904D01*
X173657068Y-113686371D01*
X173594865Y-113762165D01*
X173519071Y-113824368D01*
X173432604Y-113870585D01*
X173338776Y-113899048D01*
X173238746Y-113908900D01*
X172142854Y-113908900D01*
X172042824Y-113899048D01*
X171948996Y-113870585D01*
X171862529Y-113824368D01*
X171786735Y-113762165D01*
X171724532Y-113686371D01*
X171678315Y-113599904D01*
X171649852Y-113506076D01*
X171640000Y-113406046D01*
X171640000Y-111810154D01*
X171649852Y-111710124D01*
X171678315Y-111616296D01*
X171724532Y-111529829D01*
X171786735Y-111454035D01*
X171862529Y-111391832D01*
X171948996Y-111345615D01*
X172042824Y-111317152D01*
X172142854Y-111307300D01*
X173238746Y-111307300D01*
X173338776Y-111317152D01*
G37*
G36*
X163338776Y-111317152D02*
G01*
X163432604Y-111345615D01*
X163519071Y-111391832D01*
X163594865Y-111454035D01*
X163657068Y-111529829D01*
X163703285Y-111616296D01*
X163731748Y-111710124D01*
X163741600Y-111810154D01*
X163741600Y-113406046D01*
X163731748Y-113506076D01*
X163703285Y-113599904D01*
X163657068Y-113686371D01*
X163594865Y-113762165D01*
X163519071Y-113824368D01*
X163432604Y-113870585D01*
X163338776Y-113899048D01*
X163238746Y-113908900D01*
X162142854Y-113908900D01*
X162042824Y-113899048D01*
X161948996Y-113870585D01*
X161862529Y-113824368D01*
X161786735Y-113762165D01*
X161724532Y-113686371D01*
X161678315Y-113599904D01*
X161649852Y-113506076D01*
X161640000Y-113406046D01*
X161640000Y-111810154D01*
X161649852Y-111710124D01*
X161678315Y-111616296D01*
X161724532Y-111529829D01*
X161786735Y-111454035D01*
X161862529Y-111391832D01*
X161948996Y-111345615D01*
X162042824Y-111317152D01*
X162142854Y-111307300D01*
X163238746Y-111307300D01*
X163338776Y-111317152D01*
G37*
G36*
X175100800Y-113500800D02*
G01*
X174099200Y-113500800D01*
X174099200Y-112599200D01*
X175100800Y-112599200D01*
X175100800Y-113500800D01*
G37*
G36*
X181111707Y-112582279D02*
G01*
X181139405Y-112590681D01*
X181164934Y-112604327D01*
X181187310Y-112622690D01*
X181205673Y-112645066D01*
X181219319Y-112670595D01*
X181227721Y-112698293D01*
X181230800Y-112729554D01*
X181230800Y-113170446D01*
X181227721Y-113201707D01*
X181219319Y-113229405D01*
X181205673Y-113254934D01*
X181187310Y-113277310D01*
X181164934Y-113295673D01*
X181139405Y-113309319D01*
X181111707Y-113317721D01*
X181080446Y-113320800D01*
X180689554Y-113320800D01*
X180658293Y-113317721D01*
X180630595Y-113309319D01*
X180605066Y-113295673D01*
X180582690Y-113277310D01*
X180564327Y-113254934D01*
X180550681Y-113229405D01*
X180542279Y-113201707D01*
X180539200Y-113170446D01*
X180539200Y-112729554D01*
X180542279Y-112698293D01*
X180550681Y-112670595D01*
X180564327Y-112645066D01*
X180582690Y-112622690D01*
X180605066Y-112604327D01*
X180630595Y-112590681D01*
X180658293Y-112582279D01*
X180689554Y-112579200D01*
X181080446Y-112579200D01*
X181111707Y-112582279D01*
G37*
G36*
X180141707Y-112582279D02*
G01*
X180169405Y-112590681D01*
X180194934Y-112604327D01*
X180217310Y-112622690D01*
X180235673Y-112645066D01*
X180249319Y-112670595D01*
X180257721Y-112698293D01*
X180260800Y-112729554D01*
X180260800Y-113170446D01*
X180257721Y-113201707D01*
X180249319Y-113229405D01*
X180235673Y-113254934D01*
X180217310Y-113277310D01*
X180194934Y-113295673D01*
X180169405Y-113309319D01*
X180141707Y-113317721D01*
X180110446Y-113320800D01*
X179719554Y-113320800D01*
X179688293Y-113317721D01*
X179660595Y-113309319D01*
X179635066Y-113295673D01*
X179612690Y-113277310D01*
X179594327Y-113254934D01*
X179580681Y-113229405D01*
X179572279Y-113201707D01*
X179569200Y-113170446D01*
X179569200Y-112729554D01*
X179572279Y-112698293D01*
X179580681Y-112670595D01*
X179594327Y-112645066D01*
X179612690Y-112622690D01*
X179635066Y-112604327D01*
X179660595Y-112590681D01*
X179688293Y-112582279D01*
X179719554Y-112579200D01*
X180110446Y-112579200D01*
X180141707Y-112582279D01*
G37*
G36*
X178191707Y-112582279D02*
G01*
X178219405Y-112590681D01*
X178244934Y-112604327D01*
X178267310Y-112622690D01*
X178285673Y-112645066D01*
X178299319Y-112670595D01*
X178307721Y-112698293D01*
X178310800Y-112729554D01*
X178310800Y-113170446D01*
X178307721Y-113201707D01*
X178299319Y-113229405D01*
X178285673Y-113254934D01*
X178267310Y-113277310D01*
X178244934Y-113295673D01*
X178219405Y-113309319D01*
X178191707Y-113317721D01*
X178160446Y-113320800D01*
X177769554Y-113320800D01*
X177738293Y-113317721D01*
X177710595Y-113309319D01*
X177685066Y-113295673D01*
X177662690Y-113277310D01*
X177644327Y-113254934D01*
X177630681Y-113229405D01*
X177622279Y-113201707D01*
X177619200Y-113170446D01*
X177619200Y-112729554D01*
X177622279Y-112698293D01*
X177630681Y-112670595D01*
X177644327Y-112645066D01*
X177662690Y-112622690D01*
X177685066Y-112604327D01*
X177710595Y-112590681D01*
X177738293Y-112582279D01*
X177769554Y-112579200D01*
X178160446Y-112579200D01*
X178191707Y-112582279D01*
G37*
G36*
X179161707Y-112582279D02*
G01*
X179189405Y-112590681D01*
X179214934Y-112604327D01*
X179237310Y-112622690D01*
X179255673Y-112645066D01*
X179269319Y-112670595D01*
X179277721Y-112698293D01*
X179280800Y-112729554D01*
X179280800Y-113170446D01*
X179277721Y-113201707D01*
X179269319Y-113229405D01*
X179255673Y-113254934D01*
X179237310Y-113277310D01*
X179214934Y-113295673D01*
X179189405Y-113309319D01*
X179161707Y-113317721D01*
X179130446Y-113320800D01*
X178739554Y-113320800D01*
X178708293Y-113317721D01*
X178680595Y-113309319D01*
X178655066Y-113295673D01*
X178632690Y-113277310D01*
X178614327Y-113254934D01*
X178600681Y-113229405D01*
X178592279Y-113201707D01*
X178589200Y-113170446D01*
X178589200Y-112729554D01*
X178592279Y-112698293D01*
X178600681Y-112670595D01*
X178614327Y-112645066D01*
X178632690Y-112622690D01*
X178655066Y-112604327D01*
X178680595Y-112590681D01*
X178708293Y-112582279D01*
X178739554Y-112579200D01*
X179130446Y-112579200D01*
X179161707Y-112582279D01*
G37*
G36*
X160011707Y-112322279D02*
G01*
X160039405Y-112330681D01*
X160064934Y-112344327D01*
X160087310Y-112362690D01*
X160105673Y-112385066D01*
X160119319Y-112410595D01*
X160127721Y-112438293D01*
X160130800Y-112469554D01*
X160130800Y-112910446D01*
X160127721Y-112941707D01*
X160119319Y-112969405D01*
X160105673Y-112994934D01*
X160087310Y-113017310D01*
X160064934Y-113035673D01*
X160039405Y-113049319D01*
X160011707Y-113057721D01*
X159980446Y-113060800D01*
X159589554Y-113060800D01*
X159558293Y-113057721D01*
X159530595Y-113049319D01*
X159505066Y-113035673D01*
X159482690Y-113017310D01*
X159464327Y-112994934D01*
X159450681Y-112969405D01*
X159442279Y-112941707D01*
X159439200Y-112910446D01*
X159439200Y-112469554D01*
X159442279Y-112438293D01*
X159450681Y-112410595D01*
X159464327Y-112385066D01*
X159482690Y-112362690D01*
X159505066Y-112344327D01*
X159530595Y-112330681D01*
X159558293Y-112322279D01*
X159589554Y-112319200D01*
X159980446Y-112319200D01*
X160011707Y-112322279D01*
G37*
G36*
X160981707Y-112322279D02*
G01*
X161009405Y-112330681D01*
X161034934Y-112344327D01*
X161057310Y-112362690D01*
X161075673Y-112385066D01*
X161089319Y-112410595D01*
X161097721Y-112438293D01*
X161100800Y-112469554D01*
X161100800Y-112910446D01*
X161097721Y-112941707D01*
X161089319Y-112969405D01*
X161075673Y-112994934D01*
X161057310Y-113017310D01*
X161034934Y-113035673D01*
X161009405Y-113049319D01*
X160981707Y-113057721D01*
X160950446Y-113060800D01*
X160559554Y-113060800D01*
X160528293Y-113057721D01*
X160500595Y-113049319D01*
X160475066Y-113035673D01*
X160452690Y-113017310D01*
X160434327Y-112994934D01*
X160420681Y-112969405D01*
X160412279Y-112941707D01*
X160409200Y-112910446D01*
X160409200Y-112469554D01*
X160412279Y-112438293D01*
X160420681Y-112410595D01*
X160434327Y-112385066D01*
X160452690Y-112362690D01*
X160475066Y-112344327D01*
X160500595Y-112330681D01*
X160528293Y-112322279D01*
X160559554Y-112319200D01*
X160950446Y-112319200D01*
X160981707Y-112322279D01*
G37*
G36*
X156925800Y-112975800D02*
G01*
X155824200Y-112975800D01*
X155824200Y-111874200D01*
X156925800Y-111874200D01*
X156925800Y-112975800D01*
G37*
G36*
X158775800Y-112975800D02*
G01*
X157674200Y-112975800D01*
X157674200Y-111874200D01*
X158775800Y-111874200D01*
X158775800Y-112975800D01*
G37*
G36*
X147745707Y-111355478D02*
G01*
X147777579Y-111358617D01*
X147838917Y-111377224D01*
X147900256Y-111395831D01*
X148013312Y-111456260D01*
X148112411Y-111537589D01*
X148193740Y-111636688D01*
X148254169Y-111749744D01*
X148272494Y-111810154D01*
X148291383Y-111872421D01*
X148303948Y-112000000D01*
X148291383Y-112127579D01*
X148279231Y-112167639D01*
X148254169Y-112250256D01*
X148193740Y-112363312D01*
X148112411Y-112462411D01*
X148013312Y-112543740D01*
X147900256Y-112604169D01*
X147838917Y-112622776D01*
X147777579Y-112641383D01*
X147745707Y-112644522D01*
X147681965Y-112650800D01*
X147018035Y-112650800D01*
X146954293Y-112644522D01*
X146922421Y-112641383D01*
X146861083Y-112622776D01*
X146799744Y-112604169D01*
X146686688Y-112543740D01*
X146587589Y-112462411D01*
X146506260Y-112363312D01*
X146445831Y-112250256D01*
X146420769Y-112167639D01*
X146408617Y-112127579D01*
X146396052Y-112000000D01*
X146408617Y-111872421D01*
X146427506Y-111810154D01*
X146445831Y-111749744D01*
X146506260Y-111636688D01*
X146587589Y-111537589D01*
X146686688Y-111456260D01*
X146799744Y-111395831D01*
X146861083Y-111377224D01*
X146922421Y-111358617D01*
X146954293Y-111355478D01*
X147018035Y-111349200D01*
X147681965Y-111349200D01*
X147745707Y-111355478D01*
G37*
G36*
X177100800Y-112550800D02*
G01*
X176099200Y-112550800D01*
X176099200Y-111649200D01*
X177100800Y-111649200D01*
X177100800Y-112550800D01*
G37*
G36*
X153548222Y-105874126D02*
G01*
X154139830Y-106119178D01*
X154672263Y-106474938D01*
X155125062Y-106927737D01*
X155480822Y-107460170D01*
X155725874Y-108051778D01*
X155850800Y-108679823D01*
X155850800Y-109320177D01*
X155725874Y-109948222D01*
X155480822Y-110539830D01*
X155125062Y-111072263D01*
X154672263Y-111525062D01*
X154139830Y-111880822D01*
X153548222Y-112125874D01*
X152920177Y-112250800D01*
X152279823Y-112250800D01*
X151651778Y-112125874D01*
X151060170Y-111880822D01*
X150527737Y-111525062D01*
X150074938Y-111072263D01*
X149719178Y-110539830D01*
X149474126Y-109948222D01*
X149349200Y-109320177D01*
X149349200Y-108679823D01*
X149474126Y-108051778D01*
X149719178Y-107460170D01*
X150074938Y-106927737D01*
X150527737Y-106474938D01*
X151060170Y-106119178D01*
X151651778Y-105874126D01*
X152279823Y-105749200D01*
X152920177Y-105749200D01*
X153548222Y-105874126D01*
G37*
G36*
X180348222Y-105874126D02*
G01*
X180939830Y-106119178D01*
X181472263Y-106474938D01*
X181925062Y-106927737D01*
X182280822Y-107460170D01*
X182525874Y-108051778D01*
X182650800Y-108679823D01*
X182650800Y-109320177D01*
X182525874Y-109948222D01*
X182280822Y-110539830D01*
X181925062Y-111072263D01*
X181472263Y-111525062D01*
X180939830Y-111880822D01*
X180348222Y-112125874D01*
X179720177Y-112250800D01*
X179079823Y-112250800D01*
X178451778Y-112125874D01*
X177860170Y-111880822D01*
X177327737Y-111525062D01*
X176874938Y-111072263D01*
X176519178Y-110539830D01*
X176274126Y-109948222D01*
X176149200Y-109320177D01*
X176149200Y-108679823D01*
X176274126Y-108051778D01*
X176519178Y-107460170D01*
X176874938Y-106927737D01*
X177327737Y-106474938D01*
X177860170Y-106119178D01*
X178451778Y-105874126D01*
X179079823Y-105749200D01*
X179720177Y-105749200D01*
X180348222Y-105874126D01*
G37*
G36*
X160011707Y-111442279D02*
G01*
X160039405Y-111450681D01*
X160064934Y-111464327D01*
X160087310Y-111482690D01*
X160105673Y-111505066D01*
X160119319Y-111530595D01*
X160127721Y-111558293D01*
X160130800Y-111589554D01*
X160130800Y-112030446D01*
X160127721Y-112061707D01*
X160119319Y-112089405D01*
X160105673Y-112114934D01*
X160087310Y-112137310D01*
X160064934Y-112155673D01*
X160039405Y-112169319D01*
X160011707Y-112177721D01*
X159980446Y-112180800D01*
X159589554Y-112180800D01*
X159558293Y-112177721D01*
X159530595Y-112169319D01*
X159505066Y-112155673D01*
X159482690Y-112137310D01*
X159464327Y-112114934D01*
X159450681Y-112089405D01*
X159442279Y-112061707D01*
X159439200Y-112030446D01*
X159439200Y-111589554D01*
X159442279Y-111558293D01*
X159450681Y-111530595D01*
X159464327Y-111505066D01*
X159482690Y-111482690D01*
X159505066Y-111464327D01*
X159530595Y-111450681D01*
X159558293Y-111442279D01*
X159589554Y-111439200D01*
X159980446Y-111439200D01*
X160011707Y-111442279D01*
G37*
G36*
X160981707Y-111442279D02*
G01*
X161009405Y-111450681D01*
X161034934Y-111464327D01*
X161057310Y-111482690D01*
X161075673Y-111505066D01*
X161089319Y-111530595D01*
X161097721Y-111558293D01*
X161100800Y-111589554D01*
X161100800Y-112030446D01*
X161097721Y-112061707D01*
X161089319Y-112089405D01*
X161075673Y-112114934D01*
X161057310Y-112137310D01*
X161034934Y-112155673D01*
X161009405Y-112169319D01*
X160981707Y-112177721D01*
X160950446Y-112180800D01*
X160559554Y-112180800D01*
X160528293Y-112177721D01*
X160500595Y-112169319D01*
X160475066Y-112155673D01*
X160452690Y-112137310D01*
X160434327Y-112114934D01*
X160420681Y-112089405D01*
X160412279Y-112061707D01*
X160409200Y-112030446D01*
X160409200Y-111589554D01*
X160412279Y-111558293D01*
X160420681Y-111530595D01*
X160434327Y-111505066D01*
X160452690Y-111482690D01*
X160475066Y-111464327D01*
X160500595Y-111450681D01*
X160528293Y-111442279D01*
X160559554Y-111439200D01*
X160950446Y-111439200D01*
X160981707Y-111442279D01*
G37*
G36*
X158775800Y-111725800D02*
G01*
X157674200Y-111725800D01*
X157674200Y-110624200D01*
X158775800Y-110624200D01*
X158775800Y-111725800D01*
G37*
G36*
X156925800Y-111725800D02*
G01*
X155824200Y-111725800D01*
X155824200Y-110624200D01*
X156925800Y-110624200D01*
X156925800Y-111725800D01*
G37*
G36*
X175100800Y-111600800D02*
G01*
X174099200Y-111600800D01*
X174099200Y-110699200D01*
X175100800Y-110699200D01*
X175100800Y-111600800D01*
G37*
G36*
X160011707Y-110562279D02*
G01*
X160039405Y-110570681D01*
X160064934Y-110584327D01*
X160087310Y-110602690D01*
X160105673Y-110625066D01*
X160119319Y-110650595D01*
X160127721Y-110678293D01*
X160130800Y-110709554D01*
X160130800Y-111150446D01*
X160127721Y-111181707D01*
X160119319Y-111209405D01*
X160105673Y-111234934D01*
X160087310Y-111257310D01*
X160064934Y-111275673D01*
X160039405Y-111289319D01*
X160011707Y-111297721D01*
X159980446Y-111300800D01*
X159589554Y-111300800D01*
X159558293Y-111297721D01*
X159530595Y-111289319D01*
X159505066Y-111275673D01*
X159482690Y-111257310D01*
X159464327Y-111234934D01*
X159450681Y-111209405D01*
X159442279Y-111181707D01*
X159439200Y-111150446D01*
X159439200Y-110709554D01*
X159442279Y-110678293D01*
X159450681Y-110650595D01*
X159464327Y-110625066D01*
X159482690Y-110602690D01*
X159505066Y-110584327D01*
X159530595Y-110570681D01*
X159558293Y-110562279D01*
X159589554Y-110559200D01*
X159980446Y-110559200D01*
X160011707Y-110562279D01*
G37*
G36*
X160981707Y-110562279D02*
G01*
X161009405Y-110570681D01*
X161034934Y-110584327D01*
X161057310Y-110602690D01*
X161075673Y-110625066D01*
X161089319Y-110650595D01*
X161097721Y-110678293D01*
X161100800Y-110709554D01*
X161100800Y-111150446D01*
X161097721Y-111181707D01*
X161089319Y-111209405D01*
X161075673Y-111234934D01*
X161057310Y-111257310D01*
X161034934Y-111275673D01*
X161009405Y-111289319D01*
X160981707Y-111297721D01*
X160950446Y-111300800D01*
X160559554Y-111300800D01*
X160528293Y-111297721D01*
X160500595Y-111289319D01*
X160475066Y-111275673D01*
X160452690Y-111257310D01*
X160434327Y-111234934D01*
X160420681Y-111209405D01*
X160412279Y-111181707D01*
X160409200Y-111150446D01*
X160409200Y-110709554D01*
X160412279Y-110678293D01*
X160420681Y-110650595D01*
X160434327Y-110625066D01*
X160452690Y-110602690D01*
X160475066Y-110584327D01*
X160500595Y-110570681D01*
X160528293Y-110562279D01*
X160559554Y-110559200D01*
X160950446Y-110559200D01*
X160981707Y-110562279D01*
G37*
G36*
X147745707Y-109355478D02*
G01*
X147777579Y-109358617D01*
X147838917Y-109377224D01*
X147900256Y-109395831D01*
X148013312Y-109456260D01*
X148112411Y-109537589D01*
X148193740Y-109636688D01*
X148254169Y-109749744D01*
X148291383Y-109872422D01*
X148303948Y-110000000D01*
X148291383Y-110127578D01*
X148254169Y-110250256D01*
X148193740Y-110363312D01*
X148112411Y-110462411D01*
X148013312Y-110543740D01*
X147900256Y-110604169D01*
X147838917Y-110622776D01*
X147777579Y-110641383D01*
X147745707Y-110644522D01*
X147681965Y-110650800D01*
X147018035Y-110650800D01*
X146954293Y-110644522D01*
X146922421Y-110641383D01*
X146861083Y-110622776D01*
X146799744Y-110604169D01*
X146686688Y-110543740D01*
X146587589Y-110462411D01*
X146506260Y-110363312D01*
X146445831Y-110250256D01*
X146408617Y-110127578D01*
X146396052Y-110000000D01*
X146408617Y-109872422D01*
X146445831Y-109749744D01*
X146506260Y-109636688D01*
X146587589Y-109537589D01*
X146686688Y-109456260D01*
X146799744Y-109395831D01*
X146861083Y-109377224D01*
X146922421Y-109358617D01*
X146954293Y-109355478D01*
X147018035Y-109349200D01*
X147681965Y-109349200D01*
X147745707Y-109355478D01*
G37*
G36*
X175195452Y-107353741D02*
G01*
X175237429Y-107366475D01*
X175276114Y-107387152D01*
X175310021Y-107414979D01*
X175337848Y-107448886D01*
X175358525Y-107487571D01*
X175371259Y-107529548D01*
X175375800Y-107575655D01*
X175375800Y-110224345D01*
X175371259Y-110270452D01*
X175358525Y-110312429D01*
X175337848Y-110351114D01*
X175310021Y-110385021D01*
X175276114Y-110412848D01*
X175237429Y-110433525D01*
X175195452Y-110446259D01*
X175149345Y-110450800D01*
X173400655Y-110450800D01*
X173354548Y-110446259D01*
X173312571Y-110433525D01*
X173273886Y-110412848D01*
X173239979Y-110385021D01*
X173212152Y-110351114D01*
X173191475Y-110312429D01*
X173178741Y-110270452D01*
X173174200Y-110224345D01*
X173174200Y-107575655D01*
X173178741Y-107529548D01*
X173191475Y-107487571D01*
X173212152Y-107448886D01*
X173239979Y-107414979D01*
X173273886Y-107387152D01*
X173312571Y-107366475D01*
X173354548Y-107353741D01*
X173400655Y-107349200D01*
X175149345Y-107349200D01*
X175195452Y-107353741D01*
G37*
G36*
X158845452Y-107353741D02*
G01*
X158887429Y-107366475D01*
X158926114Y-107387152D01*
X158960021Y-107414979D01*
X158987848Y-107448886D01*
X159008525Y-107487571D01*
X159021259Y-107529548D01*
X159025800Y-107575655D01*
X159025800Y-110224345D01*
X159021259Y-110270452D01*
X159008525Y-110312429D01*
X158987848Y-110351114D01*
X158960021Y-110385021D01*
X158926114Y-110412848D01*
X158887429Y-110433525D01*
X158845452Y-110446259D01*
X158799345Y-110450800D01*
X157050655Y-110450800D01*
X157004548Y-110446259D01*
X156962571Y-110433525D01*
X156923886Y-110412848D01*
X156889979Y-110385021D01*
X156862152Y-110351114D01*
X156841475Y-110312429D01*
X156828741Y-110270452D01*
X156824200Y-110224345D01*
X156824200Y-107575655D01*
X156828741Y-107529548D01*
X156841475Y-107487571D01*
X156862152Y-107448886D01*
X156889979Y-107414979D01*
X156923886Y-107387152D01*
X156962571Y-107366475D01*
X157004548Y-107353741D01*
X157050655Y-107349200D01*
X158799345Y-107349200D01*
X158845452Y-107353741D01*
G37*
G36*
X147745707Y-107355478D02*
G01*
X147777579Y-107358617D01*
X147812304Y-107369151D01*
X147900256Y-107395831D01*
X148013312Y-107456260D01*
X148112411Y-107537589D01*
X148193740Y-107636688D01*
X148254169Y-107749744D01*
X148291383Y-107872422D01*
X148303948Y-108000000D01*
X148291383Y-108127578D01*
X148254169Y-108250256D01*
X148193740Y-108363312D01*
X148112411Y-108462411D01*
X148013312Y-108543740D01*
X147900256Y-108604169D01*
X147838917Y-108622776D01*
X147777579Y-108641383D01*
X147745707Y-108644522D01*
X147681965Y-108650800D01*
X147018035Y-108650800D01*
X146954293Y-108644522D01*
X146922421Y-108641383D01*
X146861083Y-108622776D01*
X146799744Y-108604169D01*
X146686688Y-108543740D01*
X146587589Y-108462411D01*
X146506260Y-108363312D01*
X146445831Y-108250256D01*
X146408617Y-108127578D01*
X146396052Y-108000000D01*
X146408617Y-107872422D01*
X146445831Y-107749744D01*
X146506260Y-107636688D01*
X146587589Y-107537589D01*
X146686688Y-107456260D01*
X146799744Y-107395831D01*
X146887696Y-107369151D01*
X146922421Y-107358617D01*
X146954293Y-107355478D01*
X147018035Y-107349200D01*
X147681965Y-107349200D01*
X147745707Y-107355478D01*
G37*
G36*
X169514447Y-105453287D02*
G01*
X169551997Y-105464677D01*
X169586601Y-105483175D01*
X169616933Y-105508067D01*
X169641825Y-105538399D01*
X169660323Y-105573003D01*
X169671713Y-105610553D01*
X169675800Y-105652053D01*
X169675800Y-106647947D01*
X169671713Y-106689447D01*
X169660323Y-106726997D01*
X169641825Y-106761601D01*
X169616933Y-106791933D01*
X169586601Y-106816825D01*
X169551997Y-106835323D01*
X169514447Y-106846713D01*
X169472947Y-106850800D01*
X168977053Y-106850800D01*
X168935553Y-106846713D01*
X168898003Y-106835323D01*
X168863399Y-106816825D01*
X168833067Y-106791933D01*
X168808175Y-106761601D01*
X168789677Y-106726997D01*
X168778287Y-106689447D01*
X168774200Y-106647947D01*
X168774200Y-105652053D01*
X168778287Y-105610553D01*
X168789677Y-105573003D01*
X168808175Y-105538399D01*
X168833067Y-105508067D01*
X168863399Y-105483175D01*
X168898003Y-105464677D01*
X168935553Y-105453287D01*
X168977053Y-105449200D01*
X169472947Y-105449200D01*
X169514447Y-105453287D01*
G37*
G36*
X167014447Y-105453287D02*
G01*
X167051997Y-105464677D01*
X167086601Y-105483175D01*
X167116933Y-105508067D01*
X167141825Y-105538399D01*
X167160323Y-105573003D01*
X167171713Y-105610553D01*
X167175800Y-105652053D01*
X167175800Y-106647947D01*
X167171713Y-106689447D01*
X167160323Y-106726997D01*
X167141825Y-106761601D01*
X167116933Y-106791933D01*
X167086601Y-106816825D01*
X167051997Y-106835323D01*
X167014447Y-106846713D01*
X166972947Y-106850800D01*
X166477053Y-106850800D01*
X166435553Y-106846713D01*
X166398003Y-106835323D01*
X166363399Y-106816825D01*
X166333067Y-106791933D01*
X166308175Y-106761601D01*
X166289677Y-106726997D01*
X166278287Y-106689447D01*
X166274200Y-106647947D01*
X166274200Y-105652053D01*
X166278287Y-105610553D01*
X166289677Y-105573003D01*
X166308175Y-105538399D01*
X166333067Y-105508067D01*
X166363399Y-105483175D01*
X166398003Y-105464677D01*
X166435553Y-105453287D01*
X166477053Y-105449200D01*
X166972947Y-105449200D01*
X167014447Y-105453287D01*
G37*
G36*
X164514447Y-105453287D02*
G01*
X164551997Y-105464677D01*
X164586601Y-105483175D01*
X164616933Y-105508067D01*
X164641825Y-105538399D01*
X164660323Y-105573003D01*
X164671713Y-105610553D01*
X164675800Y-105652053D01*
X164675800Y-106647947D01*
X164671713Y-106689447D01*
X164660323Y-106726997D01*
X164641825Y-106761601D01*
X164616933Y-106791933D01*
X164586601Y-106816825D01*
X164551997Y-106835323D01*
X164514447Y-106846713D01*
X164472947Y-106850800D01*
X163977053Y-106850800D01*
X163935553Y-106846713D01*
X163898003Y-106835323D01*
X163863399Y-106816825D01*
X163833067Y-106791933D01*
X163808175Y-106761601D01*
X163789677Y-106726997D01*
X163778287Y-106689447D01*
X163774200Y-106647947D01*
X163774200Y-105652053D01*
X163778287Y-105610553D01*
X163789677Y-105573003D01*
X163808175Y-105538399D01*
X163833067Y-105508067D01*
X163863399Y-105483175D01*
X163898003Y-105464677D01*
X163935553Y-105453287D01*
X163977053Y-105449200D01*
X164472947Y-105449200D01*
X164514447Y-105453287D01*
G37*
G36*
X163264447Y-105453287D02*
G01*
X163301997Y-105464677D01*
X163336601Y-105483175D01*
X163366933Y-105508067D01*
X163391825Y-105538399D01*
X163410323Y-105573003D01*
X163421713Y-105610553D01*
X163425800Y-105652053D01*
X163425800Y-106647947D01*
X163421713Y-106689447D01*
X163410323Y-106726997D01*
X163391825Y-106761601D01*
X163366933Y-106791933D01*
X163336601Y-106816825D01*
X163301997Y-106835323D01*
X163264447Y-106846713D01*
X163222947Y-106850800D01*
X162727053Y-106850800D01*
X162685553Y-106846713D01*
X162648003Y-106835323D01*
X162613399Y-106816825D01*
X162583067Y-106791933D01*
X162558175Y-106761601D01*
X162539677Y-106726997D01*
X162528287Y-106689447D01*
X162524200Y-106647947D01*
X162524200Y-105652053D01*
X162528287Y-105610553D01*
X162539677Y-105573003D01*
X162558175Y-105538399D01*
X162583067Y-105508067D01*
X162613399Y-105483175D01*
X162648003Y-105464677D01*
X162685553Y-105453287D01*
X162727053Y-105449200D01*
X163222947Y-105449200D01*
X163264447Y-105453287D01*
G37*
G36*
X162014447Y-105453287D02*
G01*
X162051997Y-105464677D01*
X162086601Y-105483175D01*
X162116933Y-105508067D01*
X162141825Y-105538399D01*
X162160323Y-105573003D01*
X162171713Y-105610553D01*
X162175800Y-105652053D01*
X162175800Y-106647947D01*
X162171713Y-106689447D01*
X162160323Y-106726997D01*
X162141825Y-106761601D01*
X162116933Y-106791933D01*
X162086601Y-106816825D01*
X162051997Y-106835323D01*
X162014447Y-106846713D01*
X161972947Y-106850800D01*
X161477053Y-106850800D01*
X161435553Y-106846713D01*
X161398003Y-106835323D01*
X161363399Y-106816825D01*
X161333067Y-106791933D01*
X161308175Y-106761601D01*
X161289677Y-106726997D01*
X161278287Y-106689447D01*
X161274200Y-106647947D01*
X161274200Y-105652053D01*
X161278287Y-105610553D01*
X161289677Y-105573003D01*
X161308175Y-105538399D01*
X161333067Y-105508067D01*
X161363399Y-105483175D01*
X161398003Y-105464677D01*
X161435553Y-105453287D01*
X161477053Y-105449200D01*
X161972947Y-105449200D01*
X162014447Y-105453287D01*
G37*
G36*
X160764447Y-105453287D02*
G01*
X160801997Y-105464677D01*
X160836601Y-105483175D01*
X160866933Y-105508067D01*
X160891825Y-105538399D01*
X160910323Y-105573003D01*
X160921713Y-105610553D01*
X160925800Y-105652053D01*
X160925800Y-106647947D01*
X160921713Y-106689447D01*
X160910323Y-106726997D01*
X160891825Y-106761601D01*
X160866933Y-106791933D01*
X160836601Y-106816825D01*
X160801997Y-106835323D01*
X160764447Y-106846713D01*
X160722947Y-106850800D01*
X160227053Y-106850800D01*
X160185553Y-106846713D01*
X160148003Y-106835323D01*
X160113399Y-106816825D01*
X160083067Y-106791933D01*
X160058175Y-106761601D01*
X160039677Y-106726997D01*
X160028287Y-106689447D01*
X160024200Y-106647947D01*
X160024200Y-105652053D01*
X160028287Y-105610553D01*
X160039677Y-105573003D01*
X160058175Y-105538399D01*
X160083067Y-105508067D01*
X160113399Y-105483175D01*
X160148003Y-105464677D01*
X160185553Y-105453287D01*
X160227053Y-105449200D01*
X160722947Y-105449200D01*
X160764447Y-105453287D01*
G37*
G36*
X172014447Y-105453287D02*
G01*
X172051997Y-105464677D01*
X172086601Y-105483175D01*
X172116933Y-105508067D01*
X172141825Y-105538399D01*
X172160323Y-105573003D01*
X172171713Y-105610553D01*
X172175800Y-105652053D01*
X172175800Y-106647947D01*
X172171713Y-106689447D01*
X172160323Y-106726997D01*
X172141825Y-106761601D01*
X172116933Y-106791933D01*
X172086601Y-106816825D01*
X172051997Y-106835323D01*
X172014447Y-106846713D01*
X171972947Y-106850800D01*
X171477053Y-106850800D01*
X171435553Y-106846713D01*
X171398003Y-106835323D01*
X171363399Y-106816825D01*
X171333067Y-106791933D01*
X171308175Y-106761601D01*
X171289677Y-106726997D01*
X171278287Y-106689447D01*
X171274200Y-106647947D01*
X171274200Y-105652053D01*
X171278287Y-105610553D01*
X171289677Y-105573003D01*
X171308175Y-105538399D01*
X171333067Y-105508067D01*
X171363399Y-105483175D01*
X171398003Y-105464677D01*
X171435553Y-105453287D01*
X171477053Y-105449200D01*
X171972947Y-105449200D01*
X172014447Y-105453287D01*
G37*
G36*
X170764447Y-105453287D02*
G01*
X170801997Y-105464677D01*
X170836601Y-105483175D01*
X170866933Y-105508067D01*
X170891825Y-105538399D01*
X170910323Y-105573003D01*
X170921713Y-105610553D01*
X170925800Y-105652053D01*
X170925800Y-106647947D01*
X170921713Y-106689447D01*
X170910323Y-106726997D01*
X170891825Y-106761601D01*
X170866933Y-106791933D01*
X170836601Y-106816825D01*
X170801997Y-106835323D01*
X170764447Y-106846713D01*
X170722947Y-106850800D01*
X170227053Y-106850800D01*
X170185553Y-106846713D01*
X170148003Y-106835323D01*
X170113399Y-106816825D01*
X170083067Y-106791933D01*
X170058175Y-106761601D01*
X170039677Y-106726997D01*
X170028287Y-106689447D01*
X170024200Y-106647947D01*
X170024200Y-105652053D01*
X170028287Y-105610553D01*
X170039677Y-105573003D01*
X170058175Y-105538399D01*
X170083067Y-105508067D01*
X170113399Y-105483175D01*
X170148003Y-105464677D01*
X170185553Y-105453287D01*
X170227053Y-105449200D01*
X170722947Y-105449200D01*
X170764447Y-105453287D01*
G37*
G36*
X165764447Y-105453287D02*
G01*
X165801997Y-105464677D01*
X165836601Y-105483175D01*
X165866933Y-105508067D01*
X165891825Y-105538399D01*
X165910323Y-105573003D01*
X165921713Y-105610553D01*
X165925800Y-105652053D01*
X165925800Y-106647947D01*
X165921713Y-106689447D01*
X165910323Y-106726997D01*
X165891825Y-106761601D01*
X165866933Y-106791933D01*
X165836601Y-106816825D01*
X165801997Y-106835323D01*
X165764447Y-106846713D01*
X165722947Y-106850800D01*
X165227053Y-106850800D01*
X165185553Y-106846713D01*
X165148003Y-106835323D01*
X165113399Y-106816825D01*
X165083067Y-106791933D01*
X165058175Y-106761601D01*
X165039677Y-106726997D01*
X165028287Y-106689447D01*
X165024200Y-106647947D01*
X165024200Y-105652053D01*
X165028287Y-105610553D01*
X165039677Y-105573003D01*
X165058175Y-105538399D01*
X165083067Y-105508067D01*
X165113399Y-105483175D01*
X165148003Y-105464677D01*
X165185553Y-105453287D01*
X165227053Y-105449200D01*
X165722947Y-105449200D01*
X165764447Y-105453287D01*
G37*
G36*
X168264447Y-105453287D02*
G01*
X168301997Y-105464677D01*
X168336601Y-105483175D01*
X168366933Y-105508067D01*
X168391825Y-105538399D01*
X168410323Y-105573003D01*
X168421713Y-105610553D01*
X168425800Y-105652053D01*
X168425800Y-106647947D01*
X168421713Y-106689447D01*
X168410323Y-106726997D01*
X168391825Y-106761601D01*
X168366933Y-106791933D01*
X168336601Y-106816825D01*
X168301997Y-106835323D01*
X168264447Y-106846713D01*
X168222947Y-106850800D01*
X167727053Y-106850800D01*
X167685553Y-106846713D01*
X167648003Y-106835323D01*
X167613399Y-106816825D01*
X167583067Y-106791933D01*
X167558175Y-106761601D01*
X167539677Y-106726997D01*
X167528287Y-106689447D01*
X167524200Y-106647947D01*
X167524200Y-105652053D01*
X167528287Y-105610553D01*
X167539677Y-105573003D01*
X167558175Y-105538399D01*
X167583067Y-105508067D01*
X167613399Y-105483175D01*
X167648003Y-105464677D01*
X167685553Y-105453287D01*
X167727053Y-105449200D01*
X168222947Y-105449200D01*
X168264447Y-105453287D01*
G37*
G36*
X147745707Y-105355478D02*
G01*
X147777579Y-105358617D01*
X147838917Y-105377224D01*
X147900256Y-105395831D01*
X148013312Y-105456260D01*
X148112411Y-105537589D01*
X148193740Y-105636688D01*
X148254169Y-105749744D01*
X148291383Y-105872422D01*
X148303948Y-106000000D01*
X148291383Y-106127578D01*
X148254169Y-106250256D01*
X148193740Y-106363312D01*
X148112411Y-106462411D01*
X148013312Y-106543740D01*
X147900256Y-106604169D01*
X147838917Y-106622776D01*
X147777579Y-106641383D01*
X147746946Y-106644400D01*
X147681965Y-106650800D01*
X147018035Y-106650800D01*
X146953054Y-106644400D01*
X146922421Y-106641383D01*
X146861083Y-106622776D01*
X146799744Y-106604169D01*
X146686688Y-106543740D01*
X146587589Y-106462411D01*
X146506260Y-106363312D01*
X146445831Y-106250256D01*
X146408617Y-106127578D01*
X146396052Y-106000000D01*
X146408617Y-105872422D01*
X146445831Y-105749744D01*
X146506260Y-105636688D01*
X146587589Y-105537589D01*
X146686688Y-105456260D01*
X146799744Y-105395831D01*
X146861083Y-105377224D01*
X146922421Y-105358617D01*
X146954293Y-105355478D01*
X147018035Y-105349200D01*
X147681965Y-105349200D01*
X147745707Y-105355478D01*
G37*
G36*
X159344264Y-103679008D02*
G01*
X159388847Y-103692532D01*
X159429935Y-103714495D01*
X159465949Y-103744051D01*
X159495505Y-103780065D01*
X159517468Y-103821153D01*
X159530992Y-103865736D01*
X159535800Y-103914554D01*
X159535800Y-104485446D01*
X159530992Y-104534264D01*
X159517468Y-104578847D01*
X159495505Y-104619935D01*
X159465949Y-104655949D01*
X159429935Y-104685505D01*
X159388847Y-104707468D01*
X159356915Y-104717154D01*
X159347860Y-104720905D01*
X159339710Y-104726350D01*
X159332779Y-104733281D01*
X159327334Y-104741430D01*
X159323583Y-104750486D01*
X159321671Y-104760099D01*
X159321671Y-104769901D01*
X159323583Y-104779514D01*
X159327334Y-104788569D01*
X159332779Y-104796719D01*
X159339710Y-104803650D01*
X159347859Y-104809095D01*
X159356915Y-104812846D01*
X159388847Y-104822532D01*
X159429935Y-104844495D01*
X159465949Y-104874051D01*
X159495505Y-104910065D01*
X159517468Y-104951153D01*
X159530992Y-104995736D01*
X159535800Y-105044554D01*
X159535800Y-105615446D01*
X159530992Y-105664264D01*
X159517468Y-105708847D01*
X159495505Y-105749935D01*
X159465949Y-105785949D01*
X159429935Y-105815505D01*
X159388847Y-105837468D01*
X159344264Y-105850992D01*
X159295446Y-105855800D01*
X158624554Y-105855800D01*
X158575736Y-105850992D01*
X158531153Y-105837468D01*
X158490065Y-105815505D01*
X158454051Y-105785949D01*
X158424495Y-105749935D01*
X158402532Y-105708847D01*
X158389008Y-105664264D01*
X158384200Y-105615446D01*
X158384200Y-105044554D01*
X158389008Y-104995736D01*
X158402532Y-104951153D01*
X158424495Y-104910065D01*
X158454051Y-104874051D01*
X158490065Y-104844495D01*
X158531153Y-104822532D01*
X158563085Y-104812846D01*
X158572140Y-104809095D01*
X158580290Y-104803650D01*
X158587221Y-104796719D01*
X158592666Y-104788570D01*
X158596417Y-104779514D01*
X158598329Y-104769901D01*
X158598329Y-104760099D01*
X158596417Y-104750486D01*
X158592666Y-104741431D01*
X158587221Y-104733281D01*
X158580290Y-104726350D01*
X158572141Y-104720905D01*
X158563085Y-104717154D01*
X158531153Y-104707468D01*
X158490065Y-104685505D01*
X158454051Y-104655949D01*
X158424495Y-104619935D01*
X158402532Y-104578847D01*
X158389008Y-104534264D01*
X158384200Y-104485446D01*
X158384200Y-103914554D01*
X158389008Y-103865736D01*
X158402532Y-103821153D01*
X158424495Y-103780065D01*
X158454051Y-103744051D01*
X158490065Y-103714495D01*
X158531153Y-103692532D01*
X158575736Y-103679008D01*
X158624554Y-103674200D01*
X159295446Y-103674200D01*
X159344264Y-103679008D01*
G37*
G36*
X157594264Y-103679008D02*
G01*
X157638847Y-103692532D01*
X157679935Y-103714495D01*
X157715949Y-103744051D01*
X157745505Y-103780065D01*
X157767468Y-103821153D01*
X157780992Y-103865736D01*
X157785800Y-103914554D01*
X157785800Y-104485446D01*
X157780992Y-104534264D01*
X157767468Y-104578847D01*
X157745505Y-104619935D01*
X157715949Y-104655949D01*
X157679935Y-104685505D01*
X157638847Y-104707468D01*
X157606915Y-104717154D01*
X157597860Y-104720905D01*
X157589710Y-104726350D01*
X157582779Y-104733281D01*
X157577334Y-104741430D01*
X157573583Y-104750486D01*
X157571671Y-104760099D01*
X157571671Y-104769901D01*
X157573583Y-104779514D01*
X157577334Y-104788569D01*
X157582779Y-104796719D01*
X157589710Y-104803650D01*
X157597859Y-104809095D01*
X157606915Y-104812846D01*
X157638847Y-104822532D01*
X157679935Y-104844495D01*
X157715949Y-104874051D01*
X157745505Y-104910065D01*
X157767468Y-104951153D01*
X157780992Y-104995736D01*
X157785800Y-105044554D01*
X157785800Y-105615446D01*
X157780992Y-105664264D01*
X157767468Y-105708847D01*
X157745505Y-105749935D01*
X157715949Y-105785949D01*
X157679935Y-105815505D01*
X157638847Y-105837468D01*
X157594264Y-105850992D01*
X157545446Y-105855800D01*
X156874554Y-105855800D01*
X156825736Y-105850992D01*
X156781153Y-105837468D01*
X156740065Y-105815505D01*
X156704051Y-105785949D01*
X156674495Y-105749935D01*
X156652532Y-105708847D01*
X156639008Y-105664264D01*
X156634200Y-105615446D01*
X156634200Y-105044554D01*
X156639008Y-104995736D01*
X156652532Y-104951153D01*
X156674495Y-104910065D01*
X156704051Y-104874051D01*
X156740065Y-104844495D01*
X156781153Y-104822532D01*
X156813085Y-104812846D01*
X156822140Y-104809095D01*
X156830290Y-104803650D01*
X156837221Y-104796719D01*
X156842666Y-104788570D01*
X156846417Y-104779514D01*
X156848329Y-104769901D01*
X156848329Y-104760099D01*
X156846417Y-104750486D01*
X156842666Y-104741431D01*
X156837221Y-104733281D01*
X156830290Y-104726350D01*
X156822141Y-104720905D01*
X156813085Y-104717154D01*
X156781153Y-104707468D01*
X156740065Y-104685505D01*
X156704051Y-104655949D01*
X156674495Y-104619935D01*
X156652532Y-104578847D01*
X156639008Y-104534264D01*
X156634200Y-104485446D01*
X156634200Y-103914554D01*
X156639008Y-103865736D01*
X156652532Y-103821153D01*
X156674495Y-103780065D01*
X156704051Y-103744051D01*
X156740065Y-103714495D01*
X156781153Y-103692532D01*
X156825736Y-103679008D01*
X156874554Y-103674200D01*
X157545446Y-103674200D01*
X157594264Y-103679008D01*
G37*
G36*
X154054494Y-104334122D02*
G01*
X154100191Y-104347984D01*
X154142300Y-104370491D01*
X154179214Y-104400786D01*
X154209509Y-104437700D01*
X154232016Y-104479809D01*
X154245878Y-104525506D01*
X154250800Y-104575480D01*
X154250800Y-105334520D01*
X154245878Y-105384494D01*
X154232016Y-105430191D01*
X154209509Y-105472300D01*
X154179214Y-105509214D01*
X154142300Y-105539509D01*
X154100191Y-105562016D01*
X154054494Y-105575878D01*
X154004520Y-105580800D01*
X152995480Y-105580800D01*
X152945506Y-105575878D01*
X152899809Y-105562016D01*
X152857700Y-105539509D01*
X152820786Y-105509214D01*
X152790491Y-105472300D01*
X152767984Y-105430191D01*
X152754122Y-105384494D01*
X152749200Y-105334520D01*
X152749200Y-104575480D01*
X152754122Y-104525506D01*
X152767984Y-104479809D01*
X152790491Y-104437700D01*
X152820786Y-104400786D01*
X152857700Y-104370491D01*
X152899809Y-104347984D01*
X152945506Y-104334122D01*
X152995480Y-104329200D01*
X154004520Y-104329200D01*
X154054494Y-104334122D01*
G37*
G36*
X152239494Y-104334122D02*
G01*
X152285191Y-104347984D01*
X152327300Y-104370491D01*
X152364214Y-104400786D01*
X152394509Y-104437700D01*
X152417016Y-104479809D01*
X152430878Y-104525506D01*
X152435800Y-104575480D01*
X152435800Y-105334520D01*
X152430878Y-105384494D01*
X152417016Y-105430191D01*
X152394509Y-105472300D01*
X152364214Y-105509214D01*
X152327300Y-105539509D01*
X152285191Y-105562016D01*
X152239494Y-105575878D01*
X152189520Y-105580800D01*
X151180480Y-105580800D01*
X151130506Y-105575878D01*
X151084809Y-105562016D01*
X151042700Y-105539509D01*
X151005786Y-105509214D01*
X150975491Y-105472300D01*
X150952984Y-105430191D01*
X150939122Y-105384494D01*
X150934200Y-105334520D01*
X150934200Y-104575480D01*
X150939122Y-104525506D01*
X150952984Y-104479809D01*
X150975491Y-104437700D01*
X151005786Y-104400786D01*
X151042700Y-104370491D01*
X151084809Y-104347984D01*
X151130506Y-104334122D01*
X151180480Y-104329200D01*
X152189520Y-104329200D01*
X152239494Y-104334122D01*
G37*
G36*
X150424494Y-104334122D02*
G01*
X150470191Y-104347984D01*
X150512300Y-104370491D01*
X150549214Y-104400786D01*
X150579509Y-104437700D01*
X150602016Y-104479809D01*
X150615878Y-104525506D01*
X150620800Y-104575480D01*
X150620800Y-105334520D01*
X150615878Y-105384494D01*
X150602016Y-105430191D01*
X150579509Y-105472300D01*
X150549214Y-105509214D01*
X150512300Y-105539509D01*
X150470191Y-105562016D01*
X150424494Y-105575878D01*
X150374520Y-105580800D01*
X149365480Y-105580800D01*
X149315506Y-105575878D01*
X149269809Y-105562016D01*
X149227700Y-105539509D01*
X149190786Y-105509214D01*
X149160491Y-105472300D01*
X149137984Y-105430191D01*
X149124122Y-105384494D01*
X149119200Y-105334520D01*
X149119200Y-104575480D01*
X149124122Y-104525506D01*
X149137984Y-104479809D01*
X149160491Y-104437700D01*
X149190786Y-104400786D01*
X149227700Y-104370491D01*
X149269809Y-104347984D01*
X149315506Y-104334122D01*
X149365480Y-104329200D01*
X150374520Y-104329200D01*
X150424494Y-104334122D01*
G37*
G36*
X164859264Y-104139008D02*
G01*
X164903847Y-104152532D01*
X164944935Y-104174495D01*
X164980949Y-104204051D01*
X165010505Y-104240065D01*
X165032468Y-104281153D01*
X165045992Y-104325736D01*
X165050800Y-104374554D01*
X165050800Y-104945446D01*
X165045992Y-104994264D01*
X165032468Y-105038847D01*
X165010505Y-105079935D01*
X164980949Y-105115949D01*
X164944935Y-105145505D01*
X164903847Y-105167468D01*
X164859264Y-105180992D01*
X164810446Y-105185800D01*
X164139554Y-105185800D01*
X164090736Y-105180992D01*
X164046153Y-105167468D01*
X164005065Y-105145505D01*
X163969051Y-105115949D01*
X163939495Y-105079935D01*
X163917532Y-105038847D01*
X163904008Y-104994264D01*
X163899200Y-104945446D01*
X163899200Y-104374554D01*
X163904008Y-104325736D01*
X163917532Y-104281153D01*
X163939495Y-104240065D01*
X163969051Y-104204051D01*
X164005065Y-104174495D01*
X164046153Y-104152532D01*
X164090736Y-104139008D01*
X164139554Y-104134200D01*
X164810446Y-104134200D01*
X164859264Y-104139008D01*
G37*
G36*
X163109264Y-104139008D02*
G01*
X163153847Y-104152532D01*
X163194935Y-104174495D01*
X163230949Y-104204051D01*
X163260505Y-104240065D01*
X163282468Y-104281153D01*
X163295992Y-104325736D01*
X163300800Y-104374554D01*
X163300800Y-104945446D01*
X163295992Y-104994264D01*
X163282468Y-105038847D01*
X163260505Y-105079935D01*
X163230949Y-105115949D01*
X163194935Y-105145505D01*
X163153847Y-105167468D01*
X163109264Y-105180992D01*
X163060446Y-105185800D01*
X162389554Y-105185800D01*
X162340736Y-105180992D01*
X162296153Y-105167468D01*
X162255065Y-105145505D01*
X162219051Y-105115949D01*
X162189495Y-105079935D01*
X162167532Y-105038847D01*
X162154008Y-104994264D01*
X162149200Y-104945446D01*
X162149200Y-104374554D01*
X162154008Y-104325736D01*
X162167532Y-104281153D01*
X162189495Y-104240065D01*
X162219051Y-104204051D01*
X162255065Y-104174495D01*
X162296153Y-104152532D01*
X162340736Y-104139008D01*
X162389554Y-104134200D01*
X163060446Y-104134200D01*
X163109264Y-104139008D01*
G37*
G36*
X147745707Y-103355478D02*
G01*
X147777579Y-103358617D01*
X147838917Y-103377224D01*
X147900256Y-103395831D01*
X148013312Y-103456260D01*
X148112411Y-103537589D01*
X148193740Y-103636688D01*
X148254169Y-103749744D01*
X148254169Y-103749745D01*
X148291383Y-103872421D01*
X148303948Y-104000000D01*
X148291383Y-104127579D01*
X148287916Y-104139008D01*
X148254169Y-104250256D01*
X148193740Y-104363312D01*
X148112411Y-104462411D01*
X148013312Y-104543740D01*
X147900256Y-104604169D01*
X147838917Y-104622776D01*
X147777579Y-104641383D01*
X147745707Y-104644522D01*
X147681965Y-104650800D01*
X147018035Y-104650800D01*
X146954293Y-104644522D01*
X146922421Y-104641383D01*
X146861083Y-104622776D01*
X146799744Y-104604169D01*
X146686688Y-104543740D01*
X146587589Y-104462411D01*
X146506260Y-104363312D01*
X146445831Y-104250256D01*
X146412084Y-104139008D01*
X146408617Y-104127579D01*
X146396052Y-104000000D01*
X146408617Y-103872421D01*
X146445831Y-103749745D01*
X146445831Y-103749744D01*
X146506260Y-103636688D01*
X146587589Y-103537589D01*
X146686688Y-103456260D01*
X146799744Y-103395831D01*
X146861083Y-103377224D01*
X146922421Y-103358617D01*
X146954293Y-103355478D01*
X147018035Y-103349200D01*
X147681965Y-103349200D01*
X147745707Y-103355478D01*
G37*
G36*
X167975800Y-104600800D02*
G01*
X166324200Y-104600800D01*
X166324200Y-102099200D01*
X167975800Y-102099200D01*
X167975800Y-104600800D01*
G37*
G36*
X169075800Y-104550800D02*
G01*
X168324200Y-104550800D01*
X168324200Y-104099200D01*
X169075800Y-104099200D01*
X169075800Y-104550800D01*
G37*
G36*
X165975800Y-104550800D02*
G01*
X165224200Y-104550800D01*
X165224200Y-104099200D01*
X165975800Y-104099200D01*
X165975800Y-104550800D01*
G37*
G36*
X169075800Y-103900800D02*
G01*
X168324200Y-103900800D01*
X168324200Y-103449200D01*
X169075800Y-103449200D01*
X169075800Y-103900800D01*
G37*
G36*
X165975800Y-103900800D02*
G01*
X165224200Y-103900800D01*
X165224200Y-103449200D01*
X165975800Y-103449200D01*
X165975800Y-103900800D01*
G37*
G36*
X154054494Y-102284122D02*
G01*
X154100191Y-102297984D01*
X154142300Y-102320491D01*
X154179214Y-102350786D01*
X154209509Y-102387700D01*
X154232016Y-102429809D01*
X154245878Y-102475506D01*
X154250800Y-102525480D01*
X154250800Y-103284520D01*
X154245878Y-103334494D01*
X154232016Y-103380191D01*
X154209509Y-103422300D01*
X154179214Y-103459214D01*
X154142300Y-103489509D01*
X154100191Y-103512016D01*
X154054494Y-103525878D01*
X154004520Y-103530800D01*
X152995480Y-103530800D01*
X152945506Y-103525878D01*
X152899809Y-103512016D01*
X152857700Y-103489509D01*
X152820786Y-103459214D01*
X152790491Y-103422300D01*
X152767984Y-103380191D01*
X152754122Y-103334494D01*
X152749200Y-103284520D01*
X152749200Y-102525480D01*
X152754122Y-102475506D01*
X152767984Y-102429809D01*
X152790491Y-102387700D01*
X152820786Y-102350786D01*
X152857700Y-102320491D01*
X152899809Y-102297984D01*
X152945506Y-102284122D01*
X152995480Y-102279200D01*
X154004520Y-102279200D01*
X154054494Y-102284122D01*
G37*
G36*
X152239494Y-102284122D02*
G01*
X152285191Y-102297984D01*
X152327300Y-102320491D01*
X152364214Y-102350786D01*
X152394509Y-102387700D01*
X152417016Y-102429809D01*
X152430878Y-102475506D01*
X152435800Y-102525480D01*
X152435800Y-103284520D01*
X152430878Y-103334494D01*
X152417016Y-103380191D01*
X152394509Y-103422300D01*
X152364214Y-103459214D01*
X152327300Y-103489509D01*
X152285191Y-103512016D01*
X152239494Y-103525878D01*
X152189520Y-103530800D01*
X151180480Y-103530800D01*
X151130506Y-103525878D01*
X151084809Y-103512016D01*
X151042700Y-103489509D01*
X151005786Y-103459214D01*
X150975491Y-103422300D01*
X150952984Y-103380191D01*
X150939122Y-103334494D01*
X150934200Y-103284520D01*
X150934200Y-102525480D01*
X150939122Y-102475506D01*
X150952984Y-102429809D01*
X150975491Y-102387700D01*
X151005786Y-102350786D01*
X151042700Y-102320491D01*
X151084809Y-102297984D01*
X151130506Y-102284122D01*
X151180480Y-102279200D01*
X152189520Y-102279200D01*
X152239494Y-102284122D01*
G37*
G36*
X150424494Y-102284122D02*
G01*
X150470191Y-102297984D01*
X150512300Y-102320491D01*
X150549214Y-102350786D01*
X150579509Y-102387700D01*
X150602016Y-102429809D01*
X150615878Y-102475506D01*
X150620800Y-102525480D01*
X150620800Y-103284520D01*
X150615878Y-103334494D01*
X150602016Y-103380191D01*
X150579509Y-103422300D01*
X150549214Y-103459214D01*
X150512300Y-103489509D01*
X150470191Y-103512016D01*
X150424494Y-103525878D01*
X150374520Y-103530800D01*
X149365480Y-103530800D01*
X149315506Y-103525878D01*
X149269809Y-103512016D01*
X149227700Y-103489509D01*
X149190786Y-103459214D01*
X149160491Y-103422300D01*
X149137984Y-103380191D01*
X149124122Y-103334494D01*
X149119200Y-103284520D01*
X149119200Y-102525480D01*
X149124122Y-102475506D01*
X149137984Y-102429809D01*
X149160491Y-102387700D01*
X149190786Y-102350786D01*
X149227700Y-102320491D01*
X149269809Y-102297984D01*
X149315506Y-102284122D01*
X149365480Y-102279200D01*
X150374520Y-102279200D01*
X150424494Y-102284122D01*
G37*
G36*
X157137609Y-102881009D02*
G01*
X157145105Y-102883282D01*
X157152008Y-102886973D01*
X157158060Y-102891940D01*
X157163027Y-102897992D01*
X157166718Y-102904895D01*
X157168991Y-102912391D01*
X157170000Y-102922634D01*
X157170000Y-103427366D01*
X157168991Y-103437609D01*
X157166718Y-103445105D01*
X157163027Y-103452008D01*
X157158060Y-103458060D01*
X157152008Y-103463027D01*
X157145105Y-103466718D01*
X157137609Y-103468991D01*
X157127366Y-103470000D01*
X156772634Y-103470000D01*
X156762391Y-103468991D01*
X156754895Y-103466718D01*
X156747992Y-103463027D01*
X156741940Y-103458060D01*
X156736973Y-103452008D01*
X156733282Y-103445105D01*
X156731009Y-103437609D01*
X156730000Y-103427366D01*
X156730000Y-102922634D01*
X156731009Y-102912391D01*
X156733282Y-102904895D01*
X156736973Y-102897992D01*
X156741940Y-102891940D01*
X156747992Y-102886973D01*
X156754895Y-102883282D01*
X156762391Y-102881009D01*
X156772634Y-102880000D01*
X157127366Y-102880000D01*
X157137609Y-102881009D01*
G37*
G36*
X157787609Y-102881009D02*
G01*
X157795105Y-102883282D01*
X157802008Y-102886973D01*
X157808060Y-102891940D01*
X157813027Y-102897992D01*
X157816718Y-102904895D01*
X157818991Y-102912391D01*
X157820000Y-102922634D01*
X157820000Y-103427366D01*
X157818991Y-103437609D01*
X157816718Y-103445105D01*
X157813027Y-103452008D01*
X157808060Y-103458060D01*
X157802008Y-103463027D01*
X157795105Y-103466718D01*
X157787609Y-103468991D01*
X157777366Y-103470000D01*
X157422634Y-103470000D01*
X157412391Y-103468991D01*
X157404895Y-103466718D01*
X157397992Y-103463027D01*
X157391940Y-103458060D01*
X157386973Y-103452008D01*
X157383282Y-103445105D01*
X157381009Y-103437609D01*
X157380000Y-103427366D01*
X157380000Y-102922634D01*
X157381009Y-102912391D01*
X157383282Y-102904895D01*
X157386973Y-102897992D01*
X157391940Y-102891940D01*
X157397992Y-102886973D01*
X157404895Y-102883282D01*
X157412391Y-102881009D01*
X157422634Y-102880000D01*
X157777366Y-102880000D01*
X157787609Y-102881009D01*
G37*
G36*
X158437609Y-102881009D02*
G01*
X158445105Y-102883282D01*
X158452008Y-102886973D01*
X158458060Y-102891940D01*
X158463027Y-102897992D01*
X158466718Y-102904895D01*
X158468991Y-102912391D01*
X158470000Y-102922634D01*
X158470000Y-103427366D01*
X158468991Y-103437609D01*
X158466718Y-103445105D01*
X158463027Y-103452008D01*
X158458060Y-103458060D01*
X158452008Y-103463027D01*
X158445105Y-103466718D01*
X158437609Y-103468991D01*
X158427366Y-103470000D01*
X158072634Y-103470000D01*
X158062391Y-103468991D01*
X158054895Y-103466718D01*
X158047992Y-103463027D01*
X158041940Y-103458060D01*
X158036973Y-103452008D01*
X158033282Y-103445105D01*
X158031009Y-103437609D01*
X158030000Y-103427366D01*
X158030000Y-102922634D01*
X158031009Y-102912391D01*
X158033282Y-102904895D01*
X158036973Y-102897992D01*
X158041940Y-102891940D01*
X158047992Y-102886973D01*
X158054895Y-102883282D01*
X158062391Y-102881009D01*
X158072634Y-102880000D01*
X158427366Y-102880000D01*
X158437609Y-102881009D01*
G37*
G36*
X169075800Y-103250800D02*
G01*
X168324200Y-103250800D01*
X168324200Y-102799200D01*
X169075800Y-102799200D01*
X169075800Y-103250800D01*
G37*
G36*
X165975800Y-103250800D02*
G01*
X165224200Y-103250800D01*
X165224200Y-102799200D01*
X165975800Y-102799200D01*
X165975800Y-103250800D01*
G37*
G36*
X171711707Y-102082279D02*
G01*
X171739405Y-102090681D01*
X171764934Y-102104327D01*
X171787310Y-102122690D01*
X171805673Y-102145066D01*
X171819319Y-102170595D01*
X171827721Y-102198293D01*
X171830800Y-102229554D01*
X171830800Y-102670446D01*
X171827721Y-102701707D01*
X171819319Y-102729405D01*
X171805673Y-102754934D01*
X171787310Y-102777310D01*
X171764934Y-102795673D01*
X171739405Y-102809319D01*
X171711707Y-102817721D01*
X171680446Y-102820800D01*
X171289554Y-102820800D01*
X171258293Y-102817721D01*
X171230595Y-102809319D01*
X171205066Y-102795673D01*
X171182690Y-102777310D01*
X171164327Y-102754934D01*
X171150681Y-102729405D01*
X171142279Y-102701707D01*
X171139200Y-102670446D01*
X171139200Y-102229554D01*
X171142279Y-102198293D01*
X171150681Y-102170595D01*
X171164327Y-102145066D01*
X171182690Y-102122690D01*
X171205066Y-102104327D01*
X171230595Y-102090681D01*
X171258293Y-102082279D01*
X171289554Y-102079200D01*
X171680446Y-102079200D01*
X171711707Y-102082279D01*
G37*
G36*
X170741707Y-102082279D02*
G01*
X170769405Y-102090681D01*
X170794934Y-102104327D01*
X170817310Y-102122690D01*
X170835673Y-102145066D01*
X170849319Y-102170595D01*
X170857721Y-102198293D01*
X170860800Y-102229554D01*
X170860800Y-102670446D01*
X170857721Y-102701707D01*
X170849319Y-102729405D01*
X170835673Y-102754934D01*
X170817310Y-102777310D01*
X170794934Y-102795673D01*
X170769405Y-102809319D01*
X170741707Y-102817721D01*
X170710446Y-102820800D01*
X170319554Y-102820800D01*
X170288293Y-102817721D01*
X170260595Y-102809319D01*
X170235066Y-102795673D01*
X170212690Y-102777310D01*
X170194327Y-102754934D01*
X170180681Y-102729405D01*
X170172279Y-102701707D01*
X170169200Y-102670446D01*
X170169200Y-102229554D01*
X170172279Y-102198293D01*
X170180681Y-102170595D01*
X170194327Y-102145066D01*
X170212690Y-102122690D01*
X170235066Y-102104327D01*
X170260595Y-102090681D01*
X170288293Y-102082279D01*
X170319554Y-102079200D01*
X170710446Y-102079200D01*
X170741707Y-102082279D01*
G37*
G36*
X158460295Y-101630467D02*
G01*
X158462499Y-101631136D01*
X158464533Y-101632224D01*
X158466315Y-101633685D01*
X158467776Y-101635467D01*
X158468864Y-101637501D01*
X158469533Y-101639705D01*
X158470000Y-101644453D01*
X158470000Y-102755547D01*
X158469533Y-102760295D01*
X158468864Y-102762499D01*
X158467776Y-102764533D01*
X158466315Y-102766315D01*
X158464533Y-102767776D01*
X158462499Y-102768864D01*
X158460295Y-102769533D01*
X158455547Y-102770000D01*
X156744453Y-102770000D01*
X156739705Y-102769533D01*
X156737501Y-102768864D01*
X156735467Y-102767776D01*
X156733685Y-102766315D01*
X156732224Y-102764533D01*
X156731136Y-102762499D01*
X156730467Y-102760295D01*
X156730000Y-102755547D01*
X156730000Y-101644453D01*
X156730467Y-101639705D01*
X156731136Y-101637501D01*
X156732224Y-101635467D01*
X156733685Y-101633685D01*
X156735467Y-101632224D01*
X156737501Y-101631136D01*
X156739705Y-101630467D01*
X156744453Y-101630000D01*
X158455547Y-101630000D01*
X158460295Y-101630467D01*
G37*
G36*
X179039447Y-101853287D02*
G01*
X179076997Y-101864677D01*
X179111601Y-101883175D01*
X179141933Y-101908067D01*
X179166825Y-101938399D01*
X179185323Y-101973003D01*
X179196713Y-102010553D01*
X179200800Y-102052053D01*
X179200800Y-102547947D01*
X179196713Y-102589447D01*
X179185323Y-102626997D01*
X179166825Y-102661601D01*
X179141933Y-102691933D01*
X179111601Y-102716825D01*
X179076997Y-102735323D01*
X179039447Y-102746713D01*
X178997947Y-102750800D01*
X178002053Y-102750800D01*
X177960553Y-102746713D01*
X177923003Y-102735323D01*
X177888399Y-102716825D01*
X177858067Y-102691933D01*
X177833175Y-102661601D01*
X177814677Y-102626997D01*
X177803287Y-102589447D01*
X177799200Y-102547947D01*
X177799200Y-102052053D01*
X177803287Y-102010553D01*
X177814677Y-101973003D01*
X177833175Y-101938399D01*
X177858067Y-101908067D01*
X177888399Y-101883175D01*
X177923003Y-101864677D01*
X177960553Y-101853287D01*
X178002053Y-101849200D01*
X178997947Y-101849200D01*
X179039447Y-101853287D01*
G37*
G36*
X147745707Y-101355478D02*
G01*
X147777579Y-101358617D01*
X147838917Y-101377224D01*
X147900256Y-101395831D01*
X148013312Y-101456260D01*
X148112411Y-101537589D01*
X148193740Y-101636688D01*
X148254169Y-101749744D01*
X148254169Y-101749745D01*
X148291383Y-101872421D01*
X148303948Y-102000000D01*
X148291865Y-102122690D01*
X148291383Y-102127578D01*
X148254169Y-102250256D01*
X148193740Y-102363312D01*
X148112411Y-102462411D01*
X148013312Y-102543740D01*
X147900256Y-102604169D01*
X147875571Y-102611657D01*
X147777579Y-102641383D01*
X147745707Y-102644522D01*
X147681965Y-102650800D01*
X147018035Y-102650800D01*
X146954293Y-102644522D01*
X146922421Y-102641383D01*
X146824429Y-102611657D01*
X146799744Y-102604169D01*
X146686688Y-102543740D01*
X146587589Y-102462411D01*
X146506260Y-102363312D01*
X146445831Y-102250256D01*
X146408617Y-102127578D01*
X146408136Y-102122690D01*
X146396052Y-102000000D01*
X146408617Y-101872421D01*
X146445831Y-101749745D01*
X146445831Y-101749744D01*
X146506260Y-101636688D01*
X146587589Y-101537589D01*
X146686688Y-101456260D01*
X146799744Y-101395831D01*
X146861083Y-101377224D01*
X146922421Y-101358617D01*
X146954293Y-101355478D01*
X147018035Y-101349200D01*
X147681965Y-101349200D01*
X147745707Y-101355478D01*
G37*
G36*
X163451707Y-101942279D02*
G01*
X163479405Y-101950681D01*
X163504934Y-101964327D01*
X163527310Y-101982690D01*
X163545673Y-102005066D01*
X163559319Y-102030595D01*
X163567721Y-102058293D01*
X163570800Y-102089554D01*
X163570800Y-102480446D01*
X163567721Y-102511707D01*
X163559319Y-102539405D01*
X163545673Y-102564934D01*
X163527310Y-102587310D01*
X163504934Y-102605673D01*
X163479405Y-102619319D01*
X163451707Y-102627721D01*
X163420446Y-102630800D01*
X162979554Y-102630800D01*
X162948293Y-102627721D01*
X162920595Y-102619319D01*
X162895066Y-102605673D01*
X162872690Y-102587310D01*
X162854327Y-102564934D01*
X162840681Y-102539405D01*
X162832279Y-102511707D01*
X162829200Y-102480446D01*
X162829200Y-102089554D01*
X162832279Y-102058293D01*
X162840681Y-102030595D01*
X162854327Y-102005066D01*
X162872690Y-101982690D01*
X162895066Y-101964327D01*
X162920595Y-101950681D01*
X162948293Y-101942279D01*
X162979554Y-101939200D01*
X163420446Y-101939200D01*
X163451707Y-101942279D01*
G37*
G36*
X169075800Y-102600800D02*
G01*
X168324200Y-102600800D01*
X168324200Y-102149200D01*
X169075800Y-102149200D01*
X169075800Y-102600800D01*
G37*
G36*
X165975800Y-102600800D02*
G01*
X165224200Y-102600800D01*
X165224200Y-102149200D01*
X165975800Y-102149200D01*
X165975800Y-102600800D01*
G37*
G36*
X170086371Y-100396638D02*
G01*
X170186293Y-100416513D01*
X170268997Y-100450771D01*
X170327478Y-100474994D01*
X170364888Y-100499991D01*
X170454544Y-100559897D01*
X170562603Y-100667956D01*
X170588362Y-100706507D01*
X170647506Y-100795022D01*
X170671729Y-100853503D01*
X170705987Y-100936207D01*
X170735800Y-101086090D01*
X170735800Y-101238910D01*
X170705987Y-101388793D01*
X170672971Y-101468500D01*
X170647506Y-101529978D01*
X170611437Y-101583958D01*
X170562603Y-101657044D01*
X170454544Y-101765103D01*
X170390579Y-101807843D01*
X170327478Y-101850006D01*
X170288000Y-101866358D01*
X170186293Y-101908487D01*
X170086371Y-101928362D01*
X170036411Y-101938300D01*
X169883589Y-101938300D01*
X169833629Y-101928362D01*
X169733707Y-101908487D01*
X169632000Y-101866358D01*
X169592522Y-101850006D01*
X169529421Y-101807843D01*
X169465456Y-101765103D01*
X169357397Y-101657044D01*
X169308563Y-101583958D01*
X169272494Y-101529978D01*
X169247029Y-101468500D01*
X169214013Y-101388793D01*
X169184200Y-101238910D01*
X169184200Y-101086090D01*
X169214013Y-100936207D01*
X169248271Y-100853503D01*
X169272494Y-100795022D01*
X169331638Y-100706507D01*
X169357397Y-100667956D01*
X169465456Y-100559897D01*
X169555112Y-100499991D01*
X169592522Y-100474994D01*
X169651003Y-100450771D01*
X169733707Y-100416513D01*
X169833629Y-100396638D01*
X169883589Y-100386700D01*
X170036411Y-100386700D01*
X170086371Y-100396638D01*
G37*
G36*
X175086371Y-100396638D02*
G01*
X175186293Y-100416513D01*
X175268997Y-100450771D01*
X175327478Y-100474994D01*
X175364888Y-100499991D01*
X175454544Y-100559897D01*
X175562603Y-100667956D01*
X175588362Y-100706507D01*
X175647506Y-100795022D01*
X175671729Y-100853503D01*
X175705987Y-100936207D01*
X175735800Y-101086090D01*
X175735800Y-101238910D01*
X175705987Y-101388793D01*
X175672971Y-101468500D01*
X175647506Y-101529978D01*
X175611437Y-101583958D01*
X175562603Y-101657044D01*
X175454544Y-101765103D01*
X175390579Y-101807843D01*
X175327478Y-101850006D01*
X175288000Y-101866358D01*
X175186293Y-101908487D01*
X175086371Y-101928362D01*
X175036411Y-101938300D01*
X174883589Y-101938300D01*
X174833629Y-101928362D01*
X174733707Y-101908487D01*
X174632000Y-101866358D01*
X174592522Y-101850006D01*
X174529421Y-101807843D01*
X174465456Y-101765103D01*
X174357397Y-101657044D01*
X174308563Y-101583958D01*
X174272494Y-101529978D01*
X174247029Y-101468500D01*
X174214013Y-101388793D01*
X174184200Y-101238910D01*
X174184200Y-101086090D01*
X174214013Y-100936207D01*
X174248271Y-100853503D01*
X174272494Y-100795022D01*
X174331638Y-100706507D01*
X174357397Y-100667956D01*
X174465456Y-100559897D01*
X174555112Y-100499991D01*
X174592522Y-100474994D01*
X174651003Y-100450771D01*
X174733707Y-100416513D01*
X174833629Y-100396638D01*
X174883589Y-100386700D01*
X175036411Y-100386700D01*
X175086371Y-100396638D01*
G37*
G36*
X172060800Y-101888300D02*
G01*
X171559200Y-101888300D01*
X171559200Y-100436700D01*
X172060800Y-100436700D01*
X172060800Y-101888300D01*
G37*
G36*
X171410800Y-101888300D02*
G01*
X170909200Y-101888300D01*
X170909200Y-100436700D01*
X171410800Y-100436700D01*
X171410800Y-101888300D01*
G37*
G36*
X172710800Y-101888300D02*
G01*
X172209200Y-101888300D01*
X172209200Y-100436700D01*
X172710800Y-100436700D01*
X172710800Y-101888300D01*
G37*
G36*
X173360800Y-101888300D02*
G01*
X172859200Y-101888300D01*
X172859200Y-100436700D01*
X173360800Y-100436700D01*
X173360800Y-101888300D01*
G37*
G36*
X174010800Y-101888300D02*
G01*
X173509200Y-101888300D01*
X173509200Y-100436700D01*
X174010800Y-100436700D01*
X174010800Y-101888300D01*
G37*
G36*
X163451707Y-100972279D02*
G01*
X163479405Y-100980681D01*
X163504934Y-100994327D01*
X163527310Y-101012690D01*
X163545673Y-101035066D01*
X163559319Y-101060595D01*
X163567721Y-101088293D01*
X163570800Y-101119554D01*
X163570800Y-101510446D01*
X163567721Y-101541707D01*
X163559319Y-101569405D01*
X163545673Y-101594934D01*
X163527310Y-101617310D01*
X163504934Y-101635673D01*
X163479405Y-101649319D01*
X163451707Y-101657721D01*
X163420446Y-101660800D01*
X162979554Y-101660800D01*
X162948293Y-101657721D01*
X162920595Y-101649319D01*
X162895066Y-101635673D01*
X162872690Y-101617310D01*
X162854327Y-101594934D01*
X162840681Y-101569405D01*
X162832279Y-101541707D01*
X162829200Y-101510446D01*
X162829200Y-101119554D01*
X162832279Y-101088293D01*
X162840681Y-101060595D01*
X162854327Y-101035066D01*
X162872690Y-101012690D01*
X162895066Y-100994327D01*
X162920595Y-100980681D01*
X162948293Y-100972279D01*
X162979554Y-100969200D01*
X163420446Y-100969200D01*
X163451707Y-100972279D01*
G37*
G36*
X158437609Y-100931009D02*
G01*
X158445105Y-100933282D01*
X158452008Y-100936973D01*
X158458060Y-100941940D01*
X158463027Y-100947992D01*
X158466718Y-100954895D01*
X158468991Y-100962391D01*
X158470000Y-100972634D01*
X158470000Y-101477366D01*
X158468991Y-101487609D01*
X158466718Y-101495105D01*
X158463027Y-101502008D01*
X158458060Y-101508060D01*
X158452008Y-101513027D01*
X158445105Y-101516718D01*
X158437609Y-101518991D01*
X158427366Y-101520000D01*
X158072634Y-101520000D01*
X158062391Y-101518991D01*
X158054895Y-101516718D01*
X158047992Y-101513027D01*
X158041940Y-101508060D01*
X158036973Y-101502008D01*
X158033282Y-101495105D01*
X158031009Y-101487609D01*
X158030000Y-101477366D01*
X158030000Y-100972634D01*
X158031009Y-100962391D01*
X158033282Y-100954895D01*
X158036973Y-100947992D01*
X158041940Y-100941940D01*
X158047992Y-100936973D01*
X158054895Y-100933282D01*
X158062391Y-100931009D01*
X158072634Y-100930000D01*
X158427366Y-100930000D01*
X158437609Y-100931009D01*
G37*
G36*
X157787609Y-100931009D02*
G01*
X157795105Y-100933282D01*
X157802008Y-100936973D01*
X157808060Y-100941940D01*
X157813027Y-100947992D01*
X157816718Y-100954895D01*
X157818991Y-100962391D01*
X157820000Y-100972634D01*
X157820000Y-101477366D01*
X157818991Y-101487609D01*
X157816718Y-101495105D01*
X157813027Y-101502008D01*
X157808060Y-101508060D01*
X157802008Y-101513027D01*
X157795105Y-101516718D01*
X157787609Y-101518991D01*
X157777366Y-101520000D01*
X157422634Y-101520000D01*
X157412391Y-101518991D01*
X157404895Y-101516718D01*
X157397992Y-101513027D01*
X157391940Y-101508060D01*
X157386973Y-101502008D01*
X157383282Y-101495105D01*
X157381009Y-101487609D01*
X157380000Y-101477366D01*
X157380000Y-100972634D01*
X157381009Y-100962391D01*
X157383282Y-100954895D01*
X157386973Y-100947992D01*
X157391940Y-100941940D01*
X157397992Y-100936973D01*
X157404895Y-100933282D01*
X157412391Y-100931009D01*
X157422634Y-100930000D01*
X157777366Y-100930000D01*
X157787609Y-100931009D01*
G37*
G36*
X157137609Y-100931009D02*
G01*
X157145105Y-100933282D01*
X157152008Y-100936973D01*
X157158060Y-100941940D01*
X157163027Y-100947992D01*
X157166718Y-100954895D01*
X157168991Y-100962391D01*
X157170000Y-100972634D01*
X157170000Y-101477366D01*
X157168991Y-101487609D01*
X157166718Y-101495105D01*
X157163027Y-101502008D01*
X157158060Y-101508060D01*
X157152008Y-101513027D01*
X157145105Y-101516718D01*
X157137609Y-101518991D01*
X157127366Y-101520000D01*
X156772634Y-101520000D01*
X156762391Y-101518991D01*
X156754895Y-101516718D01*
X156747992Y-101513027D01*
X156741940Y-101508060D01*
X156736973Y-101502008D01*
X156733282Y-101495105D01*
X156731009Y-101487609D01*
X156730000Y-101477366D01*
X156730000Y-100972634D01*
X156731009Y-100962391D01*
X156733282Y-100954895D01*
X156736973Y-100947992D01*
X156741940Y-100941940D01*
X156747992Y-100936973D01*
X156754895Y-100933282D01*
X156762391Y-100931009D01*
X156772634Y-100930000D01*
X157127366Y-100930000D01*
X157137609Y-100931009D01*
G37*
G36*
X178838372Y-100605722D02*
G01*
X178923348Y-100631499D01*
X178974383Y-100658779D01*
X179001663Y-100673360D01*
X179070306Y-100729694D01*
X179126640Y-100798337D01*
X179141221Y-100825617D01*
X179168501Y-100876652D01*
X179194278Y-100961628D01*
X179202981Y-101050000D01*
X179194278Y-101138372D01*
X179168501Y-101223348D01*
X179141221Y-101274383D01*
X179126640Y-101301663D01*
X179070306Y-101370306D01*
X179001663Y-101426640D01*
X178974383Y-101441221D01*
X178923348Y-101468501D01*
X178838372Y-101494278D01*
X178772148Y-101500800D01*
X178227852Y-101500800D01*
X178161628Y-101494278D01*
X178076652Y-101468501D01*
X178025617Y-101441221D01*
X177998337Y-101426640D01*
X177929694Y-101370306D01*
X177873360Y-101301663D01*
X177858779Y-101274383D01*
X177831499Y-101223348D01*
X177805722Y-101138372D01*
X177797019Y-101050000D01*
X177805722Y-100961628D01*
X177831499Y-100876652D01*
X177858779Y-100825617D01*
X177873360Y-100798337D01*
X177929694Y-100729694D01*
X177998337Y-100673360D01*
X178025617Y-100658779D01*
X178076652Y-100631499D01*
X178161628Y-100605722D01*
X178227852Y-100599200D01*
X178772148Y-100599200D01*
X178838372Y-100605722D01*
G37*
G36*
X151050800Y-101450800D02*
G01*
X148949200Y-101450800D01*
X148949200Y-99349200D01*
X151050800Y-99349200D01*
X151050800Y-101450800D01*
G37*
G36*
X165306505Y-99389581D02*
G01*
X165362517Y-99412782D01*
X165497740Y-99468793D01*
X165669846Y-99583791D01*
X165816209Y-99730154D01*
X165931207Y-99902260D01*
X165987218Y-100037483D01*
X166010419Y-100093495D01*
X166050800Y-100296504D01*
X166050800Y-100503496D01*
X166010419Y-100706505D01*
X166010418Y-100706507D01*
X165931207Y-100897740D01*
X165816209Y-101069846D01*
X165669846Y-101216209D01*
X165497740Y-101331207D01*
X165431566Y-101358617D01*
X165306505Y-101410419D01*
X165103496Y-101450800D01*
X164896504Y-101450800D01*
X164693495Y-101410419D01*
X164568434Y-101358617D01*
X164502260Y-101331207D01*
X164330154Y-101216209D01*
X164183791Y-101069846D01*
X164068793Y-100897740D01*
X163989582Y-100706507D01*
X163989581Y-100706505D01*
X163949200Y-100503496D01*
X163949200Y-100296504D01*
X163989581Y-100093495D01*
X164012782Y-100037483D01*
X164068793Y-99902260D01*
X164183791Y-99730154D01*
X164330154Y-99583791D01*
X164502260Y-99468793D01*
X164637483Y-99412782D01*
X164693495Y-99389581D01*
X164896504Y-99349200D01*
X165103496Y-99349200D01*
X165306505Y-99389581D01*
G37*
G36*
X154673300Y-101420800D02*
G01*
X154166700Y-101420800D01*
X154166700Y-100329200D01*
X154673300Y-100329200D01*
X154673300Y-101420800D01*
G37*
G36*
X154013300Y-101420800D02*
G01*
X153506700Y-101420800D01*
X153506700Y-100329200D01*
X154013300Y-100329200D01*
X154013300Y-101420800D01*
G37*
G36*
X153353300Y-101420800D02*
G01*
X152846700Y-101420800D01*
X152846700Y-100329200D01*
X153353300Y-100329200D01*
X153353300Y-101420800D01*
G37*
G36*
X152693300Y-101420800D02*
G01*
X152186700Y-101420800D01*
X152186700Y-100329200D01*
X152693300Y-100329200D01*
X152693300Y-101420800D01*
G37*
G36*
X148105964Y-99354087D02*
G01*
X148151316Y-99367844D01*
X148193117Y-99390188D01*
X148229749Y-99420251D01*
X148259812Y-99456883D01*
X148282156Y-99498684D01*
X148295913Y-99544036D01*
X148300800Y-99593654D01*
X148300800Y-100406346D01*
X148295913Y-100455964D01*
X148282156Y-100501316D01*
X148259812Y-100543117D01*
X148229749Y-100579749D01*
X148193117Y-100609812D01*
X148151316Y-100632156D01*
X148105964Y-100645913D01*
X148056346Y-100650800D01*
X146643654Y-100650800D01*
X146594036Y-100645913D01*
X146548684Y-100632156D01*
X146506883Y-100609812D01*
X146470251Y-100579749D01*
X146440188Y-100543117D01*
X146417844Y-100501316D01*
X146404087Y-100455964D01*
X146399200Y-100406346D01*
X146399200Y-99593654D01*
X146404087Y-99544036D01*
X146417844Y-99498684D01*
X146440188Y-99456883D01*
X146470251Y-99420251D01*
X146506883Y-99390188D01*
X146548684Y-99367844D01*
X146594036Y-99354087D01*
X146643654Y-99349200D01*
X148056346Y-99349200D01*
X148105964Y-99354087D01*
G37*
G36*
X157904234Y-99154128D02*
G01*
X157949991Y-99168009D01*
X157992156Y-99190546D01*
X158029119Y-99220881D01*
X158059454Y-99257844D01*
X158081991Y-99300009D01*
X158095872Y-99345766D01*
X158100800Y-99395804D01*
X158100800Y-100404196D01*
X158095872Y-100454234D01*
X158081991Y-100499991D01*
X158059454Y-100542156D01*
X158029119Y-100579119D01*
X157992156Y-100609454D01*
X157949991Y-100631991D01*
X157904234Y-100645872D01*
X157854196Y-100650800D01*
X157270804Y-100650800D01*
X157220766Y-100645872D01*
X157175009Y-100631991D01*
X157132844Y-100609454D01*
X157095881Y-100579119D01*
X157065546Y-100542156D01*
X157043009Y-100499991D01*
X157029128Y-100454234D01*
X157024200Y-100404196D01*
X157024200Y-99395804D01*
X157029128Y-99345766D01*
X157043009Y-99300009D01*
X157065546Y-99257844D01*
X157095881Y-99220881D01*
X157132844Y-99190546D01*
X157175009Y-99168009D01*
X157220766Y-99154128D01*
X157270804Y-99149200D01*
X157854196Y-99149200D01*
X157904234Y-99154128D01*
G37*
G36*
X159779234Y-99154128D02*
G01*
X159824991Y-99168009D01*
X159867156Y-99190546D01*
X159904119Y-99220881D01*
X159934454Y-99257844D01*
X159956991Y-99300009D01*
X159970872Y-99345766D01*
X159975800Y-99395804D01*
X159975800Y-100404196D01*
X159970872Y-100454234D01*
X159956991Y-100499991D01*
X159934454Y-100542156D01*
X159904119Y-100579119D01*
X159867156Y-100609454D01*
X159824991Y-100631991D01*
X159779234Y-100645872D01*
X159729196Y-100650800D01*
X159145804Y-100650800D01*
X159095766Y-100645872D01*
X159050009Y-100631991D01*
X159007844Y-100609454D01*
X158970881Y-100579119D01*
X158940546Y-100542156D01*
X158918009Y-100499991D01*
X158904128Y-100454234D01*
X158899200Y-100404196D01*
X158899200Y-99395804D01*
X158904128Y-99345766D01*
X158918009Y-99300009D01*
X158940546Y-99257844D01*
X158970881Y-99220881D01*
X159007844Y-99190546D01*
X159050009Y-99168009D01*
X159095766Y-99154128D01*
X159145804Y-99149200D01*
X159729196Y-99149200D01*
X159779234Y-99154128D01*
G37*
G36*
X167150800Y-100450800D02*
G01*
X166249200Y-100450800D01*
X166249200Y-99449200D01*
X167150800Y-99449200D01*
X167150800Y-100450800D01*
G37*
G36*
X178838372Y-99355722D02*
G01*
X178923348Y-99381499D01*
X178974383Y-99408779D01*
X179001663Y-99423360D01*
X179070306Y-99479694D01*
X179126640Y-99548337D01*
X179141221Y-99575617D01*
X179168501Y-99626652D01*
X179194278Y-99711628D01*
X179202981Y-99800000D01*
X179194278Y-99888372D01*
X179168501Y-99973348D01*
X179141221Y-100024383D01*
X179126640Y-100051663D01*
X179070306Y-100120306D01*
X179001663Y-100176640D01*
X178974383Y-100191221D01*
X178923348Y-100218501D01*
X178838372Y-100244278D01*
X178772148Y-100250800D01*
X178227852Y-100250800D01*
X178161628Y-100244278D01*
X178076652Y-100218501D01*
X178025617Y-100191221D01*
X177998337Y-100176640D01*
X177929694Y-100120306D01*
X177873360Y-100051663D01*
X177858779Y-100024383D01*
X177831499Y-99973348D01*
X177805722Y-99888372D01*
X177797019Y-99800000D01*
X177805722Y-99711628D01*
X177831499Y-99626652D01*
X177858779Y-99575617D01*
X177873360Y-99548337D01*
X177929694Y-99479694D01*
X177998337Y-99423360D01*
X178025617Y-99408779D01*
X178076652Y-99381499D01*
X178161628Y-99355722D01*
X178227852Y-99349200D01*
X178772148Y-99349200D01*
X178838372Y-99355722D01*
G37*
G36*
X152652457Y-97459934D02*
G01*
X152662033Y-97462839D01*
X152665013Y-97464432D01*
X152670860Y-97467557D01*
X152670861Y-97467558D01*
X152670863Y-97467559D01*
X152678596Y-97473904D01*
X152684941Y-97481637D01*
X152689661Y-97490467D01*
X152692566Y-97500043D01*
X152693788Y-97512453D01*
X152693788Y-97918713D01*
X152694749Y-97928467D01*
X152697594Y-97937847D01*
X152702214Y-97946491D01*
X152708432Y-97954068D01*
X152716009Y-97960286D01*
X152724653Y-97964906D01*
X152734033Y-97967751D01*
X152743787Y-97968712D01*
X152796213Y-97968712D01*
X152805967Y-97967751D01*
X152815347Y-97964906D01*
X152823991Y-97960286D01*
X152831568Y-97954068D01*
X152837786Y-97946491D01*
X152842406Y-97937847D01*
X152845251Y-97928467D01*
X152846212Y-97918713D01*
X152846212Y-97512453D01*
X152847434Y-97500043D01*
X152850339Y-97490467D01*
X152855059Y-97481637D01*
X152861404Y-97473904D01*
X152869137Y-97467559D01*
X152869139Y-97467558D01*
X152869140Y-97467557D01*
X152874987Y-97464432D01*
X152877967Y-97462839D01*
X152887543Y-97459934D01*
X152899953Y-97458712D01*
X153300047Y-97458712D01*
X153312457Y-97459934D01*
X153322033Y-97462839D01*
X153325013Y-97464432D01*
X153330860Y-97467557D01*
X153330861Y-97467558D01*
X153330863Y-97467559D01*
X153338596Y-97473904D01*
X153344941Y-97481637D01*
X153349661Y-97490467D01*
X153352566Y-97500043D01*
X153353788Y-97512453D01*
X153353788Y-97918713D01*
X153354749Y-97928467D01*
X153357594Y-97937847D01*
X153362214Y-97946491D01*
X153368432Y-97954068D01*
X153376009Y-97960286D01*
X153384653Y-97964906D01*
X153394033Y-97967751D01*
X153403787Y-97968712D01*
X153456213Y-97968712D01*
X153465967Y-97967751D01*
X153475347Y-97964906D01*
X153483991Y-97960286D01*
X153491568Y-97954068D01*
X153497786Y-97946491D01*
X153502406Y-97937847D01*
X153505251Y-97928467D01*
X153506212Y-97918713D01*
X153506212Y-97512453D01*
X153507434Y-97500043D01*
X153510339Y-97490467D01*
X153515059Y-97481637D01*
X153521404Y-97473904D01*
X153529137Y-97467559D01*
X153529139Y-97467558D01*
X153529140Y-97467557D01*
X153534987Y-97464432D01*
X153537967Y-97462839D01*
X153547543Y-97459934D01*
X153559953Y-97458712D01*
X153960047Y-97458712D01*
X153972457Y-97459934D01*
X153982033Y-97462839D01*
X153985013Y-97464432D01*
X153990860Y-97467557D01*
X153990861Y-97467558D01*
X153990863Y-97467559D01*
X153998596Y-97473904D01*
X154004941Y-97481637D01*
X154009661Y-97490467D01*
X154012566Y-97500043D01*
X154013788Y-97512453D01*
X154013788Y-97918713D01*
X154014749Y-97928467D01*
X154017594Y-97937847D01*
X154022214Y-97946491D01*
X154028432Y-97954068D01*
X154036009Y-97960286D01*
X154044653Y-97964906D01*
X154054033Y-97967751D01*
X154063787Y-97968712D01*
X154116213Y-97968712D01*
X154125967Y-97967751D01*
X154135347Y-97964906D01*
X154143991Y-97960286D01*
X154151568Y-97954068D01*
X154157786Y-97946491D01*
X154162406Y-97937847D01*
X154165251Y-97928467D01*
X154166212Y-97918713D01*
X154166212Y-97512453D01*
X154167434Y-97500043D01*
X154170339Y-97490467D01*
X154175059Y-97481637D01*
X154181404Y-97473904D01*
X154189137Y-97467559D01*
X154189139Y-97467558D01*
X154189140Y-97467557D01*
X154194987Y-97464432D01*
X154197967Y-97462839D01*
X154207543Y-97459934D01*
X154219953Y-97458712D01*
X154622547Y-97458712D01*
X154634957Y-97459934D01*
X154644533Y-97462839D01*
X154647513Y-97464432D01*
X154653360Y-97467557D01*
X154653361Y-97467558D01*
X154653363Y-97467559D01*
X154661096Y-97473904D01*
X154667441Y-97481637D01*
X154672161Y-97490467D01*
X154675066Y-97500043D01*
X154676288Y-97512453D01*
X154676288Y-98267547D01*
X154675066Y-98279957D01*
X154672161Y-98289533D01*
X154672160Y-98289534D01*
X154667455Y-98298338D01*
X154667441Y-98298363D01*
X154661096Y-98306096D01*
X154653363Y-98312441D01*
X154653361Y-98312442D01*
X154653360Y-98312443D01*
X154649301Y-98314612D01*
X154644533Y-98317161D01*
X154634274Y-98320273D01*
X154625218Y-98324023D01*
X154617069Y-98329469D01*
X154610138Y-98336399D01*
X154604692Y-98344549D01*
X154600941Y-98353604D01*
X154599029Y-98363217D01*
X154598788Y-98368119D01*
X154598788Y-99742547D01*
X154597566Y-99754957D01*
X154594661Y-99764533D01*
X154589941Y-99773363D01*
X154583596Y-99781096D01*
X154575863Y-99787441D01*
X154575861Y-99787442D01*
X154575860Y-99787443D01*
X154571801Y-99789612D01*
X154567033Y-99792161D01*
X154557457Y-99795066D01*
X154545047Y-99796288D01*
X152314953Y-99796288D01*
X152302543Y-99795066D01*
X152292967Y-99792161D01*
X152288199Y-99789612D01*
X152284140Y-99787443D01*
X152284139Y-99787442D01*
X152284137Y-99787441D01*
X152276404Y-99781096D01*
X152270059Y-99773363D01*
X152265339Y-99764533D01*
X152262434Y-99754957D01*
X152261212Y-99742547D01*
X152261212Y-98368119D01*
X152260251Y-98358365D01*
X152257406Y-98348985D01*
X152252786Y-98340341D01*
X152246568Y-98332764D01*
X152238991Y-98326546D01*
X152230347Y-98321926D01*
X152225726Y-98320273D01*
X152215467Y-98317161D01*
X152210699Y-98314612D01*
X152206640Y-98312443D01*
X152206639Y-98312442D01*
X152206637Y-98312441D01*
X152198904Y-98306096D01*
X152192559Y-98298363D01*
X152192546Y-98298338D01*
X152187840Y-98289534D01*
X152187839Y-98289533D01*
X152184934Y-98279957D01*
X152183712Y-98267547D01*
X152183712Y-97512453D01*
X152184934Y-97500043D01*
X152187839Y-97490467D01*
X152192559Y-97481637D01*
X152198904Y-97473904D01*
X152206637Y-97467559D01*
X152206639Y-97467558D01*
X152206640Y-97467557D01*
X152212487Y-97464432D01*
X152215467Y-97462839D01*
X152225043Y-97459934D01*
X152237453Y-97458712D01*
X152640047Y-97458712D01*
X152652457Y-97459934D01*
G37*
G36*
X168989518Y-97461459D02*
G01*
X168994419Y-97461700D01*
X170210800Y-97461700D01*
X170210800Y-99463300D01*
X168994418Y-99463300D01*
X168989517Y-99463541D01*
X168960000Y-99466448D01*
X168930482Y-99463541D01*
X168925581Y-99463300D01*
X168883447Y-99463300D01*
X168878335Y-99460568D01*
X168864103Y-99457003D01*
X168832421Y-99453883D01*
X168749151Y-99428623D01*
X168709744Y-99416669D01*
X168596689Y-99356240D01*
X168596688Y-99356239D01*
X168596686Y-99356238D01*
X168497589Y-99274911D01*
X168428353Y-99190546D01*
X168416260Y-99175811D01*
X168355831Y-99062755D01*
X168333580Y-98989405D01*
X168318617Y-98940078D01*
X168309200Y-98844462D01*
X168309200Y-98080537D01*
X168318617Y-97984921D01*
X168355831Y-97862245D01*
X168383666Y-97810170D01*
X168416261Y-97749188D01*
X168497590Y-97650089D01*
X168596689Y-97568760D01*
X168709745Y-97508331D01*
X168797743Y-97481637D01*
X168832422Y-97471117D01*
X168864103Y-97467997D01*
X168873715Y-97466085D01*
X168882771Y-97462334D01*
X168883720Y-97461700D01*
X168925582Y-97461700D01*
X168930483Y-97461459D01*
X168960000Y-97458552D01*
X168989518Y-97461459D01*
G37*
G36*
X175989517Y-97461459D02*
G01*
X175994418Y-97461700D01*
X176036553Y-97461700D01*
X176041665Y-97464432D01*
X176055897Y-97467997D01*
X176087578Y-97471117D01*
X176122257Y-97481637D01*
X176210255Y-97508331D01*
X176323311Y-97568760D01*
X176323313Y-97568762D01*
X176422411Y-97650089D01*
X176503738Y-97749186D01*
X176503739Y-97749188D01*
X176503740Y-97749189D01*
X176564169Y-97862244D01*
X176601383Y-97984922D01*
X176610800Y-98080535D01*
X176610800Y-98844465D01*
X176601383Y-98940078D01*
X176564169Y-99062756D01*
X176503740Y-99175812D01*
X176422411Y-99274911D01*
X176323312Y-99356240D01*
X176210256Y-99416669D01*
X176170849Y-99428623D01*
X176087579Y-99453883D01*
X176055896Y-99457003D01*
X176046285Y-99458915D01*
X176037230Y-99462666D01*
X176036281Y-99463300D01*
X175994419Y-99463300D01*
X175989518Y-99463541D01*
X175960000Y-99466448D01*
X175930483Y-99463541D01*
X175925582Y-99463300D01*
X174709200Y-99463300D01*
X174709200Y-97461700D01*
X175925581Y-97461700D01*
X175930482Y-97461459D01*
X175960000Y-97458552D01*
X175989517Y-97461459D01*
G37*
G36*
X174260800Y-99463300D02*
G01*
X172659200Y-99463300D01*
X172659200Y-97461700D01*
X174260800Y-97461700D01*
X174260800Y-99463300D01*
G37*
G36*
X172260800Y-99463300D02*
G01*
X170659200Y-99463300D01*
X170659200Y-97461700D01*
X172260800Y-97461700D01*
X172260800Y-99463300D01*
G37*
G36*
X164501707Y-98392279D02*
G01*
X164529405Y-98400681D01*
X164554934Y-98414327D01*
X164577310Y-98432690D01*
X164595673Y-98455066D01*
X164609319Y-98480595D01*
X164617721Y-98508293D01*
X164620800Y-98539554D01*
X164620800Y-98930446D01*
X164617721Y-98961707D01*
X164609319Y-98989405D01*
X164595673Y-99014934D01*
X164577310Y-99037310D01*
X164554934Y-99055673D01*
X164529405Y-99069319D01*
X164501707Y-99077721D01*
X164470446Y-99080800D01*
X164029554Y-99080800D01*
X163998293Y-99077721D01*
X163970595Y-99069319D01*
X163945066Y-99055673D01*
X163922690Y-99037310D01*
X163904327Y-99014934D01*
X163894894Y-98997287D01*
X163889449Y-98989138D01*
X163882518Y-98982207D01*
X163874368Y-98976762D01*
X163865313Y-98973011D01*
X163855700Y-98971099D01*
X163845898Y-98971099D01*
X163836285Y-98973011D01*
X163827229Y-98976762D01*
X163819080Y-98982207D01*
X163812149Y-98989138D01*
X163806704Y-98997288D01*
X163802953Y-99006343D01*
X163800800Y-99020857D01*
X163800800Y-99300800D01*
X163049200Y-99300800D01*
X163049200Y-98799200D01*
X163829201Y-98799200D01*
X163838955Y-98798239D01*
X163848335Y-98795394D01*
X163856979Y-98790774D01*
X163864556Y-98784556D01*
X163870774Y-98776979D01*
X163875394Y-98768335D01*
X163878239Y-98758955D01*
X163879200Y-98749201D01*
X163879200Y-98539554D01*
X163882279Y-98508293D01*
X163890681Y-98480595D01*
X163904327Y-98455066D01*
X163922690Y-98432690D01*
X163945066Y-98414327D01*
X163970595Y-98400681D01*
X163998293Y-98392279D01*
X164029554Y-98389200D01*
X164470446Y-98389200D01*
X164501707Y-98392279D01*
G37*
G36*
X161900800Y-99300800D02*
G01*
X161149200Y-99300800D01*
X161149200Y-98799200D01*
X161900800Y-98799200D01*
X161900800Y-99300800D01*
G37*
G36*
X160826707Y-98417279D02*
G01*
X160854405Y-98425681D01*
X160879934Y-98439327D01*
X160902310Y-98457690D01*
X160920673Y-98480066D01*
X160934319Y-98505595D01*
X160942721Y-98533293D01*
X160945800Y-98564554D01*
X160945800Y-98955446D01*
X160942721Y-98986707D01*
X160934319Y-99014405D01*
X160920673Y-99039934D01*
X160902310Y-99062310D01*
X160879934Y-99080673D01*
X160854405Y-99094319D01*
X160826707Y-99102721D01*
X160795446Y-99105800D01*
X160354554Y-99105800D01*
X160323293Y-99102721D01*
X160295595Y-99094319D01*
X160270066Y-99080673D01*
X160247690Y-99062310D01*
X160229327Y-99039934D01*
X160215681Y-99014405D01*
X160207279Y-98986707D01*
X160204200Y-98955446D01*
X160204200Y-98564554D01*
X160207279Y-98533293D01*
X160215681Y-98505595D01*
X160229327Y-98480066D01*
X160247690Y-98457690D01*
X160270066Y-98439327D01*
X160295595Y-98425681D01*
X160323293Y-98417279D01*
X160354554Y-98414200D01*
X160795446Y-98414200D01*
X160826707Y-98417279D01*
G37*
G36*
X178838372Y-98105722D02*
G01*
X178923348Y-98131499D01*
X178956463Y-98149200D01*
X179001663Y-98173360D01*
X179070306Y-98229694D01*
X179126640Y-98298337D01*
X179140369Y-98324023D01*
X179168501Y-98376652D01*
X179194278Y-98461628D01*
X179202981Y-98550000D01*
X179194278Y-98638372D01*
X179168501Y-98723348D01*
X179149468Y-98758955D01*
X179126640Y-98801663D01*
X179070306Y-98870306D01*
X179001663Y-98926640D01*
X178994542Y-98930446D01*
X178923348Y-98968501D01*
X178838372Y-98994278D01*
X178772148Y-99000800D01*
X178227852Y-99000800D01*
X178161628Y-98994278D01*
X178076652Y-98968501D01*
X178005458Y-98930446D01*
X177998337Y-98926640D01*
X177929694Y-98870306D01*
X177873360Y-98801663D01*
X177850532Y-98758955D01*
X177831499Y-98723348D01*
X177805722Y-98638372D01*
X177797019Y-98550000D01*
X177805722Y-98461628D01*
X177831499Y-98376652D01*
X177859631Y-98324023D01*
X177873360Y-98298337D01*
X177929694Y-98229694D01*
X177998337Y-98173360D01*
X178043537Y-98149200D01*
X178076652Y-98131499D01*
X178161628Y-98105722D01*
X178227852Y-98099200D01*
X178772148Y-98099200D01*
X178838372Y-98105722D01*
G37*
G36*
X161900800Y-98650800D02*
G01*
X161149200Y-98650800D01*
X161149200Y-98149200D01*
X161900800Y-98149200D01*
X161900800Y-98650800D01*
G37*
G36*
X145139830Y-97374209D02*
G01*
X145209210Y-97402947D01*
X145258269Y-97423268D01*
X145364861Y-97494491D01*
X145455509Y-97585139D01*
X145526732Y-97691731D01*
X145526732Y-97691732D01*
X145575791Y-97810170D01*
X145600800Y-97935900D01*
X145600800Y-98064100D01*
X145575791Y-98189830D01*
X145547053Y-98259210D01*
X145526732Y-98308269D01*
X145455509Y-98414861D01*
X145364861Y-98505509D01*
X145258269Y-98576732D01*
X145233238Y-98587100D01*
X145139830Y-98625791D01*
X145014100Y-98650800D01*
X144885900Y-98650800D01*
X144760170Y-98625791D01*
X144666762Y-98587100D01*
X144641731Y-98576732D01*
X144535139Y-98505509D01*
X144444491Y-98414861D01*
X144373268Y-98308269D01*
X144352947Y-98259210D01*
X144324209Y-98189830D01*
X144299200Y-98064100D01*
X144299200Y-97935900D01*
X144324209Y-97810170D01*
X144373268Y-97691732D01*
X144373268Y-97691731D01*
X144444491Y-97585139D01*
X144535139Y-97494491D01*
X144641731Y-97423268D01*
X144690790Y-97402947D01*
X144760170Y-97374209D01*
X144885900Y-97349200D01*
X145014100Y-97349200D01*
X145139830Y-97374209D01*
G37*
G36*
X166200800Y-98450800D02*
G01*
X165299200Y-98450800D01*
X165299200Y-97449200D01*
X166200800Y-97449200D01*
X166200800Y-98450800D01*
G37*
G36*
X168100800Y-98450800D02*
G01*
X167199200Y-98450800D01*
X167199200Y-97449200D01*
X168100800Y-97449200D01*
X168100800Y-98450800D01*
G37*
G36*
X159811707Y-97432279D02*
G01*
X159839405Y-97440681D01*
X159864934Y-97454327D01*
X159887310Y-97472690D01*
X159905673Y-97495066D01*
X159919319Y-97520595D01*
X159927721Y-97548293D01*
X159930800Y-97579554D01*
X159930800Y-98020446D01*
X159927721Y-98051707D01*
X159919319Y-98079405D01*
X159905673Y-98104934D01*
X159887310Y-98127310D01*
X159864934Y-98145673D01*
X159839405Y-98159319D01*
X159811707Y-98167721D01*
X159780446Y-98170800D01*
X159389554Y-98170800D01*
X159358293Y-98167721D01*
X159330595Y-98159319D01*
X159305066Y-98145673D01*
X159282690Y-98127310D01*
X159264327Y-98104934D01*
X159250681Y-98079405D01*
X159242279Y-98051707D01*
X159239200Y-98020446D01*
X159239200Y-97579554D01*
X159242279Y-97548293D01*
X159250681Y-97520595D01*
X159264327Y-97495066D01*
X159282690Y-97472690D01*
X159305066Y-97454327D01*
X159330595Y-97440681D01*
X159358293Y-97432279D01*
X159389554Y-97429200D01*
X159780446Y-97429200D01*
X159811707Y-97432279D01*
G37*
G36*
X158841707Y-97432279D02*
G01*
X158869405Y-97440681D01*
X158894934Y-97454327D01*
X158917310Y-97472690D01*
X158935673Y-97495066D01*
X158949319Y-97520595D01*
X158957721Y-97548293D01*
X158960800Y-97579554D01*
X158960800Y-98020446D01*
X158957721Y-98051707D01*
X158949319Y-98079405D01*
X158935673Y-98104934D01*
X158917310Y-98127310D01*
X158894934Y-98145673D01*
X158869405Y-98159319D01*
X158841707Y-98167721D01*
X158810446Y-98170800D01*
X158419554Y-98170800D01*
X158388293Y-98167721D01*
X158360595Y-98159319D01*
X158335066Y-98145673D01*
X158312690Y-98127310D01*
X158294327Y-98104934D01*
X158280681Y-98079405D01*
X158272279Y-98051707D01*
X158269200Y-98020446D01*
X158269200Y-97579554D01*
X158272279Y-97548293D01*
X158280681Y-97520595D01*
X158294327Y-97495066D01*
X158312690Y-97472690D01*
X158335066Y-97454327D01*
X158360595Y-97440681D01*
X158388293Y-97432279D01*
X158419554Y-97429200D01*
X158810446Y-97429200D01*
X158841707Y-97432279D01*
G37*
G36*
X160826707Y-97447279D02*
G01*
X160854405Y-97455681D01*
X160879934Y-97469327D01*
X160902310Y-97487690D01*
X160920673Y-97510066D01*
X160934319Y-97535595D01*
X160942721Y-97563293D01*
X160945800Y-97594554D01*
X160945800Y-97985446D01*
X160942721Y-98016707D01*
X160934319Y-98044405D01*
X160920673Y-98069934D01*
X160902310Y-98092310D01*
X160879934Y-98110673D01*
X160854405Y-98124319D01*
X160826707Y-98132721D01*
X160795446Y-98135800D01*
X160354554Y-98135800D01*
X160323293Y-98132721D01*
X160295595Y-98124319D01*
X160270066Y-98110673D01*
X160247690Y-98092310D01*
X160229327Y-98069934D01*
X160215681Y-98044405D01*
X160207279Y-98016707D01*
X160204200Y-97985446D01*
X160204200Y-97594554D01*
X160207279Y-97563293D01*
X160215681Y-97535595D01*
X160229327Y-97510066D01*
X160247690Y-97487690D01*
X160270066Y-97469327D01*
X160295595Y-97455681D01*
X160323293Y-97447279D01*
X160354554Y-97444200D01*
X160795446Y-97444200D01*
X160826707Y-97447279D01*
G37*
G36*
X164501707Y-97422279D02*
G01*
X164529405Y-97430681D01*
X164554934Y-97444327D01*
X164577310Y-97462690D01*
X164595673Y-97485066D01*
X164609319Y-97510595D01*
X164617721Y-97538293D01*
X164620800Y-97569554D01*
X164620800Y-97960446D01*
X164617721Y-97991707D01*
X164609319Y-98019405D01*
X164595673Y-98044934D01*
X164577310Y-98067310D01*
X164554934Y-98085673D01*
X164529405Y-98099319D01*
X164501707Y-98107721D01*
X164470446Y-98110800D01*
X164029554Y-98110800D01*
X163998293Y-98107721D01*
X163970595Y-98099319D01*
X163945066Y-98085673D01*
X163922690Y-98067310D01*
X163904327Y-98044934D01*
X163894863Y-98027229D01*
X163889418Y-98019080D01*
X163882487Y-98012149D01*
X163874337Y-98006704D01*
X163865282Y-98002953D01*
X163850768Y-98000800D01*
X163049200Y-98000800D01*
X163049200Y-97499200D01*
X163805099Y-97499200D01*
X163809226Y-97506921D01*
X163815444Y-97514498D01*
X163823021Y-97520716D01*
X163831665Y-97525336D01*
X163841045Y-97528181D01*
X163850799Y-97529142D01*
X163860553Y-97528181D01*
X163869933Y-97525336D01*
X163878577Y-97520716D01*
X163886154Y-97514498D01*
X163894894Y-97502713D01*
X163904327Y-97485066D01*
X163922690Y-97462690D01*
X163945066Y-97444327D01*
X163970595Y-97430681D01*
X163998293Y-97422279D01*
X164029554Y-97419200D01*
X164470446Y-97419200D01*
X164501707Y-97422279D01*
G37*
G36*
X161900800Y-98000800D02*
G01*
X161149200Y-98000800D01*
X161149200Y-97499200D01*
X161900800Y-97499200D01*
X161900800Y-98000800D01*
G37*
M02*
