G04 #@! TF.GenerationSoftware,KiCad,Pcbnew,5.1.6*
G04 #@! TF.CreationDate,2020-06-25T22:37:20+02:00*
G04 #@! TF.ProjectId,altimeter,616c7469-6d65-4746-9572-2e6b69636164,V 1.2 Rev. A*
G04 #@! TF.SameCoordinates,Original*
G04 #@! TF.FileFunction,Legend,Bot*
G04 #@! TF.FilePolarity,Positive*
%FSLAX46Y46*%
G04 Gerber Fmt 4.6, Leading zero omitted, Abs format (unit mm)*
G04 Created by KiCad (PCBNEW 5.1.6) date 2020-06-25 22:37:20*
%MOMM*%
%LPD*%
G01*
G04 APERTURE LIST*
%ADD10C,0.120000*%
%ADD11C,0.150000*%
%ADD12C,0.100000*%
%ADD13O,2.101600X2.101600*%
%ADD14R,2.101600X2.101600*%
%ADD15R,0.901600X1.001600*%
%ADD16R,0.551600X0.731600*%
%ADD17R,2.701600X1.801600*%
%ADD18R,1.001600X0.551600*%
%ADD19R,5.251600X4.901600*%
%ADD20R,0.476600X0.601600*%
%ADD21R,0.401600X0.751600*%
%ADD22R,0.351600X0.676600*%
%ADD23R,0.676600X0.351600*%
%ADD24O,1.801600X1.801600*%
%ADD25R,1.801600X1.801600*%
%ADD26C,1.301600*%
%ADD27O,1.901600X1.301600*%
%ADD28R,0.501600X0.751600*%
%ADD29C,0.901600*%
%ADD30C,6.501600*%
%ADD31O,1.301600X2.001600*%
%ADD32C,1.551600*%
%ADD33R,1.091600X0.506600*%
%ADD34O,1.401600X0.901600*%
%ADD35R,0.651600X1.051600*%
G04 APERTURE END LIST*
D10*
X149340000Y-103848748D02*
X149340000Y-104371252D01*
X150760000Y-103848748D02*
X150760000Y-104371252D01*
X172820000Y-117810000D02*
X175120000Y-117810000D01*
X175120000Y-117810000D02*
X175120000Y-120510000D01*
X153638748Y-104910000D02*
X154161252Y-104910000D01*
X153638748Y-103490000D02*
X154161252Y-103490000D01*
X163546000Y-106584000D02*
X163546000Y-105634000D01*
X163546000Y-105634000D02*
X164496000Y-105634000D01*
X163546000Y-114904000D02*
X163546000Y-115854000D01*
X163546000Y-115854000D02*
X164496000Y-115854000D01*
X173766000Y-106584000D02*
X173766000Y-105634000D01*
X173766000Y-105634000D02*
X172816000Y-105634000D01*
X173766000Y-114904000D02*
X173766000Y-115854000D01*
X173766000Y-115854000D02*
X172816000Y-115854000D01*
X172816000Y-115854000D02*
X172816000Y-117194000D01*
D11*
X151283400Y-99552500D02*
X151283400Y-102307500D01*
X154583400Y-100257500D02*
X154583400Y-102307500D01*
D10*
X153331678Y-98982600D02*
X152814522Y-98982600D01*
X153331678Y-97562600D02*
X152814522Y-97562600D01*
X150253600Y-119000000D02*
G75*
G03*
X150253600Y-119000000I-348600J0D01*
G01*
X150195801Y-119000000D02*
G75*
G03*
X150195801Y-119000000I-290801J0D01*
G01*
X150077708Y-119000000D02*
G75*
G03*
X150077708Y-119000000I-172708J0D01*
G01*
X149990726Y-119000000D02*
G75*
G03*
X149990726Y-119000000I-85726J0D01*
G01*
X149905000Y-119000000D02*
X158705000Y-119000000D01*
X158705000Y-119000000D02*
X158705000Y-112600000D01*
X149905000Y-112600000D02*
X158705000Y-112600000D01*
X149905000Y-119000000D02*
X149905000Y-112600000D01*
X173700000Y-99850000D02*
X173700000Y-101750000D01*
X171900000Y-101450000D02*
X171900000Y-99850000D01*
X160540000Y-111230000D02*
X160540000Y-110780000D01*
X160540000Y-111230000D02*
X159390000Y-111230000D01*
X160840000Y-110780000D02*
X160840000Y-111530000D01*
X160840000Y-111530000D02*
X160090000Y-111530000D01*
X160540000Y-106730000D02*
X160540000Y-107180000D01*
X160540000Y-106730000D02*
X159390000Y-106730000D01*
X158690000Y-106730000D02*
X157540000Y-106730000D01*
X157540000Y-106730000D02*
X157540000Y-107180000D01*
X158690000Y-111230000D02*
X157540000Y-111230000D01*
X157540000Y-111230000D02*
X157540000Y-110780000D01*
X143460000Y-115800000D02*
X143460000Y-117700000D01*
X141140000Y-117200000D02*
X141140000Y-115800000D01*
X139890000Y-116328733D02*
X139890000Y-116671267D01*
X140910000Y-116328733D02*
X140910000Y-116671267D01*
X156510000Y-101171267D02*
X156510000Y-100828733D01*
X155490000Y-101171267D02*
X155490000Y-100828733D01*
X144035200Y-105280367D02*
X144035200Y-104937833D01*
X143015200Y-105280367D02*
X143015200Y-104937833D01*
X144035200Y-102080367D02*
X144035200Y-101737833D01*
X143015200Y-102080367D02*
X143015200Y-101737833D01*
X144035200Y-98880367D02*
X144035200Y-98537833D01*
X143015200Y-98880367D02*
X143015200Y-98537833D01*
X140272500Y-114542500D02*
X143777500Y-114542500D01*
X140507500Y-111262500D02*
X143777500Y-111262500D01*
X140507500Y-111607500D02*
X140507500Y-111272500D01*
X143777500Y-111607500D02*
X143777500Y-111272500D01*
X143777500Y-114542500D02*
X143777500Y-114207500D01*
X140255700Y-110639100D02*
X143760700Y-110639100D01*
X140490700Y-107359100D02*
X143760700Y-107359100D01*
X140490700Y-107704100D02*
X140490700Y-107369100D01*
X143760700Y-107704100D02*
X143760700Y-107369100D01*
X143760700Y-110639100D02*
X143760700Y-110304100D01*
X142585200Y-104409100D02*
X142585200Y-106309100D01*
X140265200Y-105809100D02*
X140265200Y-104409100D01*
X142585200Y-101209100D02*
X142585200Y-103109100D01*
X140265200Y-102609100D02*
X140265200Y-101209100D01*
X142585200Y-98009100D02*
X142585200Y-99909100D01*
X140265200Y-99409100D02*
X140265200Y-98009100D01*
X160200000Y-102160000D02*
X158250000Y-102160000D01*
X160200000Y-102160000D02*
X162150000Y-102160000D01*
X160200000Y-97040000D02*
X158250000Y-97040000D01*
X160200000Y-97040000D02*
X163650000Y-97040000D01*
X157040000Y-102840000D02*
X157040000Y-103790000D01*
X162240000Y-102740000D02*
X161740000Y-102740000D01*
X162240000Y-103240000D02*
X162240000Y-102740000D01*
X162240000Y-106040000D02*
X162240000Y-105540000D01*
X161740000Y-106040000D02*
X162240000Y-106040000D01*
X157040000Y-106040000D02*
X157540000Y-106040000D01*
X157040000Y-105540000D02*
X157040000Y-106040000D01*
D11*
X172122380Y-117580952D02*
X171646190Y-117247619D01*
X172122380Y-117009523D02*
X171122380Y-117009523D01*
X171122380Y-117390476D01*
X171170000Y-117485714D01*
X171217619Y-117533333D01*
X171312857Y-117580952D01*
X171455714Y-117580952D01*
X171550952Y-117533333D01*
X171598571Y-117485714D01*
X171646190Y-117390476D01*
X171646190Y-117009523D01*
X172122380Y-118533333D02*
X172122380Y-117961904D01*
X172122380Y-118247619D02*
X171122380Y-118247619D01*
X171265238Y-118152380D01*
X171360476Y-118057142D01*
X171408095Y-117961904D01*
X171122380Y-119152380D02*
X171122380Y-119247619D01*
X171170000Y-119342857D01*
X171217619Y-119390476D01*
X171312857Y-119438095D01*
X171503333Y-119485714D01*
X171741428Y-119485714D01*
X171931904Y-119438095D01*
X172027142Y-119390476D01*
X172074761Y-119342857D01*
X172122380Y-119247619D01*
X172122380Y-119152380D01*
X172074761Y-119057142D01*
X172027142Y-119009523D01*
X171931904Y-118961904D01*
X171741428Y-118914285D01*
X171503333Y-118914285D01*
X171312857Y-118961904D01*
X171217619Y-119009523D01*
X171170000Y-119057142D01*
X171122380Y-119152380D01*
X172122380Y-119961904D02*
X172122380Y-120152380D01*
X172074761Y-120247619D01*
X172027142Y-120295238D01*
X171884285Y-120390476D01*
X171693809Y-120438095D01*
X171312857Y-120438095D01*
X171217619Y-120390476D01*
X171170000Y-120342857D01*
X171122380Y-120247619D01*
X171122380Y-120057142D01*
X171170000Y-119961904D01*
X171217619Y-119914285D01*
X171312857Y-119866666D01*
X171550952Y-119866666D01*
X171646190Y-119914285D01*
X171693809Y-119961904D01*
X171741428Y-120057142D01*
X171741428Y-120247619D01*
X171693809Y-120342857D01*
X171646190Y-120390476D01*
X171550952Y-120438095D01*
%LPC*%
D12*
G36*
X182250000Y-119500000D02*
G01*
X180750000Y-119500000D01*
X180750000Y-114750000D01*
X182250000Y-114750000D01*
X182250000Y-119500000D01*
G37*
X182250000Y-119500000D02*
X180750000Y-119500000D01*
X180750000Y-114750000D01*
X182250000Y-114750000D01*
X182250000Y-119500000D01*
G36*
G01*
X170697900Y-118560800D02*
X170302100Y-118560800D01*
G75*
G02*
X170129200Y-118387900I0J172900D01*
G01*
X170129200Y-118042100D01*
G75*
G02*
X170302100Y-117869200I172900J0D01*
G01*
X170697900Y-117869200D01*
G75*
G02*
X170870800Y-118042100I0J-172900D01*
G01*
X170870800Y-118387900D01*
G75*
G02*
X170697900Y-118560800I-172900J0D01*
G01*
G37*
G36*
G01*
X170697900Y-119530800D02*
X170302100Y-119530800D01*
G75*
G02*
X170129200Y-119357900I0J172900D01*
G01*
X170129200Y-119012100D01*
G75*
G02*
X170302100Y-118839200I172900J0D01*
G01*
X170697900Y-118839200D01*
G75*
G02*
X170870800Y-119012100I0J-172900D01*
G01*
X170870800Y-119357900D01*
G75*
G02*
X170697900Y-119530800I-172900J0D01*
G01*
G37*
D13*
X165000000Y-100400000D03*
D14*
X150000000Y-100400000D03*
G36*
G01*
X149571286Y-104509200D02*
X150528714Y-104509200D01*
G75*
G02*
X150800800Y-104781286I0J-272086D01*
G01*
X150800800Y-105488714D01*
G75*
G02*
X150528714Y-105760800I-272086J0D01*
G01*
X149571286Y-105760800D01*
G75*
G02*
X149299200Y-105488714I0J272086D01*
G01*
X149299200Y-104781286D01*
G75*
G02*
X149571286Y-104509200I272086J0D01*
G01*
G37*
G36*
G01*
X149571286Y-102459200D02*
X150528714Y-102459200D01*
G75*
G02*
X150800800Y-102731286I0J-272086D01*
G01*
X150800800Y-103438714D01*
G75*
G02*
X150528714Y-103710800I-272086J0D01*
G01*
X149571286Y-103710800D01*
G75*
G02*
X149299200Y-103438714I0J272086D01*
G01*
X149299200Y-102731286D01*
G75*
G02*
X149571286Y-102459200I272086J0D01*
G01*
G37*
G36*
G01*
X168402100Y-103089200D02*
X168797900Y-103089200D01*
G75*
G02*
X168970800Y-103262100I0J-172900D01*
G01*
X168970800Y-103607900D01*
G75*
G02*
X168797900Y-103780800I-172900J0D01*
G01*
X168402100Y-103780800D01*
G75*
G02*
X168229200Y-103607900I0J172900D01*
G01*
X168229200Y-103262100D01*
G75*
G02*
X168402100Y-103089200I172900J0D01*
G01*
G37*
G36*
G01*
X168402100Y-102119200D02*
X168797900Y-102119200D01*
G75*
G02*
X168970800Y-102292100I0J-172900D01*
G01*
X168970800Y-102637900D01*
G75*
G02*
X168797900Y-102810800I-172900J0D01*
G01*
X168402100Y-102810800D01*
G75*
G02*
X168229200Y-102637900I0J172900D01*
G01*
X168229200Y-102292100D01*
G75*
G02*
X168402100Y-102119200I172900J0D01*
G01*
G37*
G36*
G01*
X163302100Y-104419200D02*
X163697900Y-104419200D01*
G75*
G02*
X163870800Y-104592100I0J-172900D01*
G01*
X163870800Y-104937900D01*
G75*
G02*
X163697900Y-105110800I-172900J0D01*
G01*
X163302100Y-105110800D01*
G75*
G02*
X163129200Y-104937900I0J172900D01*
G01*
X163129200Y-104592100D01*
G75*
G02*
X163302100Y-104419200I172900J0D01*
G01*
G37*
G36*
G01*
X163302100Y-103449200D02*
X163697900Y-103449200D01*
G75*
G02*
X163870800Y-103622100I0J-172900D01*
G01*
X163870800Y-103967900D01*
G75*
G02*
X163697900Y-104140800I-172900J0D01*
G01*
X163302100Y-104140800D01*
G75*
G02*
X163129200Y-103967900I0J172900D01*
G01*
X163129200Y-103622100D01*
G75*
G02*
X163302100Y-103449200I172900J0D01*
G01*
G37*
G36*
G01*
X176749200Y-112497900D02*
X176749200Y-112102100D01*
G75*
G02*
X176922100Y-111929200I172900J0D01*
G01*
X177267900Y-111929200D01*
G75*
G02*
X177440800Y-112102100I0J-172900D01*
G01*
X177440800Y-112497900D01*
G75*
G02*
X177267900Y-112670800I-172900J0D01*
G01*
X176922100Y-112670800D01*
G75*
G02*
X176749200Y-112497900I0J172900D01*
G01*
G37*
G36*
G01*
X175779200Y-112497900D02*
X175779200Y-112102100D01*
G75*
G02*
X175952100Y-111929200I172900J0D01*
G01*
X176297900Y-111929200D01*
G75*
G02*
X176470800Y-112102100I0J-172900D01*
G01*
X176470800Y-112497900D01*
G75*
G02*
X176297900Y-112670800I-172900J0D01*
G01*
X175952100Y-112670800D01*
G75*
G02*
X175779200Y-112497900I0J172900D01*
G01*
G37*
D15*
X173420000Y-118460000D03*
X173420000Y-119860000D03*
X174520000Y-119860000D03*
X174520000Y-118460000D03*
G36*
G01*
X174512100Y-104509200D02*
X174907900Y-104509200D01*
G75*
G02*
X175080800Y-104682100I0J-172900D01*
G01*
X175080800Y-105027900D01*
G75*
G02*
X174907900Y-105200800I-172900J0D01*
G01*
X174512100Y-105200800D01*
G75*
G02*
X174339200Y-105027900I0J172900D01*
G01*
X174339200Y-104682100D01*
G75*
G02*
X174512100Y-104509200I172900J0D01*
G01*
G37*
G36*
G01*
X174512100Y-103539200D02*
X174907900Y-103539200D01*
G75*
G02*
X175080800Y-103712100I0J-172900D01*
G01*
X175080800Y-104057900D01*
G75*
G02*
X174907900Y-104230800I-172900J0D01*
G01*
X174512100Y-104230800D01*
G75*
G02*
X174339200Y-104057900I0J172900D01*
G01*
X174339200Y-103712100D01*
G75*
G02*
X174512100Y-103539200I172900J0D01*
G01*
G37*
G36*
G01*
X154299200Y-104678714D02*
X154299200Y-103721286D01*
G75*
G02*
X154571286Y-103449200I272086J0D01*
G01*
X155278714Y-103449200D01*
G75*
G02*
X155550800Y-103721286I0J-272086D01*
G01*
X155550800Y-104678714D01*
G75*
G02*
X155278714Y-104950800I-272086J0D01*
G01*
X154571286Y-104950800D01*
G75*
G02*
X154299200Y-104678714I0J272086D01*
G01*
G37*
G36*
G01*
X152249200Y-104678714D02*
X152249200Y-103721286D01*
G75*
G02*
X152521286Y-103449200I272086J0D01*
G01*
X153228714Y-103449200D01*
G75*
G02*
X153500800Y-103721286I0J-272086D01*
G01*
X153500800Y-104678714D01*
G75*
G02*
X153228714Y-104950800I-272086J0D01*
G01*
X152521286Y-104950800D01*
G75*
G02*
X152249200Y-104678714I0J272086D01*
G01*
G37*
G36*
G01*
X156062100Y-98639200D02*
X156457900Y-98639200D01*
G75*
G02*
X156630800Y-98812100I0J-172900D01*
G01*
X156630800Y-99157900D01*
G75*
G02*
X156457900Y-99330800I-172900J0D01*
G01*
X156062100Y-99330800D01*
G75*
G02*
X155889200Y-99157900I0J172900D01*
G01*
X155889200Y-98812100D01*
G75*
G02*
X156062100Y-98639200I172900J0D01*
G01*
G37*
G36*
G01*
X156062100Y-97669200D02*
X156457900Y-97669200D01*
G75*
G02*
X156630800Y-97842100I0J-172900D01*
G01*
X156630800Y-98187900D01*
G75*
G02*
X156457900Y-98360800I-172900J0D01*
G01*
X156062100Y-98360800D01*
G75*
G02*
X155889200Y-98187900I0J172900D01*
G01*
X155889200Y-97842100D01*
G75*
G02*
X156062100Y-97669200I172900J0D01*
G01*
G37*
G36*
G01*
X162857900Y-104150800D02*
X162462100Y-104150800D01*
G75*
G02*
X162289200Y-103977900I0J172900D01*
G01*
X162289200Y-103632100D01*
G75*
G02*
X162462100Y-103459200I172900J0D01*
G01*
X162857900Y-103459200D01*
G75*
G02*
X163030800Y-103632100I0J-172900D01*
G01*
X163030800Y-103977900D01*
G75*
G02*
X162857900Y-104150800I-172900J0D01*
G01*
G37*
G36*
G01*
X162857900Y-105120800D02*
X162462100Y-105120800D01*
G75*
G02*
X162289200Y-104947900I0J172900D01*
G01*
X162289200Y-104602100D01*
G75*
G02*
X162462100Y-104429200I172900J0D01*
G01*
X162857900Y-104429200D01*
G75*
G02*
X163030800Y-104602100I0J-172900D01*
G01*
X163030800Y-104947900D01*
G75*
G02*
X162857900Y-105120800I-172900J0D01*
G01*
G37*
G36*
G01*
X175056400Y-114694800D02*
X173605600Y-114694800D01*
G75*
G02*
X173505200Y-114594400I0J100400D01*
G01*
X173505200Y-114393600D01*
G75*
G02*
X173605600Y-114293200I100400J0D01*
G01*
X175056400Y-114293200D01*
G75*
G02*
X175156800Y-114393600I0J-100400D01*
G01*
X175156800Y-114594400D01*
G75*
G02*
X175056400Y-114694800I-100400J0D01*
G01*
G37*
G36*
G01*
X175056400Y-114194800D02*
X173605600Y-114194800D01*
G75*
G02*
X173505200Y-114094400I0J100400D01*
G01*
X173505200Y-113893600D01*
G75*
G02*
X173605600Y-113793200I100400J0D01*
G01*
X175056400Y-113793200D01*
G75*
G02*
X175156800Y-113893600I0J-100400D01*
G01*
X175156800Y-114094400D01*
G75*
G02*
X175056400Y-114194800I-100400J0D01*
G01*
G37*
G36*
G01*
X175056400Y-113694800D02*
X173605600Y-113694800D01*
G75*
G02*
X173505200Y-113594400I0J100400D01*
G01*
X173505200Y-113393600D01*
G75*
G02*
X173605600Y-113293200I100400J0D01*
G01*
X175056400Y-113293200D01*
G75*
G02*
X175156800Y-113393600I0J-100400D01*
G01*
X175156800Y-113594400D01*
G75*
G02*
X175056400Y-113694800I-100400J0D01*
G01*
G37*
G36*
G01*
X175056400Y-113194800D02*
X173605600Y-113194800D01*
G75*
G02*
X173505200Y-113094400I0J100400D01*
G01*
X173505200Y-112893600D01*
G75*
G02*
X173605600Y-112793200I100400J0D01*
G01*
X175056400Y-112793200D01*
G75*
G02*
X175156800Y-112893600I0J-100400D01*
G01*
X175156800Y-113094400D01*
G75*
G02*
X175056400Y-113194800I-100400J0D01*
G01*
G37*
G36*
G01*
X175056400Y-112694800D02*
X173605600Y-112694800D01*
G75*
G02*
X173505200Y-112594400I0J100400D01*
G01*
X173505200Y-112393600D01*
G75*
G02*
X173605600Y-112293200I100400J0D01*
G01*
X175056400Y-112293200D01*
G75*
G02*
X175156800Y-112393600I0J-100400D01*
G01*
X175156800Y-112594400D01*
G75*
G02*
X175056400Y-112694800I-100400J0D01*
G01*
G37*
G36*
G01*
X175056400Y-112194800D02*
X173605600Y-112194800D01*
G75*
G02*
X173505200Y-112094400I0J100400D01*
G01*
X173505200Y-111893600D01*
G75*
G02*
X173605600Y-111793200I100400J0D01*
G01*
X175056400Y-111793200D01*
G75*
G02*
X175156800Y-111893600I0J-100400D01*
G01*
X175156800Y-112094400D01*
G75*
G02*
X175056400Y-112194800I-100400J0D01*
G01*
G37*
G36*
G01*
X175056400Y-111694800D02*
X173605600Y-111694800D01*
G75*
G02*
X173505200Y-111594400I0J100400D01*
G01*
X173505200Y-111393600D01*
G75*
G02*
X173605600Y-111293200I100400J0D01*
G01*
X175056400Y-111293200D01*
G75*
G02*
X175156800Y-111393600I0J-100400D01*
G01*
X175156800Y-111594400D01*
G75*
G02*
X175056400Y-111694800I-100400J0D01*
G01*
G37*
G36*
G01*
X175056400Y-111194800D02*
X173605600Y-111194800D01*
G75*
G02*
X173505200Y-111094400I0J100400D01*
G01*
X173505200Y-110893600D01*
G75*
G02*
X173605600Y-110793200I100400J0D01*
G01*
X175056400Y-110793200D01*
G75*
G02*
X175156800Y-110893600I0J-100400D01*
G01*
X175156800Y-111094400D01*
G75*
G02*
X175056400Y-111194800I-100400J0D01*
G01*
G37*
G36*
G01*
X175056400Y-110694800D02*
X173605600Y-110694800D01*
G75*
G02*
X173505200Y-110594400I0J100400D01*
G01*
X173505200Y-110393600D01*
G75*
G02*
X173605600Y-110293200I100400J0D01*
G01*
X175056400Y-110293200D01*
G75*
G02*
X175156800Y-110393600I0J-100400D01*
G01*
X175156800Y-110594400D01*
G75*
G02*
X175056400Y-110694800I-100400J0D01*
G01*
G37*
G36*
G01*
X175056400Y-110194800D02*
X173605600Y-110194800D01*
G75*
G02*
X173505200Y-110094400I0J100400D01*
G01*
X173505200Y-109893600D01*
G75*
G02*
X173605600Y-109793200I100400J0D01*
G01*
X175056400Y-109793200D01*
G75*
G02*
X175156800Y-109893600I0J-100400D01*
G01*
X175156800Y-110094400D01*
G75*
G02*
X175056400Y-110194800I-100400J0D01*
G01*
G37*
G36*
G01*
X175056400Y-109694800D02*
X173605600Y-109694800D01*
G75*
G02*
X173505200Y-109594400I0J100400D01*
G01*
X173505200Y-109393600D01*
G75*
G02*
X173605600Y-109293200I100400J0D01*
G01*
X175056400Y-109293200D01*
G75*
G02*
X175156800Y-109393600I0J-100400D01*
G01*
X175156800Y-109594400D01*
G75*
G02*
X175056400Y-109694800I-100400J0D01*
G01*
G37*
G36*
G01*
X175056400Y-109194800D02*
X173605600Y-109194800D01*
G75*
G02*
X173505200Y-109094400I0J100400D01*
G01*
X173505200Y-108893600D01*
G75*
G02*
X173605600Y-108793200I100400J0D01*
G01*
X175056400Y-108793200D01*
G75*
G02*
X175156800Y-108893600I0J-100400D01*
G01*
X175156800Y-109094400D01*
G75*
G02*
X175056400Y-109194800I-100400J0D01*
G01*
G37*
G36*
G01*
X175056400Y-108694800D02*
X173605600Y-108694800D01*
G75*
G02*
X173505200Y-108594400I0J100400D01*
G01*
X173505200Y-108393600D01*
G75*
G02*
X173605600Y-108293200I100400J0D01*
G01*
X175056400Y-108293200D01*
G75*
G02*
X175156800Y-108393600I0J-100400D01*
G01*
X175156800Y-108594400D01*
G75*
G02*
X175056400Y-108694800I-100400J0D01*
G01*
G37*
G36*
G01*
X175056400Y-108194800D02*
X173605600Y-108194800D01*
G75*
G02*
X173505200Y-108094400I0J100400D01*
G01*
X173505200Y-107893600D01*
G75*
G02*
X173605600Y-107793200I100400J0D01*
G01*
X175056400Y-107793200D01*
G75*
G02*
X175156800Y-107893600I0J-100400D01*
G01*
X175156800Y-108094400D01*
G75*
G02*
X175056400Y-108194800I-100400J0D01*
G01*
G37*
G36*
G01*
X175056400Y-107694800D02*
X173605600Y-107694800D01*
G75*
G02*
X173505200Y-107594400I0J100400D01*
G01*
X173505200Y-107393600D01*
G75*
G02*
X173605600Y-107293200I100400J0D01*
G01*
X175056400Y-107293200D01*
G75*
G02*
X175156800Y-107393600I0J-100400D01*
G01*
X175156800Y-107594400D01*
G75*
G02*
X175056400Y-107694800I-100400J0D01*
G01*
G37*
G36*
G01*
X175056400Y-107194800D02*
X173605600Y-107194800D01*
G75*
G02*
X173505200Y-107094400I0J100400D01*
G01*
X173505200Y-106893600D01*
G75*
G02*
X173605600Y-106793200I100400J0D01*
G01*
X175056400Y-106793200D01*
G75*
G02*
X175156800Y-106893600I0J-100400D01*
G01*
X175156800Y-107094400D01*
G75*
G02*
X175056400Y-107194800I-100400J0D01*
G01*
G37*
G36*
G01*
X172506400Y-105894800D02*
X172305600Y-105894800D01*
G75*
G02*
X172205200Y-105794400I0J100400D01*
G01*
X172205200Y-104343600D01*
G75*
G02*
X172305600Y-104243200I100400J0D01*
G01*
X172506400Y-104243200D01*
G75*
G02*
X172606800Y-104343600I0J-100400D01*
G01*
X172606800Y-105794400D01*
G75*
G02*
X172506400Y-105894800I-100400J0D01*
G01*
G37*
G36*
G01*
X172006400Y-105894800D02*
X171805600Y-105894800D01*
G75*
G02*
X171705200Y-105794400I0J100400D01*
G01*
X171705200Y-104343600D01*
G75*
G02*
X171805600Y-104243200I100400J0D01*
G01*
X172006400Y-104243200D01*
G75*
G02*
X172106800Y-104343600I0J-100400D01*
G01*
X172106800Y-105794400D01*
G75*
G02*
X172006400Y-105894800I-100400J0D01*
G01*
G37*
G36*
G01*
X171506400Y-105894800D02*
X171305600Y-105894800D01*
G75*
G02*
X171205200Y-105794400I0J100400D01*
G01*
X171205200Y-104343600D01*
G75*
G02*
X171305600Y-104243200I100400J0D01*
G01*
X171506400Y-104243200D01*
G75*
G02*
X171606800Y-104343600I0J-100400D01*
G01*
X171606800Y-105794400D01*
G75*
G02*
X171506400Y-105894800I-100400J0D01*
G01*
G37*
G36*
G01*
X171006400Y-105894800D02*
X170805600Y-105894800D01*
G75*
G02*
X170705200Y-105794400I0J100400D01*
G01*
X170705200Y-104343600D01*
G75*
G02*
X170805600Y-104243200I100400J0D01*
G01*
X171006400Y-104243200D01*
G75*
G02*
X171106800Y-104343600I0J-100400D01*
G01*
X171106800Y-105794400D01*
G75*
G02*
X171006400Y-105894800I-100400J0D01*
G01*
G37*
G36*
G01*
X170506400Y-105894800D02*
X170305600Y-105894800D01*
G75*
G02*
X170205200Y-105794400I0J100400D01*
G01*
X170205200Y-104343600D01*
G75*
G02*
X170305600Y-104243200I100400J0D01*
G01*
X170506400Y-104243200D01*
G75*
G02*
X170606800Y-104343600I0J-100400D01*
G01*
X170606800Y-105794400D01*
G75*
G02*
X170506400Y-105894800I-100400J0D01*
G01*
G37*
G36*
G01*
X170006400Y-105894800D02*
X169805600Y-105894800D01*
G75*
G02*
X169705200Y-105794400I0J100400D01*
G01*
X169705200Y-104343600D01*
G75*
G02*
X169805600Y-104243200I100400J0D01*
G01*
X170006400Y-104243200D01*
G75*
G02*
X170106800Y-104343600I0J-100400D01*
G01*
X170106800Y-105794400D01*
G75*
G02*
X170006400Y-105894800I-100400J0D01*
G01*
G37*
G36*
G01*
X169506400Y-105894800D02*
X169305600Y-105894800D01*
G75*
G02*
X169205200Y-105794400I0J100400D01*
G01*
X169205200Y-104343600D01*
G75*
G02*
X169305600Y-104243200I100400J0D01*
G01*
X169506400Y-104243200D01*
G75*
G02*
X169606800Y-104343600I0J-100400D01*
G01*
X169606800Y-105794400D01*
G75*
G02*
X169506400Y-105894800I-100400J0D01*
G01*
G37*
G36*
G01*
X169006400Y-105894800D02*
X168805600Y-105894800D01*
G75*
G02*
X168705200Y-105794400I0J100400D01*
G01*
X168705200Y-104343600D01*
G75*
G02*
X168805600Y-104243200I100400J0D01*
G01*
X169006400Y-104243200D01*
G75*
G02*
X169106800Y-104343600I0J-100400D01*
G01*
X169106800Y-105794400D01*
G75*
G02*
X169006400Y-105894800I-100400J0D01*
G01*
G37*
G36*
G01*
X168506400Y-105894800D02*
X168305600Y-105894800D01*
G75*
G02*
X168205200Y-105794400I0J100400D01*
G01*
X168205200Y-104343600D01*
G75*
G02*
X168305600Y-104243200I100400J0D01*
G01*
X168506400Y-104243200D01*
G75*
G02*
X168606800Y-104343600I0J-100400D01*
G01*
X168606800Y-105794400D01*
G75*
G02*
X168506400Y-105894800I-100400J0D01*
G01*
G37*
G36*
G01*
X168006400Y-105894800D02*
X167805600Y-105894800D01*
G75*
G02*
X167705200Y-105794400I0J100400D01*
G01*
X167705200Y-104343600D01*
G75*
G02*
X167805600Y-104243200I100400J0D01*
G01*
X168006400Y-104243200D01*
G75*
G02*
X168106800Y-104343600I0J-100400D01*
G01*
X168106800Y-105794400D01*
G75*
G02*
X168006400Y-105894800I-100400J0D01*
G01*
G37*
G36*
G01*
X167506400Y-105894800D02*
X167305600Y-105894800D01*
G75*
G02*
X167205200Y-105794400I0J100400D01*
G01*
X167205200Y-104343600D01*
G75*
G02*
X167305600Y-104243200I100400J0D01*
G01*
X167506400Y-104243200D01*
G75*
G02*
X167606800Y-104343600I0J-100400D01*
G01*
X167606800Y-105794400D01*
G75*
G02*
X167506400Y-105894800I-100400J0D01*
G01*
G37*
G36*
G01*
X167006400Y-105894800D02*
X166805600Y-105894800D01*
G75*
G02*
X166705200Y-105794400I0J100400D01*
G01*
X166705200Y-104343600D01*
G75*
G02*
X166805600Y-104243200I100400J0D01*
G01*
X167006400Y-104243200D01*
G75*
G02*
X167106800Y-104343600I0J-100400D01*
G01*
X167106800Y-105794400D01*
G75*
G02*
X167006400Y-105894800I-100400J0D01*
G01*
G37*
G36*
G01*
X166506400Y-105894800D02*
X166305600Y-105894800D01*
G75*
G02*
X166205200Y-105794400I0J100400D01*
G01*
X166205200Y-104343600D01*
G75*
G02*
X166305600Y-104243200I100400J0D01*
G01*
X166506400Y-104243200D01*
G75*
G02*
X166606800Y-104343600I0J-100400D01*
G01*
X166606800Y-105794400D01*
G75*
G02*
X166506400Y-105894800I-100400J0D01*
G01*
G37*
G36*
G01*
X166006400Y-105894800D02*
X165805600Y-105894800D01*
G75*
G02*
X165705200Y-105794400I0J100400D01*
G01*
X165705200Y-104343600D01*
G75*
G02*
X165805600Y-104243200I100400J0D01*
G01*
X166006400Y-104243200D01*
G75*
G02*
X166106800Y-104343600I0J-100400D01*
G01*
X166106800Y-105794400D01*
G75*
G02*
X166006400Y-105894800I-100400J0D01*
G01*
G37*
G36*
G01*
X165506400Y-105894800D02*
X165305600Y-105894800D01*
G75*
G02*
X165205200Y-105794400I0J100400D01*
G01*
X165205200Y-104343600D01*
G75*
G02*
X165305600Y-104243200I100400J0D01*
G01*
X165506400Y-104243200D01*
G75*
G02*
X165606800Y-104343600I0J-100400D01*
G01*
X165606800Y-105794400D01*
G75*
G02*
X165506400Y-105894800I-100400J0D01*
G01*
G37*
G36*
G01*
X165006400Y-105894800D02*
X164805600Y-105894800D01*
G75*
G02*
X164705200Y-105794400I0J100400D01*
G01*
X164705200Y-104343600D01*
G75*
G02*
X164805600Y-104243200I100400J0D01*
G01*
X165006400Y-104243200D01*
G75*
G02*
X165106800Y-104343600I0J-100400D01*
G01*
X165106800Y-105794400D01*
G75*
G02*
X165006400Y-105894800I-100400J0D01*
G01*
G37*
G36*
G01*
X163706400Y-107194800D02*
X162255600Y-107194800D01*
G75*
G02*
X162155200Y-107094400I0J100400D01*
G01*
X162155200Y-106893600D01*
G75*
G02*
X162255600Y-106793200I100400J0D01*
G01*
X163706400Y-106793200D01*
G75*
G02*
X163806800Y-106893600I0J-100400D01*
G01*
X163806800Y-107094400D01*
G75*
G02*
X163706400Y-107194800I-100400J0D01*
G01*
G37*
G36*
G01*
X163706400Y-107694800D02*
X162255600Y-107694800D01*
G75*
G02*
X162155200Y-107594400I0J100400D01*
G01*
X162155200Y-107393600D01*
G75*
G02*
X162255600Y-107293200I100400J0D01*
G01*
X163706400Y-107293200D01*
G75*
G02*
X163806800Y-107393600I0J-100400D01*
G01*
X163806800Y-107594400D01*
G75*
G02*
X163706400Y-107694800I-100400J0D01*
G01*
G37*
G36*
G01*
X163706400Y-108194800D02*
X162255600Y-108194800D01*
G75*
G02*
X162155200Y-108094400I0J100400D01*
G01*
X162155200Y-107893600D01*
G75*
G02*
X162255600Y-107793200I100400J0D01*
G01*
X163706400Y-107793200D01*
G75*
G02*
X163806800Y-107893600I0J-100400D01*
G01*
X163806800Y-108094400D01*
G75*
G02*
X163706400Y-108194800I-100400J0D01*
G01*
G37*
G36*
G01*
X163706400Y-108694800D02*
X162255600Y-108694800D01*
G75*
G02*
X162155200Y-108594400I0J100400D01*
G01*
X162155200Y-108393600D01*
G75*
G02*
X162255600Y-108293200I100400J0D01*
G01*
X163706400Y-108293200D01*
G75*
G02*
X163806800Y-108393600I0J-100400D01*
G01*
X163806800Y-108594400D01*
G75*
G02*
X163706400Y-108694800I-100400J0D01*
G01*
G37*
G36*
G01*
X163706400Y-109194800D02*
X162255600Y-109194800D01*
G75*
G02*
X162155200Y-109094400I0J100400D01*
G01*
X162155200Y-108893600D01*
G75*
G02*
X162255600Y-108793200I100400J0D01*
G01*
X163706400Y-108793200D01*
G75*
G02*
X163806800Y-108893600I0J-100400D01*
G01*
X163806800Y-109094400D01*
G75*
G02*
X163706400Y-109194800I-100400J0D01*
G01*
G37*
G36*
G01*
X163706400Y-109694800D02*
X162255600Y-109694800D01*
G75*
G02*
X162155200Y-109594400I0J100400D01*
G01*
X162155200Y-109393600D01*
G75*
G02*
X162255600Y-109293200I100400J0D01*
G01*
X163706400Y-109293200D01*
G75*
G02*
X163806800Y-109393600I0J-100400D01*
G01*
X163806800Y-109594400D01*
G75*
G02*
X163706400Y-109694800I-100400J0D01*
G01*
G37*
G36*
G01*
X163706400Y-110194800D02*
X162255600Y-110194800D01*
G75*
G02*
X162155200Y-110094400I0J100400D01*
G01*
X162155200Y-109893600D01*
G75*
G02*
X162255600Y-109793200I100400J0D01*
G01*
X163706400Y-109793200D01*
G75*
G02*
X163806800Y-109893600I0J-100400D01*
G01*
X163806800Y-110094400D01*
G75*
G02*
X163706400Y-110194800I-100400J0D01*
G01*
G37*
G36*
G01*
X163706400Y-110694800D02*
X162255600Y-110694800D01*
G75*
G02*
X162155200Y-110594400I0J100400D01*
G01*
X162155200Y-110393600D01*
G75*
G02*
X162255600Y-110293200I100400J0D01*
G01*
X163706400Y-110293200D01*
G75*
G02*
X163806800Y-110393600I0J-100400D01*
G01*
X163806800Y-110594400D01*
G75*
G02*
X163706400Y-110694800I-100400J0D01*
G01*
G37*
G36*
G01*
X163706400Y-111194800D02*
X162255600Y-111194800D01*
G75*
G02*
X162155200Y-111094400I0J100400D01*
G01*
X162155200Y-110893600D01*
G75*
G02*
X162255600Y-110793200I100400J0D01*
G01*
X163706400Y-110793200D01*
G75*
G02*
X163806800Y-110893600I0J-100400D01*
G01*
X163806800Y-111094400D01*
G75*
G02*
X163706400Y-111194800I-100400J0D01*
G01*
G37*
G36*
G01*
X163706400Y-111694800D02*
X162255600Y-111694800D01*
G75*
G02*
X162155200Y-111594400I0J100400D01*
G01*
X162155200Y-111393600D01*
G75*
G02*
X162255600Y-111293200I100400J0D01*
G01*
X163706400Y-111293200D01*
G75*
G02*
X163806800Y-111393600I0J-100400D01*
G01*
X163806800Y-111594400D01*
G75*
G02*
X163706400Y-111694800I-100400J0D01*
G01*
G37*
G36*
G01*
X163706400Y-112194800D02*
X162255600Y-112194800D01*
G75*
G02*
X162155200Y-112094400I0J100400D01*
G01*
X162155200Y-111893600D01*
G75*
G02*
X162255600Y-111793200I100400J0D01*
G01*
X163706400Y-111793200D01*
G75*
G02*
X163806800Y-111893600I0J-100400D01*
G01*
X163806800Y-112094400D01*
G75*
G02*
X163706400Y-112194800I-100400J0D01*
G01*
G37*
G36*
G01*
X163706400Y-112694800D02*
X162255600Y-112694800D01*
G75*
G02*
X162155200Y-112594400I0J100400D01*
G01*
X162155200Y-112393600D01*
G75*
G02*
X162255600Y-112293200I100400J0D01*
G01*
X163706400Y-112293200D01*
G75*
G02*
X163806800Y-112393600I0J-100400D01*
G01*
X163806800Y-112594400D01*
G75*
G02*
X163706400Y-112694800I-100400J0D01*
G01*
G37*
G36*
G01*
X163706400Y-113194800D02*
X162255600Y-113194800D01*
G75*
G02*
X162155200Y-113094400I0J100400D01*
G01*
X162155200Y-112893600D01*
G75*
G02*
X162255600Y-112793200I100400J0D01*
G01*
X163706400Y-112793200D01*
G75*
G02*
X163806800Y-112893600I0J-100400D01*
G01*
X163806800Y-113094400D01*
G75*
G02*
X163706400Y-113194800I-100400J0D01*
G01*
G37*
G36*
G01*
X163706400Y-113694800D02*
X162255600Y-113694800D01*
G75*
G02*
X162155200Y-113594400I0J100400D01*
G01*
X162155200Y-113393600D01*
G75*
G02*
X162255600Y-113293200I100400J0D01*
G01*
X163706400Y-113293200D01*
G75*
G02*
X163806800Y-113393600I0J-100400D01*
G01*
X163806800Y-113594400D01*
G75*
G02*
X163706400Y-113694800I-100400J0D01*
G01*
G37*
G36*
G01*
X163706400Y-114194800D02*
X162255600Y-114194800D01*
G75*
G02*
X162155200Y-114094400I0J100400D01*
G01*
X162155200Y-113893600D01*
G75*
G02*
X162255600Y-113793200I100400J0D01*
G01*
X163706400Y-113793200D01*
G75*
G02*
X163806800Y-113893600I0J-100400D01*
G01*
X163806800Y-114094400D01*
G75*
G02*
X163706400Y-114194800I-100400J0D01*
G01*
G37*
G36*
G01*
X163706400Y-114694800D02*
X162255600Y-114694800D01*
G75*
G02*
X162155200Y-114594400I0J100400D01*
G01*
X162155200Y-114393600D01*
G75*
G02*
X162255600Y-114293200I100400J0D01*
G01*
X163706400Y-114293200D01*
G75*
G02*
X163806800Y-114393600I0J-100400D01*
G01*
X163806800Y-114594400D01*
G75*
G02*
X163706400Y-114694800I-100400J0D01*
G01*
G37*
G36*
G01*
X165006400Y-117244800D02*
X164805600Y-117244800D01*
G75*
G02*
X164705200Y-117144400I0J100400D01*
G01*
X164705200Y-115693600D01*
G75*
G02*
X164805600Y-115593200I100400J0D01*
G01*
X165006400Y-115593200D01*
G75*
G02*
X165106800Y-115693600I0J-100400D01*
G01*
X165106800Y-117144400D01*
G75*
G02*
X165006400Y-117244800I-100400J0D01*
G01*
G37*
G36*
G01*
X165506400Y-117244800D02*
X165305600Y-117244800D01*
G75*
G02*
X165205200Y-117144400I0J100400D01*
G01*
X165205200Y-115693600D01*
G75*
G02*
X165305600Y-115593200I100400J0D01*
G01*
X165506400Y-115593200D01*
G75*
G02*
X165606800Y-115693600I0J-100400D01*
G01*
X165606800Y-117144400D01*
G75*
G02*
X165506400Y-117244800I-100400J0D01*
G01*
G37*
G36*
G01*
X166006400Y-117244800D02*
X165805600Y-117244800D01*
G75*
G02*
X165705200Y-117144400I0J100400D01*
G01*
X165705200Y-115693600D01*
G75*
G02*
X165805600Y-115593200I100400J0D01*
G01*
X166006400Y-115593200D01*
G75*
G02*
X166106800Y-115693600I0J-100400D01*
G01*
X166106800Y-117144400D01*
G75*
G02*
X166006400Y-117244800I-100400J0D01*
G01*
G37*
G36*
G01*
X166506400Y-117244800D02*
X166305600Y-117244800D01*
G75*
G02*
X166205200Y-117144400I0J100400D01*
G01*
X166205200Y-115693600D01*
G75*
G02*
X166305600Y-115593200I100400J0D01*
G01*
X166506400Y-115593200D01*
G75*
G02*
X166606800Y-115693600I0J-100400D01*
G01*
X166606800Y-117144400D01*
G75*
G02*
X166506400Y-117244800I-100400J0D01*
G01*
G37*
G36*
G01*
X167006400Y-117244800D02*
X166805600Y-117244800D01*
G75*
G02*
X166705200Y-117144400I0J100400D01*
G01*
X166705200Y-115693600D01*
G75*
G02*
X166805600Y-115593200I100400J0D01*
G01*
X167006400Y-115593200D01*
G75*
G02*
X167106800Y-115693600I0J-100400D01*
G01*
X167106800Y-117144400D01*
G75*
G02*
X167006400Y-117244800I-100400J0D01*
G01*
G37*
G36*
G01*
X167506400Y-117244800D02*
X167305600Y-117244800D01*
G75*
G02*
X167205200Y-117144400I0J100400D01*
G01*
X167205200Y-115693600D01*
G75*
G02*
X167305600Y-115593200I100400J0D01*
G01*
X167506400Y-115593200D01*
G75*
G02*
X167606800Y-115693600I0J-100400D01*
G01*
X167606800Y-117144400D01*
G75*
G02*
X167506400Y-117244800I-100400J0D01*
G01*
G37*
G36*
G01*
X168006400Y-117244800D02*
X167805600Y-117244800D01*
G75*
G02*
X167705200Y-117144400I0J100400D01*
G01*
X167705200Y-115693600D01*
G75*
G02*
X167805600Y-115593200I100400J0D01*
G01*
X168006400Y-115593200D01*
G75*
G02*
X168106800Y-115693600I0J-100400D01*
G01*
X168106800Y-117144400D01*
G75*
G02*
X168006400Y-117244800I-100400J0D01*
G01*
G37*
G36*
G01*
X168506400Y-117244800D02*
X168305600Y-117244800D01*
G75*
G02*
X168205200Y-117144400I0J100400D01*
G01*
X168205200Y-115693600D01*
G75*
G02*
X168305600Y-115593200I100400J0D01*
G01*
X168506400Y-115593200D01*
G75*
G02*
X168606800Y-115693600I0J-100400D01*
G01*
X168606800Y-117144400D01*
G75*
G02*
X168506400Y-117244800I-100400J0D01*
G01*
G37*
G36*
G01*
X169006400Y-117244800D02*
X168805600Y-117244800D01*
G75*
G02*
X168705200Y-117144400I0J100400D01*
G01*
X168705200Y-115693600D01*
G75*
G02*
X168805600Y-115593200I100400J0D01*
G01*
X169006400Y-115593200D01*
G75*
G02*
X169106800Y-115693600I0J-100400D01*
G01*
X169106800Y-117144400D01*
G75*
G02*
X169006400Y-117244800I-100400J0D01*
G01*
G37*
G36*
G01*
X169506400Y-117244800D02*
X169305600Y-117244800D01*
G75*
G02*
X169205200Y-117144400I0J100400D01*
G01*
X169205200Y-115693600D01*
G75*
G02*
X169305600Y-115593200I100400J0D01*
G01*
X169506400Y-115593200D01*
G75*
G02*
X169606800Y-115693600I0J-100400D01*
G01*
X169606800Y-117144400D01*
G75*
G02*
X169506400Y-117244800I-100400J0D01*
G01*
G37*
G36*
G01*
X170006400Y-117244800D02*
X169805600Y-117244800D01*
G75*
G02*
X169705200Y-117144400I0J100400D01*
G01*
X169705200Y-115693600D01*
G75*
G02*
X169805600Y-115593200I100400J0D01*
G01*
X170006400Y-115593200D01*
G75*
G02*
X170106800Y-115693600I0J-100400D01*
G01*
X170106800Y-117144400D01*
G75*
G02*
X170006400Y-117244800I-100400J0D01*
G01*
G37*
G36*
G01*
X170506400Y-117244800D02*
X170305600Y-117244800D01*
G75*
G02*
X170205200Y-117144400I0J100400D01*
G01*
X170205200Y-115693600D01*
G75*
G02*
X170305600Y-115593200I100400J0D01*
G01*
X170506400Y-115593200D01*
G75*
G02*
X170606800Y-115693600I0J-100400D01*
G01*
X170606800Y-117144400D01*
G75*
G02*
X170506400Y-117244800I-100400J0D01*
G01*
G37*
G36*
G01*
X171006400Y-117244800D02*
X170805600Y-117244800D01*
G75*
G02*
X170705200Y-117144400I0J100400D01*
G01*
X170705200Y-115693600D01*
G75*
G02*
X170805600Y-115593200I100400J0D01*
G01*
X171006400Y-115593200D01*
G75*
G02*
X171106800Y-115693600I0J-100400D01*
G01*
X171106800Y-117144400D01*
G75*
G02*
X171006400Y-117244800I-100400J0D01*
G01*
G37*
G36*
G01*
X171506400Y-117244800D02*
X171305600Y-117244800D01*
G75*
G02*
X171205200Y-117144400I0J100400D01*
G01*
X171205200Y-115693600D01*
G75*
G02*
X171305600Y-115593200I100400J0D01*
G01*
X171506400Y-115593200D01*
G75*
G02*
X171606800Y-115693600I0J-100400D01*
G01*
X171606800Y-117144400D01*
G75*
G02*
X171506400Y-117244800I-100400J0D01*
G01*
G37*
G36*
G01*
X172006400Y-117244800D02*
X171805600Y-117244800D01*
G75*
G02*
X171705200Y-117144400I0J100400D01*
G01*
X171705200Y-115693600D01*
G75*
G02*
X171805600Y-115593200I100400J0D01*
G01*
X172006400Y-115593200D01*
G75*
G02*
X172106800Y-115693600I0J-100400D01*
G01*
X172106800Y-117144400D01*
G75*
G02*
X172006400Y-117244800I-100400J0D01*
G01*
G37*
G36*
G01*
X172506400Y-117244800D02*
X172305600Y-117244800D01*
G75*
G02*
X172205200Y-117144400I0J100400D01*
G01*
X172205200Y-115693600D01*
G75*
G02*
X172305600Y-115593200I100400J0D01*
G01*
X172506400Y-115593200D01*
G75*
G02*
X172606800Y-115693600I0J-100400D01*
G01*
X172606800Y-117144400D01*
G75*
G02*
X172506400Y-117244800I-100400J0D01*
G01*
G37*
D16*
X151983400Y-99942500D03*
X152933400Y-99942500D03*
X153883400Y-99942500D03*
X153883400Y-102622500D03*
X152933400Y-102622500D03*
X151983400Y-102622500D03*
D17*
X152933400Y-101282500D03*
G36*
G01*
X154548900Y-97790950D02*
X154548900Y-98754250D01*
G75*
G02*
X154279750Y-99023400I-269150J0D01*
G01*
X153741450Y-99023400D01*
G75*
G02*
X153472300Y-98754250I0J269150D01*
G01*
X153472300Y-97790950D01*
G75*
G02*
X153741450Y-97521800I269150J0D01*
G01*
X154279750Y-97521800D01*
G75*
G02*
X154548900Y-97790950I0J-269150D01*
G01*
G37*
G36*
G01*
X152673900Y-97790950D02*
X152673900Y-98754250D01*
G75*
G02*
X152404750Y-99023400I-269150J0D01*
G01*
X151866450Y-99023400D01*
G75*
G02*
X151597300Y-98754250I0J269150D01*
G01*
X151597300Y-97790950D01*
G75*
G02*
X151866450Y-97521800I269150J0D01*
G01*
X152404750Y-97521800D01*
G75*
G02*
X152673900Y-97790950I0J-269150D01*
G01*
G37*
D18*
X150455000Y-116435000D03*
X150455000Y-117705000D03*
X150455000Y-115165000D03*
X150455000Y-113895000D03*
X158155000Y-113895000D03*
X158155000Y-115165000D03*
X158155000Y-116435000D03*
X158155000Y-117705000D03*
D19*
X154305000Y-115800000D03*
D20*
X173337500Y-99800000D03*
X172262500Y-99800000D03*
D21*
X172800000Y-101575000D03*
X172800000Y-99725000D03*
D20*
X172262500Y-101500000D03*
X173337500Y-101500000D03*
G36*
G01*
X178690800Y-103232100D02*
X178690800Y-103627900D01*
G75*
G02*
X178517900Y-103800800I-172900J0D01*
G01*
X178172100Y-103800800D01*
G75*
G02*
X177999200Y-103627900I0J172900D01*
G01*
X177999200Y-103232100D01*
G75*
G02*
X178172100Y-103059200I172900J0D01*
G01*
X178517900Y-103059200D01*
G75*
G02*
X178690800Y-103232100I0J-172900D01*
G01*
G37*
G36*
G01*
X179660800Y-103232100D02*
X179660800Y-103627900D01*
G75*
G02*
X179487900Y-103800800I-172900J0D01*
G01*
X179142100Y-103800800D01*
G75*
G02*
X178969200Y-103627900I0J172900D01*
G01*
X178969200Y-103232100D01*
G75*
G02*
X179142100Y-103059200I172900J0D01*
G01*
X179487900Y-103059200D01*
G75*
G02*
X179660800Y-103232100I0J-172900D01*
G01*
G37*
G36*
G01*
X146410800Y-98512100D02*
X146410800Y-98907900D01*
G75*
G02*
X146237900Y-99080800I-172900J0D01*
G01*
X145892100Y-99080800D01*
G75*
G02*
X145719200Y-98907900I0J172900D01*
G01*
X145719200Y-98512100D01*
G75*
G02*
X145892100Y-98339200I172900J0D01*
G01*
X146237900Y-98339200D01*
G75*
G02*
X146410800Y-98512100I0J-172900D01*
G01*
G37*
G36*
G01*
X147380800Y-98512100D02*
X147380800Y-98907900D01*
G75*
G02*
X147207900Y-99080800I-172900J0D01*
G01*
X146862100Y-99080800D01*
G75*
G02*
X146689200Y-98907900I0J172900D01*
G01*
X146689200Y-98512100D01*
G75*
G02*
X146862100Y-98339200I172900J0D01*
G01*
X147207900Y-98339200D01*
G75*
G02*
X147380800Y-98512100I0J-172900D01*
G01*
G37*
D22*
X159040000Y-110945000D03*
X159040000Y-107015000D03*
D23*
X160250000Y-109480000D03*
X160250000Y-110480000D03*
X160250000Y-108980000D03*
X160250000Y-107980000D03*
X160250000Y-107480000D03*
X160250000Y-108480000D03*
X160250000Y-109980000D03*
X157830000Y-107480000D03*
X157830000Y-107980000D03*
X157830000Y-108480000D03*
X157830000Y-108980000D03*
X157830000Y-110480000D03*
X157830000Y-109980000D03*
X157830000Y-109480000D03*
D24*
X178940000Y-119680000D03*
X176400000Y-119680000D03*
X178940000Y-117140000D03*
X176400000Y-117140000D03*
X178940000Y-114600000D03*
D25*
X176400000Y-114600000D03*
D26*
X144950000Y-98000000D03*
X144950000Y-120000000D03*
D27*
X147350000Y-118000000D03*
X147350000Y-116000000D03*
X147350000Y-114000000D03*
X147350000Y-112000000D03*
X147350000Y-110000000D03*
X147350000Y-108000000D03*
X147350000Y-106000000D03*
X147350000Y-104000000D03*
X147350000Y-102000000D03*
G36*
G01*
X146670366Y-99349200D02*
X148029634Y-99349200D01*
G75*
G02*
X148300800Y-99620366I0J-271166D01*
G01*
X148300800Y-100379634D01*
G75*
G02*
X148029634Y-100650800I-271166J0D01*
G01*
X146670366Y-100650800D01*
G75*
G02*
X146399200Y-100379634I0J271166D01*
G01*
X146399200Y-99620366D01*
G75*
G02*
X146670366Y-99349200I271166J0D01*
G01*
G37*
G36*
G01*
X156289200Y-103147900D02*
X156289200Y-102752100D01*
G75*
G02*
X156462100Y-102579200I172900J0D01*
G01*
X156807900Y-102579200D01*
G75*
G02*
X156980800Y-102752100I0J-172900D01*
G01*
X156980800Y-103147900D01*
G75*
G02*
X156807900Y-103320800I-172900J0D01*
G01*
X156462100Y-103320800D01*
G75*
G02*
X156289200Y-103147900I0J172900D01*
G01*
G37*
G36*
G01*
X155319200Y-103147900D02*
X155319200Y-102752100D01*
G75*
G02*
X155492100Y-102579200I172900J0D01*
G01*
X155837900Y-102579200D01*
G75*
G02*
X156010800Y-102752100I0J-172900D01*
G01*
X156010800Y-103147900D01*
G75*
G02*
X155837900Y-103320800I-172900J0D01*
G01*
X155492100Y-103320800D01*
G75*
G02*
X155319200Y-103147900I0J172900D01*
G01*
G37*
G36*
G01*
X160872100Y-114185200D02*
X161267900Y-114185200D01*
G75*
G02*
X161440800Y-114358100I0J-172900D01*
G01*
X161440800Y-114703900D01*
G75*
G02*
X161267900Y-114876800I-172900J0D01*
G01*
X160872100Y-114876800D01*
G75*
G02*
X160699200Y-114703900I0J172900D01*
G01*
X160699200Y-114358100D01*
G75*
G02*
X160872100Y-114185200I172900J0D01*
G01*
G37*
G36*
G01*
X160872100Y-113215200D02*
X161267900Y-113215200D01*
G75*
G02*
X161440800Y-113388100I0J-172900D01*
G01*
X161440800Y-113733900D01*
G75*
G02*
X161267900Y-113906800I-172900J0D01*
G01*
X160872100Y-113906800D01*
G75*
G02*
X160699200Y-113733900I0J172900D01*
G01*
X160699200Y-113388100D01*
G75*
G02*
X160872100Y-113215200I172900J0D01*
G01*
G37*
G36*
G01*
X165240200Y-117810500D02*
X165240200Y-118206300D01*
G75*
G02*
X165067300Y-118379200I-172900J0D01*
G01*
X164721500Y-118379200D01*
G75*
G02*
X164548600Y-118206300I0J172900D01*
G01*
X164548600Y-117810500D01*
G75*
G02*
X164721500Y-117637600I172900J0D01*
G01*
X165067300Y-117637600D01*
G75*
G02*
X165240200Y-117810500I0J-172900D01*
G01*
G37*
G36*
G01*
X166210200Y-117810500D02*
X166210200Y-118206300D01*
G75*
G02*
X166037300Y-118379200I-172900J0D01*
G01*
X165691500Y-118379200D01*
G75*
G02*
X165518600Y-118206300I0J172900D01*
G01*
X165518600Y-117810500D01*
G75*
G02*
X165691500Y-117637600I172900J0D01*
G01*
X166037300Y-117637600D01*
G75*
G02*
X166210200Y-117810500I0J-172900D01*
G01*
G37*
G36*
G01*
X174236600Y-115734600D02*
X174632400Y-115734600D01*
G75*
G02*
X174805300Y-115907500I0J-172900D01*
G01*
X174805300Y-116253300D01*
G75*
G02*
X174632400Y-116426200I-172900J0D01*
G01*
X174236600Y-116426200D01*
G75*
G02*
X174063700Y-116253300I0J172900D01*
G01*
X174063700Y-115907500D01*
G75*
G02*
X174236600Y-115734600I172900J0D01*
G01*
G37*
G36*
G01*
X174236600Y-114764600D02*
X174632400Y-114764600D01*
G75*
G02*
X174805300Y-114937500I0J-172900D01*
G01*
X174805300Y-115283300D01*
G75*
G02*
X174632400Y-115456200I-172900J0D01*
G01*
X174236600Y-115456200D01*
G75*
G02*
X174063700Y-115283300I0J172900D01*
G01*
X174063700Y-114937500D01*
G75*
G02*
X174236600Y-114764600I172900J0D01*
G01*
G37*
G36*
G01*
X174078400Y-117076000D02*
X174078400Y-116680200D01*
G75*
G02*
X174251300Y-116507300I172900J0D01*
G01*
X174597100Y-116507300D01*
G75*
G02*
X174770000Y-116680200I0J-172900D01*
G01*
X174770000Y-117076000D01*
G75*
G02*
X174597100Y-117248900I-172900J0D01*
G01*
X174251300Y-117248900D01*
G75*
G02*
X174078400Y-117076000I0J172900D01*
G01*
G37*
G36*
G01*
X173108400Y-117076000D02*
X173108400Y-116680200D01*
G75*
G02*
X173281300Y-116507300I172900J0D01*
G01*
X173627100Y-116507300D01*
G75*
G02*
X173800000Y-116680200I0J-172900D01*
G01*
X173800000Y-117076000D01*
G75*
G02*
X173627100Y-117248900I-172900J0D01*
G01*
X173281300Y-117248900D01*
G75*
G02*
X173108400Y-117076000I0J172900D01*
G01*
G37*
G36*
G01*
X173997900Y-104240800D02*
X173602100Y-104240800D01*
G75*
G02*
X173429200Y-104067900I0J172900D01*
G01*
X173429200Y-103722100D01*
G75*
G02*
X173602100Y-103549200I172900J0D01*
G01*
X173997900Y-103549200D01*
G75*
G02*
X174170800Y-103722100I0J-172900D01*
G01*
X174170800Y-104067900D01*
G75*
G02*
X173997900Y-104240800I-172900J0D01*
G01*
G37*
G36*
G01*
X173997900Y-105210800D02*
X173602100Y-105210800D01*
G75*
G02*
X173429200Y-105037900I0J172900D01*
G01*
X173429200Y-104692100D01*
G75*
G02*
X173602100Y-104519200I172900J0D01*
G01*
X173997900Y-104519200D01*
G75*
G02*
X174170800Y-104692100I0J-172900D01*
G01*
X174170800Y-105037900D01*
G75*
G02*
X173997900Y-105210800I-172900J0D01*
G01*
G37*
G36*
G01*
X161027100Y-109364200D02*
X161422900Y-109364200D01*
G75*
G02*
X161595800Y-109537100I0J-172900D01*
G01*
X161595800Y-109882900D01*
G75*
G02*
X161422900Y-110055800I-172900J0D01*
G01*
X161027100Y-110055800D01*
G75*
G02*
X160854200Y-109882900I0J172900D01*
G01*
X160854200Y-109537100D01*
G75*
G02*
X161027100Y-109364200I172900J0D01*
G01*
G37*
G36*
G01*
X161027100Y-108394200D02*
X161422900Y-108394200D01*
G75*
G02*
X161595800Y-108567100I0J-172900D01*
G01*
X161595800Y-108912900D01*
G75*
G02*
X161422900Y-109085800I-172900J0D01*
G01*
X161027100Y-109085800D01*
G75*
G02*
X160854200Y-108912900I0J172900D01*
G01*
X160854200Y-108567100D01*
G75*
G02*
X161027100Y-108394200I172900J0D01*
G01*
G37*
G36*
G01*
X156857900Y-109770800D02*
X156462100Y-109770800D01*
G75*
G02*
X156289200Y-109597900I0J172900D01*
G01*
X156289200Y-109252100D01*
G75*
G02*
X156462100Y-109079200I172900J0D01*
G01*
X156857900Y-109079200D01*
G75*
G02*
X157030800Y-109252100I0J-172900D01*
G01*
X157030800Y-109597900D01*
G75*
G02*
X156857900Y-109770800I-172900J0D01*
G01*
G37*
G36*
G01*
X156857900Y-108800800D02*
X156462100Y-108800800D01*
G75*
G02*
X156289200Y-108627900I0J172900D01*
G01*
X156289200Y-108282100D01*
G75*
G02*
X156462100Y-108109200I172900J0D01*
G01*
X156857900Y-108109200D01*
G75*
G02*
X157030800Y-108282100I0J-172900D01*
G01*
X157030800Y-108627900D01*
G75*
G02*
X156857900Y-108800800I-172900J0D01*
G01*
G37*
G36*
G01*
X159337900Y-118050800D02*
X158942100Y-118050800D01*
G75*
G02*
X158769200Y-117877900I0J172900D01*
G01*
X158769200Y-117532100D01*
G75*
G02*
X158942100Y-117359200I172900J0D01*
G01*
X159337900Y-117359200D01*
G75*
G02*
X159510800Y-117532100I0J-172900D01*
G01*
X159510800Y-117877900D01*
G75*
G02*
X159337900Y-118050800I-172900J0D01*
G01*
G37*
G36*
G01*
X159337900Y-119020800D02*
X158942100Y-119020800D01*
G75*
G02*
X158769200Y-118847900I0J172900D01*
G01*
X158769200Y-118502100D01*
G75*
G02*
X158942100Y-118329200I172900J0D01*
G01*
X159337900Y-118329200D01*
G75*
G02*
X159510800Y-118502100I0J-172900D01*
G01*
X159510800Y-118847900D01*
G75*
G02*
X159337900Y-119020800I-172900J0D01*
G01*
G37*
G36*
G01*
X143575800Y-118502100D02*
X143575800Y-118897900D01*
G75*
G02*
X143402900Y-119070800I-172900J0D01*
G01*
X143057100Y-119070800D01*
G75*
G02*
X142884200Y-118897900I0J172900D01*
G01*
X142884200Y-118502100D01*
G75*
G02*
X143057100Y-118329200I172900J0D01*
G01*
X143402900Y-118329200D01*
G75*
G02*
X143575800Y-118502100I0J-172900D01*
G01*
G37*
G36*
G01*
X144545800Y-118502100D02*
X144545800Y-118897900D01*
G75*
G02*
X144372900Y-119070800I-172900J0D01*
G01*
X144027100Y-119070800D01*
G75*
G02*
X143854200Y-118897900I0J172900D01*
G01*
X143854200Y-118502100D01*
G75*
G02*
X144027100Y-118329200I172900J0D01*
G01*
X144372900Y-118329200D01*
G75*
G02*
X144545800Y-118502100I0J-172900D01*
G01*
G37*
G36*
G01*
X144497900Y-117060800D02*
X144102100Y-117060800D01*
G75*
G02*
X143929200Y-116887900I0J172900D01*
G01*
X143929200Y-116542100D01*
G75*
G02*
X144102100Y-116369200I172900J0D01*
G01*
X144497900Y-116369200D01*
G75*
G02*
X144670800Y-116542100I0J-172900D01*
G01*
X144670800Y-116887900D01*
G75*
G02*
X144497900Y-117060800I-172900J0D01*
G01*
G37*
G36*
G01*
X144497900Y-118030800D02*
X144102100Y-118030800D01*
G75*
G02*
X143929200Y-117857900I0J172900D01*
G01*
X143929200Y-117512100D01*
G75*
G02*
X144102100Y-117339200I172900J0D01*
G01*
X144497900Y-117339200D01*
G75*
G02*
X144670800Y-117512100I0J-172900D01*
G01*
X144670800Y-117857900D01*
G75*
G02*
X144497900Y-118030800I-172900J0D01*
G01*
G37*
G36*
G01*
X168574500Y-119507500D02*
X168178700Y-119507500D01*
G75*
G02*
X168005800Y-119334600I0J172900D01*
G01*
X168005800Y-118988800D01*
G75*
G02*
X168178700Y-118815900I172900J0D01*
G01*
X168574500Y-118815900D01*
G75*
G02*
X168747400Y-118988800I0J-172900D01*
G01*
X168747400Y-119334600D01*
G75*
G02*
X168574500Y-119507500I-172900J0D01*
G01*
G37*
G36*
G01*
X168574500Y-120477500D02*
X168178700Y-120477500D01*
G75*
G02*
X168005800Y-120304600I0J172900D01*
G01*
X168005800Y-119958800D01*
G75*
G02*
X168178700Y-119785900I172900J0D01*
G01*
X168574500Y-119785900D01*
G75*
G02*
X168747400Y-119958800I0J-172900D01*
G01*
X168747400Y-120304600D01*
G75*
G02*
X168574500Y-120477500I-172900J0D01*
G01*
G37*
G36*
G01*
X142219900Y-120039200D02*
X142615700Y-120039200D01*
G75*
G02*
X142788600Y-120212100I0J-172900D01*
G01*
X142788600Y-120557900D01*
G75*
G02*
X142615700Y-120730800I-172900J0D01*
G01*
X142219900Y-120730800D01*
G75*
G02*
X142047000Y-120557900I0J172900D01*
G01*
X142047000Y-120212100D01*
G75*
G02*
X142219900Y-120039200I172900J0D01*
G01*
G37*
G36*
G01*
X142219900Y-119069200D02*
X142615700Y-119069200D01*
G75*
G02*
X142788600Y-119242100I0J-172900D01*
G01*
X142788600Y-119587900D01*
G75*
G02*
X142615700Y-119760800I-172900J0D01*
G01*
X142219900Y-119760800D01*
G75*
G02*
X142047000Y-119587900I0J172900D01*
G01*
X142047000Y-119242100D01*
G75*
G02*
X142219900Y-119069200I172900J0D01*
G01*
G37*
G36*
G01*
X167213500Y-118815900D02*
X167609300Y-118815900D01*
G75*
G02*
X167782200Y-118988800I0J-172900D01*
G01*
X167782200Y-119334600D01*
G75*
G02*
X167609300Y-119507500I-172900J0D01*
G01*
X167213500Y-119507500D01*
G75*
G02*
X167040600Y-119334600I0J172900D01*
G01*
X167040600Y-118988800D01*
G75*
G02*
X167213500Y-118815900I172900J0D01*
G01*
G37*
G36*
G01*
X167213500Y-119785900D02*
X167609300Y-119785900D01*
G75*
G02*
X167782200Y-119958800I0J-172900D01*
G01*
X167782200Y-120304600D01*
G75*
G02*
X167609300Y-120477500I-172900J0D01*
G01*
X167213500Y-120477500D01*
G75*
G02*
X167040600Y-120304600I0J172900D01*
G01*
X167040600Y-119958800D01*
G75*
G02*
X167213500Y-119785900I172900J0D01*
G01*
G37*
G36*
G01*
X165323300Y-119482100D02*
X164927500Y-119482100D01*
G75*
G02*
X164754600Y-119309200I0J172900D01*
G01*
X164754600Y-118963400D01*
G75*
G02*
X164927500Y-118790500I172900J0D01*
G01*
X165323300Y-118790500D01*
G75*
G02*
X165496200Y-118963400I0J-172900D01*
G01*
X165496200Y-119309200D01*
G75*
G02*
X165323300Y-119482100I-172900J0D01*
G01*
G37*
G36*
G01*
X165323300Y-120452100D02*
X164927500Y-120452100D01*
G75*
G02*
X164754600Y-120279200I0J172900D01*
G01*
X164754600Y-119933400D01*
G75*
G02*
X164927500Y-119760500I172900J0D01*
G01*
X165323300Y-119760500D01*
G75*
G02*
X165496200Y-119933400I0J-172900D01*
G01*
X165496200Y-120279200D01*
G75*
G02*
X165323300Y-120452100I-172900J0D01*
G01*
G37*
G36*
G01*
X165905400Y-118790500D02*
X166301200Y-118790500D01*
G75*
G02*
X166474100Y-118963400I0J-172900D01*
G01*
X166474100Y-119309200D01*
G75*
G02*
X166301200Y-119482100I-172900J0D01*
G01*
X165905400Y-119482100D01*
G75*
G02*
X165732500Y-119309200I0J172900D01*
G01*
X165732500Y-118963400D01*
G75*
G02*
X165905400Y-118790500I172900J0D01*
G01*
G37*
G36*
G01*
X165905400Y-119760500D02*
X166301200Y-119760500D01*
G75*
G02*
X166474100Y-119933400I0J-172900D01*
G01*
X166474100Y-120279200D01*
G75*
G02*
X166301200Y-120452100I-172900J0D01*
G01*
X165905400Y-120452100D01*
G75*
G02*
X165732500Y-120279200I0J172900D01*
G01*
X165732500Y-119933400D01*
G75*
G02*
X165905400Y-119760500I172900J0D01*
G01*
G37*
G36*
G01*
X162884900Y-118758200D02*
X162489100Y-118758200D01*
G75*
G02*
X162316200Y-118585300I0J172900D01*
G01*
X162316200Y-118239500D01*
G75*
G02*
X162489100Y-118066600I172900J0D01*
G01*
X162884900Y-118066600D01*
G75*
G02*
X163057800Y-118239500I0J-172900D01*
G01*
X163057800Y-118585300D01*
G75*
G02*
X162884900Y-118758200I-172900J0D01*
G01*
G37*
G36*
G01*
X162884900Y-119728200D02*
X162489100Y-119728200D01*
G75*
G02*
X162316200Y-119555300I0J172900D01*
G01*
X162316200Y-119209500D01*
G75*
G02*
X162489100Y-119036600I172900J0D01*
G01*
X162884900Y-119036600D01*
G75*
G02*
X163057800Y-119209500I0J-172900D01*
G01*
X163057800Y-119555300D01*
G75*
G02*
X162884900Y-119728200I-172900J0D01*
G01*
G37*
G36*
G01*
X163850100Y-119728200D02*
X163454300Y-119728200D01*
G75*
G02*
X163281400Y-119555300I0J172900D01*
G01*
X163281400Y-119209500D01*
G75*
G02*
X163454300Y-119036600I172900J0D01*
G01*
X163850100Y-119036600D01*
G75*
G02*
X164023000Y-119209500I0J-172900D01*
G01*
X164023000Y-119555300D01*
G75*
G02*
X163850100Y-119728200I-172900J0D01*
G01*
G37*
G36*
G01*
X163850100Y-118758200D02*
X163454300Y-118758200D01*
G75*
G02*
X163281400Y-118585300I0J172900D01*
G01*
X163281400Y-118239500D01*
G75*
G02*
X163454300Y-118066600I172900J0D01*
G01*
X163850100Y-118066600D01*
G75*
G02*
X164023000Y-118239500I0J-172900D01*
G01*
X164023000Y-118585300D01*
G75*
G02*
X163850100Y-118758200I-172900J0D01*
G01*
G37*
G36*
G01*
X162489100Y-117219200D02*
X162884900Y-117219200D01*
G75*
G02*
X163057800Y-117392100I0J-172900D01*
G01*
X163057800Y-117737900D01*
G75*
G02*
X162884900Y-117910800I-172900J0D01*
G01*
X162489100Y-117910800D01*
G75*
G02*
X162316200Y-117737900I0J172900D01*
G01*
X162316200Y-117392100D01*
G75*
G02*
X162489100Y-117219200I172900J0D01*
G01*
G37*
G36*
G01*
X162489100Y-116249200D02*
X162884900Y-116249200D01*
G75*
G02*
X163057800Y-116422100I0J-172900D01*
G01*
X163057800Y-116767900D01*
G75*
G02*
X162884900Y-116940800I-172900J0D01*
G01*
X162489100Y-116940800D01*
G75*
G02*
X162316200Y-116767900I0J172900D01*
G01*
X162316200Y-116422100D01*
G75*
G02*
X162489100Y-116249200I172900J0D01*
G01*
G37*
G36*
G01*
X163452100Y-116249200D02*
X163847900Y-116249200D01*
G75*
G02*
X164020800Y-116422100I0J-172900D01*
G01*
X164020800Y-116767900D01*
G75*
G02*
X163847900Y-116940800I-172900J0D01*
G01*
X163452100Y-116940800D01*
G75*
G02*
X163279200Y-116767900I0J172900D01*
G01*
X163279200Y-116422100D01*
G75*
G02*
X163452100Y-116249200I172900J0D01*
G01*
G37*
G36*
G01*
X163452100Y-117219200D02*
X163847900Y-117219200D01*
G75*
G02*
X164020800Y-117392100I0J-172900D01*
G01*
X164020800Y-117737900D01*
G75*
G02*
X163847900Y-117910800I-172900J0D01*
G01*
X163452100Y-117910800D01*
G75*
G02*
X163279200Y-117737900I0J172900D01*
G01*
X163279200Y-117392100D01*
G75*
G02*
X163452100Y-117219200I172900J0D01*
G01*
G37*
G36*
G01*
X169710600Y-119918700D02*
X169710600Y-120314500D01*
G75*
G02*
X169537700Y-120487400I-172900J0D01*
G01*
X169191900Y-120487400D01*
G75*
G02*
X169019000Y-120314500I0J172900D01*
G01*
X169019000Y-119918700D01*
G75*
G02*
X169191900Y-119745800I172900J0D01*
G01*
X169537700Y-119745800D01*
G75*
G02*
X169710600Y-119918700I0J-172900D01*
G01*
G37*
G36*
G01*
X170680600Y-119918700D02*
X170680600Y-120314500D01*
G75*
G02*
X170507700Y-120487400I-172900J0D01*
G01*
X170161900Y-120487400D01*
G75*
G02*
X169989000Y-120314500I0J172900D01*
G01*
X169989000Y-119918700D01*
G75*
G02*
X170161900Y-119745800I172900J0D01*
G01*
X170507700Y-119745800D01*
G75*
G02*
X170680600Y-119918700I0J-172900D01*
G01*
G37*
G36*
G01*
X169156600Y-117406200D02*
X169552400Y-117406200D01*
G75*
G02*
X169725300Y-117579100I0J-172900D01*
G01*
X169725300Y-117924900D01*
G75*
G02*
X169552400Y-118097800I-172900J0D01*
G01*
X169156600Y-118097800D01*
G75*
G02*
X168983700Y-117924900I0J172900D01*
G01*
X168983700Y-117579100D01*
G75*
G02*
X169156600Y-117406200I172900J0D01*
G01*
G37*
G36*
G01*
X169156600Y-118376200D02*
X169552400Y-118376200D01*
G75*
G02*
X169725300Y-118549100I0J-172900D01*
G01*
X169725300Y-118894900D01*
G75*
G02*
X169552400Y-119067800I-172900J0D01*
G01*
X169156600Y-119067800D01*
G75*
G02*
X168983700Y-118894900I0J172900D01*
G01*
X168983700Y-118549100D01*
G75*
G02*
X169156600Y-118376200I172900J0D01*
G01*
G37*
D28*
X142950000Y-115550000D03*
X141650000Y-115550000D03*
X142300000Y-117450000D03*
X142300000Y-115550000D03*
X141650000Y-117450000D03*
X142950000Y-117450000D03*
G36*
G01*
X140137100Y-116799200D02*
X140662900Y-116799200D01*
G75*
G02*
X140925800Y-117062100I0J-262900D01*
G01*
X140925800Y-117687900D01*
G75*
G02*
X140662900Y-117950800I-262900J0D01*
G01*
X140137100Y-117950800D01*
G75*
G02*
X139874200Y-117687900I0J262900D01*
G01*
X139874200Y-117062100D01*
G75*
G02*
X140137100Y-116799200I262900J0D01*
G01*
G37*
G36*
G01*
X140137100Y-115049200D02*
X140662900Y-115049200D01*
G75*
G02*
X140925800Y-115312100I0J-262900D01*
G01*
X140925800Y-115937900D01*
G75*
G02*
X140662900Y-116200800I-262900J0D01*
G01*
X140137100Y-116200800D01*
G75*
G02*
X139874200Y-115937900I0J262900D01*
G01*
X139874200Y-115312100D01*
G75*
G02*
X140137100Y-115049200I262900J0D01*
G01*
G37*
G36*
G01*
X171860800Y-117990840D02*
X171860800Y-118386640D01*
G75*
G02*
X171687900Y-118559540I-172900J0D01*
G01*
X171342100Y-118559540D01*
G75*
G02*
X171169200Y-118386640I0J172900D01*
G01*
X171169200Y-117990840D01*
G75*
G02*
X171342100Y-117817940I172900J0D01*
G01*
X171687900Y-117817940D01*
G75*
G02*
X171860800Y-117990840I0J-172900D01*
G01*
G37*
G36*
G01*
X172830800Y-117990840D02*
X172830800Y-118386640D01*
G75*
G02*
X172657900Y-118559540I-172900J0D01*
G01*
X172312100Y-118559540D01*
G75*
G02*
X172139200Y-118386640I0J172900D01*
G01*
X172139200Y-117990840D01*
G75*
G02*
X172312100Y-117817940I172900J0D01*
G01*
X172657900Y-117817940D01*
G75*
G02*
X172830800Y-117990840I0J-172900D01*
G01*
G37*
G36*
G01*
X156262900Y-100700800D02*
X155737100Y-100700800D01*
G75*
G02*
X155474200Y-100437900I0J262900D01*
G01*
X155474200Y-99812100D01*
G75*
G02*
X155737100Y-99549200I262900J0D01*
G01*
X156262900Y-99549200D01*
G75*
G02*
X156525800Y-99812100I0J-262900D01*
G01*
X156525800Y-100437900D01*
G75*
G02*
X156262900Y-100700800I-262900J0D01*
G01*
G37*
G36*
G01*
X156262900Y-102450800D02*
X155737100Y-102450800D01*
G75*
G02*
X155474200Y-102187900I0J262900D01*
G01*
X155474200Y-101562100D01*
G75*
G02*
X155737100Y-101299200I262900J0D01*
G01*
X156262900Y-101299200D01*
G75*
G02*
X156525800Y-101562100I0J-262900D01*
G01*
X156525800Y-102187900D01*
G75*
G02*
X156262900Y-102450800I-262900J0D01*
G01*
G37*
G36*
G01*
X172197900Y-119760800D02*
X171802100Y-119760800D01*
G75*
G02*
X171629200Y-119587900I0J172900D01*
G01*
X171629200Y-119242100D01*
G75*
G02*
X171802100Y-119069200I172900J0D01*
G01*
X172197900Y-119069200D01*
G75*
G02*
X172370800Y-119242100I0J-172900D01*
G01*
X172370800Y-119587900D01*
G75*
G02*
X172197900Y-119760800I-172900J0D01*
G01*
G37*
G36*
G01*
X172197900Y-120730800D02*
X171802100Y-120730800D01*
G75*
G02*
X171629200Y-120557900I0J172900D01*
G01*
X171629200Y-120212100D01*
G75*
G02*
X171802100Y-120039200I172900J0D01*
G01*
X172197900Y-120039200D01*
G75*
G02*
X172370800Y-120212100I0J-172900D01*
G01*
X172370800Y-120557900D01*
G75*
G02*
X172197900Y-120730800I-172900J0D01*
G01*
G37*
D29*
X154297056Y-107302944D03*
X152600000Y-106600000D03*
X150902944Y-107302944D03*
X150200000Y-109000000D03*
X150902944Y-110697056D03*
X152600000Y-111400000D03*
X154297056Y-110697056D03*
X155000000Y-109000000D03*
D30*
X152600000Y-109000000D03*
D29*
X181097056Y-107302944D03*
X179400000Y-106600000D03*
X177702944Y-107302944D03*
X177000000Y-109000000D03*
X177702944Y-110697056D03*
X179400000Y-111400000D03*
X181097056Y-110697056D03*
X181800000Y-109000000D03*
D30*
X179400000Y-109000000D03*
G36*
G01*
X143788100Y-104809900D02*
X143262300Y-104809900D01*
G75*
G02*
X142999400Y-104547000I0J262900D01*
G01*
X142999400Y-103921200D01*
G75*
G02*
X143262300Y-103658300I262900J0D01*
G01*
X143788100Y-103658300D01*
G75*
G02*
X144051000Y-103921200I0J-262900D01*
G01*
X144051000Y-104547000D01*
G75*
G02*
X143788100Y-104809900I-262900J0D01*
G01*
G37*
G36*
G01*
X143788100Y-106559900D02*
X143262300Y-106559900D01*
G75*
G02*
X142999400Y-106297000I0J262900D01*
G01*
X142999400Y-105671200D01*
G75*
G02*
X143262300Y-105408300I262900J0D01*
G01*
X143788100Y-105408300D01*
G75*
G02*
X144051000Y-105671200I0J-262900D01*
G01*
X144051000Y-106297000D01*
G75*
G02*
X143788100Y-106559900I-262900J0D01*
G01*
G37*
G36*
G01*
X143788100Y-101609900D02*
X143262300Y-101609900D01*
G75*
G02*
X142999400Y-101347000I0J262900D01*
G01*
X142999400Y-100721200D01*
G75*
G02*
X143262300Y-100458300I262900J0D01*
G01*
X143788100Y-100458300D01*
G75*
G02*
X144051000Y-100721200I0J-262900D01*
G01*
X144051000Y-101347000D01*
G75*
G02*
X143788100Y-101609900I-262900J0D01*
G01*
G37*
G36*
G01*
X143788100Y-103359900D02*
X143262300Y-103359900D01*
G75*
G02*
X142999400Y-103097000I0J262900D01*
G01*
X142999400Y-102471200D01*
G75*
G02*
X143262300Y-102208300I262900J0D01*
G01*
X143788100Y-102208300D01*
G75*
G02*
X144051000Y-102471200I0J-262900D01*
G01*
X144051000Y-103097000D01*
G75*
G02*
X143788100Y-103359900I-262900J0D01*
G01*
G37*
G36*
G01*
X143788100Y-98409900D02*
X143262300Y-98409900D01*
G75*
G02*
X142999400Y-98147000I0J262900D01*
G01*
X142999400Y-97521200D01*
G75*
G02*
X143262300Y-97258300I262900J0D01*
G01*
X143788100Y-97258300D01*
G75*
G02*
X144051000Y-97521200I0J-262900D01*
G01*
X144051000Y-98147000D01*
G75*
G02*
X143788100Y-98409900I-262900J0D01*
G01*
G37*
G36*
G01*
X143788100Y-100159900D02*
X143262300Y-100159900D01*
G75*
G02*
X142999400Y-99897000I0J262900D01*
G01*
X142999400Y-99271200D01*
G75*
G02*
X143262300Y-99008300I262900J0D01*
G01*
X143788100Y-99008300D01*
G75*
G02*
X144051000Y-99271200I0J-262900D01*
G01*
X144051000Y-99897000D01*
G75*
G02*
X143788100Y-100159900I-262900J0D01*
G01*
G37*
G36*
G01*
X139164400Y-106307000D02*
X139164400Y-105911200D01*
G75*
G02*
X139337300Y-105738300I172900J0D01*
G01*
X139683100Y-105738300D01*
G75*
G02*
X139856000Y-105911200I0J-172900D01*
G01*
X139856000Y-106307000D01*
G75*
G02*
X139683100Y-106479900I-172900J0D01*
G01*
X139337300Y-106479900D01*
G75*
G02*
X139164400Y-106307000I0J172900D01*
G01*
G37*
G36*
G01*
X138194400Y-106307000D02*
X138194400Y-105911200D01*
G75*
G02*
X138367300Y-105738300I172900J0D01*
G01*
X138713100Y-105738300D01*
G75*
G02*
X138886000Y-105911200I0J-172900D01*
G01*
X138886000Y-106307000D01*
G75*
G02*
X138713100Y-106479900I-172900J0D01*
G01*
X138367300Y-106479900D01*
G75*
G02*
X138194400Y-106307000I0J172900D01*
G01*
G37*
G36*
G01*
X139623100Y-104369900D02*
X139227300Y-104369900D01*
G75*
G02*
X139054400Y-104197000I0J172900D01*
G01*
X139054400Y-103851200D01*
G75*
G02*
X139227300Y-103678300I172900J0D01*
G01*
X139623100Y-103678300D01*
G75*
G02*
X139796000Y-103851200I0J-172900D01*
G01*
X139796000Y-104197000D01*
G75*
G02*
X139623100Y-104369900I-172900J0D01*
G01*
G37*
G36*
G01*
X139623100Y-105339900D02*
X139227300Y-105339900D01*
G75*
G02*
X139054400Y-105167000I0J172900D01*
G01*
X139054400Y-104821200D01*
G75*
G02*
X139227300Y-104648300I172900J0D01*
G01*
X139623100Y-104648300D01*
G75*
G02*
X139796000Y-104821200I0J-172900D01*
G01*
X139796000Y-105167000D01*
G75*
G02*
X139623100Y-105339900I-172900J0D01*
G01*
G37*
G36*
G01*
X141013966Y-120039200D02*
X141409766Y-120039200D01*
G75*
G02*
X141582666Y-120212100I0J-172900D01*
G01*
X141582666Y-120557900D01*
G75*
G02*
X141409766Y-120730800I-172900J0D01*
G01*
X141013966Y-120730800D01*
G75*
G02*
X140841066Y-120557900I0J172900D01*
G01*
X140841066Y-120212100D01*
G75*
G02*
X141013966Y-120039200I172900J0D01*
G01*
G37*
G36*
G01*
X141013966Y-119069200D02*
X141409766Y-119069200D01*
G75*
G02*
X141582666Y-119242100I0J-172900D01*
G01*
X141582666Y-119587900D01*
G75*
G02*
X141409766Y-119760800I-172900J0D01*
G01*
X141013966Y-119760800D01*
G75*
G02*
X140841066Y-119587900I0J172900D01*
G01*
X140841066Y-119242100D01*
G75*
G02*
X141013966Y-119069200I172900J0D01*
G01*
G37*
G36*
G01*
X139164400Y-103107000D02*
X139164400Y-102711200D01*
G75*
G02*
X139337300Y-102538300I172900J0D01*
G01*
X139683100Y-102538300D01*
G75*
G02*
X139856000Y-102711200I0J-172900D01*
G01*
X139856000Y-103107000D01*
G75*
G02*
X139683100Y-103279900I-172900J0D01*
G01*
X139337300Y-103279900D01*
G75*
G02*
X139164400Y-103107000I0J172900D01*
G01*
G37*
G36*
G01*
X138194400Y-103107000D02*
X138194400Y-102711200D01*
G75*
G02*
X138367300Y-102538300I172900J0D01*
G01*
X138713100Y-102538300D01*
G75*
G02*
X138886000Y-102711200I0J-172900D01*
G01*
X138886000Y-103107000D01*
G75*
G02*
X138713100Y-103279900I-172900J0D01*
G01*
X138367300Y-103279900D01*
G75*
G02*
X138194400Y-103107000I0J172900D01*
G01*
G37*
G36*
G01*
X139623100Y-101169900D02*
X139227300Y-101169900D01*
G75*
G02*
X139054400Y-100997000I0J172900D01*
G01*
X139054400Y-100651200D01*
G75*
G02*
X139227300Y-100478300I172900J0D01*
G01*
X139623100Y-100478300D01*
G75*
G02*
X139796000Y-100651200I0J-172900D01*
G01*
X139796000Y-100997000D01*
G75*
G02*
X139623100Y-101169900I-172900J0D01*
G01*
G37*
G36*
G01*
X139623100Y-102139900D02*
X139227300Y-102139900D01*
G75*
G02*
X139054400Y-101967000I0J172900D01*
G01*
X139054400Y-101621200D01*
G75*
G02*
X139227300Y-101448300I172900J0D01*
G01*
X139623100Y-101448300D01*
G75*
G02*
X139796000Y-101621200I0J-172900D01*
G01*
X139796000Y-101967000D01*
G75*
G02*
X139623100Y-102139900I-172900J0D01*
G01*
G37*
G36*
G01*
X139808033Y-120024200D02*
X140203833Y-120024200D01*
G75*
G02*
X140376733Y-120197100I0J-172900D01*
G01*
X140376733Y-120542900D01*
G75*
G02*
X140203833Y-120715800I-172900J0D01*
G01*
X139808033Y-120715800D01*
G75*
G02*
X139635133Y-120542900I0J172900D01*
G01*
X139635133Y-120197100D01*
G75*
G02*
X139808033Y-120024200I172900J0D01*
G01*
G37*
G36*
G01*
X139808033Y-119054200D02*
X140203833Y-119054200D01*
G75*
G02*
X140376733Y-119227100I0J-172900D01*
G01*
X140376733Y-119572900D01*
G75*
G02*
X140203833Y-119745800I-172900J0D01*
G01*
X139808033Y-119745800D01*
G75*
G02*
X139635133Y-119572900I0J172900D01*
G01*
X139635133Y-119227100D01*
G75*
G02*
X139808033Y-119054200I172900J0D01*
G01*
G37*
G36*
G01*
X139164400Y-99907000D02*
X139164400Y-99511200D01*
G75*
G02*
X139337300Y-99338300I172900J0D01*
G01*
X139683100Y-99338300D01*
G75*
G02*
X139856000Y-99511200I0J-172900D01*
G01*
X139856000Y-99907000D01*
G75*
G02*
X139683100Y-100079900I-172900J0D01*
G01*
X139337300Y-100079900D01*
G75*
G02*
X139164400Y-99907000I0J172900D01*
G01*
G37*
G36*
G01*
X138194400Y-99907000D02*
X138194400Y-99511200D01*
G75*
G02*
X138367300Y-99338300I172900J0D01*
G01*
X138713100Y-99338300D01*
G75*
G02*
X138886000Y-99511200I0J-172900D01*
G01*
X138886000Y-99907000D01*
G75*
G02*
X138713100Y-100079900I-172900J0D01*
G01*
X138367300Y-100079900D01*
G75*
G02*
X138194400Y-99907000I0J172900D01*
G01*
G37*
G36*
G01*
X139623100Y-97969900D02*
X139227300Y-97969900D01*
G75*
G02*
X139054400Y-97797000I0J172900D01*
G01*
X139054400Y-97451200D01*
G75*
G02*
X139227300Y-97278300I172900J0D01*
G01*
X139623100Y-97278300D01*
G75*
G02*
X139796000Y-97451200I0J-172900D01*
G01*
X139796000Y-97797000D01*
G75*
G02*
X139623100Y-97969900I-172900J0D01*
G01*
G37*
G36*
G01*
X139623100Y-98939900D02*
X139227300Y-98939900D01*
G75*
G02*
X139054400Y-98767000I0J172900D01*
G01*
X139054400Y-98421200D01*
G75*
G02*
X139227300Y-98248300I172900J0D01*
G01*
X139623100Y-98248300D01*
G75*
G02*
X139796000Y-98421200I0J-172900D01*
G01*
X139796000Y-98767000D01*
G75*
G02*
X139623100Y-98939900I-172900J0D01*
G01*
G37*
G36*
G01*
X138602100Y-120039200D02*
X138997900Y-120039200D01*
G75*
G02*
X139170800Y-120212100I0J-172900D01*
G01*
X139170800Y-120557900D01*
G75*
G02*
X138997900Y-120730800I-172900J0D01*
G01*
X138602100Y-120730800D01*
G75*
G02*
X138429200Y-120557900I0J172900D01*
G01*
X138429200Y-120212100D01*
G75*
G02*
X138602100Y-120039200I172900J0D01*
G01*
G37*
G36*
G01*
X138602100Y-119069200D02*
X138997900Y-119069200D01*
G75*
G02*
X139170800Y-119242100I0J-172900D01*
G01*
X139170800Y-119587900D01*
G75*
G02*
X138997900Y-119760800I-172900J0D01*
G01*
X138602100Y-119760800D01*
G75*
G02*
X138429200Y-119587900I0J172900D01*
G01*
X138429200Y-119242100D01*
G75*
G02*
X138602100Y-119069200I172900J0D01*
G01*
G37*
D31*
X168960000Y-98462500D03*
X175960000Y-98462500D03*
D32*
X169960000Y-101162500D03*
X174960000Y-101162500D03*
D12*
G36*
X144082411Y-112970176D02*
G01*
X144091940Y-112973067D01*
X144100723Y-112977761D01*
X144108421Y-112984079D01*
X144114739Y-112991777D01*
X144119433Y-113000560D01*
X144122324Y-113010089D01*
X144123300Y-113020000D01*
X144123300Y-113425000D01*
X144122324Y-113434911D01*
X144119433Y-113444440D01*
X144114739Y-113453223D01*
X144108421Y-113460921D01*
X144100723Y-113467239D01*
X144091940Y-113471933D01*
X144082411Y-113474824D01*
X144072500Y-113475800D01*
X143613300Y-113475800D01*
X143613300Y-113629200D01*
X144072500Y-113629200D01*
X144082411Y-113630176D01*
X144091940Y-113633067D01*
X144100723Y-113637761D01*
X144108421Y-113644079D01*
X144114739Y-113651777D01*
X144119433Y-113660560D01*
X144122324Y-113670089D01*
X144123300Y-113680000D01*
X144123300Y-114102500D01*
X144122324Y-114112411D01*
X144119433Y-114121940D01*
X144114739Y-114130723D01*
X144108421Y-114138421D01*
X144100723Y-114144739D01*
X144091940Y-114149433D01*
X144082411Y-114152324D01*
X144072500Y-114153300D01*
X143312500Y-114153300D01*
X143302589Y-114152324D01*
X143293060Y-114149433D01*
X143284277Y-114144739D01*
X143276579Y-114138421D01*
X143270261Y-114130723D01*
X143265567Y-114121940D01*
X143262676Y-114112411D01*
X143261700Y-114102500D01*
X143261700Y-114060800D01*
X141837500Y-114060800D01*
X141827589Y-114059824D01*
X141818060Y-114056933D01*
X141809277Y-114052239D01*
X141801579Y-114045921D01*
X141795261Y-114038223D01*
X141790567Y-114029440D01*
X141787676Y-114019911D01*
X141786700Y-114010000D01*
X141786700Y-113020000D01*
X141787676Y-113010089D01*
X141790567Y-113000560D01*
X141795261Y-112991777D01*
X141801579Y-112984079D01*
X141809277Y-112977761D01*
X141818060Y-112973067D01*
X141827589Y-112970176D01*
X141837500Y-112969200D01*
X144072500Y-112969200D01*
X144082411Y-112970176D01*
G37*
G36*
X144082411Y-111662676D02*
G01*
X144091940Y-111665567D01*
X144100723Y-111670261D01*
X144108421Y-111676579D01*
X144114739Y-111684277D01*
X144119433Y-111693060D01*
X144122324Y-111702589D01*
X144123300Y-111712500D01*
X144123300Y-112135000D01*
X144122324Y-112144911D01*
X144119433Y-112154440D01*
X144114739Y-112163223D01*
X144108421Y-112170921D01*
X144100723Y-112177239D01*
X144091940Y-112181933D01*
X144082411Y-112184824D01*
X144072500Y-112185800D01*
X143613300Y-112185800D01*
X143613300Y-112339200D01*
X144072500Y-112339200D01*
X144082411Y-112340176D01*
X144091940Y-112343067D01*
X144100723Y-112347761D01*
X144108421Y-112354079D01*
X144114739Y-112361777D01*
X144119433Y-112370560D01*
X144122324Y-112380089D01*
X144123300Y-112390000D01*
X144123300Y-112795000D01*
X144122324Y-112804911D01*
X144119433Y-112814440D01*
X144114739Y-112823223D01*
X144108421Y-112830921D01*
X144100723Y-112837239D01*
X144091940Y-112841933D01*
X144082411Y-112844824D01*
X144072500Y-112845800D01*
X141837500Y-112845800D01*
X141827589Y-112844824D01*
X141818060Y-112841933D01*
X141809277Y-112837239D01*
X141801579Y-112830921D01*
X141795261Y-112823223D01*
X141790567Y-112814440D01*
X141787676Y-112804911D01*
X141786700Y-112795000D01*
X141786700Y-111805000D01*
X141787676Y-111795089D01*
X141790567Y-111785560D01*
X141795261Y-111776777D01*
X141801579Y-111769079D01*
X141809277Y-111762761D01*
X141818060Y-111758067D01*
X141827589Y-111755176D01*
X141837500Y-111754200D01*
X143261700Y-111754200D01*
X143261700Y-111712500D01*
X143262676Y-111702589D01*
X143265567Y-111693060D01*
X143270261Y-111684277D01*
X143276579Y-111676579D01*
X143284277Y-111670261D01*
X143293060Y-111665567D01*
X143302589Y-111662676D01*
X143312500Y-111661700D01*
X144072500Y-111661700D01*
X144082411Y-111662676D01*
G37*
D33*
X140707500Y-111917500D03*
X140707500Y-112577500D03*
X140707500Y-113237500D03*
X140707500Y-113897500D03*
D12*
G36*
X144065611Y-109066776D02*
G01*
X144075140Y-109069667D01*
X144083923Y-109074361D01*
X144091621Y-109080679D01*
X144097939Y-109088377D01*
X144102633Y-109097160D01*
X144105524Y-109106689D01*
X144106500Y-109116600D01*
X144106500Y-109521600D01*
X144105524Y-109531511D01*
X144102633Y-109541040D01*
X144097939Y-109549823D01*
X144091621Y-109557521D01*
X144083923Y-109563839D01*
X144075140Y-109568533D01*
X144065611Y-109571424D01*
X144055700Y-109572400D01*
X143596500Y-109572400D01*
X143596500Y-109725800D01*
X144055700Y-109725800D01*
X144065611Y-109726776D01*
X144075140Y-109729667D01*
X144083923Y-109734361D01*
X144091621Y-109740679D01*
X144097939Y-109748377D01*
X144102633Y-109757160D01*
X144105524Y-109766689D01*
X144106500Y-109776600D01*
X144106500Y-110199100D01*
X144105524Y-110209011D01*
X144102633Y-110218540D01*
X144097939Y-110227323D01*
X144091621Y-110235021D01*
X144083923Y-110241339D01*
X144075140Y-110246033D01*
X144065611Y-110248924D01*
X144055700Y-110249900D01*
X143295700Y-110249900D01*
X143285789Y-110248924D01*
X143276260Y-110246033D01*
X143267477Y-110241339D01*
X143259779Y-110235021D01*
X143253461Y-110227323D01*
X143248767Y-110218540D01*
X143245876Y-110209011D01*
X143244900Y-110199100D01*
X143244900Y-110157400D01*
X141820700Y-110157400D01*
X141810789Y-110156424D01*
X141801260Y-110153533D01*
X141792477Y-110148839D01*
X141784779Y-110142521D01*
X141778461Y-110134823D01*
X141773767Y-110126040D01*
X141770876Y-110116511D01*
X141769900Y-110106600D01*
X141769900Y-109116600D01*
X141770876Y-109106689D01*
X141773767Y-109097160D01*
X141778461Y-109088377D01*
X141784779Y-109080679D01*
X141792477Y-109074361D01*
X141801260Y-109069667D01*
X141810789Y-109066776D01*
X141820700Y-109065800D01*
X144055700Y-109065800D01*
X144065611Y-109066776D01*
G37*
G36*
X144065611Y-107759276D02*
G01*
X144075140Y-107762167D01*
X144083923Y-107766861D01*
X144091621Y-107773179D01*
X144097939Y-107780877D01*
X144102633Y-107789660D01*
X144105524Y-107799189D01*
X144106500Y-107809100D01*
X144106500Y-108231600D01*
X144105524Y-108241511D01*
X144102633Y-108251040D01*
X144097939Y-108259823D01*
X144091621Y-108267521D01*
X144083923Y-108273839D01*
X144075140Y-108278533D01*
X144065611Y-108281424D01*
X144055700Y-108282400D01*
X143596500Y-108282400D01*
X143596500Y-108435800D01*
X144055700Y-108435800D01*
X144065611Y-108436776D01*
X144075140Y-108439667D01*
X144083923Y-108444361D01*
X144091621Y-108450679D01*
X144097939Y-108458377D01*
X144102633Y-108467160D01*
X144105524Y-108476689D01*
X144106500Y-108486600D01*
X144106500Y-108891600D01*
X144105524Y-108901511D01*
X144102633Y-108911040D01*
X144097939Y-108919823D01*
X144091621Y-108927521D01*
X144083923Y-108933839D01*
X144075140Y-108938533D01*
X144065611Y-108941424D01*
X144055700Y-108942400D01*
X141820700Y-108942400D01*
X141810789Y-108941424D01*
X141801260Y-108938533D01*
X141792477Y-108933839D01*
X141784779Y-108927521D01*
X141778461Y-108919823D01*
X141773767Y-108911040D01*
X141770876Y-108901511D01*
X141769900Y-108891600D01*
X141769900Y-107901600D01*
X141770876Y-107891689D01*
X141773767Y-107882160D01*
X141778461Y-107873377D01*
X141784779Y-107865679D01*
X141792477Y-107859361D01*
X141801260Y-107854667D01*
X141810789Y-107851776D01*
X141820700Y-107850800D01*
X143244900Y-107850800D01*
X143244900Y-107809100D01*
X143245876Y-107799189D01*
X143248767Y-107789660D01*
X143253461Y-107780877D01*
X143259779Y-107773179D01*
X143267477Y-107766861D01*
X143276260Y-107762167D01*
X143285789Y-107759276D01*
X143295700Y-107758300D01*
X144055700Y-107758300D01*
X144065611Y-107759276D01*
G37*
D33*
X140690700Y-108014100D03*
X140690700Y-108674100D03*
X140690700Y-109334100D03*
X140690700Y-109994100D03*
D28*
X142075200Y-104159100D03*
X140775200Y-104159100D03*
X141425200Y-106059100D03*
X141425200Y-104159100D03*
X140775200Y-106059100D03*
X142075200Y-106059100D03*
X142075200Y-100959100D03*
X140775200Y-100959100D03*
X141425200Y-102859100D03*
X141425200Y-100959100D03*
X140775200Y-102859100D03*
X142075200Y-102859100D03*
X142075200Y-97759100D03*
X140775200Y-97759100D03*
X141425200Y-99659100D03*
X141425200Y-97759100D03*
X140775200Y-99659100D03*
X142075200Y-99659100D03*
D34*
X178500000Y-98550000D03*
X178500000Y-99800000D03*
X178500000Y-101050000D03*
G36*
G01*
X178975400Y-102750800D02*
X178024600Y-102750800D01*
G75*
G02*
X177799200Y-102525400I0J225400D01*
G01*
X177799200Y-102074600D01*
G75*
G02*
X178024600Y-101849200I225400J0D01*
G01*
X178975400Y-101849200D01*
G75*
G02*
X179200800Y-102074600I0J-225400D01*
G01*
X179200800Y-102525400D01*
G75*
G02*
X178975400Y-102750800I-225400J0D01*
G01*
G37*
G36*
G01*
X158750800Y-97519600D02*
X158750800Y-97870400D01*
G75*
G02*
X158575400Y-98045800I-175400J0D01*
G01*
X156874600Y-98045800D01*
G75*
G02*
X156699200Y-97870400I0J175400D01*
G01*
X156699200Y-97519600D01*
G75*
G02*
X156874600Y-97344200I175400J0D01*
G01*
X158575400Y-97344200D01*
G75*
G02*
X158750800Y-97519600I0J-175400D01*
G01*
G37*
G36*
G01*
X158750800Y-98789600D02*
X158750800Y-99140400D01*
G75*
G02*
X158575400Y-99315800I-175400J0D01*
G01*
X156874600Y-99315800D01*
G75*
G02*
X156699200Y-99140400I0J175400D01*
G01*
X156699200Y-98789600D01*
G75*
G02*
X156874600Y-98614200I175400J0D01*
G01*
X158575400Y-98614200D01*
G75*
G02*
X158750800Y-98789600I0J-175400D01*
G01*
G37*
G36*
G01*
X158750800Y-100059600D02*
X158750800Y-100410400D01*
G75*
G02*
X158575400Y-100585800I-175400J0D01*
G01*
X156874600Y-100585800D01*
G75*
G02*
X156699200Y-100410400I0J175400D01*
G01*
X156699200Y-100059600D01*
G75*
G02*
X156874600Y-99884200I175400J0D01*
G01*
X158575400Y-99884200D01*
G75*
G02*
X158750800Y-100059600I0J-175400D01*
G01*
G37*
G36*
G01*
X158750800Y-101329600D02*
X158750800Y-101680400D01*
G75*
G02*
X158575400Y-101855800I-175400J0D01*
G01*
X156874600Y-101855800D01*
G75*
G02*
X156699200Y-101680400I0J175400D01*
G01*
X156699200Y-101329600D01*
G75*
G02*
X156874600Y-101154200I175400J0D01*
G01*
X158575400Y-101154200D01*
G75*
G02*
X158750800Y-101329600I0J-175400D01*
G01*
G37*
G36*
G01*
X163700800Y-101329600D02*
X163700800Y-101680400D01*
G75*
G02*
X163525400Y-101855800I-175400J0D01*
G01*
X161824600Y-101855800D01*
G75*
G02*
X161649200Y-101680400I0J175400D01*
G01*
X161649200Y-101329600D01*
G75*
G02*
X161824600Y-101154200I175400J0D01*
G01*
X163525400Y-101154200D01*
G75*
G02*
X163700800Y-101329600I0J-175400D01*
G01*
G37*
G36*
G01*
X163700800Y-100059600D02*
X163700800Y-100410400D01*
G75*
G02*
X163525400Y-100585800I-175400J0D01*
G01*
X161824600Y-100585800D01*
G75*
G02*
X161649200Y-100410400I0J175400D01*
G01*
X161649200Y-100059600D01*
G75*
G02*
X161824600Y-99884200I175400J0D01*
G01*
X163525400Y-99884200D01*
G75*
G02*
X163700800Y-100059600I0J-175400D01*
G01*
G37*
G36*
G01*
X163700800Y-98789600D02*
X163700800Y-99140400D01*
G75*
G02*
X163525400Y-99315800I-175400J0D01*
G01*
X161824600Y-99315800D01*
G75*
G02*
X161649200Y-99140400I0J175400D01*
G01*
X161649200Y-98789600D01*
G75*
G02*
X161824600Y-98614200I175400J0D01*
G01*
X163525400Y-98614200D01*
G75*
G02*
X163700800Y-98789600I0J-175400D01*
G01*
G37*
G36*
G01*
X163700800Y-97519600D02*
X163700800Y-97870400D01*
G75*
G02*
X163525400Y-98045800I-175400J0D01*
G01*
X161824600Y-98045800D01*
G75*
G02*
X161649200Y-97870400I0J175400D01*
G01*
X161649200Y-97519600D01*
G75*
G02*
X161824600Y-97344200I175400J0D01*
G01*
X163525400Y-97344200D01*
G75*
G02*
X163700800Y-97519600I0J-175400D01*
G01*
G37*
D35*
X161515000Y-103315000D03*
X157765000Y-103315000D03*
X159015000Y-103315000D03*
X160265000Y-103315000D03*
X157765000Y-105465000D03*
X159015000Y-105465000D03*
X160265000Y-105465000D03*
X161515000Y-105465000D03*
M02*
