G04 #@! TF.GenerationSoftware,KiCad,Pcbnew,5.1.6*
G04 #@! TF.CreationDate,2020-06-25T22:37:20+02:00*
G04 #@! TF.ProjectId,altimeter,616c7469-6d65-4746-9572-2e6b69636164,V 1.2 Rev. A*
G04 #@! TF.SameCoordinates,Original*
G04 #@! TF.FileFunction,Paste,Top*
G04 #@! TF.FilePolarity,Positive*
%FSLAX46Y46*%
G04 Gerber Fmt 4.6, Leading zero omitted, Abs format (unit mm)*
G04 Created by KiCad (PCBNEW 5.1.6) date 2020-06-25 22:37:20*
%MOMM*%
%LPD*%
G01*
G04 APERTURE LIST*
%ADD10R,0.500000X0.300000*%
%ADD11R,0.600000X1.000000*%
%ADD12R,0.500000X0.260000*%
%ADD13R,0.780000X0.780000*%
%ADD14R,0.340000X0.460000*%
%ADD15C,0.100000*%
%ADD16R,0.304000X0.772000*%
%ADD17R,0.700000X0.620000*%
%ADD18R,0.620000X0.700000*%
%ADD19R,1.180000X1.500000*%
%ADD20R,0.300000X1.060000*%
%ADD21R,0.780000X2.044000*%
G04 APERTURE END LIST*
D10*
X163425000Y-97750000D03*
X163425000Y-99050000D03*
X161525000Y-98400000D03*
X161525000Y-99050000D03*
X161525000Y-97750000D03*
G36*
G01*
X158350301Y-102700000D02*
X157749699Y-102700000D01*
G75*
G02*
X157700000Y-102650301I0J49699D01*
G01*
X157700000Y-101749699D01*
G75*
G02*
X157749699Y-101700000I49699J0D01*
G01*
X158350301Y-101700000D01*
G75*
G02*
X158400000Y-101749699I0J-49699D01*
G01*
X158400000Y-102650301D01*
G75*
G02*
X158350301Y-102700000I-49699J0D01*
G01*
G37*
G36*
G01*
X157450301Y-102700000D02*
X156849699Y-102700000D01*
G75*
G02*
X156800000Y-102650301I0J49699D01*
G01*
X156800000Y-101749699D01*
G75*
G02*
X156849699Y-101700000I49699J0D01*
G01*
X157450301Y-101700000D01*
G75*
G02*
X157500000Y-101749699I0J-49699D01*
G01*
X157500000Y-102650301D01*
G75*
G02*
X157450301Y-102700000I-49699J0D01*
G01*
G37*
G36*
G01*
X158323260Y-101395000D02*
X158176740Y-101395000D01*
G75*
G02*
X158140000Y-101358260I0J36740D01*
G01*
X158140000Y-101091740D01*
G75*
G02*
X158176740Y-101055000I36740J0D01*
G01*
X158323260Y-101055000D01*
G75*
G02*
X158360000Y-101091740I0J-36740D01*
G01*
X158360000Y-101358260D01*
G75*
G02*
X158323260Y-101395000I-36740J0D01*
G01*
G37*
G36*
G01*
X157673260Y-101395000D02*
X157526740Y-101395000D01*
G75*
G02*
X157490000Y-101358260I0J36740D01*
G01*
X157490000Y-101091740D01*
G75*
G02*
X157526740Y-101055000I36740J0D01*
G01*
X157673260Y-101055000D01*
G75*
G02*
X157710000Y-101091740I0J-36740D01*
G01*
X157710000Y-101358260D01*
G75*
G02*
X157673260Y-101395000I-36740J0D01*
G01*
G37*
G36*
G01*
X157023260Y-101395000D02*
X156876740Y-101395000D01*
G75*
G02*
X156840000Y-101358260I0J36740D01*
G01*
X156840000Y-101091740D01*
G75*
G02*
X156876740Y-101055000I36740J0D01*
G01*
X157023260Y-101055000D01*
G75*
G02*
X157060000Y-101091740I0J-36740D01*
G01*
X157060000Y-101358260D01*
G75*
G02*
X157023260Y-101395000I-36740J0D01*
G01*
G37*
G36*
G01*
X158323260Y-103345000D02*
X158176740Y-103345000D01*
G75*
G02*
X158140000Y-103308260I0J36740D01*
G01*
X158140000Y-103041740D01*
G75*
G02*
X158176740Y-103005000I36740J0D01*
G01*
X158323260Y-103005000D01*
G75*
G02*
X158360000Y-103041740I0J-36740D01*
G01*
X158360000Y-103308260D01*
G75*
G02*
X158323260Y-103345000I-36740J0D01*
G01*
G37*
G36*
G01*
X157673260Y-103345000D02*
X157526740Y-103345000D01*
G75*
G02*
X157490000Y-103308260I0J36740D01*
G01*
X157490000Y-103041740D01*
G75*
G02*
X157526740Y-103005000I36740J0D01*
G01*
X157673260Y-103005000D01*
G75*
G02*
X157710000Y-103041740I0J-36740D01*
G01*
X157710000Y-103308260D01*
G75*
G02*
X157673260Y-103345000I-36740J0D01*
G01*
G37*
G36*
G01*
X157023260Y-103345000D02*
X156876740Y-103345000D01*
G75*
G02*
X156840000Y-103308260I0J36740D01*
G01*
X156840000Y-103041740D01*
G75*
G02*
X156876740Y-103005000I36740J0D01*
G01*
X157023260Y-103005000D01*
G75*
G02*
X157060000Y-103041740I0J-36740D01*
G01*
X157060000Y-103308260D01*
G75*
G02*
X157023260Y-103345000I-36740J0D01*
G01*
G37*
G36*
G01*
X158550000Y-105515000D02*
X158550000Y-105145000D01*
G75*
G02*
X158735000Y-104960000I185000J0D01*
G01*
X159185000Y-104960000D01*
G75*
G02*
X159370000Y-105145000I0J-185000D01*
G01*
X159370000Y-105515000D01*
G75*
G02*
X159185000Y-105700000I-185000J0D01*
G01*
X158735000Y-105700000D01*
G75*
G02*
X158550000Y-105515000I0J185000D01*
G01*
G37*
G36*
G01*
X156800000Y-105515000D02*
X156800000Y-105145000D01*
G75*
G02*
X156985000Y-104960000I185000J0D01*
G01*
X157435000Y-104960000D01*
G75*
G02*
X157620000Y-105145000I0J-185000D01*
G01*
X157620000Y-105515000D01*
G75*
G02*
X157435000Y-105700000I-185000J0D01*
G01*
X156985000Y-105700000D01*
G75*
G02*
X156800000Y-105515000I0J185000D01*
G01*
G37*
G36*
G01*
X151330651Y-104505000D02*
X152039349Y-104505000D01*
G75*
G02*
X152235000Y-104700651I0J-195651D01*
G01*
X152235000Y-105209349D01*
G75*
G02*
X152039349Y-105405000I-195651J0D01*
G01*
X151330651Y-105405000D01*
G75*
G02*
X151135000Y-105209349I0J195651D01*
G01*
X151135000Y-104700651D01*
G75*
G02*
X151330651Y-104505000I195651J0D01*
G01*
G37*
G36*
G01*
X151330651Y-102455000D02*
X152039349Y-102455000D01*
G75*
G02*
X152235000Y-102650651I0J-195651D01*
G01*
X152235000Y-103159349D01*
G75*
G02*
X152039349Y-103355000I-195651J0D01*
G01*
X151330651Y-103355000D01*
G75*
G02*
X151135000Y-103159349I0J195651D01*
G01*
X151135000Y-102650651D01*
G75*
G02*
X151330651Y-102455000I195651J0D01*
G01*
G37*
G36*
G01*
X153145651Y-104505000D02*
X153854349Y-104505000D01*
G75*
G02*
X154050000Y-104700651I0J-195651D01*
G01*
X154050000Y-105209349D01*
G75*
G02*
X153854349Y-105405000I-195651J0D01*
G01*
X153145651Y-105405000D01*
G75*
G02*
X152950000Y-105209349I0J195651D01*
G01*
X152950000Y-104700651D01*
G75*
G02*
X153145651Y-104505000I195651J0D01*
G01*
G37*
G36*
G01*
X153145651Y-102455000D02*
X153854349Y-102455000D01*
G75*
G02*
X154050000Y-102650651I0J-195651D01*
G01*
X154050000Y-103159349D01*
G75*
G02*
X153854349Y-103355000I-195651J0D01*
G01*
X153145651Y-103355000D01*
G75*
G02*
X152950000Y-103159349I0J195651D01*
G01*
X152950000Y-102650651D01*
G75*
G02*
X153145651Y-102455000I195651J0D01*
G01*
G37*
G36*
G01*
X149515651Y-104505000D02*
X150224349Y-104505000D01*
G75*
G02*
X150420000Y-104700651I0J-195651D01*
G01*
X150420000Y-105209349D01*
G75*
G02*
X150224349Y-105405000I-195651J0D01*
G01*
X149515651Y-105405000D01*
G75*
G02*
X149320000Y-105209349I0J195651D01*
G01*
X149320000Y-104700651D01*
G75*
G02*
X149515651Y-104505000I195651J0D01*
G01*
G37*
G36*
G01*
X149515651Y-102455000D02*
X150224349Y-102455000D01*
G75*
G02*
X150420000Y-102650651I0J-195651D01*
G01*
X150420000Y-103159349D01*
G75*
G02*
X150224349Y-103355000I-195651J0D01*
G01*
X149515651Y-103355000D01*
G75*
G02*
X149320000Y-103159349I0J195651D01*
G01*
X149320000Y-102650651D01*
G75*
G02*
X149515651Y-102455000I195651J0D01*
G01*
G37*
G36*
G01*
X163135000Y-104475000D02*
X163135000Y-104845000D01*
G75*
G02*
X162950000Y-105030000I-185000J0D01*
G01*
X162500000Y-105030000D01*
G75*
G02*
X162315000Y-104845000I0J185000D01*
G01*
X162315000Y-104475000D01*
G75*
G02*
X162500000Y-104290000I185000J0D01*
G01*
X162950000Y-104290000D01*
G75*
G02*
X163135000Y-104475000I0J-185000D01*
G01*
G37*
G36*
G01*
X164885000Y-104475000D02*
X164885000Y-104845000D01*
G75*
G02*
X164700000Y-105030000I-185000J0D01*
G01*
X164250000Y-105030000D01*
G75*
G02*
X164065000Y-104845000I0J185000D01*
G01*
X164065000Y-104475000D01*
G75*
G02*
X164250000Y-104290000I185000J0D01*
G01*
X164700000Y-104290000D01*
G75*
G02*
X164885000Y-104475000I0J-185000D01*
G01*
G37*
G36*
G01*
X163333000Y-101541000D02*
X163067000Y-101541000D01*
G75*
G02*
X162954000Y-101428000I0J113000D01*
G01*
X162954000Y-101202000D01*
G75*
G02*
X163067000Y-101089000I113000J0D01*
G01*
X163333000Y-101089000D01*
G75*
G02*
X163446000Y-101202000I0J-113000D01*
G01*
X163446000Y-101428000D01*
G75*
G02*
X163333000Y-101541000I-113000J0D01*
G01*
G37*
G36*
G01*
X163333000Y-102511000D02*
X163067000Y-102511000D01*
G75*
G02*
X162954000Y-102398000I0J113000D01*
G01*
X162954000Y-102172000D01*
G75*
G02*
X163067000Y-102059000I113000J0D01*
G01*
X163333000Y-102059000D01*
G75*
G02*
X163446000Y-102172000I0J-113000D01*
G01*
X163446000Y-102398000D01*
G75*
G02*
X163333000Y-102511000I-113000J0D01*
G01*
G37*
G36*
G01*
X159057500Y-100260000D02*
X159057500Y-99540000D01*
G75*
G02*
X159247500Y-99350000I190000J0D01*
G01*
X159627500Y-99350000D01*
G75*
G02*
X159817500Y-99540000I0J-190000D01*
G01*
X159817500Y-100260000D01*
G75*
G02*
X159627500Y-100450000I-190000J0D01*
G01*
X159247500Y-100450000D01*
G75*
G02*
X159057500Y-100260000I0J190000D01*
G01*
G37*
G36*
G01*
X157182500Y-100260000D02*
X157182500Y-99540000D01*
G75*
G02*
X157372500Y-99350000I190000J0D01*
G01*
X157752500Y-99350000D01*
G75*
G02*
X157942500Y-99540000I0J-190000D01*
G01*
X157942500Y-100260000D01*
G75*
G02*
X157752500Y-100450000I-190000J0D01*
G01*
X157372500Y-100450000D01*
G75*
G02*
X157182500Y-100260000I0J190000D01*
G01*
G37*
D11*
X167537500Y-103950000D03*
X166762500Y-103950000D03*
X166762500Y-102750000D03*
X167537500Y-102750000D03*
D12*
X165600000Y-104325000D03*
X165600000Y-103675000D03*
X165600000Y-103025000D03*
X165600000Y-102375000D03*
X168700000Y-102375000D03*
X168700000Y-103025000D03*
X168700000Y-103675000D03*
X168700000Y-104325000D03*
G36*
G01*
X160011000Y-110797000D02*
X160011000Y-111063000D01*
G75*
G02*
X159898000Y-111176000I-113000J0D01*
G01*
X159672000Y-111176000D01*
G75*
G02*
X159559000Y-111063000I0J113000D01*
G01*
X159559000Y-110797000D01*
G75*
G02*
X159672000Y-110684000I113000J0D01*
G01*
X159898000Y-110684000D01*
G75*
G02*
X160011000Y-110797000I0J-113000D01*
G01*
G37*
G36*
G01*
X160981000Y-110797000D02*
X160981000Y-111063000D01*
G75*
G02*
X160868000Y-111176000I-113000J0D01*
G01*
X160642000Y-111176000D01*
G75*
G02*
X160529000Y-111063000I0J113000D01*
G01*
X160529000Y-110797000D01*
G75*
G02*
X160642000Y-110684000I113000J0D01*
G01*
X160868000Y-110684000D01*
G75*
G02*
X160981000Y-110797000I0J-113000D01*
G01*
G37*
G36*
G01*
X160011000Y-111677000D02*
X160011000Y-111943000D01*
G75*
G02*
X159898000Y-112056000I-113000J0D01*
G01*
X159672000Y-112056000D01*
G75*
G02*
X159559000Y-111943000I0J113000D01*
G01*
X159559000Y-111677000D01*
G75*
G02*
X159672000Y-111564000I113000J0D01*
G01*
X159898000Y-111564000D01*
G75*
G02*
X160011000Y-111677000I0J-113000D01*
G01*
G37*
G36*
G01*
X160981000Y-111677000D02*
X160981000Y-111943000D01*
G75*
G02*
X160868000Y-112056000I-113000J0D01*
G01*
X160642000Y-112056000D01*
G75*
G02*
X160529000Y-111943000I0J113000D01*
G01*
X160529000Y-111677000D01*
G75*
G02*
X160642000Y-111564000I113000J0D01*
G01*
X160868000Y-111564000D01*
G75*
G02*
X160981000Y-111677000I0J-113000D01*
G01*
G37*
G36*
G01*
X160011000Y-112557000D02*
X160011000Y-112823000D01*
G75*
G02*
X159898000Y-112936000I-113000J0D01*
G01*
X159672000Y-112936000D01*
G75*
G02*
X159559000Y-112823000I0J113000D01*
G01*
X159559000Y-112557000D01*
G75*
G02*
X159672000Y-112444000I113000J0D01*
G01*
X159898000Y-112444000D01*
G75*
G02*
X160011000Y-112557000I0J-113000D01*
G01*
G37*
G36*
G01*
X160981000Y-112557000D02*
X160981000Y-112823000D01*
G75*
G02*
X160868000Y-112936000I-113000J0D01*
G01*
X160642000Y-112936000D01*
G75*
G02*
X160529000Y-112823000I0J113000D01*
G01*
X160529000Y-112557000D01*
G75*
G02*
X160642000Y-112444000I113000J0D01*
G01*
X160868000Y-112444000D01*
G75*
G02*
X160981000Y-112557000I0J-113000D01*
G01*
G37*
D13*
X158225000Y-112425000D03*
X156375000Y-112425000D03*
X156375000Y-111175000D03*
X158225000Y-111175000D03*
G36*
G01*
X173445000Y-109892381D02*
X173445000Y-107907619D01*
G75*
G02*
X173642619Y-107710000I197619J0D01*
G01*
X174907381Y-107710000D01*
G75*
G02*
X175105000Y-107907619I0J-197619D01*
G01*
X175105000Y-109892381D01*
G75*
G02*
X174907381Y-110090000I-197619J0D01*
G01*
X173642619Y-110090000D01*
G75*
G02*
X173445000Y-109892381I0J197619D01*
G01*
G37*
G36*
G01*
X157095000Y-109892381D02*
X157095000Y-107907619D01*
G75*
G02*
X157292619Y-107710000I197619J0D01*
G01*
X158557381Y-107710000D01*
G75*
G02*
X158755000Y-107907619I0J-197619D01*
G01*
X158755000Y-109892381D01*
G75*
G02*
X158557381Y-110090000I-197619J0D01*
G01*
X157292619Y-110090000D01*
G75*
G02*
X157095000Y-109892381I0J197619D01*
G01*
G37*
G36*
G01*
X171415000Y-106505000D02*
X171415000Y-105795000D01*
G75*
G02*
X171570000Y-105640000I155000J0D01*
G01*
X171880000Y-105640000D01*
G75*
G02*
X172035000Y-105795000I0J-155000D01*
G01*
X172035000Y-106505000D01*
G75*
G02*
X171880000Y-106660000I-155000J0D01*
G01*
X171570000Y-106660000D01*
G75*
G02*
X171415000Y-106505000I0J155000D01*
G01*
G37*
G36*
G01*
X170165000Y-106505000D02*
X170165000Y-105795000D01*
G75*
G02*
X170320000Y-105640000I155000J0D01*
G01*
X170630000Y-105640000D01*
G75*
G02*
X170785000Y-105795000I0J-155000D01*
G01*
X170785000Y-106505000D01*
G75*
G02*
X170630000Y-106660000I-155000J0D01*
G01*
X170320000Y-106660000D01*
G75*
G02*
X170165000Y-106505000I0J155000D01*
G01*
G37*
G36*
G01*
X168915000Y-106505000D02*
X168915000Y-105795000D01*
G75*
G02*
X169070000Y-105640000I155000J0D01*
G01*
X169380000Y-105640000D01*
G75*
G02*
X169535000Y-105795000I0J-155000D01*
G01*
X169535000Y-106505000D01*
G75*
G02*
X169380000Y-106660000I-155000J0D01*
G01*
X169070000Y-106660000D01*
G75*
G02*
X168915000Y-106505000I0J155000D01*
G01*
G37*
G36*
G01*
X167665000Y-106505000D02*
X167665000Y-105795000D01*
G75*
G02*
X167820000Y-105640000I155000J0D01*
G01*
X168130000Y-105640000D01*
G75*
G02*
X168285000Y-105795000I0J-155000D01*
G01*
X168285000Y-106505000D01*
G75*
G02*
X168130000Y-106660000I-155000J0D01*
G01*
X167820000Y-106660000D01*
G75*
G02*
X167665000Y-106505000I0J155000D01*
G01*
G37*
G36*
G01*
X166415000Y-106505000D02*
X166415000Y-105795000D01*
G75*
G02*
X166570000Y-105640000I155000J0D01*
G01*
X166880000Y-105640000D01*
G75*
G02*
X167035000Y-105795000I0J-155000D01*
G01*
X167035000Y-106505000D01*
G75*
G02*
X166880000Y-106660000I-155000J0D01*
G01*
X166570000Y-106660000D01*
G75*
G02*
X166415000Y-106505000I0J155000D01*
G01*
G37*
G36*
G01*
X165165000Y-106505000D02*
X165165000Y-105795000D01*
G75*
G02*
X165320000Y-105640000I155000J0D01*
G01*
X165630000Y-105640000D01*
G75*
G02*
X165785000Y-105795000I0J-155000D01*
G01*
X165785000Y-106505000D01*
G75*
G02*
X165630000Y-106660000I-155000J0D01*
G01*
X165320000Y-106660000D01*
G75*
G02*
X165165000Y-106505000I0J155000D01*
G01*
G37*
G36*
G01*
X163915000Y-106505000D02*
X163915000Y-105795000D01*
G75*
G02*
X164070000Y-105640000I155000J0D01*
G01*
X164380000Y-105640000D01*
G75*
G02*
X164535000Y-105795000I0J-155000D01*
G01*
X164535000Y-106505000D01*
G75*
G02*
X164380000Y-106660000I-155000J0D01*
G01*
X164070000Y-106660000D01*
G75*
G02*
X163915000Y-106505000I0J155000D01*
G01*
G37*
G36*
G01*
X162665000Y-106505000D02*
X162665000Y-105795000D01*
G75*
G02*
X162820000Y-105640000I155000J0D01*
G01*
X163130000Y-105640000D01*
G75*
G02*
X163285000Y-105795000I0J-155000D01*
G01*
X163285000Y-106505000D01*
G75*
G02*
X163130000Y-106660000I-155000J0D01*
G01*
X162820000Y-106660000D01*
G75*
G02*
X162665000Y-106505000I0J155000D01*
G01*
G37*
G36*
G01*
X161415000Y-106505000D02*
X161415000Y-105795000D01*
G75*
G02*
X161570000Y-105640000I155000J0D01*
G01*
X161880000Y-105640000D01*
G75*
G02*
X162035000Y-105795000I0J-155000D01*
G01*
X162035000Y-106505000D01*
G75*
G02*
X161880000Y-106660000I-155000J0D01*
G01*
X161570000Y-106660000D01*
G75*
G02*
X161415000Y-106505000I0J155000D01*
G01*
G37*
G36*
G01*
X160165000Y-106505000D02*
X160165000Y-105795000D01*
G75*
G02*
X160320000Y-105640000I155000J0D01*
G01*
X160630000Y-105640000D01*
G75*
G02*
X160785000Y-105795000I0J-155000D01*
G01*
X160785000Y-106505000D01*
G75*
G02*
X160630000Y-106660000I-155000J0D01*
G01*
X160320000Y-106660000D01*
G75*
G02*
X160165000Y-106505000I0J155000D01*
G01*
G37*
D14*
X174498000Y-114774000D03*
X174498000Y-116874000D03*
G36*
G01*
X178709000Y-113083000D02*
X178709000Y-112817000D01*
G75*
G02*
X178822000Y-112704000I113000J0D01*
G01*
X179048000Y-112704000D01*
G75*
G02*
X179161000Y-112817000I0J-113000D01*
G01*
X179161000Y-113083000D01*
G75*
G02*
X179048000Y-113196000I-113000J0D01*
G01*
X178822000Y-113196000D01*
G75*
G02*
X178709000Y-113083000I0J113000D01*
G01*
G37*
G36*
G01*
X177739000Y-113083000D02*
X177739000Y-112817000D01*
G75*
G02*
X177852000Y-112704000I113000J0D01*
G01*
X178078000Y-112704000D01*
G75*
G02*
X178191000Y-112817000I0J-113000D01*
G01*
X178191000Y-113083000D01*
G75*
G02*
X178078000Y-113196000I-113000J0D01*
G01*
X177852000Y-113196000D01*
G75*
G02*
X177739000Y-113083000I0J113000D01*
G01*
G37*
D15*
G36*
X152460000Y-97692500D02*
G01*
X152460000Y-98020000D01*
X152463507Y-98055604D01*
X152473892Y-98089840D01*
X152490757Y-98121392D01*
X152513453Y-98149047D01*
X152541108Y-98171743D01*
X152572660Y-98188608D01*
X152606896Y-98198993D01*
X152642500Y-98202500D01*
X152897500Y-98202500D01*
X152933104Y-98198993D01*
X152967340Y-98188608D01*
X152998892Y-98171743D01*
X153026547Y-98149047D01*
X153049243Y-98121392D01*
X153066108Y-98089840D01*
X153076493Y-98055604D01*
X153080000Y-98020000D01*
X153080000Y-97692500D01*
X153120000Y-97692500D01*
X153120000Y-98020000D01*
X153123507Y-98055604D01*
X153133892Y-98089840D01*
X153150757Y-98121392D01*
X153173453Y-98149047D01*
X153201108Y-98171743D01*
X153232660Y-98188608D01*
X153266896Y-98198993D01*
X153302500Y-98202500D01*
X153557500Y-98202500D01*
X153593104Y-98198993D01*
X153627340Y-98188608D01*
X153658892Y-98171743D01*
X153686547Y-98149047D01*
X153709243Y-98121392D01*
X153726108Y-98089840D01*
X153736493Y-98055604D01*
X153740000Y-98020000D01*
X153740000Y-97692500D01*
X153780000Y-97692500D01*
X153780000Y-98020000D01*
X153783507Y-98055604D01*
X153793892Y-98089840D01*
X153810757Y-98121392D01*
X153833453Y-98149047D01*
X153861108Y-98171743D01*
X153892660Y-98188608D01*
X153926896Y-98198993D01*
X153962500Y-98202500D01*
X154217500Y-98202500D01*
X154253104Y-98198993D01*
X154287340Y-98188608D01*
X154318892Y-98171743D01*
X154346547Y-98149047D01*
X154369243Y-98121392D01*
X154386108Y-98089840D01*
X154396493Y-98055604D01*
X154400000Y-98020000D01*
X154400000Y-97692500D01*
X154442500Y-97692500D01*
X154442500Y-98121218D01*
X154418453Y-98140953D01*
X154395757Y-98168608D01*
X154378892Y-98200160D01*
X154368507Y-98234396D01*
X154365000Y-98270000D01*
X154365000Y-99562500D01*
X152495000Y-99562500D01*
X152495000Y-98270000D01*
X152491493Y-98234396D01*
X152481108Y-98200160D01*
X152464243Y-98168608D01*
X152441547Y-98140953D01*
X152417500Y-98121218D01*
X152417500Y-97692500D01*
X152460000Y-97692500D01*
G37*
D16*
X154420000Y-100875000D03*
X153760000Y-100875000D03*
X153100000Y-100875000D03*
X152440000Y-100875000D03*
G36*
G01*
X180141000Y-112817000D02*
X180141000Y-113083000D01*
G75*
G02*
X180028000Y-113196000I-113000J0D01*
G01*
X179802000Y-113196000D01*
G75*
G02*
X179689000Y-113083000I0J113000D01*
G01*
X179689000Y-112817000D01*
G75*
G02*
X179802000Y-112704000I113000J0D01*
G01*
X180028000Y-112704000D01*
G75*
G02*
X180141000Y-112817000I0J-113000D01*
G01*
G37*
G36*
G01*
X181111000Y-112817000D02*
X181111000Y-113083000D01*
G75*
G02*
X180998000Y-113196000I-113000J0D01*
G01*
X180772000Y-113196000D01*
G75*
G02*
X180659000Y-113083000I0J113000D01*
G01*
X180659000Y-112817000D01*
G75*
G02*
X180772000Y-112704000I113000J0D01*
G01*
X180998000Y-112704000D01*
G75*
G02*
X181111000Y-112817000I0J-113000D01*
G01*
G37*
G36*
G01*
X164117000Y-98509000D02*
X164383000Y-98509000D01*
G75*
G02*
X164496000Y-98622000I0J-113000D01*
G01*
X164496000Y-98848000D01*
G75*
G02*
X164383000Y-98961000I-113000J0D01*
G01*
X164117000Y-98961000D01*
G75*
G02*
X164004000Y-98848000I0J113000D01*
G01*
X164004000Y-98622000D01*
G75*
G02*
X164117000Y-98509000I113000J0D01*
G01*
G37*
G36*
G01*
X164117000Y-97539000D02*
X164383000Y-97539000D01*
G75*
G02*
X164496000Y-97652000I0J-113000D01*
G01*
X164496000Y-97878000D01*
G75*
G02*
X164383000Y-97991000I-113000J0D01*
G01*
X164117000Y-97991000D01*
G75*
G02*
X164004000Y-97878000I0J113000D01*
G01*
X164004000Y-97652000D01*
G75*
G02*
X164117000Y-97539000I113000J0D01*
G01*
G37*
D17*
X176600000Y-112100000D03*
X174600000Y-113050000D03*
X174600000Y-111150000D03*
G36*
G01*
X163085800Y-113598100D02*
X162295800Y-113598100D01*
G75*
G02*
X161900800Y-113203100I0J395000D01*
G01*
X161900800Y-112013100D01*
G75*
G02*
X162295800Y-111618100I395000J0D01*
G01*
X163085800Y-111618100D01*
G75*
G02*
X163480800Y-112013100I0J-395000D01*
G01*
X163480800Y-113203100D01*
G75*
G02*
X163085800Y-113598100I-395000J0D01*
G01*
G37*
G36*
G01*
X173085800Y-113598100D02*
X172295800Y-113598100D01*
G75*
G02*
X171900800Y-113203100I0J395000D01*
G01*
X171900800Y-112013100D01*
G75*
G02*
X172295800Y-111618100I395000J0D01*
G01*
X173085800Y-111618100D01*
G75*
G02*
X173480800Y-112013100I0J-395000D01*
G01*
X173480800Y-113203100D01*
G75*
G02*
X173085800Y-113598100I-395000J0D01*
G01*
G37*
G36*
G01*
X173085800Y-119598100D02*
X172295800Y-119598100D01*
G75*
G02*
X171900800Y-119203100I0J395000D01*
G01*
X171900800Y-118013100D01*
G75*
G02*
X172295800Y-117618100I395000J0D01*
G01*
X173085800Y-117618100D01*
G75*
G02*
X173480800Y-118013100I0J-395000D01*
G01*
X173480800Y-119203100D01*
G75*
G02*
X173085800Y-119598100I-395000J0D01*
G01*
G37*
G36*
G01*
X163085800Y-119598100D02*
X162295800Y-119598100D01*
G75*
G02*
X161900800Y-119203100I0J395000D01*
G01*
X161900800Y-118013100D01*
G75*
G02*
X162295800Y-117618100I395000J0D01*
G01*
X163085800Y-117618100D01*
G75*
G02*
X163480800Y-118013100I0J-395000D01*
G01*
X163480800Y-119203100D01*
G75*
G02*
X163085800Y-119598100I-395000J0D01*
G01*
G37*
G36*
G01*
X170741000Y-102317000D02*
X170741000Y-102583000D01*
G75*
G02*
X170628000Y-102696000I-113000J0D01*
G01*
X170402000Y-102696000D01*
G75*
G02*
X170289000Y-102583000I0J113000D01*
G01*
X170289000Y-102317000D01*
G75*
G02*
X170402000Y-102204000I113000J0D01*
G01*
X170628000Y-102204000D01*
G75*
G02*
X170741000Y-102317000I0J-113000D01*
G01*
G37*
G36*
G01*
X171711000Y-102317000D02*
X171711000Y-102583000D01*
G75*
G02*
X171598000Y-102696000I-113000J0D01*
G01*
X171372000Y-102696000D01*
G75*
G02*
X171259000Y-102583000I0J113000D01*
G01*
X171259000Y-102317000D01*
G75*
G02*
X171372000Y-102204000I113000J0D01*
G01*
X171598000Y-102204000D01*
G75*
G02*
X171711000Y-102317000I0J-113000D01*
G01*
G37*
G36*
G01*
X160442000Y-98534000D02*
X160708000Y-98534000D01*
G75*
G02*
X160821000Y-98647000I0J-113000D01*
G01*
X160821000Y-98873000D01*
G75*
G02*
X160708000Y-98986000I-113000J0D01*
G01*
X160442000Y-98986000D01*
G75*
G02*
X160329000Y-98873000I0J113000D01*
G01*
X160329000Y-98647000D01*
G75*
G02*
X160442000Y-98534000I113000J0D01*
G01*
G37*
G36*
G01*
X160442000Y-97564000D02*
X160708000Y-97564000D01*
G75*
G02*
X160821000Y-97677000I0J-113000D01*
G01*
X160821000Y-97903000D01*
G75*
G02*
X160708000Y-98016000I-113000J0D01*
G01*
X160442000Y-98016000D01*
G75*
G02*
X160329000Y-97903000I0J113000D01*
G01*
X160329000Y-97677000D01*
G75*
G02*
X160442000Y-97564000I113000J0D01*
G01*
G37*
G36*
G01*
X159359000Y-97933000D02*
X159359000Y-97667000D01*
G75*
G02*
X159472000Y-97554000I113000J0D01*
G01*
X159698000Y-97554000D01*
G75*
G02*
X159811000Y-97667000I0J-113000D01*
G01*
X159811000Y-97933000D01*
G75*
G02*
X159698000Y-98046000I-113000J0D01*
G01*
X159472000Y-98046000D01*
G75*
G02*
X159359000Y-97933000I0J113000D01*
G01*
G37*
G36*
G01*
X158389000Y-97933000D02*
X158389000Y-97667000D01*
G75*
G02*
X158502000Y-97554000I113000J0D01*
G01*
X158728000Y-97554000D01*
G75*
G02*
X158841000Y-97667000I0J-113000D01*
G01*
X158841000Y-97933000D01*
G75*
G02*
X158728000Y-98046000I-113000J0D01*
G01*
X158502000Y-98046000D01*
G75*
G02*
X158389000Y-97933000I0J113000D01*
G01*
G37*
D18*
X166700000Y-99950000D03*
X165750000Y-97950000D03*
X167650000Y-97950000D03*
D19*
X173460000Y-98462500D03*
D20*
X172460000Y-101162500D03*
X171810000Y-101162500D03*
X171160000Y-101162500D03*
X173760000Y-101162500D03*
X173110000Y-101162500D03*
D19*
X171460000Y-98462500D03*
D21*
X159000000Y-114715000D03*
X159000000Y-118885000D03*
X157000000Y-114715000D03*
X157000000Y-118885000D03*
X155000000Y-114715000D03*
X155000000Y-118885000D03*
X153000000Y-114715000D03*
X153000000Y-118885000D03*
X151000000Y-114715000D03*
X151000000Y-118885000D03*
G36*
G01*
X158550000Y-104385000D02*
X158550000Y-104015000D01*
G75*
G02*
X158735000Y-103830000I185000J0D01*
G01*
X159185000Y-103830000D01*
G75*
G02*
X159370000Y-104015000I0J-185000D01*
G01*
X159370000Y-104385000D01*
G75*
G02*
X159185000Y-104570000I-185000J0D01*
G01*
X158735000Y-104570000D01*
G75*
G02*
X158550000Y-104385000I0J185000D01*
G01*
G37*
G36*
G01*
X156800000Y-104385000D02*
X156800000Y-104015000D01*
G75*
G02*
X156985000Y-103830000I185000J0D01*
G01*
X157435000Y-103830000D01*
G75*
G02*
X157620000Y-104015000I0J-185000D01*
G01*
X157620000Y-104385000D01*
G75*
G02*
X157435000Y-104570000I-185000J0D01*
G01*
X156985000Y-104570000D01*
G75*
G02*
X156800000Y-104385000I0J185000D01*
G01*
G37*
M02*
