G04 #@! TF.GenerationSoftware,KiCad,Pcbnew,5.1.6*
G04 #@! TF.CreationDate,2020-06-25T22:37:20+02:00*
G04 #@! TF.ProjectId,altimeter,616c7469-6d65-4746-9572-2e6b69636164,V 1.2 Rev. A*
G04 #@! TF.SameCoordinates,Original*
G04 #@! TF.FileFunction,Copper,L3,Inr*
G04 #@! TF.FilePolarity,Positive*
%FSLAX46Y46*%
G04 Gerber Fmt 4.6, Leading zero omitted, Abs format (unit mm)*
G04 Created by KiCad (PCBNEW 5.1.6) date 2020-06-25 22:37:20*
%MOMM*%
%LPD*%
G01*
G04 APERTURE LIST*
G04 #@! TA.AperFunction,NonConductor*
%ADD10C,0.160000*%
G04 #@! TD*
G04 #@! TA.AperFunction,ViaPad*
%ADD11O,2.000000X2.000000*%
G04 #@! TD*
G04 #@! TA.AperFunction,ViaPad*
%ADD12R,2.000000X2.000000*%
G04 #@! TD*
G04 #@! TA.AperFunction,ViaPad*
%ADD13O,1.700000X1.700000*%
G04 #@! TD*
G04 #@! TA.AperFunction,ViaPad*
%ADD14R,1.700000X1.700000*%
G04 #@! TD*
G04 #@! TA.AperFunction,ViaPad*
%ADD15O,1.800000X1.200000*%
G04 #@! TD*
G04 #@! TA.AperFunction,ViaPad*
%ADD16C,0.800000*%
G04 #@! TD*
G04 #@! TA.AperFunction,ViaPad*
%ADD17C,6.400000*%
G04 #@! TD*
G04 #@! TA.AperFunction,ViaPad*
%ADD18O,1.200000X1.900000*%
G04 #@! TD*
G04 #@! TA.AperFunction,ViaPad*
%ADD19C,1.450000*%
G04 #@! TD*
G04 #@! TA.AperFunction,ViaPad*
%ADD20O,1.300000X0.800000*%
G04 #@! TD*
G04 #@! TA.AperFunction,ViaPad*
%ADD21C,0.457200*%
G04 #@! TD*
G04 #@! TA.AperFunction,ViaPad*
%ADD22C,0.482600*%
G04 #@! TD*
G04 #@! TA.AperFunction,ViaPad*
%ADD23C,0.508000*%
G04 #@! TD*
G04 #@! TA.AperFunction,Conductor*
%ADD24C,0.177800*%
G04 #@! TD*
G04 #@! TA.AperFunction,Conductor*
%ADD25C,1.524000*%
G04 #@! TD*
G04 #@! TA.AperFunction,Conductor*
%ADD26C,0.152400*%
G04 #@! TD*
G04 APERTURE END LIST*
D10*
X181233333Y-117038095D02*
X181728571Y-117038095D01*
X181461904Y-116733333D01*
X181576190Y-116733333D01*
X181652380Y-116695238D01*
X181690476Y-116657142D01*
X181728571Y-116580952D01*
X181728571Y-116390476D01*
X181690476Y-116314285D01*
X181652380Y-116276190D01*
X181576190Y-116238095D01*
X181347619Y-116238095D01*
X181271428Y-116276190D01*
X181233333Y-116314285D01*
D11*
X165000000Y-100400000D03*
D12*
X150000000Y-100400000D03*
D13*
X178940000Y-119680000D03*
X176400000Y-119680000D03*
X178940000Y-117140000D03*
X176400000Y-117140000D03*
X178940000Y-114600000D03*
D14*
X176400000Y-114600000D03*
D15*
X147350000Y-118000000D03*
X147350000Y-116000000D03*
X147350000Y-114000000D03*
X147350000Y-112000000D03*
X147350000Y-110000000D03*
X147350000Y-108000000D03*
X147350000Y-106000000D03*
X147350000Y-104000000D03*
X147350000Y-102000000D03*
G04 #@! TA.AperFunction,ViaPad*
G36*
G01*
X146699999Y-99400000D02*
X148000001Y-99400000D01*
G75*
G02*
X148250000Y-99649999I0J-249999D01*
G01*
X148250000Y-100350001D01*
G75*
G02*
X148000001Y-100600000I-249999J0D01*
G01*
X146699999Y-100600000D01*
G75*
G02*
X146450000Y-100350001I0J249999D01*
G01*
X146450000Y-99649999D01*
G75*
G02*
X146699999Y-99400000I249999J0D01*
G01*
G37*
G04 #@! TD.AperFunction*
D16*
X154297056Y-107302944D03*
X152600000Y-106600000D03*
X150902944Y-107302944D03*
X150200000Y-109000000D03*
X150902944Y-110697056D03*
X152600000Y-111400000D03*
X154297056Y-110697056D03*
X155000000Y-109000000D03*
D17*
X152600000Y-109000000D03*
D16*
X181097056Y-107302944D03*
X179400000Y-106600000D03*
X177702944Y-107302944D03*
X177000000Y-109000000D03*
X177702944Y-110697056D03*
X179400000Y-111400000D03*
X181097056Y-110697056D03*
X181800000Y-109000000D03*
D17*
X179400000Y-109000000D03*
D18*
X168960000Y-98462500D03*
X175960000Y-98462500D03*
D19*
X169960000Y-101162500D03*
X174960000Y-101162500D03*
D20*
X178500000Y-98550000D03*
X178500000Y-99800000D03*
X178500000Y-101050000D03*
G04 #@! TA.AperFunction,ViaPad*
G36*
G01*
X178950000Y-102700000D02*
X178050000Y-102700000D01*
G75*
G02*
X177850000Y-102500000I0J200000D01*
G01*
X177850000Y-102100000D01*
G75*
G02*
X178050000Y-101900000I200000J0D01*
G01*
X178950000Y-101900000D01*
G75*
G02*
X179150000Y-102100000I0J-200000D01*
G01*
X179150000Y-102500000D01*
G75*
G02*
X178950000Y-102700000I-200000J0D01*
G01*
G37*
G04 #@! TD.AperFunction*
D21*
X140150800Y-104159100D03*
X140145320Y-100959100D03*
X140167780Y-97759100D03*
X141752320Y-116446300D03*
X143220440Y-120403620D03*
X140700000Y-111100000D03*
X138600000Y-117600000D03*
X144500000Y-101500000D03*
X144500000Y-100500000D03*
X144500000Y-99500000D03*
X138500000Y-107000000D03*
X138500000Y-108000000D03*
X138500000Y-109000000D03*
X138500000Y-110000000D03*
X138500000Y-111000000D03*
X138500000Y-112000000D03*
X138500000Y-113000000D03*
X138500000Y-114000000D03*
X139000000Y-111500000D03*
X139000000Y-110500000D03*
X139000000Y-109500000D03*
X139000000Y-107500000D03*
X139000000Y-113500000D03*
X139000000Y-114500000D03*
X140000000Y-114500000D03*
X145000000Y-100000000D03*
X145000000Y-101000000D03*
X142981669Y-116461540D03*
X138938000Y-108508800D03*
X139000000Y-112500000D03*
X182000000Y-120000000D03*
X181000000Y-120000000D03*
X182000000Y-114000000D03*
X182000000Y-113000000D03*
X182000000Y-112000000D03*
X169316400Y-119392700D03*
X155000000Y-100500000D03*
X155000000Y-102000000D03*
X155012900Y-100987100D03*
X155000000Y-101500000D03*
X166750000Y-119950000D03*
X173840002Y-116080000D03*
X166925631Y-117500317D03*
X164200000Y-118400000D03*
X154000002Y-118510000D03*
X157980000Y-118680000D03*
X173140000Y-114360000D03*
X160550000Y-114540000D03*
X149720000Y-113900000D03*
X164225002Y-117800000D03*
X159559777Y-109984777D03*
X155000000Y-102500000D03*
X155000000Y-103000000D03*
X175250000Y-103900000D03*
X156600000Y-110281276D03*
X173169512Y-104219512D03*
X169342723Y-103442723D03*
X177713739Y-103624710D03*
X162438835Y-103367850D03*
X172798780Y-102215177D03*
X160270000Y-104100000D03*
X157100000Y-102200000D03*
X157600000Y-102200000D03*
X158100000Y-102200000D03*
X159225118Y-102269808D03*
X159550000Y-100950000D03*
X160500000Y-100250000D03*
X160150000Y-100750000D03*
X158950000Y-100950000D03*
D22*
X171250000Y-119010000D03*
D21*
X160875024Y-107284147D03*
X161248712Y-108200000D03*
X155500000Y-98250000D03*
X155500000Y-98750000D03*
X166650000Y-97750000D03*
X166650000Y-98450000D03*
X164885000Y-97765000D03*
X169400550Y-102668200D03*
X155500000Y-99250000D03*
X155500000Y-97750000D03*
X172880000Y-116960000D03*
X166500000Y-118000002D03*
D23*
X149700000Y-115160000D03*
D21*
X160530000Y-113560000D03*
X159818623Y-117363741D03*
X173663251Y-115193483D03*
X161086011Y-110149434D03*
X157300000Y-111800000D03*
X173332035Y-105319955D03*
X172200000Y-102850000D03*
X163100000Y-103149992D03*
X172657878Y-102861191D03*
X161809910Y-104230000D03*
X156000000Y-107000000D03*
X156000000Y-106400000D03*
X156400000Y-106700000D03*
X156400000Y-106100000D03*
X156000000Y-105800000D03*
X156400000Y-105500000D03*
X156000000Y-105200000D03*
X156400000Y-104900000D03*
X156000000Y-104600000D03*
X156400000Y-104300000D03*
X156400000Y-103700000D03*
X156000000Y-104000000D03*
X156800000Y-107000000D03*
X156800000Y-106400000D03*
X157200000Y-106700000D03*
X159190000Y-98780000D03*
X173894999Y-100184545D03*
X168590000Y-114987421D03*
X157825000Y-106925000D03*
X159020000Y-106333786D03*
X167088966Y-100816452D03*
X167072311Y-101756276D03*
X166400000Y-101756262D03*
X166400000Y-100816453D03*
X145500000Y-117000000D03*
X146000000Y-117500000D03*
X146000000Y-118500000D03*
X145500000Y-118000000D03*
X142468579Y-104929409D03*
X141655800Y-111150400D03*
X146000000Y-113500000D03*
X145000000Y-113500000D03*
X146000000Y-114500000D03*
X145500000Y-114000000D03*
X142671800Y-101904800D03*
X142138391Y-110680490D03*
X144500000Y-109500000D03*
X145500000Y-109500000D03*
X145500000Y-110500000D03*
X144500000Y-110500000D03*
X145000000Y-110000000D03*
X140004800Y-118618000D03*
X139598396Y-109321600D03*
X161250000Y-118730000D03*
X146504373Y-119894363D03*
X143604064Y-119436256D03*
X141058900Y-107025440D03*
X147285875Y-119311220D03*
X159893702Y-119090000D03*
X141224000Y-118618000D03*
X139598400Y-111963200D03*
X160167918Y-118510052D03*
X147908149Y-119318007D03*
X139598400Y-113284000D03*
X160219677Y-117889897D03*
X148367275Y-118897918D03*
X142087600Y-118648835D03*
X171005500Y-120459500D03*
X142722600Y-98755200D03*
X142532100Y-107289600D03*
X146000000Y-105500000D03*
X145000000Y-105500000D03*
X145000000Y-106500000D03*
X146000000Y-106500000D03*
X145500000Y-106000000D03*
X139004040Y-118569740D03*
X143741136Y-120062835D03*
X139588236Y-108051600D03*
X161022165Y-119309105D03*
X146070000Y-120340002D03*
X175619064Y-104959832D03*
X175350471Y-105950471D03*
X172174286Y-108631843D03*
X169873848Y-111250008D03*
X171099996Y-107017390D03*
X171087252Y-108697985D03*
X169158806Y-110957787D03*
X164120000Y-109050000D03*
X159380000Y-108970090D03*
X169348632Y-111583805D03*
X146000000Y-97500000D03*
X147000000Y-97500000D03*
X148000000Y-97500000D03*
X148000000Y-98500000D03*
X147500000Y-98000000D03*
X148500000Y-98000000D03*
X149000000Y-97500000D03*
X149000000Y-98500000D03*
X149500000Y-98000000D03*
X150000000Y-97500000D03*
X150000000Y-98500000D03*
X150500000Y-98000000D03*
X150500000Y-99000000D03*
X149500000Y-99000000D03*
X148500000Y-99000000D03*
X151000000Y-98500000D03*
X151000000Y-97500000D03*
X147500000Y-99000000D03*
X172480986Y-103546972D03*
X171842753Y-103504616D03*
X164074861Y-108429327D03*
X161528400Y-107260188D03*
X167992699Y-108363621D03*
X167398603Y-108548882D03*
X166794690Y-108398680D03*
X172151846Y-102204772D03*
X173492659Y-102225410D03*
X166150000Y-107300000D03*
X171777708Y-109366672D03*
X165500000Y-107300000D03*
X172400000Y-109211779D03*
X175400000Y-112459667D03*
X164540922Y-103780000D03*
X170050000Y-108100000D03*
X169400000Y-107700000D03*
D24*
X170200000Y-115800000D02*
X169900000Y-115800000D01*
X169900000Y-115800000D02*
X169500000Y-115400000D01*
D25*
X146500000Y-118000000D02*
X146000000Y-117500000D01*
X147350000Y-118000000D02*
X146500000Y-118000000D01*
D26*
X142062199Y-105335789D02*
X142239980Y-105158008D01*
X142446449Y-111150400D02*
X142608301Y-110988548D01*
X142608301Y-110335061D02*
X142062199Y-109788959D01*
X142239980Y-105158008D02*
X142468579Y-104929409D01*
X142608301Y-110988548D02*
X142608301Y-110335061D01*
X141655800Y-111150400D02*
X142446449Y-111150400D01*
X142062199Y-109788959D02*
X142062199Y-105335789D01*
D25*
X147350000Y-114000000D02*
X146103060Y-114000000D01*
X145500000Y-114000000D02*
X147350000Y-114000000D01*
X145000000Y-113500000D02*
X145500000Y-114000000D01*
D26*
X141706600Y-110248699D02*
X141909792Y-110451891D01*
X141909792Y-110451891D02*
X142138391Y-110680490D01*
X142671800Y-101904800D02*
X141706600Y-102870000D01*
X141706600Y-102870000D02*
X141706600Y-110248699D01*
D25*
X147350000Y-110000000D02*
X145000000Y-110000000D01*
D26*
X143864978Y-118035903D02*
X143864978Y-115466922D01*
X143864978Y-115466922D02*
X139598396Y-111200340D01*
X139598396Y-111200340D02*
X139598396Y-109644889D01*
X139598396Y-109644889D02*
X139598396Y-109321600D01*
X140843011Y-119456211D02*
X142444671Y-119456210D01*
X142444671Y-119456210D02*
X143864978Y-118035903D01*
X140004800Y-118618000D02*
X140843011Y-119456211D01*
X146732972Y-120122962D02*
X146504373Y-119894363D01*
X146760010Y-120150000D02*
X146732972Y-120122962D01*
X159506711Y-120150000D02*
X146760010Y-120150000D01*
X160926711Y-118730000D02*
X159506711Y-120150000D01*
X161250000Y-118730000D02*
X160926711Y-118730000D01*
X146115840Y-119311220D02*
X146962586Y-119311220D01*
X141058900Y-107025440D02*
X141058900Y-107348729D01*
X141185899Y-111889787D02*
X144500000Y-115203888D01*
X146962586Y-119311220D02*
X147285875Y-119311220D01*
X144500000Y-117695380D02*
X146115840Y-119311220D01*
X141058900Y-107348729D02*
X141185899Y-107475728D01*
X144500000Y-115203888D02*
X144500000Y-117695380D01*
X141185899Y-107475728D02*
X141185899Y-111889787D01*
X159153703Y-119829999D02*
X159893702Y-119090000D01*
X147739999Y-119829999D02*
X159153703Y-119829999D01*
X147285875Y-119311220D02*
X147285875Y-119375875D01*
X147285875Y-119375875D02*
X147739999Y-119829999D01*
X139912228Y-111963200D02*
X139598400Y-111963200D01*
X141224000Y-118618000D02*
X141744700Y-119138700D01*
X143547467Y-117904386D02*
X143547467Y-115598439D01*
X141744700Y-119138700D02*
X142313153Y-119138700D01*
X142313153Y-119138700D02*
X143547467Y-117904386D01*
X143547467Y-115598439D02*
X139912228Y-111963200D01*
X148102631Y-119512489D02*
X147908149Y-119318007D01*
X158607511Y-119512489D02*
X148102631Y-119512489D01*
X160167918Y-118510052D02*
X159609948Y-118510052D01*
X159609948Y-118510052D02*
X158607511Y-119512489D01*
X139598400Y-113284000D02*
X142400000Y-116085600D01*
X142316199Y-118420236D02*
X142087600Y-118648835D01*
X142400000Y-116085600D02*
X142400000Y-118336435D01*
X142400000Y-118336435D02*
X142316199Y-118420236D01*
X158370000Y-119190000D02*
X148659357Y-119190000D01*
X160219677Y-117889897D02*
X159670103Y-117889897D01*
X159670103Y-117889897D02*
X158370000Y-119190000D01*
X148659357Y-119190000D02*
X148595874Y-119126517D01*
X148595874Y-119126517D02*
X148367275Y-118897918D01*
X142760699Y-107061001D02*
X142532100Y-107289600D01*
X143220440Y-106601260D02*
X142760699Y-107061001D01*
X143220440Y-99253040D02*
X143220440Y-106601260D01*
X142722600Y-98755200D02*
X143220440Y-99253040D01*
D25*
X147350000Y-106000000D02*
X145500000Y-106000000D01*
D26*
X142576187Y-119773722D02*
X144182489Y-118167420D01*
X144182489Y-118167420D02*
X144182489Y-115335405D01*
X144182489Y-115335405D02*
X140119111Y-111272027D01*
X140119111Y-111272027D02*
X140119111Y-108582475D01*
X139816835Y-108280199D02*
X139588236Y-108051600D01*
X140119111Y-108582475D02*
X139816835Y-108280199D01*
X140208021Y-119773721D02*
X142576187Y-119773722D01*
X139004040Y-118569740D02*
X140208021Y-119773721D01*
X146199998Y-120470000D02*
X146070000Y-120340002D01*
X161022165Y-119309105D02*
X159861270Y-120470000D01*
X159861270Y-120470000D02*
X146199998Y-120470000D01*
G36*
X182547623Y-97259486D02*
G01*
X182593434Y-97273317D01*
X182635682Y-97295780D01*
X182672765Y-97326025D01*
X182703269Y-97362898D01*
X182726025Y-97404985D01*
X182740176Y-97450699D01*
X182746401Y-97509925D01*
X182746400Y-120487595D01*
X182740514Y-120547623D01*
X182726683Y-120593434D01*
X182704220Y-120635682D01*
X182673975Y-120672765D01*
X182637103Y-120703268D01*
X182595015Y-120726025D01*
X182549301Y-120740176D01*
X182490084Y-120746400D01*
X175276200Y-120746400D01*
X175276200Y-117300000D01*
X175274736Y-117285134D01*
X175270400Y-117270840D01*
X175263358Y-117257666D01*
X175253882Y-117246118D01*
X175242334Y-117236642D01*
X175229160Y-117229600D01*
X175214866Y-117225264D01*
X175200000Y-117223800D01*
X173268878Y-117223800D01*
X173296420Y-117182581D01*
X173331842Y-117097065D01*
X173344681Y-117032516D01*
X175308700Y-117032516D01*
X175308700Y-117247484D01*
X175350638Y-117458320D01*
X175432903Y-117656924D01*
X175552332Y-117835663D01*
X175704337Y-117987668D01*
X175883076Y-118107097D01*
X176081680Y-118189362D01*
X176292516Y-118231300D01*
X176507484Y-118231300D01*
X176718320Y-118189362D01*
X176916924Y-118107097D01*
X177095663Y-117987668D01*
X177247668Y-117835663D01*
X177367097Y-117656924D01*
X177449362Y-117458320D01*
X177491300Y-117247484D01*
X177491300Y-117032516D01*
X177848700Y-117032516D01*
X177848700Y-117247484D01*
X177890638Y-117458320D01*
X177972903Y-117656924D01*
X178092332Y-117835663D01*
X178244337Y-117987668D01*
X178423076Y-118107097D01*
X178621680Y-118189362D01*
X178832516Y-118231300D01*
X179047484Y-118231300D01*
X179258320Y-118189362D01*
X179456924Y-118107097D01*
X179635663Y-117987668D01*
X179787668Y-117835663D01*
X179907097Y-117656924D01*
X179989362Y-117458320D01*
X180031300Y-117247484D01*
X180031300Y-117032516D01*
X179989362Y-116821680D01*
X179907097Y-116623076D01*
X179787668Y-116444337D01*
X179635663Y-116292332D01*
X179456924Y-116172903D01*
X179258320Y-116090638D01*
X179047484Y-116048700D01*
X178832516Y-116048700D01*
X178621680Y-116090638D01*
X178423076Y-116172903D01*
X178244337Y-116292332D01*
X178092332Y-116444337D01*
X177972903Y-116623076D01*
X177890638Y-116821680D01*
X177848700Y-117032516D01*
X177491300Y-117032516D01*
X177449362Y-116821680D01*
X177367097Y-116623076D01*
X177247668Y-116444337D01*
X177095663Y-116292332D01*
X176916924Y-116172903D01*
X176718320Y-116090638D01*
X176507484Y-116048700D01*
X176292516Y-116048700D01*
X176081680Y-116090638D01*
X175883076Y-116172903D01*
X175704337Y-116292332D01*
X175552332Y-116444337D01*
X175432903Y-116623076D01*
X175350638Y-116821680D01*
X175308700Y-117032516D01*
X173344681Y-117032516D01*
X173349900Y-117006281D01*
X173349900Y-116913719D01*
X173331842Y-116822935D01*
X173296420Y-116737419D01*
X173244995Y-116660456D01*
X173179544Y-116595005D01*
X173102581Y-116543580D01*
X173017065Y-116508158D01*
X172926281Y-116490100D01*
X172833719Y-116490100D01*
X172742935Y-116508158D01*
X172657419Y-116543580D01*
X172580456Y-116595005D01*
X172515005Y-116660456D01*
X172463580Y-116737419D01*
X172428158Y-116822935D01*
X172410100Y-116913719D01*
X172410100Y-117006281D01*
X172428158Y-117097065D01*
X172463580Y-117182581D01*
X172491122Y-117223800D01*
X170876200Y-117223800D01*
X170876200Y-115400000D01*
X170874736Y-115385134D01*
X170870400Y-115370840D01*
X170863358Y-115357666D01*
X170853882Y-115346118D01*
X170842334Y-115336642D01*
X170829160Y-115329600D01*
X170814866Y-115325264D01*
X170800000Y-115323800D01*
X169600000Y-115323800D01*
X169585134Y-115325264D01*
X169570840Y-115329600D01*
X169557666Y-115336642D01*
X169546118Y-115346118D01*
X169536642Y-115357666D01*
X169529600Y-115370840D01*
X169525264Y-115385134D01*
X169523800Y-115400000D01*
X169525264Y-115414866D01*
X169529600Y-115429160D01*
X169530105Y-115430105D01*
X169529160Y-115429600D01*
X169514866Y-115425264D01*
X169500000Y-115423800D01*
X169485134Y-115425264D01*
X169470840Y-115429600D01*
X169457666Y-115436642D01*
X169446118Y-115446118D01*
X169436642Y-115457666D01*
X169429600Y-115470840D01*
X169425264Y-115485134D01*
X169423800Y-115500000D01*
X169423800Y-120000000D01*
X169425264Y-120014866D01*
X169429600Y-120029160D01*
X169436642Y-120042334D01*
X169446118Y-120053882D01*
X169746118Y-120353882D01*
X169757666Y-120363358D01*
X169770840Y-120370400D01*
X169785134Y-120374736D01*
X169800000Y-120376200D01*
X170542964Y-120376200D01*
X170535600Y-120413219D01*
X170535600Y-120505781D01*
X170553658Y-120596565D01*
X170589080Y-120682081D01*
X170632057Y-120746400D01*
X160017692Y-120746400D01*
X160038517Y-120735269D01*
X160086863Y-120695593D01*
X160096812Y-120683470D01*
X161001278Y-119779005D01*
X161068446Y-119779005D01*
X161159230Y-119760947D01*
X161244746Y-119725525D01*
X161321709Y-119674100D01*
X161387160Y-119608649D01*
X161438585Y-119531686D01*
X161474007Y-119446170D01*
X161492065Y-119355386D01*
X161492065Y-119262824D01*
X161474007Y-119172040D01*
X161464740Y-119149668D01*
X161472581Y-119146420D01*
X161549544Y-119094995D01*
X161614995Y-119029544D01*
X161666420Y-118952581D01*
X161701842Y-118867065D01*
X161719900Y-118776281D01*
X161719900Y-118683719D01*
X161701842Y-118592935D01*
X161666420Y-118507419D01*
X161614995Y-118430456D01*
X161549544Y-118365005D01*
X161472581Y-118313580D01*
X161387065Y-118278158D01*
X161296281Y-118260100D01*
X161203719Y-118260100D01*
X161112935Y-118278158D01*
X161027419Y-118313580D01*
X160950456Y-118365005D01*
X160902070Y-118413391D01*
X160864470Y-118417094D01*
X160804621Y-118435249D01*
X160749464Y-118464731D01*
X160701118Y-118504407D01*
X160691174Y-118516524D01*
X160634454Y-118573244D01*
X160637818Y-118556333D01*
X160637818Y-118463771D01*
X160619760Y-118372987D01*
X160584338Y-118287471D01*
X160545206Y-118228907D01*
X160584672Y-118189441D01*
X160636097Y-118112478D01*
X160671519Y-118026962D01*
X160686087Y-117953721D01*
X166030100Y-117953721D01*
X166030100Y-118046283D01*
X166048158Y-118137067D01*
X166083580Y-118222583D01*
X166135005Y-118299546D01*
X166200456Y-118364997D01*
X166277419Y-118416422D01*
X166362935Y-118451844D01*
X166453719Y-118469902D01*
X166546281Y-118469902D01*
X166637065Y-118451844D01*
X166722581Y-118416422D01*
X166799544Y-118364997D01*
X166864995Y-118299546D01*
X166916420Y-118222583D01*
X166951842Y-118137067D01*
X166969900Y-118046283D01*
X166969900Y-117953721D01*
X166951842Y-117862937D01*
X166916420Y-117777421D01*
X166864995Y-117700458D01*
X166799544Y-117635007D01*
X166722581Y-117583582D01*
X166637065Y-117548160D01*
X166546281Y-117530102D01*
X166453719Y-117530102D01*
X166362935Y-117548160D01*
X166277419Y-117583582D01*
X166200456Y-117635007D01*
X166135005Y-117700458D01*
X166083580Y-117777421D01*
X166048158Y-117862937D01*
X166030100Y-117953721D01*
X160686087Y-117953721D01*
X160689577Y-117936178D01*
X160689577Y-117843616D01*
X160671519Y-117752832D01*
X160636097Y-117667316D01*
X160584672Y-117590353D01*
X160519221Y-117524902D01*
X160442258Y-117473477D01*
X160356742Y-117438055D01*
X160285756Y-117423935D01*
X160288523Y-117410022D01*
X160288523Y-117317460D01*
X160270465Y-117226676D01*
X160235043Y-117141160D01*
X160183618Y-117064197D01*
X160118167Y-116998746D01*
X160041204Y-116947321D01*
X159955688Y-116911899D01*
X159864904Y-116893841D01*
X159772342Y-116893841D01*
X159681558Y-116911899D01*
X159596042Y-116947321D01*
X159519079Y-116998746D01*
X159453628Y-117064197D01*
X159402203Y-117141160D01*
X159366781Y-117226676D01*
X159348723Y-117317460D01*
X159348723Y-117410022D01*
X159366781Y-117500806D01*
X159402203Y-117586322D01*
X159450839Y-117659110D01*
X159444510Y-117664304D01*
X159434566Y-117676421D01*
X158238488Y-118872500D01*
X149576200Y-118872500D01*
X149576200Y-115640378D01*
X149651217Y-115655300D01*
X149748783Y-115655300D01*
X149844474Y-115636266D01*
X149934613Y-115598930D01*
X150015736Y-115544725D01*
X150084725Y-115475736D01*
X150138930Y-115394613D01*
X150176266Y-115304474D01*
X150195300Y-115208783D01*
X150195300Y-115111217D01*
X150176266Y-115015526D01*
X150145455Y-114941140D01*
X168120100Y-114941140D01*
X168120100Y-115033702D01*
X168138158Y-115124486D01*
X168173580Y-115210002D01*
X168225005Y-115286965D01*
X168290456Y-115352416D01*
X168367419Y-115403841D01*
X168452935Y-115439263D01*
X168543719Y-115457321D01*
X168636281Y-115457321D01*
X168727065Y-115439263D01*
X168812581Y-115403841D01*
X168889544Y-115352416D01*
X168954995Y-115286965D01*
X169006420Y-115210002D01*
X169032432Y-115147202D01*
X173193351Y-115147202D01*
X173193351Y-115239764D01*
X173211409Y-115330548D01*
X173246831Y-115416064D01*
X173298256Y-115493027D01*
X173363707Y-115558478D01*
X173440670Y-115609903D01*
X173526186Y-115645325D01*
X173616970Y-115663383D01*
X173709532Y-115663383D01*
X173800316Y-115645325D01*
X173885832Y-115609903D01*
X173962795Y-115558478D01*
X174028246Y-115493027D01*
X174079671Y-115416064D01*
X174115093Y-115330548D01*
X174133151Y-115239764D01*
X174133151Y-115147202D01*
X174115093Y-115056418D01*
X174079671Y-114970902D01*
X174028246Y-114893939D01*
X173962795Y-114828488D01*
X173885832Y-114777063D01*
X173800316Y-114741641D01*
X173709532Y-114723583D01*
X173616970Y-114723583D01*
X173526186Y-114741641D01*
X173440670Y-114777063D01*
X173363707Y-114828488D01*
X173298256Y-114893939D01*
X173246831Y-114970902D01*
X173211409Y-115056418D01*
X173193351Y-115147202D01*
X169032432Y-115147202D01*
X169041842Y-115124486D01*
X169059900Y-115033702D01*
X169059900Y-114941140D01*
X169041842Y-114850356D01*
X169006420Y-114764840D01*
X168954995Y-114687877D01*
X168889544Y-114622426D01*
X168812581Y-114571001D01*
X168727065Y-114535579D01*
X168636281Y-114517521D01*
X168543719Y-114517521D01*
X168452935Y-114535579D01*
X168367419Y-114571001D01*
X168290456Y-114622426D01*
X168225005Y-114687877D01*
X168173580Y-114764840D01*
X168138158Y-114850356D01*
X168120100Y-114941140D01*
X150145455Y-114941140D01*
X150138930Y-114925387D01*
X150084725Y-114844264D01*
X150015736Y-114775275D01*
X149934613Y-114721070D01*
X149844474Y-114683734D01*
X149748783Y-114664700D01*
X149651217Y-114664700D01*
X149576200Y-114679622D01*
X149576200Y-113513719D01*
X160060100Y-113513719D01*
X160060100Y-113606281D01*
X160078158Y-113697065D01*
X160113580Y-113782581D01*
X160165005Y-113859544D01*
X160230456Y-113924995D01*
X160307419Y-113976420D01*
X160392935Y-114011842D01*
X160483719Y-114029900D01*
X160576281Y-114029900D01*
X160667065Y-114011842D01*
X160752581Y-113976420D01*
X160829544Y-113924995D01*
X160894995Y-113859544D01*
X160946420Y-113782581D01*
X160959915Y-113750000D01*
X175307533Y-113750000D01*
X175307533Y-115450000D01*
X175312192Y-115497303D01*
X175325990Y-115542788D01*
X175348396Y-115584707D01*
X175378550Y-115621450D01*
X175415293Y-115651604D01*
X175457212Y-115674010D01*
X175502697Y-115687808D01*
X175550000Y-115692467D01*
X177250000Y-115692467D01*
X177297303Y-115687808D01*
X177342788Y-115674010D01*
X177384707Y-115651604D01*
X177421450Y-115621450D01*
X177451604Y-115584707D01*
X177474010Y-115542788D01*
X177487808Y-115497303D01*
X177492467Y-115450000D01*
X177492467Y-114492516D01*
X177848700Y-114492516D01*
X177848700Y-114707484D01*
X177890638Y-114918320D01*
X177972903Y-115116924D01*
X178092332Y-115295663D01*
X178244337Y-115447668D01*
X178423076Y-115567097D01*
X178621680Y-115649362D01*
X178832516Y-115691300D01*
X179047484Y-115691300D01*
X179258320Y-115649362D01*
X179342000Y-115614700D01*
X180797747Y-115614700D01*
X180797747Y-117457300D01*
X180873938Y-117457300D01*
X180873938Y-119857300D01*
X182126062Y-119857300D01*
X182126062Y-117457300D01*
X182202252Y-117457300D01*
X182202252Y-115614700D01*
X182126062Y-115614700D01*
X182126062Y-114414700D01*
X180873938Y-114414700D01*
X180873938Y-115614700D01*
X180797747Y-115614700D01*
X179342000Y-115614700D01*
X179456924Y-115567097D01*
X179635663Y-115447668D01*
X179787668Y-115295663D01*
X179907097Y-115116924D01*
X179989362Y-114918320D01*
X180031300Y-114707484D01*
X180031300Y-114492516D01*
X179989362Y-114281680D01*
X179907097Y-114083076D01*
X179787668Y-113904337D01*
X179635663Y-113752332D01*
X179456924Y-113632903D01*
X179258320Y-113550638D01*
X179047484Y-113508700D01*
X178832516Y-113508700D01*
X178621680Y-113550638D01*
X178423076Y-113632903D01*
X178244337Y-113752332D01*
X178092332Y-113904337D01*
X177972903Y-114083076D01*
X177890638Y-114281680D01*
X177848700Y-114492516D01*
X177492467Y-114492516D01*
X177492467Y-113750000D01*
X177487808Y-113702697D01*
X177474010Y-113657212D01*
X177451604Y-113615293D01*
X177421450Y-113578550D01*
X177384707Y-113548396D01*
X177342788Y-113525990D01*
X177297303Y-113512192D01*
X177250000Y-113507533D01*
X175550000Y-113507533D01*
X175502697Y-113512192D01*
X175457212Y-113525990D01*
X175415293Y-113548396D01*
X175378550Y-113578550D01*
X175348396Y-113615293D01*
X175325990Y-113657212D01*
X175312192Y-113702697D01*
X175307533Y-113750000D01*
X160959915Y-113750000D01*
X160981842Y-113697065D01*
X160999900Y-113606281D01*
X160999900Y-113513719D01*
X160981842Y-113422935D01*
X160946420Y-113337419D01*
X160894995Y-113260456D01*
X160829544Y-113195005D01*
X160752581Y-113143580D01*
X160667065Y-113108158D01*
X160576281Y-113090100D01*
X160483719Y-113090100D01*
X160392935Y-113108158D01*
X160307419Y-113143580D01*
X160230456Y-113195005D01*
X160165005Y-113260456D01*
X160113580Y-113337419D01*
X160078158Y-113422935D01*
X160060100Y-113513719D01*
X149576200Y-113513719D01*
X149576200Y-113024418D01*
X150012651Y-112413386D01*
X174930100Y-112413386D01*
X174930100Y-112505948D01*
X174948158Y-112596732D01*
X174983580Y-112682248D01*
X175035005Y-112759211D01*
X175100456Y-112824662D01*
X175177419Y-112876087D01*
X175262935Y-112911509D01*
X175353719Y-112929567D01*
X175446281Y-112929567D01*
X175537065Y-112911509D01*
X175622581Y-112876087D01*
X175699544Y-112824662D01*
X175764995Y-112759211D01*
X175816420Y-112682248D01*
X175851842Y-112596732D01*
X175869900Y-112505948D01*
X175869900Y-112413386D01*
X175851842Y-112322602D01*
X175816420Y-112237086D01*
X175764995Y-112160123D01*
X175699544Y-112094672D01*
X175622581Y-112043247D01*
X175537065Y-112007825D01*
X175446281Y-111989767D01*
X175353719Y-111989767D01*
X175262935Y-112007825D01*
X175177419Y-112043247D01*
X175100456Y-112094672D01*
X175035005Y-112160123D01*
X174983580Y-112237086D01*
X174948158Y-112322602D01*
X174930100Y-112413386D01*
X150012651Y-112413386D01*
X150483842Y-111753719D01*
X156830100Y-111753719D01*
X156830100Y-111846281D01*
X156848158Y-111937065D01*
X156883580Y-112022581D01*
X156935005Y-112099544D01*
X157000456Y-112164995D01*
X157077419Y-112216420D01*
X157162935Y-112251842D01*
X157253719Y-112269900D01*
X157346281Y-112269900D01*
X157437065Y-112251842D01*
X157522581Y-112216420D01*
X157599544Y-112164995D01*
X157664995Y-112099544D01*
X157716420Y-112022581D01*
X157751842Y-111937065D01*
X157769900Y-111846281D01*
X157769900Y-111753719D01*
X157751842Y-111662935D01*
X157716420Y-111577419D01*
X157664995Y-111500456D01*
X157599544Y-111435005D01*
X157522581Y-111383580D01*
X157437065Y-111348158D01*
X157346281Y-111330100D01*
X157253719Y-111330100D01*
X157162935Y-111348158D01*
X157077419Y-111383580D01*
X157000456Y-111435005D01*
X156935005Y-111500456D01*
X156883580Y-111577419D01*
X156848158Y-111662935D01*
X156830100Y-111753719D01*
X150483842Y-111753719D01*
X151085422Y-110911506D01*
X168688906Y-110911506D01*
X168688906Y-111004068D01*
X168706964Y-111094852D01*
X168742386Y-111180368D01*
X168793811Y-111257331D01*
X168859262Y-111322782D01*
X168928870Y-111369292D01*
X168896790Y-111446740D01*
X168878732Y-111537524D01*
X168878732Y-111630086D01*
X168896790Y-111720870D01*
X168932212Y-111806386D01*
X168983637Y-111883349D01*
X169049088Y-111948800D01*
X169126051Y-112000225D01*
X169211567Y-112035647D01*
X169302351Y-112053705D01*
X169394913Y-112053705D01*
X169485697Y-112035647D01*
X169571213Y-112000225D01*
X169648176Y-111948800D01*
X169713627Y-111883349D01*
X169765052Y-111806386D01*
X169800474Y-111720870D01*
X169801689Y-111714761D01*
X169827567Y-111719908D01*
X169920129Y-111719908D01*
X170010913Y-111701850D01*
X170096429Y-111666428D01*
X170173392Y-111615003D01*
X170238843Y-111549552D01*
X170290268Y-111472589D01*
X170325690Y-111387073D01*
X170343748Y-111296289D01*
X170343748Y-111203727D01*
X170325690Y-111112943D01*
X170290268Y-111027427D01*
X170238843Y-110950464D01*
X170173392Y-110885013D01*
X170096429Y-110833588D01*
X170010913Y-110798166D01*
X169920129Y-110780108D01*
X169827567Y-110780108D01*
X169736783Y-110798166D01*
X169651267Y-110833588D01*
X169617672Y-110856035D01*
X169610648Y-110820722D01*
X169575226Y-110735206D01*
X169523801Y-110658243D01*
X169458350Y-110592792D01*
X169381387Y-110541367D01*
X169295871Y-110505945D01*
X169205087Y-110487887D01*
X169112525Y-110487887D01*
X169021741Y-110505945D01*
X168936225Y-110541367D01*
X168859262Y-110592792D01*
X168793811Y-110658243D01*
X168742386Y-110735206D01*
X168706964Y-110820722D01*
X168688906Y-110911506D01*
X151085422Y-110911506D01*
X151662818Y-110103153D01*
X160616111Y-110103153D01*
X160616111Y-110195715D01*
X160634169Y-110286499D01*
X160669591Y-110372015D01*
X160721016Y-110448978D01*
X160786467Y-110514429D01*
X160863430Y-110565854D01*
X160948946Y-110601276D01*
X161039730Y-110619334D01*
X161132292Y-110619334D01*
X161223076Y-110601276D01*
X161308592Y-110565854D01*
X161385555Y-110514429D01*
X161451006Y-110448978D01*
X161502431Y-110372015D01*
X161537853Y-110286499D01*
X161555911Y-110195715D01*
X161555911Y-110103153D01*
X161537853Y-110012369D01*
X161502431Y-109926853D01*
X161451006Y-109849890D01*
X161385555Y-109784439D01*
X161308592Y-109733014D01*
X161223076Y-109697592D01*
X161132292Y-109679534D01*
X161039730Y-109679534D01*
X160948946Y-109697592D01*
X160863430Y-109733014D01*
X160786467Y-109784439D01*
X160721016Y-109849890D01*
X160669591Y-109926853D01*
X160634169Y-110012369D01*
X160616111Y-110103153D01*
X151662818Y-110103153D01*
X152062006Y-109544290D01*
X152069456Y-109531342D01*
X152074236Y-109517190D01*
X152076200Y-109500000D01*
X152076200Y-108923809D01*
X158910100Y-108923809D01*
X158910100Y-109016371D01*
X158928158Y-109107155D01*
X158963580Y-109192671D01*
X159015005Y-109269634D01*
X159080456Y-109335085D01*
X159157419Y-109386510D01*
X159242935Y-109421932D01*
X159333719Y-109439990D01*
X159426281Y-109439990D01*
X159517065Y-109421932D01*
X159602581Y-109386510D01*
X159679544Y-109335085D01*
X159744995Y-109269634D01*
X159796420Y-109192671D01*
X159831842Y-109107155D01*
X159849900Y-109016371D01*
X159849900Y-108923809D01*
X159831842Y-108833025D01*
X159796420Y-108747509D01*
X159744995Y-108670546D01*
X159679544Y-108605095D01*
X159602581Y-108553670D01*
X159517065Y-108518248D01*
X159426281Y-108500190D01*
X159333719Y-108500190D01*
X159242935Y-108518248D01*
X159157419Y-108553670D01*
X159080456Y-108605095D01*
X159015005Y-108670546D01*
X158963580Y-108747509D01*
X158928158Y-108833025D01*
X158910100Y-108923809D01*
X152076200Y-108923809D01*
X152076200Y-108383046D01*
X163604961Y-108383046D01*
X163604961Y-108475608D01*
X163623019Y-108566392D01*
X163658441Y-108651908D01*
X163709866Y-108728871D01*
X163745571Y-108764576D01*
X163703580Y-108827419D01*
X163668158Y-108912935D01*
X163650100Y-109003719D01*
X163650100Y-109096281D01*
X163668158Y-109187065D01*
X163703580Y-109272581D01*
X163755005Y-109349544D01*
X163820456Y-109414995D01*
X163897419Y-109466420D01*
X163982935Y-109501842D01*
X164073719Y-109519900D01*
X164166281Y-109519900D01*
X164257065Y-109501842D01*
X164342581Y-109466420D01*
X164419544Y-109414995D01*
X164484995Y-109349544D01*
X164504474Y-109320391D01*
X171307808Y-109320391D01*
X171307808Y-109412953D01*
X171325866Y-109503737D01*
X171361288Y-109589253D01*
X171412713Y-109666216D01*
X171478164Y-109731667D01*
X171555127Y-109783092D01*
X171640643Y-109818514D01*
X171731427Y-109836572D01*
X171823989Y-109836572D01*
X171914773Y-109818514D01*
X172000289Y-109783092D01*
X172077252Y-109731667D01*
X172142703Y-109666216D01*
X172170980Y-109623897D01*
X172177419Y-109628199D01*
X172262935Y-109663621D01*
X172353719Y-109681679D01*
X172446281Y-109681679D01*
X172537065Y-109663621D01*
X172622581Y-109628199D01*
X172699544Y-109576774D01*
X172764995Y-109511323D01*
X172816420Y-109434360D01*
X172851842Y-109348844D01*
X172869900Y-109258060D01*
X172869900Y-109165498D01*
X172851842Y-109074714D01*
X172816420Y-108989198D01*
X172764995Y-108912235D01*
X172699544Y-108846784D01*
X172622581Y-108795359D01*
X172616257Y-108792739D01*
X172626128Y-108768908D01*
X172644186Y-108678124D01*
X172644186Y-108585562D01*
X172626128Y-108494778D01*
X172590706Y-108409262D01*
X172539281Y-108332299D01*
X172473830Y-108266848D01*
X172396867Y-108215423D01*
X172311351Y-108180001D01*
X172220567Y-108161943D01*
X172128005Y-108161943D01*
X172037221Y-108180001D01*
X171951705Y-108215423D01*
X171874742Y-108266848D01*
X171809291Y-108332299D01*
X171757866Y-108409262D01*
X171722444Y-108494778D01*
X171704386Y-108585562D01*
X171704386Y-108678124D01*
X171722444Y-108768908D01*
X171757866Y-108854424D01*
X171786162Y-108896772D01*
X171731427Y-108896772D01*
X171640643Y-108914830D01*
X171555127Y-108950252D01*
X171478164Y-109001677D01*
X171412713Y-109067128D01*
X171361288Y-109144091D01*
X171325866Y-109229607D01*
X171307808Y-109320391D01*
X164504474Y-109320391D01*
X164536420Y-109272581D01*
X164571842Y-109187065D01*
X164589900Y-109096281D01*
X164589900Y-109003719D01*
X164571842Y-108912935D01*
X164536420Y-108827419D01*
X164484995Y-108750456D01*
X164449290Y-108714751D01*
X164491281Y-108651908D01*
X164526703Y-108566392D01*
X164544761Y-108475608D01*
X164544761Y-108383046D01*
X164538665Y-108352399D01*
X166324790Y-108352399D01*
X166324790Y-108444961D01*
X166342848Y-108535745D01*
X166378270Y-108621261D01*
X166429695Y-108698224D01*
X166495146Y-108763675D01*
X166572109Y-108815100D01*
X166657625Y-108850522D01*
X166748409Y-108868580D01*
X166840971Y-108868580D01*
X166931755Y-108850522D01*
X167012626Y-108817024D01*
X167033608Y-108848426D01*
X167099059Y-108913877D01*
X167176022Y-108965302D01*
X167261538Y-109000724D01*
X167352322Y-109018782D01*
X167444884Y-109018782D01*
X167535668Y-109000724D01*
X167621184Y-108965302D01*
X167698147Y-108913877D01*
X167763598Y-108848426D01*
X167800800Y-108792750D01*
X167855634Y-108815463D01*
X167946418Y-108833521D01*
X168038980Y-108833521D01*
X168129764Y-108815463D01*
X168215280Y-108780041D01*
X168292243Y-108728616D01*
X168357694Y-108663165D01*
X168365351Y-108651704D01*
X170617352Y-108651704D01*
X170617352Y-108744266D01*
X170635410Y-108835050D01*
X170670832Y-108920566D01*
X170722257Y-108997529D01*
X170787708Y-109062980D01*
X170864671Y-109114405D01*
X170950187Y-109149827D01*
X171040971Y-109167885D01*
X171133533Y-109167885D01*
X171224317Y-109149827D01*
X171309833Y-109114405D01*
X171386796Y-109062980D01*
X171452247Y-108997529D01*
X171503672Y-108920566D01*
X171539094Y-108835050D01*
X171557152Y-108744266D01*
X171557152Y-108651704D01*
X171539094Y-108560920D01*
X171503672Y-108475404D01*
X171452247Y-108398441D01*
X171386796Y-108332990D01*
X171309833Y-108281565D01*
X171224317Y-108246143D01*
X171133533Y-108228085D01*
X171040971Y-108228085D01*
X170950187Y-108246143D01*
X170864671Y-108281565D01*
X170787708Y-108332990D01*
X170722257Y-108398441D01*
X170670832Y-108475404D01*
X170635410Y-108560920D01*
X170617352Y-108651704D01*
X168365351Y-108651704D01*
X168409119Y-108586202D01*
X168444541Y-108500686D01*
X168462599Y-108409902D01*
X168462599Y-108317340D01*
X168444541Y-108226556D01*
X168409119Y-108141040D01*
X168357694Y-108064077D01*
X168292243Y-107998626D01*
X168215280Y-107947201D01*
X168129764Y-107911779D01*
X168038980Y-107893721D01*
X167946418Y-107893721D01*
X167855634Y-107911779D01*
X167770118Y-107947201D01*
X167693155Y-107998626D01*
X167627704Y-108064077D01*
X167590502Y-108119753D01*
X167535668Y-108097040D01*
X167444884Y-108078982D01*
X167352322Y-108078982D01*
X167261538Y-108097040D01*
X167180667Y-108130538D01*
X167159685Y-108099136D01*
X167094234Y-108033685D01*
X167017271Y-107982260D01*
X166931755Y-107946838D01*
X166840971Y-107928780D01*
X166748409Y-107928780D01*
X166657625Y-107946838D01*
X166572109Y-107982260D01*
X166495146Y-108033685D01*
X166429695Y-108099136D01*
X166378270Y-108176099D01*
X166342848Y-108261615D01*
X166324790Y-108352399D01*
X164538665Y-108352399D01*
X164526703Y-108292262D01*
X164491281Y-108206746D01*
X164439856Y-108129783D01*
X164374405Y-108064332D01*
X164297442Y-108012907D01*
X164211926Y-107977485D01*
X164121142Y-107959427D01*
X164028580Y-107959427D01*
X163937796Y-107977485D01*
X163852280Y-108012907D01*
X163775317Y-108064332D01*
X163709866Y-108129783D01*
X163658441Y-108206746D01*
X163623019Y-108292262D01*
X163604961Y-108383046D01*
X152076200Y-108383046D01*
X152076200Y-103953719D01*
X155530100Y-103953719D01*
X155530100Y-104046281D01*
X155548158Y-104137065D01*
X155583580Y-104222581D01*
X155635005Y-104299544D01*
X155635461Y-104300000D01*
X155635005Y-104300456D01*
X155583580Y-104377419D01*
X155548158Y-104462935D01*
X155530100Y-104553719D01*
X155530100Y-104646281D01*
X155548158Y-104737065D01*
X155583580Y-104822581D01*
X155635005Y-104899544D01*
X155635461Y-104900000D01*
X155635005Y-104900456D01*
X155583580Y-104977419D01*
X155548158Y-105062935D01*
X155530100Y-105153719D01*
X155530100Y-105246281D01*
X155548158Y-105337065D01*
X155583580Y-105422581D01*
X155635005Y-105499544D01*
X155635461Y-105500000D01*
X155635005Y-105500456D01*
X155583580Y-105577419D01*
X155548158Y-105662935D01*
X155530100Y-105753719D01*
X155530100Y-105846281D01*
X155548158Y-105937065D01*
X155583580Y-106022581D01*
X155635005Y-106099544D01*
X155635461Y-106100000D01*
X155635005Y-106100456D01*
X155583580Y-106177419D01*
X155548158Y-106262935D01*
X155530100Y-106353719D01*
X155530100Y-106446281D01*
X155548158Y-106537065D01*
X155583580Y-106622581D01*
X155635005Y-106699544D01*
X155635461Y-106700000D01*
X155635005Y-106700456D01*
X155583580Y-106777419D01*
X155548158Y-106862935D01*
X155530100Y-106953719D01*
X155530100Y-107046281D01*
X155548158Y-107137065D01*
X155583580Y-107222581D01*
X155635005Y-107299544D01*
X155700456Y-107364995D01*
X155777419Y-107416420D01*
X155862935Y-107451842D01*
X155953719Y-107469900D01*
X156046281Y-107469900D01*
X156137065Y-107451842D01*
X156222581Y-107416420D01*
X156299544Y-107364995D01*
X156364995Y-107299544D01*
X156400000Y-107247155D01*
X156435005Y-107299544D01*
X156500456Y-107364995D01*
X156577419Y-107416420D01*
X156662935Y-107451842D01*
X156753719Y-107469900D01*
X156846281Y-107469900D01*
X156937065Y-107451842D01*
X157022581Y-107416420D01*
X157099544Y-107364995D01*
X157164995Y-107299544D01*
X157216420Y-107222581D01*
X157238241Y-107169900D01*
X157246281Y-107169900D01*
X157337065Y-107151842D01*
X157399613Y-107125934D01*
X157408580Y-107147581D01*
X157460005Y-107224544D01*
X157525456Y-107289995D01*
X157602419Y-107341420D01*
X157687935Y-107376842D01*
X157778719Y-107394900D01*
X157871281Y-107394900D01*
X157962065Y-107376842D01*
X158047581Y-107341420D01*
X158124544Y-107289995D01*
X158189995Y-107224544D01*
X158197102Y-107213907D01*
X161058500Y-107213907D01*
X161058500Y-107306469D01*
X161076558Y-107397253D01*
X161111980Y-107482769D01*
X161163405Y-107559732D01*
X161228856Y-107625183D01*
X161305819Y-107676608D01*
X161391335Y-107712030D01*
X161482119Y-107730088D01*
X161574681Y-107730088D01*
X161665465Y-107712030D01*
X161750981Y-107676608D01*
X161827944Y-107625183D01*
X161893395Y-107559732D01*
X161944820Y-107482769D01*
X161980242Y-107397253D01*
X161998300Y-107306469D01*
X161998300Y-107253719D01*
X165030100Y-107253719D01*
X165030100Y-107346281D01*
X165048158Y-107437065D01*
X165083580Y-107522581D01*
X165135005Y-107599544D01*
X165200456Y-107664995D01*
X165277419Y-107716420D01*
X165362935Y-107751842D01*
X165453719Y-107769900D01*
X165546281Y-107769900D01*
X165637065Y-107751842D01*
X165722581Y-107716420D01*
X165799544Y-107664995D01*
X165825000Y-107639539D01*
X165850456Y-107664995D01*
X165927419Y-107716420D01*
X166012935Y-107751842D01*
X166103719Y-107769900D01*
X166196281Y-107769900D01*
X166287065Y-107751842D01*
X166372581Y-107716420D01*
X166449544Y-107664995D01*
X166460820Y-107653719D01*
X168930100Y-107653719D01*
X168930100Y-107746281D01*
X168948158Y-107837065D01*
X168983580Y-107922581D01*
X169035005Y-107999544D01*
X169100456Y-108064995D01*
X169177419Y-108116420D01*
X169262935Y-108151842D01*
X169353719Y-108169900D01*
X169446281Y-108169900D01*
X169537065Y-108151842D01*
X169580100Y-108134016D01*
X169580100Y-108146281D01*
X169598158Y-108237065D01*
X169633580Y-108322581D01*
X169685005Y-108399544D01*
X169750456Y-108464995D01*
X169827419Y-108516420D01*
X169912935Y-108551842D01*
X170003719Y-108569900D01*
X170096281Y-108569900D01*
X170187065Y-108551842D01*
X170272581Y-108516420D01*
X170349544Y-108464995D01*
X170414995Y-108399544D01*
X170466420Y-108322581D01*
X170501842Y-108237065D01*
X170519900Y-108146281D01*
X170519900Y-108053719D01*
X170501842Y-107962935D01*
X170466420Y-107877419D01*
X170414995Y-107800456D01*
X170349544Y-107735005D01*
X170272581Y-107683580D01*
X170187065Y-107648158D01*
X170096281Y-107630100D01*
X170003719Y-107630100D01*
X169912935Y-107648158D01*
X169869900Y-107665984D01*
X169869900Y-107653719D01*
X169851842Y-107562935D01*
X169816420Y-107477419D01*
X169764995Y-107400456D01*
X169699544Y-107335005D01*
X169622581Y-107283580D01*
X169537065Y-107248158D01*
X169446281Y-107230100D01*
X169353719Y-107230100D01*
X169262935Y-107248158D01*
X169177419Y-107283580D01*
X169100456Y-107335005D01*
X169035005Y-107400456D01*
X168983580Y-107477419D01*
X168948158Y-107562935D01*
X168930100Y-107653719D01*
X166460820Y-107653719D01*
X166514995Y-107599544D01*
X166566420Y-107522581D01*
X166601842Y-107437065D01*
X166619900Y-107346281D01*
X166619900Y-107253719D01*
X166601842Y-107162935D01*
X166566420Y-107077419D01*
X166514995Y-107000456D01*
X166485648Y-106971109D01*
X170630096Y-106971109D01*
X170630096Y-107063671D01*
X170648154Y-107154455D01*
X170683576Y-107239971D01*
X170735001Y-107316934D01*
X170800452Y-107382385D01*
X170877415Y-107433810D01*
X170962931Y-107469232D01*
X171053715Y-107487290D01*
X171146277Y-107487290D01*
X171237061Y-107469232D01*
X171322577Y-107433810D01*
X171399540Y-107382385D01*
X171464991Y-107316934D01*
X171516416Y-107239971D01*
X171551838Y-107154455D01*
X171569896Y-107063671D01*
X171569896Y-106971109D01*
X171551838Y-106880325D01*
X171516416Y-106794809D01*
X171464991Y-106717846D01*
X171399540Y-106652395D01*
X171322577Y-106600970D01*
X171237061Y-106565548D01*
X171146277Y-106547490D01*
X171053715Y-106547490D01*
X170962931Y-106565548D01*
X170877415Y-106600970D01*
X170800452Y-106652395D01*
X170735001Y-106717846D01*
X170683576Y-106794809D01*
X170648154Y-106880325D01*
X170630096Y-106971109D01*
X166485648Y-106971109D01*
X166449544Y-106935005D01*
X166372581Y-106883580D01*
X166287065Y-106848158D01*
X166196281Y-106830100D01*
X166103719Y-106830100D01*
X166012935Y-106848158D01*
X165927419Y-106883580D01*
X165850456Y-106935005D01*
X165825000Y-106960461D01*
X165799544Y-106935005D01*
X165722581Y-106883580D01*
X165637065Y-106848158D01*
X165546281Y-106830100D01*
X165453719Y-106830100D01*
X165362935Y-106848158D01*
X165277419Y-106883580D01*
X165200456Y-106935005D01*
X165135005Y-107000456D01*
X165083580Y-107077419D01*
X165048158Y-107162935D01*
X165030100Y-107253719D01*
X161998300Y-107253719D01*
X161998300Y-107213907D01*
X161980242Y-107123123D01*
X161944820Y-107037607D01*
X161893395Y-106960644D01*
X161827944Y-106895193D01*
X161750981Y-106843768D01*
X161665465Y-106808346D01*
X161574681Y-106790288D01*
X161482119Y-106790288D01*
X161391335Y-106808346D01*
X161305819Y-106843768D01*
X161228856Y-106895193D01*
X161163405Y-106960644D01*
X161111980Y-107037607D01*
X161076558Y-107123123D01*
X161058500Y-107213907D01*
X158197102Y-107213907D01*
X158241420Y-107147581D01*
X158276842Y-107062065D01*
X158294900Y-106971281D01*
X158294900Y-106878719D01*
X158276842Y-106787935D01*
X158241420Y-106702419D01*
X158189995Y-106625456D01*
X158124544Y-106560005D01*
X158047581Y-106508580D01*
X157962065Y-106473158D01*
X157871281Y-106455100D01*
X157778719Y-106455100D01*
X157687935Y-106473158D01*
X157625387Y-106499066D01*
X157616420Y-106477419D01*
X157564995Y-106400456D01*
X157499544Y-106335005D01*
X157428456Y-106287505D01*
X158550100Y-106287505D01*
X158550100Y-106380067D01*
X158568158Y-106470851D01*
X158603580Y-106556367D01*
X158655005Y-106633330D01*
X158720456Y-106698781D01*
X158797419Y-106750206D01*
X158882935Y-106785628D01*
X158973719Y-106803686D01*
X159066281Y-106803686D01*
X159157065Y-106785628D01*
X159242581Y-106750206D01*
X159319544Y-106698781D01*
X159384995Y-106633330D01*
X159436420Y-106556367D01*
X159471842Y-106470851D01*
X159489900Y-106380067D01*
X159489900Y-106287505D01*
X159471842Y-106196721D01*
X159436420Y-106111205D01*
X159384995Y-106034242D01*
X159319544Y-105968791D01*
X159242581Y-105917366D01*
X159210772Y-105904190D01*
X174880571Y-105904190D01*
X174880571Y-105996752D01*
X174898629Y-106087536D01*
X174934051Y-106173052D01*
X174985476Y-106250015D01*
X175050927Y-106315466D01*
X175127890Y-106366891D01*
X175213406Y-106402313D01*
X175304190Y-106420371D01*
X175396752Y-106420371D01*
X175487536Y-106402313D01*
X175573052Y-106366891D01*
X175650015Y-106315466D01*
X175715466Y-106250015D01*
X175766891Y-106173052D01*
X175802313Y-106087536D01*
X175820371Y-105996752D01*
X175820371Y-105904190D01*
X175802313Y-105813406D01*
X175766891Y-105727890D01*
X175715466Y-105650927D01*
X175650015Y-105585476D01*
X175573052Y-105534051D01*
X175487536Y-105498629D01*
X175396752Y-105480571D01*
X175304190Y-105480571D01*
X175213406Y-105498629D01*
X175127890Y-105534051D01*
X175050927Y-105585476D01*
X174985476Y-105650927D01*
X174934051Y-105727890D01*
X174898629Y-105813406D01*
X174880571Y-105904190D01*
X159210772Y-105904190D01*
X159157065Y-105881944D01*
X159066281Y-105863886D01*
X158973719Y-105863886D01*
X158882935Y-105881944D01*
X158797419Y-105917366D01*
X158720456Y-105968791D01*
X158655005Y-106034242D01*
X158603580Y-106111205D01*
X158568158Y-106196721D01*
X158550100Y-106287505D01*
X157428456Y-106287505D01*
X157422581Y-106283580D01*
X157337065Y-106248158D01*
X157246281Y-106230100D01*
X157238241Y-106230100D01*
X157216420Y-106177419D01*
X157164995Y-106100456D01*
X157099544Y-106035005D01*
X157022581Y-105983580D01*
X156937065Y-105948158D01*
X156846281Y-105930100D01*
X156838241Y-105930100D01*
X156816420Y-105877419D01*
X156764995Y-105800456D01*
X156764539Y-105800000D01*
X156764995Y-105799544D01*
X156816420Y-105722581D01*
X156851842Y-105637065D01*
X156869900Y-105546281D01*
X156869900Y-105453719D01*
X156851842Y-105362935D01*
X156816420Y-105277419D01*
X156813918Y-105273674D01*
X172862135Y-105273674D01*
X172862135Y-105366236D01*
X172880193Y-105457020D01*
X172915615Y-105542536D01*
X172967040Y-105619499D01*
X173032491Y-105684950D01*
X173109454Y-105736375D01*
X173194970Y-105771797D01*
X173285754Y-105789855D01*
X173378316Y-105789855D01*
X173469100Y-105771797D01*
X173554616Y-105736375D01*
X173631579Y-105684950D01*
X173697030Y-105619499D01*
X173748455Y-105542536D01*
X173783877Y-105457020D01*
X173801935Y-105366236D01*
X173801935Y-105273674D01*
X173783877Y-105182890D01*
X173748455Y-105097374D01*
X173697030Y-105020411D01*
X173631579Y-104954960D01*
X173569607Y-104913551D01*
X175149164Y-104913551D01*
X175149164Y-105006113D01*
X175167222Y-105096897D01*
X175202644Y-105182413D01*
X175254069Y-105259376D01*
X175319520Y-105324827D01*
X175396483Y-105376252D01*
X175481999Y-105411674D01*
X175572783Y-105429732D01*
X175665345Y-105429732D01*
X175756129Y-105411674D01*
X175841645Y-105376252D01*
X175918608Y-105324827D01*
X175984059Y-105259376D01*
X176035484Y-105182413D01*
X176070906Y-105096897D01*
X176088964Y-105006113D01*
X176088964Y-104913551D01*
X176070906Y-104822767D01*
X176035484Y-104737251D01*
X175984059Y-104660288D01*
X175918608Y-104594837D01*
X175841645Y-104543412D01*
X175756129Y-104507990D01*
X175665345Y-104489932D01*
X175572783Y-104489932D01*
X175481999Y-104507990D01*
X175396483Y-104543412D01*
X175319520Y-104594837D01*
X175254069Y-104660288D01*
X175202644Y-104737251D01*
X175167222Y-104822767D01*
X175149164Y-104913551D01*
X173569607Y-104913551D01*
X173554616Y-104903535D01*
X173469100Y-104868113D01*
X173378316Y-104850055D01*
X173285754Y-104850055D01*
X173194970Y-104868113D01*
X173109454Y-104903535D01*
X173032491Y-104954960D01*
X172967040Y-105020411D01*
X172915615Y-105097374D01*
X172880193Y-105182890D01*
X172862135Y-105273674D01*
X156813918Y-105273674D01*
X156764995Y-105200456D01*
X156764539Y-105200000D01*
X156764995Y-105199544D01*
X156816420Y-105122581D01*
X156851842Y-105037065D01*
X156869900Y-104946281D01*
X156869900Y-104853719D01*
X156851842Y-104762935D01*
X156816420Y-104677419D01*
X156764995Y-104600456D01*
X156764539Y-104600000D01*
X156764995Y-104599544D01*
X156816420Y-104522581D01*
X156851842Y-104437065D01*
X156869900Y-104346281D01*
X156869900Y-104253719D01*
X156855977Y-104183719D01*
X161340010Y-104183719D01*
X161340010Y-104276281D01*
X161358068Y-104367065D01*
X161393490Y-104452581D01*
X161444915Y-104529544D01*
X161510366Y-104594995D01*
X161587329Y-104646420D01*
X161672845Y-104681842D01*
X161763629Y-104699900D01*
X161856191Y-104699900D01*
X161946975Y-104681842D01*
X162032491Y-104646420D01*
X162109454Y-104594995D01*
X162174905Y-104529544D01*
X162226330Y-104452581D01*
X162261752Y-104367065D01*
X162279810Y-104276281D01*
X162279810Y-104183719D01*
X162261752Y-104092935D01*
X162226330Y-104007419D01*
X162174905Y-103930456D01*
X162109454Y-103865005D01*
X162032491Y-103813580D01*
X161946975Y-103778158D01*
X161856191Y-103760100D01*
X161763629Y-103760100D01*
X161672845Y-103778158D01*
X161587329Y-103813580D01*
X161510366Y-103865005D01*
X161444915Y-103930456D01*
X161393490Y-104007419D01*
X161358068Y-104092935D01*
X161340010Y-104183719D01*
X156855977Y-104183719D01*
X156851842Y-104162935D01*
X156816420Y-104077419D01*
X156764995Y-104000456D01*
X156764539Y-104000000D01*
X156764995Y-103999544D01*
X156816420Y-103922581D01*
X156851842Y-103837065D01*
X156869900Y-103746281D01*
X156869900Y-103733719D01*
X164071022Y-103733719D01*
X164071022Y-103826281D01*
X164089080Y-103917065D01*
X164124502Y-104002581D01*
X164175927Y-104079544D01*
X164241378Y-104144995D01*
X164318341Y-104196420D01*
X164403857Y-104231842D01*
X164494641Y-104249900D01*
X164587203Y-104249900D01*
X164677987Y-104231842D01*
X164763503Y-104196420D01*
X164840466Y-104144995D01*
X164905917Y-104079544D01*
X164957342Y-104002581D01*
X164992764Y-103917065D01*
X165010822Y-103826281D01*
X165010822Y-103733719D01*
X164992764Y-103642935D01*
X164957342Y-103557419D01*
X164905917Y-103480456D01*
X164883796Y-103458335D01*
X171372853Y-103458335D01*
X171372853Y-103550897D01*
X171390911Y-103641681D01*
X171426333Y-103727197D01*
X171477758Y-103804160D01*
X171543209Y-103869611D01*
X171620172Y-103921036D01*
X171705688Y-103956458D01*
X171796472Y-103974516D01*
X171889034Y-103974516D01*
X171979818Y-103956458D01*
X172065334Y-103921036D01*
X172140372Y-103870897D01*
X172181442Y-103911967D01*
X172258405Y-103963392D01*
X172343921Y-103998814D01*
X172434705Y-104016872D01*
X172527267Y-104016872D01*
X172618051Y-103998814D01*
X172703567Y-103963392D01*
X172780530Y-103911967D01*
X172845981Y-103846516D01*
X172897406Y-103769553D01*
X172932828Y-103684037D01*
X172950886Y-103593253D01*
X172950886Y-103500691D01*
X172932828Y-103409907D01*
X172897406Y-103324391D01*
X172869251Y-103282254D01*
X172880459Y-103277611D01*
X172957422Y-103226186D01*
X173022873Y-103160735D01*
X173074298Y-103083772D01*
X173109720Y-102998256D01*
X173127778Y-102907472D01*
X173127778Y-102814910D01*
X173109720Y-102724126D01*
X173074298Y-102638610D01*
X173022873Y-102561647D01*
X172957422Y-102496196D01*
X172880459Y-102444771D01*
X172794943Y-102409349D01*
X172704159Y-102391291D01*
X172611597Y-102391291D01*
X172580654Y-102397446D01*
X172603688Y-102341837D01*
X172621746Y-102251053D01*
X172621746Y-102179129D01*
X173022759Y-102179129D01*
X173022759Y-102271691D01*
X173040817Y-102362475D01*
X173076239Y-102447991D01*
X173127664Y-102524954D01*
X173193115Y-102590405D01*
X173270078Y-102641830D01*
X173355594Y-102677252D01*
X173446378Y-102695310D01*
X173538940Y-102695310D01*
X173629724Y-102677252D01*
X173715240Y-102641830D01*
X173792203Y-102590405D01*
X173857654Y-102524954D01*
X173909079Y-102447991D01*
X173944501Y-102362475D01*
X173962559Y-102271691D01*
X173962559Y-102179129D01*
X173944501Y-102088345D01*
X173909079Y-102002829D01*
X173857654Y-101925866D01*
X173792203Y-101860415D01*
X173715240Y-101808990D01*
X173629724Y-101773568D01*
X173538940Y-101755510D01*
X173446378Y-101755510D01*
X173355594Y-101773568D01*
X173270078Y-101808990D01*
X173193115Y-101860415D01*
X173127664Y-101925866D01*
X173076239Y-102002829D01*
X173040817Y-102088345D01*
X173022759Y-102179129D01*
X172621746Y-102179129D01*
X172621746Y-102158491D01*
X172603688Y-102067707D01*
X172568266Y-101982191D01*
X172516841Y-101905228D01*
X172451390Y-101839777D01*
X172374427Y-101788352D01*
X172288911Y-101752930D01*
X172198127Y-101734872D01*
X172105565Y-101734872D01*
X172014781Y-101752930D01*
X171929265Y-101788352D01*
X171852302Y-101839777D01*
X171786851Y-101905228D01*
X171735426Y-101982191D01*
X171700004Y-102067707D01*
X171681946Y-102158491D01*
X171681946Y-102251053D01*
X171700004Y-102341837D01*
X171735426Y-102427353D01*
X171786851Y-102504316D01*
X171834198Y-102551663D01*
X171783580Y-102627419D01*
X171748158Y-102712935D01*
X171730100Y-102803719D01*
X171730100Y-102896281D01*
X171748158Y-102987065D01*
X171770071Y-103039967D01*
X171705688Y-103052774D01*
X171620172Y-103088196D01*
X171543209Y-103139621D01*
X171477758Y-103205072D01*
X171426333Y-103282035D01*
X171390911Y-103367551D01*
X171372853Y-103458335D01*
X164883796Y-103458335D01*
X164840466Y-103415005D01*
X164763503Y-103363580D01*
X164677987Y-103328158D01*
X164587203Y-103310100D01*
X164494641Y-103310100D01*
X164403857Y-103328158D01*
X164318341Y-103363580D01*
X164241378Y-103415005D01*
X164175927Y-103480456D01*
X164124502Y-103557419D01*
X164089080Y-103642935D01*
X164071022Y-103733719D01*
X156869900Y-103733719D01*
X156869900Y-103653719D01*
X156851842Y-103562935D01*
X156816420Y-103477419D01*
X156764995Y-103400456D01*
X156699544Y-103335005D01*
X156622581Y-103283580D01*
X156537065Y-103248158D01*
X156446281Y-103230100D01*
X156353719Y-103230100D01*
X156262935Y-103248158D01*
X156177419Y-103283580D01*
X156100456Y-103335005D01*
X156035005Y-103400456D01*
X155983580Y-103477419D01*
X155961759Y-103530100D01*
X155953719Y-103530100D01*
X155862935Y-103548158D01*
X155777419Y-103583580D01*
X155700456Y-103635005D01*
X155635005Y-103700456D01*
X155583580Y-103777419D01*
X155548158Y-103862935D01*
X155530100Y-103953719D01*
X152076200Y-103953719D01*
X152076200Y-103103711D01*
X162630100Y-103103711D01*
X162630100Y-103196273D01*
X162648158Y-103287057D01*
X162683580Y-103372573D01*
X162735005Y-103449536D01*
X162800456Y-103514987D01*
X162877419Y-103566412D01*
X162962935Y-103601834D01*
X163053719Y-103619892D01*
X163146281Y-103619892D01*
X163237065Y-103601834D01*
X163322581Y-103566412D01*
X163399544Y-103514987D01*
X163464995Y-103449536D01*
X163516420Y-103372573D01*
X163551842Y-103287057D01*
X163569900Y-103196273D01*
X163569900Y-103103711D01*
X163551842Y-103012927D01*
X163516420Y-102927411D01*
X163464995Y-102850448D01*
X163399544Y-102784997D01*
X163322581Y-102733572D01*
X163237065Y-102698150D01*
X163146281Y-102680092D01*
X163053719Y-102680092D01*
X162962935Y-102698150D01*
X162877419Y-102733572D01*
X162800456Y-102784997D01*
X162735005Y-102850448D01*
X162683580Y-102927411D01*
X162648158Y-103012927D01*
X162630100Y-103103711D01*
X152076200Y-103103711D01*
X152076200Y-102621919D01*
X168930650Y-102621919D01*
X168930650Y-102714481D01*
X168948708Y-102805265D01*
X168984130Y-102890781D01*
X169035555Y-102967744D01*
X169101006Y-103033195D01*
X169177969Y-103084620D01*
X169263485Y-103120042D01*
X169354269Y-103138100D01*
X169446831Y-103138100D01*
X169537615Y-103120042D01*
X169623131Y-103084620D01*
X169700094Y-103033195D01*
X169765545Y-102967744D01*
X169816970Y-102890781D01*
X169852392Y-102805265D01*
X169870450Y-102714481D01*
X169870450Y-102621919D01*
X169852392Y-102531135D01*
X169816970Y-102445619D01*
X169765545Y-102368656D01*
X169700094Y-102303205D01*
X169623131Y-102251780D01*
X169537615Y-102216358D01*
X169446831Y-102198300D01*
X169354269Y-102198300D01*
X169263485Y-102216358D01*
X169177969Y-102251780D01*
X169101006Y-102303205D01*
X169035555Y-102368656D01*
X168984130Y-102445619D01*
X168948708Y-102531135D01*
X168930650Y-102621919D01*
X152076200Y-102621919D01*
X152076200Y-101709981D01*
X165930100Y-101709981D01*
X165930100Y-101802543D01*
X165948158Y-101893327D01*
X165983580Y-101978843D01*
X166035005Y-102055806D01*
X166100456Y-102121257D01*
X166177419Y-102172682D01*
X166262935Y-102208104D01*
X166353719Y-102226162D01*
X166446281Y-102226162D01*
X166537065Y-102208104D01*
X166622581Y-102172682D01*
X166699544Y-102121257D01*
X166736149Y-102084653D01*
X166772767Y-102121271D01*
X166849730Y-102172696D01*
X166935246Y-102208118D01*
X167026030Y-102226176D01*
X167118592Y-102226176D01*
X167209376Y-102208118D01*
X167294892Y-102172696D01*
X167371855Y-102121271D01*
X167437306Y-102055820D01*
X167488731Y-101978857D01*
X167524153Y-101893341D01*
X167542211Y-101802557D01*
X167542211Y-101709995D01*
X167524153Y-101619211D01*
X167488731Y-101533695D01*
X167437306Y-101456732D01*
X167371855Y-101391281D01*
X167294892Y-101339856D01*
X167209376Y-101304434D01*
X167118592Y-101286376D01*
X167026030Y-101286376D01*
X166935246Y-101304434D01*
X166849730Y-101339856D01*
X166772767Y-101391281D01*
X166736163Y-101427886D01*
X166699544Y-101391267D01*
X166622581Y-101339842D01*
X166537065Y-101304420D01*
X166446281Y-101286362D01*
X166353719Y-101286362D01*
X166262935Y-101304420D01*
X166177419Y-101339842D01*
X166100456Y-101391267D01*
X166035005Y-101456718D01*
X165983580Y-101533681D01*
X165948158Y-101619197D01*
X165930100Y-101709981D01*
X152076200Y-101709981D01*
X152076200Y-100770172D01*
X165930100Y-100770172D01*
X165930100Y-100862734D01*
X165948158Y-100953518D01*
X165983580Y-101039034D01*
X166035005Y-101115997D01*
X166100456Y-101181448D01*
X166177419Y-101232873D01*
X166262935Y-101268295D01*
X166353719Y-101286353D01*
X166446281Y-101286353D01*
X166537065Y-101268295D01*
X166622581Y-101232873D01*
X166699544Y-101181448D01*
X166744484Y-101136509D01*
X166789422Y-101181447D01*
X166866385Y-101232872D01*
X166951901Y-101268294D01*
X167042685Y-101286352D01*
X167135247Y-101286352D01*
X167226031Y-101268294D01*
X167311547Y-101232872D01*
X167388510Y-101181447D01*
X167453961Y-101115996D01*
X167505386Y-101039033D01*
X167540808Y-100953517D01*
X167558866Y-100862733D01*
X167558866Y-100770171D01*
X167540808Y-100679387D01*
X167505386Y-100593871D01*
X167453961Y-100516908D01*
X167388510Y-100451457D01*
X167311547Y-100400032D01*
X167226031Y-100364610D01*
X167135247Y-100346552D01*
X167042685Y-100346552D01*
X166951901Y-100364610D01*
X166866385Y-100400032D01*
X166789422Y-100451457D01*
X166744483Y-100496397D01*
X166699544Y-100451458D01*
X166622581Y-100400033D01*
X166537065Y-100364611D01*
X166446281Y-100346553D01*
X166353719Y-100346553D01*
X166262935Y-100364611D01*
X166177419Y-100400033D01*
X166100456Y-100451458D01*
X166035005Y-100516909D01*
X165983580Y-100593872D01*
X165948158Y-100679388D01*
X165930100Y-100770172D01*
X152076200Y-100770172D01*
X152076200Y-100138264D01*
X173425099Y-100138264D01*
X173425099Y-100230826D01*
X173443157Y-100321610D01*
X173478579Y-100407126D01*
X173530004Y-100484089D01*
X173595455Y-100549540D01*
X173672418Y-100600965D01*
X173757934Y-100636387D01*
X173848718Y-100654445D01*
X173941280Y-100654445D01*
X174032064Y-100636387D01*
X174117580Y-100600965D01*
X174194543Y-100549540D01*
X174259994Y-100484089D01*
X174311419Y-100407126D01*
X174346841Y-100321610D01*
X174364899Y-100230826D01*
X174364899Y-100138264D01*
X174346841Y-100047480D01*
X174311419Y-99961964D01*
X174259994Y-99885001D01*
X174194543Y-99819550D01*
X174165285Y-99800000D01*
X177605598Y-99800000D01*
X177617980Y-99925717D01*
X177654650Y-100046602D01*
X177714199Y-100158011D01*
X177794339Y-100255661D01*
X177891989Y-100335801D01*
X178003398Y-100395350D01*
X178101141Y-100425000D01*
X178003398Y-100454650D01*
X177891989Y-100514199D01*
X177794339Y-100594339D01*
X177714199Y-100691989D01*
X177654650Y-100803398D01*
X177617980Y-100924283D01*
X177605598Y-101050000D01*
X177617980Y-101175717D01*
X177654650Y-101296602D01*
X177714199Y-101408011D01*
X177794339Y-101505661D01*
X177891989Y-101585801D01*
X178003398Y-101645350D01*
X178045139Y-101658012D01*
X177963679Y-101666035D01*
X177880675Y-101691214D01*
X177804179Y-101732102D01*
X177737129Y-101787129D01*
X177682102Y-101854179D01*
X177641214Y-101930675D01*
X177616035Y-102013679D01*
X177607533Y-102100000D01*
X177607533Y-102500000D01*
X177616035Y-102586321D01*
X177641214Y-102669325D01*
X177682102Y-102745821D01*
X177737129Y-102812871D01*
X177804179Y-102867898D01*
X177880675Y-102908786D01*
X177963679Y-102933965D01*
X178050000Y-102942467D01*
X178950000Y-102942467D01*
X179036321Y-102933965D01*
X179119325Y-102908786D01*
X179195821Y-102867898D01*
X179262871Y-102812871D01*
X179317898Y-102745821D01*
X179358786Y-102669325D01*
X179383965Y-102586321D01*
X179392467Y-102500000D01*
X179392467Y-102100000D01*
X179383965Y-102013679D01*
X179358786Y-101930675D01*
X179317898Y-101854179D01*
X179262871Y-101787129D01*
X179195821Y-101732102D01*
X179119325Y-101691214D01*
X179036321Y-101666035D01*
X178954861Y-101658012D01*
X178996602Y-101645350D01*
X179108011Y-101585801D01*
X179205661Y-101505661D01*
X179285801Y-101408011D01*
X179345350Y-101296602D01*
X179382020Y-101175717D01*
X179394402Y-101050000D01*
X179382020Y-100924283D01*
X179345350Y-100803398D01*
X179285801Y-100691989D01*
X179205661Y-100594339D01*
X179108011Y-100514199D01*
X178996602Y-100454650D01*
X178898859Y-100425000D01*
X178996602Y-100395350D01*
X179108011Y-100335801D01*
X179205661Y-100255661D01*
X179285801Y-100158011D01*
X179345350Y-100046602D01*
X179382020Y-99925717D01*
X179394402Y-99800000D01*
X179382020Y-99674283D01*
X179345350Y-99553398D01*
X179285801Y-99441989D01*
X179205661Y-99344339D01*
X179108011Y-99264199D01*
X178996602Y-99204650D01*
X178875717Y-99167980D01*
X178781495Y-99158700D01*
X178218505Y-99158700D01*
X178124283Y-99167980D01*
X178003398Y-99204650D01*
X177891989Y-99264199D01*
X177794339Y-99344339D01*
X177714199Y-99441989D01*
X177654650Y-99553398D01*
X177617980Y-99674283D01*
X177605598Y-99800000D01*
X174165285Y-99800000D01*
X174117580Y-99768125D01*
X174032064Y-99732703D01*
X173941280Y-99714645D01*
X173848718Y-99714645D01*
X173757934Y-99732703D01*
X173672418Y-99768125D01*
X173595455Y-99819550D01*
X173530004Y-99885001D01*
X173478579Y-99961964D01*
X173443157Y-100047480D01*
X173425099Y-100138264D01*
X152076200Y-100138264D01*
X152076200Y-97703719D01*
X155030100Y-97703719D01*
X155030100Y-97796281D01*
X155048158Y-97887065D01*
X155083580Y-97972581D01*
X155101901Y-98000000D01*
X155083580Y-98027419D01*
X155048158Y-98112935D01*
X155030100Y-98203719D01*
X155030100Y-98296281D01*
X155048158Y-98387065D01*
X155083580Y-98472581D01*
X155101901Y-98500000D01*
X155083580Y-98527419D01*
X155048158Y-98612935D01*
X155030100Y-98703719D01*
X155030100Y-98796281D01*
X155048158Y-98887065D01*
X155083580Y-98972581D01*
X155101901Y-99000000D01*
X155083580Y-99027419D01*
X155048158Y-99112935D01*
X155030100Y-99203719D01*
X155030100Y-99296281D01*
X155048158Y-99387065D01*
X155083580Y-99472581D01*
X155135005Y-99549544D01*
X155200456Y-99614995D01*
X155277419Y-99666420D01*
X155362935Y-99701842D01*
X155453719Y-99719900D01*
X155546281Y-99719900D01*
X155637065Y-99701842D01*
X155722581Y-99666420D01*
X155799544Y-99614995D01*
X155864995Y-99549544D01*
X155916420Y-99472581D01*
X155951842Y-99387065D01*
X155969900Y-99296281D01*
X155969900Y-99203719D01*
X155951842Y-99112935D01*
X155916420Y-99027419D01*
X155898099Y-99000000D01*
X155916420Y-98972581D01*
X155951842Y-98887065D01*
X155969900Y-98796281D01*
X155969900Y-98733719D01*
X158720100Y-98733719D01*
X158720100Y-98826281D01*
X158738158Y-98917065D01*
X158773580Y-99002581D01*
X158825005Y-99079544D01*
X158890456Y-99144995D01*
X158967419Y-99196420D01*
X159052935Y-99231842D01*
X159143719Y-99249900D01*
X159236281Y-99249900D01*
X159327065Y-99231842D01*
X159412581Y-99196420D01*
X159489544Y-99144995D01*
X159554995Y-99079544D01*
X159606420Y-99002581D01*
X159641842Y-98917065D01*
X159659900Y-98826281D01*
X159659900Y-98733719D01*
X159641842Y-98642935D01*
X159606420Y-98557419D01*
X159554995Y-98480456D01*
X159489544Y-98415005D01*
X159412581Y-98363580D01*
X159327065Y-98328158D01*
X159236281Y-98310100D01*
X159143719Y-98310100D01*
X159052935Y-98328158D01*
X158967419Y-98363580D01*
X158890456Y-98415005D01*
X158825005Y-98480456D01*
X158773580Y-98557419D01*
X158738158Y-98642935D01*
X158720100Y-98733719D01*
X155969900Y-98733719D01*
X155969900Y-98703719D01*
X155951842Y-98612935D01*
X155916420Y-98527419D01*
X155898099Y-98500000D01*
X155916420Y-98472581D01*
X155951842Y-98387065D01*
X155969900Y-98296281D01*
X155969900Y-98203719D01*
X155951842Y-98112935D01*
X155916420Y-98027419D01*
X155898099Y-98000000D01*
X155916420Y-97972581D01*
X155951842Y-97887065D01*
X155969900Y-97796281D01*
X155969900Y-97718719D01*
X164415100Y-97718719D01*
X164415100Y-97811281D01*
X164433158Y-97902065D01*
X164468580Y-97987581D01*
X164520005Y-98064544D01*
X164585456Y-98129995D01*
X164662419Y-98181420D01*
X164747935Y-98216842D01*
X164838719Y-98234900D01*
X164931281Y-98234900D01*
X165022065Y-98216842D01*
X165107581Y-98181420D01*
X165184544Y-98129995D01*
X165249995Y-98064544D01*
X165301420Y-97987581D01*
X165336842Y-97902065D01*
X165354900Y-97811281D01*
X165354900Y-97718719D01*
X165351917Y-97703719D01*
X166180100Y-97703719D01*
X166180100Y-97796281D01*
X166198158Y-97887065D01*
X166233580Y-97972581D01*
X166285005Y-98049544D01*
X166335461Y-98100000D01*
X166285005Y-98150456D01*
X166233580Y-98227419D01*
X166198158Y-98312935D01*
X166180100Y-98403719D01*
X166180100Y-98496281D01*
X166198158Y-98587065D01*
X166233580Y-98672581D01*
X166285005Y-98749544D01*
X166350456Y-98814995D01*
X166427419Y-98866420D01*
X166512935Y-98901842D01*
X166603719Y-98919900D01*
X166696281Y-98919900D01*
X166787065Y-98901842D01*
X166872581Y-98866420D01*
X166949544Y-98814995D01*
X167014995Y-98749544D01*
X167066420Y-98672581D01*
X167101842Y-98587065D01*
X167119900Y-98496281D01*
X167119900Y-98403719D01*
X167101842Y-98312935D01*
X167066420Y-98227419D01*
X167014995Y-98150456D01*
X166964539Y-98100000D01*
X167014995Y-98049544D01*
X167066420Y-97972581D01*
X167101842Y-97887065D01*
X167119900Y-97796281D01*
X167119900Y-97703719D01*
X167101842Y-97612935D01*
X167066420Y-97527419D01*
X167014995Y-97450456D01*
X166949544Y-97385005D01*
X166872581Y-97333580D01*
X166787065Y-97298158D01*
X166696281Y-97280100D01*
X166603719Y-97280100D01*
X166512935Y-97298158D01*
X166427419Y-97333580D01*
X166350456Y-97385005D01*
X166285005Y-97450456D01*
X166233580Y-97527419D01*
X166198158Y-97612935D01*
X166180100Y-97703719D01*
X165351917Y-97703719D01*
X165336842Y-97627935D01*
X165301420Y-97542419D01*
X165249995Y-97465456D01*
X165184544Y-97400005D01*
X165107581Y-97348580D01*
X165022065Y-97313158D01*
X164931281Y-97295100D01*
X164838719Y-97295100D01*
X164747935Y-97313158D01*
X164662419Y-97348580D01*
X164585456Y-97400005D01*
X164520005Y-97465456D01*
X164468580Y-97542419D01*
X164433158Y-97627935D01*
X164415100Y-97718719D01*
X155969900Y-97718719D01*
X155969900Y-97703719D01*
X155951842Y-97612935D01*
X155916420Y-97527419D01*
X155864995Y-97450456D01*
X155799544Y-97385005D01*
X155722581Y-97333580D01*
X155637065Y-97298158D01*
X155546281Y-97280100D01*
X155453719Y-97280100D01*
X155362935Y-97298158D01*
X155277419Y-97333580D01*
X155200456Y-97385005D01*
X155135005Y-97450456D01*
X155083580Y-97527419D01*
X155048158Y-97612935D01*
X155030100Y-97703719D01*
X152076200Y-97703719D01*
X152076200Y-97253600D01*
X182487595Y-97253600D01*
X182547623Y-97259486D01*
G37*
X182547623Y-97259486D02*
X182593434Y-97273317D01*
X182635682Y-97295780D01*
X182672765Y-97326025D01*
X182703269Y-97362898D01*
X182726025Y-97404985D01*
X182740176Y-97450699D01*
X182746401Y-97509925D01*
X182746400Y-120487595D01*
X182740514Y-120547623D01*
X182726683Y-120593434D01*
X182704220Y-120635682D01*
X182673975Y-120672765D01*
X182637103Y-120703268D01*
X182595015Y-120726025D01*
X182549301Y-120740176D01*
X182490084Y-120746400D01*
X175276200Y-120746400D01*
X175276200Y-117300000D01*
X175274736Y-117285134D01*
X175270400Y-117270840D01*
X175263358Y-117257666D01*
X175253882Y-117246118D01*
X175242334Y-117236642D01*
X175229160Y-117229600D01*
X175214866Y-117225264D01*
X175200000Y-117223800D01*
X173268878Y-117223800D01*
X173296420Y-117182581D01*
X173331842Y-117097065D01*
X173344681Y-117032516D01*
X175308700Y-117032516D01*
X175308700Y-117247484D01*
X175350638Y-117458320D01*
X175432903Y-117656924D01*
X175552332Y-117835663D01*
X175704337Y-117987668D01*
X175883076Y-118107097D01*
X176081680Y-118189362D01*
X176292516Y-118231300D01*
X176507484Y-118231300D01*
X176718320Y-118189362D01*
X176916924Y-118107097D01*
X177095663Y-117987668D01*
X177247668Y-117835663D01*
X177367097Y-117656924D01*
X177449362Y-117458320D01*
X177491300Y-117247484D01*
X177491300Y-117032516D01*
X177848700Y-117032516D01*
X177848700Y-117247484D01*
X177890638Y-117458320D01*
X177972903Y-117656924D01*
X178092332Y-117835663D01*
X178244337Y-117987668D01*
X178423076Y-118107097D01*
X178621680Y-118189362D01*
X178832516Y-118231300D01*
X179047484Y-118231300D01*
X179258320Y-118189362D01*
X179456924Y-118107097D01*
X179635663Y-117987668D01*
X179787668Y-117835663D01*
X179907097Y-117656924D01*
X179989362Y-117458320D01*
X180031300Y-117247484D01*
X180031300Y-117032516D01*
X179989362Y-116821680D01*
X179907097Y-116623076D01*
X179787668Y-116444337D01*
X179635663Y-116292332D01*
X179456924Y-116172903D01*
X179258320Y-116090638D01*
X179047484Y-116048700D01*
X178832516Y-116048700D01*
X178621680Y-116090638D01*
X178423076Y-116172903D01*
X178244337Y-116292332D01*
X178092332Y-116444337D01*
X177972903Y-116623076D01*
X177890638Y-116821680D01*
X177848700Y-117032516D01*
X177491300Y-117032516D01*
X177449362Y-116821680D01*
X177367097Y-116623076D01*
X177247668Y-116444337D01*
X177095663Y-116292332D01*
X176916924Y-116172903D01*
X176718320Y-116090638D01*
X176507484Y-116048700D01*
X176292516Y-116048700D01*
X176081680Y-116090638D01*
X175883076Y-116172903D01*
X175704337Y-116292332D01*
X175552332Y-116444337D01*
X175432903Y-116623076D01*
X175350638Y-116821680D01*
X175308700Y-117032516D01*
X173344681Y-117032516D01*
X173349900Y-117006281D01*
X173349900Y-116913719D01*
X173331842Y-116822935D01*
X173296420Y-116737419D01*
X173244995Y-116660456D01*
X173179544Y-116595005D01*
X173102581Y-116543580D01*
X173017065Y-116508158D01*
X172926281Y-116490100D01*
X172833719Y-116490100D01*
X172742935Y-116508158D01*
X172657419Y-116543580D01*
X172580456Y-116595005D01*
X172515005Y-116660456D01*
X172463580Y-116737419D01*
X172428158Y-116822935D01*
X172410100Y-116913719D01*
X172410100Y-117006281D01*
X172428158Y-117097065D01*
X172463580Y-117182581D01*
X172491122Y-117223800D01*
X170876200Y-117223800D01*
X170876200Y-115400000D01*
X170874736Y-115385134D01*
X170870400Y-115370840D01*
X170863358Y-115357666D01*
X170853882Y-115346118D01*
X170842334Y-115336642D01*
X170829160Y-115329600D01*
X170814866Y-115325264D01*
X170800000Y-115323800D01*
X169600000Y-115323800D01*
X169585134Y-115325264D01*
X169570840Y-115329600D01*
X169557666Y-115336642D01*
X169546118Y-115346118D01*
X169536642Y-115357666D01*
X169529600Y-115370840D01*
X169525264Y-115385134D01*
X169523800Y-115400000D01*
X169525264Y-115414866D01*
X169529600Y-115429160D01*
X169530105Y-115430105D01*
X169529160Y-115429600D01*
X169514866Y-115425264D01*
X169500000Y-115423800D01*
X169485134Y-115425264D01*
X169470840Y-115429600D01*
X169457666Y-115436642D01*
X169446118Y-115446118D01*
X169436642Y-115457666D01*
X169429600Y-115470840D01*
X169425264Y-115485134D01*
X169423800Y-115500000D01*
X169423800Y-120000000D01*
X169425264Y-120014866D01*
X169429600Y-120029160D01*
X169436642Y-120042334D01*
X169446118Y-120053882D01*
X169746118Y-120353882D01*
X169757666Y-120363358D01*
X169770840Y-120370400D01*
X169785134Y-120374736D01*
X169800000Y-120376200D01*
X170542964Y-120376200D01*
X170535600Y-120413219D01*
X170535600Y-120505781D01*
X170553658Y-120596565D01*
X170589080Y-120682081D01*
X170632057Y-120746400D01*
X160017692Y-120746400D01*
X160038517Y-120735269D01*
X160086863Y-120695593D01*
X160096812Y-120683470D01*
X161001278Y-119779005D01*
X161068446Y-119779005D01*
X161159230Y-119760947D01*
X161244746Y-119725525D01*
X161321709Y-119674100D01*
X161387160Y-119608649D01*
X161438585Y-119531686D01*
X161474007Y-119446170D01*
X161492065Y-119355386D01*
X161492065Y-119262824D01*
X161474007Y-119172040D01*
X161464740Y-119149668D01*
X161472581Y-119146420D01*
X161549544Y-119094995D01*
X161614995Y-119029544D01*
X161666420Y-118952581D01*
X161701842Y-118867065D01*
X161719900Y-118776281D01*
X161719900Y-118683719D01*
X161701842Y-118592935D01*
X161666420Y-118507419D01*
X161614995Y-118430456D01*
X161549544Y-118365005D01*
X161472581Y-118313580D01*
X161387065Y-118278158D01*
X161296281Y-118260100D01*
X161203719Y-118260100D01*
X161112935Y-118278158D01*
X161027419Y-118313580D01*
X160950456Y-118365005D01*
X160902070Y-118413391D01*
X160864470Y-118417094D01*
X160804621Y-118435249D01*
X160749464Y-118464731D01*
X160701118Y-118504407D01*
X160691174Y-118516524D01*
X160634454Y-118573244D01*
X160637818Y-118556333D01*
X160637818Y-118463771D01*
X160619760Y-118372987D01*
X160584338Y-118287471D01*
X160545206Y-118228907D01*
X160584672Y-118189441D01*
X160636097Y-118112478D01*
X160671519Y-118026962D01*
X160686087Y-117953721D01*
X166030100Y-117953721D01*
X166030100Y-118046283D01*
X166048158Y-118137067D01*
X166083580Y-118222583D01*
X166135005Y-118299546D01*
X166200456Y-118364997D01*
X166277419Y-118416422D01*
X166362935Y-118451844D01*
X166453719Y-118469902D01*
X166546281Y-118469902D01*
X166637065Y-118451844D01*
X166722581Y-118416422D01*
X166799544Y-118364997D01*
X166864995Y-118299546D01*
X166916420Y-118222583D01*
X166951842Y-118137067D01*
X166969900Y-118046283D01*
X166969900Y-117953721D01*
X166951842Y-117862937D01*
X166916420Y-117777421D01*
X166864995Y-117700458D01*
X166799544Y-117635007D01*
X166722581Y-117583582D01*
X166637065Y-117548160D01*
X166546281Y-117530102D01*
X166453719Y-117530102D01*
X166362935Y-117548160D01*
X166277419Y-117583582D01*
X166200456Y-117635007D01*
X166135005Y-117700458D01*
X166083580Y-117777421D01*
X166048158Y-117862937D01*
X166030100Y-117953721D01*
X160686087Y-117953721D01*
X160689577Y-117936178D01*
X160689577Y-117843616D01*
X160671519Y-117752832D01*
X160636097Y-117667316D01*
X160584672Y-117590353D01*
X160519221Y-117524902D01*
X160442258Y-117473477D01*
X160356742Y-117438055D01*
X160285756Y-117423935D01*
X160288523Y-117410022D01*
X160288523Y-117317460D01*
X160270465Y-117226676D01*
X160235043Y-117141160D01*
X160183618Y-117064197D01*
X160118167Y-116998746D01*
X160041204Y-116947321D01*
X159955688Y-116911899D01*
X159864904Y-116893841D01*
X159772342Y-116893841D01*
X159681558Y-116911899D01*
X159596042Y-116947321D01*
X159519079Y-116998746D01*
X159453628Y-117064197D01*
X159402203Y-117141160D01*
X159366781Y-117226676D01*
X159348723Y-117317460D01*
X159348723Y-117410022D01*
X159366781Y-117500806D01*
X159402203Y-117586322D01*
X159450839Y-117659110D01*
X159444510Y-117664304D01*
X159434566Y-117676421D01*
X158238488Y-118872500D01*
X149576200Y-118872500D01*
X149576200Y-115640378D01*
X149651217Y-115655300D01*
X149748783Y-115655300D01*
X149844474Y-115636266D01*
X149934613Y-115598930D01*
X150015736Y-115544725D01*
X150084725Y-115475736D01*
X150138930Y-115394613D01*
X150176266Y-115304474D01*
X150195300Y-115208783D01*
X150195300Y-115111217D01*
X150176266Y-115015526D01*
X150145455Y-114941140D01*
X168120100Y-114941140D01*
X168120100Y-115033702D01*
X168138158Y-115124486D01*
X168173580Y-115210002D01*
X168225005Y-115286965D01*
X168290456Y-115352416D01*
X168367419Y-115403841D01*
X168452935Y-115439263D01*
X168543719Y-115457321D01*
X168636281Y-115457321D01*
X168727065Y-115439263D01*
X168812581Y-115403841D01*
X168889544Y-115352416D01*
X168954995Y-115286965D01*
X169006420Y-115210002D01*
X169032432Y-115147202D01*
X173193351Y-115147202D01*
X173193351Y-115239764D01*
X173211409Y-115330548D01*
X173246831Y-115416064D01*
X173298256Y-115493027D01*
X173363707Y-115558478D01*
X173440670Y-115609903D01*
X173526186Y-115645325D01*
X173616970Y-115663383D01*
X173709532Y-115663383D01*
X173800316Y-115645325D01*
X173885832Y-115609903D01*
X173962795Y-115558478D01*
X174028246Y-115493027D01*
X174079671Y-115416064D01*
X174115093Y-115330548D01*
X174133151Y-115239764D01*
X174133151Y-115147202D01*
X174115093Y-115056418D01*
X174079671Y-114970902D01*
X174028246Y-114893939D01*
X173962795Y-114828488D01*
X173885832Y-114777063D01*
X173800316Y-114741641D01*
X173709532Y-114723583D01*
X173616970Y-114723583D01*
X173526186Y-114741641D01*
X173440670Y-114777063D01*
X173363707Y-114828488D01*
X173298256Y-114893939D01*
X173246831Y-114970902D01*
X173211409Y-115056418D01*
X173193351Y-115147202D01*
X169032432Y-115147202D01*
X169041842Y-115124486D01*
X169059900Y-115033702D01*
X169059900Y-114941140D01*
X169041842Y-114850356D01*
X169006420Y-114764840D01*
X168954995Y-114687877D01*
X168889544Y-114622426D01*
X168812581Y-114571001D01*
X168727065Y-114535579D01*
X168636281Y-114517521D01*
X168543719Y-114517521D01*
X168452935Y-114535579D01*
X168367419Y-114571001D01*
X168290456Y-114622426D01*
X168225005Y-114687877D01*
X168173580Y-114764840D01*
X168138158Y-114850356D01*
X168120100Y-114941140D01*
X150145455Y-114941140D01*
X150138930Y-114925387D01*
X150084725Y-114844264D01*
X150015736Y-114775275D01*
X149934613Y-114721070D01*
X149844474Y-114683734D01*
X149748783Y-114664700D01*
X149651217Y-114664700D01*
X149576200Y-114679622D01*
X149576200Y-113513719D01*
X160060100Y-113513719D01*
X160060100Y-113606281D01*
X160078158Y-113697065D01*
X160113580Y-113782581D01*
X160165005Y-113859544D01*
X160230456Y-113924995D01*
X160307419Y-113976420D01*
X160392935Y-114011842D01*
X160483719Y-114029900D01*
X160576281Y-114029900D01*
X160667065Y-114011842D01*
X160752581Y-113976420D01*
X160829544Y-113924995D01*
X160894995Y-113859544D01*
X160946420Y-113782581D01*
X160959915Y-113750000D01*
X175307533Y-113750000D01*
X175307533Y-115450000D01*
X175312192Y-115497303D01*
X175325990Y-115542788D01*
X175348396Y-115584707D01*
X175378550Y-115621450D01*
X175415293Y-115651604D01*
X175457212Y-115674010D01*
X175502697Y-115687808D01*
X175550000Y-115692467D01*
X177250000Y-115692467D01*
X177297303Y-115687808D01*
X177342788Y-115674010D01*
X177384707Y-115651604D01*
X177421450Y-115621450D01*
X177451604Y-115584707D01*
X177474010Y-115542788D01*
X177487808Y-115497303D01*
X177492467Y-115450000D01*
X177492467Y-114492516D01*
X177848700Y-114492516D01*
X177848700Y-114707484D01*
X177890638Y-114918320D01*
X177972903Y-115116924D01*
X178092332Y-115295663D01*
X178244337Y-115447668D01*
X178423076Y-115567097D01*
X178621680Y-115649362D01*
X178832516Y-115691300D01*
X179047484Y-115691300D01*
X179258320Y-115649362D01*
X179342000Y-115614700D01*
X180797747Y-115614700D01*
X180797747Y-117457300D01*
X180873938Y-117457300D01*
X180873938Y-119857300D01*
X182126062Y-119857300D01*
X182126062Y-117457300D01*
X182202252Y-117457300D01*
X182202252Y-115614700D01*
X182126062Y-115614700D01*
X182126062Y-114414700D01*
X180873938Y-114414700D01*
X180873938Y-115614700D01*
X180797747Y-115614700D01*
X179342000Y-115614700D01*
X179456924Y-115567097D01*
X179635663Y-115447668D01*
X179787668Y-115295663D01*
X179907097Y-115116924D01*
X179989362Y-114918320D01*
X180031300Y-114707484D01*
X180031300Y-114492516D01*
X179989362Y-114281680D01*
X179907097Y-114083076D01*
X179787668Y-113904337D01*
X179635663Y-113752332D01*
X179456924Y-113632903D01*
X179258320Y-113550638D01*
X179047484Y-113508700D01*
X178832516Y-113508700D01*
X178621680Y-113550638D01*
X178423076Y-113632903D01*
X178244337Y-113752332D01*
X178092332Y-113904337D01*
X177972903Y-114083076D01*
X177890638Y-114281680D01*
X177848700Y-114492516D01*
X177492467Y-114492516D01*
X177492467Y-113750000D01*
X177487808Y-113702697D01*
X177474010Y-113657212D01*
X177451604Y-113615293D01*
X177421450Y-113578550D01*
X177384707Y-113548396D01*
X177342788Y-113525990D01*
X177297303Y-113512192D01*
X177250000Y-113507533D01*
X175550000Y-113507533D01*
X175502697Y-113512192D01*
X175457212Y-113525990D01*
X175415293Y-113548396D01*
X175378550Y-113578550D01*
X175348396Y-113615293D01*
X175325990Y-113657212D01*
X175312192Y-113702697D01*
X175307533Y-113750000D01*
X160959915Y-113750000D01*
X160981842Y-113697065D01*
X160999900Y-113606281D01*
X160999900Y-113513719D01*
X160981842Y-113422935D01*
X160946420Y-113337419D01*
X160894995Y-113260456D01*
X160829544Y-113195005D01*
X160752581Y-113143580D01*
X160667065Y-113108158D01*
X160576281Y-113090100D01*
X160483719Y-113090100D01*
X160392935Y-113108158D01*
X160307419Y-113143580D01*
X160230456Y-113195005D01*
X160165005Y-113260456D01*
X160113580Y-113337419D01*
X160078158Y-113422935D01*
X160060100Y-113513719D01*
X149576200Y-113513719D01*
X149576200Y-113024418D01*
X150012651Y-112413386D01*
X174930100Y-112413386D01*
X174930100Y-112505948D01*
X174948158Y-112596732D01*
X174983580Y-112682248D01*
X175035005Y-112759211D01*
X175100456Y-112824662D01*
X175177419Y-112876087D01*
X175262935Y-112911509D01*
X175353719Y-112929567D01*
X175446281Y-112929567D01*
X175537065Y-112911509D01*
X175622581Y-112876087D01*
X175699544Y-112824662D01*
X175764995Y-112759211D01*
X175816420Y-112682248D01*
X175851842Y-112596732D01*
X175869900Y-112505948D01*
X175869900Y-112413386D01*
X175851842Y-112322602D01*
X175816420Y-112237086D01*
X175764995Y-112160123D01*
X175699544Y-112094672D01*
X175622581Y-112043247D01*
X175537065Y-112007825D01*
X175446281Y-111989767D01*
X175353719Y-111989767D01*
X175262935Y-112007825D01*
X175177419Y-112043247D01*
X175100456Y-112094672D01*
X175035005Y-112160123D01*
X174983580Y-112237086D01*
X174948158Y-112322602D01*
X174930100Y-112413386D01*
X150012651Y-112413386D01*
X150483842Y-111753719D01*
X156830100Y-111753719D01*
X156830100Y-111846281D01*
X156848158Y-111937065D01*
X156883580Y-112022581D01*
X156935005Y-112099544D01*
X157000456Y-112164995D01*
X157077419Y-112216420D01*
X157162935Y-112251842D01*
X157253719Y-112269900D01*
X157346281Y-112269900D01*
X157437065Y-112251842D01*
X157522581Y-112216420D01*
X157599544Y-112164995D01*
X157664995Y-112099544D01*
X157716420Y-112022581D01*
X157751842Y-111937065D01*
X157769900Y-111846281D01*
X157769900Y-111753719D01*
X157751842Y-111662935D01*
X157716420Y-111577419D01*
X157664995Y-111500456D01*
X157599544Y-111435005D01*
X157522581Y-111383580D01*
X157437065Y-111348158D01*
X157346281Y-111330100D01*
X157253719Y-111330100D01*
X157162935Y-111348158D01*
X157077419Y-111383580D01*
X157000456Y-111435005D01*
X156935005Y-111500456D01*
X156883580Y-111577419D01*
X156848158Y-111662935D01*
X156830100Y-111753719D01*
X150483842Y-111753719D01*
X151085422Y-110911506D01*
X168688906Y-110911506D01*
X168688906Y-111004068D01*
X168706964Y-111094852D01*
X168742386Y-111180368D01*
X168793811Y-111257331D01*
X168859262Y-111322782D01*
X168928870Y-111369292D01*
X168896790Y-111446740D01*
X168878732Y-111537524D01*
X168878732Y-111630086D01*
X168896790Y-111720870D01*
X168932212Y-111806386D01*
X168983637Y-111883349D01*
X169049088Y-111948800D01*
X169126051Y-112000225D01*
X169211567Y-112035647D01*
X169302351Y-112053705D01*
X169394913Y-112053705D01*
X169485697Y-112035647D01*
X169571213Y-112000225D01*
X169648176Y-111948800D01*
X169713627Y-111883349D01*
X169765052Y-111806386D01*
X169800474Y-111720870D01*
X169801689Y-111714761D01*
X169827567Y-111719908D01*
X169920129Y-111719908D01*
X170010913Y-111701850D01*
X170096429Y-111666428D01*
X170173392Y-111615003D01*
X170238843Y-111549552D01*
X170290268Y-111472589D01*
X170325690Y-111387073D01*
X170343748Y-111296289D01*
X170343748Y-111203727D01*
X170325690Y-111112943D01*
X170290268Y-111027427D01*
X170238843Y-110950464D01*
X170173392Y-110885013D01*
X170096429Y-110833588D01*
X170010913Y-110798166D01*
X169920129Y-110780108D01*
X169827567Y-110780108D01*
X169736783Y-110798166D01*
X169651267Y-110833588D01*
X169617672Y-110856035D01*
X169610648Y-110820722D01*
X169575226Y-110735206D01*
X169523801Y-110658243D01*
X169458350Y-110592792D01*
X169381387Y-110541367D01*
X169295871Y-110505945D01*
X169205087Y-110487887D01*
X169112525Y-110487887D01*
X169021741Y-110505945D01*
X168936225Y-110541367D01*
X168859262Y-110592792D01*
X168793811Y-110658243D01*
X168742386Y-110735206D01*
X168706964Y-110820722D01*
X168688906Y-110911506D01*
X151085422Y-110911506D01*
X151662818Y-110103153D01*
X160616111Y-110103153D01*
X160616111Y-110195715D01*
X160634169Y-110286499D01*
X160669591Y-110372015D01*
X160721016Y-110448978D01*
X160786467Y-110514429D01*
X160863430Y-110565854D01*
X160948946Y-110601276D01*
X161039730Y-110619334D01*
X161132292Y-110619334D01*
X161223076Y-110601276D01*
X161308592Y-110565854D01*
X161385555Y-110514429D01*
X161451006Y-110448978D01*
X161502431Y-110372015D01*
X161537853Y-110286499D01*
X161555911Y-110195715D01*
X161555911Y-110103153D01*
X161537853Y-110012369D01*
X161502431Y-109926853D01*
X161451006Y-109849890D01*
X161385555Y-109784439D01*
X161308592Y-109733014D01*
X161223076Y-109697592D01*
X161132292Y-109679534D01*
X161039730Y-109679534D01*
X160948946Y-109697592D01*
X160863430Y-109733014D01*
X160786467Y-109784439D01*
X160721016Y-109849890D01*
X160669591Y-109926853D01*
X160634169Y-110012369D01*
X160616111Y-110103153D01*
X151662818Y-110103153D01*
X152062006Y-109544290D01*
X152069456Y-109531342D01*
X152074236Y-109517190D01*
X152076200Y-109500000D01*
X152076200Y-108923809D01*
X158910100Y-108923809D01*
X158910100Y-109016371D01*
X158928158Y-109107155D01*
X158963580Y-109192671D01*
X159015005Y-109269634D01*
X159080456Y-109335085D01*
X159157419Y-109386510D01*
X159242935Y-109421932D01*
X159333719Y-109439990D01*
X159426281Y-109439990D01*
X159517065Y-109421932D01*
X159602581Y-109386510D01*
X159679544Y-109335085D01*
X159744995Y-109269634D01*
X159796420Y-109192671D01*
X159831842Y-109107155D01*
X159849900Y-109016371D01*
X159849900Y-108923809D01*
X159831842Y-108833025D01*
X159796420Y-108747509D01*
X159744995Y-108670546D01*
X159679544Y-108605095D01*
X159602581Y-108553670D01*
X159517065Y-108518248D01*
X159426281Y-108500190D01*
X159333719Y-108500190D01*
X159242935Y-108518248D01*
X159157419Y-108553670D01*
X159080456Y-108605095D01*
X159015005Y-108670546D01*
X158963580Y-108747509D01*
X158928158Y-108833025D01*
X158910100Y-108923809D01*
X152076200Y-108923809D01*
X152076200Y-108383046D01*
X163604961Y-108383046D01*
X163604961Y-108475608D01*
X163623019Y-108566392D01*
X163658441Y-108651908D01*
X163709866Y-108728871D01*
X163745571Y-108764576D01*
X163703580Y-108827419D01*
X163668158Y-108912935D01*
X163650100Y-109003719D01*
X163650100Y-109096281D01*
X163668158Y-109187065D01*
X163703580Y-109272581D01*
X163755005Y-109349544D01*
X163820456Y-109414995D01*
X163897419Y-109466420D01*
X163982935Y-109501842D01*
X164073719Y-109519900D01*
X164166281Y-109519900D01*
X164257065Y-109501842D01*
X164342581Y-109466420D01*
X164419544Y-109414995D01*
X164484995Y-109349544D01*
X164504474Y-109320391D01*
X171307808Y-109320391D01*
X171307808Y-109412953D01*
X171325866Y-109503737D01*
X171361288Y-109589253D01*
X171412713Y-109666216D01*
X171478164Y-109731667D01*
X171555127Y-109783092D01*
X171640643Y-109818514D01*
X171731427Y-109836572D01*
X171823989Y-109836572D01*
X171914773Y-109818514D01*
X172000289Y-109783092D01*
X172077252Y-109731667D01*
X172142703Y-109666216D01*
X172170980Y-109623897D01*
X172177419Y-109628199D01*
X172262935Y-109663621D01*
X172353719Y-109681679D01*
X172446281Y-109681679D01*
X172537065Y-109663621D01*
X172622581Y-109628199D01*
X172699544Y-109576774D01*
X172764995Y-109511323D01*
X172816420Y-109434360D01*
X172851842Y-109348844D01*
X172869900Y-109258060D01*
X172869900Y-109165498D01*
X172851842Y-109074714D01*
X172816420Y-108989198D01*
X172764995Y-108912235D01*
X172699544Y-108846784D01*
X172622581Y-108795359D01*
X172616257Y-108792739D01*
X172626128Y-108768908D01*
X172644186Y-108678124D01*
X172644186Y-108585562D01*
X172626128Y-108494778D01*
X172590706Y-108409262D01*
X172539281Y-108332299D01*
X172473830Y-108266848D01*
X172396867Y-108215423D01*
X172311351Y-108180001D01*
X172220567Y-108161943D01*
X172128005Y-108161943D01*
X172037221Y-108180001D01*
X171951705Y-108215423D01*
X171874742Y-108266848D01*
X171809291Y-108332299D01*
X171757866Y-108409262D01*
X171722444Y-108494778D01*
X171704386Y-108585562D01*
X171704386Y-108678124D01*
X171722444Y-108768908D01*
X171757866Y-108854424D01*
X171786162Y-108896772D01*
X171731427Y-108896772D01*
X171640643Y-108914830D01*
X171555127Y-108950252D01*
X171478164Y-109001677D01*
X171412713Y-109067128D01*
X171361288Y-109144091D01*
X171325866Y-109229607D01*
X171307808Y-109320391D01*
X164504474Y-109320391D01*
X164536420Y-109272581D01*
X164571842Y-109187065D01*
X164589900Y-109096281D01*
X164589900Y-109003719D01*
X164571842Y-108912935D01*
X164536420Y-108827419D01*
X164484995Y-108750456D01*
X164449290Y-108714751D01*
X164491281Y-108651908D01*
X164526703Y-108566392D01*
X164544761Y-108475608D01*
X164544761Y-108383046D01*
X164538665Y-108352399D01*
X166324790Y-108352399D01*
X166324790Y-108444961D01*
X166342848Y-108535745D01*
X166378270Y-108621261D01*
X166429695Y-108698224D01*
X166495146Y-108763675D01*
X166572109Y-108815100D01*
X166657625Y-108850522D01*
X166748409Y-108868580D01*
X166840971Y-108868580D01*
X166931755Y-108850522D01*
X167012626Y-108817024D01*
X167033608Y-108848426D01*
X167099059Y-108913877D01*
X167176022Y-108965302D01*
X167261538Y-109000724D01*
X167352322Y-109018782D01*
X167444884Y-109018782D01*
X167535668Y-109000724D01*
X167621184Y-108965302D01*
X167698147Y-108913877D01*
X167763598Y-108848426D01*
X167800800Y-108792750D01*
X167855634Y-108815463D01*
X167946418Y-108833521D01*
X168038980Y-108833521D01*
X168129764Y-108815463D01*
X168215280Y-108780041D01*
X168292243Y-108728616D01*
X168357694Y-108663165D01*
X168365351Y-108651704D01*
X170617352Y-108651704D01*
X170617352Y-108744266D01*
X170635410Y-108835050D01*
X170670832Y-108920566D01*
X170722257Y-108997529D01*
X170787708Y-109062980D01*
X170864671Y-109114405D01*
X170950187Y-109149827D01*
X171040971Y-109167885D01*
X171133533Y-109167885D01*
X171224317Y-109149827D01*
X171309833Y-109114405D01*
X171386796Y-109062980D01*
X171452247Y-108997529D01*
X171503672Y-108920566D01*
X171539094Y-108835050D01*
X171557152Y-108744266D01*
X171557152Y-108651704D01*
X171539094Y-108560920D01*
X171503672Y-108475404D01*
X171452247Y-108398441D01*
X171386796Y-108332990D01*
X171309833Y-108281565D01*
X171224317Y-108246143D01*
X171133533Y-108228085D01*
X171040971Y-108228085D01*
X170950187Y-108246143D01*
X170864671Y-108281565D01*
X170787708Y-108332990D01*
X170722257Y-108398441D01*
X170670832Y-108475404D01*
X170635410Y-108560920D01*
X170617352Y-108651704D01*
X168365351Y-108651704D01*
X168409119Y-108586202D01*
X168444541Y-108500686D01*
X168462599Y-108409902D01*
X168462599Y-108317340D01*
X168444541Y-108226556D01*
X168409119Y-108141040D01*
X168357694Y-108064077D01*
X168292243Y-107998626D01*
X168215280Y-107947201D01*
X168129764Y-107911779D01*
X168038980Y-107893721D01*
X167946418Y-107893721D01*
X167855634Y-107911779D01*
X167770118Y-107947201D01*
X167693155Y-107998626D01*
X167627704Y-108064077D01*
X167590502Y-108119753D01*
X167535668Y-108097040D01*
X167444884Y-108078982D01*
X167352322Y-108078982D01*
X167261538Y-108097040D01*
X167180667Y-108130538D01*
X167159685Y-108099136D01*
X167094234Y-108033685D01*
X167017271Y-107982260D01*
X166931755Y-107946838D01*
X166840971Y-107928780D01*
X166748409Y-107928780D01*
X166657625Y-107946838D01*
X166572109Y-107982260D01*
X166495146Y-108033685D01*
X166429695Y-108099136D01*
X166378270Y-108176099D01*
X166342848Y-108261615D01*
X166324790Y-108352399D01*
X164538665Y-108352399D01*
X164526703Y-108292262D01*
X164491281Y-108206746D01*
X164439856Y-108129783D01*
X164374405Y-108064332D01*
X164297442Y-108012907D01*
X164211926Y-107977485D01*
X164121142Y-107959427D01*
X164028580Y-107959427D01*
X163937796Y-107977485D01*
X163852280Y-108012907D01*
X163775317Y-108064332D01*
X163709866Y-108129783D01*
X163658441Y-108206746D01*
X163623019Y-108292262D01*
X163604961Y-108383046D01*
X152076200Y-108383046D01*
X152076200Y-103953719D01*
X155530100Y-103953719D01*
X155530100Y-104046281D01*
X155548158Y-104137065D01*
X155583580Y-104222581D01*
X155635005Y-104299544D01*
X155635461Y-104300000D01*
X155635005Y-104300456D01*
X155583580Y-104377419D01*
X155548158Y-104462935D01*
X155530100Y-104553719D01*
X155530100Y-104646281D01*
X155548158Y-104737065D01*
X155583580Y-104822581D01*
X155635005Y-104899544D01*
X155635461Y-104900000D01*
X155635005Y-104900456D01*
X155583580Y-104977419D01*
X155548158Y-105062935D01*
X155530100Y-105153719D01*
X155530100Y-105246281D01*
X155548158Y-105337065D01*
X155583580Y-105422581D01*
X155635005Y-105499544D01*
X155635461Y-105500000D01*
X155635005Y-105500456D01*
X155583580Y-105577419D01*
X155548158Y-105662935D01*
X155530100Y-105753719D01*
X155530100Y-105846281D01*
X155548158Y-105937065D01*
X155583580Y-106022581D01*
X155635005Y-106099544D01*
X155635461Y-106100000D01*
X155635005Y-106100456D01*
X155583580Y-106177419D01*
X155548158Y-106262935D01*
X155530100Y-106353719D01*
X155530100Y-106446281D01*
X155548158Y-106537065D01*
X155583580Y-106622581D01*
X155635005Y-106699544D01*
X155635461Y-106700000D01*
X155635005Y-106700456D01*
X155583580Y-106777419D01*
X155548158Y-106862935D01*
X155530100Y-106953719D01*
X155530100Y-107046281D01*
X155548158Y-107137065D01*
X155583580Y-107222581D01*
X155635005Y-107299544D01*
X155700456Y-107364995D01*
X155777419Y-107416420D01*
X155862935Y-107451842D01*
X155953719Y-107469900D01*
X156046281Y-107469900D01*
X156137065Y-107451842D01*
X156222581Y-107416420D01*
X156299544Y-107364995D01*
X156364995Y-107299544D01*
X156400000Y-107247155D01*
X156435005Y-107299544D01*
X156500456Y-107364995D01*
X156577419Y-107416420D01*
X156662935Y-107451842D01*
X156753719Y-107469900D01*
X156846281Y-107469900D01*
X156937065Y-107451842D01*
X157022581Y-107416420D01*
X157099544Y-107364995D01*
X157164995Y-107299544D01*
X157216420Y-107222581D01*
X157238241Y-107169900D01*
X157246281Y-107169900D01*
X157337065Y-107151842D01*
X157399613Y-107125934D01*
X157408580Y-107147581D01*
X157460005Y-107224544D01*
X157525456Y-107289995D01*
X157602419Y-107341420D01*
X157687935Y-107376842D01*
X157778719Y-107394900D01*
X157871281Y-107394900D01*
X157962065Y-107376842D01*
X158047581Y-107341420D01*
X158124544Y-107289995D01*
X158189995Y-107224544D01*
X158197102Y-107213907D01*
X161058500Y-107213907D01*
X161058500Y-107306469D01*
X161076558Y-107397253D01*
X161111980Y-107482769D01*
X161163405Y-107559732D01*
X161228856Y-107625183D01*
X161305819Y-107676608D01*
X161391335Y-107712030D01*
X161482119Y-107730088D01*
X161574681Y-107730088D01*
X161665465Y-107712030D01*
X161750981Y-107676608D01*
X161827944Y-107625183D01*
X161893395Y-107559732D01*
X161944820Y-107482769D01*
X161980242Y-107397253D01*
X161998300Y-107306469D01*
X161998300Y-107253719D01*
X165030100Y-107253719D01*
X165030100Y-107346281D01*
X165048158Y-107437065D01*
X165083580Y-107522581D01*
X165135005Y-107599544D01*
X165200456Y-107664995D01*
X165277419Y-107716420D01*
X165362935Y-107751842D01*
X165453719Y-107769900D01*
X165546281Y-107769900D01*
X165637065Y-107751842D01*
X165722581Y-107716420D01*
X165799544Y-107664995D01*
X165825000Y-107639539D01*
X165850456Y-107664995D01*
X165927419Y-107716420D01*
X166012935Y-107751842D01*
X166103719Y-107769900D01*
X166196281Y-107769900D01*
X166287065Y-107751842D01*
X166372581Y-107716420D01*
X166449544Y-107664995D01*
X166460820Y-107653719D01*
X168930100Y-107653719D01*
X168930100Y-107746281D01*
X168948158Y-107837065D01*
X168983580Y-107922581D01*
X169035005Y-107999544D01*
X169100456Y-108064995D01*
X169177419Y-108116420D01*
X169262935Y-108151842D01*
X169353719Y-108169900D01*
X169446281Y-108169900D01*
X169537065Y-108151842D01*
X169580100Y-108134016D01*
X169580100Y-108146281D01*
X169598158Y-108237065D01*
X169633580Y-108322581D01*
X169685005Y-108399544D01*
X169750456Y-108464995D01*
X169827419Y-108516420D01*
X169912935Y-108551842D01*
X170003719Y-108569900D01*
X170096281Y-108569900D01*
X170187065Y-108551842D01*
X170272581Y-108516420D01*
X170349544Y-108464995D01*
X170414995Y-108399544D01*
X170466420Y-108322581D01*
X170501842Y-108237065D01*
X170519900Y-108146281D01*
X170519900Y-108053719D01*
X170501842Y-107962935D01*
X170466420Y-107877419D01*
X170414995Y-107800456D01*
X170349544Y-107735005D01*
X170272581Y-107683580D01*
X170187065Y-107648158D01*
X170096281Y-107630100D01*
X170003719Y-107630100D01*
X169912935Y-107648158D01*
X169869900Y-107665984D01*
X169869900Y-107653719D01*
X169851842Y-107562935D01*
X169816420Y-107477419D01*
X169764995Y-107400456D01*
X169699544Y-107335005D01*
X169622581Y-107283580D01*
X169537065Y-107248158D01*
X169446281Y-107230100D01*
X169353719Y-107230100D01*
X169262935Y-107248158D01*
X169177419Y-107283580D01*
X169100456Y-107335005D01*
X169035005Y-107400456D01*
X168983580Y-107477419D01*
X168948158Y-107562935D01*
X168930100Y-107653719D01*
X166460820Y-107653719D01*
X166514995Y-107599544D01*
X166566420Y-107522581D01*
X166601842Y-107437065D01*
X166619900Y-107346281D01*
X166619900Y-107253719D01*
X166601842Y-107162935D01*
X166566420Y-107077419D01*
X166514995Y-107000456D01*
X166485648Y-106971109D01*
X170630096Y-106971109D01*
X170630096Y-107063671D01*
X170648154Y-107154455D01*
X170683576Y-107239971D01*
X170735001Y-107316934D01*
X170800452Y-107382385D01*
X170877415Y-107433810D01*
X170962931Y-107469232D01*
X171053715Y-107487290D01*
X171146277Y-107487290D01*
X171237061Y-107469232D01*
X171322577Y-107433810D01*
X171399540Y-107382385D01*
X171464991Y-107316934D01*
X171516416Y-107239971D01*
X171551838Y-107154455D01*
X171569896Y-107063671D01*
X171569896Y-106971109D01*
X171551838Y-106880325D01*
X171516416Y-106794809D01*
X171464991Y-106717846D01*
X171399540Y-106652395D01*
X171322577Y-106600970D01*
X171237061Y-106565548D01*
X171146277Y-106547490D01*
X171053715Y-106547490D01*
X170962931Y-106565548D01*
X170877415Y-106600970D01*
X170800452Y-106652395D01*
X170735001Y-106717846D01*
X170683576Y-106794809D01*
X170648154Y-106880325D01*
X170630096Y-106971109D01*
X166485648Y-106971109D01*
X166449544Y-106935005D01*
X166372581Y-106883580D01*
X166287065Y-106848158D01*
X166196281Y-106830100D01*
X166103719Y-106830100D01*
X166012935Y-106848158D01*
X165927419Y-106883580D01*
X165850456Y-106935005D01*
X165825000Y-106960461D01*
X165799544Y-106935005D01*
X165722581Y-106883580D01*
X165637065Y-106848158D01*
X165546281Y-106830100D01*
X165453719Y-106830100D01*
X165362935Y-106848158D01*
X165277419Y-106883580D01*
X165200456Y-106935005D01*
X165135005Y-107000456D01*
X165083580Y-107077419D01*
X165048158Y-107162935D01*
X165030100Y-107253719D01*
X161998300Y-107253719D01*
X161998300Y-107213907D01*
X161980242Y-107123123D01*
X161944820Y-107037607D01*
X161893395Y-106960644D01*
X161827944Y-106895193D01*
X161750981Y-106843768D01*
X161665465Y-106808346D01*
X161574681Y-106790288D01*
X161482119Y-106790288D01*
X161391335Y-106808346D01*
X161305819Y-106843768D01*
X161228856Y-106895193D01*
X161163405Y-106960644D01*
X161111980Y-107037607D01*
X161076558Y-107123123D01*
X161058500Y-107213907D01*
X158197102Y-107213907D01*
X158241420Y-107147581D01*
X158276842Y-107062065D01*
X158294900Y-106971281D01*
X158294900Y-106878719D01*
X158276842Y-106787935D01*
X158241420Y-106702419D01*
X158189995Y-106625456D01*
X158124544Y-106560005D01*
X158047581Y-106508580D01*
X157962065Y-106473158D01*
X157871281Y-106455100D01*
X157778719Y-106455100D01*
X157687935Y-106473158D01*
X157625387Y-106499066D01*
X157616420Y-106477419D01*
X157564995Y-106400456D01*
X157499544Y-106335005D01*
X157428456Y-106287505D01*
X158550100Y-106287505D01*
X158550100Y-106380067D01*
X158568158Y-106470851D01*
X158603580Y-106556367D01*
X158655005Y-106633330D01*
X158720456Y-106698781D01*
X158797419Y-106750206D01*
X158882935Y-106785628D01*
X158973719Y-106803686D01*
X159066281Y-106803686D01*
X159157065Y-106785628D01*
X159242581Y-106750206D01*
X159319544Y-106698781D01*
X159384995Y-106633330D01*
X159436420Y-106556367D01*
X159471842Y-106470851D01*
X159489900Y-106380067D01*
X159489900Y-106287505D01*
X159471842Y-106196721D01*
X159436420Y-106111205D01*
X159384995Y-106034242D01*
X159319544Y-105968791D01*
X159242581Y-105917366D01*
X159210772Y-105904190D01*
X174880571Y-105904190D01*
X174880571Y-105996752D01*
X174898629Y-106087536D01*
X174934051Y-106173052D01*
X174985476Y-106250015D01*
X175050927Y-106315466D01*
X175127890Y-106366891D01*
X175213406Y-106402313D01*
X175304190Y-106420371D01*
X175396752Y-106420371D01*
X175487536Y-106402313D01*
X175573052Y-106366891D01*
X175650015Y-106315466D01*
X175715466Y-106250015D01*
X175766891Y-106173052D01*
X175802313Y-106087536D01*
X175820371Y-105996752D01*
X175820371Y-105904190D01*
X175802313Y-105813406D01*
X175766891Y-105727890D01*
X175715466Y-105650927D01*
X175650015Y-105585476D01*
X175573052Y-105534051D01*
X175487536Y-105498629D01*
X175396752Y-105480571D01*
X175304190Y-105480571D01*
X175213406Y-105498629D01*
X175127890Y-105534051D01*
X175050927Y-105585476D01*
X174985476Y-105650927D01*
X174934051Y-105727890D01*
X174898629Y-105813406D01*
X174880571Y-105904190D01*
X159210772Y-105904190D01*
X159157065Y-105881944D01*
X159066281Y-105863886D01*
X158973719Y-105863886D01*
X158882935Y-105881944D01*
X158797419Y-105917366D01*
X158720456Y-105968791D01*
X158655005Y-106034242D01*
X158603580Y-106111205D01*
X158568158Y-106196721D01*
X158550100Y-106287505D01*
X157428456Y-106287505D01*
X157422581Y-106283580D01*
X157337065Y-106248158D01*
X157246281Y-106230100D01*
X157238241Y-106230100D01*
X157216420Y-106177419D01*
X157164995Y-106100456D01*
X157099544Y-106035005D01*
X157022581Y-105983580D01*
X156937065Y-105948158D01*
X156846281Y-105930100D01*
X156838241Y-105930100D01*
X156816420Y-105877419D01*
X156764995Y-105800456D01*
X156764539Y-105800000D01*
X156764995Y-105799544D01*
X156816420Y-105722581D01*
X156851842Y-105637065D01*
X156869900Y-105546281D01*
X156869900Y-105453719D01*
X156851842Y-105362935D01*
X156816420Y-105277419D01*
X156813918Y-105273674D01*
X172862135Y-105273674D01*
X172862135Y-105366236D01*
X172880193Y-105457020D01*
X172915615Y-105542536D01*
X172967040Y-105619499D01*
X173032491Y-105684950D01*
X173109454Y-105736375D01*
X173194970Y-105771797D01*
X173285754Y-105789855D01*
X173378316Y-105789855D01*
X173469100Y-105771797D01*
X173554616Y-105736375D01*
X173631579Y-105684950D01*
X173697030Y-105619499D01*
X173748455Y-105542536D01*
X173783877Y-105457020D01*
X173801935Y-105366236D01*
X173801935Y-105273674D01*
X173783877Y-105182890D01*
X173748455Y-105097374D01*
X173697030Y-105020411D01*
X173631579Y-104954960D01*
X173569607Y-104913551D01*
X175149164Y-104913551D01*
X175149164Y-105006113D01*
X175167222Y-105096897D01*
X175202644Y-105182413D01*
X175254069Y-105259376D01*
X175319520Y-105324827D01*
X175396483Y-105376252D01*
X175481999Y-105411674D01*
X175572783Y-105429732D01*
X175665345Y-105429732D01*
X175756129Y-105411674D01*
X175841645Y-105376252D01*
X175918608Y-105324827D01*
X175984059Y-105259376D01*
X176035484Y-105182413D01*
X176070906Y-105096897D01*
X176088964Y-105006113D01*
X176088964Y-104913551D01*
X176070906Y-104822767D01*
X176035484Y-104737251D01*
X175984059Y-104660288D01*
X175918608Y-104594837D01*
X175841645Y-104543412D01*
X175756129Y-104507990D01*
X175665345Y-104489932D01*
X175572783Y-104489932D01*
X175481999Y-104507990D01*
X175396483Y-104543412D01*
X175319520Y-104594837D01*
X175254069Y-104660288D01*
X175202644Y-104737251D01*
X175167222Y-104822767D01*
X175149164Y-104913551D01*
X173569607Y-104913551D01*
X173554616Y-104903535D01*
X173469100Y-104868113D01*
X173378316Y-104850055D01*
X173285754Y-104850055D01*
X173194970Y-104868113D01*
X173109454Y-104903535D01*
X173032491Y-104954960D01*
X172967040Y-105020411D01*
X172915615Y-105097374D01*
X172880193Y-105182890D01*
X172862135Y-105273674D01*
X156813918Y-105273674D01*
X156764995Y-105200456D01*
X156764539Y-105200000D01*
X156764995Y-105199544D01*
X156816420Y-105122581D01*
X156851842Y-105037065D01*
X156869900Y-104946281D01*
X156869900Y-104853719D01*
X156851842Y-104762935D01*
X156816420Y-104677419D01*
X156764995Y-104600456D01*
X156764539Y-104600000D01*
X156764995Y-104599544D01*
X156816420Y-104522581D01*
X156851842Y-104437065D01*
X156869900Y-104346281D01*
X156869900Y-104253719D01*
X156855977Y-104183719D01*
X161340010Y-104183719D01*
X161340010Y-104276281D01*
X161358068Y-104367065D01*
X161393490Y-104452581D01*
X161444915Y-104529544D01*
X161510366Y-104594995D01*
X161587329Y-104646420D01*
X161672845Y-104681842D01*
X161763629Y-104699900D01*
X161856191Y-104699900D01*
X161946975Y-104681842D01*
X162032491Y-104646420D01*
X162109454Y-104594995D01*
X162174905Y-104529544D01*
X162226330Y-104452581D01*
X162261752Y-104367065D01*
X162279810Y-104276281D01*
X162279810Y-104183719D01*
X162261752Y-104092935D01*
X162226330Y-104007419D01*
X162174905Y-103930456D01*
X162109454Y-103865005D01*
X162032491Y-103813580D01*
X161946975Y-103778158D01*
X161856191Y-103760100D01*
X161763629Y-103760100D01*
X161672845Y-103778158D01*
X161587329Y-103813580D01*
X161510366Y-103865005D01*
X161444915Y-103930456D01*
X161393490Y-104007419D01*
X161358068Y-104092935D01*
X161340010Y-104183719D01*
X156855977Y-104183719D01*
X156851842Y-104162935D01*
X156816420Y-104077419D01*
X156764995Y-104000456D01*
X156764539Y-104000000D01*
X156764995Y-103999544D01*
X156816420Y-103922581D01*
X156851842Y-103837065D01*
X156869900Y-103746281D01*
X156869900Y-103733719D01*
X164071022Y-103733719D01*
X164071022Y-103826281D01*
X164089080Y-103917065D01*
X164124502Y-104002581D01*
X164175927Y-104079544D01*
X164241378Y-104144995D01*
X164318341Y-104196420D01*
X164403857Y-104231842D01*
X164494641Y-104249900D01*
X164587203Y-104249900D01*
X164677987Y-104231842D01*
X164763503Y-104196420D01*
X164840466Y-104144995D01*
X164905917Y-104079544D01*
X164957342Y-104002581D01*
X164992764Y-103917065D01*
X165010822Y-103826281D01*
X165010822Y-103733719D01*
X164992764Y-103642935D01*
X164957342Y-103557419D01*
X164905917Y-103480456D01*
X164883796Y-103458335D01*
X171372853Y-103458335D01*
X171372853Y-103550897D01*
X171390911Y-103641681D01*
X171426333Y-103727197D01*
X171477758Y-103804160D01*
X171543209Y-103869611D01*
X171620172Y-103921036D01*
X171705688Y-103956458D01*
X171796472Y-103974516D01*
X171889034Y-103974516D01*
X171979818Y-103956458D01*
X172065334Y-103921036D01*
X172140372Y-103870897D01*
X172181442Y-103911967D01*
X172258405Y-103963392D01*
X172343921Y-103998814D01*
X172434705Y-104016872D01*
X172527267Y-104016872D01*
X172618051Y-103998814D01*
X172703567Y-103963392D01*
X172780530Y-103911967D01*
X172845981Y-103846516D01*
X172897406Y-103769553D01*
X172932828Y-103684037D01*
X172950886Y-103593253D01*
X172950886Y-103500691D01*
X172932828Y-103409907D01*
X172897406Y-103324391D01*
X172869251Y-103282254D01*
X172880459Y-103277611D01*
X172957422Y-103226186D01*
X173022873Y-103160735D01*
X173074298Y-103083772D01*
X173109720Y-102998256D01*
X173127778Y-102907472D01*
X173127778Y-102814910D01*
X173109720Y-102724126D01*
X173074298Y-102638610D01*
X173022873Y-102561647D01*
X172957422Y-102496196D01*
X172880459Y-102444771D01*
X172794943Y-102409349D01*
X172704159Y-102391291D01*
X172611597Y-102391291D01*
X172580654Y-102397446D01*
X172603688Y-102341837D01*
X172621746Y-102251053D01*
X172621746Y-102179129D01*
X173022759Y-102179129D01*
X173022759Y-102271691D01*
X173040817Y-102362475D01*
X173076239Y-102447991D01*
X173127664Y-102524954D01*
X173193115Y-102590405D01*
X173270078Y-102641830D01*
X173355594Y-102677252D01*
X173446378Y-102695310D01*
X173538940Y-102695310D01*
X173629724Y-102677252D01*
X173715240Y-102641830D01*
X173792203Y-102590405D01*
X173857654Y-102524954D01*
X173909079Y-102447991D01*
X173944501Y-102362475D01*
X173962559Y-102271691D01*
X173962559Y-102179129D01*
X173944501Y-102088345D01*
X173909079Y-102002829D01*
X173857654Y-101925866D01*
X173792203Y-101860415D01*
X173715240Y-101808990D01*
X173629724Y-101773568D01*
X173538940Y-101755510D01*
X173446378Y-101755510D01*
X173355594Y-101773568D01*
X173270078Y-101808990D01*
X173193115Y-101860415D01*
X173127664Y-101925866D01*
X173076239Y-102002829D01*
X173040817Y-102088345D01*
X173022759Y-102179129D01*
X172621746Y-102179129D01*
X172621746Y-102158491D01*
X172603688Y-102067707D01*
X172568266Y-101982191D01*
X172516841Y-101905228D01*
X172451390Y-101839777D01*
X172374427Y-101788352D01*
X172288911Y-101752930D01*
X172198127Y-101734872D01*
X172105565Y-101734872D01*
X172014781Y-101752930D01*
X171929265Y-101788352D01*
X171852302Y-101839777D01*
X171786851Y-101905228D01*
X171735426Y-101982191D01*
X171700004Y-102067707D01*
X171681946Y-102158491D01*
X171681946Y-102251053D01*
X171700004Y-102341837D01*
X171735426Y-102427353D01*
X171786851Y-102504316D01*
X171834198Y-102551663D01*
X171783580Y-102627419D01*
X171748158Y-102712935D01*
X171730100Y-102803719D01*
X171730100Y-102896281D01*
X171748158Y-102987065D01*
X171770071Y-103039967D01*
X171705688Y-103052774D01*
X171620172Y-103088196D01*
X171543209Y-103139621D01*
X171477758Y-103205072D01*
X171426333Y-103282035D01*
X171390911Y-103367551D01*
X171372853Y-103458335D01*
X164883796Y-103458335D01*
X164840466Y-103415005D01*
X164763503Y-103363580D01*
X164677987Y-103328158D01*
X164587203Y-103310100D01*
X164494641Y-103310100D01*
X164403857Y-103328158D01*
X164318341Y-103363580D01*
X164241378Y-103415005D01*
X164175927Y-103480456D01*
X164124502Y-103557419D01*
X164089080Y-103642935D01*
X164071022Y-103733719D01*
X156869900Y-103733719D01*
X156869900Y-103653719D01*
X156851842Y-103562935D01*
X156816420Y-103477419D01*
X156764995Y-103400456D01*
X156699544Y-103335005D01*
X156622581Y-103283580D01*
X156537065Y-103248158D01*
X156446281Y-103230100D01*
X156353719Y-103230100D01*
X156262935Y-103248158D01*
X156177419Y-103283580D01*
X156100456Y-103335005D01*
X156035005Y-103400456D01*
X155983580Y-103477419D01*
X155961759Y-103530100D01*
X155953719Y-103530100D01*
X155862935Y-103548158D01*
X155777419Y-103583580D01*
X155700456Y-103635005D01*
X155635005Y-103700456D01*
X155583580Y-103777419D01*
X155548158Y-103862935D01*
X155530100Y-103953719D01*
X152076200Y-103953719D01*
X152076200Y-103103711D01*
X162630100Y-103103711D01*
X162630100Y-103196273D01*
X162648158Y-103287057D01*
X162683580Y-103372573D01*
X162735005Y-103449536D01*
X162800456Y-103514987D01*
X162877419Y-103566412D01*
X162962935Y-103601834D01*
X163053719Y-103619892D01*
X163146281Y-103619892D01*
X163237065Y-103601834D01*
X163322581Y-103566412D01*
X163399544Y-103514987D01*
X163464995Y-103449536D01*
X163516420Y-103372573D01*
X163551842Y-103287057D01*
X163569900Y-103196273D01*
X163569900Y-103103711D01*
X163551842Y-103012927D01*
X163516420Y-102927411D01*
X163464995Y-102850448D01*
X163399544Y-102784997D01*
X163322581Y-102733572D01*
X163237065Y-102698150D01*
X163146281Y-102680092D01*
X163053719Y-102680092D01*
X162962935Y-102698150D01*
X162877419Y-102733572D01*
X162800456Y-102784997D01*
X162735005Y-102850448D01*
X162683580Y-102927411D01*
X162648158Y-103012927D01*
X162630100Y-103103711D01*
X152076200Y-103103711D01*
X152076200Y-102621919D01*
X168930650Y-102621919D01*
X168930650Y-102714481D01*
X168948708Y-102805265D01*
X168984130Y-102890781D01*
X169035555Y-102967744D01*
X169101006Y-103033195D01*
X169177969Y-103084620D01*
X169263485Y-103120042D01*
X169354269Y-103138100D01*
X169446831Y-103138100D01*
X169537615Y-103120042D01*
X169623131Y-103084620D01*
X169700094Y-103033195D01*
X169765545Y-102967744D01*
X169816970Y-102890781D01*
X169852392Y-102805265D01*
X169870450Y-102714481D01*
X169870450Y-102621919D01*
X169852392Y-102531135D01*
X169816970Y-102445619D01*
X169765545Y-102368656D01*
X169700094Y-102303205D01*
X169623131Y-102251780D01*
X169537615Y-102216358D01*
X169446831Y-102198300D01*
X169354269Y-102198300D01*
X169263485Y-102216358D01*
X169177969Y-102251780D01*
X169101006Y-102303205D01*
X169035555Y-102368656D01*
X168984130Y-102445619D01*
X168948708Y-102531135D01*
X168930650Y-102621919D01*
X152076200Y-102621919D01*
X152076200Y-101709981D01*
X165930100Y-101709981D01*
X165930100Y-101802543D01*
X165948158Y-101893327D01*
X165983580Y-101978843D01*
X166035005Y-102055806D01*
X166100456Y-102121257D01*
X166177419Y-102172682D01*
X166262935Y-102208104D01*
X166353719Y-102226162D01*
X166446281Y-102226162D01*
X166537065Y-102208104D01*
X166622581Y-102172682D01*
X166699544Y-102121257D01*
X166736149Y-102084653D01*
X166772767Y-102121271D01*
X166849730Y-102172696D01*
X166935246Y-102208118D01*
X167026030Y-102226176D01*
X167118592Y-102226176D01*
X167209376Y-102208118D01*
X167294892Y-102172696D01*
X167371855Y-102121271D01*
X167437306Y-102055820D01*
X167488731Y-101978857D01*
X167524153Y-101893341D01*
X167542211Y-101802557D01*
X167542211Y-101709995D01*
X167524153Y-101619211D01*
X167488731Y-101533695D01*
X167437306Y-101456732D01*
X167371855Y-101391281D01*
X167294892Y-101339856D01*
X167209376Y-101304434D01*
X167118592Y-101286376D01*
X167026030Y-101286376D01*
X166935246Y-101304434D01*
X166849730Y-101339856D01*
X166772767Y-101391281D01*
X166736163Y-101427886D01*
X166699544Y-101391267D01*
X166622581Y-101339842D01*
X166537065Y-101304420D01*
X166446281Y-101286362D01*
X166353719Y-101286362D01*
X166262935Y-101304420D01*
X166177419Y-101339842D01*
X166100456Y-101391267D01*
X166035005Y-101456718D01*
X165983580Y-101533681D01*
X165948158Y-101619197D01*
X165930100Y-101709981D01*
X152076200Y-101709981D01*
X152076200Y-100770172D01*
X165930100Y-100770172D01*
X165930100Y-100862734D01*
X165948158Y-100953518D01*
X165983580Y-101039034D01*
X166035005Y-101115997D01*
X166100456Y-101181448D01*
X166177419Y-101232873D01*
X166262935Y-101268295D01*
X166353719Y-101286353D01*
X166446281Y-101286353D01*
X166537065Y-101268295D01*
X166622581Y-101232873D01*
X166699544Y-101181448D01*
X166744484Y-101136509D01*
X166789422Y-101181447D01*
X166866385Y-101232872D01*
X166951901Y-101268294D01*
X167042685Y-101286352D01*
X167135247Y-101286352D01*
X167226031Y-101268294D01*
X167311547Y-101232872D01*
X167388510Y-101181447D01*
X167453961Y-101115996D01*
X167505386Y-101039033D01*
X167540808Y-100953517D01*
X167558866Y-100862733D01*
X167558866Y-100770171D01*
X167540808Y-100679387D01*
X167505386Y-100593871D01*
X167453961Y-100516908D01*
X167388510Y-100451457D01*
X167311547Y-100400032D01*
X167226031Y-100364610D01*
X167135247Y-100346552D01*
X167042685Y-100346552D01*
X166951901Y-100364610D01*
X166866385Y-100400032D01*
X166789422Y-100451457D01*
X166744483Y-100496397D01*
X166699544Y-100451458D01*
X166622581Y-100400033D01*
X166537065Y-100364611D01*
X166446281Y-100346553D01*
X166353719Y-100346553D01*
X166262935Y-100364611D01*
X166177419Y-100400033D01*
X166100456Y-100451458D01*
X166035005Y-100516909D01*
X165983580Y-100593872D01*
X165948158Y-100679388D01*
X165930100Y-100770172D01*
X152076200Y-100770172D01*
X152076200Y-100138264D01*
X173425099Y-100138264D01*
X173425099Y-100230826D01*
X173443157Y-100321610D01*
X173478579Y-100407126D01*
X173530004Y-100484089D01*
X173595455Y-100549540D01*
X173672418Y-100600965D01*
X173757934Y-100636387D01*
X173848718Y-100654445D01*
X173941280Y-100654445D01*
X174032064Y-100636387D01*
X174117580Y-100600965D01*
X174194543Y-100549540D01*
X174259994Y-100484089D01*
X174311419Y-100407126D01*
X174346841Y-100321610D01*
X174364899Y-100230826D01*
X174364899Y-100138264D01*
X174346841Y-100047480D01*
X174311419Y-99961964D01*
X174259994Y-99885001D01*
X174194543Y-99819550D01*
X174165285Y-99800000D01*
X177605598Y-99800000D01*
X177617980Y-99925717D01*
X177654650Y-100046602D01*
X177714199Y-100158011D01*
X177794339Y-100255661D01*
X177891989Y-100335801D01*
X178003398Y-100395350D01*
X178101141Y-100425000D01*
X178003398Y-100454650D01*
X177891989Y-100514199D01*
X177794339Y-100594339D01*
X177714199Y-100691989D01*
X177654650Y-100803398D01*
X177617980Y-100924283D01*
X177605598Y-101050000D01*
X177617980Y-101175717D01*
X177654650Y-101296602D01*
X177714199Y-101408011D01*
X177794339Y-101505661D01*
X177891989Y-101585801D01*
X178003398Y-101645350D01*
X178045139Y-101658012D01*
X177963679Y-101666035D01*
X177880675Y-101691214D01*
X177804179Y-101732102D01*
X177737129Y-101787129D01*
X177682102Y-101854179D01*
X177641214Y-101930675D01*
X177616035Y-102013679D01*
X177607533Y-102100000D01*
X177607533Y-102500000D01*
X177616035Y-102586321D01*
X177641214Y-102669325D01*
X177682102Y-102745821D01*
X177737129Y-102812871D01*
X177804179Y-102867898D01*
X177880675Y-102908786D01*
X177963679Y-102933965D01*
X178050000Y-102942467D01*
X178950000Y-102942467D01*
X179036321Y-102933965D01*
X179119325Y-102908786D01*
X179195821Y-102867898D01*
X179262871Y-102812871D01*
X179317898Y-102745821D01*
X179358786Y-102669325D01*
X179383965Y-102586321D01*
X179392467Y-102500000D01*
X179392467Y-102100000D01*
X179383965Y-102013679D01*
X179358786Y-101930675D01*
X179317898Y-101854179D01*
X179262871Y-101787129D01*
X179195821Y-101732102D01*
X179119325Y-101691214D01*
X179036321Y-101666035D01*
X178954861Y-101658012D01*
X178996602Y-101645350D01*
X179108011Y-101585801D01*
X179205661Y-101505661D01*
X179285801Y-101408011D01*
X179345350Y-101296602D01*
X179382020Y-101175717D01*
X179394402Y-101050000D01*
X179382020Y-100924283D01*
X179345350Y-100803398D01*
X179285801Y-100691989D01*
X179205661Y-100594339D01*
X179108011Y-100514199D01*
X178996602Y-100454650D01*
X178898859Y-100425000D01*
X178996602Y-100395350D01*
X179108011Y-100335801D01*
X179205661Y-100255661D01*
X179285801Y-100158011D01*
X179345350Y-100046602D01*
X179382020Y-99925717D01*
X179394402Y-99800000D01*
X179382020Y-99674283D01*
X179345350Y-99553398D01*
X179285801Y-99441989D01*
X179205661Y-99344339D01*
X179108011Y-99264199D01*
X178996602Y-99204650D01*
X178875717Y-99167980D01*
X178781495Y-99158700D01*
X178218505Y-99158700D01*
X178124283Y-99167980D01*
X178003398Y-99204650D01*
X177891989Y-99264199D01*
X177794339Y-99344339D01*
X177714199Y-99441989D01*
X177654650Y-99553398D01*
X177617980Y-99674283D01*
X177605598Y-99800000D01*
X174165285Y-99800000D01*
X174117580Y-99768125D01*
X174032064Y-99732703D01*
X173941280Y-99714645D01*
X173848718Y-99714645D01*
X173757934Y-99732703D01*
X173672418Y-99768125D01*
X173595455Y-99819550D01*
X173530004Y-99885001D01*
X173478579Y-99961964D01*
X173443157Y-100047480D01*
X173425099Y-100138264D01*
X152076200Y-100138264D01*
X152076200Y-97703719D01*
X155030100Y-97703719D01*
X155030100Y-97796281D01*
X155048158Y-97887065D01*
X155083580Y-97972581D01*
X155101901Y-98000000D01*
X155083580Y-98027419D01*
X155048158Y-98112935D01*
X155030100Y-98203719D01*
X155030100Y-98296281D01*
X155048158Y-98387065D01*
X155083580Y-98472581D01*
X155101901Y-98500000D01*
X155083580Y-98527419D01*
X155048158Y-98612935D01*
X155030100Y-98703719D01*
X155030100Y-98796281D01*
X155048158Y-98887065D01*
X155083580Y-98972581D01*
X155101901Y-99000000D01*
X155083580Y-99027419D01*
X155048158Y-99112935D01*
X155030100Y-99203719D01*
X155030100Y-99296281D01*
X155048158Y-99387065D01*
X155083580Y-99472581D01*
X155135005Y-99549544D01*
X155200456Y-99614995D01*
X155277419Y-99666420D01*
X155362935Y-99701842D01*
X155453719Y-99719900D01*
X155546281Y-99719900D01*
X155637065Y-99701842D01*
X155722581Y-99666420D01*
X155799544Y-99614995D01*
X155864995Y-99549544D01*
X155916420Y-99472581D01*
X155951842Y-99387065D01*
X155969900Y-99296281D01*
X155969900Y-99203719D01*
X155951842Y-99112935D01*
X155916420Y-99027419D01*
X155898099Y-99000000D01*
X155916420Y-98972581D01*
X155951842Y-98887065D01*
X155969900Y-98796281D01*
X155969900Y-98733719D01*
X158720100Y-98733719D01*
X158720100Y-98826281D01*
X158738158Y-98917065D01*
X158773580Y-99002581D01*
X158825005Y-99079544D01*
X158890456Y-99144995D01*
X158967419Y-99196420D01*
X159052935Y-99231842D01*
X159143719Y-99249900D01*
X159236281Y-99249900D01*
X159327065Y-99231842D01*
X159412581Y-99196420D01*
X159489544Y-99144995D01*
X159554995Y-99079544D01*
X159606420Y-99002581D01*
X159641842Y-98917065D01*
X159659900Y-98826281D01*
X159659900Y-98733719D01*
X159641842Y-98642935D01*
X159606420Y-98557419D01*
X159554995Y-98480456D01*
X159489544Y-98415005D01*
X159412581Y-98363580D01*
X159327065Y-98328158D01*
X159236281Y-98310100D01*
X159143719Y-98310100D01*
X159052935Y-98328158D01*
X158967419Y-98363580D01*
X158890456Y-98415005D01*
X158825005Y-98480456D01*
X158773580Y-98557419D01*
X158738158Y-98642935D01*
X158720100Y-98733719D01*
X155969900Y-98733719D01*
X155969900Y-98703719D01*
X155951842Y-98612935D01*
X155916420Y-98527419D01*
X155898099Y-98500000D01*
X155916420Y-98472581D01*
X155951842Y-98387065D01*
X155969900Y-98296281D01*
X155969900Y-98203719D01*
X155951842Y-98112935D01*
X155916420Y-98027419D01*
X155898099Y-98000000D01*
X155916420Y-97972581D01*
X155951842Y-97887065D01*
X155969900Y-97796281D01*
X155969900Y-97718719D01*
X164415100Y-97718719D01*
X164415100Y-97811281D01*
X164433158Y-97902065D01*
X164468580Y-97987581D01*
X164520005Y-98064544D01*
X164585456Y-98129995D01*
X164662419Y-98181420D01*
X164747935Y-98216842D01*
X164838719Y-98234900D01*
X164931281Y-98234900D01*
X165022065Y-98216842D01*
X165107581Y-98181420D01*
X165184544Y-98129995D01*
X165249995Y-98064544D01*
X165301420Y-97987581D01*
X165336842Y-97902065D01*
X165354900Y-97811281D01*
X165354900Y-97718719D01*
X165351917Y-97703719D01*
X166180100Y-97703719D01*
X166180100Y-97796281D01*
X166198158Y-97887065D01*
X166233580Y-97972581D01*
X166285005Y-98049544D01*
X166335461Y-98100000D01*
X166285005Y-98150456D01*
X166233580Y-98227419D01*
X166198158Y-98312935D01*
X166180100Y-98403719D01*
X166180100Y-98496281D01*
X166198158Y-98587065D01*
X166233580Y-98672581D01*
X166285005Y-98749544D01*
X166350456Y-98814995D01*
X166427419Y-98866420D01*
X166512935Y-98901842D01*
X166603719Y-98919900D01*
X166696281Y-98919900D01*
X166787065Y-98901842D01*
X166872581Y-98866420D01*
X166949544Y-98814995D01*
X167014995Y-98749544D01*
X167066420Y-98672581D01*
X167101842Y-98587065D01*
X167119900Y-98496281D01*
X167119900Y-98403719D01*
X167101842Y-98312935D01*
X167066420Y-98227419D01*
X167014995Y-98150456D01*
X166964539Y-98100000D01*
X167014995Y-98049544D01*
X167066420Y-97972581D01*
X167101842Y-97887065D01*
X167119900Y-97796281D01*
X167119900Y-97703719D01*
X167101842Y-97612935D01*
X167066420Y-97527419D01*
X167014995Y-97450456D01*
X166949544Y-97385005D01*
X166872581Y-97333580D01*
X166787065Y-97298158D01*
X166696281Y-97280100D01*
X166603719Y-97280100D01*
X166512935Y-97298158D01*
X166427419Y-97333580D01*
X166350456Y-97385005D01*
X166285005Y-97450456D01*
X166233580Y-97527419D01*
X166198158Y-97612935D01*
X166180100Y-97703719D01*
X165351917Y-97703719D01*
X165336842Y-97627935D01*
X165301420Y-97542419D01*
X165249995Y-97465456D01*
X165184544Y-97400005D01*
X165107581Y-97348580D01*
X165022065Y-97313158D01*
X164931281Y-97295100D01*
X164838719Y-97295100D01*
X164747935Y-97313158D01*
X164662419Y-97348580D01*
X164585456Y-97400005D01*
X164520005Y-97465456D01*
X164468580Y-97542419D01*
X164433158Y-97627935D01*
X164415100Y-97718719D01*
X155969900Y-97718719D01*
X155969900Y-97703719D01*
X155951842Y-97612935D01*
X155916420Y-97527419D01*
X155864995Y-97450456D01*
X155799544Y-97385005D01*
X155722581Y-97333580D01*
X155637065Y-97298158D01*
X155546281Y-97280100D01*
X155453719Y-97280100D01*
X155362935Y-97298158D01*
X155277419Y-97333580D01*
X155200456Y-97385005D01*
X155135005Y-97450456D01*
X155083580Y-97527419D01*
X155048158Y-97612935D01*
X155030100Y-97703719D01*
X152076200Y-97703719D01*
X152076200Y-97253600D01*
X182487595Y-97253600D01*
X182547623Y-97259486D01*
G36*
X169770840Y-115670400D02*
G01*
X169785134Y-115674736D01*
X169800000Y-115676200D01*
X170523800Y-115676200D01*
X170523800Y-117500000D01*
X170525264Y-117514866D01*
X170529600Y-117529160D01*
X170536642Y-117542334D01*
X170546118Y-117553882D01*
X170557666Y-117563358D01*
X170570840Y-117570400D01*
X170585134Y-117574736D01*
X170600000Y-117576200D01*
X174923800Y-117576200D01*
X174923800Y-120623800D01*
X171728187Y-120623800D01*
X171473939Y-120405873D01*
X171457342Y-120322435D01*
X171421920Y-120236919D01*
X171370495Y-120159956D01*
X171305044Y-120094505D01*
X171228081Y-120043080D01*
X171142565Y-120007658D01*
X171051781Y-119989600D01*
X170959219Y-119989600D01*
X170868435Y-120007658D01*
X170829465Y-120023800D01*
X169931564Y-120023800D01*
X169776200Y-119868436D01*
X169776200Y-115700000D01*
X169774736Y-115685134D01*
X169770400Y-115670840D01*
X169769895Y-115669895D01*
X169770840Y-115670400D01*
G37*
X169770840Y-115670400D02*
X169785134Y-115674736D01*
X169800000Y-115676200D01*
X170523800Y-115676200D01*
X170523800Y-117500000D01*
X170525264Y-117514866D01*
X170529600Y-117529160D01*
X170536642Y-117542334D01*
X170546118Y-117553882D01*
X170557666Y-117563358D01*
X170570840Y-117570400D01*
X170585134Y-117574736D01*
X170600000Y-117576200D01*
X174923800Y-117576200D01*
X174923800Y-120623800D01*
X171728187Y-120623800D01*
X171473939Y-120405873D01*
X171457342Y-120322435D01*
X171421920Y-120236919D01*
X171370495Y-120159956D01*
X171305044Y-120094505D01*
X171228081Y-120043080D01*
X171142565Y-120007658D01*
X171051781Y-119989600D01*
X170959219Y-119989600D01*
X170868435Y-120007658D01*
X170829465Y-120023800D01*
X169931564Y-120023800D01*
X169776200Y-119868436D01*
X169776200Y-115700000D01*
X169774736Y-115685134D01*
X169770400Y-115670840D01*
X169769895Y-115669895D01*
X169770840Y-115670400D01*
G36*
X151746000Y-105648204D02*
G01*
X151592505Y-105678736D01*
X150963918Y-105939105D01*
X150398204Y-106317103D01*
X149917103Y-106798204D01*
X149539105Y-107363918D01*
X149278736Y-107992505D01*
X149146000Y-108659811D01*
X149146000Y-109340189D01*
X149278736Y-110007495D01*
X149539105Y-110636082D01*
X149917103Y-111201796D01*
X150240962Y-111525655D01*
X149293312Y-112852365D01*
X149265335Y-112902798D01*
X149250881Y-112950447D01*
X149246000Y-113000000D01*
X149246000Y-113809233D01*
X149237400Y-113852468D01*
X149237400Y-113947532D01*
X149246000Y-113990767D01*
X149246000Y-114928585D01*
X149211522Y-115011822D01*
X149192000Y-115109966D01*
X149192000Y-115210034D01*
X149211522Y-115308178D01*
X149246000Y-115391415D01*
X149246000Y-118859800D01*
X148849875Y-118859800D01*
X148849875Y-118850386D01*
X148831329Y-118757149D01*
X148794949Y-118669321D01*
X148742135Y-118590278D01*
X148674915Y-118523058D01*
X148595872Y-118470244D01*
X148508044Y-118433864D01*
X148414807Y-118415318D01*
X148396349Y-118415318D01*
X148442811Y-118328393D01*
X148491643Y-118167413D01*
X148508132Y-118000000D01*
X148491643Y-117832587D01*
X148442811Y-117671607D01*
X148363511Y-117523247D01*
X148256791Y-117393209D01*
X148126753Y-117286489D01*
X147998734Y-117218062D01*
X147917190Y-117151140D01*
X147740687Y-117056798D01*
X147549171Y-116998702D01*
X147399902Y-116984000D01*
X146920840Y-116984000D01*
X146683134Y-116746294D01*
X146567189Y-116651141D01*
X146390687Y-116556799D01*
X146199170Y-116498702D01*
X146000000Y-116479085D01*
X145800830Y-116498702D01*
X145656532Y-116542475D01*
X145640769Y-116535946D01*
X145547532Y-116517400D01*
X145452468Y-116517400D01*
X145359231Y-116535946D01*
X145271403Y-116572326D01*
X145192360Y-116625140D01*
X145125140Y-116692360D01*
X145072326Y-116771403D01*
X145035946Y-116859231D01*
X145017400Y-116952468D01*
X145017400Y-117047532D01*
X145035946Y-117140769D01*
X145042475Y-117156532D01*
X144998702Y-117300830D01*
X144979085Y-117500000D01*
X144998702Y-117699170D01*
X145010868Y-117739276D01*
X144830200Y-117558608D01*
X144830200Y-115220103D01*
X144831797Y-115203888D01*
X144825422Y-115139158D01*
X144806540Y-115076915D01*
X144775879Y-115019551D01*
X144744952Y-114981867D01*
X144734616Y-114969272D01*
X144722019Y-114958934D01*
X143263085Y-113500000D01*
X143979085Y-113500000D01*
X143998702Y-113699170D01*
X144056799Y-113890687D01*
X144151141Y-114067189D01*
X144246294Y-114183134D01*
X144746287Y-114683127D01*
X144778104Y-114721896D01*
X144932810Y-114848860D01*
X145080262Y-114927674D01*
X145109313Y-114943202D01*
X145300829Y-115001298D01*
X145500000Y-115020915D01*
X145549902Y-115016000D01*
X147399902Y-115016000D01*
X147549171Y-115001298D01*
X147740687Y-114943202D01*
X147917190Y-114848860D01*
X147998734Y-114781938D01*
X148126753Y-114713511D01*
X148256791Y-114606791D01*
X148363511Y-114476753D01*
X148442811Y-114328393D01*
X148491643Y-114167413D01*
X148508132Y-114000000D01*
X148491643Y-113832587D01*
X148442811Y-113671607D01*
X148363511Y-113523247D01*
X148256791Y-113393209D01*
X148126753Y-113286489D01*
X147998734Y-113218062D01*
X147917190Y-113151140D01*
X147740687Y-113056798D01*
X147549171Y-112998702D01*
X147399902Y-112984000D01*
X145920840Y-112984000D01*
X145683134Y-112746294D01*
X145567189Y-112651141D01*
X145390687Y-112556799D01*
X145199170Y-112498702D01*
X145000000Y-112479085D01*
X144800830Y-112498702D01*
X144609313Y-112556799D01*
X144432811Y-112651141D01*
X144278105Y-112778105D01*
X144151141Y-112932811D01*
X144056799Y-113109313D01*
X143998702Y-113300830D01*
X143979085Y-113500000D01*
X143263085Y-113500000D01*
X142254000Y-112490916D01*
X142254000Y-111480600D01*
X142430236Y-111480600D01*
X142446449Y-111482197D01*
X142462662Y-111480600D01*
X142462664Y-111480600D01*
X142511179Y-111475822D01*
X142573422Y-111456940D01*
X142630786Y-111426279D01*
X142681065Y-111385016D01*
X142691408Y-111372413D01*
X142830320Y-111233502D01*
X142842917Y-111223164D01*
X142884180Y-111172885D01*
X142914841Y-111115521D01*
X142933723Y-111053278D01*
X142938501Y-111004763D01*
X142938501Y-111004754D01*
X142940097Y-110988549D01*
X142938501Y-110972344D01*
X142938501Y-110351274D01*
X142940098Y-110335061D01*
X142938501Y-110318846D01*
X142933723Y-110270331D01*
X142914841Y-110208088D01*
X142884180Y-110150724D01*
X142842917Y-110100445D01*
X142830319Y-110090106D01*
X142740213Y-110000000D01*
X143979085Y-110000000D01*
X143998702Y-110199171D01*
X144042475Y-110343470D01*
X144035946Y-110359231D01*
X144017400Y-110452468D01*
X144017400Y-110547532D01*
X144035946Y-110640769D01*
X144072326Y-110728597D01*
X144125140Y-110807640D01*
X144192360Y-110874860D01*
X144271403Y-110927674D01*
X144359231Y-110964054D01*
X144452468Y-110982600D01*
X144547532Y-110982600D01*
X144640769Y-110964054D01*
X144656530Y-110957525D01*
X144800829Y-111001298D01*
X144950098Y-111016000D01*
X147399902Y-111016000D01*
X147549171Y-111001298D01*
X147740687Y-110943202D01*
X147917190Y-110848860D01*
X147998734Y-110781938D01*
X148126753Y-110713511D01*
X148256791Y-110606791D01*
X148363511Y-110476753D01*
X148442811Y-110328393D01*
X148491643Y-110167413D01*
X148508132Y-110000000D01*
X148491643Y-109832587D01*
X148442811Y-109671607D01*
X148363511Y-109523247D01*
X148256791Y-109393209D01*
X148126753Y-109286489D01*
X147998734Y-109218062D01*
X147917190Y-109151140D01*
X147740687Y-109056798D01*
X147549171Y-108998702D01*
X147399902Y-108984000D01*
X144950098Y-108984000D01*
X144800829Y-108998702D01*
X144656530Y-109042475D01*
X144640769Y-109035946D01*
X144547532Y-109017400D01*
X144452468Y-109017400D01*
X144359231Y-109035946D01*
X144271403Y-109072326D01*
X144192360Y-109125140D01*
X144125140Y-109192360D01*
X144072326Y-109271403D01*
X144035946Y-109359231D01*
X144017400Y-109452468D01*
X144017400Y-109547532D01*
X144035946Y-109640769D01*
X144042475Y-109656530D01*
X143998702Y-109800829D01*
X143979085Y-110000000D01*
X142740213Y-110000000D01*
X142392399Y-109652187D01*
X142392399Y-107753866D01*
X142484568Y-107772200D01*
X142579632Y-107772200D01*
X142672869Y-107753654D01*
X142760697Y-107717274D01*
X142839740Y-107664460D01*
X142906960Y-107597240D01*
X142959774Y-107518197D01*
X142996154Y-107430369D01*
X143014700Y-107337132D01*
X143014700Y-107273972D01*
X143442458Y-106846215D01*
X143455056Y-106835876D01*
X143490399Y-106792811D01*
X143496319Y-106785598D01*
X143526980Y-106728234D01*
X143537862Y-106692360D01*
X143545862Y-106665990D01*
X143550640Y-106617475D01*
X143550640Y-106617473D01*
X143552237Y-106601260D01*
X143550640Y-106585047D01*
X143550640Y-106000000D01*
X144479085Y-106000000D01*
X144498702Y-106199171D01*
X144542475Y-106343470D01*
X144535946Y-106359231D01*
X144517400Y-106452468D01*
X144517400Y-106547532D01*
X144535946Y-106640769D01*
X144572326Y-106728597D01*
X144625140Y-106807640D01*
X144692360Y-106874860D01*
X144771403Y-106927674D01*
X144859231Y-106964054D01*
X144952468Y-106982600D01*
X145047532Y-106982600D01*
X145140769Y-106964054D01*
X145156530Y-106957525D01*
X145300829Y-107001298D01*
X145450098Y-107016000D01*
X147399902Y-107016000D01*
X147549171Y-107001298D01*
X147740687Y-106943202D01*
X147917190Y-106848860D01*
X147998734Y-106781938D01*
X148126753Y-106713511D01*
X148256791Y-106606791D01*
X148363511Y-106476753D01*
X148442811Y-106328393D01*
X148491643Y-106167413D01*
X148508132Y-106000000D01*
X148491643Y-105832587D01*
X148442811Y-105671607D01*
X148363511Y-105523247D01*
X148256791Y-105393209D01*
X148126753Y-105286489D01*
X147998734Y-105218062D01*
X147917190Y-105151140D01*
X147740687Y-105056798D01*
X147549171Y-104998702D01*
X147399902Y-104984000D01*
X145450098Y-104984000D01*
X145300829Y-104998702D01*
X145156530Y-105042475D01*
X145140769Y-105035946D01*
X145047532Y-105017400D01*
X144952468Y-105017400D01*
X144859231Y-105035946D01*
X144771403Y-105072326D01*
X144692360Y-105125140D01*
X144625140Y-105192360D01*
X144572326Y-105271403D01*
X144535946Y-105359231D01*
X144517400Y-105452468D01*
X144517400Y-105547532D01*
X144535946Y-105640769D01*
X144542475Y-105656530D01*
X144498702Y-105800829D01*
X144479085Y-106000000D01*
X143550640Y-106000000D01*
X143550640Y-103254000D01*
X148500000Y-103254000D01*
X148549553Y-103249119D01*
X148597202Y-103234665D01*
X148641115Y-103211193D01*
X148679605Y-103179605D01*
X148711193Y-103141115D01*
X148734665Y-103097202D01*
X148749119Y-103049553D01*
X148754000Y-103000000D01*
X148754000Y-101000000D01*
X148749119Y-100950447D01*
X148734665Y-100902798D01*
X148711193Y-100858885D01*
X148679605Y-100820395D01*
X148641115Y-100788807D01*
X148597202Y-100765335D01*
X148576200Y-100758964D01*
X148576200Y-99576200D01*
X151746000Y-99576200D01*
X151746000Y-105648204D01*
G37*
X151746000Y-105648204D02*
X151592505Y-105678736D01*
X150963918Y-105939105D01*
X150398204Y-106317103D01*
X149917103Y-106798204D01*
X149539105Y-107363918D01*
X149278736Y-107992505D01*
X149146000Y-108659811D01*
X149146000Y-109340189D01*
X149278736Y-110007495D01*
X149539105Y-110636082D01*
X149917103Y-111201796D01*
X150240962Y-111525655D01*
X149293312Y-112852365D01*
X149265335Y-112902798D01*
X149250881Y-112950447D01*
X149246000Y-113000000D01*
X149246000Y-113809233D01*
X149237400Y-113852468D01*
X149237400Y-113947532D01*
X149246000Y-113990767D01*
X149246000Y-114928585D01*
X149211522Y-115011822D01*
X149192000Y-115109966D01*
X149192000Y-115210034D01*
X149211522Y-115308178D01*
X149246000Y-115391415D01*
X149246000Y-118859800D01*
X148849875Y-118859800D01*
X148849875Y-118850386D01*
X148831329Y-118757149D01*
X148794949Y-118669321D01*
X148742135Y-118590278D01*
X148674915Y-118523058D01*
X148595872Y-118470244D01*
X148508044Y-118433864D01*
X148414807Y-118415318D01*
X148396349Y-118415318D01*
X148442811Y-118328393D01*
X148491643Y-118167413D01*
X148508132Y-118000000D01*
X148491643Y-117832587D01*
X148442811Y-117671607D01*
X148363511Y-117523247D01*
X148256791Y-117393209D01*
X148126753Y-117286489D01*
X147998734Y-117218062D01*
X147917190Y-117151140D01*
X147740687Y-117056798D01*
X147549171Y-116998702D01*
X147399902Y-116984000D01*
X146920840Y-116984000D01*
X146683134Y-116746294D01*
X146567189Y-116651141D01*
X146390687Y-116556799D01*
X146199170Y-116498702D01*
X146000000Y-116479085D01*
X145800830Y-116498702D01*
X145656532Y-116542475D01*
X145640769Y-116535946D01*
X145547532Y-116517400D01*
X145452468Y-116517400D01*
X145359231Y-116535946D01*
X145271403Y-116572326D01*
X145192360Y-116625140D01*
X145125140Y-116692360D01*
X145072326Y-116771403D01*
X145035946Y-116859231D01*
X145017400Y-116952468D01*
X145017400Y-117047532D01*
X145035946Y-117140769D01*
X145042475Y-117156532D01*
X144998702Y-117300830D01*
X144979085Y-117500000D01*
X144998702Y-117699170D01*
X145010868Y-117739276D01*
X144830200Y-117558608D01*
X144830200Y-115220103D01*
X144831797Y-115203888D01*
X144825422Y-115139158D01*
X144806540Y-115076915D01*
X144775879Y-115019551D01*
X144744952Y-114981867D01*
X144734616Y-114969272D01*
X144722019Y-114958934D01*
X143263085Y-113500000D01*
X143979085Y-113500000D01*
X143998702Y-113699170D01*
X144056799Y-113890687D01*
X144151141Y-114067189D01*
X144246294Y-114183134D01*
X144746287Y-114683127D01*
X144778104Y-114721896D01*
X144932810Y-114848860D01*
X145080262Y-114927674D01*
X145109313Y-114943202D01*
X145300829Y-115001298D01*
X145500000Y-115020915D01*
X145549902Y-115016000D01*
X147399902Y-115016000D01*
X147549171Y-115001298D01*
X147740687Y-114943202D01*
X147917190Y-114848860D01*
X147998734Y-114781938D01*
X148126753Y-114713511D01*
X148256791Y-114606791D01*
X148363511Y-114476753D01*
X148442811Y-114328393D01*
X148491643Y-114167413D01*
X148508132Y-114000000D01*
X148491643Y-113832587D01*
X148442811Y-113671607D01*
X148363511Y-113523247D01*
X148256791Y-113393209D01*
X148126753Y-113286489D01*
X147998734Y-113218062D01*
X147917190Y-113151140D01*
X147740687Y-113056798D01*
X147549171Y-112998702D01*
X147399902Y-112984000D01*
X145920840Y-112984000D01*
X145683134Y-112746294D01*
X145567189Y-112651141D01*
X145390687Y-112556799D01*
X145199170Y-112498702D01*
X145000000Y-112479085D01*
X144800830Y-112498702D01*
X144609313Y-112556799D01*
X144432811Y-112651141D01*
X144278105Y-112778105D01*
X144151141Y-112932811D01*
X144056799Y-113109313D01*
X143998702Y-113300830D01*
X143979085Y-113500000D01*
X143263085Y-113500000D01*
X142254000Y-112490916D01*
X142254000Y-111480600D01*
X142430236Y-111480600D01*
X142446449Y-111482197D01*
X142462662Y-111480600D01*
X142462664Y-111480600D01*
X142511179Y-111475822D01*
X142573422Y-111456940D01*
X142630786Y-111426279D01*
X142681065Y-111385016D01*
X142691408Y-111372413D01*
X142830320Y-111233502D01*
X142842917Y-111223164D01*
X142884180Y-111172885D01*
X142914841Y-111115521D01*
X142933723Y-111053278D01*
X142938501Y-111004763D01*
X142938501Y-111004754D01*
X142940097Y-110988549D01*
X142938501Y-110972344D01*
X142938501Y-110351274D01*
X142940098Y-110335061D01*
X142938501Y-110318846D01*
X142933723Y-110270331D01*
X142914841Y-110208088D01*
X142884180Y-110150724D01*
X142842917Y-110100445D01*
X142830319Y-110090106D01*
X142740213Y-110000000D01*
X143979085Y-110000000D01*
X143998702Y-110199171D01*
X144042475Y-110343470D01*
X144035946Y-110359231D01*
X144017400Y-110452468D01*
X144017400Y-110547532D01*
X144035946Y-110640769D01*
X144072326Y-110728597D01*
X144125140Y-110807640D01*
X144192360Y-110874860D01*
X144271403Y-110927674D01*
X144359231Y-110964054D01*
X144452468Y-110982600D01*
X144547532Y-110982600D01*
X144640769Y-110964054D01*
X144656530Y-110957525D01*
X144800829Y-111001298D01*
X144950098Y-111016000D01*
X147399902Y-111016000D01*
X147549171Y-111001298D01*
X147740687Y-110943202D01*
X147917190Y-110848860D01*
X147998734Y-110781938D01*
X148126753Y-110713511D01*
X148256791Y-110606791D01*
X148363511Y-110476753D01*
X148442811Y-110328393D01*
X148491643Y-110167413D01*
X148508132Y-110000000D01*
X148491643Y-109832587D01*
X148442811Y-109671607D01*
X148363511Y-109523247D01*
X148256791Y-109393209D01*
X148126753Y-109286489D01*
X147998734Y-109218062D01*
X147917190Y-109151140D01*
X147740687Y-109056798D01*
X147549171Y-108998702D01*
X147399902Y-108984000D01*
X144950098Y-108984000D01*
X144800829Y-108998702D01*
X144656530Y-109042475D01*
X144640769Y-109035946D01*
X144547532Y-109017400D01*
X144452468Y-109017400D01*
X144359231Y-109035946D01*
X144271403Y-109072326D01*
X144192360Y-109125140D01*
X144125140Y-109192360D01*
X144072326Y-109271403D01*
X144035946Y-109359231D01*
X144017400Y-109452468D01*
X144017400Y-109547532D01*
X144035946Y-109640769D01*
X144042475Y-109656530D01*
X143998702Y-109800829D01*
X143979085Y-110000000D01*
X142740213Y-110000000D01*
X142392399Y-109652187D01*
X142392399Y-107753866D01*
X142484568Y-107772200D01*
X142579632Y-107772200D01*
X142672869Y-107753654D01*
X142760697Y-107717274D01*
X142839740Y-107664460D01*
X142906960Y-107597240D01*
X142959774Y-107518197D01*
X142996154Y-107430369D01*
X143014700Y-107337132D01*
X143014700Y-107273972D01*
X143442458Y-106846215D01*
X143455056Y-106835876D01*
X143490399Y-106792811D01*
X143496319Y-106785598D01*
X143526980Y-106728234D01*
X143537862Y-106692360D01*
X143545862Y-106665990D01*
X143550640Y-106617475D01*
X143550640Y-106617473D01*
X143552237Y-106601260D01*
X143550640Y-106585047D01*
X143550640Y-106000000D01*
X144479085Y-106000000D01*
X144498702Y-106199171D01*
X144542475Y-106343470D01*
X144535946Y-106359231D01*
X144517400Y-106452468D01*
X144517400Y-106547532D01*
X144535946Y-106640769D01*
X144572326Y-106728597D01*
X144625140Y-106807640D01*
X144692360Y-106874860D01*
X144771403Y-106927674D01*
X144859231Y-106964054D01*
X144952468Y-106982600D01*
X145047532Y-106982600D01*
X145140769Y-106964054D01*
X145156530Y-106957525D01*
X145300829Y-107001298D01*
X145450098Y-107016000D01*
X147399902Y-107016000D01*
X147549171Y-107001298D01*
X147740687Y-106943202D01*
X147917190Y-106848860D01*
X147998734Y-106781938D01*
X148126753Y-106713511D01*
X148256791Y-106606791D01*
X148363511Y-106476753D01*
X148442811Y-106328393D01*
X148491643Y-106167413D01*
X148508132Y-106000000D01*
X148491643Y-105832587D01*
X148442811Y-105671607D01*
X148363511Y-105523247D01*
X148256791Y-105393209D01*
X148126753Y-105286489D01*
X147998734Y-105218062D01*
X147917190Y-105151140D01*
X147740687Y-105056798D01*
X147549171Y-104998702D01*
X147399902Y-104984000D01*
X145450098Y-104984000D01*
X145300829Y-104998702D01*
X145156530Y-105042475D01*
X145140769Y-105035946D01*
X145047532Y-105017400D01*
X144952468Y-105017400D01*
X144859231Y-105035946D01*
X144771403Y-105072326D01*
X144692360Y-105125140D01*
X144625140Y-105192360D01*
X144572326Y-105271403D01*
X144535946Y-105359231D01*
X144517400Y-105452468D01*
X144517400Y-105547532D01*
X144535946Y-105640769D01*
X144542475Y-105656530D01*
X144498702Y-105800829D01*
X144479085Y-106000000D01*
X143550640Y-106000000D01*
X143550640Y-103254000D01*
X148500000Y-103254000D01*
X148549553Y-103249119D01*
X148597202Y-103234665D01*
X148641115Y-103211193D01*
X148679605Y-103179605D01*
X148711193Y-103141115D01*
X148734665Y-103097202D01*
X148749119Y-103049553D01*
X148754000Y-103000000D01*
X148754000Y-101000000D01*
X148749119Y-100950447D01*
X148734665Y-100902798D01*
X148711193Y-100858885D01*
X148679605Y-100820395D01*
X148641115Y-100788807D01*
X148597202Y-100765335D01*
X148576200Y-100758964D01*
X148576200Y-99576200D01*
X151746000Y-99576200D01*
X151746000Y-105648204D01*
G36*
X144405607Y-97336655D02*
G01*
X144286655Y-97455607D01*
X144193195Y-97595479D01*
X144128819Y-97750897D01*
X144096000Y-97915888D01*
X144096000Y-98084112D01*
X144128819Y-98249103D01*
X144193195Y-98404521D01*
X144286655Y-98544393D01*
X144405607Y-98663345D01*
X144545479Y-98756805D01*
X144700897Y-98821181D01*
X144865888Y-98854000D01*
X145034112Y-98854000D01*
X145199103Y-98821181D01*
X145354521Y-98756805D01*
X145423800Y-98710514D01*
X145423800Y-101000000D01*
X145425264Y-101014866D01*
X145429600Y-101029160D01*
X145436642Y-101042334D01*
X145446118Y-101053882D01*
X145457666Y-101063358D01*
X145470840Y-101070400D01*
X145485134Y-101074736D01*
X145500000Y-101076200D01*
X148423800Y-101076200D01*
X148423800Y-102923800D01*
X143550640Y-102923800D01*
X143550640Y-99269252D01*
X143552237Y-99253039D01*
X143549960Y-99229918D01*
X143545862Y-99188310D01*
X143526980Y-99126067D01*
X143496320Y-99068704D01*
X143496319Y-99068702D01*
X143465392Y-99031019D01*
X143455056Y-99018424D01*
X143442459Y-99008086D01*
X143205200Y-98770827D01*
X143205200Y-98707668D01*
X143186654Y-98614431D01*
X143150274Y-98526603D01*
X143097460Y-98447560D01*
X143030240Y-98380340D01*
X142951197Y-98327526D01*
X142863369Y-98291146D01*
X142770132Y-98272600D01*
X142675068Y-98272600D01*
X142581831Y-98291146D01*
X142494003Y-98327526D01*
X142414960Y-98380340D01*
X142347740Y-98447560D01*
X142294926Y-98526603D01*
X142258546Y-98614431D01*
X142240000Y-98707668D01*
X142240000Y-98802732D01*
X142258546Y-98895969D01*
X142294926Y-98983797D01*
X142347740Y-99062840D01*
X142414960Y-99130060D01*
X142494003Y-99182874D01*
X142581831Y-99219254D01*
X142675068Y-99237800D01*
X142738227Y-99237800D01*
X142890240Y-99389813D01*
X142890240Y-101472919D01*
X142812569Y-101440746D01*
X142719332Y-101422200D01*
X142624268Y-101422200D01*
X142531031Y-101440746D01*
X142443203Y-101477126D01*
X142364160Y-101529940D01*
X142296940Y-101597160D01*
X142244126Y-101676203D01*
X142207746Y-101764031D01*
X142189200Y-101857268D01*
X142189200Y-101920427D01*
X141484587Y-102625041D01*
X141471984Y-102635384D01*
X141444024Y-102669454D01*
X141430721Y-102685663D01*
X141414333Y-102716324D01*
X141400060Y-102743028D01*
X141381178Y-102805271D01*
X141376400Y-102853785D01*
X141374803Y-102870000D01*
X141376400Y-102886213D01*
X141376401Y-106660441D01*
X141366540Y-106650580D01*
X141287497Y-106597766D01*
X141199669Y-106561386D01*
X141106432Y-106542840D01*
X141011368Y-106542840D01*
X140918131Y-106561386D01*
X140830303Y-106597766D01*
X140751260Y-106650580D01*
X140684040Y-106717800D01*
X140631226Y-106796843D01*
X140594846Y-106884671D01*
X140576300Y-106977908D01*
X140576300Y-107072972D01*
X140594846Y-107166209D01*
X140631226Y-107254037D01*
X140684040Y-107333080D01*
X140730098Y-107379138D01*
X140733478Y-107413459D01*
X140752360Y-107475702D01*
X140767691Y-107504384D01*
X140783021Y-107533066D01*
X140789088Y-107540458D01*
X140824285Y-107583345D01*
X140836883Y-107593684D01*
X140855699Y-107612500D01*
X140855700Y-111541644D01*
X140449311Y-111135255D01*
X140449311Y-108598688D01*
X140450908Y-108582475D01*
X140448308Y-108556078D01*
X140444533Y-108517745D01*
X140425651Y-108455502D01*
X140394990Y-108398138D01*
X140353727Y-108347859D01*
X140341129Y-108337520D01*
X140070836Y-108067228D01*
X140070836Y-108004068D01*
X140052290Y-107910831D01*
X140015910Y-107823003D01*
X139963096Y-107743960D01*
X139895876Y-107676740D01*
X139816833Y-107623926D01*
X139729005Y-107587546D01*
X139635768Y-107569000D01*
X139540704Y-107569000D01*
X139447467Y-107587546D01*
X139359639Y-107623926D01*
X139280596Y-107676740D01*
X139213376Y-107743960D01*
X139160562Y-107823003D01*
X139124182Y-107910831D01*
X139105636Y-108004068D01*
X139105636Y-108099132D01*
X139124182Y-108192369D01*
X139160562Y-108280197D01*
X139213376Y-108359240D01*
X139280596Y-108426460D01*
X139359639Y-108479274D01*
X139447467Y-108515654D01*
X139540704Y-108534200D01*
X139603864Y-108534200D01*
X139788912Y-108719249D01*
X139788912Y-108878152D01*
X139739165Y-108857546D01*
X139645928Y-108839000D01*
X139550864Y-108839000D01*
X139457627Y-108857546D01*
X139369799Y-108893926D01*
X139290756Y-108946740D01*
X139223536Y-109013960D01*
X139170722Y-109093003D01*
X139134342Y-109180831D01*
X139115796Y-109274068D01*
X139115796Y-109369132D01*
X139134342Y-109462369D01*
X139170722Y-109550197D01*
X139223536Y-109629240D01*
X139268197Y-109673901D01*
X139268196Y-111184127D01*
X139266599Y-111200340D01*
X139268196Y-111216553D01*
X139268196Y-111216554D01*
X139272974Y-111265069D01*
X139291856Y-111327312D01*
X139306129Y-111354016D01*
X139322517Y-111384677D01*
X139331278Y-111395352D01*
X139363780Y-111434956D01*
X139376383Y-111445299D01*
X139438256Y-111507172D01*
X139369803Y-111535526D01*
X139290760Y-111588340D01*
X139223540Y-111655560D01*
X139170726Y-111734603D01*
X139134346Y-111822431D01*
X139115800Y-111915668D01*
X139115800Y-112010732D01*
X139134346Y-112103969D01*
X139170726Y-112191797D01*
X139223540Y-112270840D01*
X139290760Y-112338060D01*
X139369803Y-112390874D01*
X139457631Y-112427254D01*
X139550868Y-112445800D01*
X139645932Y-112445800D01*
X139739169Y-112427254D01*
X139826997Y-112390874D01*
X139854532Y-112372476D01*
X141923800Y-114441745D01*
X141923800Y-115142427D01*
X140081000Y-113299628D01*
X140081000Y-113236468D01*
X140062454Y-113143231D01*
X140026074Y-113055403D01*
X139973260Y-112976360D01*
X139906040Y-112909140D01*
X139826997Y-112856326D01*
X139739169Y-112819946D01*
X139645932Y-112801400D01*
X139550868Y-112801400D01*
X139457631Y-112819946D01*
X139369803Y-112856326D01*
X139290760Y-112909140D01*
X139223540Y-112976360D01*
X139170726Y-113055403D01*
X139134346Y-113143231D01*
X139115800Y-113236468D01*
X139115800Y-113331532D01*
X139134346Y-113424769D01*
X139170726Y-113512597D01*
X139223540Y-113591640D01*
X139290760Y-113658860D01*
X139369803Y-113711674D01*
X139457631Y-113748054D01*
X139550868Y-113766600D01*
X139614028Y-113766600D01*
X141923800Y-116076373D01*
X141923800Y-116673800D01*
X138279000Y-116673800D01*
X138279000Y-97513649D01*
X138284522Y-97457333D01*
X138296913Y-97416291D01*
X138317038Y-97378442D01*
X138344133Y-97345220D01*
X138377171Y-97317889D01*
X138414875Y-97297502D01*
X138455830Y-97284825D01*
X138511248Y-97279000D01*
X144491893Y-97279000D01*
X144405607Y-97336655D01*
G37*
X144405607Y-97336655D02*
X144286655Y-97455607D01*
X144193195Y-97595479D01*
X144128819Y-97750897D01*
X144096000Y-97915888D01*
X144096000Y-98084112D01*
X144128819Y-98249103D01*
X144193195Y-98404521D01*
X144286655Y-98544393D01*
X144405607Y-98663345D01*
X144545479Y-98756805D01*
X144700897Y-98821181D01*
X144865888Y-98854000D01*
X145034112Y-98854000D01*
X145199103Y-98821181D01*
X145354521Y-98756805D01*
X145423800Y-98710514D01*
X145423800Y-101000000D01*
X145425264Y-101014866D01*
X145429600Y-101029160D01*
X145436642Y-101042334D01*
X145446118Y-101053882D01*
X145457666Y-101063358D01*
X145470840Y-101070400D01*
X145485134Y-101074736D01*
X145500000Y-101076200D01*
X148423800Y-101076200D01*
X148423800Y-102923800D01*
X143550640Y-102923800D01*
X143550640Y-99269252D01*
X143552237Y-99253039D01*
X143549960Y-99229918D01*
X143545862Y-99188310D01*
X143526980Y-99126067D01*
X143496320Y-99068704D01*
X143496319Y-99068702D01*
X143465392Y-99031019D01*
X143455056Y-99018424D01*
X143442459Y-99008086D01*
X143205200Y-98770827D01*
X143205200Y-98707668D01*
X143186654Y-98614431D01*
X143150274Y-98526603D01*
X143097460Y-98447560D01*
X143030240Y-98380340D01*
X142951197Y-98327526D01*
X142863369Y-98291146D01*
X142770132Y-98272600D01*
X142675068Y-98272600D01*
X142581831Y-98291146D01*
X142494003Y-98327526D01*
X142414960Y-98380340D01*
X142347740Y-98447560D01*
X142294926Y-98526603D01*
X142258546Y-98614431D01*
X142240000Y-98707668D01*
X142240000Y-98802732D01*
X142258546Y-98895969D01*
X142294926Y-98983797D01*
X142347740Y-99062840D01*
X142414960Y-99130060D01*
X142494003Y-99182874D01*
X142581831Y-99219254D01*
X142675068Y-99237800D01*
X142738227Y-99237800D01*
X142890240Y-99389813D01*
X142890240Y-101472919D01*
X142812569Y-101440746D01*
X142719332Y-101422200D01*
X142624268Y-101422200D01*
X142531031Y-101440746D01*
X142443203Y-101477126D01*
X142364160Y-101529940D01*
X142296940Y-101597160D01*
X142244126Y-101676203D01*
X142207746Y-101764031D01*
X142189200Y-101857268D01*
X142189200Y-101920427D01*
X141484587Y-102625041D01*
X141471984Y-102635384D01*
X141444024Y-102669454D01*
X141430721Y-102685663D01*
X141414333Y-102716324D01*
X141400060Y-102743028D01*
X141381178Y-102805271D01*
X141376400Y-102853785D01*
X141374803Y-102870000D01*
X141376400Y-102886213D01*
X141376401Y-106660441D01*
X141366540Y-106650580D01*
X141287497Y-106597766D01*
X141199669Y-106561386D01*
X141106432Y-106542840D01*
X141011368Y-106542840D01*
X140918131Y-106561386D01*
X140830303Y-106597766D01*
X140751260Y-106650580D01*
X140684040Y-106717800D01*
X140631226Y-106796843D01*
X140594846Y-106884671D01*
X140576300Y-106977908D01*
X140576300Y-107072972D01*
X140594846Y-107166209D01*
X140631226Y-107254037D01*
X140684040Y-107333080D01*
X140730098Y-107379138D01*
X140733478Y-107413459D01*
X140752360Y-107475702D01*
X140767691Y-107504384D01*
X140783021Y-107533066D01*
X140789088Y-107540458D01*
X140824285Y-107583345D01*
X140836883Y-107593684D01*
X140855699Y-107612500D01*
X140855700Y-111541644D01*
X140449311Y-111135255D01*
X140449311Y-108598688D01*
X140450908Y-108582475D01*
X140448308Y-108556078D01*
X140444533Y-108517745D01*
X140425651Y-108455502D01*
X140394990Y-108398138D01*
X140353727Y-108347859D01*
X140341129Y-108337520D01*
X140070836Y-108067228D01*
X140070836Y-108004068D01*
X140052290Y-107910831D01*
X140015910Y-107823003D01*
X139963096Y-107743960D01*
X139895876Y-107676740D01*
X139816833Y-107623926D01*
X139729005Y-107587546D01*
X139635768Y-107569000D01*
X139540704Y-107569000D01*
X139447467Y-107587546D01*
X139359639Y-107623926D01*
X139280596Y-107676740D01*
X139213376Y-107743960D01*
X139160562Y-107823003D01*
X139124182Y-107910831D01*
X139105636Y-108004068D01*
X139105636Y-108099132D01*
X139124182Y-108192369D01*
X139160562Y-108280197D01*
X139213376Y-108359240D01*
X139280596Y-108426460D01*
X139359639Y-108479274D01*
X139447467Y-108515654D01*
X139540704Y-108534200D01*
X139603864Y-108534200D01*
X139788912Y-108719249D01*
X139788912Y-108878152D01*
X139739165Y-108857546D01*
X139645928Y-108839000D01*
X139550864Y-108839000D01*
X139457627Y-108857546D01*
X139369799Y-108893926D01*
X139290756Y-108946740D01*
X139223536Y-109013960D01*
X139170722Y-109093003D01*
X139134342Y-109180831D01*
X139115796Y-109274068D01*
X139115796Y-109369132D01*
X139134342Y-109462369D01*
X139170722Y-109550197D01*
X139223536Y-109629240D01*
X139268197Y-109673901D01*
X139268196Y-111184127D01*
X139266599Y-111200340D01*
X139268196Y-111216553D01*
X139268196Y-111216554D01*
X139272974Y-111265069D01*
X139291856Y-111327312D01*
X139306129Y-111354016D01*
X139322517Y-111384677D01*
X139331278Y-111395352D01*
X139363780Y-111434956D01*
X139376383Y-111445299D01*
X139438256Y-111507172D01*
X139369803Y-111535526D01*
X139290760Y-111588340D01*
X139223540Y-111655560D01*
X139170726Y-111734603D01*
X139134346Y-111822431D01*
X139115800Y-111915668D01*
X139115800Y-112010732D01*
X139134346Y-112103969D01*
X139170726Y-112191797D01*
X139223540Y-112270840D01*
X139290760Y-112338060D01*
X139369803Y-112390874D01*
X139457631Y-112427254D01*
X139550868Y-112445800D01*
X139645932Y-112445800D01*
X139739169Y-112427254D01*
X139826997Y-112390874D01*
X139854532Y-112372476D01*
X141923800Y-114441745D01*
X141923800Y-115142427D01*
X140081000Y-113299628D01*
X140081000Y-113236468D01*
X140062454Y-113143231D01*
X140026074Y-113055403D01*
X139973260Y-112976360D01*
X139906040Y-112909140D01*
X139826997Y-112856326D01*
X139739169Y-112819946D01*
X139645932Y-112801400D01*
X139550868Y-112801400D01*
X139457631Y-112819946D01*
X139369803Y-112856326D01*
X139290760Y-112909140D01*
X139223540Y-112976360D01*
X139170726Y-113055403D01*
X139134346Y-113143231D01*
X139115800Y-113236468D01*
X139115800Y-113331532D01*
X139134346Y-113424769D01*
X139170726Y-113512597D01*
X139223540Y-113591640D01*
X139290760Y-113658860D01*
X139369803Y-113711674D01*
X139457631Y-113748054D01*
X139550868Y-113766600D01*
X139614028Y-113766600D01*
X141923800Y-116076373D01*
X141923800Y-116673800D01*
X138279000Y-116673800D01*
X138279000Y-97513649D01*
X138284522Y-97457333D01*
X138296913Y-97416291D01*
X138317038Y-97378442D01*
X138344133Y-97345220D01*
X138377171Y-97317889D01*
X138414875Y-97297502D01*
X138455830Y-97284825D01*
X138511248Y-97279000D01*
X144491893Y-97279000D01*
X144405607Y-97336655D01*
G36*
X151746000Y-99246000D02*
G01*
X151202199Y-99246000D01*
X151180473Y-99219527D01*
X151141797Y-99187786D01*
X151097672Y-99164200D01*
X151049793Y-99149676D01*
X151000000Y-99144772D01*
X149000000Y-99144772D01*
X148950207Y-99149676D01*
X148902328Y-99164200D01*
X148858203Y-99187786D01*
X148819527Y-99219527D01*
X148797801Y-99246000D01*
X148500000Y-99246000D01*
X148450447Y-99250881D01*
X148402798Y-99265335D01*
X148358885Y-99288807D01*
X148320395Y-99320395D01*
X148288807Y-99358885D01*
X148265335Y-99402798D01*
X148250881Y-99450447D01*
X148246000Y-99500000D01*
X148246000Y-100746000D01*
X145754000Y-100746000D01*
X145754000Y-98290582D01*
X145771181Y-98249103D01*
X145804000Y-98084112D01*
X145804000Y-97915888D01*
X145771181Y-97750897D01*
X145754000Y-97709418D01*
X145754000Y-97279000D01*
X151746000Y-97279000D01*
X151746000Y-99246000D01*
G37*
X151746000Y-99246000D02*
X151202199Y-99246000D01*
X151180473Y-99219527D01*
X151141797Y-99187786D01*
X151097672Y-99164200D01*
X151049793Y-99149676D01*
X151000000Y-99144772D01*
X149000000Y-99144772D01*
X148950207Y-99149676D01*
X148902328Y-99164200D01*
X148858203Y-99187786D01*
X148819527Y-99219527D01*
X148797801Y-99246000D01*
X148500000Y-99246000D01*
X148450447Y-99250881D01*
X148402798Y-99265335D01*
X148358885Y-99288807D01*
X148320395Y-99320395D01*
X148288807Y-99358885D01*
X148265335Y-99402798D01*
X148250881Y-99450447D01*
X148246000Y-99500000D01*
X148246000Y-100746000D01*
X145754000Y-100746000D01*
X145754000Y-98290582D01*
X145771181Y-98249103D01*
X145804000Y-98084112D01*
X145804000Y-97915888D01*
X145771181Y-97750897D01*
X145754000Y-97709418D01*
X145754000Y-97279000D01*
X151746000Y-97279000D01*
X151746000Y-99246000D01*
M02*
